<?xml version="1.0" encoding="UTF-8" standalone="no"?>
<svg width="247px" height="57px" viewBox="0 0 247 57" version="1.1" xmlns="http://www.w3.org/2000/svg" xmlns:xlink="http://www.w3.org/1999/xlink">
    <!-- Generator: Sketch 50.2 (55047) - http://www.bohemiancoding.com/sketch -->
    <title>length_thumbnails</title>
    <desc>Created with Sketch.</desc>
    <defs></defs>
    <g id="BodyParts-Thumbnail-Final" stroke="none" stroke-width="1" fill="none" fill-rule="evenodd">
        <g id="length_thumbnails" transform="translate(0.000000, 1.000000)">
            <text id="ALL" fill-opacity="0.775334013" fill="#686868" font-family="CenturyGothic-Bold, Century Gothic, Arial" font-size="20" font-weight="bold">
                <tspan x="215" y="36">ALL</tspan>
            </text>
            <g id="length_thumbnails_0" fill-rule="nonzero">
                <path d="M41.0654773,23.1797422 C41.0654773,23.2037389 41.0890455,22.9821223 41.0890455,23.0075306 C41.0313036,20.6007419 40.7057395,18.2083786 40.1185909,15.8762777 C39.7917258,14.7141948 39.3873546,13.5761781 38.9082955,12.4701587 C38.9082955,12.4701587 38.5201136,12.1497322 38.3260227,11.9761091 C38.2256061,11.8985108 38.1360535,11.80733 38.0598409,11.7050876 L37.86575,11.5074678 L37.7687045,11.4086578 C36.2394257,9.80253665 35.3205749,7.6952817 35.1762045,5.46312397 L35.1526364,5.48712066 C33.9280218,6.7175999 32.2967348,7.43885343 30.5776364,7.50990082 C28.8596236,7.43404167 27.2299629,6.7135072 26.0026364,5.48712066 L25.9665909,5.46312397 C25.828553,7.6972808 24.908796,9.80711465 23.3740909,11.4100694 L23.2770455,11.5088793 L23.0829545,11.7064991 L22.8167727,11.9775207 C22.6226818,12.1497322 22.4285909,12.3233554 22.2345,12.4715702 C21.7518219,13.5756256 21.3473572,14.7134339 21.0242045,15.8762777 C20.413395,18.2035738 20.0874392,20.5988153 20.05375,23.0075306 C20.05375,22.9835338 20.0773182,22.9581256 20.0773182,22.9341289 C20.6110682,24.2666513 20.8037727,25.5497686 21.2404773,26.832886 C22.234338,29.801166 21.9067677,33.0632272 20.3435,35.7653025 C23.6892986,36.6448462 27.1178348,37.1578063 30.5707045,37.2954446 C34.0237414,37.1596424 37.4524693,36.6466536 40.7979091,35.7653025 C39.2346414,33.0632272 38.9070711,29.801166 39.9009318,26.832886 C40.3625909,25.5737653 40.5317273,24.5122645 41.0654773,23.1797422 Z" id="Path_1246" fill="#F4F4F4"></path>
                <path d="M41.5243636,13.9565422 C41.4522727,13.9325455 41.40375,13.9071372 41.3302727,13.8831405 C41.2511398,13.8459407 41.1701591,13.8129595 41.0876591,13.7843306 C41.0184603,13.7614936 40.9530308,13.728184 40.8935682,13.6855207 C40.8214773,13.661524 40.7549318,13.6121191 40.6759091,13.5867107 L40.5372727,13.5133091 L40.2461364,13.372152 C40.2225682,13.3481554 40.1976136,13.3481554 40.1740455,13.3227471 C39.5128708,12.9501357 38.8948456,12.5031656 38.3315682,11.9902248 C38.2311515,11.9126266 38.1415989,11.8214457 38.0653864,11.7192033 L37.8712955,11.5215835 L37.77425,11.4227736 C36.2454506,9.82551593 35.3333909,7.72065954 35.2053182,5.49417851 L35.1748182,5.49417851 C35.6299771,5.89658215 36.1565603,6.20658561 36.7261591,6.40746446 C38.0860144,7.05515035 39.4774191,7.63181961 40.8949545,8.13522645 C43.4444517,8.5554268 45.3091092,10.8104173 45.2814091,13.4399074 C45.3049773,13.884552 45.3299318,14.3037884 45.3535,14.7470215 C44.1994343,14.7286449 43.0551008,14.5286619 41.9610682,14.154162 L41.9375,14.154162 C41.8046564,14.0782155 41.6665828,14.0121693 41.5243636,13.9565422 Z" id="Path_1237" fill="#F4F4F4"></path>
                <path d="M43.7051136,49.7299669 C43.5817579,51.8191334 43.3144564,53.8969001 42.9051818,55.9479338 L31.4676818,55.9479338 C31.3955909,55.034648 31.2735909,54.0973653 31.2015,53.1840793 C31.1820659,53.0438378 31.1741824,52.9021874 31.1779318,52.7606082 C35.5405999,52.8684715 39.8563729,51.8243772 43.7051136,49.7299669 Z" id="Path_1230" fill="#F4F4F4"></path>
                <path d="M43.5359773,41.8590513 C42.7528093,39.7695625 41.8382252,37.7336248 40.7979091,35.7638909 C37.4521126,36.6434451 34.0235753,37.1564053 30.5707045,37.2940331 C27.1176677,37.1582308 23.6889398,36.645242 20.3435,35.7638909 C19.3085447,37.7363326 18.3941176,39.771921 17.6054318,41.8590513 C16.7848844,44.1544001 16.3426798,46.5720806 16.2967045,49.0143009 C16.6599318,49.2613256 17.0481136,49.5083504 17.4362955,49.7299669 C21.2870635,51.8182995 25.6033868,52.8556031 29.9648636,52.7408463 L31.1765455,52.7408463 C35.5380223,52.8556031 39.8543456,51.8182995 43.7051136,49.7299669 C44.0932955,49.5083504 44.4800909,49.2613256 44.8447045,49.0143009 C44.7969348,46.5722673 44.3547845,44.1548837 43.5359773,41.8590513 Z" id="Path_1231" fill="#D6D4D4"></path>
                <path d="M40.1185909,15.9002744 C39.8141508,14.7311939 39.4086746,13.5918455 38.9069091,12.4955669 C39.3119583,12.7977881 39.7326302,13.0776807 40.1671136,13.3340397 C40.1906818,13.3580364 40.2156364,13.3580364 40.2392045,13.3834446 L40.5303409,13.5246016 L40.6689773,13.5980033 C40.7366807,13.6410544 40.8099353,13.6743095 40.8866364,13.6968133 C40.9558351,13.7196503 41.0212647,13.7529598 41.0807273,13.7956231 C41.1598631,13.8328159 41.2408435,13.8657969 41.3233409,13.8944331 C41.3954318,13.9184298 41.4439545,13.943838 41.5174318,13.9678347 C41.6560682,14.0172397 41.7836136,14.0666446 41.9333409,14.1089918 L41.9569091,14.1089918 C43.0575859,14.4913502 44.211364,14.6915114 45.3742955,14.7018513 C45.4014394,16.4801731 45.5636659,18.2536919 45.8595227,20.0065322 C46.5859773,23.7824827 47.6770455,27.4878545 48.4520227,31.234162 C49.227,34.8858942 52.8384773,38.0943934 53.5649318,41.7461256 C53.7859319,42.5827716 54.1738598,43.3640846 54.7045227,44.0413389 C55.7706364,45.5940662 59.0909773,47.0522182 60.2790909,48.5315438 C60.1979709,48.6526874 60.1090485,48.7682193 60.0129091,48.8773785 C59.2615,48.5315438 58.5100909,48.2111173 57.7836364,47.9146876 C58.0012955,49.5436397 58.2203409,51.2205851 58.4130455,52.9243504 C58.4630508,53.3688325 58.2908844,53.8092397 57.9545659,54.0971563 C57.6182474,54.385073 57.1625683,54.4821537 56.7410909,54.3556827 C55.9054996,54.2420315 55.1434288,53.8096719 54.6088636,53.1459669 C53.5481713,51.2990892 52.8103075,49.2788017 52.4281136,47.1750248 C52.0884545,44.0173422 49.3989091,40.9076529 47.5079091,38.3174215 C45.3756818,35.3813554 43.2905909,33.0367372 42.6556364,30.2982909 C42.0733636,27.8986215 41.6130909,25.486248 41.1042955,23.0682281 L41.1042955,23.0442314 C41.0494218,20.632009 40.7186222,18.2345172 40.1185909,15.9002744 Z" id="Path_1232" fill="#F4F4F4"></path>
                <path d="M19.6170455,13.9508958 C19.6891364,13.9268991 19.7376591,13.9014909 19.8111364,13.8774942 C19.8902703,13.8402969 19.9712509,13.8073156 20.05375,13.7786843 C20.1229487,13.7558473 20.1883783,13.7225377 20.2478409,13.6798744 C20.3199318,13.6558777 20.3864773,13.6064727 20.4655,13.5810645 L20.6041364,13.5076628 L20.8952727,13.3665058 C20.9188409,13.3425091 20.9437955,13.3425091 20.9673636,13.3171009 C21.6285445,12.9444996 22.2465708,12.4975287 22.8098409,11.9845785 C22.9102576,11.9069802 22.9998102,11.8157994 23.0760227,11.7135571 L23.2701136,11.5159372 L23.3671591,11.4171273 C24.8959585,9.81986966 25.8080182,7.71501325 25.9360909,5.48853223 L25.9596591,5.46453554 C25.5045002,5.86693917 24.977917,6.17694263 24.4083182,6.37782149 C23.050674,7.02432861 21.6615889,7.60005312 20.2464545,8.10276033 C17.701898,8.53181506 15.8417108,10.7813994 15.86,13.4074413 C15.8364318,13.852086 15.8114773,14.2713223 15.7879091,14.7145554 C16.9419748,14.6961789 18.0863083,14.4961957 19.1803409,14.1216958 L19.2039091,14.1216958 C19.3508636,14.0737025 19.4964318,14.0003009 19.6170455,13.9508958 Z" id="Path_1212" fill="#F4F4F4"></path>
                <path d="M17.4598636,49.7299669 C17.583224,51.819133 17.8505254,53.8968994 18.2597955,55.9479338 L29.6986818,55.9479338 C29.7707727,55.034648 29.8927727,54.0973653 29.9648636,53.1840793 C29.9842978,53.0438378 29.9921813,52.9021874 29.9884318,52.7606082 C25.624692,52.8746077 21.3069534,51.8301535 17.4598636,49.7299669 Z" id="Path_1206" fill="#F4F4F4"></path>
                <path d="M21.0463864,15.9002744 C21.3508334,14.7311962 21.7563094,13.5918484 22.2580682,12.4955669 C21.8447084,12.7901639 21.4161724,13.062044 20.9742955,13.3100429 C20.9507273,13.3340397 20.9257727,13.3340397 20.9022045,13.359448 L20.6110682,13.5006049 L20.4724318,13.5740066 C20.4047284,13.6170576 20.3314738,13.6503128 20.2547727,13.6728165 C20.185574,13.6956535 20.1201444,13.7289632 20.0606818,13.7716264 C19.9815469,13.8088215 19.9005664,13.8418026 19.8180682,13.8704364 C19.7459773,13.8944331 19.6974545,13.9198413 19.6239773,13.943838 C19.4853409,13.9932429 19.3577955,14.042648 19.2080682,14.0849951 L19.1845,14.0849951 C18.0838232,14.4673535 16.9300451,14.6675147 15.7671136,14.6778545 C15.7399752,16.4561767 15.5777487,18.2296959 15.2818864,19.9825355 C14.5554318,23.758486 13.4643636,27.4638578 12.6893864,31.2101653 C11.9144091,34.8618975 8.30293182,38.0703967 7.57647727,41.7221289 C7.35547719,42.5587749 6.96754932,43.3400878 6.43688636,44.0173422 C5.37077273,45.5700694 2.05043182,47.0282215 0.862318182,48.5075471 C0.943441434,48.6286882 1.03236372,48.7442199 1.1285,48.8533818 C1.87990909,48.5075471 2.63131818,48.1871207 3.35777273,47.8906909 C3.14011364,49.5196429 2.92106818,51.1965884 2.72836364,52.9003537 C2.67835833,53.3448358 2.85052466,53.7852431 3.18684316,54.0731596 C3.52316166,54.3610763 3.97884078,54.458157 4.40031818,54.331686 C5.23307319,54.2206267 5.99377113,53.7930223 6.52977273,53.1346744 C7.59046506,51.2877966 8.32832885,49.267509 8.71052273,47.1637322 C9.05018182,44.0060496 11.7397273,40.8963603 13.6307273,38.3061289 C15.7629545,35.3700628 17.8480455,33.0254446 18.483,30.2869984 C19.0652727,27.8873289 19.5255455,25.4749554 20.0343409,23.0569355 L20.0343409,23.0329389 C20.0861318,20.622375 20.4259807,18.2271977 21.0463864,15.9002744 Z" id="Path_1207" fill="#F4F4F4"></path>
                <path d="M30.1742558,1.00290909 C28.8840037,1.00290909 27.6547754,1.56222907 26.7940918,2.54094176 C26.9060363,3.74801379 26.4742198,4.9416364 25.62,5.78635377 L25.6438092,5.81059588 C26.8660214,7.0104728 28.4785399,7.71142124 30.1749998,7.78026703 C31.8704099,7.70669332 33.4813508,7.00643064 34.7061904,5.81059588 L34.7299997,5.78635377 C33.8812869,4.93791837 33.4500092,3.74729395 33.5544198,2.54094176 C32.6937362,1.56222907 31.4645079,1.00290909 30.1742558,1.00290909 Z" id="Path_396" stroke="#F4F4F4" stroke-width="0.2" fill="#F4F4F4"></path>
            </g>
            <g id="length_thumbnails_1" transform="translate(68.000000, 0.000000)" fill-rule="nonzero">
                <path d="M34.0698217,1.589101 C33.1730808,0.587595645 31.8923557,0.01525 30.5480502,0.01525 C29.2037448,0.01525 27.9230196,0.587595645 27.0262787,1.589101 C27.142913,2.82428383 26.6930062,4.04570401 25.803,4.9100935 L25.8278067,4.93490017 C27.1012218,6.16272032 28.7812945,6.87999274 30.5488254,6.95044184 C32.3152624,6.87515472 33.9936915,6.15858402 35.2698442,4.93490017 L35.2946508,4.9100935 C34.4103824,4.04189939 33.9610369,2.82354723 34.0698217,1.589101 Z" id="Path_670-path" stroke="#F4F4F4" stroke-width="0.2" fill="#F4F4F4"></path>
                <path d="M41.2157129,22.7167697 C41.2157129,22.7407307 41.2396739,22.5194439 41.2396739,22.5448144 C41.1809696,20.1416072 40.8499794,17.752804 40.2530451,15.4241735 C39.9202167,14.2642617 39.5086354,13.1284103 39.0211686,12.0245326 C39.0211686,12.0245326 38.626517,11.704583 38.4291913,11.5312182 C38.327101,11.4537354 38.2360559,11.3626903 38.1585731,11.2606 L37.9612473,11.0632742 L37.8625845,10.9646114 C36.3075134,9.36051777 35.373325,7.25584613 35.2268761,5.02651553 L35.2029152,5.05047652 C33.9578903,6.27912469 32.2994153,6.99930492 30.5516652,7.07024659 C28.8050188,6.99450033 27.1481972,6.27503807 25.9004152,5.05047652 L25.8764542,5.02651553 C25.7361156,7.25734773 24.8010294,9.36404194 23.2407458,10.9646114 L23.142083,11.0632742 L22.9447572,11.2606 L22.674139,11.5312182 C22.4768133,11.7031735 22.2794875,11.8765383 22.0821617,12.0245326 C21.5909502,13.1269035 21.1792728,14.26302 20.8502852,15.4241735 C20.2292955,17.7480064 19.8979071,20.1396835 19.8636564,22.5448144 C19.8636564,22.5208534 19.8876174,22.495483 19.8876174,22.471522 C20.4302633,23.8020614 20.6261795,25.0832693 21.0701625,26.3644773 C22.0805876,29.3283402 21.7475577,32.5855471 20.1582356,35.2836015 C23.5597975,36.1618363 27.0454759,36.6740331 30.5558936,36.8114667 C34.066481,36.6758665 37.5523543,36.1636411 40.9535515,35.2836015 C39.3642294,32.5855471 39.0311995,29.3283402 40.0416246,26.3644773 C40.4757413,25.1072303 40.673067,24.0473091 41.2157129,22.7167697 Z" id="Path_1299" fill="#F4F4F4"></path>
                <path d="M41.6836568,13.5016568 C41.6103644,13.4776958 41.561033,13.4523254 41.4863311,13.4283644 C41.4058783,13.3912223 41.323548,13.3582902 41.2396739,13.3297015 C41.1693218,13.3068985 41.1028018,13.2736385 41.0423481,13.2310386 C40.9690557,13.2070777 40.9014011,13.1577462 40.8210614,13.1323758 L40.6801144,13.0590833 L40.3841258,12.9181364 C40.3601648,12.8941754 40.3347943,12.8941754 40.3108333,12.8688049 C39.6386454,12.496738 39.0103209,12.0504337 38.4376481,11.5382655 C38.3355579,11.4607828 38.2445127,11.3697376 38.1670299,11.2676473 L37.9697042,11.0703216 L37.8710413,10.9716587 C36.3167619,9.37677796 35.3895012,7.27505379 35.2592939,5.05188598 L35.2282856,5.02651553 C35.6910305,5.42832035 36.2263901,5.7378625 36.8054822,5.93844242 C38.1879998,6.58516897 39.6025949,7.16098019 41.0437576,7.66363333 C43.6357463,8.08320839 45.5314815,10.3348432 45.5033197,12.9604205 C45.5272807,13.4044034 45.5526511,13.8230159 45.5766121,14.2655894 C44.403312,14.2472402 43.2399063,14.0475547 42.1276398,13.6736121 L42.1036788,13.6736121 C41.954275,13.6242807 41.8062807,13.5509883 41.6836568,13.5016568 Z" id="Path_1290" fill="#F4F4F4"></path>
                <path d="M43.9007527,49.2274852 C43.7753409,51.3135428 43.5035844,53.3882177 43.0874886,55.4361992 L31.4593636,55.4361992 C31.3860712,54.5242723 31.2620379,53.5883845 31.1887455,52.6764576 C31.1689874,52.5364248 31.1609725,52.3949851 31.1647845,52.2536167 C35.6001637,52.3613194 39.9878662,51.3187788 43.9007527,49.2274852 Z" id="Path_1283" fill="#F4F4F4"></path>
                <path d="M43.7287973,41.3682822 C42.9325765,39.2819028 42.0027495,37.2489948 40.9450947,35.282192 C34.1629534,37.3190583 26.93192,37.3190583 20.1497788,35.282192 C19.0975743,37.2516985 18.1679067,39.2842578 17.3660761,41.3682822 C16.5318529,43.6602154 16.0822782,46.0742981 16.0355367,48.5128841 C16.4048178,48.7595413 16.7994693,49.0061985 17.1941208,49.2274852 C21.1090683,51.3127101 25.4973304,52.3484701 29.9314985,52.2338841 L31.163375,52.2338841 C35.5975431,52.3484701 39.9858052,51.3127101 43.9007527,49.2274852 C44.2954042,49.0061985 44.6886462,48.7595413 45.0593367,48.5128841 C45.0107708,46.0744846 44.5612513,43.6606982 43.7287973,41.3682822 Z" id="Path_1284" fill="#D6D4D4"></path>
                <path d="M40.2290841,15.4481345 C39.919577,14.2807916 39.5073426,13.1431379 38.9972076,12.0484936 C39.4090045,12.3502694 39.8366879,12.6297457 40.2784155,12.8857186 C40.3023765,12.9096795 40.327747,12.9096795 40.351708,12.93505 L40.6476966,13.075997 L40.7886436,13.1492894 C40.8574753,13.1922764 40.9319509,13.2254821 41.0099303,13.2479523 C41.0802824,13.2707553 41.1468024,13.3040153 41.2072561,13.3466152 C41.2877119,13.3837502 41.3700418,13.4166822 41.4539133,13.445278 C41.5272057,13.469239 41.5765371,13.4946095 41.651239,13.5185705 C41.792186,13.5679019 41.9218572,13.6172333 42.0740799,13.6595174 L42.0980409,13.6595174 C43.2170624,14.0413069 44.39007,14.2411702 45.5723837,14.2514947 C45.5999913,16.0271696 45.7649215,17.7980484 46.0656981,19.5482818 C46.8042602,23.3186133 47.9135129,27.0184712 48.7014064,30.7592038 C49.4893,34.4055019 53.1609686,37.6092265 53.8995307,41.2555246 C54.124252,42.0909111 54.5186415,42.871054 55.0581148,43.5473223 C56.141997,45.097739 59.5176769,46.5537212 60.7255924,48.0308455 C60.6431339,48.1518186 60.5527287,48.2671794 60.4549742,48.3761655 C59.6910417,48.0308455 58.9271091,47.7108958 58.188547,47.4149072 C58.4098337,49.0414352 58.6325299,50.7158852 58.8284462,52.4171152 C58.8792849,52.8609358 58.7042492,53.3006877 58.3623254,53.5881758 C58.0204016,53.875664 57.5571278,53.9726003 57.1286258,53.8463174 C56.2791079,53.7328354 55.5043359,53.3011191 54.9608614,52.6384019 C53.8824908,50.7942724 53.1323293,48.7769913 52.7437655,46.6763451 C52.3984455,43.5233614 49.6640742,40.4182996 47.7415576,37.8319227 C45.5737932,34.9002258 43.4539508,32.5590966 42.8084136,29.8247254 C42.2164364,27.4286269 41.7484924,25.0198432 41.231217,22.6054216 L41.231217,22.5814606 C41.1996783,20.1709119 40.8629545,17.7740639 40.2290841,15.4481345 Z" id="Path_1285" fill="#F4F4F4"></path>
                <path d="M19.4112167,13.5016568 C19.4845091,13.4776958 19.5338405,13.4523254 19.6085424,13.4283644 C19.6889952,13.3912223 19.7713255,13.3582902 19.8551996,13.3297015 C19.9255517,13.3068985 19.9920717,13.2736385 20.0525254,13.2310386 C20.1258178,13.2070777 20.1934723,13.1577462 20.2738121,13.1323758 L20.4147591,13.0590833 L20.7107477,12.9181364 C20.7347087,12.8941754 20.7600792,12.8941754 20.7840402,12.8688049 C21.4562281,12.496738 22.0845526,12.0504337 22.6572254,11.5382655 C22.7593156,11.4607828 22.8503608,11.3697376 22.9278436,11.2676473 L23.1251693,11.0703216 L23.2238322,10.9716587 C24.7781116,9.37677796 25.7053723,7.27505379 25.8355795,5.05188598 L25.8595405,5.027925 C25.3967956,5.42972982 24.861436,5.73927196 24.2823439,5.93985189 C22.8998224,6.58656948 21.4852278,7.16238051 20.0440686,7.6650428 C17.4520798,8.08461786 15.5563447,10.3362527 15.5845064,12.9618299 C15.5605455,13.4058129 15.535175,13.8244254 15.511214,14.2669989 C16.6845141,14.2486497 17.8479199,14.0489642 18.9601864,13.6750216 L18.9841473,13.6750216 C19.1405985,13.6242807 19.2632223,13.5509883 19.4112167,13.5016568 Z" id="Path_1265" fill="#F4F4F4"></path>
                <path d="M17.1927114,49.2274852 C17.3181231,51.3135428 17.5898796,53.3882177 18.0059754,55.4361992 L29.6355098,55.4361992 C29.7088023,54.5242723 29.8328356,53.5883845 29.906128,52.6764576 C29.9258861,52.5364248 29.933901,52.3949851 29.930089,52.2536167 C25.494235,52.3615639 21.106016,51.3190159 17.1927114,49.2274852 Z" id="Path_1259" fill="#F4F4F4"></path>
                <path d="M20.8404189,15.4481345 C21.149926,14.2807916 21.5621604,13.1431379 22.0722955,12.0484936 C21.6604985,12.3502694 21.2328151,12.6297457 20.7910875,12.8857186 C20.7671265,12.9096795 20.7417561,12.9096795 20.7177951,12.93505 L20.4218064,13.075997 L20.2808595,13.1492894 C20.2120363,13.1922926 20.1375584,13.2254993 20.0595727,13.2479523 C19.9892207,13.2707553 19.9227006,13.3040153 19.862247,13.3466152 C19.7817912,13.3837502 19.6994612,13.4166822 19.6155898,13.445278 C19.5422973,13.469239 19.4929659,13.4946095 19.418264,13.5185705 C19.277317,13.5679019 19.1476458,13.6172333 18.9954231,13.6595174 L18.9714621,13.6595174 C17.8524407,14.0413069 16.679433,14.2411702 15.4971193,14.2514947 C15.4695342,16.0271709 15.3046039,17.7980513 15.0038049,19.5482818 C14.2652428,23.3186133 13.1559902,27.0184712 12.3680966,30.7592038 C11.580203,34.4055019 7.90853447,37.6092265 7.16997235,41.2555246 C6.94528893,42.0909256 6.55089559,42.8710759 6.01138826,43.5473223 C4.92750606,45.097739 1.55182614,46.5537212 0.343910606,48.0308455 C0.426382571,48.1518088 0.516787063,48.2671687 0.614528788,48.3761655 C1.37846136,48.0308455 2.14239394,47.7108958 2.88095606,47.4149072 C2.65966932,49.0414352 2.43697311,50.7158852 2.24105682,52.4171152 C2.19021809,52.8609358 2.36525386,53.3006877 2.70717767,53.5881758 C3.04910148,53.875664 3.51237525,53.9726003 3.94087727,53.8463174 C4.79039513,53.7328354 5.56516709,53.3011191 6.10864167,52.6384019 C7.18701221,50.7942724 7.93717372,48.7769913 8.3257375,46.6763451 C8.67105758,43.5233614 11.4054288,40.4182996 13.3279455,37.8319227 C15.4957098,34.9002258 17.6155523,32.5590966 18.2610894,29.8247254 C18.8530667,27.4286269 19.3210106,25.0198432 19.838286,22.6054216 L19.838286,22.5814606 C19.8941508,20.1728341 20.2304626,17.7789188 20.8404189,15.4481345 Z" id="Path_1260" fill="#F4F4F4"></path>
                <path d="M30.5967682,44.9892098 C35.2464682,45.0807317 39.8506006,44.0586114 44.024786,42.0081814 C43.9533493,41.7908805 43.8710262,41.5773108 43.7781288,41.3682822 C42.9800773,39.2817621 42.0483656,37.2488512 40.9887883,35.282192 C34.206647,37.3190583 26.9756136,37.3190583 20.1934723,35.282192 C19.1412678,37.2516985 18.2116003,39.2842578 17.4097697,41.3682822 C17.3364773,41.5895689 17.2378144,41.7911231 17.1631125,42.0081814 C21.3389996,44.0594905 25.9451706,45.0816342 30.5967682,44.9892098 Z" id="Path_1346" fill="#676767"></path>
            </g>
            <g id="length_thumbnails_2" transform="translate(135.000000, 0.000000)" fill-rule="nonzero">
                <path d="M34.0698217,1.589101 C33.1730808,0.587595645 31.8923557,0.01525 30.5480502,0.01525 C29.2037448,0.01525 27.9230196,0.587595645 27.0262787,1.589101 C27.142913,2.82428383 26.6930062,4.04570401 25.803,4.9100935 L25.8278067,4.93490017 C27.1012218,6.16272032 28.7812945,6.87999274 30.5488254,6.95044184 C32.3152624,6.87515472 33.9936915,6.15858402 35.2698442,4.93490017 L35.2946508,4.9100935 C34.4103824,4.04189939 33.9610369,2.82354723 34.0698217,1.589101 Z" id="Path_670-path" stroke="#F4F4F4" stroke-width="0.2" fill="#F4F4F4"></path>
                <path d="M44.0980784,49.2274852 C43.9726251,51.3135388 43.700869,53.3882108 43.2848144,55.4361992 L31.6566894,55.4361992 C31.583397,54.5242723 31.4593636,53.5883845 31.3860712,52.6764576 C31.3663132,52.5364248 31.3582983,52.3949851 31.3621102,52.2536167 C35.7974895,52.3613194 40.185192,51.3187788 44.0980784,49.2274852 Z" id="Path_1332" fill="#F4F4F4"></path>
                <path d="M43.9275326,41.3682822 C43.1313298,39.2818952 42.2015022,37.2489861 41.1438299,35.282192 C34.3621272,37.3187761 27.1316262,37.3187761 20.3499235,35.282192 C19.2977222,37.2517001 18.3680547,39.2842591 17.5662208,41.3682822 C16.7319976,43.6602154 16.2824229,46.0742981 16.2356814,48.5128841 C16.6049625,48.7595413 16.999614,49.0061985 17.3942655,49.2274852 C21.309213,51.3127101 25.6974751,52.3484701 30.1316432,52.2338841 L31.3635197,52.2338841 C35.7976878,52.3484701 40.1859499,51.3127101 44.1008973,49.2274852 C44.4955489,49.0061985 44.8887909,48.7595413 45.2594814,48.5128841 C45.2104888,46.0744031 44.7604919,43.6606104 43.9275326,41.3682822 Z" id="Path_1333" fill="#676767"></path>
                <path d="M40.4531898,15.4481345 C40.1437038,14.2807849 39.7314688,13.1431295 39.2213133,12.0484936 C39.6331179,12.3502583 40.0608007,12.6297342 40.5025212,12.8857186 C40.5278917,12.9096795 40.5518527,12.9096795 40.5758136,12.93505 L40.8718023,13.075997 L41.0127492,13.1492894 C41.081581,13.1922764 41.1560566,13.2254821 41.234036,13.2479523 C41.304388,13.2707553 41.3709081,13.3040153 41.4313617,13.3466152 C41.5118245,13.383734 41.5941536,13.4166656 41.6780189,13.445278 C41.7513114,13.469239 41.8006428,13.4946095 41.8753447,13.5185705 C42.0162917,13.5679019 42.1459629,13.6172333 42.2981856,13.6595174 L42.3235561,13.6595174 C43.4425775,14.0413069 44.6155852,14.2411702 45.7978989,14.2514947 C45.8255065,16.0271696 45.9904366,17.7980484 46.2912133,19.5482818 C47.0297754,23.3186133 48.139028,27.0184712 48.9269216,30.7592038 C49.7148152,34.4055019 53.3864837,37.6092265 54.1250458,41.2555246 C54.3496563,42.0963292 54.7460644,42.8814669 55.2892678,43.561417 C56.37315,45.1118337 59.7488299,46.5678159 60.9567455,48.0449402 C60.8742601,48.1658937 60.7838563,48.2812528 60.6861273,48.3902602 C59.9221947,48.0449402 59.1582621,47.7249905 58.4197,47.4290019 C58.6409867,49.0555299 58.863683,50.7299799 59.0595992,52.4312098 C59.110438,52.8750305 58.9354022,53.3147824 58.5934784,53.6022705 C58.2515546,53.8897587 57.7882808,53.986695 57.3597788,53.8604121 C56.5102609,53.7469301 55.735489,53.3152138 55.1920144,52.6524966 C54.1136439,50.8083671 53.3634823,48.791086 52.9749186,46.6904398 C52.6295985,43.5374561 49.8952273,40.4323943 47.9727106,37.8460174 C45.8049462,34.9143205 43.6851038,32.5731913 43.0395667,29.8388201 C42.4489989,27.4427216 41.9796455,25.0339379 41.4623701,22.6195163 L41.4623701,22.5955553 C41.4052959,20.1819248 41.0666096,17.7832117 40.4531898,15.4481345 Z" id="Path_1334" fill="#F4F4F4"></path>
                <path d="M41.882392,13.5016568 C41.8090996,13.4776958 41.7597682,13.4523254 41.6850663,13.4283644 C41.6046105,13.3912293 41.5222806,13.3582974 41.4384091,13.3297015 C41.368057,13.3068985 41.301537,13.2736385 41.2410833,13.2310386 C41.1677909,13.2070777 41.1001364,13.1577462 41.0197966,13.1323758 L40.8788496,13.0590833 L40.582861,12.9181364 C40.5574905,12.8941754 40.5335295,12.8941754 40.5095686,12.8688049 C39.8373617,12.4967682 39.2090339,12.0504616 38.6363833,11.5382655 C38.5342931,11.4607828 38.4432479,11.3697376 38.3657652,11.2676473 L38.1684394,11.0703216 L38.0697765,10.9716587 C36.5154971,9.37677796 35.5882364,7.27505379 35.4580292,5.05188598 L35.4270208,5.02651553 C35.8897657,5.42832035 36.4251253,5.7378625 37.0042174,5.93844242 C38.386735,6.58516897 39.8013301,7.16098019 41.2424928,7.66363333 C43.8344816,8.08320839 45.7302167,10.3348432 45.7020549,12.9604205 C45.7260159,13.4044034 45.7513864,13.8230159 45.7753473,14.2655894 C44.6020472,14.2472402 43.4386415,14.0475547 42.326375,13.6736121 L42.302414,13.6736121 C42.1530102,13.6242807 42.0303864,13.5509883 41.882392,13.5016568 Z" id="Path_1338" fill="#F4F4F4"></path>
                <path d="M19.6099519,13.5016568 C19.6832443,13.4776958 19.7325758,13.4523254 19.8072777,13.4283644 C19.8877274,13.3912153 19.9700581,13.3582831 20.0539348,13.3297015 C20.1242869,13.3068985 20.190807,13.2736385 20.2512606,13.2310386 C20.324553,13.2070777 20.3922076,13.1577462 20.4725473,13.1323758 L20.6134943,13.0590833 L20.909483,12.9181364 C20.9334439,12.8941754 20.9588144,12.8941754 20.9827754,12.8688049 C21.6544845,12.4966688 22.2823345,12.0503658 22.8545511,11.5382655 C22.9566414,11.4607828 23.0476865,11.3697376 23.1251693,11.2676473 L23.3224951,11.0703216 L23.421158,10.9716587 C24.9754373,9.37677796 25.902698,7.27505379 26.0329053,5.05188598 L26.0568663,5.027925 C25.5941214,5.42972982 25.0587618,5.73927196 24.4796697,5.93985189 C23.0971452,6.58656276 21.682551,7.16237365 20.2413943,7.6650428 C17.6494056,8.08461786 15.7536704,10.3362527 15.7818322,12.9618299 C15.7578712,13.4058129 15.7325008,13.8244254 15.7085398,14.2669989 C16.881842,14.2486722 18.0452512,14.0489862 19.1575121,13.6750216 L19.1828826,13.6750216 C19.3393337,13.6242807 19.4859186,13.5509883 19.6099519,13.5016568 Z" id="Path_1318" fill="#F4F4F4"></path>
                <path d="M17.416817,49.2274852 C17.5422288,51.3135428 17.8139853,53.3882177 18.2300811,55.4361992 L29.8596155,55.4361992 C29.932908,54.5242723 30.0569413,53.5883845 30.1302337,52.6764576 C30.1505025,52.5364683 30.1589891,52.3950251 30.1556042,52.2536167 C25.7186606,52.3676923 21.3284428,51.3247849 17.416817,49.2274852 Z" id="Path_1312" fill="#F4F4F4"></path>
                <path d="M21.0631152,15.4481345 C21.3726434,14.2807982 21.7848771,13.1431464 22.2949917,12.0484936 C21.883187,12.3502583 21.4555043,12.6297342 21.0137837,12.8857186 C20.9898227,12.9096795 20.9644523,12.9096795 20.9404913,12.93505 L20.6445027,13.075997 L20.5035557,13.1492894 C20.4347153,13.1922602 20.3602421,13.2254649 20.2822689,13.2479523 C20.2119169,13.2707553 20.1453968,13.3040153 20.0849432,13.3466152 C20.0044874,13.3837502 19.9221575,13.4166822 19.838286,13.445278 C19.7649936,13.469239 19.7156621,13.4946095 19.6409602,13.5185705 C19.5000133,13.5679019 19.370342,13.6172333 19.2181193,13.6595174 L19.1927489,13.6595174 C18.0737274,14.0413069 16.9007197,14.2411702 15.7184061,14.2514947 C15.6908379,16.0271718 15.5259074,17.7980535 15.2250917,19.5482818 C14.4865295,23.3186133 13.3772769,27.0184712 12.5893833,30.7592038 C11.8014898,34.4055019 8.12982121,37.6092265 7.39125909,41.2555246 C7.16653782,42.0909111 6.77214823,42.871054 6.232675,43.5473223 C5.1487928,45.097739 1.77311288,46.5537212 0.565197348,48.0308455 C0.647682659,48.151799 0.738086475,48.2671581 0.83581553,48.3761655 C1.59974811,48.0308455 2.36368068,47.7108958 3.1022428,47.4149072 C2.88095606,49.0414352 2.65825985,50.7158852 2.46234356,52.4171152 C2.41150483,52.8609358 2.5865406,53.3006877 2.92846441,53.5881758 C3.27038822,53.875664 3.73366199,53.9726003 4.16216402,53.8463174 C5.01168188,53.7328354 5.78645383,53.3011191 6.32992841,52.6384019 C7.40829895,50.7942724 8.15846046,48.7769913 8.54702424,46.6763451 C8.89234432,43.5233614 11.6267155,40.4182996 13.5492322,37.8319227 C15.7169966,34.9002258 17.836839,32.5590966 18.4823761,29.8247254 C19.0743534,27.4286269 19.5422973,25.0198432 20.0595727,22.6054216 L20.0595727,22.5814606 C20.0915711,20.1708518 20.4287686,17.7740027 21.0631152,15.4481345 Z" id="Path_1313" fill="#F4F4F4"></path>
                <path d="M41.4144481,22.7167697 C41.4144481,22.7407307 41.4398186,22.5194439 41.4398186,22.5448144 C41.3810538,20.1416122 41.0500646,17.7528157 40.4531898,15.4241735 C40.1203239,14.2642739 39.7087435,13.128425 39.2213133,12.0245326 C39.2213133,12.0245326 38.8266617,11.704583 38.629336,11.5312182 C38.5272457,11.4537354 38.4362006,11.3626903 38.3587178,11.2606 L38.161392,11.0632742 L38.0627292,10.9646114 C36.5076581,9.36051777 35.5734697,7.25584613 35.4270208,5.02651553 L35.4030598,5.05047652 C34.158035,6.27912469 32.49956,6.99930492 30.7518098,7.07024659 C29.0051635,6.99450033 27.3483419,6.27503807 26.1005598,5.05047652 L26.0765989,5.02651553 C25.9362603,7.25734773 25.0011741,9.36404194 23.4408905,10.9646114 L23.3422277,11.0632742 L23.1449019,11.2606 L22.8742837,11.5312182 C22.676958,11.7031735 22.4796322,11.8765383 22.2823064,12.0245326 C21.7911173,13.1269125 21.3794405,14.2630274 21.0504299,15.4241735 C20.4294402,17.7480064 20.0980518,20.1396835 20.0638011,22.5448144 C20.0638011,22.5208534 20.0877621,22.495483 20.0877621,22.471522 C20.630408,23.8020614 20.8263242,25.0832693 21.2703072,26.3644773 C22.2807323,29.3283402 21.9477024,32.5855471 20.3583803,35.2836015 C23.7599401,36.1618469 27.2456196,36.6740438 30.7560383,36.8114667 C34.2666257,36.6758665 37.752499,36.1636411 41.1536962,35.2836015 C39.5641906,32.5856073 39.2311523,29.3283184 40.2417693,26.3644773 C40.699847,25.1072303 40.8718023,24.0473091 41.4144481,22.7167697 Z" id="Path_1342" fill="#F4F4F4"></path>
            </g>
        </g>
    </g>
</svg>
