<?xml version="1.0" encoding="UTF-8" standalone="no"?>
<svg width="249px" height="56px" viewBox="0 0 249 56" version="1.1" xmlns="http://www.w3.org/2000/svg" xmlns:xlink="http://www.w3.org/1999/xlink">
    <!-- Generator: Sketch 50.2 (55047) - http://www.bohemiancoding.com/sketch -->
    <title>neckline_thumbnails</title>
    <desc>Created with Sketch.</desc>
    <defs></defs>
    <g id="BodyParts-Thumbnail-Final" stroke="none" stroke-width="1" fill="none" fill-rule="evenodd">
        <g id="neckline_thumbnails">
            <text id="ALL" fill-opacity="0.775334013" fill="#686868" font-family="CenturyGothic-Bold, Century Gothic, Arial" font-size="20" font-weight="bold">
                <tspan x="217" y="36">ALL</tspan>
            </text>
            <g id="neckline_thumbnails_0" fill-rule="nonzero">
                <path d="M41.6989744,13.5623333 C41.6238974,13.5373077 41.5754103,13.5122821 41.5003333,13.4872564 C41.419225,13.4496055 41.3362157,13.416193 41.251641,13.3871538 C41.1807791,13.3639437 41.1138151,13.3301981 41.053,13.2870513 C40.9779231,13.2620256 40.8965897,13.2119744 40.8293333,13.1869487 L40.6729231,13.1118718 L40.3741795,12.9554615 C40.3491538,12.9304359 40.3241282,12.9304359 40.2991026,12.9054103 C39.6216223,12.5300585 38.9883742,12.0799119 38.4112308,11.5634103 C38.3079652,11.4850467 38.2158764,11.3929578 38.1375128,11.2896923 L37.9388718,11.0910513 L37.8387692,10.9909487 C36.2726323,9.38408675 35.3375953,7.26692769 35.2048205,5.02702564 L35.1891795,5.01451282 C35.6559466,5.41965891 36.1958701,5.73182704 36.7798718,5.93420513 C38.173766,6.58620423 39.599993,7.16671831 41.053,7.67348718 C43.6667855,8.09657941 45.5784,10.367245 45.5497949,13.0148974 C45.5748205,13.4622308 45.5998462,13.8845385 45.6248718,14.3318718 C44.4415617,14.3137585 43.2681714,14.1127415 42.1463077,13.7359487 L42.1212821,13.7359487 C41.9977179,13.6858974 41.8475641,13.6358462 41.6989744,13.5623333 Z" id="Path_121" fill="#F4F4F4"></path>
                <path d="M43.935641,49.5898718 C43.8091495,51.691948 43.53528,53.7825545 43.1160513,55.8462821 L31.3852821,55.8462821 C31.3102051,54.9265897 31.186641,53.9834359 31.1115641,53.0637436 C31.0915516,52.9239093 31.0831809,52.7826551 31.0865385,52.6414359 C35.5612382,52.7510079 39.988027,51.6996792 43.935641,49.5898718 Z" id="Path_113" fill="#F4F4F4"></path>
                <path d="M43.7854872,41.6645641 C42.979871,39.5603519 42.0394599,37.5102557 40.9701026,35.5270256 C34.1305084,37.5811693 26.8382096,37.5811693 19.9986154,35.5270256 C18.9347531,37.5129893 17.9945034,39.5627337 17.1832308,41.6645641 C16.3418928,43.976147 15.8884474,46.4109059 15.8412308,48.8703846 C16.2134872,49.1190769 16.6107692,49.3677692 17.0096154,49.5914359 C20.9579779,51.6942624 25.3836764,52.7385829 29.8555897,52.6226667 L31.0974872,52.6226667 C35.5694005,52.7385829 39.9950991,51.6942624 43.9434615,49.5914359 C44.3407436,49.3677692 44.7380256,49.1222051 45.1118462,48.8703846 C45.0678821,46.4119605 44.6197792,43.9775144 43.7854872,41.6645641 Z" id="Path_114" fill="#F4F4F4"></path>
                <path d="M33.9957692,1.73302564 C33.1035844,0.736818579 31.8294985,0.167519981 30.4921795,0.167519981 C29.1548605,0.167519981 27.8807745,0.736818579 26.9885897,1.73302564 C27.1057744,2.96229007 26.6580761,4.17821126 25.7717179,5.03797436 L25.7967436,5.063 C27.0613338,6.28631643 28.7311229,7.00265595 30.4890513,7.076 C32.2459007,6.9979232 33.9140828,6.28227307 35.181359,5.063 L35.2063846,5.03797436 C34.319157,4.17910913 33.8732405,2.96176851 33.9957692,1.73302564 Z" id="Path_115" fill="#F4F4F4"></path>
                <path d="M40.2568718,15.5237179 C39.9448373,14.3464885 39.529251,13.1991772 39.0149744,12.0952051 C39.4302219,12.3996274 39.8614903,12.6815704 40.3069231,12.9398205 C40.3319487,12.9648462 40.3569744,12.9648462 40.382,12.9898718 L40.6807436,13.1462821 L40.8371538,13.221359 C40.9066893,13.2649695 40.981971,13.298662 41.0608205,13.3214615 C41.1316733,13.3446937 41.1986342,13.3784377 41.2594615,13.4215641 C41.3405699,13.459215 41.4235791,13.4926275 41.5081538,13.5216667 C41.5832308,13.5466923 41.6317179,13.5717179 41.7067949,13.5967436 C41.8632051,13.6467949 41.9805128,13.6968462 42.1291026,13.7531538 L42.1431795,13.7531538 C43.2716797,14.1378001 44.4545596,14.3389952 45.6467692,14.3490769 C45.674574,16.1397093 45.840865,17.9255075 46.1441538,19.6904872 C46.8902308,23.4928205 48.007,27.2185128 48.8031282,30.9958205 C49.5976923,34.6730256 53.2999231,37.9028974 54.046,41.5801026 C54.27274,42.4222056 54.6704609,43.2085963 55.2143846,43.8902821 C56.3092564,45.4543846 59.7111795,46.9215128 60.9296154,48.4121026 C60.8461397,48.5337605 60.7547004,48.6497578 60.6558974,48.7593333 C59.886359,48.4121026 59.1152564,48.0883333 58.3691795,47.7895897 C58.5928462,49.4287692 58.8165128,51.1195641 59.0151538,52.8338205 C59.0667888,53.2826917 58.8893477,53.7274581 58.5429134,54.0175181 C58.196479,54.3075781 57.7274492,54.4040843 57.294641,54.274359 C56.4366634,54.1615803 55.6537618,53.7265107 55.1048974,53.0574872 C54.0171643,51.19782 53.2603826,49.1635061 52.8682308,47.0450769 C52.521,43.8652564 49.7619231,40.7339231 47.824,38.1296923 C45.6342564,35.1735385 43.5008205,32.8117436 42.8548462,30.0542308 C42.2589231,27.6439487 41.7865641,25.2055128 41.2641538,22.7733333 L41.2641538,22.7311026 C41.2222573,20.2966557 40.8840061,17.8763738 40.2568718,15.5237179 Z" id="Path_116" fill="#F4F4F4"></path>
                <path d="M19.2368974,13.5623333 C19.3119744,13.5373077 19.3604615,13.5122821 19.4355385,13.4872564 C19.5166468,13.4496055 19.5996561,13.416193 19.6842308,13.3871538 C19.7550836,13.3639217 19.8220444,13.3301777 19.8828718,13.2870513 C19.9579487,13.2620256 20.0392821,13.2119744 20.1065385,13.1869487 L20.2629487,13.1118718 L20.5616923,12.9554615 C20.5867179,12.9304359 20.6117436,12.9304359 20.6367692,12.9054103 C21.3142495,12.5300585 21.9474976,12.0799119 22.524641,11.5634103 C22.6279066,11.4850467 22.7199954,11.3929578 22.798359,11.2896923 L22.997,11.0910513 L23.0971026,10.9909487 C24.6632395,9.38408675 25.5982765,7.26692769 25.7310513,5.02702564 L25.7560769,5.002 C25.2893098,5.40714609 24.7493863,5.71931422 24.1653846,5.92169231 C22.7714904,6.57369141 21.3452634,7.15420549 19.8922564,7.66097436 C17.278471,8.08406659 15.3668564,10.3547322 15.3954615,13.0023846 C15.3704359,13.4497179 15.3454103,13.8720256 15.3203846,14.319359 C16.5036947,14.3012457 17.6770851,14.1002287 18.7989487,13.7234359 L18.8239744,13.7234359 C18.9668001,13.6841104 19.1051769,13.6301225 19.2368974,13.5623333 Z" id="Path_94" fill="#F4F4F4"></path>
                <path d="M17.0252564,49.5898718 C17.1517991,51.6919431 17.4256681,53.782546 17.8448462,55.8462821 L29.5756154,55.8462821 C29.6506923,54.9265897 29.7742564,53.9834359 29.8493333,53.0637436 C29.8693244,52.9239071 29.8776949,52.7826547 29.874359,52.6414359 C25.3996592,52.7510079 20.9728705,51.6996792 17.0252564,49.5898718 Z" id="Path_88" fill="#F4F4F4"></path>
                <path d="M20.7024615,15.5237179 C21.0144961,14.3464885 21.4300824,13.1991772 21.944359,12.0952051 C21.5291183,12.3996373 21.0978493,12.6815807 20.6524103,12.9398205 C20.6273846,12.9648462 20.602359,12.9648462 20.5773333,12.9898718 L20.2785897,13.1462821 L20.1221795,13.221359 C20.052644,13.2649695 19.9773623,13.298662 19.8985128,13.3214615 C19.82766,13.3446937 19.7606992,13.3784377 19.6998718,13.4215641 C19.6187635,13.459215 19.5357542,13.4926275 19.4511795,13.5216667 C19.3761026,13.5466923 19.3276154,13.5717179 19.2525385,13.5967436 C19.0961282,13.6467949 18.9788205,13.6968462 18.8302308,13.7531538 L18.8052051,13.7531538 C17.6767049,14.1378001 16.493825,14.3389952 15.3016154,14.3490769 C15.2738106,16.1397093 15.1075196,17.9255075 14.8042308,19.6904872 C14.0581538,23.4928205 12.9413846,27.2185128 12.1452564,30.9958205 C11.3506923,34.6730256 7.64846154,37.9028974 6.90238462,41.5801026 C6.67564466,42.4222056 6.27792374,43.2085963 5.734,43.8902821 C4.63912821,45.4543846 1.23720513,46.9215128 0.0187692308,48.4121026 C0.102230111,48.5337713 0.19367018,48.6497696 0.292487179,48.7593333 C1.06202564,48.4121026 1.83312821,48.0883333 2.57764103,47.7895897 C2.35397436,49.4287692 2.13030769,51.1195641 1.93166667,52.8338205 C1.88003167,53.2826917 2.05747283,53.7274581 2.40390715,54.0175181 C2.75034148,54.3075781 3.21937135,54.4040843 3.65217949,54.274359 C4.51015708,54.1615803 5.29305869,53.7265107 5.84192308,53.0574872 C6.92965617,51.19782 7.68643789,49.1635061 8.07858974,47.0450769 C8.42582051,43.8652564 11.1848974,40.7339231 13.1228205,38.1296923 C15.3125641,35.1735385 17.446,32.8117436 18.0919744,30.0542308 C18.6878974,27.6439487 19.1602564,25.2055128 19.6826667,22.7733333 L19.6826667,22.7311026 C19.728632,20.2961408 20.0710866,17.8758483 20.7024615,15.5237179 Z" id="Path_89" fill="#F4F4F4"></path>
                <path d="M41.251641,22.8796923 C41.251641,22.9047179 41.2766667,22.6810513 41.2766667,22.7060769 C41.2180149,20.2826373 40.8848191,17.8736578 40.2834615,15.5252821 C39.9479373,14.3555348 39.5330084,13.2100381 39.0415641,12.0967692 C39.0415641,12.0967692 38.6442821,11.773 38.445641,11.5993846 C38.3423755,11.5210211 38.2502866,11.4289322 38.1719231,11.3256667 L37.9732821,11.1270256 L37.8731795,11.0269231 C36.3045417,9.40919172 35.3621026,7.28648624 35.2142051,5.03797436 L35.1891795,5.063 C33.9735277,6.36050212 32.2748822,7.09672285 30.4968718,7.09672285 C28.7188614,7.09672285 27.0202159,6.36050212 25.8045641,5.063 L25.7795385,5.03797436 C25.6378802,7.28802006 24.6945241,9.41279092 23.1205641,11.0269231 L23.0204615,11.1270256 L22.8218205,11.3256667 L22.5481026,11.5993846 C22.3494615,11.773 22.1508205,11.9466154 21.9521795,12.0967692 C21.4569597,13.2085194 21.0419339,14.3542833 20.7102821,15.5252821 C20.0846542,17.8688236 19.7510574,20.2807022 19.7170769,22.7060769 C19.7170769,22.6810513 19.7421026,22.6560256 19.7421026,22.631 C20.2879744,23.973 20.4881795,25.2649487 20.9355128,26.5568974 C21.9547687,29.5459997 21.6188936,32.8310641 20.0158205,35.5520513 C23.4441713,36.4372225 26.9572577,36.9536986 30.4953077,37.0926923 C34.0335296,36.9555514 37.5468127,36.4390464 40.9747949,35.5520513 C39.3717218,32.8310641 39.0358467,29.5459997 40.0551026,26.5568974 C40.5118205,25.2649487 40.7057692,24.1966667 41.251641,22.8796923 Z" id="Path_130" fill="#676767"></path>
                <path d="M39.0165385,12.0717436 C38.8178974,11.9153333 38.6192564,11.7479744 38.4206154,11.574359 C38.3173627,11.4959807 38.2252757,11.4038937 38.1468974,11.300641 L37.9482564,11.102 L37.8481538,11.0018974 C36.279516,9.38416608 35.3370769,7.2614606 35.1891795,5.01294872 L35.1641538,5.03797436 C33.9485021,6.33547648 32.2498566,7.07169721 30.4718462,7.07169721 C28.6938358,7.07169721 26.9951902,6.33547648 25.7795385,5.03797436 L25.7466923,5.01451282 C25.605034,7.26455852 24.661678,9.38932938 23.0877179,11.0034615 L22.9876154,11.1035641 L22.7889744,11.3022051 L22.5152564,11.5759231 C22.3166154,11.7495385 22.1179744,11.9231538 21.9193333,12.0733077 C22.2431026,12.322 24.5783077,20.5194615 30.4671538,20.5194615 C36.0322308,20.5194615 38.6912051,12.2954103 39.0149744,12.0733077 L39.0165385,12.0717436 Z" id="Path_243" stroke="#676767" stroke-width="0.2" fill="#F4F4F4"></path>
            </g>
            <g id="neckline_thumbnails_1" transform="translate(67.000000, 0.000000)" fill-rule="nonzero">
                <path d="M17.291975,49.7229855 C17.4153042,51.8097738 17.682327,53.8851759 18.091075,55.9338945 L29.528575,55.9338945 C29.601775,55.0208909 29.72225,54.0845964 29.79545,53.1715927 C29.8149413,53.0327732 29.8231026,52.8925481 29.81985,52.7523564 C25.4570177,52.8611315 21.1408987,51.8174488 17.291975,49.7229855 Z" id="Path_143" fill="#F4F4F4"></path>
                <path d="M20.87725,15.9045855 C21.1814837,14.7359177 21.5866803,13.5969504 22.0881,12.5010073 C21.6832336,12.8032157 21.262747,13.0831081 20.82845,13.33948 C20.80405,13.3643236 20.77965,13.3643236 20.75525,13.3891673 L20.463975,13.54444 L20.311475,13.6189709 C20.2436779,13.6622642 20.1702783,13.6957117 20.0934,13.7183455 C20.0243273,13.7414303 19.9590436,13.7749273 19.899725,13.81772 C19.8206509,13.8551125 19.7397161,13.8882823 19.65725,13.9170945 C19.58405,13.9419382 19.536775,13.9667818 19.463575,13.9916255 C19.311075,14.0413127 19.1967,14.091 19.051825,14.1468982 L19.027425,14.1468982 C17.9271373,14.528747 16.7738294,14.728479 15.611425,14.7384873 C15.584358,16.5160992 15.422224,18.2889131 15.126475,20.0410509 C14.39905,23.8157309 13.3102,27.5143273 12.533975,31.2641636 C11.759275,34.9146255 8.1496,38.1210073 7.422175,41.7714691 C7.20106264,42.6074318 6.81328879,43.3880951 6.283,44.0648473 C5.2155,45.6175745 1.898625,47.0740327 0.71065,48.5537818 C0.792038769,48.674555 0.881192102,48.7897086 0.977525,48.8984873 C1.727825,48.5537818 2.47965,48.2323673 3.20555,47.9357964 C2.987475,49.5630545 2.7694,51.2415527 2.575725,52.9433418 C2.52538087,53.3889485 2.69838601,53.8304802 3.03615947,54.1184306 C3.37393294,54.4063812 3.83123707,54.5021855 4.253225,54.3734036 C5.08975315,54.2614452 5.85308223,53.8295397 6.388225,53.1653818 C7.44876477,51.3192395 8.18662694,49.2997206 8.568975,47.1966982 C8.907525,44.0400036 11.597625,40.9314436 13.4871,38.3461527 C15.6221,35.4114982 17.7022,33.06688 18.332025,30.3294218 C18.91305,27.9366691 19.3736,25.5159673 19.88295,23.1014764 L19.88295,23.0595527 C19.9397932,20.6432936 20.2734851,18.2420519 20.87725,15.9045855 Z" id="Path_144" fill="#F4F4F4"></path>
                <path d="M19.472725,13.9574655 C19.545925,13.9326218 19.5932,13.9077782 19.6664,13.8829345 C19.7454806,13.8455575 19.8264147,13.812388 19.908875,13.78356 C19.9779565,13.7604969 20.0432433,13.7269982 20.10255,13.6841855 C20.17575,13.6593418 20.25505,13.6096545 20.320625,13.5848109 L20.473125,13.51028 L20.7644,13.3550073 C20.7888,13.3301636 20.8132,13.3301636 20.8376,13.30532 C21.4981501,12.9327091 22.1155682,12.4858355 22.678275,11.97308 C22.778984,11.8953157 22.8687743,11.8038928 22.94515,11.7013527 L23.138825,11.5041564 L23.236425,11.4047818 C24.7634085,9.80960612 25.6750695,7.70784458 25.804525,5.48423273 L25.828925,5.45938909 C25.373827,5.86158867 24.8474017,6.17148648 24.278,6.37239273 C22.9189468,7.01963521 21.5283762,7.59592705 20.1117,8.09902545 C17.5632592,8.51904066 15.699435,10.7731923 15.727325,13.4015891 C15.702925,13.8456691 15.678525,14.2649055 15.654125,14.7089855 C16.8078523,14.6910039 17.9519079,14.4914489 19.045725,14.1173964 L19.070125,14.1173964 C19.2079783,14.0741609 19.342538,14.0207077 19.472725,13.9574655 Z" id="Path_149" fill="#F4F4F4"></path>
                <path d="M43.552475,49.7229855 C43.4291458,51.8097738 43.162123,53.8851759 42.753375,55.9338945 L31.315875,55.9338945 C31.242675,55.0208909 31.1222,54.0845964 31.049,53.1715927 C31.0294668,53.0327776 31.0213053,52.8925489 31.0246,52.7523564 C35.3874323,52.8611315 39.7035513,51.8174488 43.552475,49.7229855 Z" id="Path_168" fill="#F4F4F4"></path>
                <path d="M43.3832,41.8553164 C42.5977282,39.7664058 41.6808272,37.7312192 40.6382,35.7624145 C33.9695957,37.801619 26.8596043,37.801619 20.191,35.7624145 C19.1536439,37.733889 18.2368978,39.768732 17.446,41.8553164 C16.6256955,44.1500877 16.1835862,46.5671393 16.13755,49.0087309 C16.5005,49.2556145 16.88785,49.5024982 17.276725,49.7245382 C21.1264031,51.8120048 25.4414417,52.8487259 29.80155,52.7337236 L31.0124,52.7337236 C35.3725155,52.8487968 39.6875716,51.8120715 43.537225,49.7245382 C43.924575,49.5024982 44.311925,49.25872 44.6764,49.0087309 C44.6335627,46.5681834 44.1966615,44.1514378 43.3832,41.8553164 Z" id="Path_169" fill="#F4F4F4"></path>
                <path d="M33.838225,2.21418909 C32.9683448,1.22522717 31.7261111,0.660068926 30.422225,0.660068926 C29.1183389,0.660068926 27.8761052,1.22522717 27.006225,2.21418909 C27.1204801,3.43451342 26.6839742,4.64159154 25.819775,5.49510182 L25.844175,5.51994545 C27.0771505,6.73436504 28.7051948,7.44549481 30.419175,7.51830545 C32.1321031,7.44079649 33.7585807,6.73035108 34.994175,5.51994545 L35.018575,5.49510182 C34.1535281,4.64248288 33.7187594,3.43399564 33.838225,2.21418909 Z" id="Path_170" fill="#F4F4F4"></path>
                <path d="M39.9428,15.9045855 C39.6385663,14.7359177 39.2333697,13.5969504 38.73195,12.5010073 C39.1368297,12.803196 39.5573153,13.0830879 39.9916,13.33948 C40.016,13.3643236 40.0404,13.3643236 40.0648,13.3891673 L40.356075,13.54444 L40.508575,13.6189709 C40.5763815,13.6622464 40.6497786,13.6956926 40.72665,13.7183455 C40.7957404,13.7413868 40.8610303,13.774887 40.920325,13.81772 C40.9993991,13.8551125 41.0803339,13.8882823 41.1628,13.9170945 C41.236,13.9419382 41.283275,13.9667818 41.356475,13.9916255 C41.508975,14.0413127 41.62335,14.091 41.768225,14.1468982 L41.792625,14.1468982 C42.8929127,14.528747 44.0462206,14.728479 45.208625,14.7384873 C45.235692,16.5160992 45.397826,18.2889131 45.693575,20.0410509 C46.421,23.8157309 47.50985,27.5143273 48.286075,31.2641636 C49.060775,34.9146255 52.67045,38.1210073 53.397875,41.7714691 C53.6189874,42.6074318 54.0067612,43.3880951 54.53705,44.0648473 C55.60455,45.6175745 58.921425,47.0740327 60.1094,48.5537818 C60.0280076,48.6745522 59.9388545,48.7897056 59.842525,48.8984873 C59.092225,48.5537818 58.3404,48.2323673 57.6145,47.9357964 C57.832575,49.5630545 58.05065,51.2415527 58.244325,52.9433418 C58.2946691,53.3889485 58.121664,53.8304802 57.7838905,54.1184306 C57.4461171,54.4063812 56.9888129,54.5021855 56.566825,54.3734036 C55.7302968,54.2614452 54.9669678,53.8295397 54.431825,53.1653818 C53.3712852,51.3192395 52.6334231,49.2997206 52.251075,47.1966982 C51.912525,44.0400036 49.222425,40.9314436 47.33295,38.3461527 C45.19795,35.4114982 43.11785,33.06688 42.488025,30.3294218 C41.907,27.9366691 41.44645,25.5159673 40.9371,23.1014764 L40.9371,23.0595527 C40.9042301,20.6413434 40.5701285,18.2371537 39.9428,15.9045855 Z" id="Path_171" fill="#F4F4F4"></path>
                <path d="M41.371725,13.9574655 C41.298525,13.9326218 41.25125,13.9077782 41.17805,13.8829345 C41.098977,13.8455395 41.0180421,13.8123696 40.935575,13.78356 C40.8664935,13.7604969 40.8012067,13.7269982 40.7419,13.6841855 C40.6687,13.6593418 40.5894,13.6096545 40.523825,13.5848109 L40.371325,13.51028 L40.08005,13.3550073 C40.05565,13.3301636 40.03125,13.3301636 40.00685,13.30532 C39.3463136,12.9326869 38.7288978,12.4858151 38.166175,11.97308 C38.0654911,11.8952863 37.9757045,11.8038672 37.8993,11.7013527 L37.705625,11.5041564 L37.60955,11.4047818 C36.0825665,9.80960612 35.1709055,7.70784458 35.04145,5.48423273 L35.024675,5.47181091 C35.479773,5.87401048 36.0061983,6.18390829 36.5756,6.38481455 C37.9346469,7.03207183 39.3252182,7.60836399 40.7419,8.11144727 C43.2903408,8.53146247 45.154165,10.7856142 45.126275,13.4140109 C45.150675,13.8580909 45.175075,14.2773273 45.199475,14.7214073 C44.0457477,14.7034257 42.9016921,14.5038707 41.807875,14.1298182 L41.783475,14.1298182 C41.6406071,14.0874067 41.5025794,14.0296303 41.371725,13.9574655 Z" id="Path_176" fill="#F4F4F4"></path>
                <path d="M40.9127,23.2070618 C40.9127,23.2319055 40.9371,23.0098655 40.9371,23.0347091 C40.8798753,20.6288977 40.55501,18.2374426 39.968725,15.9061382 C39.641625,14.7448862 39.2370683,13.6077181 38.757875,12.50256 C38.757875,12.50256 38.370525,12.1811455 38.17685,12.0087927 C38.076141,11.9310284 37.9863507,11.8396055 37.909975,11.7370655 L37.7163,11.5398691 L37.6187,11.4404945 C36.0892781,9.83452851 35.1704,7.72726088 35.0262,5.49510182 L35.0018,5.51994545 C33.8165395,6.8080112 32.1603601,7.53887758 30.4268,7.53887758 C28.6932399,7.53887758 27.0370605,6.8080112 25.8518,5.51994545 L25.8274,5.49510182 C25.6892832,7.72878355 24.769511,9.83810153 23.2349,11.4404945 L23.1373,11.5398691 L22.943625,11.7370655 L22.67675,12.0087927 C22.483075,12.1811455 22.2894,12.3534982 22.095725,12.50256 C21.6128664,13.6062168 21.2082157,14.7436493 20.884875,15.9061382 C20.2749031,18.2326389 19.9496465,20.6269746 19.9165,23.0347091 C19.9165,23.0098655 19.9409,22.9850218 19.9409,22.9601782 C20.473125,24.2924182 20.668325,25.5749709 21.10295,26.8575236 C22.0967245,29.824887 21.7692463,33.08606 20.20625,35.7872582 C23.548892,36.6659918 26.9741512,37.1787117 30.42375,37.3166945 C33.8735163,37.180551 37.2989674,36.6678024 40.64125,35.7872582 C39.0782537,33.08606 38.7507755,29.824887 39.74455,26.8575236 C40.191375,25.5749709 40.380475,24.5144582 40.9127,23.2070618 Z" id="Path_185" fill="#676767"></path>
                <path d="M38.78075,12.4777164 C38.587075,12.3224436 38.3934,12.1563018 38.199725,11.9839491 C38.0990411,11.9061554 38.0092545,11.8147363 37.93285,11.7122218 L37.739175,11.5150255 L37.641575,11.4156509 C36.1121531,9.80968487 35.193275,7.70241725 35.049075,5.47025818 L35.024675,5.49510182 C33.8391848,6.78274726 32.183091,7.51331598 30.449675,7.51331598 C28.716259,7.51331598 27.0601652,6.78274726 25.874675,5.49510182 L25.84265,5.47181091 C25.7045332,7.70549264 24.784761,9.81481063 23.25015,11.4172036 L23.15255,11.5165782 L22.958875,11.7137745 L22.692,11.9855018 C22.498325,12.1578545 22.30465,12.3302073 22.110975,12.4792691 C23.9840313,15.2861788 27.1123691,16.9525162 30.4451,16.9185164 C33.748193,16.8317785 36.8256582,15.1925387 38.779225,12.4792691 L38.78075,12.4777164 Z" id="Path_356" stroke="#676767" stroke-width="0.2" fill="#F4F4F4"></path>
            </g>
            <g id="neckline_thumbnails_2" transform="translate(134.000000, 0.000000)" fill-rule="nonzero">
                <path d="M43.778175,49.7229855 C43.6548458,51.8097738 43.387823,53.8851759 42.979075,55.9338945 L31.541575,55.9338945 C31.468375,55.0208909 31.3479,54.0845964 31.2747,53.1715927 C31.2552087,53.0327732 31.2470474,52.8925481 31.2503,52.7523564 C35.6131396,52.8612023 39.9292761,51.8175155 43.778175,49.7229855 Z" id="Path_223" fill="#F4F4F4"></path>
                <path d="M43.6333,41.8553164 C42.8478243,39.7664075 41.9309234,37.7312211 40.8883,35.7624145 C34.2196957,37.801619 27.1097043,37.801619 20.4411,35.7624145 C19.4038343,37.7339348 18.4870908,39.7687719 17.6961,41.8553164 C16.8757955,44.1500877 16.4336862,46.5671393 16.38765,49.0087309 C16.7506,49.2556145 17.139475,49.5024982 17.526825,49.7245382 C21.3764784,51.8120715 25.6915345,52.8487968 30.05165,52.7337236 L31.2625,52.7337236 C35.6226083,52.8487259 39.9376469,51.8120048 43.787325,49.7245382 C44.174675,49.5024982 44.562025,49.25872 44.9265,49.0087309 C44.8836074,46.568189 44.4467079,44.1514526 43.6333,41.8553164 Z" id="Path_224" fill="#F4F4F4"></path>
                <path d="M34.0868,2.21418909 C33.2169198,1.22522717 31.9746861,0.660068926 30.6708,0.660068926 C29.3669139,0.660068926 28.1246802,1.22522717 27.2548,2.21418909 C27.3690551,3.43451342 26.9325492,4.64159154 26.06835,5.49510182 L26.09275,5.51994545 C27.3257255,6.73436504 28.9537698,7.44549481 30.66775,7.51830545 C32.3806781,7.44079649 34.0071557,6.73035108 35.24275,5.51994545 L35.26715,5.49510182 C34.4021031,4.64248288 33.9673344,3.43399564 34.0868,2.21418909 Z" id="Path_225" fill="#F4F4F4"></path>
                <path d="M40.191375,15.9045855 C39.8871413,14.7359177 39.4819447,13.5969504 38.980525,12.5010073 C39.3854047,12.803196 39.8058903,13.0830879 40.240175,13.33948 C40.264575,13.3643236 40.288975,13.3643236 40.313375,13.3891673 L40.60465,13.54444 L40.75715,13.6189709 C40.8249565,13.6622464 40.8983536,13.6956926 40.975225,13.7183455 C41.0443065,13.7414086 41.1095933,13.7749073 41.1689,13.81772 C41.2479806,13.855097 41.3289147,13.8882666 41.411375,13.9170945 C41.484575,13.9419382 41.53185,13.9667818 41.60505,13.9916255 C41.75755,14.0413127 41.871925,14.091 42.0168,14.1468982 L42.030525,14.1468982 C43.1308127,14.528747 44.2841206,14.728479 45.446525,14.7384873 C45.4736346,16.5160969 45.6357684,18.2889074 45.931475,20.0410509 C46.6589,23.8157309 47.74775,27.5143273 48.523975,31.2641636 C49.298675,34.9146255 52.90835,38.1210073 53.635775,41.7714691 C53.8568874,42.6074318 54.2446612,43.3880951 54.77495,44.0648473 C55.84245,45.6175745 59.159325,47.0740327 60.3473,48.5537818 C60.2659401,48.6745766 60.1767853,48.7897321 60.080425,48.8984873 C59.330125,48.5537818 58.5783,48.2323673 57.8524,47.9357964 C58.070475,49.5630545 58.28855,51.2415527 58.482225,52.9433418 C58.5325691,53.3889485 58.359564,53.8304802 58.0217905,54.1184306 C57.6840171,54.4063812 57.2267129,54.5021855 56.804725,54.3734036 C55.9681968,54.2614452 55.2048678,53.8295397 54.669725,53.1653818 C53.6092412,51.3192125 52.8713827,49.2997039 52.488975,47.1966982 C52.150425,44.0400036 49.460325,40.9314436 47.57085,38.3461527 C45.43585,35.4114982 43.35575,33.06688 42.725925,30.3294218 C42.1449,27.9366691 41.68435,25.5159673 41.175,23.1014764 L41.175,23.0595527 C41.1336228,20.6427496 40.8033161,18.2400724 40.191375,15.9045855 Z" id="Path_226" fill="#F4F4F4"></path>
                <path d="M41.597425,13.9574655 C41.524225,13.9326218 41.47695,13.9077782 41.40375,13.8829345 C41.3246694,13.8455575 41.2437353,13.812388 41.161275,13.78356 C41.0921935,13.7604969 41.0269067,13.7269982 40.9676,13.6841855 C40.8944,13.6593418 40.8151,13.6096545 40.749525,13.5848109 L40.597025,13.51028 L40.30575,13.3550073 C40.28135,13.3301636 40.25695,13.3301636 40.23255,13.30532 C39.5720067,12.932698 38.9545898,12.4858253 38.391875,11.97308 C38.291166,11.8953157 38.2013757,11.8038928 38.125,11.7013527 L37.931325,11.5041564 L37.833725,11.4047818 C36.3067415,9.80960612 35.3950805,7.70784458 35.265625,5.48423273 L35.250375,5.47181091 C35.705473,5.87401048 36.2318983,6.18390829 36.8013,6.38481455 C38.1603543,7.03205456 39.5509248,7.60834636 40.9676,8.11144727 C43.5160408,8.53146247 45.379865,10.7856142 45.351975,13.4140109 C45.376375,13.8580909 45.400775,14.2773273 45.425175,14.7214073 C44.2714477,14.7034257 43.1273921,14.5038707 42.033575,14.1298182 L42.009175,14.1298182 C41.8887,14.0801309 41.743825,14.0304436 41.597425,13.9574655 Z" id="Path_231" fill="#F4F4F4"></path>
                <path d="M19.6969,13.9574655 C19.7701,13.9326218 19.817375,13.9077782 19.890575,13.8829345 C19.9696469,13.8455368 20.050582,13.8123669 20.13305,13.78356 C20.2021404,13.7605186 20.2674303,13.7270184 20.326725,13.6841855 C20.399925,13.6593418 20.479225,13.6096545 20.5448,13.5848109 L20.6973,13.51028 L20.988575,13.3550073 C21.012975,13.3301636 21.037375,13.3301636 21.061775,13.30532 C21.722332,12.9327202 22.3397512,12.4858457 22.90245,11.97308 C23.003159,11.8953157 23.0929493,11.8038928 23.169325,11.7013527 L23.363,11.5041564 L23.4606,11.4047818 C24.9875835,9.80960612 25.8992445,7.70784458 26.0287,5.48423273 L26.0531,5.45938909 C25.598002,5.86158867 25.0715767,6.17148648 24.502175,6.37239273 C23.1431281,7.01965001 21.7525568,7.59594217 20.335875,8.09902545 C17.7874342,8.51904066 15.92361,10.7731923 15.9515,13.4015891 C15.9271,13.8456691 15.9027,14.2649055 15.8783,14.7089855 C17.0320273,14.6910039 18.1760829,14.4914489 19.2699,14.1173964 L19.2943,14.1173964 C19.4335585,14.0783674 19.5684769,14.0247718 19.6969,13.9574655 Z" id="Path_204" fill="#F4F4F4"></path>
                <path d="M17.54055,49.7229855 C17.6639292,51.8097689 17.9309514,53.8851675 18.33965,55.9338945 L29.77715,55.9338945 C29.85035,55.0208909 29.970825,54.0845964 30.044025,53.1715927 C30.0635582,53.0327776 30.0717197,52.8925489 30.068425,52.7523564 C25.7055927,52.8611315 21.3894737,51.8174488 17.54055,49.7229855 Z" id="Path_198" fill="#F4F4F4"></path>
                <path d="M21.125825,15.9045855 C21.4300587,14.7359177 21.8352553,13.5969504 22.336675,12.5010073 C21.9318086,12.8032157 21.511322,13.0831081 21.077025,13.33948 C21.052625,13.3643236 21.028225,13.3643236 21.003825,13.3891673 L20.71255,13.54444 L20.56005,13.6189709 C20.4922529,13.6622642 20.4188533,13.6957117 20.341975,13.7183455 C20.2729023,13.7414303 20.2076186,13.7749273 20.1483,13.81772 C20.0692205,13.8550996 19.9882863,13.8882692 19.905825,13.9170945 C19.832625,13.9419382 19.78535,13.9667818 19.71215,13.9916255 C19.55965,14.0413127 19.445275,14.091 19.3004,14.1468982 L19.276,14.1468982 C18.1757123,14.528747 17.0224044,14.728479 15.86,14.7384873 C15.832933,16.5160992 15.670799,18.2889131 15.37505,20.0410509 C14.647625,23.8157309 13.558775,27.5143273 12.78255,31.2641636 C12.00785,34.9146255 8.398175,38.1210073 7.67075,41.7714691 C7.44963764,42.6074318 7.06186379,43.3880951 6.531575,44.0648473 C5.464075,45.6175745 2.1472,47.0740327 0.959225,48.5537818 C1.04061377,48.674555 1.1297671,48.7897086 1.2261,48.8984873 C1.9764,48.5537818 2.728225,48.2323673 3.45565,47.9357964 C3.237575,49.5630545 3.0195,51.2415527 2.825825,52.9433418 C2.77548087,53.3889485 2.94848601,53.8304802 3.28625947,54.1184306 C3.62403294,54.4063812 4.08133707,54.5021855 4.503325,54.3734036 C5.33985315,54.2614452 6.10318223,53.8295397 6.638325,53.1653818 C7.69878085,51.319199 8.43663742,49.2996954 8.819075,47.1966982 C9.157625,44.0400036 11.847725,40.9314436 13.7372,38.3461527 C15.8722,35.4114982 17.9523,33.06688 18.582125,30.3294218 C19.16315,27.9366691 19.6237,25.5159673 20.13305,23.1014764 L20.13305,23.0595527 C20.1773685,20.6423635 20.5107494,18.2396743 21.125825,15.9045855 Z" id="Path_199" fill="#F4F4F4"></path>
                <path d="M41.161275,23.2070618 C41.161275,23.2319055 41.185675,23.0098655 41.185675,23.0347091 C41.1284896,20.6288944 40.8036237,18.2374349 40.2173,15.9061382 C39.8901459,14.7449042 39.4855906,13.6077395 39.00645,12.50256 C39.00645,12.50256 38.6191,12.1811455 38.425425,12.0087927 C38.3247411,11.9309991 38.2349545,11.83958 38.15855,11.7370655 L37.964875,11.5398691 L37.867275,11.4404945 C36.3378531,9.83452851 35.418975,7.72726088 35.274775,5.49510182 L35.250375,5.51994545 C34.0648848,6.80759089 32.408791,7.53815961 30.675375,7.53815961 C28.941959,7.53815961 27.2858652,6.80759089 26.100375,5.51994545 L26.075975,5.49510182 C25.9378582,7.72878355 25.018086,9.83810153 23.483475,11.4404945 L23.385875,11.5398691 L23.1922,11.7370655 L22.925325,12.0087927 C22.73165,12.1811455 22.537975,12.3534982 22.3443,12.50256 C21.8614801,13.6062326 21.4568304,14.7436623 21.13345,15.9061382 C20.5234322,18.2326295 20.1981748,20.6269711 20.165075,23.0347091 C20.165075,23.0098655 20.189475,22.9850218 20.189475,22.9601782 C20.723225,24.2924182 20.9169,25.5749709 21.35305,26.8575236 C22.3468245,29.824887 22.0193463,33.08606 20.45635,35.7872582 C23.798992,36.6659918 27.2242512,37.1787117 30.67385,37.3166945 C34.1236163,37.180551 37.5490674,36.6678024 40.89135,35.7872582 C39.3283537,33.08606 39.0008755,29.824887 39.99465,26.8575236 C40.43995,25.5749709 40.62905,24.5144582 41.161275,23.2070618 Z" id="Path_240" fill="#676767"></path>
                <path d="M36.897375,10.2324727 C35.92488,8.83207688 35.3545804,7.18362321 35.250375,5.47181091 L35.225975,5.49665455 C34.0404848,6.78429998 32.384391,7.5148687 30.650975,7.5148687 C28.917559,7.5148687 27.2614652,6.78429998 26.075975,5.49665455 L26.0409,5.47181091 C25.9479631,7.18593227 25.3765972,8.83746837 24.3939,10.2324727 C24.102625,10.6517091 24.90325,11.7122218 30.620475,11.7122218 C36.073875,11.7370655 37.18865,10.6517091 36.897375,10.2324727 Z" id="Path_357" stroke="#676767" stroke-width="0.2" fill="#F4F4F4"></path>
            </g>
        </g>
    </g>
</svg>
