<?xml version="1.0" encoding="UTF-8"?>
<svg width="247px" height="318px" viewBox="0 0 247 318" version="1.1" xmlns="http://www.w3.org/2000/svg" xmlns:xlink="http://www.w3.org/1999/xlink">
    <!-- Generator: Sketch 53 (72520) - https://sketchapp.com -->
    <title>Final_VF_Shoes_2.0</title>
    <desc>Created with Sketch.</desc>
    <g id="VF_v2.0" stroke="none" stroke-width="1" fill="none" fill-rule="evenodd">
        <g id="Final_VF_Shoes_2.0" transform="translate(-28.000000, -41.000000)">
            <g transform="translate(1.000000, 42.000000)">
                <g id="mannequin">
                    <g id="sole_1_" transform="translate(45.657431, 183.017632)" fill="#808285">
                        <path d="M141.04862,45.4940252 C141.04862,45.4940252 136.639874,65.723471 143.614247,73.3690882 C150.555778,80.9786599 175.580856,85.8183476 179.909501,64.2656373 C182.941315,49.179461 181.672519,46.7764383 181.672519,46.7764383 C181.672519,46.7764383 186.656388,58.512 183.7247,78.5996675 C180.761773,98.9084131 163.482438,104.239118 151.275884,103.63596 C137.74206,103.303542 135.105144,87.6798892 135.446373,75.5446247 C135.793209,63.3957431 141.04862,45.4940252 141.04862,45.4940252 Z" id="Path"></path>
                        <path d="M104.279169,0.300377834 C107.482224,0.763850858 108.720667,2.24745311 108.937028,4.48236776 C109.095717,6.12155991 108.826222,8.34443897 108.342569,9.98236776 C107.680419,12.2247962 106.707023,13.6611839 106.707023,13.6611839 C98.1963174,30.7803174 78.2560353,30.9172897 71.9024433,45.7984081 C65.5480504,60.6795264 63.9548463,88.0075013 53.9158186,94.5693552 C46.8148866,99.211194 38.6966751,100.844448 38.6966751,100.844448 C6.13011083,110.13934 0.720105793,104.672463 0.666438287,101.244952 C0.631193955,98.9764987 2.25563728,98.2940403 5.52935516,94.1047708 C8.80307305,89.9163023 15.1230227,83.1405793 16.9349018,81.4200151 C18.7467809,79.7002519 104.279169,0.300377834 104.279169,0.300377834 Z" id="sole"></path>
                    </g>
                    <g  transform="translate(48.060453, 20.413098)">
                        <path d="M179.189395,247.585028 C172.464136,258.043783 155.376242,264.828317 146.439401,263.686882 C144.556232,263.445778 140.911647,262.547849 137.879033,258.228816 C134.851224,253.906579 136.15206,237.419441 136.15206,234.398841 C136.15206,231.371834 137.754076,219.897401 138.505421,209.461874 C139.723753,192.578237 148.793562,144.943118 150.337103,138.404494 C151.877441,131.865068 142.776393,0.454171285 142.776393,0.454171285 L198.992705,0.454171285 C198.992705,0.454171285 182.474327,138.806599 182.088242,141.881668 C181.704559,144.958338 183.773562,155.938549 182.623315,161.706605 C181.470665,167.476262 179.202212,167.477864 179.202212,176.324992 C179.202212,185.172121 181.503506,217.627345 182.273275,225.328232 C183.044645,233.025113 181.309662,244.366579 178.426035,248.717652" id="Path" fill="#FFFFFF"></path>
                        <g id="Group" transform="translate(134.569270, 0.000000)" fill="#BCBEC0">
                            <path d="M8.19911335,0.446161209 C8.19911335,0.446161209 8.59160705,5.24019144 9.28047355,13.6299446 C9.96453401,22.0204987 10.9433652,34.0059748 12.0151134,48.3968766 C13.0996776,62.7869773 14.3372343,79.5768967 15.5443526,97.5795416 C16.1354962,106.582866 16.743461,115.884166 17.2000353,125.364091 C17.3153804,127.734272 17.4171083,130.115668 17.4787859,132.519491 C17.5188363,133.719401 17.5284484,134.928121 17.5236423,136.160872 L17.4972091,137.101254 C17.490801,137.261456 17.492403,137.404836 17.4811889,137.580257 L17.4187103,138.149773 L17.3442166,138.717688 C17.3273955,138.836237 17.2889471,139.003647 17.2609118,139.143824 L17.0774811,140.02333 C16.5936725,142.361471 16.1066599,144.703617 15.6212494,147.048967 C15.1342368,149.383103 14.6576373,151.736463 14.1914509,154.09463 C12.3058791,163.51528 10.5556776,172.96797 8.90159698,182.279683 C8.13983879,186.940746 7.27955668,191.560156 6.63634761,196.146725 C6.31113854,198.432801 5.91864484,200.702856 5.65190932,202.972111 C5.39478589,205.232554 5.13686146,207.488191 4.88534509,209.714992 C4.66827204,211.96262 4.452,214.181411 4.23572796,216.387385 C4.01865491,218.59336 3.7415063,220.776106 3.50200504,222.945234 C3.25209068,225.098343 3.00618136,227.233028 2.76187406,229.336474 C2.62089673,230.392202 2.53679093,231.425501 2.45508816,232.448388 C2.37178338,233.466469 2.27646348,234.494161 2.26124433,235.54268 C2.04417128,239.695904 1.86234257,243.673708 1.93603526,247.543375 C1.98489673,249.472202 2.08662469,251.364982 2.31971788,253.200091 C2.39100756,253.650257 2.46389924,254.10603 2.53598992,254.553793 C2.63611587,254.993547 2.73784383,255.432499 2.83796977,255.867446 C2.96452897,256.284771 3.12072544,256.693285 3.25529471,257.105003 L3.54445844,257.655295 L3.69264484,257.933244 C3.70946599,257.982907 3.816,258.099053 3.87607557,258.183159 C4.1548262,258.534801 4.42716877,258.896856 4.69871033,259.243693 C4.97265491,259.595335 5.28504786,259.86127 5.57981864,260.164851 C5.73040806,260.31464 5.86337531,260.471637 6.02998489,260.606207 L6.52741058,260.997098 C6.85342065,261.262232 7.17862972,261.520156 7.54549118,261.720408 C8.94405038,262.607924 10.5340504,263.164625 12.088806,263.341647 C12.9066348,263.39932 13.7236625,263.498645 14.4990378,263.449783 C14.8843224,263.435365 15.2776171,263.443375 15.6572947,263.418544 C16.0433804,263.379295 16.4358741,263.338443 16.8123476,263.301597 C18.341471,263.142196 19.820131,262.851431 21.2315063,262.500589 C24.0566599,261.798907 26.6286952,260.852116 28.9444081,259.846851 C30.0770327,259.295758 31.1968413,258.812751 32.1981008,258.228015 C32.7083426,257.944458 33.2025642,257.676922 33.6831688,257.408584 C34.1509572,257.124227 34.6075315,256.831058 35.0576977,256.557914 C38.6125693,254.311889 41.0372191,252.021008 42.50867,250.327678 C43.2912544,249.509849 43.7598438,248.780932 44.1106851,248.316348 C44.4599244,247.846957 44.628136,247.601048 44.628136,247.601048 C44.628136,247.601048 44.4559194,247.850161 44.1194962,248.319552 C43.775063,248.790544 43.3184887,249.529073 42.5551285,250.362922 C41.1125139,252.091496 38.7239093,254.446458 35.195471,256.767778 C34.7485088,257.05534 34.2991436,257.351713 33.8337582,257.653693 C33.3499496,257.933244 32.858932,258.215199 32.3534962,258.506766 C31.3554408,259.112327 30.2380353,259.618564 29.1054106,260.193688 C26.7880957,261.257426 24.2160605,262.26269 21.3676776,263.030856 C19.9466902,263.414539 18.447204,263.74135 16.8868413,263.933592 C16.4991537,263.983254 16.1026549,264.028912 15.7021511,264.080977 C15.3024484,264.115421 14.8867254,264.118625 14.4838186,264.133844 C13.6515718,264.198725 12.8521662,264.117023 12.0311335,264.074569 C10.3121713,263.908761 8.6388665,263.356866 7.10573804,262.425295 C6.70843829,262.210625 6.35359194,261.941486 5.98993451,261.666741 C5.62467506,261.400806 5.27062972,261.122055 4.9398136,260.782428 C4.62261461,260.459622 4.25174811,260.142423 3.96819144,259.79799 C3.68463476,259.449552 3.40668514,259.105919 3.11992443,258.74867 C3.04142569,258.648544 2.99496725,258.598081 2.89804534,258.457103 L2.71461461,258.139904 L2.3533602,257.489486 C2.18675063,257.03932 2.01132997,256.591557 1.86875063,256.137385 C1.75180353,255.680811 1.63886146,255.219431 1.51790932,254.752443 C1.43460453,254.286257 1.35210076,253.816866 1.26799496,253.345073 C0.985239295,251.459501 0.850670025,249.529073 0.762559194,247.576217 C0.611969773,243.668101 0.717702771,239.610997 0.848267003,235.504232 C0.848267003,234.486952 0.922760705,233.439234 0.988443325,232.367486 C1.04451385,231.29734 1.11900756,230.228796 1.23675567,229.180277 C1.43860957,227.063214 1.64767254,224.926126 1.85433249,222.76661 C2.05057935,220.613501 2.28367254,218.444373 2.45749118,216.235995 C2.62970781,214.025214 2.80352645,211.799214 2.97494207,209.544378 C3.18961209,207.291945 3.40027708,205.021889 3.61654912,202.722997 C3.84003023,200.431315 4.19007053,198.148443 4.47042317,195.835935 C5.02231738,191.21332 5.79128463,186.574685 6.47294207,181.877577 C7.94679597,172.514599 9.51116373,163.005038 11.2165088,153.525914 C11.6338338,151.155733 12.0551637,148.78395 12.5013249,146.405758 C12.9386751,144.027567 13.3864383,141.656584 13.9159043,139.323249 L14.101738,138.445345 L14.1970579,137.994378 L14.2266952,137.671572 L14.2691486,137.349567 L14.2859698,136.933043 L14.3188111,136.080771 C14.3468463,134.924917 14.3684736,133.745033 14.3532544,132.561945 C14.3420403,130.198171 14.2995869,127.82799 14.2363073,125.467421 C13.987194,116.022741 13.5882922,106.71263 13.2022065,97.7069018 C12.3963929,79.6946448 11.5281008,62.8798942 10.7679446,48.4737733 C9.22600504,19.6583275 8.19911335,0.446161209 8.19911335,0.446161209 Z" id="Path"></path>
                            <path d="M64.4122217,0.446161209 C64.4122217,0.446161209 62.7885793,16.0249572 60.3527154,39.3919496 C57.8367506,62.750131 54.4901411,93.8941058 51.1299144,125.038081 L50.4458539,130.867814 C50.1847254,132.806252 49.925199,134.743088 49.6616675,136.675118 L49.2595617,139.569159 L49.0561058,141.013375 L48.9559798,141.735083 L48.9327506,141.916111 L48.9159295,142.005824 C48.9087204,142.057889 48.9295466,141.868851 48.9167305,141.992207 L48.8999093,142.355063 C48.8166045,143.358725 48.8902972,144.218207 48.9263426,145.108927 C48.9920252,146.060524 49.0561058,147.01132 49.1217884,147.959713 C49.392529,151.811758 49.7457733,155.659798 49.4333804,159.592746 L49.2299244,161.080217 L49.1249924,161.820348 C49.1113753,161.87001 49.1281965,161.833164 49.1001612,161.966932 L49.082539,162.050237 L49.0328766,162.220851 L48.9471688,162.560479 L48.5819093,163.92139 L48.0620554,165.34398 C47.3107103,167.175083 46.5121058,168.705008 46.1468463,170.403945 C45.7231134,172.081254 45.6109723,173.857889 45.5468917,175.620106 L45.5180554,176.278534 L45.5308715,176.928151 L45.5637128,178.273844 C45.582136,179.162161 45.6125743,180.058489 45.6261914,180.933189 C45.6734509,182.69861 45.7094962,184.448811 45.7495466,186.170977 C45.8296474,187.88994 45.9057431,189.592081 45.9826398,191.268589 C46.1420403,194.623209 46.2990378,197.886514 46.4472242,201.042484 C46.6306549,204.199254 46.8092796,207.254297 46.9806952,210.18198 C47.2922872,216.050161 47.7272343,221.401693 48.0428312,226.174897 C48.3087657,230.982544 47.7953199,235.146181 47.2250025,238.529637 C46.6226448,241.914695 45.8400605,244.507557 45.1319698,246.20329 C44.9661612,246.63263 44.7939446,247.000292 44.6329421,247.311884 C44.4823526,247.629083 44.3493854,247.894217 44.2196222,248.092866 C43.9697078,248.499778 43.8415466,248.710443 43.8415466,248.710443 C43.8415466,248.710443 43.9584937,248.494972 44.197194,248.086458 C44.3173451,247.885406 44.4471083,247.61867 44.5848816,247.302272 C44.735471,246.985073 44.9020806,246.618212 45.054272,246.184065 C45.7191083,244.476317 46.4392141,241.872242 46.953461,238.492791 C47.4404736,235.115743 47.8457834,230.949703 47.4709118,226.22536 C47.0383678,221.484997 46.4704534,216.11264 46.0194861,210.259678 C45.7735768,207.331995 45.5252645,204.280957 45.2681411,201.125788 C45.0406549,197.966615 44.8043577,194.6953 44.5568463,191.330267 C44.4398992,189.644947 44.3205491,187.942806 44.203602,186.217436 C44.1202972,184.496872 44.0361914,182.747471 43.9536877,180.982851 C43.8030982,177.484851 43.4458489,173.785798 44.2604736,169.979411 C44.4358942,169.027814 44.7707154,168.092237 45.0943224,167.192705 C45.4451637,166.299582 45.8120252,165.450514 46.1164081,164.625476 L46.5257229,163.407144 L46.8445239,162.043028 L46.9278287,161.697793 L46.9686801,161.522373 L46.9855013,161.439068 C46.9686801,161.517567 46.9855013,161.412635 46.9814962,161.40863 L47.0511839,160.751003 L47.1937632,159.432544 C47.377194,155.811189 46.9230227,152.021622 46.5257229,148.202418 C46.427199,147.230796 46.3286751,146.257572 46.2301511,145.281945 C46.1516524,144.239033 46.0595365,143.165683 46.0987859,142.228504 L46.105995,141.864045 C46.0939798,141.926524 46.1172091,141.677411 46.1228161,141.669401 L46.1340302,141.579688 L46.1508514,141.397859 L46.2269471,140.672947 L46.3727305,139.221521 L46.6634962,136.313063 C46.8653501,134.373023 47.067204,132.429778 47.2706599,130.484932 L47.9747456,124.656801 C52.0574811,93.601738 56.1362116,62.5466751 59.1968615,39.2557783 C62.3167859,15.9672846 64.4122217,0.446161209 64.4122217,0.446161209 Z" id="Path"></path>
                        </g>
                        <path d="M49.2107003,255.120907 C59.1279748,249.031647 61.5646398,221.55068 67.9182317,206.669562 C74.2726247,191.788443 98.1979194,191.220529 103.479763,172.746892 C108.763209,154.274055 87.0174559,141.43871 84.8186902,127.78073 C82.6199244,114.120348 100.532856,9.51196474 100.532856,9.51196474 L38.054267,11.7147355 C38.054267,11.7147355 43.3248967,126.657718 42.3901209,134.731073 C41.4545441,142.804428 40.1617179,155.439521 31.4331385,181.328086 C22.7053602,207.21665 20.1493451,237.469103 18.1996927,240.533758 C18.1996927,240.533758 12.718398,247.755642 8.01808564,251.316121 C2.7979194,255.271496 -7.10734005,269.476564 14.3965088,264.833123 C30.0546045,261.452071 39.2926247,261.210166 49.2107003,255.120907 Z" id="Path" fill="#FFFFFF"></path>
                        <path d="M38.054267,11.7147355 C38.4323426,16.531995 38.796,21.3500554 39.114,26.1713199 L40.1008413,40.6311083 L41.0027758,55.0965038 L41.8342217,69.5651033 L42.6063929,84.0377078 L43.2920554,98.5159194 C43.5235466,103.34199 43.7189924,108.172065 43.8928111,113.002141 C44.0666297,117.833819 44.2212242,122.666297 44.3221511,127.517199 L44.3614005,131.171395 L44.3694106,132.08935 L44.3381713,133.060171 L44.2628766,135.004217 C43.9977431,137.394423 43.6957632,139.815068 43.3633451,142.240519 L42.7970327,145.864277 C42.611199,147.072196 42.3548766,148.2673 42.1378035,149.468811 C41.7180756,151.879844 41.1445542,154.250025 40.6078791,156.628217 C40.0615919,159.006408 39.3903476,161.346952 38.7879899,163.705919 C38.161602,166.05928 37.4270781,168.374191 36.7518287,170.709929 C36.0917985,173.051275 35.2651587,175.332544 34.5146146,177.640247 L32.2149219,184.516096 C30.737063,189.037783 29.4242116,193.667607 28.2539395,198.316655 C27.0844685,202.972111 26.0271385,207.661209 25.0651285,212.378343 C24.0975113,217.092272 23.2244131,221.829431 22.3753451,226.579406 L21.0849219,233.718786 C20.8598388,234.910685 20.6395617,236.104987 20.3784332,237.306499 C20.247068,237.910458 20.1100957,238.514418 19.9466902,239.125587 C19.8657884,239.433174 19.7688665,239.744766 19.6671385,240.066771 L19.4805038,240.569003 C19.402806,240.752433 19.287461,240.963899 19.184131,241.152937 L19.1673098,241.184176 L19.1288615,241.233839 C16.8091436,244.16873 14.3860957,246.956237 11.6698791,249.553904 C10.387466,250.875567 8.69974307,252.064262 7.49662972,253.164045 C6.2222267,254.348736 5.0671738,255.711249 4.09555164,257.152262 C3.14395466,258.584463 2.32372292,260.19529 2.19956675,261.680358 C2.15471033,262.412479 2.29088161,263.034861 2.71060957,263.484227 C3.12953652,263.934393 3.80879093,264.258 4.58656927,264.435824 C6.16054912,264.793874 7.95,264.673723 9.69219144,264.455849 C10.5676927,264.342907 11.444796,264.150665 12.3178942,263.98005 L14.9676272,263.349657 C18.5232997,262.486171 22.1254307,261.625889 25.7315668,260.896972 C27.5170126,260.51329 29.3312947,260.208907 31.0927103,259.812408 L33.7536574,259.263718 L36.3665441,258.624514 C36.7998892,258.511572 37.2428463,258.42266 37.6681814,258.298504 L38.9369773,257.892393 C39.7788363,257.615244 40.6391184,257.374942 41.4665592,257.074564 C43.0861965,256.384096 44.7763224,255.82339 46.3022418,254.921456 L47.4749169,254.303879 L48.0604534,253.999496 L48.3544232,253.848907 C48.3464131,253.856917 48.4753753,253.778418 48.3552242,253.856116 L48.4265139,253.806453 L48.5698942,253.711935 L49.1410126,253.328252 C49.3452695,253.201693 49.4349824,253.086348 49.5903778,252.970202 C49.7313552,252.853254 49.8731335,252.753128 50.0173149,252.617758 L50.452262,252.182811 C51.6057128,251.002126 52.5861461,249.562715 53.4440252,248.027184 C55.1517733,244.940101 56.4542116,241.543829 57.6060605,238.100297 C58.7627154,234.650358 59.7695819,231.135537 60.7644332,227.603894 C61.7721008,224.081864 62.6948615,220.515778 63.7513904,216.992146 C64.7918992,213.462907 65.9012947,209.933668 67.3711436,206.52538 C68.1032645,204.826443 69.1421713,203.153139 70.3380756,201.727345 C71.5403879,200.279123 72.9197229,199.00472 74.3783577,197.845662 C77.3036373,195.529149 80.5260907,193.702851 83.7092947,191.886166 C86.8892947,190.06067 90.0684937,188.240781 92.9913703,186.086872 C95.9142469,183.943375 98.5607758,181.397773 100.440741,178.32671 C101.397945,176.808 102.123657,175.15472 102.668343,173.450977 L102.872599,172.80937 L102.923063,172.650771 C102.93668,172.601108 102.935078,172.625139 102.941486,172.591496 L102.96071,172.508191 L103.04001,172.17337 L103.35,170.835688 C103.484569,169.965793 103.625547,169.099103 103.657587,168.202776 C103.752106,166.422136 103.61273,164.641496 103.252277,162.889693 C102.887018,161.137889 102.28466,159.444559 101.562151,157.801693 C100.111526,154.514358 98.1074055,151.476937 95.9735214,148.527627 C93.8276222,145.58072 91.6032242,142.673864 89.2138186,139.812665 C86.8764786,136.937849 84.3965592,133.88601 83.2535214,129.914615 C83.0845088,129.435612 83.0212292,128.910151 82.9042821,128.409521 L82.8650327,128.218882 L82.8466096,128.124363 C82.8418035,128.11395 82.8121662,127.860831 82.8217783,127.928116 L82.7913401,127.585285 L82.7312645,126.900423 C82.678398,126.466277 82.684806,125.928 82.675194,125.424967 C82.6719899,124.92594 82.6511637,124.387662 82.6695869,123.919874 C82.7168463,122.027093 82.8313904,120.164751 82.9691637,118.311219 C83.5763275,110.91872 84.485471,103.622343 85.4955416,96.3355768 C86.5152242,89.0520151 87.6029924,81.7868766 88.7668564,74.5337531 C89.9499446,67.2830327 91.1762872,60.0427254 92.431466,52.8080252 C93.6842418,45.5741259 94.9586448,38.3426297 96.3371788,31.1311587 C97.6980907,23.9164836 99.0574005,16.7018086 100.532055,9.50876071 L94.5020705,53.1308312 C93.5048161,60.3991738 92.537199,67.6707204 91.6144383,74.947073 C90.6732544,82.2186196 89.7368766,89.4901662 88.9094358,96.7681209 C88.087602,104.042071 87.2625642,111.327234 86.8059899,118.577154 C86.7018589,120.385829 86.6225592,122.188096 86.6089421,123.963929 C86.598529,124.414096 86.6265642,124.792972 86.6313703,125.210297 C86.6457884,125.624418 86.6297683,126.005698 86.6954509,126.483098 L86.7675416,127.167159 L86.8035869,127.509189 C86.8196071,127.632544 86.7899698,127.437098 86.8003829,127.483557 L86.815602,127.557249 L86.8460403,127.703834 C86.9349521,128.096327 86.9838136,128.48802 87.1031637,128.882116 C87.9209924,132.015657 89.3828312,135.306196 91.1802922,138.458161 C92.9705441,141.62935 95.2702368,144.506569 97.3496524,147.560811 C99.4370781,150.606242 101.42598,153.783839 102.855778,157.256207 C104.305602,160.704544 105.112217,164.504524 104.840675,168.279673 C104.791814,169.219254 104.628408,170.165244 104.463401,171.10002 L104.132584,172.439305 L104.04928,172.774927 L104.028453,172.858232 L103.997214,172.965567 L103.941945,173.132977 L103.718463,173.801018 C103.120912,175.580055 102.333521,177.30062 101.309033,178.874599 C99.2800806,182.032171 96.567869,184.698725 93.5672947,186.867854 C90.5787355,189.06662 87.3626902,190.889713 84.1834912,192.715209 C81.0171083,194.559128 77.8451184,196.395839 75.0239698,198.664292 C72.2020202,200.916725 69.7813753,203.66338 68.4036423,206.973144 C65.6834207,213.716025 64.1238589,220.909073 62.4209169,228.048453 C61.581461,231.625753 60.7275869,235.207859 59.7055013,238.772343 C58.6850176,242.327214 57.5123426,245.881285 55.8134055,249.302388 C54.9507204,251.006131 53.9390479,252.687446 52.5885491,254.191738 L52.0718992,254.749239 C51.8908715,254.93267 51.6705945,255.120907 51.4695416,255.300332 C51.2700907,255.470947 51.0402015,255.693627 50.8607758,255.817783 L50.3032746,256.221491 L50.1630982,256.321617 L50.0934106,256.37128 C49.926801,256.485824 50.0028967,256.425748 49.9452242,256.461793 L49.6352343,256.640418 L49.0160554,256.991259 L47.7744937,257.696146 C46.1540554,258.707819 44.3630025,259.372655 42.6312242,260.166453 C41.7493149,260.517295 40.8409723,260.78403 39.9454458,261.09402 L38.5973501,261.544186 C38.1471839,261.691572 37.6906096,261.7933 37.2380403,261.911849 L34.5154156,262.628751 C33.606272,262.841018 32.7003325,263.034861 31.7903879,263.213486 C29.9664937,263.597169 28.1642267,263.928786 26.3451385,264.22596 C24.5300554,264.543159 22.7398035,264.809894 20.9295264,265.07663 L15.4994962,265.97536 L12.7520403,266.425526 C11.8132594,266.542474 10.8824887,266.675441 9.93089169,266.73071 C8.03650882,266.8813 6.10287657,266.930962 4.08593955,266.480796 C3.09108816,266.230882 2.01533501,265.781516 1.18148615,264.873174 C0.315596977,263.962428 0.0496624685,262.639164 0.131365239,261.565814 C0.20665995,260.463627 0.533471033,259.480791 0.926765743,258.570846 C1.32646851,257.660101 1.80467003,256.809431 2.33894207,256.008423 C3.40588413,254.401602 4.63062469,252.943768 6.03559194,251.619703 C7.53988413,250.244373 8.88717884,249.333627 10.1607809,248.004756 C12.716796,245.497602 15.0829723,242.695678 17.2713249,239.844091 L17.2168564,239.927395 C17.2448917,239.844091 17.278534,239.797632 17.3193854,239.70071 L17.4419395,239.349869 C17.5188363,239.096751 17.597335,238.832418 17.6654207,238.552065 C17.804796,238.000171 17.9273501,237.421043 18.0450982,236.840312 C18.2789924,235.681254 18.4824484,234.49336 18.6843023,233.314277 L19.817728,226.16929 C20.56667,221.392882 21.3404433,216.610065 22.2127406,211.842469 C23.0826348,207.074872 24.0358338,202.313683 25.1412242,197.577325 C26.2418086,192.836962 27.4777632,188.148665 28.9163728,183.456363 L31.0871033,176.549275 C31.7919899,174.253587 32.5529471,171.970715 33.1849421,169.657406 C33.8345592,167.348902 34.5442519,165.054816 35.1434055,162.731894 C35.71933,160.412176 36.3641411,158.102071 36.8823929,155.768736 C37.9533401,151.109275 38.905738,146.43139 39.5962065,141.711053 C39.9254207,139.353688 40.2282015,136.981904 40.5037481,134.571673 L40.5774408,132.897567 L40.6166902,132.058912 L40.6198942,131.164186 L40.6247003,127.575673 L40.5293804,120.353788 L40.3723829,113.12069 L40.0159345,98.6456826 L39.2629874,69.6828514 L38.5709169,40.7112091 L38.2929673,26.2209824 C38.1856322,21.3772897 38.1143426,16.5464131 38.054267,11.7147355 Z" id="Path" fill="#BCBEC0"></path>
                    </g>
                </g>
                <g id="bottoms" transform="translate(98.947103, 187.022670)">
                    <g id="bottoms_0" transform="translate(22.005038, 0.801008)">
                        <polygon id="Path" fill="#6D6E71" points="9.3173199 34.8438287 0.63920403 31.8736927 10.5188312 22.9296423"></polygon>
                        <path d="M33.6278992,0.409314861 C33.6278992,0.409314861 33.708,13.5170025 33.6278992,17.0214106 C33.6278992,17.0214106 30.8251738,20.7861461 23.63533,26.3331234 C16.6265139,31.7399244 9.3173199,34.8438287 9.3173199,34.8438287 L9.3173199,22.3280856 L33.6278992,0.409314861 Z" id="Path" fill="#808285"></path>
                    </g>
                    <g id="bottoms_1" transform="translate(1.979849, 0.801008)" fill="#808285">
                        <path d="M53.6530882,0.409314861 C53.6530882,0.409314861 52.1295718,19.4252343 52.049471,22.9296423 C52.049471,22.9296423 50.8367456,25.7764232 46.963073,29.9192343 C43.0661713,34.0868766 32.8901713,41.9535718 27.9407456,48.340806 C20.1309219,58.4158791 16.5656373,72.3189673 13.8229874,75.6952141 C8.2463728,82.569461 0.305984887,88.4112091 0.305984887,88.4112091 L6.71404534,40.6879798 L53.6530882,0.409314861 Z" id="Path"></path>
                    </g>
                    <g id="bottoms_2" transform="translate(0.377834, 0.801008)" fill="#808285">
                        <path d="M55.2551033,0.409314861 C55.2551033,0.409314861 51.6505693,43.3809673 51.5704685,46.8853753 C51.5704685,46.8853753 50.5692091,51.3654106 45.4179295,54.9002569 C39.7812393,58.0754509 32.0883627,58.7523023 26.9394861,64.981738 C21.9716373,70.9900957 21.6183929,74.3270932 16.0121411,79.1924131 C10.6285693,84.3356826 0.247511335,89.7625088 0.247511335,89.7625088 L8.31445844,40.6895819 L55.2551033,0.409314861 Z" id="Path"></path>
                    </g>
                    <g id="bottoms_3" transform="translate(18.000000, 0.801008)">
                        <polygon id="Path" fill="#808285" points="37.6201209 0.717702771 36.8183123 36.8135063 23.3437632 46.959068 23.3437632 16.5215819"></polygon>
                        <path d="M23.3437632,46.959068 C23.3437632,46.959068 9.71381864,42.4269673 0.10172796,40.6879798 L0.10172796,25.7323678 L23.3437632,16.5215819 L23.3437632,46.959068 Z" id="Path" fill="#6D6E71"></path>
                    </g>
                    <g id="bottoms_4" transform="translate(20.403023, 0.801008)">
                        <polygon id="Path" fill="#808285" points="35.2170982 0.717702771 33.603068 50.4394458 20.9407406 59.9730378 20.9407406 16.5215819"></polygon>
                        <path d="M20.9407406,59.8384685 C7.03044332,55.2134509 10.0910932,55.22867 3.31216625,53.5673804 L0.104130982,25.7323678 L20.9407406,16.5215819 L20.9407406,59.8384685 Z" id="Path" fill="#6D6E71"></path>
                    </g>
                    <g id="bottoms_5" transform="translate(40.428212, 0.000000)">
                        <path d="M15.2047254,0.516649874 C15.2047254,0.516649874 12.721602,18.122796 12.2209723,25.1316121 C11.6202166,33.5477985 10.7879698,45.3250126 10.7879698,45.3250126 L6.21341562,46.5769874 L2.93489169,13.6275416 L15.2047254,0.516649874 Z" id="Path" fill="#808285"></path>
                        <path d="M4.24534005,16.9445139 C4.24534005,16.9445139 5.99474055,21.6736625 6.38322922,27.9351385 C6.77171788,34.1958136 6.38322922,46.5769874 6.38322922,46.5769874 L3.85524937,44.4278841 C3.85524937,44.4278841 3.42110327,33.5421914 2.9356927,29.5323476 C2.45028212,25.5217028 0.326811083,20.1205088 0.326811083,20.1205088 L4.2717733,17.3666448" id="Path" fill="#6D6E71"></path>
                    </g>
                    <g id="bottoms_6" transform="translate(39.627204, 0.000000)">
                        <path d="M16.005733,0.516649874 C16.005733,0.516649874 13.5226096,18.122796 13.0219798,25.1316121 C12.4212242,33.5477985 9.87081612,66.6382217 9.87081612,66.6382217 L6.49056423,66.7551688 L3.73589924,13.6283426 L16.005733,0.516649874 Z" id="Path" fill="#808285"></path>
                        <path d="M5.04634761,16.9445139 C5.04634761,16.9445139 7.18423678,20.9263224 7.18423678,28.2851788 C7.18423678,34.557068 6.49136524,66.7543678 6.49136524,66.7543678 L4.84609572,65.1803879 C4.84609572,65.1803879 4.1556272,37.3589924 3.74471033,33.3371335 C3.0101864,26.1280655 0.305183879,19.9875416 0.305183879,19.9875416 L5.07278086,17.3674458" id="Path" fill="#6D6E71"></path>
                    </g>
                </g>
                <g id="toes" transform="translate(40.050378, 19.476071)">
                    <g id="toes_1" transform="translate(5.607053, 210.000000)" fill="#808285">
                        <path d="M62.2839446,34.0724584 C62.0428413,34.1413451 61.8473955,39.9830932 56.1618438,45.8568816 C53.5641763,48.5410579 44.6713904,52.365068 40.6230982,53.4888816 C29.2640101,56.6424484 21.7129118,58.0450126 16.2476373,58.5328262 C7.63680605,59.2945844 0.793798489,56.2419446 0.52786398,54.9403073 C-1.8863728,43.1302519 8.51631234,39.4840655 12.9883375,35.8130479 C17.5692997,31.4323375 19.8705945,30.1555315 19.8705945,30.1555315 C19.8705945,30.1555315 20.3688212,30.5808665 19.5918438,31.5757179 C18.6218237,32.8180806 15.4986952,34.875068 17.9898287,37.0826448 C22.7462116,41.2975466 39.3486952,41.2478841 46.9310327,38.8785038 C58.5208111,35.2571486 62.0933048,34.1261259 62.2839446,34.0724584 Z" id="Path"></path>
                        <path d="M139.947234,0.56711335 C139.947234,0.56711335 137.440882,20.7501008 144.415254,28.3957179 C151.356786,36.0052897 177.788433,40.8994458 182.113073,19.3459345 C185.144887,4.25975819 183.940171,1.4738539 183.940171,1.4738539 C183.940171,1.4738539 187.452589,13.5386297 184.524106,33.6182872 C181.559577,53.9270327 164.281844,59.257738 152.072086,58.6553804 C139.867935,58.0530227 135.901345,42.6993098 136.240972,30.5608413 C136.594217,18.4215718 139.947234,0.56711335 139.947234,0.56711335 Z" id="Path"></path>
                    </g>
                    <g id="toes_2" transform="translate(3.204030, 210.000000)" fill="#808285">
                        <path d="M64.4979295,34.2302569 C62.9976423,38.8160252 60.9294408,43.7654509 58.3285693,46.4528312 C55.7309018,49.1370076 46.8381159,52.9610176 42.7898237,54.0848312 C31.4307355,57.238398 23.8796373,58.6409622 18.4143627,59.1287758 C9.80353149,59.890534 0.17061461,59.6414207 0.172216625,58.4399093 C0.0456574307,56.708131 6.13651889,47.6351184 10.1247355,43.2632191 C14.6808665,38.6574257 22.0365189,30.7514811 22.0365189,30.7514811 C22.0365189,30.7514811 22.5347456,31.1768161 21.7577683,32.1716675 C20.7877481,33.4140302 18.9422267,33.8377632 21.4333602,36.0453401 C26.1897431,40.2602418 41.5146196,41.8438338 49.0969572,39.4744534 C60.6867355,35.8530982 66.2769673,28.7938186 64.4979295,34.2302569 Z" id="Path"></path>
                        <path d="M142.284574,0.502231738 C142.284574,0.502231738 141.099884,23.0730227 148.075058,30.7186398 C155.016589,38.3282116 181.283229,41.2486851 184.283804,19.4644836 C187.194665,-1.64526952 186.482569,1.4314005 186.482569,1.4314005 C186.482569,1.4314005 188.666917,15.8895869 187.191461,35.7802065 C185.672751,56.2451486 163.227718,71.5299748 154.616887,71.5299748 C146.206307,71.5299748 137.809345,45.0022065 138.148171,32.863738 C138.489401,20.7260705 142.284574,0.502231738 142.284574,0.502231738 Z" id="Path"></path>
                    </g>
                </g>
                <g id="cover" transform="translate(55.269521, 158.987406)">
                    <g id="covers_0" transform="translate(0.000000, 71.289673)" fill="#808285">
                        <path d="M12.6804786,15.7462065 C11.9299345,20.1974055 9.85239295,24.1295516 9.85239295,24.1295516 C9.85239295,24.1295516 8.58680101,27.2142317 7.98364232,28.5350932 C6.10207557,31.6510126 4.2501461,36.3769572 0.507037783,40.382796 C0.78018136,40.0920302 2.93008564,38.0262317 7.58313854,39.8180856 C12.8818035,41.8590529 15.6596977,42.2219093 25.1388212,54.7048111 C25.1388212,54.7048111 28.938801,53.6202469 33.3163073,52.1023375 C33.4332544,52.1744282 33.5477985,52.2441159 33.6647456,52.3162065 C33.6647456,52.3162065 37.5960907,50.9096373 41.235068,48.9952292 C43.4722821,47.9555214 45.256927,46.9037985 45.9658186,45.9626146 C48.022005,43.2023426 48.9928262,42.8755315 50.3160907,39.113199 C51.199602,37.3349622 51.9990076,35.408539 52.6734559,33.279461 C52.6734559,33.2762569 54.2476423,25.8290579 55.2304786,22.2229219 C13.5764836,29.6955214 12.72133,20.5097985 12.6804786,15.7462065 Z" id="Path"></path>
                        <path d="M174.368131,0.915551637 C174.299244,0.552695214 174.238368,0.280352645 174.191909,0.100125945 C174.204725,0.161002519 174.216741,0.237899244 174.229557,0.328413098 C174.312861,0.971622166 172.814977,22.8623577 148.492383,22.8623577 C137.461708,22.8623577 132.436186,12.0711839 130.663557,6.9215063 C130.235018,5.67513854 129.995516,4.76279093 129.909809,4.40874559 C129.878569,4.61380353 129.840922,4.87172796 129.800071,5.17450882 C129.840922,4.87012594 129.878569,4.61380353 129.909809,4.40794458 C129.909809,4.40874559 129.909809,4.40874559 129.909809,4.40874559 C129.920222,4.34226196 129.928232,4.29019647 129.936242,4.23332494 C129.976292,3.98421159 130.001924,3.8376272 130.001924,3.8376272 C130.001924,3.8376272 129.985103,3.8904937 129.959471,3.99222166 C129.957869,3.99382368 129.957869,3.9962267 129.957869,3.99782872 C129.941048,4.06110831 129.913013,4.13640302 129.893788,4.23412594 L129.868957,4.23652897 C129.868957,4.23652897 129.872962,4.25335013 129.880972,4.28619144 C129.571783,5.45165743 128.713103,8.8086801 127.863234,13.1805793 C127.86003,13.1974005 127.856826,13.2142217 127.853622,13.2302418 C127.797552,13.5154005 127.737476,13.8141763 127.68461,14.1121511 C127.670191,14.1690227 127.664584,14.2290982 127.65337,14.2859698 C127.603708,14.5470982 127.556448,14.8106297 127.503582,15.0781662 C127.486761,15.153461 127.476348,15.2287557 127.458725,15.3048514 C127.413068,15.5611738 127.371416,15.8207003 127.322554,16.0826297 C127.307335,16.1643325 127.296121,16.2444332 127.280101,16.326136 C127.234443,16.5904685 127.191189,16.857204 127.145531,17.1263426 C127.132715,17.2048413 127.1207,17.280136 127.107083,17.3586348 C127.059023,17.6469975 127.014166,17.9385642 126.968509,18.230932 C126.958897,18.2894055 126.950086,18.3478791 126.941275,18.4063526 C126.777869,19.4684887 126.623275,20.559461 126.485501,21.6600453 C126.473486,21.7505592 126.467078,21.8434761 126.45266,21.9339899 C126.419819,22.2047305 126.386977,22.473869 126.355738,22.7462116 C126.340519,22.8647607 126.332509,22.9889169 126.314887,23.104262 C126.288453,23.3485693 126.265224,23.5928766 126.235587,23.8379849 C126.220368,23.9701511 126.208353,24.1015164 126.195537,24.2336826 C126.172307,24.4683778 126.148277,24.702272 126.128252,24.9377683 C126.113834,25.0771436 126.10262,25.2165189 126.090605,25.3550932 C126.070579,25.5865844 126.051355,25.8164736 126.033733,26.0479647 C126.021718,26.185738 126.012907,26.3251134 126.001693,26.4628866 C125.984872,26.7015869 125.96805,26.9402872 125.952831,27.1781864 C125.941617,27.3079496 125.93601,27.4369118 125.928,27.5666751 C125.911179,27.8366146 125.898363,28.1057531 125.883945,28.3748917 C125.878338,28.4686096 125.870327,28.5639295 125.867123,28.6584484 C125.850302,29.0245088 125.836685,29.3905693 125.82467,29.7550277 C125.807849,30.3101259 125.807849,30.8788413 125.815058,31.4571688 C125.887149,35.4966499 126.576816,39.9846952 127.648564,43.8559647 C130.693194,43.0926045 141.085466,40.6655516 169.150368,44.3565945 C170.826076,41.5819043 172.84862,38.3370227 173.774584,34.4873804 C173.907552,33.9378892 174.018892,33.3763829 174.099793,32.8020605 C176.538861,16.2276121 175.038574,4.41034761 174.368131,0.915551637 Z" id="Path"></path>
                        <path d="M0.505435768,40.382796 C0.485410579,40.4036222 0.472594458,40.4180403 0.472594458,40.4180403 C0.483808564,40.4052242 0.49502267,40.3948111 0.505435768,40.382796 Z" id="Path"></path>
                        <path d="M173.535083,0.672846348 C173.535083,0.672846348 173.563118,0.772171285 173.61198,0.95720403 C173.569526,0.753748111 173.535083,0.672846348 173.535083,0.672846348 Z" id="Path"></path>
                    </g>
                    <g id="covers_1" transform="translate(-0.000000, 38.652393)" fill="#808285">
                        <path d="M17.7327053,16.8782569 C15.0893804,30.1581612 9.53919899,49.1780856 6.81497229,60.2720403 C6.38803526,62.0110277 6.25186398,64.5766549 5.41320907,66.4798489 C4.22611587,69.1744383 2.03215617,71.1232897 0.506236776,73.0200756 C0.756151134,72.7076826 2.92928463,70.6635113 7.58233753,72.4553652 C12.8810025,74.4963325 15.6588967,74.8591889 25.1380202,87.3420907 C25.1380202,87.3420907 28.937199,86.2575264 33.3147053,84.7404181 C33.4316524,84.8125088 33.5477985,84.8829975 33.6647456,84.9550882 C33.6775617,84.9502821 33.7824937,84.9126348 33.9643224,84.8445491 C36.574806,83.9642418 39.9021914,82.6177481 43.1342569,80.6745038 C44.4543174,79.956801 45.472398,79.2495113 45.9642166,78.5950882 C45.9786348,78.576665 45.9906499,78.5606448 46.005068,78.5422217 C46.8196927,77.7428161 47.5774458,76.8040353 48.2775264,75.7234761 C48.86867,74.9537078 49.3821159,74.1190579 49.9348111,72.749335 C50.4050025,71.7801159 50.8519647,70.7524232 51.2756977,69.669461 C51.2845088,69.6494358 51.2949219,69.6302116 51.303733,69.6093854 C51.3149471,69.5805491 51.3253602,69.5485088 51.3373753,69.5188715 C51.3590025,69.4684081 51.3782267,69.4131385 51.3998539,69.3618741 C51.5704685,68.9549622 51.7346751,68.5392393 51.8964786,68.1155063 C51.9501461,67.97533 52.0054156,67.8359547 52.0582821,67.6957783 C52.2721511,67.1150479 52.4788111,66.5239043 52.6726549,65.9119345 C52.6726549,65.9087305 55.6051436,55.3130025 55.5162317,55.3170076 C57.6044584,46.7510327 59.4852242,37.7541159 62.2911537,31.1818489 C62.8382418,29.8994358 38.3641431,13.4327029 31.405197,7.89645221 C24.4462508,2.36020151 24.4462508,-1.04261985 23.2304786,1 C21.2304786,4.36020151 18.1151554,14.9582981 17.7327053,16.8782569 Z" id="Path"></path>
                        <path d="M174.78065,60.1550932 C174.783854,60.1158438 174.790262,60.0733904 174.793466,60.0381461 C174.801476,60.0141159 174.805481,59.9884836 174.809486,59.9676574 C174.815894,59.921199 174.8207,59.8843526 174.825506,59.8427003 C175.258851,56.9646801 175.576851,53.5852292 175.438277,49.8044736 C175.439078,49.7532091 175.442282,49.6907305 175.443083,49.638665 C175.44068,49.6090277 175.44068,49.5761864 175.438277,49.5449471 C175.521582,44.5106146 175.257249,40.4238741 174.943254,37.5170176 C174.942453,37.5058035 174.940851,37.5001965 174.94005,37.4841763 C174.912015,37.2326599 174.88398,36.9819446 174.855945,36.7448463 C174.849537,36.6943829 174.842327,36.6375113 174.839123,36.5854458 C174.816695,36.394005 174.789461,36.2017632 174.76463,36.0231385 C174.75662,35.967068 174.74861,35.9061914 174.746207,35.8477179 C174.718171,35.6362519 174.691738,35.431995 174.662101,35.2413552 C174.647683,35.1564484 174.638872,35.0731436 174.624453,34.9914408 C174.607632,34.8945189 174.594816,34.7943929 174.577194,34.7030781 C174.560373,34.5957431 174.544353,34.4972191 174.527531,34.3986952 C174.517919,34.3418237 174.51071,34.2825491 174.501098,34.2312846 C174.484277,34.1247506 174.464252,34.0230227 174.451436,33.9261008 C174.44663,33.9036725 174.441824,33.8788413 174.435416,33.8604181 C174.418594,33.7650982 174.400972,33.6649723 174.385753,33.5768615 C174.385753,33.5792645 174.385753,33.5808665 174.385753,33.5840705 C174.385753,33.5840705 174.385753,33.5840705 174.385753,33.5824685 C174.385753,33.5808665 174.385753,33.5792645 174.385753,33.5776625 C174.372937,33.3726045 174.364927,33.1715516 174.35131,32.9640907 C174.179093,30.034806 174.000469,26.9781612 173.817839,23.8229924 C173.667249,20.6678237 173.265144,15.2618237 173.215481,14.2637683 C155.912116,3.43334509 140.422232,8.86898237 133.115441,12.7458589 C132.66127,15.7832796 132.202292,15.5966448 131.839436,18.6100353 C131.555879,20.9225441 131.209043,23.1990076 130.985562,25.4970982 C130.768489,27.7847758 130.560227,30.0612393 130.344756,32.3208816 C130.248635,33.5720554 130.156519,34.8072091 130.061199,36.0423627 C128.476005,42.2557783 126.084196,52.8531083 125.859113,60.9192544 L125.860715,62.3146096 C125.859113,62.3418438 125.855909,62.3698791 125.855909,62.3979144 C125.839088,62.9498086 125.839088,63.5185239 125.847098,64.1000554 C125.86472,65.2406902 125.940816,66.4189723 126.056161,67.6060655 C126.062569,67.655728 126.068977,67.7021864 126.072982,67.7518489 C126.122645,68.2837179 126.187526,68.8155869 126.256413,69.3490579 C126.269229,69.4339647 126.279642,69.5204736 126.290856,69.6045793 C126.359743,70.1052091 126.435038,70.6042368 126.515139,71.1032645 C126.53196,71.2001864 126.545577,71.2955063 126.564801,71.3924282 C126.648106,71.8890529 126.741824,72.3816725 126.837144,72.8758942 C126.853965,72.959199 126.869985,73.0513149 126.886806,73.1370227 C126.994942,73.6632846 127.107083,74.1879446 127.231239,74.7061965 C127.244055,74.7478489 127.248861,74.7895013 127.259275,74.8255466 C127.393844,75.3910579 127.536423,75.9493602 127.68461,76.4940453 C127.685411,76.4940453 127.685411,76.4940453 127.686212,76.4940453 C127.686212,76.4948463 127.687814,76.4964484 127.687814,76.4972494 C128.068292,76.4035315 128.560912,76.2801763 129.183295,76.1464081 C129.261793,76.1295869 129.337889,76.1159698 129.41799,76.0967456 C129.490081,76.0823275 129.557365,76.0719144 129.629456,76.0542922 C129.712761,76.037471 129.785652,76.0238539 129.870559,76.0054307 C129.953864,75.9886096 130.049184,75.9725894 130.134892,75.9557683 C130.218196,75.9389471 130.313516,75.924529 130.39602,75.9061058 C130.49134,75.8892846 130.585058,75.8716625 130.68198,75.8564433 C130.774096,75.8396222 130.866212,75.825204 130.965537,75.8075819 C131.081683,75.7907607 131.187416,75.7715365 131.310771,75.7563174 C131.39728,75.7394962 131.494202,75.7274811 131.589521,75.712262 C131.732902,75.6922368 131.878685,75.6682065 132.031678,75.6497834 C132.122992,75.6337632 132.215108,75.6241511 132.310428,75.610534 C138.07528,74.8359597 149.108358,74.3449421 169.194423,76.987466 C169.912126,75.7963678 170.69471,74.5075466 171.428433,73.1330176 C171.458071,73.0817531 171.486106,73.0312897 171.514141,72.9792242 C171.515743,72.9768212 171.515743,72.9736171 171.517345,72.9704131 C171.558196,72.8951184 171.597446,72.8198237 171.634292,72.743728 C171.71199,72.5947406 171.784882,72.4489572 171.862579,72.2975668 C172.036398,71.9467254 172.207814,71.5966851 172.371219,71.2386348 C172.393647,71.1873703 172.41928,71.1321008 172.440907,71.0808363 C172.591496,70.7460151 172.732474,70.4031839 172.870247,70.0603526 C172.913501,69.9570227 172.953552,69.8552947 172.989597,69.7511637 C173.136181,69.3674811 173.273154,68.9829975 173.402116,68.5881008 C173.410927,68.5704786 173.418937,68.5464484 173.422942,68.5264232 C173.554307,68.1090982 173.672856,67.6797582 173.77939,67.2464131 C173.792207,67.2031587 173.801819,67.1631083 173.813834,67.1206549 C173.828252,67.0717935 173.830655,67.022131 173.84267,66.9724685 C173.959617,66.4758438 174.059743,65.9728111 174.135038,65.4545592 C174.13664,65.4441461 174.139844,65.437738 174.140645,65.435335 C174.276816,64.5029622 174.396967,63.5866096 174.51071,62.6854761 C174.513113,62.6702569 174.514715,62.6622469 174.516317,62.6494307 C174.599622,61.8067708 174.694141,60.9745239 174.78065,60.1550932 Z" id="Path"></path>
                    </g>
                    <g id="covers_2">
                        <path d="M26.289068,9.75787406 C26.289068,9.75787406 27.1998136,7.90354156 31.7255063,7.20586398 C31.7255063,7.20586398 31.1383678,10.9025139 30.741068,12.3106851 C30.741068,12.3098841 27.1902015,12.2610227 26.289068,9.75787406 Z" id="Path" fill="#6D6E71"></path>
                        <g id="full_x5F_cover_x5F_1" fill="#808285">
                            <path d="M90.1405844,8.98810579 C88.2125592,6.15654408 86.1011033,3.47477078 84.376534,0.572720403 C46.9246247,16.0618035 29.9905239,13.359204 26.289068,9.75787406 C25.8372997,12.1713098 12.8633804,80.6358287 5.10562217,105.767441 C3.81039295,109.963919 2.34855416,110.450131 0.506236776,111.672469 C0.838654912,111.452992 2.92928463,109.315904 7.58233753,111.107758 C12.8810025,113.148725 15.6588967,113.511582 25.1380202,125.994484 C25.1380202,125.994484 28.937199,124.909919 33.3147053,123.392811 C33.4316524,123.464902 33.5477985,123.53539 33.6647456,123.607481 C33.6767607,123.602675 33.7768866,123.56663 33.9402922,123.505753 C34.2214458,123.41604 34.5034005,123.322322 34.7997733,123.210181 C34.5098086,123.317516 34.235063,123.407229 33.9603174,123.499345 C33.9619194,123.497743 33.9619194,123.497743 33.9635214,123.496942 C33.9803426,123.491335 33.9979647,123.484927 34.0139849,123.480121 C34.2719093,123.393612 34.5274307,123.306302 34.7981713,123.20938 C34.8149924,123.202972 34.8318136,123.192559 34.8478338,123.192559 C35.2235063,123.058791 35.611995,122.91461 36.0092947,122.763219 C36.039733,122.751204 36.0701713,122.742393 36.1014106,122.727174 C36.4890982,122.576584 36.886398,122.418786 37.2901058,122.251375 C37.3301562,122.234554 37.3702065,122.218534 37.4094559,122.201713 C37.5944887,122.120811 37.7851285,122.037506 37.9733652,121.953401 C38.1239547,121.888519 38.2737431,121.825239 38.4259345,121.757154 C38.4940202,121.73072 38.5597028,121.702685 38.6277884,121.673048 C38.6718438,121.656227 38.7150982,121.633798 38.7591537,121.618579 C38.9842368,121.516851 39.2133249,121.403909 39.4416121,121.298176 C39.4736524,121.281355 39.5056927,121.268539 39.537733,121.251718 C39.6955315,121.176423 39.851728,121.105134 40.0103275,121.029038 C40.0527809,121.012217 40.0952343,120.988186 40.1376877,120.969763 C40.5646247,120.756695 40.9931637,120.539622 41.4233048,120.312136 C41.4585491,120.294514 41.4945945,120.272086 41.5298388,120.256866 C41.972796,120.017365 42.4157531,119.770655 42.8587103,119.505521 C42.8795365,119.4887 42.9011637,119.484695 42.9227909,119.466272 C43.0052947,119.41661 43.0861965,119.362942 43.1678992,119.315683 C44.4711385,118.599582 45.476403,117.8987 45.9642166,117.255491 C45.9754307,117.23867 45.9858438,117.229859 45.9970579,117.212237 C46.0867708,117.126529 46.1796877,117.045627 46.2661965,116.954312 C46.3695264,116.846977 46.4712544,116.737239 46.5729824,116.620292 C46.7820453,116.388 46.9887053,116.147698 47.1897582,115.898584 C47.279471,115.781637 47.3683829,115.673501 47.4564937,115.55335 C47.5021511,115.496479 47.5446045,115.430796 47.589461,115.369919 C47.7392494,115.169668 47.8858338,114.959804 48.0300151,114.74994 C48.0532443,114.715496 48.0780756,114.685058 48.1005038,114.650615 C48.1605793,114.563305 48.2214559,114.475194 48.2807305,114.38468 C48.2815315,114.383078 48.2823325,114.381476 48.2831335,114.380675 C48.870272,113.614912 49.3813149,112.783466 49.930806,111.424957 C50.4106096,110.440519 50.8655819,109.392801 51.2973249,108.289814 C51.299728,108.285008 51.302131,108.280202 51.304534,108.274594 C51.3157481,108.245758 51.3261612,108.214519 51.3381763,108.184882 C51.3437834,108.170463 51.3493904,108.156846 51.3549975,108.143229 C51.6938237,107.339819 52.0094207,106.496358 52.3105995,105.628065 C52.4323526,105.277224 52.5589118,104.938398 52.6734559,104.577144 C52.6734559,104.57394 55.6059446,93.9798136 55.5170327,93.9822166 C55.6003375,93.6393854 55.6836423,93.2957531 55.7669471,92.9497179 C55.7789622,92.9000554 55.7909773,92.852796 55.8021914,92.8023325 C55.9255466,92.2872846 56.0481008,91.7794458 56.1706549,91.264398 C56.8282821,88.510534 57.4770982,85.7462569 58.1531486,83.0636826 C58.2020101,82.8714408 58.2508715,82.68 58.299733,82.4829521 C58.407068,82.0640252 58.516005,81.6322821 58.6249421,81.2173602 C58.7010378,80.9281965 58.7787355,80.6334257 58.8564332,80.343461 C58.9477481,80.0014307 59.038262,79.6594005 59.1303778,79.3245793 C59.2953854,78.7190176 59.463597,78.12467 59.6342116,77.5383325 C59.6998942,77.3132494 59.7671788,77.0889673 59.8336625,76.8654861 C59.9530126,76.4617783 60.0739647,76.0612746 60.1965189,75.6671788 C60.2702116,75.4276776 60.3463073,75.1945844 60.420801,74.9598892 C60.5417531,74.5794106 60.6651083,74.2085441 60.7900655,73.8400806 C60.8661612,73.6149975 60.9422569,73.3899144 61.0199547,73.1688363 C61.1561259,72.7795466 61.2955013,72.397466 61.4356776,72.0169874 C61.4901461,71.867199 61.5446146,71.7246196 61.5990831,71.5788363 C61.6159043,71.5307758 61.6327254,71.4883224 61.6503476,71.442665 C61.8457935,70.9332242 62.0444433,70.4398035 62.2487003,69.955194 C62.2639194,69.9207506 62.2783375,69.8815013 62.2935567,69.8470579 C62.541869,69.2631234 62.8158136,68.7144332 63.1041763,68.1761562 C63.1073804,68.1681461 63.1105844,68.159335 63.1137884,68.156932 C63.2027003,67.9911234 63.2980202,67.835728 63.390937,67.6731234 C63.5687607,67.3607305 63.7545945,67.0595516 63.9452343,66.7623778 C63.9852846,66.6998992 64.02133,66.6342166 64.0621814,66.571738 C64.1775264,66.3963174 64.2952746,66.2208967 64.4146247,66.0542872 C64.6533249,65.7106549 64.9008363,65.3790378 65.1555567,65.0586348 C65.2701008,64.9096474 65.3814408,64.766267 65.4991889,64.6220856 C65.8476272,64.2015567 66.2080806,63.7914408 66.5829521,63.3989471 C66.6109874,63.3693098 66.6358186,63.3380705 66.6638539,63.3140403 C67.0755718,62.8855013 67.5041108,62.4665743 67.943864,62.0660705 C68.0624131,61.9563325 68.1857683,61.8505995 68.3067204,61.7488715 C68.6351335,61.4589068 68.9691537,61.1673401 69.3103829,60.8957985 C69.4577683,60.7788514 69.6059547,60.6578992 69.7549421,60.5449572 C70.0977733,60.2742166 70.4462116,60.0098841 70.8002569,59.7487557 C70.9332242,59.6566398 71.0653904,59.5565139 71.1999597,59.461194 C71.6637431,59.1279748 72.1347355,58.8011637 72.614539,58.4767557 C75.3051234,56.6792947 78.2183879,55.0556524 81.1212393,53.3030479 C78.9328866,32.6939244 87.6526549,19.5469874 93.0506448,13.5546499 C92.1358942,11.9654509 91.1506549,10.4619597 90.1405844,8.98810579 Z" id="Path"></path>
                            <path d="M176.608549,11.1684484 C158.339169,15.0901814 146.280801,12.5622015 139.493864,9.86280605 C139.18067,11.5633451 138.869879,13.2622821 138.572705,14.9572141 C136.86736,24.4363375 135.302992,33.9378892 133.829139,43.3048715 C133.592841,44.942932 133.346932,46.5601662 133.103426,48.1926196 C133.103426,48.1926196 133.103426,48.1934207 133.101824,48.1934207 C132.650055,51.2308413 132.189476,54.2506398 131.82662,57.2616272 C131.543063,59.5773401 131.196227,61.8505995 130.971144,64.1518942 C130.754872,66.4387708 130.549814,68.7160353 130.331139,70.9764786 C130.234217,72.2276524 130.146106,73.462005 130.047582,74.6979597 C128.462388,80.9113753 126.070579,91.5087053 125.843894,99.5740504 L125.844695,100.970207 C125.843894,100.997441 125.842292,101.025476 125.841491,101.053511 C125.82467,101.605406 125.82467,102.174922 125.833481,102.755652 C125.852705,103.896287 125.926398,105.074569 126.042544,106.261662 C126.04735,106.311325 126.053758,106.358584 126.058564,106.407446 C126.109829,106.939315 126.175511,107.471184 126.241995,108.004655 C126.255612,108.090363 126.264423,108.176071 126.276438,108.260977 C126.344524,108.761607 126.419819,109.260635 126.499919,109.759662 C126.50873,109.809325 126.516741,109.859788 126.52395,109.910252 C126.525552,109.919864 126.527154,109.927073 126.528756,109.935884 C126.535965,109.974332 126.542373,110.012781 126.545577,110.051229 C126.628882,110.547854 126.723401,111.040474 126.820322,111.534695 C126.837144,111.618801 126.853164,111.710116 126.869985,111.794222 C126.97732,112.322887 127.08866,112.845144 127.213617,113.363395 C127.227234,113.40665 127.230438,113.4467 127.241652,113.485149 C127.376222,114.049859 127.521204,114.608161 127.664584,115.152846 C127.668589,115.152846 127.668589,115.152846 127.668589,115.152846 C127.668589,115.154448 127.670191,115.15605 127.670191,115.15605 C127.670992,115.15605 127.672594,115.15605 127.673395,115.15605 C127.673395,115.157652 127.674196,115.157652 127.674196,115.159254 C128.056277,115.065537 128.546494,114.942181 129.172882,114.810816 C129.248176,114.793995 129.325874,114.779577 129.407577,114.761154 C129.476463,114.744332 129.543748,114.736322 129.615038,114.715496 C129.69594,114.698675 129.773637,114.685859 129.858544,114.665834 C129.941849,114.649013 130.032363,114.632992 130.119673,114.616171 C130.202977,114.59935 130.296695,114.584932 130.382403,114.566509 C130.476121,114.549688 130.574645,114.532065 130.673169,114.516846 C130.727637,114.506433 130.790116,114.498423 130.850992,114.485607 C130.883834,114.48 130.914272,114.474393 130.948715,114.468786 C131.007189,114.458373 131.065662,114.451965 131.130544,114.443154 C131.181809,114.43194 131.241083,114.426332 131.296353,114.418322 C131.383662,114.401501 131.479783,114.390287 131.571899,114.375068 C131.716882,114.354242 131.864267,114.327008 132.017259,114.311788 C132.062116,114.302977 132.103768,114.295768 132.148625,114.294967 C132.196685,114.286156 132.242343,114.278947 132.290403,114.277345 C138.056856,113.50197 149.089935,113.010952 169.176,115.653476 C169.535652,115.055123 169.914529,114.435144 170.294207,113.78873 C170.521693,113.401844 170.745174,112.98532 170.977466,112.579209 C171.124851,112.316479 171.270635,112.065763 171.417219,111.796625 C171.443652,111.746962 171.471688,111.698101 171.500524,111.646035 C171.499723,111.647637 171.499723,111.648438 171.498121,111.649239 C171.496519,111.651642 171.496519,111.653244 171.496519,111.654846 C172.423285,109.897436 173.257134,107.979023 173.778589,105.883587 C173.789804,105.852348 173.795411,105.819506 173.805023,105.785063 C173.816237,105.745814 173.821844,105.70336 173.825048,105.666514 C173.943597,105.160277 174.050131,104.648433 174.12863,104.117365 C174.404977,102.238202 174.622851,100.429526 174.807884,98.6745189 C174.811088,98.6576977 174.814292,98.6432796 174.819098,98.6248564 C174.823904,98.581602 174.827108,98.5415516 174.831914,98.4998992 C174.837521,98.4638539 174.843128,98.4254055 174.848736,98.3885592 C174.895995,98.0729622 174.939249,97.7621713 174.984907,97.4369622 C175.014544,97.2174861 175.039375,96.986796 175.068212,96.7585088 C175.077824,96.675204 175.085033,96.5862922 175.09865,96.5013854 C175.111466,96.4044635 175.121078,96.3107456 175.133894,96.2106196 C175.135496,96.2026096 175.135496,96.1954005 175.137098,96.1937985 C175.16994,95.9014307 175.198776,95.6042569 175.227612,95.3038791 C175.231617,95.2774458 175.23402,95.2494106 175.237224,95.2205743 C175.245234,95.1396725 175.254045,95.0651788 175.257249,94.9842771 C175.258851,94.9690579 175.260453,94.9602469 175.262055,94.9442267 C175.270065,94.864927 175.276474,94.7856272 175.278877,94.7047254 C175.339753,93.9926297 175.395023,93.2637128 175.427864,92.5123678 C175.43267,92.4034307 175.435073,92.2952947 175.439879,92.1887607 C175.453496,91.8627506 175.463909,91.5375416 175.471118,91.2027204 C175.471118,91.2027204 175.471118,91.2027204 175.471118,91.2011184 C175.471118,91.1995164 175.471118,91.1963123 175.471118,91.1939093 C175.47272,91.1482519 175.47272,91.1106045 175.474322,91.0729572 C175.479929,90.7117028 175.479128,90.3392343 175.477526,89.9651637 C175.476725,89.9291184 175.477526,89.8938741 175.477526,89.8578287 C175.477526,89.8089673 175.478327,89.7649118 175.477526,89.7136474 C175.477526,89.7136474 175.477526,89.7120453 175.477526,89.7104433 C175.477526,89.7120453 175.477526,89.7136474 175.477526,89.7136474 C175.47272,89.3083375 175.460705,88.8958186 175.445486,88.4808967 C175.445486,88.4760907 175.445486,88.4688816 175.445486,88.4640756 L175.445486,88.4624736 C175.462307,88.8822015 175.47272,89.2995264 175.477526,89.7112443 C175.47272,89.2995264 175.460705,88.8870076 175.445486,88.4624736 C175.446287,88.4112091 175.450292,88.3503325 175.450292,88.296665 C175.44869,88.2798438 175.44869,88.2566146 175.447088,88.2389924 C175.446287,88.2221713 175.446287,88.2093552 175.445486,88.191733 C175.451894,87.8352846 175.451894,87.4924534 175.455098,87.1408111 C175.4567,87.0006348 175.458302,86.8572544 175.459904,86.7218841 C175.461506,86.3710428 175.459904,86.0346196 175.458302,85.6917884 C175.4567,85.5011486 175.455098,85.3081058 175.451894,85.115864 C175.44869,84.798665 175.443884,84.4918791 175.436675,84.1866952 C175.43267,83.9808363 175.426262,83.7805844 175.421456,83.5787305 C175.411844,83.2951738 175.404635,83.0076121 175.398227,82.7296625 C175.390217,82.4901612 175.381406,82.2642771 175.372594,82.0327859 C175.355773,81.6338841 175.338151,81.2469975 175.320529,80.8657179 C175.30531,80.6150025 175.294096,80.3578791 175.278076,80.1143728 C175.265259,79.922131 175.254846,79.7322922 175.241229,79.5480605 C175.224408,79.2997481 175.207587,79.0626499 175.191567,78.8255516 C175.175547,78.6637481 175.166736,78.5051486 175.153919,78.3433451 C175.132292,78.0685995 175.105859,77.802665 175.085033,77.5423375 C175.073018,77.4390076 175.06661,77.3332746 175.056997,77.2315466 C174.973693,76.3624534 174.887985,75.5846751 174.800675,74.8934055 C174.799073,74.8805894 174.797471,74.8717783 174.795869,74.8573602 C174.740599,73.2769723 174.706156,72.1691788 174.700549,72.0866751 C174.687733,71.8816171 174.402574,65.3309773 174.216741,62.1742065 C174.042121,58.6057179 174.983305,50.1855264 174.886383,48.022005 C174.86796,47.1505088 176.571703,31.7519395 176.820015,26.394801 C176.993834,21.9940655 176.844846,14.4261461 176.608549,11.1684484 Z" id="Path"></path>
                        </g>
                    </g>
                </g>
                <g id="counter" transform="translate(47.304786, 19.594458)">
                    <g id="counter_1" transform="translate(79.254408, 145.801008)" fill="#808285">
                        <path d="M25.0715365,11.5144836 C23.3830126,8.42019144 17.8792897,1.18068514 17.385068,0.48861461 C10.6093451,5.44444836 -3.52042821,19.9082418 0.863486146,52.3474458 C9.29889673,46.5930076 20.1092947,42.7401612 25.8052594,31.2825491 C25.8052594,31.2833501 31.2601209,22.8543476 25.0715365,11.5144836 Z" id="Path"></path>
                    </g>
                    <g id="counter_2" transform="translate(36.000000, 145.000000)" fill="#808285">
                        <path d="M60.6418791,1.2936272 C60.4288111,0.995652393 60.2157431,0.699279597 60.0034761,0.402105793 C52.7095013,8.99691688 32.749995,34.2614962 25.6050076,61.1096675 C21.7425491,75.6247254 11.870932,102.829345 0.707289673,104.43136 C0.707289673,104.43136 2.64332494,108.236947 7.56631738,117.30996 C10.2088413,116.322317 13.3247607,114.916549 16.2684635,112.991728 C26.3074912,106.430675 27.9006952,79.0994962 34.2550882,64.2135718 C36.358534,59.2905793 39.9550579,55.9856222 44.1299093,53.1332343 C47.0191436,51.1627557 50.1863275,49.4117531 53.3310831,47.5093602 C53.3831486,47.4781209 53.4352141,47.4468816 53.4872796,47.4164433 C53.8549421,47.1929622 54.2218035,46.9662771 54.588665,46.7363879 C54.7680907,46.6194408 54.9467154,46.5113048 55.1253401,46.3911537 C55.5538791,46.1188111 55.9800151,45.8400605 56.4045491,45.5677179 C56.7273552,45.3506448 57.0493602,45.1391788 57.3697632,44.9172997 C57.5836322,44.7675113 57.7942972,44.6193249 58.0057632,44.4671335 C58.3053401,44.2500605 58.6025139,44.0385945 58.8980856,43.8167154 C59.0959345,43.6661259 59.2945844,43.5219446 59.4908312,43.3681511 C59.8745139,43.0765844 60.2541914,42.7705995 60.629864,42.4606096 C60.733995,42.3773048 60.84133,42.291597 60.9446599,42.2098942 C61.3964282,41.8270126 61.8401864,41.4313149 62.2775365,41.0276071 C62.4273249,40.8874307 62.5739093,40.7440504 62.7212947,40.6094811 C63.0424987,40.2986902 63.3596977,39.9878992 63.6720907,39.6602872 C63.81467,39.5096977 63.9580504,39.3663174 64.0990277,39.2101209 C64.5059395,38.7727708 64.9056423,38.3258086 65.29333,37.8580202 C65.3205642,37.8251788 65.3485995,37.7955416 65.3758338,37.7643023 C65.7851486,37.2692796 66.1792443,36.7462217 66.563728,36.2103476 C66.678272,36.0565542 66.7880101,35.8907456 66.8993501,35.726539 C67.1821058,35.3124181 67.4560504,34.8942922 67.7235869,34.4609471 C67.8309219,34.2855264 67.9390579,34.1109068 68.0431889,33.9410932 C68.3956322,33.3419395 68.7376625,32.7227607 69.0588665,32.0867607 C69.0588665,32.0867607 70.280403,30.1963829 70.910796,26.9995617 C71.1390831,26.0007053 71.2848665,24.9473804 71.2624383,23.9461209 C71.3809874,20.7276725 70.7449874,16.749869 68.3251436,12.3146902 C66.6390227,9.22600504 61.1481159,2.00091688 60.6418791,1.2936272 Z" id="Path"></path>
                    </g>
                </g>
                <g id="shaft" transform="translate(47.896725, 4.612091)">
                    <g id="shaft_1" transform="translate(33.005038, 134.350126)">
                        <path d="M2.56963224,7.07449874 C2.56963224,7.07449874 3.32257935,4.93020151 7.84827204,4.23252393 C7.84827204,4.23252393 7.84827204,8.21032746 7.78178841,9.58405542 C7.78258942,9.58405542 3.47076574,9.57764736 2.56963224,7.07449874 Z" id="Path" fill="#6D6E71"></path>
                        <path d="M1.059733,28.6095869 C1.15985894,28.0809219 1.25838287,27.5514559 1.35290176,27.0219899 C1.25838287,27.5514559 1.15905793,28.0809219 1.059733,28.6095869 Z" id="Path" fill="#BCBEC0"></path>
                        <path d="M58.509597,20.1925995 C58.4535264,20.0956776 58.3942519,20.0003577 58.3389824,19.9034358 C58.2652897,19.7744736 58.196403,19.6439093 58.1235113,19.5149471 C58.197204,19.6463123 58.2636877,19.7792796 58.3389824,19.9106448 C58.3926499,20.0067657 58.4543275,20.0980806 58.509597,20.1925995 Z" id="Path" fill="#BCBEC0"></path>
                        <path d="M57.1983476,17.7879748 C57.3000756,17.9882267 57.4042065,18.1868766 57.5091385,18.3863275 C57.4050076,18.1868766 57.3008766,17.9874257 57.1983476,17.7879748 Z" id="Path" fill="#BCBEC0"></path>
                        <path d="M56.3252494,15.9825038 C56.3661008,16.0714156 56.4045491,16.1611285 56.4454005,16.2500403 C56.4045491,16.1603275 56.3661008,16.0714156 56.3252494,15.9825038 Z" id="Path" fill="#BCBEC0"></path>
                        <path d="M55.5570831,14.1946549 C55.5931285,14.2843678 55.6315768,14.3748816 55.6684232,14.4645945 C55.6315768,14.3740806 55.5931285,14.2843678 55.5570831,14.1946549 Z" id="Path" fill="#BCBEC0"></path>
                        <path d="M1.56997481,25.7740202 C1.73418136,24.808005 1.89117884,23.8403879 2.03455919,22.8703678 C1.89197985,23.8403879 1.73418136,24.808005 1.56997481,25.7740202 Z" id="Path" fill="#BCBEC0"></path>
                        <path d="M114.818826,24.7559395 C114.937375,24.1535819 115.063935,23.5536272 115.188091,22.9528715 C115.064736,23.5536272 114.936574,24.1519798 114.818826,24.7559395 Z" id="Path" fill="#BCBEC0"></path>
                        <path d="M115.380332,22.0124887 C115.313048,22.3248816 115.252171,22.6396776 115.188091,22.9528715 C115.252171,22.6388766 115.317854,22.3256826 115.385139,22.0132897 C115.383537,22.0124887 115.381935,22.0124887 115.380332,22.0124887 Z" id="Path" fill="#808285"></path>
                        <path d="M114.818826,24.7559395 C114.61537,25.7884383 114.418322,26.8241411 114.227683,27.8630479 C113.992987,29.1030076 113.778317,30.3381612 113.555637,31.5757179 C113.557239,31.5765189 113.558841,31.5765189 113.560443,31.5773199 C113.781521,30.3405642 113.997793,29.1054106 114.230887,27.8654509 C114.421526,26.8265441 114.616972,25.7900403 114.818826,24.7559395 Z" id="Path" fill="#808285"></path>
                        <path d="M115.920212,5.41721411 C115.93463,5.92104786 115.951451,6.42087657 115.965869,6.92631234 C116.028348,9.28688161 116.074005,11.657063 116.082816,14.0208363 C116.098035,15.2039244 116.076408,16.3838086 116.048373,17.5396625 L116.015531,18.3919345 L115.99871,18.8084584 L115.957058,19.1304635 L115.92662,19.4532695 L115.8313,19.9050378 L115.643864,20.7829421 C115.55335,21.1898539 115.473249,21.6039748 115.38594,22.0132897 C115.38594,22.0132897 115.38594,22.0132897 115.381134,22.0132897 C115.315451,22.3256826 115.248166,22.6388766 115.184086,22.9528715 C115.063935,23.5536272 114.934171,24.1535819 114.814821,24.7559395 C114.614569,25.7900403 114.417521,26.8265441 114.230887,27.8654509 C113.997793,29.1054106 113.78072,30.3405642 113.560443,31.5773199 C121.728317,34.4024736 133.708987,35.6993048 151.060413,32.4600302 C150.991526,31.4419496 150.91463,30.426272 150.844141,29.4081914 C150.778458,28.4597985 150.714378,27.5090025 150.648695,26.5574055 C150.61265,25.6682872 150.536554,24.808806 150.622262,23.8035416 L150.639083,23.4527003 L150.653501,23.3645894 L150.67673,23.1835617 L150.776856,22.4618539 L150.871375,21.7842015 C150.872977,21.7842015 150.874579,21.7842015 150.876181,21.7834005 L150.988322,21.0200403 L151.390428,18.126 C151.649955,16.1939698 151.911083,14.2571335 152.174615,12.3186952 L152.700877,7.85227708 C134.405864,9.13949622 122.212927,7.04566247 115.920212,5.41721411 Z" id="Path" fill="#808285"></path>
                        <path d="M0.305984887,32.3951486 C0.306785894,32.3951486 0.306785894,32.3951486 0.305984887,32.3951486 C0.571118388,31.1359647 0.821833753,29.8735768 1.059733,28.6071839 C0.820231738,29.8735768 0.571118388,31.1359647 0.305984887,32.3951486 Z" id="Path" fill="#808285"></path>
                        <path d="M54.912272,12.4644786 C55.1093199,13.038801 55.3247909,13.6163275 55.5570831,14.1946549 C55.3255919,13.6163275 55.1093199,13.038801 54.912272,12.4644786 Z" id="Path" fill="#808285"></path>
                        <path d="M1.35290176,27.0219899 C1.42659446,26.606267 1.50028715,26.1905441 1.56997481,25.7740202 C1.49948615,26.1905441 1.42739547,26.606267 1.35290176,27.0219899 Z" id="Path" fill="#808285"></path>
                        <path d="M2.24282116,21.3308312 C2.17954156,21.8082317 2.11786398,22.2864332 2.05138035,22.7614307 C2.0457733,22.7974761 2.03936524,22.8343224 2.03455919,22.8711688 C2.04016625,22.8335214 2.04737531,22.7966751 2.05218136,22.7590277 C2.11866499,22.2848312 2.17954156,21.8066297 2.24282116,21.3308312 Z" id="Path" fill="#808285"></path>
                        <path d="M57.5091385,18.3855264 C57.7085894,18.763602 57.9136474,19.1400756 58.1235113,19.5149471 C57.9144484,19.1400756 57.7085894,18.763602 57.5091385,18.3855264 Z" id="Path" fill="#808285"></path>
                        <path d="M58.509597,20.1925995 C58.7651184,20.6355567 59.0310529,21.0729068 59.3041965,21.5062519 C59.0302519,21.0737078 58.7659194,20.6355567 58.509597,20.1925995 Z" id="Path" fill="#808285"></path>
                        <path d="M55.6684232,14.4645945 C55.8758841,14.9700302 56.0945592,15.476267 56.3252494,15.9825038 C56.0945592,15.476267 55.8750831,14.9700302 55.6684232,14.4645945 Z" id="Path" fill="#808285"></path>
                        <path d="M56.4454005,16.2500403 C56.6841008,16.7642872 56.9372191,17.276131 57.1983476,17.7879748 C56.9380202,17.276131 56.6841008,16.7634861 56.4454005,16.2500403 Z" id="Path" fill="#808285"></path>
                        <path d="M59.3041965,21.5070529 C59.0310529,21.0737078 58.7659194,20.6363577 58.509597,20.1934005 C58.4543275,20.0980806 58.3926499,20.0067657 58.3389824,19.9106448 C58.2644887,19.7792796 58.197204,19.6463123 58.1235113,19.5149471 C57.9136474,19.1400756 57.7085894,18.763602 57.5091385,18.3855264 C57.4042065,18.1860756 57.3000756,17.9874257 57.1983476,17.7871738 C56.9372191,17.27533 56.6841008,16.7634861 56.4454005,16.2492393 C56.4037481,16.1603275 56.3652997,16.0706146 56.3252494,15.9817028 C56.0937582,15.475466 55.8750831,14.9700302 55.6684232,14.4637935 C55.6315768,14.3732796 55.5931285,14.2835668 55.5570831,14.1938539 C55.3247909,13.6147254 55.1093199,13.038 54.912272,12.4636776 C54.6663627,11.7459748 54.4452846,11.0322771 54.2618539,10.3273904 C54.1425038,9.93329471 54.0936423,9.54160202 54.0047305,9.14910831 L53.9742922,9.00252393 L53.9606751,8.9360403 L53.9262317,8.61163224 L53.8541411,7.92757179 C53.7884584,7.45017128 53.8044786,7.06889169 53.7900605,6.65477078 C53.7852544,6.23744584 53.7572191,5.85856927 53.7676322,5.40840302 C53.7812494,3.69664987 53.8565441,1.95926448 53.955068,0.215471033 C28.8827305,9.37579345 8.42259446,8.12381864 2.56963224,7.07369773 L2.59286146,8.8615466 L2.58805542,12.4500605 L2.58485139,13.3447859 L2.54560202,14.1834408 L2.47190932,15.8575466 C2.25243325,17.7823678 2.00972796,19.6799547 1.75500756,21.5679295 C1.69092695,22.043728 1.63085139,22.5219295 1.56436776,22.9961259 C1.55876071,23.0329723 1.55155164,23.0706196 1.54674559,23.108267 C1.40416625,24.0774861 1.24636776,25.0451033 1.08216121,26.0119194 C1.01167254,26.4284433 0.938780856,26.8441662 0.865088161,27.2598892 C0.77056927,27.7893552 0.348438287,31.5308615 0.0841057935,32.7892443 C4.51287657,35.5583275 23.1643375,39.4215869 59.3891033,21.6456272 C59.359466,21.6015718 59.3330327,21.5535113 59.3041965,21.5070529 Z" id="Path" fill="#808285"></path>
                    </g>
                    <g id="shaft_2" transform="translate(33.005038, 86.289673)">
                        <path d="M1.70053904,5.47889169 C1.70053904,5.47889169 2.04096725,3.52923929 6.56665995,2.83236272 C6.56665995,2.83236272 6.64115365,6.60831234 6.678,8.14224181 C6.678,8.14224181 2.60167254,7.9820403 1.70053904,5.47889169 Z" id="Path" fill="#6D6E71"></path>
                        <path d="M145.626378,178.140076 C145.618368,178.153693 145.613562,178.161703 145.607955,178.171315 C145.596741,178.188136 145.587929,178.208962 145.576715,178.224181 L145.66002,178.10403 L145.905128,177.74598 C145.885103,177.775617 145.868282,177.796443 145.847456,177.829285 C145.780171,177.918997 145.703275,178.028736 145.626378,178.140076 Z" id="Path" fill="#808285"></path>
                        <g id="Group" fill="#808285">
                            <path d="M113.827179,3.87207053 C114.198045,11.345471 114.571315,19.1641058 114.931768,27.2262469 C115.299431,35.7505693 115.671899,44.5520403 115.920212,53.4776675 C115.93463,53.9815013 115.951451,54.48133 115.965869,54.9867657 C116.028348,57.347335 116.074005,59.7175164 116.082816,62.0812897 C116.098035,63.2643778 116.076408,64.444262 116.048373,65.6001159 L116.015531,66.4523879 L115.99871,66.8689118 L115.957058,67.1909169 L115.92662,67.5137229 L115.8313,67.9654912 L115.643864,68.8433955 C115.55335,69.2503073 115.473249,69.6644282 115.38594,70.0737431 C115.384338,70.0737431 115.382736,70.0737431 115.381134,70.0729421 C115.379531,70.0833552 115.377929,70.0937683 115.374725,70.1049824 C115.310645,70.4069622 115.246564,70.7105441 115.184086,71.0133249 C115.120005,71.3209118 115.062332,71.6301008 114.999053,71.9376877 C114.959804,72.1275264 114.916549,72.3173652 114.882106,72.506403 C114.862882,72.609733 114.83805,72.712262 114.818025,72.8155919 C114.617773,73.8496927 114.420725,74.8861965 114.232489,75.9251033 C114.047456,76.9183526 113.873637,77.908398 113.695814,78.8984433 C113.649355,79.1451537 113.609305,79.3886599 113.562045,79.6353703 C113.562045,79.6361713 113.562045,79.6361713 113.562045,79.6369723 C113.563647,79.6377733 113.565249,79.6377733 113.566851,79.6385743 C121.73873,82.462927 133.717798,83.7589572 151.063617,80.5204836 C150.99473,79.502403 150.917834,78.4867254 150.846544,77.4678438 C150.780861,76.5194509 150.718383,75.5686549 150.6527,74.6170579 C150.616655,73.7279395 150.538957,72.8684584 150.626267,71.863194 L150.643088,71.5123526 L150.659909,71.4242418 L150.680736,71.2432141 L150.780861,70.5215063 L150.87538,69.8438539 C150.876982,69.8438539 150.878584,69.8438539 150.880186,69.8430529 L150.99473,69.0796927 L151.396836,66.1856524 C151.656363,64.2536222 151.915088,62.3167859 152.181023,60.3783476 L152.707285,55.9119295 L152.867486,54.5486146 C154.753058,37.0345844 156.639431,19.5205542 158.376015,3.39146599 C139.313637,6.61071537 123.965531,5.55578841 113.827179,3.87207053 Z" id="Path"></path>
                            <path d="M1.65167758,5.48690176 L2.24041814,28.1417985 L2.5968665,42.616806 L2.75386398,49.8499043 L2.84918388,57.0717884 L2.84437783,60.6603023 L2.8411738,61.5550277 L2.80192443,62.3936826 L2.72823174,64.0677884 C2.50875567,65.9926096 2.26605038,67.8901965 2.01052897,69.7781713 C1.94724937,70.2555718 1.88557179,70.7337733 1.81908816,71.2087708 C1.81348111,71.2448161 1.80707305,71.2816625 1.802267,71.3185088 C1.67250378,72.2012191 1.52752141,73.0823275 1.37933501,73.9618338 C1.27039798,74.6042418 1.15905793,75.2466499 1.04291184,75.8882569 C0.972423174,76.2775466 0.901133501,76.6676373 0.827440806,77.056927 C0.827440806,77.060131 0.826639798,77.062534 0.825838791,77.065738 C0.587138539,78.3273249 0.338025189,79.5857078 0.0736926952,80.8432897 C4.50326448,83.6115718 23.1643375,87.4836423 59.3883023,69.7076826 C59.358665,69.6620252 59.3330327,69.6147657 59.3049975,69.5691083 C59.0334559,69.1389673 58.7699244,68.7040202 58.516005,68.264267 C58.4575315,68.1641411 58.3958539,68.0648161 58.3389824,67.9638892 C58.2644887,67.8325239 58.194,67.7003577 58.1203073,67.5689924 C57.9128463,67.198927 57.7109924,66.8272594 57.5139446,66.4539899 C57.4066096,66.250534 57.2992746,66.0462771 57.1959446,65.8420202 C56.9091839,65.2813149 56.6352393,64.7182065 56.3757128,64.1542972 C56.3572897,64.1142469 56.3404685,64.0741965 56.3220453,64.0341461 C56.0921562,63.5319144 55.8750831,63.0288816 55.6692242,62.5266499 C55.6692242,62.5266499 55.6692242,62.5258489 55.6684232,62.5250479 C55.645995,62.4697783 55.6235668,62.4153098 55.6011385,62.3600403 C55.3528262,61.7472695 55.122937,61.1361008 54.9146751,60.528136 C54.909869,60.5145189 54.905864,60.5009018 54.9010579,60.4872846 C54.7841108,60.1444534 54.6719698,59.8032242 54.5686398,59.463597 C54.4581008,59.1031436 54.3555718,58.7442922 54.2626549,58.3878438 C54.1433048,57.9937481 54.0944433,57.6020554 54.0055315,57.2095617 L53.9750932,57.0629773 L53.9614761,56.9964937 L53.9270327,56.6720856 L53.8549421,55.9880252 C53.7892594,55.5106247 53.8052796,55.1293451 53.7908615,54.7152242 C53.7860554,54.2978992 53.7580202,53.9190227 53.7684332,53.4688564 C53.7748413,52.6069723 53.7980705,51.7378791 53.8317128,50.8655819 C53.8637531,50.0052997 53.9078086,49.1418136 53.95667,48.2767254 C53.9598741,48.2118438 53.9622771,48.1477632 53.9662821,48.0828816 C54.4228564,40.8337632 55.2478942,33.5485995 56.069728,26.2746499 C56.8971688,18.9966952 57.8335466,11.7251486 58.7747305,4.45360202 C58.9437431,3.11912343 59.1215668,1.78624685 59.2937834,0.45256927 C23.1955768,9.30850882 7.98764736,8.30805038 1.65167758,5.48690176 Z" id="Path"></path>
                        </g>
                    </g>
                    <g id="shaft_3" transform="translate(33.005038, 15.801008)" fill="#808285">
                        <path d="M166.140181,0.449365239 L166.140181,0.446161209 L166.140181,0.449365239 C166.140181,0.449365239 152.29797,5.30667506 135.877315,5.30667506 C119.45666,5.30667506 109.930277,0.449365239 109.930277,0.449365239 C109.930277,0.449365239 109.933481,0.508639798 109.941491,0.612770781 C109.933481,0.510241814 109.927073,0.446161209 109.927073,0.446161209 C109.927073,0.446161209 110.68803,14.6808665 111.882332,37.0169622 C111.97605,38.7503426 112.07137,40.5333854 112.168292,42.3596826 C112.274826,44.3493854 112.385365,46.3871486 112.4927,48.4817834 C113.252856,62.8887053 114.121149,79.7026549 114.926962,97.7149118 C115.294625,106.239234 115.671098,115.040705 115.911401,123.966332 C115.928222,124.470166 115.944242,124.969995 115.961063,125.475431 C116.023542,127.836 116.073204,130.206181 116.07801,132.569955 C116.094831,133.753043 116.071602,134.932927 116.043567,136.088781 L116.010725,136.941053 L115.993904,137.357577 L115.949048,137.679582 L115.921814,138.002388 L115.826494,138.454156 L115.643063,139.33206 C115.550947,139.738972 115.472448,140.153093 115.385139,140.562408 C115.383537,140.562408 115.381935,140.562408 115.380332,140.561607 C115.377128,140.57202 115.375526,140.582433 115.373924,140.593647 C115.309844,140.895627 115.244161,141.199209 115.183285,141.50199 C115.119204,141.807975 115.058327,142.11396 114.995849,142.419945 C114.995048,142.421547 114.995048,142.42395 114.994247,142.426353 C114.954997,142.616191 114.915748,142.80603 114.8773,142.995068 C114.8773,142.995068 114.8773,142.995068 114.8773,142.995869 C114.860479,143.098398 114.834045,143.201728 114.814821,143.304257 C114.612967,144.338358 114.417521,145.374861 114.230086,146.413768 C114.046655,147.407018 113.870433,148.397063 113.693411,149.387108 C113.646151,149.633819 113.607703,149.877325 113.559642,150.124035 C113.559642,150.124836 113.559642,150.124836 113.559642,150.125637 C113.561244,150.126438 113.562846,150.126438 113.564448,150.127239 C121.736327,152.951592 133.715395,154.247622 151.061214,151.009149 C150.992327,149.991068 150.91463,148.97539 150.844141,147.956509 C150.778458,147.008116 150.715179,146.05732 150.649496,145.105723 C150.61265,144.216605 150.536554,143.357123 150.623063,142.351859 L150.639884,142.001018 L150.654302,141.912907 L150.677531,141.731879 L150.777657,141.010171 L150.872176,140.332519 C150.873778,140.332519 150.87538,140.332519 150.876982,140.331718 L150.989123,139.568358 L151.391229,136.674317 C151.652358,134.742287 151.911884,132.805451 152.175416,130.867013 L152.700877,126.400594 L152.859476,125.03728 C156.214096,93.8933048 159.566312,62.74933 162.082277,39.3911486 C164.314685,17.9818186 165.86864,3.11992443 166.10734,0.778579345 C166.132171,0.564710327 166.146589,0.448564232 166.146589,0.448564232 L166.140181,0.449365239 L166.140181,0.449365239 Z" id="Path"></path>
                        <path d="M145.626378,248.628741 C145.618368,248.642358 145.613562,248.650368 145.607955,248.65998 C145.596741,248.676801 145.587929,248.697627 145.576715,248.712846 L145.66002,248.592695 L145.905128,248.234645 C145.885103,248.264282 145.868282,248.285108 145.847456,248.31795 C145.780171,248.407662 145.703275,248.517401 145.626378,248.628741 Z" id="Path"></path>
                        <path d="M5.21295718,2.89644332 C4.88770773,5.40081994 4.5927438,8.24775595 4.32792114,11.2266962 C3.1520526,24.4538201 2.57043325,40.283471 2.57043325,40.283471 L2.24041814,97.4241461 L2.5968665,111.899154 L2.75386398,119.132252 L2.84918388,126.354136 L2.84437783,129.94265 L2.8411738,130.837375 L2.80192443,131.67603 L2.72823174,133.350136 C2.50875567,135.274957 2.26605038,137.172544 2.01052897,139.060519 C1.94724937,139.537919 1.88557179,140.016121 1.81908816,140.491118 C1.81348111,140.527164 1.80707305,140.56401 1.802267,140.600856 C1.67250378,141.483567 1.52752141,142.364675 1.37933501,143.244181 C1.34969773,143.416398 1.31845844,143.588615 1.28882116,143.761632 C1.17908312,144.395229 0.512644836,149.226106 0.24911335,150.478081 C0.24911335,150.478081 23.1651385,157.970705 59.3883023,140.196348 C59.360267,140.152292 59.3346348,140.106635 59.3074005,140.062579 C59.3065995,140.060977 59.3057985,140.059375 59.3049975,140.057773 C59.2985894,140.04736 59.2929824,140.037748 59.2865743,140.027335 C58.9597632,139.508282 58.6393602,138.986025 58.3381814,138.452554 C58.2364534,138.273929 58.1411335,138.093703 58.0410076,137.914277 C57.8615819,137.591471 57.6845592,137.267864 57.5131436,136.943456 C57.5043325,136.926635 57.4955214,136.909013 57.4867103,136.892191 C57.3569471,136.64468 57.2311889,136.397169 57.1062317,136.148856 C56.9163929,135.773985 56.7361662,135.398312 56.5583426,135.021839 C56.4694307,134.832801 56.3765139,134.644564 56.290806,134.454725 C56.073733,133.976524 55.865471,133.497521 55.6692242,133.01932 C55.650801,132.973662 55.6315768,132.928005 55.6131537,132.883149 C55.3584332,132.254358 55.121335,131.627169 54.908267,131.003184 C54.9002569,130.980756 54.8938489,130.958327 54.8858388,130.9367 C54.7744987,130.609889 54.6671637,130.283078 54.5686398,129.957869 C54.4589018,129.595814 54.3547708,129.23536 54.2610529,128.87731 C54.1417028,128.483214 54.0928413,128.091521 54.0039295,127.699028 L53.9734912,127.552443 L53.9598741,127.48596 L53.9254307,127.161552 L53.8533401,126.477491 C53.7876574,126.000091 53.8036776,125.618811 53.7892594,125.20469 C53.7844534,124.787365 53.7564181,124.408489 53.7668312,123.958322 C53.7732393,123.096438 53.7964685,122.227345 53.8301108,121.355048 C53.8621511,120.494766 53.9062065,119.63128 53.955068,118.766191 C53.958272,118.70131 53.9606751,118.637229 53.9646801,118.572348 C54.4212544,111.323229 55.2462922,104.038065 56.0681259,96.7641159 C56.8955668,89.4861612 57.8319446,82.2146146 58.7731285,74.943068 C59.6958892,67.6667154 60.6635063,60.3951688 61.6607607,53.1268262 C61.6607607,53.1268262 64.8648283,30.4892656 66.8899409,14.5358081 C67.6760008,8.34337527 68.2844332,3.15800422 68.4589118,0.694473552 C68.4589118,0.694473552 51.5752746,6.30873552 32.3470882,6.30873552 C18.3262519,6.30793451 5.21295718,2.89644332 5.21295718,2.89644332 Z" id="Path"></path>
                    </g>
                    <g id="shaft_4" transform="translate(28.000000, 0.000000)">
                        <path d="M10.217995,18.6974509 C8.44856927,32.3217884 7.57547103,56.0844786 7.57547103,56.0844786 L7.24545592,113.225154 L7.60190428,127.700161 L7.75890176,134.933259 L7.85422166,142.155144 L7.84941562,145.743657 L7.84621159,146.638383 L7.80696222,147.477038 L7.73326952,149.151144 C7.51379345,151.075965 7.27108816,152.973552 7.01556675,154.861526 C6.95228715,155.338927 6.89060957,155.817128 6.82412594,156.292126 C6.81851889,156.328171 6.81211083,156.365018 6.80730479,156.401864 C6.67754156,157.284574 6.53255919,158.165683 6.3843728,159.045189 C6.35473552,159.217406 6.32349622,159.389622 6.29385894,159.56264 C6.18412091,160.196237 5.51768262,165.027113 5.25415113,166.279088 C5.25415113,166.279088 28.1701763,173.771713 64.3933401,155.997355 C64.3653048,155.9533 64.3396725,155.907642 64.3124383,155.863587 C64.3116373,155.861985 64.3108363,155.860383 64.3100353,155.858781 C64.3036272,155.848368 64.2980202,155.838756 64.2916121,155.828343 C63.964801,155.30929 63.644398,154.787033 63.3432191,154.253562 C63.2414912,154.074937 63.1461713,153.89471 63.0460453,153.715285 C62.8666196,153.392479 62.689597,153.068872 62.5181814,152.744463 C62.5093703,152.727642 62.5005592,152.71002 62.4917481,152.693199 C62.3619849,152.445688 62.2362267,152.198176 62.1112695,151.949864 C61.9214307,151.574992 61.741204,151.19932 61.5633804,150.822846 C61.4744685,150.633809 61.3815516,150.445572 61.2958438,150.255733 C61.0787708,149.777531 60.8705088,149.298529 60.674262,148.820327 C60.6558388,148.77467 60.6366146,148.729013 60.6181914,148.684156 C60.363471,148.055365 60.1263728,147.428176 59.9133048,146.804191 C59.9052947,146.781763 59.8988866,146.759335 59.8908766,146.737708 C59.7795365,146.410897 59.6722015,146.084086 59.5736776,145.758877 C59.4639395,145.396821 59.3598086,145.036368 59.2660907,144.678317 C59.1467406,144.284222 59.0978791,143.892529 59.0089673,143.500035 L58.978529,143.353451 L58.9649118,143.286967 L58.9304685,142.962559 L58.8583778,142.278499 C58.7926952,141.801098 58.8087154,141.419819 58.7942972,141.005698 C58.7894912,140.588373 58.7614559,140.209496 58.771869,139.75933 C58.7782771,138.897446 58.8015063,138.028353 58.8351486,137.156055 C58.8671889,136.295773 58.9112443,135.432287 58.9601058,134.567199 C58.9633098,134.502317 58.9657128,134.438237 58.9697179,134.373355 C59.4262922,127.124237 60.25133,119.839073 61.0731637,112.565123 C61.9006045,105.287169 62.8369824,98.0156222 63.7781662,90.7440756 C64.700927,83.4677229 65.6685441,76.1961763 66.6657985,68.9278338 C66.6657985,68.9278338 72.8399647,25.3057632 73.4639496,16.4954811 C73.4639496,16.4954811 56.5803123,22.1097431 37.3521259,22.1097431 C23.3312897,22.1089421 10.217995,18.6974509 10.217995,18.6974509 Z" id="Path" fill="#808285"></path>
                        <path d="M171.145219,16.2503728 L171.145219,16.2471688 L171.145219,16.2503728 C171.145219,16.2503728 157.303008,21.1076826 140.882353,21.1076826 C124.461698,21.1076826 114.935315,16.2503728 114.935315,16.2503728 C114.935315,16.2503728 114.938519,16.3096474 114.946529,16.4137783 C114.938519,16.3112494 114.932111,16.2471688 114.932111,16.2471688 C114.932111,16.2471688 115.693068,30.4818741 116.88737,52.8179698 C116.981088,54.5513501 117.076408,56.3343929 117.17333,58.1606902 C117.279864,60.1503929 117.390403,62.1881562 117.497738,64.2827909 C118.257894,78.6897128 119.126186,95.5036625 119.932,113.515919 C120.299662,122.040242 120.676136,130.841713 120.916438,139.76734 C120.933259,140.271174 120.94928,140.771003 120.966101,141.276438 C121.028579,143.637008 121.078242,146.007189 121.083048,148.370962 C121.099869,149.55405 121.07664,150.733935 121.048605,151.889788 L121.015763,152.74206 L120.998942,153.158584 L120.954086,153.480589 L120.926851,153.803395 L120.831531,154.255164 L120.648101,155.133068 C120.555985,155.53998 120.477486,155.954101 120.390176,156.363416 C120.388574,156.363416 120.386972,156.363416 120.38537,156.362615 C120.382166,156.373028 120.380564,156.383441 120.378962,156.394655 C120.314882,156.696635 120.249199,157.000217 120.188322,157.302997 C120.124242,157.608982 120.063365,157.914967 120.000887,158.220952 C120.000086,158.222554 120.000086,158.224957 119.999285,158.22736 C119.960035,158.417199 119.920786,158.607038 119.882338,158.796076 C119.882338,158.796076 119.882338,158.796076 119.882338,158.796877 C119.865516,158.899406 119.839083,159.002736 119.819859,159.105264 C119.618005,160.139365 119.422559,161.175869 119.235123,162.214776 C119.051693,163.208025 118.875471,164.198071 118.698448,165.188116 C118.651189,165.434826 118.612741,165.678332 118.56468,165.925043 C118.56468,165.925844 118.56468,165.925844 118.56468,165.926645 C118.566282,165.927446 118.567884,165.927446 118.569486,165.928247 C126.741365,168.752599 138.720433,170.04863 156.066252,166.810156 C155.997365,165.792076 155.919668,164.776398 155.849179,163.757516 C155.783496,162.809123 155.720217,161.858327 155.654534,160.90673 C155.617688,160.017612 155.541592,159.158131 155.628101,158.152866 L155.644922,157.802025 L155.65934,157.713914 L155.682569,157.532887 L155.782695,156.811179 L155.877214,156.133526 C155.878816,156.133526 155.880418,156.133526 155.88202,156.132725 L155.994161,155.369365 L156.396267,152.475325 C156.657395,150.543295 156.916922,148.606458 157.180453,146.66802 L157.705914,142.201602 L157.864514,140.838287 C161.219134,109.694312 164.57135,78.5503375 167.087315,55.1921562 C169.319723,33.7828262 170.873678,18.920932 171.112378,16.5795869 C171.137209,16.3657179 171.151627,16.2495718 171.151627,16.2495718 L171.145219,16.2503728 L171.145219,16.2503728 Z" id="Path" fill="#808285"></path>
                        <path d="M8.29271537,45.4339496 L8.45692191,49.0913501 C15.5258136,53.6194458 34.2517683,59.0943325 68.9241814,44.8227809 C69.2998539,42.1169773 69.5617834,40.3619698 69.5914207,40.1505038 C37.1658338,54.8738237 18.222005,48.1966247 8.29271537,45.4339496 Z" id="Path" fill="#6D6E71"></path>
                        <path d="M117.488126,45.1463879 L117.629904,51.0313904 C124.146902,56.3508816 142.015778,57.5732191 166.027582,47.1024484 C166.403254,44.3966448 166.665985,42.6416373 166.69402,42.4301713 C134.268433,57.1526902 118.336393,45.8344534 117.488126,45.1463879 Z" id="Path" fill="#6D6E71"></path>
                        <path d="M72.4639496,1.4946801 C72.4639496,1.4946801 55.5803123,7.10894207 36.3521259,7.10894207 C22.3320907,7.10894207 9.21799496,3.69745088 9.21799496,3.69745088 L0.506236776,43.4867003 C0.506236776,43.4867003 3.81359698,45.5364786 10.7599345,47.5189723 C23.8876474,51.2668866 35.0496877,55.6708262 67.4752746,40.9475063 C70.2243325,39.6987355 76.0564685,36.7462217 76.0564685,36.7462217 L72.4639496,1.4946801 Z" id="Path" fill="#808285"></path>
                        <path d="M170.324645,0.500629723 C170.324645,0.500629723 159.109738,6.10768262 139.881552,6.10768262 C125.860715,6.10768262 113.945728,1.41377834 113.945728,1.41377834 L109.443264,46.424796 C109.443264,46.424796 121.858882,51.6649874 138.929955,50.6957683 C150.561385,50.035738 174.591612,40.1497028 174.591612,40.1497028 L170.324645,0.500629723 Z" id="Path" fill="#808285"></path>
                    </g>
                </g>
                <g id="touches_shoes" transform="translate(27.000000, 0.000000)" fill="#D8D8D8" stroke="#4A4A4A">
                    <g id="touch_toes" transform="translate(0.000000, 254.000000)">
                        <path d="M36.4940696,0.469511086 C36.4940696,0.469511086 46.8806324,10.8659726 67.6537581,31.6588955 L42.2871677,55.1277898 C25.8786292,60.1578937 14.2949546,59.3532084 7.53614382,52.7137339 C0.777333069,46.0742595 -1.12750544,34.8347821 1.8216283,18.9953018 C7.37956881,10.7860512 11.5838192,6.01194123 14.4343795,4.67297176 C25.9585472,-0.740177621 36.4940696,0.469511086 36.4940696,0.469511086 Z" id="touch_toes_left"></path>
                        <path d="M137.397731,5.51333384 L227.610384,5.51333384 L227.610384,39.56152 C222.650541,54.3344328 208.173472,61.7208891 184.179179,61.7208891 C160.184885,61.7208891 144.591069,54.3344328 137.397731,39.56152 L137.397731,5.51333384 Z" id="touch_toes_right"></path>
                    </g>
                    <g id="touch_covers" transform="translate(12.000000, 156.000000)">
                        <path d="M41.9754559,6.81662217 C43.8501923,6.70277501 74.4102536,3.87819208 75.1780781,7.71815617 C76.3954778,13.8064889 79.8361184,32.421771 85.5,63.5640025 L87.752051,97.7762104 L55.3974437,128.041459 L21.8662561,95.9343516 C5.99535822,92.5722062 -1.23601541,81.5666492 0.17213518,62.9176805 C2.28436106,34.9442275 28.9809744,7.6057383 41.9754559,6.81662217 Z" id="touch_cover_left"></path>
                        <polygon id="touch_cover_right" points="132 0.0298454062 216 0.0298454062 215.710953 103.029845 124.895247 103.029845"></polygon>
                    </g>
                    <path d="M2.84720567,165.360222 C44.2824019,161.493491 72.3333333,160.345113 87,161.915088 C94.6587536,159.144645 109.136441,155.212257 120.429045,152.546085 C130.397985,152.291783 144.5,155.154816 144.5,155.154816 C173.181328,155.154816 206.912885,155.099013 245.694672,154.987406 L245.694672,0.0513534741 L2.84720567,0.0513534741 L2.84720567,165.360222 Z" id="touch_shafts"></path>
                    <path d="M87,162.816622 C94.3333333,200.816154 98,219.471753 98,218.783421 C104.082457,218.783421 118.249123,209.793446 140.5,191.813496 C142.50067,172.660605 143.167337,160.460191 142.5,155.212257 C138.50084,154.110338 130.862301,153.576949 119.584383,153.612091 L87,162.816622 Z" id="touch_counters"></path>
                    <path d="M136.396725,280.46068 L140.5,191.828715 C132.42615,199.162868 125.891725,204.396578 120.896725,207.529845 C115.901726,210.663113 108.102817,214.674499 97.5,219.564003 C101.081708,248.521334 100.405175,268.820227 95.470403,280.46068 C90.5356306,292.101134 104.177738,292.101134 136.396725,280.46068 Z" id="touch_bottoms"></path>
                </g>
            </g>
        </g>
    </g>
</svg>