<?xml version="1.0" encoding="UTF-8"?>
<svg width="264px" height="306px" viewBox="0 0 264 306" version="1.1" xmlns="http://www.w3.org/2000/svg" xmlns:xlink="http://www.w3.org/1999/xlink">
    <!-- Generator: Sketch 51.1 (57501) - http://www.bohemiancoding.com/sketch -->
    <title>shoes_parts_filters</title>
    <desc>Created with Sketch.</desc>
    <defs></defs>
    <g id="BodyParts-VisualFilter-Final-Distribution" stroke="none" stroke-width="1" fill="none" fill-rule="evenodd">
        <g id="shoes_parts_filters">
            <g id="full_bare_foot" transform="translate(19.000000, 44.000000)" stroke="#4A4A4A">
                <path d="M149.181281,0 C154.897544,39.5828089 157.755675,68.9872298 157.755675,88.2132626 C157.755675,107.439295 154.897544,119.85956 149.181281,125.474056 C146,126.037804 145.20468,132.330519 146.79532,144.352202 C148.385961,156.373885 150.63466,172.635961 153.541419,193.138431 C151.860168,203.471748 151.019543,210.35998 151.019543,213.803128 C151.019543,217.246275 154.171063,222.491507 160.474103,229.538823 C167.142077,233.037387 174.212127,234.78667 181.684254,234.78667 C193.609256,234.347902 199.000566,234.347902 203.43485,229.538823 C207.869133,224.729744 215.55221,207.994022 215.048419,203.153083 C214.544628,198.312145 210.451261,188.833458 208.447318,184.373939 C206.876485,180.878249 203.888624,173.165692 203.43485,164.798383 C203.43485,152.296463 205.10441,145.081574 205.10441,139.281714 C205.10441,135.415141 203.910236,130.812589 201.521887,125.474056 C200.646667,119.671014 201.840841,107.25075 205.10441,88.2132626 C208.367979,69.1757756 214.343751,39.7713548 223.031726,0" id="right_foot"></path>
                <path d="M107.771397,8 C100.375854,54.1756528 97.0064586,87.3782222 97.6632091,107.607708 C98.0556058,119.694465 98.7588448,130.138662 101.362329,136.743073 C105.294984,146.719269 109.630335,149.014824 112.951986,152.648988 C116.273636,156.283152 115.418985,161.403872 115.418985,163.561692 C115.418985,164.126167 112.532496,169.337288 104.075017,175.275572 C97.6053253,179.818162 87.057525,183.791691 76.9399174,192.383316 C53.596107,212.20631 47.8511346,222.359888 41.6804546,225.173959 C37.566668,227.050006 31.1530334,227.050006 22.439551,225.173959 C15.3051344,223.1245 10.5281655,221.545552 8.10864436,220.437115 C4.47936266,218.77446 1.74952063,217.84552 0.283561211,215.023806 C-0.693745068,213.142663 0.855195703,211.504378 4.93038352,210.108951 L24.9111111,199.58838 L41.6804546,131.920516 C43.8091294,110.44971 44.464924,89.4496697 43.6478384,68.9203945 C42.8307528,48.3911193 41.1044969,28.0843211 38.4690705,8" id="left_foot"></path>
            </g>
            <g id="bottoms" transform="translate(18.000000, 202.000000)" fill="#4A4A4A" stroke="#4A4A4A">
                <path d="M85,29.692477 C78.5761087,34.5163174 73.6904558,38.8113442 70.3430414,42.5775573 C76.2344907,40.7965474 81.1201436,39.3738963 85,38.3096039 L114.729756,22.3669849 L116.294311,6.87844904 C111.62488,12.2963727 106.884271,16.7189899 102.072484,20.1463007 C96.7561882,21.8950809 91.0653603,25.0771396 85,29.692477 Z" id="bottoms_0"></path>
                <path d="M0.614954217,57.0408835 C1.67196209,57.0408835 11.9979737,63.8726048 19.287641,65.8236111 C26.5773083,67.7746175 37.8864306,69.323535 41.8126855,67.3725286 C50.4298191,63.0905645 62.0154777,46.9491583 76.386536,36.2750027 C81.5544714,29.8763138 96.526657,23.4302063 106.593529,16.8787022 C109.024277,15.2967753 111.827057,12.5293013 113.669729,7.73067781 C115.5124,2.93205429 115.751876,-1.28619291 116.639992,0.570221654 C117.733856,4.41278715 117.187536,27.6648057 116.639992,30.6190438 C116.312596,32.3854857 104.057861,34.5901244 93.4329608,40.7650412 C82.8080607,46.9399579 54.7387706,70.1100515 46.6030383,73.3736237 C29.5912594,80.1977382 3.35203179,66.7363926 2.14333249,64.9968166 C0.934633184,63.2572406 -0.442053658,57.0408835 0.614954217,57.0408835 Z" id="bottoms_1"></path>
                <path d="M50.4839522,60.2733571 L42,68.8402831 C84.4700278,68.8402831 109.25007,68.8402831 116.340128,68.8402831 C116.340128,63.0424224 111.819743,63.0424224 111.819743,44.5741807 C111.819743,26.105939 116.340128,15.3586963 116.340128,6.87844904 C116.340128,5.39871642 111.313786,16.8197549 94.1680703,24.2068661 C88.8147542,25.2720412 76.1869352,35.631495 71.5301773,39.9060425 C67.3108817,43.779033 60.2954733,50.5681379 50.4839522,60.2733571 Z" id="bottoms_2"></path>
                <path d="M85,29.692477 L86.2502841,50 L114.178306,50 L116.294311,6.87844904 C111.62488,12.2963727 106.884271,16.7189899 102.072484,20.1463007 C96.7561882,21.8950809 91.0653603,25.0771396 85,29.692477 Z" id="bottoms_3"></path>
                <path d="M85,29.692477 L88.5025547,69.7103056 L111.104416,69.7103056 L116.294311,6.87844904 C111.62488,12.2963727 106.884271,16.7189899 102.072484,20.1463007 C96.7561882,21.8950809 91.0653603,25.0771396 85,29.692477 Z" id="bottoms_4"></path>
                <path d="M103,25.0360011 C102.384623,24.3251072 101.387065,23.8285505 100.007325,23.5463311 C98.2413005,23.1850988 94.4368213,24.4581505 88.5938877,27.3654863 L103,19.9059662 L103,19.0477957 C105.215094,17.9639758 107.430813,16.4601367 109.647155,14.5362785 C111.863498,12.6124203 114.079217,10.0598105 116.294311,6.87844904 L116.294311,45.26845 L103,45.26845 L103,25.0360011 Z" id="bottoms_5"></path>
                <path d="M103,25.1135431 C102.529179,24.2499258 101.677398,23.5426871 100.423067,23.1313942 C98.0269547,22.3457132 94.083895,23.7570773 88.5938877,27.3654863 L103,19.9059662 L103,19.0477957 C105.215094,17.9639758 107.430813,16.4601367 109.647155,14.5362785 C111.863498,12.6124203 114.079217,10.0598105 116.294311,6.87844904 L116.294311,68.8402831 L103,68.8402831 L103,25.1135431 Z" id="bottoms_6"></path>
            </g>
            <g id="counters" transform="translate(19.000000, 52.000000)" stroke="#4A4A4A">
                <path d="M107.771397,0 C100.375854,46.1756528 97.0064586,79.3782222 97.6632091,99.6077084 C98.0556058,111.694465 98.7588448,122.138662 101.362329,128.743073 C105.294984,138.719269 109.630335,141.014824 112.951986,144.648988 C116.273636,148.283152 115.418985,153.403872 115.418985,155.561692 C115.418985,156.126167 112.532496,161.337288 104.075017,167.275572 C97.6053253,171.818162 87.057525,175.791691 76.9399174,184.383316 C53.596107,204.20631 47.8511346,214.359888 41.6804546,217.173959 C37.566668,219.050006 31.1530334,219.050006 22.439551,217.173959 C15.3051344,215.1245 10.5281655,213.545552 8.10864436,212.437115 C4.47936266,210.77446 1.74952063,209.84552 0.283561211,207.023806 C-0.693745068,205.142663 0.855195703,203.504378 4.93038352,202.108951 L24.9111111,191.58838 L41.6804546,123.920516 C43.8091294,102.44971 44.464924,81.4496697 43.6478384,60.9203945 C42.8307528,40.3911193 41.1044969,20.0843211 38.4690705,0" id="counter_0"></path>
                <g id="counter_1" transform="translate(86.000000, 111.000000)" fill="#4A4A4A">
                    <g id="left_counter_1" transform="translate(0.000000, 16.000000)">
                        <path d="M14.1752455,0.847939063 C17.8200445,8.33767322 21.2363078,13.4664308 24.4240354,16.2342118 C27.0653499,18.5275634 28.8635717,20.0460166 29.7171871,23.2470744 C30.2346625,25.1876072 29.9355213,27.1747099 29.7171871,27.9486441 C29.2294069,29.6776901 28.9680052,30.8489355 20.2457896,38.4450284 C14.0747384,43.0084078 7.48792268,46.8679161 0.485342439,50.0235535 C3.14777321,42.7485694 4.47898859,35.0436256 4.47898859,26.9087223 C4.47898859,18.7738189 7.71107421,10.0868912 14.1752455,0.847939063 Z" id="left-heel-1"></path>
                    </g>
                    <g id="right_counter_1" transform="translate(60.000000, 0.000000)">
                        <path d="M7.09115283,0.6447383 C8.01370509,-0.34131196 9.67638279,3.45994959 8.60696187,9.50429185 C8.20504447,11.7759196 6.77000735,18.9777629 5.6987031,24.3727447 C5.21703424,26.7983812 3.07254397,43.8050184 3.05952513,43.7144968 C2.76844887,41.6906072 -0.575554959,16.8212595 0.238783545,10.7615065 C0.65850253,8.66757075 1.59874972,7.35295599 3.05952513,6.81766224 C3.9382707,5.90141951 4.81799669,4.79837385 5.6987031,3.50852525 C6.49207562,2.25370137 6.16860057,1.63078856 7.09115283,0.6447383 Z M54.7804434,2.14910486 L55.4118245,6.81766224 C57.2958528,10.4910001 58.3605867,14.4851519 58.6060264,18.8001177 C58.8514661,23.1150835 58.2822602,30.9991496 56.8984087,42.452316 C56.2476371,32.2337473 55.5416486,25.5165455 54.7804434,22.3007105 C53.8924039,18.5490434 51.203763,12.0883415 51.203763,10.3363083 C51.203763,6.33157659 52.3959898,3.60250878 54.7804434,2.14910486 Z" id="right-counter-1"></path>
                    </g>
                </g>
                <g id="counter_2" transform="translate(40.000000, 111.000000)" fill="#4A4A4A">
                    <g id="left_counter_2" transform="translate(0.000000, 16.000000)">
                        <path d="M60.7713995,2.05599934 C60.7877167,2.0404714 60.8040454,2.02493387 60.8203857,2.00938676 C61.5259418,3.48327492 62.2308481,4.86208293 62.9351046,6.14581081 C65.5217584,10.7496057 67.9855322,14.0839314 70.3264249,16.1487855 C70.3589411,16.1774885 70.391489,16.205953 70.4240354,16.2342118 C73.0653499,18.5275634 74.8635717,20.0460166 75.7171871,23.2470744 C76.2346625,25.1876072 75.9355213,27.1747099 75.7171871,27.9486441 C75.2294069,29.6776901 74.9680052,30.8489355 66.2457896,38.4450284 C60.726077,42.5267548 54.8737339,46.0453525 48.6887602,49.0008214 C46.9066815,50.0291872 45.0627756,51.0633791 43.1570425,52.1033971 C39.9584345,54.5742882 37.7108947,56.340381 36.4144231,57.4016755 C32.3021119,60.7680226 29.483105,63.682667 27.6667585,65.2848278 C19.3080039,72.6579085 7.37813484,85.972838 6.82672226,86.5304461 C4.93123326,84.6626909 1.97604727,81.9509491 0.749524298,80.2007187 C5.25679441,75.3951734 41.7073697,21.9981522 45.6445534,17.3503162 C47.8148621,14.788272 51.649131,10.8485497 57.1473602,5.53114928 C58.0624691,3.98616574 59.0717642,2.42509567 60.1752455,0.847939063 C60.3746475,1.25769231 60.5733655,1.66037907 60.7713995,2.05599934 Z"></path>
                    </g>
                    <g id="right_counter_2" transform="translate(105.000000, 0.000000)">
                        <path d="M8.09115283,0.6447383 C9.01370509,-0.34131196 10.6763828,3.45994959 9.60696187,9.50429185 C9.20504447,11.7759196 7.77000735,18.9777629 6.6987031,24.3727447 C6.33676176,26.1954453 9.4959859,58.1013664 9.60696187,73.7526586 C8.56581889,78.5206362 8.09115283,81.4537456 7.13406988,82.8295936 C7.13406988,80.6908472 8.09115283,78.2185068 8.09115283,73.7526586 C7.46926973,67.1534738 5.25810925,54.588881 4.05952513,44.9012399 C3.43099243,38.6350017 1.87514694,29.6369523 1.23878355,22.2280919 C0.772320673,16.7972982 1.06771188,12.0345054 1.23878355,10.7615065 C1.65850253,8.66757075 2.59874972,7.35295599 4.05952513,6.81766224 C4.9382707,5.90141951 5.81799669,4.79837385 6.6987031,3.50852525 C7.49207562,2.25370137 7.16860057,1.63078856 8.09115283,0.6447383 Z M55.7804434,2.14910486 L56.4118245,6.81766224 C58.2958528,10.4910001 59.3605867,14.4851519 59.6060264,18.8001177 C59.7687869,21.6615379 57.4251893,39.0393466 58.6010571,50.7980253 C59.415308,55.6142545 63.0840294,65.2911363 67.3685044,76.4373401 C67.543732,76.8932004 67.3317077,77.3734944 66.7324315,77.8782221 C60.6323561,65.9852178 56.9816934,57.2244329 55.7804434,51.5958672 C54.1522766,43.9669439 56.2702385,34.1655788 55.7804434,25.7791519 C55.3191229,17.8802752 52.203763,11.1860987 52.203763,10.3363083 C52.203763,6.33157659 53.3959898,3.60250878 55.7804434,2.14910486 Z" id="right-counter-2"></path>
                    </g>
                </g>
                <g id="counter_3" transform="translate(41.000000, 111.000000)" fill="#4A4A4A">
                    <g id="left_counter_3" transform="translate(0.000000, 10.000000)">
                        <path d="M42.1570425,58.1033971 C38.9584345,60.5742882 36.7108947,62.340381 35.4144231,63.4016755 C31.3021119,66.7680226 28.7874141,69.7356624 26.9710676,71.3378232 C20.0021427,77.4849645 10.3048155,87.7057338 6.95312947,91.2577976 C6.28469453,91.9661944 -0.187588417,85.9977168 0.214512942,85.4949584 C4.79878139,79.7631209 19.5711282,58.6115356 30.9060717,42.4946292 C20.5588221,28.2392885 13.2722414,18.5319492 9.04632988,13.3726111 C8.10220499,12.2199463 0.830409584,1.67870039 0.214512942,0.98333321 C6.75797623,0.98333321 25.8783174,0.98333321 57.5755365,0.98333321 C57.8566872,3.96546151 58.6712979,6.92411906 60.0193687,9.85930586 C60.0475273,9.83752012 60.07572,9.81571519 60.1039469,9.79389109 C62.8172962,14.7492761 65.5958118,18.5956607 68.4394938,21.3330448 C68.807615,21.6848884 69.140013,21.9876062 69.4240354,22.2342118 C72.0653499,24.5275634 73.8635717,26.0460166 74.7171871,29.2470744 C75.2346625,31.1876072 74.9355213,33.1747099 74.7171871,33.9486441 C74.2294069,35.6776901 73.9680052,36.8489355 65.2457896,44.4450284 C59.0747384,49.0084078 51.3784894,53.5611974 42.1570425,58.1033971 Z" id="left-counter-3"></path>
                    </g>
                    <g id="right_counter_3" transform="translate(104.000000, 0.000000)">
                        <path d="M8.09115283,0.6447383 C9.01370509,-0.34131196 20.5406406,22.2376896 19.4693363,27.6326713 C19.107395,29.455372 9.4959859,58.1013664 9.60696187,73.7526586 C8.56581889,78.5206362 8.09115283,81.4537456 7.13406988,82.8295936 C7.13406988,80.6908472 8.09115283,78.2185068 8.09115283,73.7526586 C7.46926973,67.1534738 5.25810925,54.588881 4.05952513,44.9012399 C3.43099243,38.6350017 1.87514694,29.6369523 1.23878355,22.2280919 C0.772320673,16.7972982 1.06771188,12.0345054 1.23878355,10.7615065 C1.65850253,8.66757075 2.59874972,7.35295599 4.05952513,6.81766224 C4.9382707,5.90141951 5.81799669,4.79837385 6.6987031,3.50852525 C7.49207562,2.25370137 7.16860057,1.63078856 8.09115283,0.6447383 Z M55.7804434,2.14910486 L56.4118245,6.81766224 C58.2958528,10.4910001 59.3605867,14.4851519 59.6060264,18.8001177 C59.7687869,21.6615379 57.4251893,39.0393466 58.6010571,50.7980253 C59.415308,55.6142545 63.0840294,65.2911363 67.3685044,76.4373401 C67.543732,76.8932004 67.543732,77.0960332 67.3685044,77.0458385 C54.146225,51.3066768 47.0369235,34.8356211 46.0406,27.6326713 C46.0406,23.2007387 49.2872145,14.7062166 55.7804434,2.14910486 Z" id="right-counter-3"></path>
                    </g>
                </g>
            </g>
            <g id="shafts" transform="translate(18.000000, 0.000000)" stroke="#4A4A4A">
                <g id="shaft_0" transform="translate(0.000000, 44.000000)">
                    <path d="M108.69254,8.38383281 C101.296998,54.5594856 97.9276017,87.762055 98.5843521,107.991541 C98.9767488,120.078298 99.6799878,130.522495 102.283472,137.126906 C106.216127,147.103101 110.551478,149.398657 113.873129,153.032821 C117.194779,156.666984 116.340128,161.787705 116.340128,163.945525 C116.340128,164.51 113.453639,169.721121 104.99616,175.659404 C98.5264684,180.201995 87.978668,184.175524 77.8610605,192.767149 C54.51725,212.590143 48.7722777,222.74372 42.6015977,225.557792 C38.487811,227.433839 32.0741765,227.433839 23.3606941,225.557792 C16.2262774,223.508333 11.4493085,221.929385 9.02978741,220.820948 C5.40050571,219.158293 2.67066368,218.229353 1.20470426,215.407639 C0.227397985,213.526496 1.77633876,211.888211 5.85152658,210.492783 L25.8322542,199.972212 L42.6015977,132.304349 C44.7302724,110.833543 45.386067,89.8335025 44.5689814,69.3042273 C43.7518959,48.7749521 42.0256399,28.4681539 39.3902136,8.38383281" id="left-toe-0"></path>
                    <path d="M149.94118,0.381189916 C155.657443,39.9639988 158.515575,69.3684197 158.515575,88.5944525 C158.515575,107.820485 155.657443,120.24075 149.94118,125.855246 C146.759899,126.418994 145.964579,132.711709 147.555219,144.733392 C149.14586,156.755075 151.394559,173.017151 154.301318,193.519621 C152.620067,203.852938 151.779442,210.74117 151.779442,214.184318 C151.779442,217.627465 154.930962,222.872697 161.234003,229.920013 C167.901976,233.418577 174.972026,235.16786 182.444153,235.16786 C194.369155,234.729092 199.760466,234.729092 204.194749,229.920013 C208.629033,225.110934 216.784274,208.362719 215.795638,203.087036 C214.807002,197.811353 211.21116,189.214647 209.207218,184.755129 C207.636384,181.259439 204.648523,173.546882 204.194749,165.179573 C204.194749,152.677653 205.864309,145.462764 205.864309,139.662904 C205.864309,135.796331 204.670135,131.193779 202.281787,125.855246 C201.406566,120.052204 202.60074,107.631939 205.864309,88.5944525 C209.127878,69.5569655 215.10365,40.1525447 223.791625,0.381189916" id="right-toe-0"></path>
                </g>
                <g id="shaft_1" transform="translate(42.000000, 154.000000)" fill="#4A4A4A">
                    <path d="M0.140587214,26.1053149 C37.6657435,26.1053149 57.1060157,26.1053149 58.4614037,26.1053149 C58.063358,23.6094207 58.063358,17.6244146 58.4614037,8.15029662 L1.2162627,8.15029662 C1.40982831,14.3415303 1.40982831,18.1700334 1.2162627,19.6358058 C1.02269708,21.1015782 0.664138588,23.2580813 0.140587214,26.1053149 Z" id="left-shaft-1"></path>
                    <path d="M107.303296,15.7227721 C112.464808,14.8970391 125.474724,13.9161432 134.236258,13.9161432 C140.077281,13.9161432 148.666806,14.5183528 160.004833,15.7227721 C160.004833,12.8524915 160.004833,10.699281 160.004833,9.26314048 C160.004833,7.82699998 160.004833,5.27410595 160.004833,1.60445841 C150.385611,0.59020589 141.796086,0.0830796309 134.236258,0.0830796309 C126.67643,0.0830796309 120.284009,0.0830796309 115.058994,0.0830796309 L112.243148,9.26314048 C111.379481,11.1476153 109.732863,13.3008258 107.303296,15.7227721 Z" id="right-shaft-1"></path>
                </g>
                <g id="shaft_2" transform="translate(42.000000, 125.000000)" fill="#4A4A4A">
                    <path d="M0.321076034,48.1053149 L58.5770104,48.1053149 L58.5770104,0.541964605 L0.321076034,0.541964605 C0.514641648,25.9663879 0.514641648,39.4114857 0.321076034,40.8772582 C0.127510421,42.3430306 0.127510421,44.7523828 0.321076034,48.1053149 Z" id="left-shaft-2"></path>
                    <path d="M106.315431,44.7227721 C120.282463,48.8566138 130.14995,50.9235346 135.917891,50.9235346 C141.685832,50.9235346 149.908338,48.8566138 160.585407,44.7227721 C160.198358,41.8524915 160.004833,39.699281 160.004833,38.2631405 C160.004833,37.2234923 160.182119,34.3499534 161.357148,25.7605825 C161.655897,23.5767539 162.937347,15.8131402 165.201498,2.46974132 L115.153425,2.46974132 C115.617402,15.1025138 115.617402,22.8661276 115.153425,25.7605825 C114.689447,28.6550374 111.743449,34.9757673 106.315431,44.7227721 Z" id="right-shaft-2"></path>
                </g>
                <g id="shaft_3" transform="translate(37.000000, 71.000000)" fill="#4A4A4A">
                    <path d="M5.32107603,102.105315 L63.5770104,102.105315 L71.8328827,0.820398904 L0.755666142,0.820398904 C5.13196426,62.5648978 7.22333051,94.1700334 7.02976489,95.6358058 C6.83619928,97.1015782 6.26663633,99.2580813 5.32107603,102.105315 Z" id="left-shaft-3"></path>
                    <path d="M111.680104,98.7227721 C124.330447,103.177921 133.639776,105.405495 139.608093,105.405495 C145.576409,105.405495 154.215799,103.177921 165.526263,98.7227721 C165.178643,95.8524915 165.004833,93.699281 165.004833,92.2631405 C165.004833,91.2234923 165.182119,88.3499534 166.357148,79.7605825 C166.655897,77.5767539 171.364105,52.0239377 180.481772,3.10213393 L117.243148,3.10213393 C119.971724,37.03524 121.354318,55.8307487 121.390932,59.4886601 C121.514571,71.8407425 120.474693,77.756398 120.153425,79.7605825 C119.689447,82.6550374 116.865007,88.9757673 111.680104,98.7227721 Z" id="right-shaft-3"></path>
                </g>
                <g id="shaft_4" transform="translate(36.000000, 0.000000)" fill="#4A4A4A">
                    <path d="M6.32107603,173.105315 L64.5770104,173.105315 L73.6958804,37.5610845 C70.4202822,23.5830893 67.3806588,15.0368329 64.5770104,11.9223151 C55.2807184,1.59524763 47.7558134,1.11610346 37.2730722,1.11610346 C26.7903311,1.11610346 20.0854416,1.11610346 3.1047736,1.11610346 C0.284868781,1.11610346 -0.466634405,13.2644305 0.850264044,37.5610845 C5.83016356,122.145126 8.22333051,165.170033 8.02976489,166.635806 C7.83619928,168.101578 7.26663633,170.258081 6.32107603,173.105315 Z" id="left-shaft-4"></path>
                    <path d="M112.393384,169.722772 C125.695765,174.46499 135.242227,176.8361 141.032771,176.8361 C146.823316,176.8361 155.335238,174.46499 166.568538,169.722772 C166.192735,166.852492 166.004833,164.699281 166.004833,163.26314 C166.004833,162.223492 166.182119,159.349953 167.357148,150.760583 C167.655897,148.576754 174.603127,112.458718 188.19884,42.406474 C188.19884,29.8057639 188.19884,19.6307864 188.19884,11.8815413 C188.19884,0.738829423 173.631085,0.738829423 149.064684,0.738829423 C124.498284,0.738829423 114.467684,0.842409006 113.329626,11.8815413 C112.748218,17.521192 112.748218,27.6961695 113.329626,42.406474 C119.333883,97.47002 122.354318,126.830749 122.390932,130.48866 C122.514571,142.840743 121.474693,148.756398 121.153425,150.760583 C120.689447,153.655037 117.769434,159.975767 112.393384,169.722772 Z" id="right-shaft-4"></path>
                </g>
            </g>
            <g id="covers" transform="translate(44.000000, 167.000000)" fill="#4A4A4A" stroke="#4A4A4A">
                <g id="covers_0" transform="translate(0.000000, 50.000000)">
                    <path d="M0,26.6532893 L22.3898431,48 L41,28.9673545 L6.66201288,-1.42108547e-14 C4.00715039,11.0764315 2.36501676,17.7678162 1.73561198,20.0741541 C1.10620721,22.3804921 0.527669879,24.5735372 0,26.6532893 Z" id="left-cover-2"></path>
                    <path d="M126.071202,37.5426864 C143.069482,38.6017114 167.211194,38.6017114 189.315203,37.5426864 C190.797554,33.9605358 192.51609,31.0271061 189.784452,25.608216 C187.457465,20.9920534 184.749635,15.272105 183.577395,12.8794769 C166.222143,14.0139593 145.022009,14.0139593 127.65647,12.8794769 C127.65647,15.9386348 127.856255,20.7044566 127.65647,25.608216 C127.412299,31.6014582 126.071202,37.5426864 126.071202,37.5426864 Z" id="right-cover-2"></path>
                </g>
                <g id="covers_1" transform="translate(0.000000, 29.000000)">
                    <path d="M0,47.7481468 L22.7477035,69 C26.7214865,64.2080168 32.0419272,58.7394394 38.7090255,52.594268 C45.3761238,46.4490965 52.139782,40.7795662 59,35.5856769 L12.0170645,-1.42108547e-14 C5.82072119,25.1694086 2.4028172,38.9021577 1.76335255,41.198247 C1.12388789,43.4943364 0.536103711,45.6776364 0,47.7481468 Z" id="left-cover-3"></path>
                    <path d="M126.217126,58.5426864 C143.215407,59.6017114 167.92793,59.6017114 189.603678,58.5426864 C190.784452,55.5911361 192.201449,51.4721193 190.784452,46.608216 C190.087678,44.2165105 184.433838,33.0955991 182.064678,24.4736875 C179.60093,15.5075524 179.98686,9.18019605 179.389269,7.96046839 C170.813725,8.52103666 170.813725,1.68997845 152.300752,1.68997845 C133.78778,1.68997845 133.328295,8.53438249 124.543383,7.96046839 C124.087911,9.71327278 126.205268,20.4975942 127.071202,30.3261448 C127.719622,37.6858676 127.156746,44.5085107 127.071202,46.608216 C126.827031,52.6014582 126.217126,56.655558 126.217126,58.5426864 Z" id="right-cover-3"></path>
                </g>
                <g id="covers_2" transform="translate(0.000000, 6.000000)">
                    <path d="M0,70.5809433 L22.7477035,92 C26.7214865,87.1703148 32.0419272,81.6587123 38.7090255,75.4651924 C45.3761238,69.2716725 52.139782,63.5575359 59,58.3227826 L16.3443961,0 C13.0252524,14.327844 10.7296477,24.3026421 9.45758205,29.9243942 C4.70151418,50.9433054 2.21972431,62.3279501 1.76335255,63.9795108 C1.12388789,66.2936652 0.536103711,68.4941427 0,70.5809433 Z" id="left-cover-3"></path>
                    <path d="M126.163317,81.5426864 C143.161597,82.6017114 167.283503,82.6017114 188.959251,81.5426864 C190.140024,78.5911361 192.201449,74.4721193 190.784452,69.608216 C190.087678,67.2165105 182.707021,53.839509 181.608136,50.3933797 C180.509252,46.9472505 176.699461,37.5595911 178.831771,22.0453769 C171.957531,22.0453769 171.245269,13.2498348 152.732296,13.2498348 C134.219324,13.2498348 131.235562,22.619291 122.45065,22.0453769 C122.282002,22.6943878 126.525897,47.214794 127.071202,53.4041267 C127.719622,60.7638495 127.156746,67.5085107 127.071202,69.608216 C126.827031,75.6014582 126.163317,79.655558 126.163317,81.5426864 Z" id="right-cover-3"></path>
                </g>
                <g id="covers_3">
                    <path d="M0,76.5809433 L22.5936043,98 C26.5404678,93.1703148 31.8248663,87.6587123 38.4467999,81.4651924 C45.0687334,75.2716725 51.7865727,69.5575359 58.6003177,64.3227826 C69.2970755,35.2076902 75.4303029,18.8534791 77,15.2601493 C75.47765,10.6041937 74.5294835,9.22465126 74.5294835,6 C64.4532224,6 45.0212861,6 16.2336746,6 C12.9370157,20.327844 10.6569621,30.3026421 9.39351378,35.9243942 C4.66966483,56.9433054 2.20468728,68.3279501 1.75140711,69.9795108 C1.11627437,72.2936652 0.532471996,74.4941427 0,76.5809433 Z" id="left-cover-3"></path>
                    <path d="M127.071202,87.5426864 C144.069482,88.6017114 169.334678,88.6017114 189.417389,87.5426864 C190.784452,82.8324953 191.839981,81.2300529 190.90288,77.6770525 C189.965779,74.1240521 184.433838,62.0955991 182.064678,53.4736875 C181.330132,50.8005109 180.042964,46.1426378 179.593202,39.5192635 C179.1973,33.6890569 179.593202,25.9563936 179.593202,22.0045718 C179.593202,12.7036234 179.461719,5.54051672 176.891996,3.2218142 C168.316452,3.78238247 167.920246,0.00875364091 151.138801,0.00875364091 C134.357357,0.00875364091 127.978524,3.59980692 122.192584,3.2218142 C117.737893,5.73912522 126.205268,49.4975942 127.071202,59.3261448 C127.719622,66.6858676 127.156746,73.5085107 127.071202,75.608216 C126.827031,81.6014582 127.071202,87.5426864 127.071202,87.5426864 Z" id="right-cover-3"></path>
                </g>
            </g>
            <g id="toes" transform="translate(12.000000, 44.000000)" stroke="#4A4A4A">
                <g id="toe_2" transform="translate(0.000000, 194.000000)" fill="#4A4A4A">
                    <path d="M53.9268295,27.366881 C52.5856387,29.0167426 48.8331743,33.0234659 40.1011941,33.0234659 C33.2190728,32.7466478 26.2810355,32.482075 17.1728685,30.8479506 C16.9337161,30.8050435 16.5651377,30.7529191 16.0671332,30.6915774 C6.00965044,28.3686077 0.66172585,26.07664 0.0233593968,23.8156744 C0.0233593968,22.4092416 3.95280645,19.9638321 11.8117006,16.4794458 C20.3011258,12.064271 26.8051372,8.62495889 31.3237348,6.1615096 C40.9198173,15.5698646 45.8315561,20.2039285 53.9268295,27.366881 Z" id="left-toe-2"></path>
                    <path d="M160.400743,0.708603104 C162.240782,6.4583829 163.023062,12.1229404 164.617762,13.2186899 C170.550971,16.6562254 209.179938,16.3871493 214.358941,13.2186899 C218.815533,8.51362238 218.322215,4.57230201 219.43354,1.27590698 C219.064126,0.261889941 226.569162,11.3885937 220.074299,22.753013 C213.579436,34.1174322 196.604767,57.4355103 190.483003,57.4355103 C184.36124,57.4355103 158.843742,28.621355 158.202451,22.753013 C157.472018,16.0689532 160.400743,1.8987102 160.400743,0.708603104 Z" id="right-toe-2"></path>
                </g>
                <g id="toe_1" transform="translate(2.000000, 194.000000)" fill="#4A4A4A">
                    <path d="M51.9268295,27.366881 C50.5856387,29.0167426 47.1459515,32.0116114 38.3684922,34.1815604 C29.5910329,36.3515093 19.1450857,36.4319374 9.81170056,34.1815604 C0.478315389,31.9311833 -0.712948738,29.2942279 0.376007822,24.3791351 C1.10197886,21.1024066 4.24720977,18.4691768 9.81170056,16.4794458 C18.3011258,12.064271 24.8051372,8.62495889 29.3237348,6.1615096 C38.9198173,15.5698646 43.8315561,20.2039285 51.9268295,27.366881 Z" id="left-toe-1"></path>
                    <path d="M158.400743,0.708603104 C160.240782,6.4583829 161.946392,14.4694036 163.541092,15.5651531 C169.474301,19.0026886 207.586711,18.7336125 212.765714,15.5651531 C217.222305,10.8600856 216.962974,4.00499813 218.074299,0.708603104 C217.704885,-0.305413938 224.569162,19.0850752 218.074299,30.4494945 C211.579436,41.8139138 210.511445,47.3649191 188.34623,47.3649191 C166.181014,47.3649191 156.561282,28.621355 155.91999,22.753013 C155.189557,16.0689532 158.400743,1.8987102 158.400743,0.708603104 Z" id="right-toe-1"></path>
                </g>
                <g id="toe_0" transform="translate(6.000000, 0.000000)">
                    <path d="M108.69254,8.38383281 C101.296998,54.5594856 97.9276017,87.762055 98.5843521,107.991541 C98.9767488,120.078298 99.6799878,130.522495 102.283472,137.126906 C106.216127,147.103101 110.551478,149.398657 113.873129,153.032821 C117.194779,156.666984 116.340128,161.787705 116.340128,163.945525 C116.340128,164.51 113.453639,169.721121 104.99616,175.659404 C98.5264684,180.201995 87.978668,184.175524 77.8610605,192.767149 C54.51725,212.590143 48.7722777,222.74372 42.6015977,225.557792 C38.487811,227.433839 32.0741765,227.433839 23.3606941,225.557792 C16.2262774,223.508333 11.4493085,221.929385 9.02978741,220.820948 C5.40050571,219.158293 2.67066368,218.229353 1.20470426,215.407639 C0.227397985,213.526496 1.77633876,211.888211 5.85152658,210.492783 L25.8322542,199.972212 L42.6015977,132.304349 C44.7302724,110.833543 45.386067,89.8335025 44.5689814,69.3042273 C43.7518959,48.7749521 42.0256399,28.4681539 39.3902136,8.38383281" id="left-toe-0"></path>
                    <path d="M149.94118,0.381189916 C155.657443,39.9639988 158.515575,69.3684197 158.515575,88.5944525 C158.515575,107.820485 155.657443,120.24075 149.94118,125.855246 C146.759899,126.418994 145.964579,132.711709 147.555219,144.733392 C149.14586,156.755075 151.394559,173.017151 154.301318,193.519621 C152.620067,203.852938 151.779442,210.74117 151.779442,214.184318 C151.779442,217.627465 154.930962,222.872697 161.234003,229.920013 C167.901976,233.418577 174.972026,235.16786 182.444153,235.16786 C194.369155,234.729092 199.760466,234.729092 204.194749,229.920013 C208.629033,225.110934 216.784274,208.362719 215.795638,203.087036 C214.807002,197.811353 211.21116,189.214647 209.207218,184.755129 C207.636384,181.259439 204.648523,173.546882 204.194749,165.179573 C204.194749,152.677653 205.864309,145.462764 205.864309,139.662904 C205.864309,135.796331 204.670135,131.193779 202.281787,125.855246 C201.406566,120.052204 202.60074,107.631939 205.864309,88.5944525 C209.127878,69.5569655 215.10365,40.1525447 223.791625,0.381189916" id="right-toe-0"></path>
                </g>
            </g>
            <path d="M103,231.692477 C96.5761087,236.516317 91.6904558,240.811344 88.3430414,244.577557 C94.2344907,242.796547 99.1201436,241.373896 103,240.309604 L132.729756,224.366985 L134.294311,208.878449 C129.62488,214.296373 124.884271,218.71899 120.072484,222.146301 C114.756188,223.895081 109.06536,227.07714 103,231.692477 Z" id="bottoms_0_HL" fill-opacity="0.5" fill="#FAB09A"></path>
            <path d="M18.6149542,259.040883 C19.6719621,259.040883 29.9979737,265.872605 37.287641,267.823611 C44.5773083,269.774618 55.8864306,271.323535 59.8126855,269.372529 C68.4298191,265.090564 80.0154777,248.949158 94.386536,238.275003 C99.5544714,231.876314 114.526657,225.430206 124.593529,218.878702 C127.024277,217.296775 129.827057,214.529301 131.669729,209.730678 C133.5124,204.932054 133.751876,200.713807 134.639992,202.570222 C135.733856,206.412787 135.187536,229.664806 134.639992,232.619044 C134.312596,234.385486 122.057861,236.590124 111.432961,242.765041 C100.808061,248.939958 72.7387706,272.110051 64.6030383,275.373624 C47.5912594,282.197738 21.3520318,268.736393 20.1433325,266.996817 C18.9346332,265.257241 17.5579463,259.040883 18.6149542,259.040883 Z" id="bottoms_1_HL" fill-opacity="0.5" fill="#FAB09A"></path>
            <path d="M68.4839522,262.273357 L60,270.840283 C102.470028,270.840283 127.25007,270.840283 134.340128,270.840283 C134.340128,265.042422 129.819743,265.042422 129.819743,246.574181 C129.819743,228.105939 134.340128,217.358696 134.340128,208.878449 C134.340128,207.398716 129.313786,218.819755 112.16807,226.206866 C106.814754,227.272041 94.1869352,237.631495 89.5301773,241.906042 C85.3108817,245.779033 78.2954733,252.568138 68.4839522,262.273357 Z" id="bottoms_2_HL" fill-opacity="0.5" fill="#FAB09A"></path>
            <path d="M103,231.692477 L104.250284,252 L132.178306,252 L134.294311,208.878449 C129.62488,214.296373 124.884271,218.71899 120.072484,222.146301 C114.756188,223.895081 109.06536,227.07714 103,231.692477 Z" id="bottoms_3_HL" fill-opacity="0.5" fill="#FAB09A"></path>
            <path d="M103,231.692477 L106.502555,271.710306 L129.104416,271.710306 L134.294311,208.878449 C129.62488,214.296373 124.884271,218.71899 120.072484,222.146301 C114.756188,223.895081 109.06536,227.07714 103,231.692477 Z" id="bottoms_4_HL" fill-opacity="0.5" fill="#FAB09A"></path>
            <path d="M121,221.047796 L121,247.26845 L134.294311,247.26845 L134.294311,208.878449 C132.079217,212.05981 129.863498,214.61242 127.647155,216.536279 C125.430813,218.460137 123.215094,219.963976 121,221.047796 Z" id="bottoms_5_HL" fill-opacity="0.5" fill="#FAB09A"></path>
            <path d="M121,221.047796 L121,270.840283 L134.294311,270.840283 L134.294311,208.878449 C132.079217,212.05981 129.863498,214.61242 127.647155,216.536279 C125.430813,218.460137 123.215094,219.963976 121,221.047796 Z" id="bottoms_6_HL" fill-opacity="0.5" fill="#FAB09A"></path>
            <path d="M120.103947,182.793891 C123.129612,188.319657 126.236308,192.466431 129.424035,195.234212 C132.611763,198.001993 133.925304,202.265901 133.36466,208.025935 C133.36466,208.970547 130.457254,211.974883 124.642444,217.038945 C118.471393,221.602325 110.976259,226.290475 102.157043,231.103397 C104.375909,223.853326 105.485342,216.160839 105.485342,208.025935 C105.485342,199.891032 110.358211,191.480351 120.103947,182.793891 Z" id="counter_0_HL" fill-opacity="0.5" fill="#FAB09A"></path>
            <path d="M120.103947,182.793891 C123.129612,188.319657 126.236308,192.466431 129.424035,195.234212 C132.611763,198.001993 133.925304,202.265901 133.36466,208.025935 C133.36466,208.970547 130.457254,211.974883 124.642444,217.038945 C118.471393,221.602325 110.976259,226.290475 102.157043,231.103397 C113.405335,223.135132 119.029482,215.083547 119.029482,206.948644 C119.029482,198.774365 117.396367,193.087445 116.159452,190.058241 C115.629903,188.761376 116.944735,186.339926 120.103947,182.793891 Z" id="counter_1_HL" fill-opacity="0.5" fill="#FAB09A"></path>
            <path d="M120.103947,182.793891 C123.129612,188.319657 126.236308,192.466431 129.424035,195.234212 C132.611763,198.001993 133.925304,202.265901 133.36466,208.025935 C133.36466,208.970547 130.457254,211.974883 124.642444,217.038945 C118.471393,221.602325 110.976259,226.290475 102.157043,231.103397 C104.375909,223.853326 105.485342,216.160839 105.485342,208.025935 C105.485342,199.891032 110.358211,191.480351 120.103947,182.793891 Z" id="counter_2_HL" fill-opacity="0.5" fill="#FAB09A"></path>
            <path d="M120.103947,182.793891 C123.129612,188.319657 126.236308,192.466431 129.424035,195.234212 C132.611763,198.001993 133.925304,202.265901 133.36466,208.025935 C133.36466,208.970547 130.457254,211.974883 124.642444,217.038945 C118.471393,221.602325 110.976259,226.290475 102.157043,231.103397 C98.9584345,233.574288 96.7108947,235.340381 95.4144231,236.401676 C91.3021119,239.768023 88.476099,242.32162 86.6597525,243.923781 C78.3009979,251.296861 65.4240458,264.377429 64.8726333,264.935037 C63.5354154,264.935037 59.7851602,260.48029 58.9855722,259.905818 C63.4928423,255.100273 100.70737,200.998152 104.644553,196.350316 C107.269343,193.251759 112.422474,188.732951 120.103947,182.793891 Z" id="counter_3_HL" fill-opacity="0.5" fill="#FAB09A"></path>
            <path d="M120.019369,182.859306 C120.047527,182.83752 120.07572,182.815715 120.103947,182.793891 C122.817296,187.749276 125.595812,191.595661 128.439494,194.333045 C128.807615,194.684888 129.140013,194.987606 129.424035,195.234212 C132.611763,198.001993 133.925304,202.265901 133.36466,208.025935 C133.382347,209.416936 130.483786,212.644468 124.668975,217.70853 C118.497924,222.271909 110.993947,226.736865 102.157043,231.103397 C98.9584345,233.574288 96.7108947,235.340381 95.4144231,236.401676 C91.3021119,239.768023 88.476099,242.32162 86.6597525,243.923781 C78.3009979,251.296861 65.4240458,264.377429 64.8726333,264.935037 C63.5354154,264.935037 59.7851602,260.48029 58.9855722,259.905818 C61.8983638,256.800268 78.4706865,233.106991 90.8939276,215.477898 C80.5531206,201.231693 73.270588,191.529931 69.0463299,186.372611 C68.102205,185.219946 60.8304096,174.6787 60.2145129,173.983333 C66.7579762,173.983333 85.8783174,173.983333 117.575536,173.983333 C117.856687,176.965462 118.671298,179.924119 120.019369,182.859306 Z" id="counter_4_HL" fill-opacity="0.5" fill="#FAB09A"></path>
            <path d="M60.321076,173.105315 C61.2666363,170.258081 61.8361993,168.101578 62.0297649,166.635806 C62.2233305,165.170033 59.8301636,122.145126 54.850264,37.5610845 C53.5333656,13.2644305 54.2848688,1.11610346 57.1047736,1.11610346 C74.0854416,1.11610346 80.7903311,1.11610346 91.2730722,1.11610346 C101.755813,1.11610346 109.280718,1.59524763 118.57701,11.9223151 C121.380659,15.0368329 124.420282,23.5830893 127.69588,37.5610845 L118.57701,173.105315 L60.321076,173.105315 Z M166.393384,169.722772 C171.769434,159.975767 174.689447,153.655037 175.153425,150.760583 C175.474693,148.756398 176.514571,142.840743 176.390932,130.48866 C176.354318,126.830749 173.333883,97.47002 167.329626,42.406474 C166.748218,27.6961695 166.748218,17.521192 167.329626,11.8815413 C168.467684,0.842409006 178.498284,0.738829423 203.064684,0.738829423 C227.631085,0.738829423 242.19884,0.738829423 242.19884,11.8815413 C242.19884,19.6307864 242.19884,29.8057639 242.19884,42.406474 C228.603127,112.458718 221.655897,148.576754 221.357148,150.760583 C220.182119,159.349953 220.004833,162.223492 220.004833,163.26314 C220.004833,164.699281 220.192735,166.852492 220.568538,169.722772 C209.335238,174.46499 200.823316,176.8361 195.032771,176.8361 C189.242227,176.8361 179.695765,174.46499 166.393384,169.722772 Z" id="shaft_0_HL" fill-opacity="0.5" fill="#FAB09A"></path>
            <path d="M60.1405872,180.105315 C60.6641386,177.258081 61.0226971,175.101578 61.2162627,173.635806 C61.4098283,172.170033 61.4098283,168.34153 61.2162627,162.150297 L118.461404,162.150297 C118.063358,171.624415 118.063358,177.609421 118.461404,180.105315 C117.106016,180.105315 97.6657435,180.105315 60.1405872,180.105315 Z M168.467684,169.722772 L172.243148,163.26314 L173.503406,159.760694 L220.004833,159.760694 C220.004833,160.659518 220.004833,161.827 220.004833,163.26314 C220.004833,164.699281 220.004833,166.852492 220.004833,169.722772 C208.666806,174.009366 200.077281,176.152663 194.236258,176.152663 C188.395236,176.152663 179.805711,174.009366 168.467684,169.722772 Z" id="shaft_1_HL" fill-opacity="0.5" fill="#FAB09A"></path>
            <path d="M60.321076,173.105315 C60.1275104,169.752383 60.1275104,167.343031 60.321076,165.877258 C60.5146416,164.411486 60.5146416,150.966388 60.321076,125.541965 L118.57701,125.541965 L118.57701,173.105315 L60.321076,173.105315 Z M166.315431,169.722772 C171.743449,159.975767 174.689447,153.655037 175.153425,150.760583 C175.617402,147.866128 175.617402,140.102514 175.153425,127.469741 L225.201498,127.469741 C222.937347,140.81314 221.655897,148.576754 221.357148,150.760583 C220.182119,159.349953 220.004833,162.223492 220.004833,163.26314 C220.004833,164.699281 220.198358,166.852492 220.585407,169.722772 C209.908338,173.856614 201.685832,175.923535 195.917891,175.923535 C190.14995,175.923535 180.282463,173.856614 166.315431,169.722772 Z" id="shaft_2_HL" fill-opacity="0.5" fill="#FAB09A"></path>
            <path d="M60.321076,173.105315 C61.2666363,170.258081 61.8361993,168.101578 62.0297649,166.635806 C62.2233305,165.170033 60.1319643,133.564898 55.7556661,71.8203989 L126.832883,71.8203989 L118.57701,173.105315 L60.321076,173.105315 Z M166.680104,169.722772 C171.865007,159.975767 174.689447,153.655037 175.153425,150.760583 C175.474693,148.756398 176.514571,142.840743 176.390932,130.48866 C176.354318,126.830749 174.971724,108.03524 172.243148,74.1021339 L235.481772,74.1021339 C226.364105,123.023938 221.655897,148.576754 221.357148,150.760583 C220.182119,159.349953 220.004833,162.223492 220.004833,163.26314 C220.004833,164.699281 220.178643,166.852492 220.526263,169.722772 C209.215799,174.177921 200.576409,176.405495 194.608093,176.405495 C188.639776,176.405495 179.330447,174.177921 166.680104,169.722772 Z" id="shaft_3_HL" fill-opacity="0.5" fill="#FAB09A"></path>
            <path d="M60.321076,173.105315 C61.2666363,170.258081 61.8361993,168.101578 62.0297649,166.635806 C62.2233305,165.170033 59.8301636,122.145126 54.850264,37.5610845 C53.5333656,13.2644305 54.2848688,1.11610346 57.1047736,1.11610346 C74.0854416,1.11610346 80.7903311,1.11610346 91.2730722,1.11610346 C101.755813,1.11610346 109.280718,1.59524763 118.57701,11.9223151 C121.380659,15.0368329 124.420282,23.5830893 127.69588,37.5610845 L118.57701,173.105315 L60.321076,173.105315 Z M166.393384,169.722772 C171.769434,159.975767 174.689447,153.655037 175.153425,150.760583 C175.474693,148.756398 176.514571,142.840743 176.390932,130.48866 C176.354318,126.830749 173.333883,97.47002 167.329626,42.406474 C166.748218,27.6961695 166.748218,17.521192 167.329626,11.8815413 C168.467684,0.842409006 178.498284,0.738829423 203.064684,0.738829423 C227.631085,0.738829423 242.19884,0.738829423 242.19884,11.8815413 C242.19884,19.6307864 242.19884,29.8057639 242.19884,42.406474 C228.603127,112.458718 221.655897,148.576754 221.357148,150.760583 C220.182119,159.349953 220.004833,162.223492 220.004833,163.26314 C220.004833,164.699281 220.192735,166.852492 220.568538,169.722772 C209.335238,174.46499 200.823316,176.8361 195.032771,176.8361 C189.242227,176.8361 179.695765,174.46499 166.393384,169.722772 Z" id="shaft_4_HL" fill-opacity="0.5" fill="#FAB09A"></path>
            <path d="M44,243.653289 C44.5276699,241.573537 45.1062072,239.380492 45.735612,237.074154 C46.3650168,234.767816 48.0071504,228.076431 50.6620129,217 L85,245.967355 L66.3898431,265 L44,243.653289 Z M170.071202,254.542686 C170.071202,254.542686 171.412299,248.601458 171.65647,242.608216 C171.856255,237.704457 171.65647,232.938635 171.65647,229.879477 C189.022009,231.013959 210.222143,231.013959 227.577395,229.879477 C228.749635,232.272105 231.457465,237.992053 233.784452,242.608216 C236.51609,248.027106 234.797554,250.960536 233.315203,254.542686 C211.211194,255.601711 187.069482,255.601711 170.071202,254.542686 Z" id="cover_0_HL" fill-opacity="0.5" fill="#FAB09A"></path>
            <path d="M44,243.748147 C44.5361037,241.677636 45.1238879,239.494336 45.7633525,237.198247 C46.4028172,234.902158 49.8207212,221.169409 56.0170645,196 L103,231.585677 C96.139782,236.779566 89.3761238,242.449097 82.7090255,248.594268 C76.0419272,254.739439 70.7214865,260.208017 66.7477035,265 L44,243.748147 Z M170.217126,254.542686 C170.217126,252.655558 170.827031,248.601458 171.071202,242.608216 C171.156746,240.508511 171.719622,233.685868 171.071202,226.326145 C170.205268,216.497594 168.087911,205.713273 168.543383,203.960468 C177.328295,204.534382 177.78778,197.689978 196.300752,197.689978 C214.813725,197.689978 214.813725,204.521037 223.389269,203.960468 C223.98686,205.180196 223.60093,211.507552 226.064678,220.473688 C228.433838,229.095599 234.087678,240.21651 234.784452,242.608216 C236.201449,247.472119 234.784452,251.591136 233.603678,254.542686 C211.92793,255.601711 187.215407,255.601711 170.217126,254.542686 Z" id="cover_1_HL" fill-opacity="0.5" fill="#FAB09A"></path>
            <path d="M44,243.580943 C44.5361037,241.494143 45.1238879,239.293665 45.7633525,236.979511 C46.2197243,235.32795 48.7015142,223.943305 53.4575821,202.924394 C54.7296477,197.302642 57.0252524,187.327844 60.3443961,173 L103,231.322783 C96.139782,236.557536 89.3761238,242.271673 82.7090255,248.465192 C76.0419272,254.658712 70.7214865,260.170315 66.7477035,265 L44,243.580943 Z M170.163317,254.542686 C170.163317,252.655558 170.827031,248.601458 171.071202,242.608216 C171.156746,240.508511 171.719622,233.763849 171.071202,226.404127 C170.525897,220.214794 166.282002,195.694388 166.45065,195.045377 C175.235562,195.619291 178.219324,186.249835 196.732296,186.249835 C215.245269,186.249835 215.957531,195.045377 222.831771,195.045377 C220.699461,210.559591 224.509252,219.94725 225.608136,223.39338 C226.707021,226.839509 234.087678,240.21651 234.784452,242.608216 C236.201449,247.472119 234.140024,251.591136 232.959251,254.542686 C211.283503,255.601711 187.161597,255.601711 170.163317,254.542686 Z" id="cover_2_HL" fill-opacity="0.5" fill="#FAB09A"></path>
            <path d="M44,243.580943 C44.532472,241.494143 45.1162744,239.293665 45.7514071,236.979511 C46.2046873,235.32795 48.6696648,223.943305 53.3935138,202.924394 C54.6569621,197.302642 56.9370157,187.327844 60.2336746,173 C89.0212861,173 108.453222,173 118.529484,173 C118.529484,176.224651 119.47765,177.604194 121,182.260149 C119.430303,185.853479 113.297075,202.20769 102.600318,231.322783 C95.7865727,236.557536 89.0687334,242.271673 82.4467999,248.465192 C75.8248663,254.658712 70.5404678,260.170315 66.5936043,265 L44,243.580943 Z M171.071202,254.542686 C171.071202,254.542686 170.827031,248.601458 171.071202,242.608216 C171.156746,240.508511 171.719622,233.685868 171.071202,226.326145 C170.205268,216.497594 161.737893,172.739125 166.192584,170.221814 C171.978524,170.599807 178.357357,167.008754 195.138801,167.008754 C211.920246,167.008754 212.316452,170.782382 220.891996,170.221814 C223.461719,172.540517 223.593202,179.703623 223.593202,189.004572 C223.593202,192.956394 223.1973,200.689057 223.593202,206.519264 C224.042964,213.142638 225.330132,217.800511 226.064678,220.473688 C228.433838,229.095599 233.965779,241.124052 234.90288,244.677052 C235.839981,248.230053 234.784452,249.832495 233.417389,254.542686 C213.334678,255.601711 188.069482,255.601711 171.071202,254.542686 Z" id="cover_3_HL" fill-opacity="0.5" fill="#FAB09A"></path>
            <path d="M65.9268295,265.366881 C64.5856387,267.016743 61.1459515,270.011611 52.3684922,272.18156 C43.5910329,274.351509 33.1450857,274.431937 23.8117006,272.18156 C14.4783154,269.931183 13.2870513,267.294228 14.3760078,262.379135 C15.1019789,259.102407 18.2472098,256.469177 23.8117006,254.479446 C32.3011258,250.064271 38.8051372,246.624959 43.3237348,244.16151 C52.9198173,253.569865 57.8315561,258.203928 65.9268295,265.366881 Z M172.400743,238.708603 C174.240782,244.458383 175.946392,252.469404 177.541092,253.565153 C183.474301,257.002689 221.586711,256.733612 226.765714,253.565153 C231.222305,248.860086 230.962974,242.004998 232.074299,238.708603 C231.704885,237.694586 238.569162,257.085075 232.074299,268.449495 C225.579436,279.813914 224.511445,285.364919 202.34623,285.364919 C180.181014,285.364919 170.561282,266.621355 169.91999,260.753013 C169.189557,254.068953 172.400743,239.89871 172.400743,238.708603 Z" id="toes_2_HL" fill-opacity="0.5" fill="#FAB09A"></path>
            <path d="M65.9268295,265.366881 C64.5856387,267.016743 60.8331743,271.023466 52.1011941,271.023466 C45.2190728,270.746648 38.2810355,270.482075 29.1728685,268.847951 C28.9337161,268.805044 28.5651377,268.752919 28.0671332,268.691577 C18.0096504,266.368608 12.6617259,264.07664 12.0233594,261.815674 C12.0233594,260.409242 15.9528065,257.963832 23.8117006,254.479446 C32.3011258,250.064271 38.8051372,246.624959 43.3237348,244.16151 C52.9198173,253.569865 57.8315561,258.203928 65.9268295,265.366881 Z" id="toes_1_HL" fill-opacity="0.5" fill="#FAB09A"></path>
            <path d="M172.400743,238.708603 C174.240782,244.458383 175.023062,250.12294 176.617762,251.21869 C182.550971,254.656225 221.179938,254.387149 226.358941,251.21869 C230.815533,246.513622 230.322215,242.572302 231.43354,239.275907 C231.064126,238.26189 238.569162,249.388594 232.074299,260.753013 C225.579436,272.117432 208.604767,295.43551 202.483003,295.43551 C196.36124,295.43551 170.843742,266.621355 170.202451,260.753013 C169.472018,254.068953 172.400743,239.89871 172.400743,238.708603 Z" id="right-toe-1_HL" fill-opacity="0.5" fill="#FAB09A"></path>
            <path d="M65.9268295,265.366881 C64.5856387,267.016743 60.8331743,271.023466 52.1011941,271.023466 C45.2190728,270.746648 38.2810355,270.482075 29.1728685,268.847951 C28.9337161,268.805044 28.5651377,268.752919 28.0671332,268.691577 C18.0096504,266.368608 12.6617259,264.07664 12.0233594,261.815674 C12.0233594,260.409242 15.9528065,257.963832 23.8117006,254.479446 C32.3011258,250.064271 38.8051372,246.624959 43.3237348,244.16151 C52.9198173,253.569865 57.8315561,258.203928 65.9268295,265.366881 Z" id="toes_0_HL" fill-opacity="0.5" fill="#FAB09A"></path>
            <path d="M172.400743,238.708603 C174.240782,244.458383 175.023062,250.12294 176.617762,251.21869 C182.550971,254.656225 221.179938,254.387149 226.358941,251.21869 C230.815533,246.513622 230.322215,242.572302 231.43354,239.275907 C231.064126,238.26189 238.569162,249.388594 232.074299,260.753013 C225.579436,272.117432 208.604767,295.43551 202.483003,295.43551 C196.36124,295.43551 170.843742,266.621355 170.202451,260.753013 C169.472018,254.068953 172.400743,239.89871 172.400743,238.708603 Z" id="right-toe-0_HL" fill-opacity="0.5" fill="#FAB09A"></path>
            <g id="touches_shoes" transform="translate(0.000000, 21.000000)" fill="#D8D8D8" stroke="#4A4A4A">
                <g id="touch_toes" transform="translate(0.000000, 210.000000)">
                    <path d="M36.4940696,0.469511086 C36.4940696,0.469511086 46.8806324,10.8659726 67.6537581,31.6588955 L42.2871677,55.1277898 C25.8786292,60.1578937 14.2949546,59.3532084 7.53614382,52.7137339 C0.777333069,46.0742595 -1.12750544,34.8347821 1.8216283,18.9953018 C7.37956881,10.7860512 11.5838192,6.01194123 14.4343795,4.67297176 C25.9585472,-0.740177621 36.4940696,0.469511086 36.4940696,0.469511086 Z" id="touch_toes_left"></path>
                    <path d="M155.397731,17.5133338 L245.610384,17.5133338 L245.610384,51.56152 C240.650541,66.3344328 226.173472,73.7208891 202.179179,73.7208891 C178.184885,73.7208891 162.591069,66.3344328 155.397731,51.56152 L155.397731,17.5133338 Z" id="touch_toes_right"></path>
                </g>
                <g id="touch_covers" transform="translate(14.000000, 149.000000)">
                    <path d="M27.7698454,0.689911622 L104.8191,0.689911622 L88.5037442,61.3030596 L56.1491369,91.5683085 L22.6179493,59.4612007 C6.74705144,56.0990554 -0.484322181,45.0934983 0.923828406,26.4445297 C2.33197899,7.79556097 11.2806513,-0.789311707 27.7698454,0.689911622 Z" id="touch_cover_left"></path>
                    <polygon id="touch_cover_right" points="138.811026 0.172138049 226.007264 0.172138049 231.52198 77.2019835 140.706273 77.2019835"></polygon>
                </g>
                <polygon id="touch_shafts" points="19.8472057 147.582709 262.694672 147.582709 262.694672 0.0513534741 19.8472057 0.0513534741"></polygon>
                <path d="M120.036778,149.747109 L103.758283,211.227122 C119.448911,200.096006 130.080076,192.553522 135.651778,188.599671 C144.775463,188.599671 146.994738,185.837652 150.092317,185.837652 C152.157369,185.837652 152.157369,173.807471 150.092317,149.747109 L120.036778,149.747109 Z" id="touch_counters"></path>
                <path d="M45.0491861,265.06805 C40.8428173,271.548773 42.0079577,274.789134 48.5446074,274.789134 C55.0812571,274.789134 89.380026,274.789134 151.440914,274.789134 L151.440914,187.684506 L135.721686,190.123674 C120.174303,200.268698 108.790246,208.136574 101.569513,213.727301 C94.3487812,219.318029 84.4921167,227.896005 71.9995201,239.461229 L45.0491861,265.06805 Z" id="touch_bottoms"></path>
            </g>
        </g>
    </g>
</svg>