<?xml version="1.0" encoding="UTF-8"?>
<svg width="54px" height="53px" viewBox="0 0 54 53" version="1.1" xmlns="http://www.w3.org/2000/svg" xmlns:xlink="http://www.w3.org/1999/xlink">
    <!-- Generator: Sketch 51.1 (57501) - http://www.bohemiancoding.com/sketch -->
    <title>tn_shoes</title>
    <desc>Created with Sketch.</desc>
    <defs></defs>
    <g id="Shoes" stroke="none" stroke-width="1" fill="none" fill-rule="evenodd">
        <g id="iPhone-8-Copy-21" transform="translate(-210.000000, -133.000000)">
            <g id="tn_shoes" transform="translate(211.000000, 134.000000)">
                <g id="tn_HL">
                    <g id="path-1-link" fill="#000000" fill-rule="nonzero">
                        <rect id="path-1" x="0" y="0" width="52" height="51.1612903" rx="8"></rect>
                    </g>
                    <rect id="Rectangle-path" stroke="#D5D0D0" fill="#FFFFFF" x="0.419354839" y="0.419354839" width="51.1612903" height="50.3225806" rx="8"></rect>
                </g>
                <g transform="translate(3.000000, 2.000000)">
                    <g id="tn_bottom" transform="translate(6.000000, 12.000000)">
                        <g id="tn_bottom_0" transform="translate(0.000000, 0.428571)">
                            <g id="bare-foot" transform="translate(0.000000, 0.571429)" fill="#F4F4F4" stroke="#999999" stroke-width="0.4">
                                <path d="M21.4201686,0.0544557023 C22.2367776,5.70914269 22.6450821,9.90977424 22.6450821,12.6563504 C22.6450821,15.4029265 22.2367776,17.17725 21.4201686,17.9793209 C20.9656999,18.0598563 20.8520827,18.9588156 21.079317,20.6761989 C21.3065514,22.3935821 21.6277942,24.7167359 22.0430454,27.6456601 C21.8028667,29.1218483 21.6827774,30.1058815 21.6827774,30.5977597 C21.6827774,31.0896379 22.1329946,31.8389567 23.0334289,32.8457161 C23.9859965,33.3455111 24.9960037,33.5954085 26.0634505,33.5954085 C27.7670221,33.5327275 28.5372094,33.5327275 29.1706784,32.8457161 C29.8041475,32.1587048 30.969182,29.7661027 30.8279483,29.0124338 C30.6867146,28.2587648 30.1730229,27.0306639 29.8867454,26.3935899 C29.6623405,25.8942056 29.2355033,24.7924117 29.1706784,23.5970818 C29.1706784,21.8110933 29.409187,20.7803948 29.409187,19.9518435 C29.409187,19.3994759 29.2385907,18.7419684 28.8973981,17.9793209 C28.7723665,17.1503149 28.9429629,15.3759914 29.409187,12.6563504 C29.8754112,9.93670936 30.7290929,5.73607781 31.9702321,0.0544557023" id="right"></path>
                                <path d="M15.5275057,1.1976904 C14.4709997,7.79421222 13.9896574,12.5374364 14.0834789,15.427363 C14.1395355,17.1540425 14.2399983,18.6460707 14.6119246,19.5895579 C15.1737324,21.0147288 15.7930684,21.3426653 16.2675898,21.8618315 C16.7421113,22.3809978 16.6200182,23.1125293 16.6200182,23.4207892 C16.6200182,23.5014286 16.2076627,24.2458744 14.9994514,25.0942006 C14.0752098,25.7431421 12.5683811,26.3107891 11.1230086,27.5381641 C7.78817857,30.3700204 6.96746824,31.8205315 6.08594253,32.2225417 C5.49825872,32.4905484 4.58202521,32.4905484 3.33724201,32.2225417 C2.31803963,31.9297618 1.63561551,31.7041978 1.28996963,31.5458497 C0.771500816,31.3083276 0.381523383,31.1756218 0.172100609,30.7725198 C0.0324854264,30.5037852 0.253762679,30.2697444 0.835932368,30.0703976 L3.69032202,28.5674589 L6.08594253,18.9006213 C6.39003892,15.8333633 6.48372386,12.8333575 6.36699735,9.9006039 C6.25027084,6.9678503 6.00366285,4.06687913 5.62717337,1.1976904" id="left"></path>
                            </g>
                            <path d="M11.9694611,27.886061 C10.8057014,28.8040518 9.98472048,29.5320625 9.50651842,30.0700929 C10.2079517,29.8962617 11.0289326,29.6418387 11.9694611,29.3068239 L16.3409593,26.96172 C16.3409593,25.9200665 16.3409593,25.2892761 16.3409593,25.0693488 C16.1919541,25.2777136 14.7347881,26.2166176 11.9694611,27.886061 Z" id="tn_bottom-0" stroke="#4A4A4A" fill="#4A4A4A"></path>
                        </g>
                        <g id="tn_bottom_1" transform="translate(0.000000, 0.428571)">
                            <g id="bare-foot" transform="translate(0.000000, 0.428571)" fill="#F4F4F4" stroke="#999999" stroke-width="0.4">
                                <path d="M21.4201686,0.0544557023 C22.2367776,5.70914269 22.6450821,9.90977424 22.6450821,12.6563504 C22.6450821,15.4029265 22.2367776,17.17725 21.4201686,17.9793209 C20.9656999,18.0598563 20.8520827,18.9588156 21.079317,20.6761989 C21.3065514,22.3935821 21.6277942,24.7167359 22.0430454,27.6456601 C21.8028667,29.1218483 21.6827774,30.1058815 21.6827774,30.5977597 C21.6827774,31.0896379 22.1329946,31.8389567 23.0334289,32.8457161 C23.9859965,33.3455111 24.9960037,33.5954085 26.0634505,33.5954085 C27.7670221,33.5327275 28.5372094,33.5327275 29.1706784,32.8457161 C29.8041475,32.1587048 30.969182,29.7661027 30.8279483,29.0124338 C30.6867146,28.2587648 30.1730229,27.0306639 29.8867454,26.3935899 C29.6623405,25.8942056 29.2355033,24.7924117 29.1706784,23.5970818 C29.1706784,21.8110933 29.409187,20.7803948 29.409187,19.9518435 C29.409187,19.3994759 29.2385907,18.7419684 28.8973981,17.9793209 C28.7723665,17.1503149 28.9429629,15.3759914 29.409187,12.6563504 C29.8754112,9.93670936 30.7290929,5.73607781 31.9702321,0.0544557023" id="right"></path>
                                <path d="M15.5275057,1.1976904 C14.4709997,7.79421222 13.9896574,12.5374364 14.0834789,15.427363 C14.1395355,17.1540425 14.2399983,18.6460707 14.6119246,19.5895579 C15.1737324,21.0147288 15.7930684,21.3426653 16.2675898,21.8618315 C16.7421113,22.3809978 16.6200182,23.1125293 16.6200182,23.4207892 C16.6200182,23.5014286 16.2076627,24.2458744 14.9994514,25.0942006 C14.0752098,25.7431421 12.5683811,26.3107891 11.1230086,27.5381641 C7.78817857,30.3700204 6.96746824,31.8205315 6.08594253,32.2225417 C5.49825872,32.4905484 4.58202521,32.4905484 3.33724201,32.2225417 C2.31803963,31.9297618 1.63561551,31.7041978 1.28996963,31.5458497 C0.771500816,31.3083276 0.381523383,31.1756218 0.172100609,30.7725198 C0.0324854264,30.5037852 0.253762679,30.2697444 0.835932368,30.0703976 L3.69032202,28.5674589 L6.08594253,18.9006213 C6.39003892,15.8333633 6.48372386,12.8333575 6.36699735,9.9006039 C6.25027084,6.9678503 6.00366285,4.06687913 5.62717337,1.1976904" id="left"></path>
                            </g>
                            <path d="M0.0878506025,31.1486976 C0.238851727,31.1486976 1.71399624,32.1246578 2.75537729,32.403373 C3.79675833,32.6820882 5.41234723,32.9033621 5.97324078,32.6246469 C7.20425987,32.0129378 8.85935395,29.7070226 10.9123623,28.1821432 C11.6506388,27.2680448 13.7895224,26.3471723 15.227647,25.4112432 C15.5748967,25.1852536 15.9752939,24.7899002 16.2385327,24.1043825 C16.5017714,23.4188649 16.5359823,22.8162582 16.662856,23.0814602 C16.8191223,23.6303982 16.7410766,26.9521151 16.662856,27.3741491 C16.6160851,27.626498 14.8654087,27.9414463 13.3475658,28.8235773 C11.829723,29.7057083 7.81982437,33.0157216 6.6575769,33.4819462 C4.22732278,34.4568197 0.478861684,32.5337704 0.306190355,32.2852595 C0.133519026,32.0367487 -0.0631505225,31.1486976 0.0878506025,31.1486976 Z" id="bottom-1" stroke="#4A4A4A" fill="#4A4A4A"></path>
                        </g>
                        <g id="tn_bottom_2">
                            <g id="bare-foot" transform="translate(0.000000, 0.857143)" fill="#F4F4F4" stroke="#999999" stroke-width="0.4">
                                <path d="M21.4201686,0.0544557023 C22.2367776,5.70914269 22.6450821,9.90977424 22.6450821,12.6563504 C22.6450821,15.4029265 22.2367776,17.17725 21.4201686,17.9793209 C20.9656999,18.0598563 20.8520827,18.9588156 21.079317,20.6761989 C21.3065514,22.3935821 21.6277942,24.7167359 22.0430454,27.6456601 C21.8028667,29.1218483 21.6827774,30.1058815 21.6827774,30.5977597 C21.6827774,31.0896379 22.1329946,31.8389567 23.0334289,32.8457161 C23.9859965,33.3455111 24.9960037,33.5954085 26.0634505,33.5954085 C27.7670221,33.5327275 28.5372094,33.5327275 29.1706784,32.8457161 C29.8041475,32.1587048 30.969182,29.7661027 30.8279483,29.0124338 C30.6867146,28.2587648 30.1730229,27.0306639 29.8867454,26.3935899 C29.6623405,25.8942056 29.2355033,24.7924117 29.1706784,23.5970818 C29.1706784,21.8110933 29.409187,20.7803948 29.409187,19.9518435 C29.409187,19.3994759 29.2385907,18.7419684 28.8973981,17.9793209 C28.7723665,17.1503149 28.9429629,15.3759914 29.409187,12.6563504 C29.8754112,9.93670936 30.7290929,5.73607781 31.9702321,0.0544557023" id="right"></path>
                                <path d="M15.5275057,1.1976904 C14.4709997,7.79421222 13.9896574,12.5374364 14.0834789,15.427363 C14.1395355,17.1540425 14.2399983,18.6460707 14.6119246,19.5895579 C15.1737324,21.0147288 15.7930684,21.3426653 16.2675898,21.8618315 C16.7421113,22.3809978 16.6200182,23.1125293 16.6200182,23.4207892 C16.6200182,23.5014286 16.2076627,24.2458744 14.9994514,25.0942006 C14.0752098,25.7431421 12.5683811,26.3107891 11.1230086,27.5381641 C7.78817857,30.3700204 6.96746824,31.8205315 6.08594253,32.2225417 C5.49825872,32.4905484 4.58202521,32.4905484 3.33724201,32.2225417 C2.31803963,31.9297618 1.63561551,31.7041978 1.28996963,31.5458497 C0.771500816,31.3083276 0.381523383,31.1756218 0.172100609,30.7725198 C0.0324854264,30.5037852 0.253762679,30.2697444 0.835932368,30.0703976 L3.69032202,28.5674589 L6.08594253,18.9006213 C6.39003892,15.8333633 6.48372386,12.8333575 6.36699735,9.9006039 C6.25027084,6.9678503 6.00366285,4.06687913 5.62717337,1.1976904" id="left"></path>
                            </g>
                            <path d="M7.21199316,31.7533367 L6,32.9771833 C12.0671468,32.9771833 15.6071529,32.9771833 16.6200182,32.9771833 C16.6200182,32.1489175 15.974249,32.1489175 15.974249,29.5105972 C15.974249,26.872277 16.6200182,25.3369566 16.6200182,24.1254927 C16.6200182,23.9141023 15.9019695,25.5456793 13.4525815,26.6009809 C12.687822,26.7531487 10.8838479,28.2330707 10.2185968,28.8437204 C9.61584024,29.3970047 8.61363905,30.3668768 7.21199316,31.7533367 Z" id="bottom-2" stroke="#4A4A4A" fill="#4A4A4A"></path>
                        </g>
                        <g id="tn_bottom_3">
                            <g id="bare-foot" transform="translate(0.000000, 0.857143)" fill="#F4F4F4" stroke="#999999" stroke-width="0.4">
                                <path d="M21.4201686,0.0544557023 C22.2367776,5.70914269 22.6450821,9.90977424 22.6450821,12.6563504 C22.6450821,15.4029265 22.2367776,17.17725 21.4201686,17.9793209 C20.9656999,18.0598563 20.8520827,18.9588156 21.079317,20.6761989 C21.3065514,22.3935821 21.6277942,24.7167359 22.0430454,27.6456601 C21.8028667,29.1218483 21.6827774,30.1058815 21.6827774,30.5977597 C21.6827774,31.0896379 22.1329946,31.8389567 23.0334289,32.8457161 C23.9859965,33.3455111 24.9960037,33.5954085 26.0634505,33.5954085 C27.7670221,33.5327275 28.5372094,33.5327275 29.1706784,32.8457161 C29.8041475,32.1587048 30.969182,29.7661027 30.8279483,29.0124338 C30.6867146,28.2587648 30.1730229,27.0306639 29.8867454,26.3935899 C29.6623405,25.8942056 29.2355033,24.7924117 29.1706784,23.5970818 C29.1706784,21.8110933 29.409187,20.7803948 29.409187,19.9518435 C29.409187,19.3994759 29.2385907,18.7419684 28.8973981,17.9793209 C28.7723665,17.1503149 28.9429629,15.3759914 29.409187,12.6563504 C29.8754112,9.93670936 30.7290929,5.73607781 31.9702321,0.0544557023" id="right"></path>
                                <path d="M15.5275057,1.1976904 C14.4709997,7.79421222 13.9896574,12.5374364 14.0834789,15.427363 C14.1395355,17.1540425 14.2399983,18.6460707 14.6119246,19.5895579 C15.1737324,21.0147288 15.7930684,21.3426653 16.2675898,21.8618315 C16.7421113,22.3809978 16.6200182,23.1125293 16.6200182,23.4207892 C16.6200182,23.5014286 16.2076627,24.2458744 14.9994514,25.0942006 C14.0752098,25.7431421 12.5683811,26.3107891 11.1230086,27.5381641 C7.78817857,30.3700204 6.96746824,31.8205315 6.08594253,32.2225417 C5.49825872,32.4905484 4.58202521,32.4905484 3.33724201,32.2225417 C2.31803963,31.9297618 1.63561551,31.7041978 1.28996963,31.5458497 C0.771500816,31.3083276 0.381523383,31.1756218 0.172100609,30.7725198 C0.0324854264,30.5037852 0.253762679,30.2697444 0.835932368,30.0703976 L3.69032202,28.5674589 L6.08594253,18.9006213 C6.39003892,15.8333633 6.48372386,12.8333575 6.36699735,9.9006039 C6.25027084,6.9678503 6.00366285,4.06687913 5.62717337,1.1976904" id="left"></path>
                            </g>
                            <path d="M12,27.7981682 L12.1778182,30.6863492 L16.1498035,30.6863492 L16.4507464,24.5535064 C15.7866496,25.3240555 15.1124297,25.95305 14.4280865,26.4404897 C13.6719912,26.6892052 12.862629,27.1417646 12,27.7981682 Z" id="bottom-3" stroke="#4A4A4A" fill="#4A4A4A"></path>
                        </g>
                        <g id="tn_bottom_4" transform="translate(0.000000, 0.428571)">
                            <g id="bare-foot" transform="translate(0.000000, 0.428571)" fill="#F4F4F4" stroke="#999999" stroke-width="0.4">
                                <path d="M21.4201686,0.0544557023 C22.2367776,5.70914269 22.6450821,9.90977424 22.6450821,12.6563504 C22.6450821,15.4029265 22.2367776,17.17725 21.4201686,17.9793209 C20.9656999,18.0598563 20.8520827,18.9588156 21.079317,20.6761989 C21.3065514,22.3935821 21.6277942,24.7167359 22.0430454,27.6456601 C21.8028667,29.1218483 21.6827774,30.1058815 21.6827774,30.5977597 C21.6827774,31.0896379 22.1329946,31.8389567 23.0334289,32.8457161 C23.9859965,33.3455111 24.9960037,33.5954085 26.0634505,33.5954085 C27.7670221,33.5327275 28.5372094,33.5327275 29.1706784,32.8457161 C29.8041475,32.1587048 30.969182,29.7661027 30.8279483,29.0124338 C30.6867146,28.2587648 30.1730229,27.0306639 29.8867454,26.3935899 C29.6623405,25.8942056 29.2355033,24.7924117 29.1706784,23.5970818 C29.1706784,21.8110933 29.409187,20.7803948 29.409187,19.9518435 C29.409187,19.3994759 29.2385907,18.7419684 28.8973981,17.9793209 C28.7723665,17.1503149 28.9429629,15.3759914 29.409187,12.6563504 C29.8754112,9.93670936 30.7290929,5.73607781 31.9702321,0.0544557023" id="right"></path>
                                <path d="M15.5275057,1.1976904 C14.4709997,7.79421222 13.9896574,12.5374364 14.0834789,15.427363 C14.1395355,17.1540425 14.2399983,18.6460707 14.6119246,19.5895579 C15.1737324,21.0147288 15.7930684,21.3426653 16.2675898,21.8618315 C16.7421113,22.3809978 16.6200182,23.1125293 16.6200182,23.4207892 C16.6200182,23.5014286 16.2076627,24.2458744 14.9994514,25.0942006 C14.0752098,25.7431421 12.5683811,26.3107891 11.1230086,27.5381641 C7.78817857,30.3700204 6.96746824,31.8205315 6.08594253,32.2225417 C5.49825872,32.4905484 4.58202521,32.4905484 3.33724201,32.2225417 C2.31803963,31.9297618 1.63561551,31.7041978 1.28996963,31.5458497 C0.771500816,31.3083276 0.381523383,31.1756218 0.172100609,30.7725198 C0.0324854264,30.5037852 0.253762679,30.2697444 0.835932368,30.0703976 L3.69032202,28.5674589 L6.08594253,18.9006213 C6.39003892,15.8333633 6.48372386,12.8333575 6.36699735,9.9006039 C6.25027084,6.9678503 6.00366285,4.06687913 5.62717337,1.1976904" id="left"></path>
                            </g>
                            <path d="M12,27.9410253 L12.4981411,33.6324498 L15.7126281,33.6324498 L16.4507464,24.6963635 C15.7866496,25.4669127 15.1124297,26.0959071 14.4280865,26.5833469 C13.6719912,26.8320623 12.862629,27.2846218 12,27.9410253 Z" id="bottom-4" stroke="#4A4A4A" fill="#4A4A4A"></path>
                        </g>
                        <g id="tn_bottom_5" transform="translate(0.000000, 1.000000)">
                            <g id="bare-foot" fill="#F4F4F4" stroke="#999999" stroke-width="0.4">
                                <path d="M21.4201686,0.0544557023 C22.2367776,5.70914269 22.6450821,9.90977424 22.6450821,12.6563504 C22.6450821,15.4029265 22.2367776,17.17725 21.4201686,17.9793209 C20.9656999,18.0598563 20.8520827,18.9588156 21.079317,20.6761989 C21.3065514,22.3935821 21.6277942,24.7167359 22.0430454,27.6456601 C21.8028667,29.1218483 21.6827774,30.1058815 21.6827774,30.5977597 C21.6827774,31.0896379 22.1329946,31.8389567 23.0334289,32.8457161 C23.9859965,33.3455111 24.9960037,33.5954085 26.0634505,33.5954085 C27.7670221,33.5327275 28.5372094,33.5327275 29.1706784,32.8457161 C29.8041475,32.1587048 30.969182,29.7661027 30.8279483,29.0124338 C30.6867146,28.2587648 30.1730229,27.0306639 29.8867454,26.3935899 C29.6623405,25.8942056 29.2355033,24.7924117 29.1706784,23.5970818 C29.1706784,21.8110933 29.409187,20.7803948 29.409187,19.9518435 C29.409187,19.3994759 29.2385907,18.7419684 28.8973981,17.9793209 C28.7723665,17.1503149 28.9429629,15.3759914 29.409187,12.6563504 C29.8754112,9.93670936 30.7290929,5.73607781 31.9702321,0.0544557023" id="right"></path>
                                <path d="M15.5275057,1.1976904 C14.4709997,7.79421222 13.9896574,12.5374364 14.0834789,15.427363 C14.1395355,17.1540425 14.2399983,18.6460707 14.6119246,19.5895579 C15.1737324,21.0147288 15.7930684,21.3426653 16.2675898,21.8618315 C16.7421113,22.3809978 16.6200182,23.1125293 16.6200182,23.4207892 C16.6200182,23.5014286 16.2076627,24.2458744 14.9994514,25.0942006 C14.0752098,25.7431421 12.5683811,26.3107891 11.1230086,27.5381641 C7.78817857,30.3700204 6.96746824,31.8205315 6.08594253,32.2225417 C5.49825872,32.4905484 4.58202521,32.4905484 3.33724201,32.2225417 C2.31803963,31.9297618 1.63561551,31.7041978 1.28996963,31.5458497 C0.771500816,31.3083276 0.381523383,31.1756218 0.172100609,30.7725198 C0.0324854264,30.5037852 0.253762679,30.2697444 0.835932368,30.0703976 L3.69032202,28.5674589 L6.08594253,18.9006213 C6.39003892,15.8333633 6.48372386,12.8333575 6.36699735,9.9006039 C6.25027084,6.9678503 6.00366285,4.06687913 5.62717337,1.1976904" id="left"></path>
                            </g>
                            <path d="M14,26.8556865 L14,30.5848462 L15.8907464,30.5848462 L15.8907464,25.124935 C15.5757108,25.5773953 15.2605864,25.9404331 14.9453732,26.2140485 C14.63016,26.4876639 14.3150356,26.7015432 14,26.8556865 Z" id="bottom-5" stroke="#4A4A4A" fill="#4A4A4A"></path>
                        </g>
                        <g id="tn_bottom_6" transform="translate(0.000000, 1.000000)">
                            <g id="bare-foot" fill="#F4F4F4" stroke="#999999" stroke-width="0.4">
                                <path d="M21.4201686,0.0544557023 C22.2367776,5.70914269 22.6450821,9.90977424 22.6450821,12.6563504 C22.6450821,15.4029265 22.2367776,17.17725 21.4201686,17.9793209 C20.9656999,18.0598563 20.8520827,18.9588156 21.079317,20.6761989 C21.3065514,22.3935821 21.6277942,24.7167359 22.0430454,27.6456601 C21.8028667,29.1218483 21.6827774,30.1058815 21.6827774,30.5977597 C21.6827774,31.0896379 22.1329946,31.8389567 23.0334289,32.8457161 C23.9859965,33.3455111 24.9960037,33.5954085 26.0634505,33.5954085 C27.7670221,33.5327275 28.5372094,33.5327275 29.1706784,32.8457161 C29.8041475,32.1587048 30.969182,29.7661027 30.8279483,29.0124338 C30.6867146,28.2587648 30.1730229,27.0306639 29.8867454,26.3935899 C29.6623405,25.8942056 29.2355033,24.7924117 29.1706784,23.5970818 C29.1706784,21.8110933 29.409187,20.7803948 29.409187,19.9518435 C29.409187,19.3994759 29.2385907,18.7419684 28.8973981,17.9793209 C28.7723665,17.1503149 28.9429629,15.3759914 29.409187,12.6563504 C29.8754112,9.93670936 30.7290929,5.73607781 31.9702321,0.0544557023" id="right"></path>
                                <path d="M15.5275057,1.1976904 C14.4709997,7.79421222 13.9896574,12.5374364 14.0834789,15.427363 C14.1395355,17.1540425 14.2399983,18.6460707 14.6119246,19.5895579 C15.1737324,21.0147288 15.7930684,21.3426653 16.2675898,21.8618315 C16.7421113,22.3809978 16.6200182,23.1125293 16.6200182,23.4207892 C16.6200182,23.5014286 16.2076627,24.2458744 14.9994514,25.0942006 C14.0752098,25.7431421 12.5683811,26.3107891 11.1230086,27.5381641 C7.78817857,30.3700204 6.96746824,31.8205315 6.08594253,32.2225417 C5.49825872,32.4905484 4.58202521,32.4905484 3.33724201,32.2225417 C2.31803963,31.9297618 1.63561551,31.7041978 1.28996963,31.5458497 C0.771500816,31.3083276 0.381523383,31.1756218 0.172100609,30.7725198 C0.0324854264,30.5037852 0.253762679,30.2697444 0.835932368,30.0703976 L3.69032202,28.5674589 L6.08594253,18.9006213 C6.39003892,15.8333633 6.48372386,12.8333575 6.36699735,9.9006039 C6.25027084,6.9678503 6.00366285,4.06687913 5.62717337,1.1976904" id="left"></path>
                            </g>
                            <path d="M14,25.8556865 L14,32.9372847 L15.8907464,32.9372847 L15.8907464,24.124935 C15.5757108,24.5773953 15.2605864,24.9404331 14.9453732,25.2140485 C14.63016,25.4876639 14.3150356,25.7015432 14,25.8556865 Z" id="bottom-6" stroke="#4A4A4A" fill="#4A4A4A"></path>
                        </g>
                    </g>
                    <g id="tn_toes" transform="translate(0.000000, 14.000000)">
                        <g id="tn_toes_0" transform="translate(2.000000, 0.000000)" fill="#F4F4F4" stroke="#8F8F8F" stroke-width="0.6">
                            <path d="M25.3015183,6.72203586 C25.6281677,9.19077433 26.0899542,12.5303079 26.6868778,16.7406364 C26.3416209,18.8626569 26.1689925,20.2772046 26.1689925,20.9842795 C26.1689925,21.6913544 26.8161797,22.7685003 28.1105541,24.215717 C29.47987,24.9341721 30.9317553,25.2933997 32.4662101,25.2933997 C34.9150943,25.2032957 36.0222385,25.2032957 36.9328502,24.215717 C37.843462,23.2281382 39.5181991,19.7887727 39.3151757,18.7053735 C39.1121522,17.6219744 38.3737204,15.8565794 37.9621965,14.9407855 C37.6396145,14.2229205 37.026036,12.6390918 36.9328502,10.9208051 C36.9328502,8.35344662 37.2757064,6.87181759 37.2757064,5.68077499 C37.2757064,4.48973239 24.8115442,3.01892816 25.3015183,6.72203586 Z" id="right-toe-0"></path>
                            <path d="M19.210398,1.4521685 C19.2875826,3.82963902 19.4259101,5.8840174 19.9380166,7.18310802 C20.7115716,9.14543034 21.5643372,9.59696715 22.2177074,10.3118088 C22.8710775,11.0266505 22.7029672,12.0338985 22.7029672,12.4583427 C22.7029672,12.5693753 22.1351936,13.5944051 20.4716035,14.7624682 C19.1990122,15.6559979 17.1242551,16.4375928 15.134117,18.1275694 C10.5423788,22.0267614 9.41234012,24.0239748 8.19856454,24.5775039 C7.38938082,24.9465233 6.12781596,24.9465233 4.41386997,24.5775039 C3.01052695,24.1743743 2.07089498,23.8637946 1.59497406,23.6457646 C0.881092689,23.3187196 0.34413151,23.1359966 0.0557766202,22.5809642 C-0.136459973,22.2109425 0.168217387,21.8886911 0.9698087,21.6142098 L4.90002698,19.5448087 L8.19856454,6.23450899 C14.381769,1.0885439 18.0523802,-0.505569594 19.210398,1.4521685 Z" id="left-toe-0"></path>
                        </g>
                        <g id="tn_toes_1">
                            <path d="M27.3015183,6.72203586 C27.6281677,9.19077433 28.0899542,12.5303079 28.6868778,16.7406364 C28.3416209,18.8626569 28.1689925,20.2772046 28.1689925,20.9842795 C28.1689925,21.6913544 28.8161797,22.7685003 30.1105541,24.215717 C31.47987,24.9341721 32.9317553,25.2933997 34.4662101,25.2933997 C36.9150943,25.2032957 38.0222385,25.2032957 38.9328502,24.215717 C39.843462,23.2281382 41.5181991,19.7887727 41.3151757,18.7053735 C41.1121522,17.6219744 40.3737204,15.8565794 39.9621965,14.9407855 C39.6396145,14.2229205 39.026036,12.6390918 38.9328502,10.9208051 C38.9328502,8.35344662 39.2757064,6.87181759 39.2757064,5.68077499 C39.2757064,4.48973239 26.8115442,3.01892816 27.3015183,6.72203586 Z" id="right-toe-0" stroke="#8F8F8F" stroke-width="0.6" fill="#F4F4F4"></path>
                            <path d="M21.210398,1.4521685 C21.2875826,3.82963902 21.4259101,5.8840174 21.9380166,7.18310802 C22.7115716,9.14543034 23.5643372,9.59696715 24.2177074,10.3118088 C24.8710775,11.0266505 24.7029672,12.0338985 24.7029672,12.4583427 C24.7029672,12.5693753 24.1351936,13.5944051 22.4716035,14.7624682 C21.1990122,15.6559979 19.1242551,16.4375928 17.134117,18.1275694 C12.5423788,22.0267614 11.4123401,24.0239748 10.1985645,24.5775039 C9.38938082,24.9465233 8.12781596,24.9465233 6.41386997,24.5775039 C5.01052695,24.1743743 4.07089498,23.8637946 3.59497406,23.6457646 C2.88109269,23.3187196 2.34413151,23.1359966 2.05577662,22.5809642 C1.86354003,22.2109425 2.16821739,21.8886911 2.9698087,21.6142098 L6.90002698,19.5448087 L10.1985645,6.23450899 C16.381769,1.0885439 20.0523802,-0.505569594 21.210398,1.4521685 Z" id="left-toe-0" stroke="#8F8F8F" stroke-width="0.6" fill="#F4F4F4"></path>
                            <path d="M28.4317452,18.5532402 C28.8433328,19.8393751 28.2989487,20.6571582 29.6261138,21.4260807 C30.9532789,22.1950031 39.3371353,22.134815 40.4955965,21.4260807 C41.4924656,20.3736313 41.3611042,19.2905917 41.60969,18.5532402 C41.5270579,18.3264206 43.2325757,22.6637668 41.7797775,25.205808 C40.3269792,27.7478491 40.0880864,28.9895214 35.1300777,28.9895214 C30.172069,28.9895214 28.0202867,24.796882 27.8768399,23.4842266 C27.7134536,21.989108 28.4317452,18.8194483 28.4317452,18.5532402 Z" id="right-toe-1" stroke="#4A4A4A" fill="#4A4A4A"></path>
                            <path d="M11.6057207,23.4801489 C11.3057175,23.8491969 10.5363137,24.5191017 8.5729347,25.004485 C6.60955565,25.4898683 4.27296219,25.5078588 2.1852313,25.004485 C0.0975004043,24.5011112 -0.168966571,23.9112659 0.0746158169,22.8118373 C0.237004076,22.0788848 0.940542569,21.4898729 2.1852313,21.0448015 C4.08418167,20.0571966 5.53902634,19.2878768 6.54976528,18.7368421 C8.6962574,20.8413426 9.79493583,21.8779095 11.6057207,23.4801489 Z" id="left-toe-1" stroke="#4A4A4A" fill="#4A4A4A"></path>
                        </g>
                        <g id="tn_toes_2" transform="translate(1.000000, 0.000000)">
                            <path d="M26.3015183,6.72203586 C26.6281677,9.19077433 27.0899542,12.5303079 27.6868778,16.7406364 C27.3416209,18.8626569 27.1689925,20.2772046 27.1689925,20.9842795 C27.1689925,21.6913544 27.8161797,22.7685003 29.1105541,24.215717 C30.47987,24.9341721 31.9317553,25.2933997 33.4662101,25.2933997 C35.9150943,25.2032957 37.0222385,25.2032957 37.9328502,24.215717 C38.843462,23.2281382 40.5181991,19.7887727 40.3151757,18.7053735 C40.1121522,17.6219744 39.3737204,15.8565794 38.9621965,14.9407855 C38.6396145,14.2229205 38.026036,12.6390918 37.9328502,10.9208051 C37.9328502,8.35344662 38.2757064,6.87181759 38.2757064,5.68077499 C38.2757064,4.48973239 25.8115442,3.01892816 26.3015183,6.72203586 Z" id="right-toe-0" stroke="#8F8F8F" stroke-width="0.6" fill="#F4F4F4"></path>
                            <path d="M20.210398,1.4521685 C20.2875826,3.82963902 20.4259101,5.8840174 20.9380166,7.18310802 C21.7115716,9.14543034 22.5643372,9.59696715 23.2177074,10.3118088 C23.8710775,11.0266505 23.7029672,12.0338985 23.7029672,12.4583427 C23.7029672,12.5693753 23.1351936,13.5944051 21.4716035,14.7624682 C20.1990122,15.6559979 18.1242551,16.4375928 16.134117,18.1275694 C11.5423788,22.0267614 10.4123401,24.0239748 9.19856454,24.5775039 C8.38938082,24.9465233 7.12781596,24.9465233 5.41386997,24.5775039 C4.01052695,24.1743743 3.07089498,23.8637946 2.59497406,23.6457646 C1.88109269,23.3187196 1.34413151,23.1359966 1.05577662,22.5809642 C0.863540027,22.2109425 1.16821739,21.8886911 1.9698087,21.6142098 L5.90002698,19.5448087 L9.19856454,6.23450899 C15.381769,1.0885439 19.0523802,-0.505569594 20.210398,1.4521685 Z" id="left-toe-0" stroke="#8F8F8F" stroke-width="0.6" fill="#F4F4F4"></path>
                            <path d="M27.7042757,18.1507985 C28.0958562,19.374415 28.2623339,20.5798953 28.6017037,20.8130828 C29.8643559,21.5446282 38.0850257,21.4873659 39.1871746,20.8130828 C40.1355863,19.8117926 40.030603,18.9730362 40.2671052,18.2715271 C40.1884898,18.0557331 41.7856441,20.4236182 40.4034657,22.8420918 C39.0212874,25.2605654 35.4088907,30.2229093 34.106112,30.2229093 C32.8033333,30.2229093 27.3729286,24.0909396 27.2364548,22.8420918 C27.0810106,21.4196502 27.7042757,18.4040664 27.7042757,18.1507985 Z" id="right-toe-2" stroke="#4A4A4A" fill="#4A4A4A"></path>
                            <path d="M10.6465798,23.4029448 C10.3817933,23.728671 9.64095777,24.519704 7.91703435,24.519704 C6.55832193,24.4650528 5.18857021,24.4128191 3.39037759,24.0901998 C3.3431626,24.0817288 3.27039548,24.0714381 3.17207625,24.0593276 C1.18646365,23.6007121 0.130642152,23.1482171 0.00461176159,22.7018428 C0.00461176159,22.4241759 0.780388344,21.9413875 2.33194151,21.2534777 C4.00797816,20.3818056 5.29204171,19.7027946 6.18413217,19.2164447 C8.07865217,21.0739023 9.04835909,21.9887888 10.6465798,23.4029448 Z" id="left-toe-2" stroke="#4A4A4A" fill="#4A4A4A"></path>
                        </g>
                    </g>
                    <g id="tn_covers" transform="translate(6.000000, 13.000000)">
                        <g id="tn_covers_1">
                            <g id="bare-foot" fill="#F4F4F4" stroke="#999999" stroke-width="0.4">
                                <path d="M21.4201686,0.0544557023 C22.2367776,5.70914269 22.6450821,9.90977424 22.6450821,12.6563504 C22.6450821,15.4029265 22.2367776,17.17725 21.4201686,17.9793209 C20.9656999,18.0598563 20.8520827,18.9588156 21.079317,20.6761989 C21.3065514,22.3935821 21.6277942,24.7167359 22.0430454,27.6456601 C21.8028667,29.1218483 21.6827774,30.1058815 21.6827774,30.5977597 C21.6827774,31.0896379 22.1329946,31.8389567 23.0334289,32.8457161 C23.9859965,33.3455111 24.9960037,33.5954085 26.0634505,33.5954085 C27.7670221,33.5327275 28.5372094,33.5327275 29.1706784,32.8457161 C29.8041475,32.1587048 30.969182,29.7661027 30.8279483,29.0124338 C30.6867146,28.2587648 30.1730229,27.0306639 29.8867454,26.3935899 C29.6623405,25.8942056 29.2355033,24.7924117 29.1706784,23.5970818 C29.1706784,21.8110933 29.409187,20.7803948 29.409187,19.9518435 C29.409187,19.3994759 29.2385907,18.7419684 28.8973981,17.9793209 C28.7723665,17.1503149 28.9429629,15.3759914 29.409187,12.6563504 C29.8754112,9.93670936 30.7290929,5.73607781 31.9702321,0.0544557023" id="right"></path>
                                <path d="M15.5275057,1.1976904 C14.4709997,7.79421222 13.9896574,12.5374364 14.0834789,15.427363 C14.1395355,17.1540425 14.2399983,18.6460707 14.6119246,19.5895579 C15.1737324,21.0147288 15.7930684,21.3426653 16.2675898,21.8618315 C16.7421113,22.3809978 16.6200182,23.1125293 16.6200182,23.4207892 C16.6200182,23.5014286 16.2076627,24.2458744 14.9994514,25.0942006 C14.0752098,25.7431421 12.5683811,26.3107891 11.1230086,27.5381641 C7.78817857,30.3700204 6.96746824,31.8205315 6.08594253,32.2225417 C5.49825872,32.4905484 4.58202521,32.4905484 3.33724201,32.2225417 C2.31803963,31.9297618 1.63561551,31.7041978 1.28996963,31.5458497 C0.771500816,31.3083276 0.381523383,31.1756218 0.172100609,30.7725198 C0.0324854264,30.5037852 0.253762679,30.2697444 0.835932368,30.0703976 L3.69032202,28.5674589 L6.08594253,18.9006213 C6.39003892,15.8333633 6.48372386,12.8333575 6.36699735,9.9006039 C6.25027084,6.9678503 6.00366285,4.06687913 5.62717337,1.1976904" id="left"></path>
                            </g>
                            <path d="M4.08310015,28.0316392 L7.26576318,31.0749912 L9.07365617,29.2081205 L4.8695431,25.064002 C4.64029714,26.0322528 4.48071668,26.6811166 4.39080171,27.0105934 C4.30088674,27.3400703 4.19831956,27.6804189 4.08310015,28.0316392 Z" id="left-cover-1" stroke="#4A4A4A" fill="#4A4A4A"></path>
                            <path d="M22.1428571,29.6559654 C22.8495869,29.6786485 23.7100242,29.3661444 26.8388237,29.3661444 C29.9676232,29.3661444 29.950919,29.672358 30.6150652,29.6559654 C30.7546207,29.4822304 30.7055672,28.777588 30.6150652,28.3008631 C30.4846527,27.6139074 30.247943,27.2024963 30.1912245,27.1428571 C29.9259821,27.0305189 29.1543502,26.9445831 26.7142857,26.9445831 C24.2742212,26.9445831 23.7617555,27.1852858 22.5010824,27.1428571 C22.5010824,27.3674801 22.1428571,29.6559654 22.1428571,29.6559654 Z" id="right-cover-1" stroke="#4A4A4A" fill="#4A4A4A"></path>
                        </g>
                        <g id="tn_covers_2">
                            <g id="bare-foot" fill="#F4F4F4" stroke="#999999" stroke-width="0.4">
                                <path d="M21.4201686,0.0544557023 C22.2367776,5.70914269 22.6450821,9.90977424 22.6450821,12.6563504 C22.6450821,15.4029265 22.2367776,17.17725 21.4201686,17.9793209 C20.9656999,18.0598563 20.8520827,18.9588156 21.079317,20.6761989 C21.3065514,22.3935821 21.6277942,24.7167359 22.0430454,27.6456601 C21.8028667,29.1218483 21.6827774,30.1058815 21.6827774,30.5977597 C21.6827774,31.0896379 22.1329946,31.8389567 23.0334289,32.8457161 C23.9859965,33.3455111 24.9960037,33.5954085 26.0634505,33.5954085 C27.7670221,33.5327275 28.5372094,33.5327275 29.1706784,32.8457161 C29.8041475,32.1587048 30.969182,29.7661027 30.8279483,29.0124338 C30.6867146,28.2587648 30.1730229,27.0306639 29.8867454,26.3935899 C29.6623405,25.8942056 29.2355033,24.7924117 29.1706784,23.5970818 C29.1706784,21.8110933 29.409187,20.7803948 29.409187,19.9518435 C29.409187,19.3994759 29.2385907,18.7419684 28.8973981,17.9793209 C28.7723665,17.1503149 28.9429629,15.3759914 29.409187,12.6563504 C29.8754112,9.93670936 30.7290929,5.73607781 31.9702321,0.0544557023" id="right"></path>
                                <path d="M15.5275057,1.1976904 C14.4709997,7.79421222 13.9896574,12.5374364 14.0834789,15.427363 C14.1395355,17.1540425 14.2399983,18.6460707 14.6119246,19.5895579 C15.1737324,21.0147288 15.7930684,21.3426653 16.2675898,21.8618315 C16.7421113,22.3809978 16.6200182,23.1125293 16.6200182,23.4207892 C16.6200182,23.5014286 16.2076627,24.2458744 14.9994514,25.0942006 C14.0752098,25.7431421 12.5683811,26.3107891 11.1230086,27.5381641 C7.78817857,30.3700204 6.96746824,31.8205315 6.08594253,32.2225417 C5.49825872,32.4905484 4.58202521,32.4905484 3.33724201,32.2225417 C2.31803963,31.9297618 1.63561551,31.7041978 1.28996963,31.5458497 C0.771500816,31.3083276 0.381523383,31.1756218 0.172100609,30.7725198 C0.0324854264,30.5037852 0.253762679,30.2697444 0.835932368,30.0703976 L3.69032202,28.5674589 L6.08594253,18.9006213 C6.39003892,15.8333633 6.48372386,12.8333575 6.36699735,9.9006039 C6.25027084,6.9678503 6.00366285,4.06687913 5.62717337,1.1976904" id="left"></path>
                            </g>
                            <path d="M4,27.6783067 L7.24967193,30.7142857 C7.81735522,30.0297167 8.57741817,29.2484913 9.52986078,28.3706097 C10.4823034,27.4927281 11.091784,26.9500604 11.3583026,26.7426067 L5.45884473,22.0110405 C4.74557201,24.8374052 4.3432596,26.414594 4.25190751,26.7426067 C4.16055541,27.0706195 4.07658624,27.3825195 4,27.6783067 Z" id="left-cover-2" stroke="#4A4A4A" fill="#4A4A4A"></path>
                            <path d="M22.0233309,29.2203838 C24.4516567,29.3716731 27.8976433,29.3716731 30.9941787,29.2203838 C31.1628606,28.7987337 31.4573498,28.2103028 31.2549217,27.5154594 C31.1553826,27.1737872 30.1010029,25.262787 29.9440195,24.7704828 C29.787036,24.2781786 29.6230095,23.4423425 29.5376393,23.2680956 C28.555605,23.2680956 28.555605,22.1609779 25.9108946,22.1609779 C23.2661843,22.1609779 23.1023167,23.3500834 21.8473293,23.2680956 C21.8232367,23.3608115 22.0751282,24.3052589 22.1530288,25.1894493 C22.2456603,26.2408382 22.1652494,27.2155015 22.1530288,27.5154594 C22.1181472,28.3716369 22.0233309,28.950794 22.0233309,29.2203838 Z" id="right-cover-2" stroke="#4A4A4A" fill="#4A4A4A"></path>
                        </g>
                        <g id="tn_covers_3">
                            <g id="bare-foot" fill="#F4F4F4" stroke="#999999" stroke-width="0.4">
                                <path d="M21.4201686,0.0544557023 C22.2367776,5.70914269 22.6450821,9.90977424 22.6450821,12.6563504 C22.6450821,15.4029265 22.2367776,17.17725 21.4201686,17.9793209 C20.9656999,18.0598563 20.8520827,18.9588156 21.079317,20.6761989 C21.3065514,22.3935821 21.6277942,24.7167359 22.0430454,27.6456601 C21.8028667,29.1218483 21.6827774,30.1058815 21.6827774,30.5977597 C21.6827774,31.0896379 22.1329946,31.8389567 23.0334289,32.8457161 C23.9859965,33.3455111 24.9960037,33.5954085 26.0634505,33.5954085 C27.7670221,33.5327275 28.5372094,33.5327275 29.1706784,32.8457161 C29.8041475,32.1587048 30.969182,29.7661027 30.8279483,29.0124338 C30.6867146,28.2587648 30.1730229,27.0306639 29.8867454,26.3935899 C29.6623405,25.8942056 29.2355033,24.7924117 29.1706784,23.5970818 C29.1706784,21.8110933 29.409187,20.7803948 29.409187,19.9518435 C29.409187,19.3994759 29.2385907,18.7419684 28.8973981,17.9793209 C28.7723665,17.1503149 28.9429629,15.3759914 29.409187,12.6563504 C29.8754112,9.93670936 30.7290929,5.73607781 31.9702321,0.0544557023" id="right"></path>
                                <path d="M15.5275057,1.1976904 C14.4709997,7.79421222 13.9896574,12.5374364 14.0834789,15.427363 C14.1395355,17.1540425 14.2399983,18.6460707 14.6119246,19.5895579 C15.1737324,21.0147288 15.7930684,21.3426653 16.2675898,21.8618315 C16.7421113,22.3809978 16.6200182,23.1125293 16.6200182,23.4207892 C16.6200182,23.5014286 16.2076627,24.2458744 14.9994514,25.0942006 C14.0752098,25.7431421 12.5683811,26.3107891 11.1230086,27.5381641 C7.78817857,30.3700204 6.96746824,31.8205315 6.08594253,32.2225417 C5.49825872,32.4905484 4.58202521,32.4905484 3.33724201,32.2225417 C2.31803963,31.9297618 1.63561551,31.7041978 1.28996963,31.5458497 C0.771500816,31.3083276 0.381523383,31.1756218 0.172100609,30.7725198 C0.0324854264,30.5037852 0.253762679,30.2697444 0.835932368,30.0703976 L3.69032202,28.5674589 L6.08594253,18.9006213 C6.39003892,15.8333633 6.48372386,12.8333575 6.36699735,9.9006039 C6.25027084,6.9678503 6.00366285,4.06687913 5.62717337,1.1976904" id="left"></path>
                            </g>
                            <path d="M4,28.0829919 L7.24967193,31.1428571 C7.81735522,30.4529021 8.57741817,29.6655303 9.52986078,28.7807418 C10.4823034,27.8959532 11.4485403,27.079648 12.4285714,26.3318261 L6.33491373,18 C5.86075034,20.0468349 5.53280681,21.471806 5.35108315,22.2749135 C4.67164488,25.2776151 4.31710347,26.9039929 4.25190751,27.1399301 C4.16055541,27.4705236 4.07658624,27.7848775 4,28.0829919 Z" id="left-cover-3" stroke="#4A4A4A" fill="#4A4A4A"></path>
                            <path d="M22.0233309,29.6489552 C24.4516567,29.8002445 27.8976433,29.8002445 30.9941787,29.6489552 C31.1628606,29.2273052 31.4573498,28.6388742 31.2549217,27.9440309 C31.1553826,27.6023586 30.1010029,25.6913584 29.9440195,25.1990542 C29.787036,24.7067501 29.2427802,23.3656559 29.5473959,21.1493396 C28.5653615,21.1493396 28.4636098,19.8928335 25.8188994,19.8928335 C23.1741891,19.8928335 22.7479374,21.2313273 21.49295,21.1493396 C21.4688575,21.2420554 22.0751282,24.7449706 22.1530288,25.629161 C22.2456603,26.6805499 22.1652494,27.644073 22.1530288,27.9440309 C22.1181472,28.8002083 22.0233309,29.3793654 22.0233309,29.6489552 Z" id="right-cover-3" stroke="#4A4A4A" fill="#4A4A4A"></path>
                        </g>
                        <g id="tn_covers_4">
                            <g id="bare-foot" fill="#F4F4F4" stroke="#999999" stroke-width="0.4">
                                <path d="M21.4201686,0.0544557023 C22.2367776,5.70914269 22.6450821,9.90977424 22.6450821,12.6563504 C22.6450821,15.4029265 22.2367776,17.17725 21.4201686,17.9793209 C20.9656999,18.0598563 20.8520827,18.9588156 21.079317,20.6761989 C21.3065514,22.3935821 21.6277942,24.7167359 22.0430454,27.6456601 C21.8028667,29.1218483 21.6827774,30.1058815 21.6827774,30.5977597 C21.6827774,31.0896379 22.1329946,31.8389567 23.0334289,32.8457161 C23.9859965,33.3455111 24.9960037,33.5954085 26.0634505,33.5954085 C27.7670221,33.5327275 28.5372094,33.5327275 29.1706784,32.8457161 C29.8041475,32.1587048 30.969182,29.7661027 30.8279483,29.0124338 C30.6867146,28.2587648 30.1730229,27.0306639 29.8867454,26.3935899 C29.6623405,25.8942056 29.2355033,24.7924117 29.1706784,23.5970818 C29.1706784,21.8110933 29.409187,20.7803948 29.409187,19.9518435 C29.409187,19.3994759 29.2385907,18.7419684 28.8973981,17.9793209 C28.7723665,17.1503149 28.9429629,15.3759914 29.409187,12.6563504 C29.8754112,9.93670936 30.7290929,5.73607781 31.9702321,0.0544557023" id="right"></path>
                                <path d="M15.5275057,1.1976904 C14.4709997,7.79421222 13.9896574,12.5374364 14.0834789,15.427363 C14.1395355,17.1540425 14.2399983,18.6460707 14.6119246,19.5895579 C15.1737324,21.0147288 15.7930684,21.3426653 16.2675898,21.8618315 C16.7421113,22.3809978 16.6200182,23.1125293 16.6200182,23.4207892 C16.6200182,23.5014286 16.2076627,24.2458744 14.9994514,25.0942006 C14.0752098,25.7431421 12.5683811,26.3107891 11.1230086,27.5381641 C7.78817857,30.3700204 6.96746824,31.8205315 6.08594253,32.2225417 C5.49825872,32.4905484 4.58202521,32.4905484 3.33724201,32.2225417 C2.31803963,31.9297618 1.63561551,31.7041978 1.28996963,31.5458497 C0.771500816,31.3083276 0.381523383,31.1756218 0.172100609,30.7725198 C0.0324854264,30.5037852 0.253762679,30.2697444 0.835932368,30.0703976 L3.69032202,28.5674589 L6.08594253,18.9006213 C6.39003892,15.8333633 6.48372386,12.8333575 6.36699735,9.9006039 C6.25027084,6.9678503 6.00366285,4.06687913 5.62717337,1.1976904" id="left"></path>
                            </g>
                            <path d="M4.00155654,28.1682675 L7.20138919,30.8484599 C7.8376591,30.2185482 8.6287893,29.461198 9.57477981,28.5764095 C10.5207703,27.6916209 11.4530017,26.8958074 12.371474,26.1889689 C13.6432602,22.6989441 14.3912746,20.6972652 14.6155171,20.1839324 C14.1766481,19.3779191 13.9910879,18.6655003 13.8761728,17.7153709 C12.4367069,17.7153709 9.89714829,17.7153709 6.25749686,17.7153709 C5.82761193,19.8567204 5.52242316,21.3289489 5.34193054,22.1320563 C4.66709498,25.1347579 4.31495533,26.7611357 4.25020102,26.997073 C4.15946777,27.3276665 4.07658628,27.7180646 4.00155654,28.1682675 Z" id="left-cover-4" stroke="#4A4A4A" fill="#4A4A4A"></path>
                            <path d="M22.1530288,29.5060981 C24.5813546,29.6573873 27.9917296,29.5060981 30.5455152,29.5060981 C30.7929955,28.9230486 31.091187,28.4967081 30.9573155,27.9891366 C30.8234439,27.4815651 30.3476912,25.8707999 30.0092397,24.6390982 C29.9043046,24.2572158 29.7204234,23.5918054 29.6561717,22.6456091 C29.5996143,21.8127224 29.6561717,20.7080562 29.6561717,20.1435103 C29.6561717,18.8148033 29.6373884,17.7915024 29.2702851,17.4602592 C28.0452074,17.5403404 27.9886065,17.0012505 25.5912573,17.0012505 C23.1939081,17.0012505 22.2826463,17.5142581 21.4560834,17.4602592 C20.819699,17.819875 22.029324,24.0710849 22.1530288,25.4751635 C22.2456603,26.5265525 22.1652494,27.5012158 22.1530288,27.8011737 C22.1181472,28.6573512 21.9069947,29.5060981 22.1530288,29.5060981 Z" id="right-cover-4" stroke="#4A4A4A" fill="#4A4A4A"></path>
                        </g>
                    </g>
                    <g id="tn_counters" transform="translate(6.000000, 13.000000)">
                        <g id="tn_counters_0" fill="#F4F4F4" stroke="#999999" stroke-width="0.4">
                            <g id="bare-foot">
                                <path d="M21.4201686,0.0544557023 C22.2367776,5.70914269 22.6450821,9.90977424 22.6450821,12.6563504 C22.6450821,15.4029265 22.2367776,17.17725 21.4201686,17.9793209 C20.9656999,18.0598563 20.8520827,18.9588156 21.079317,20.6761989 C21.3065514,22.3935821 21.6277942,24.7167359 22.0430454,27.6456601 C21.8028667,29.1218483 21.6827774,30.1058815 21.6827774,30.5977597 C21.6827774,31.0896379 22.1329946,31.8389567 23.0334289,32.8457161 C23.9859965,33.3455111 24.9960037,33.5954085 26.0634505,33.5954085 C27.7670221,33.5327275 28.5372094,33.5327275 29.1706784,32.8457161 C29.8041475,32.1587048 30.969182,29.7661027 30.8279483,29.0124338 C30.6867146,28.2587648 30.1730229,27.0306639 29.8867454,26.3935899 C29.6623405,25.8942056 29.2355033,24.7924117 29.1706784,23.5970818 C29.1706784,21.8110933 29.409187,20.7803948 29.409187,19.9518435 C29.409187,19.3994759 29.2385907,18.7419684 28.8973981,17.9793209 C28.7723665,17.1503149 28.9429629,15.3759914 29.409187,12.6563504 C29.8754112,9.93670936 30.7290929,5.73607781 31.9702321,0.0544557023" id="right"></path>
                                <path d="M15.5275057,1.1976904 C14.4709997,7.79421222 13.9896574,12.5374364 14.0834789,15.427363 C14.1395355,17.1540425 14.2399983,18.6460707 14.6119246,19.5895579 C15.1737324,21.0147288 15.7930684,21.3426653 16.2675898,21.8618315 C16.7421113,22.3809978 16.6200182,23.1125293 16.6200182,23.4207892 C16.6200182,23.5014286 16.2076627,24.2458744 14.9994514,25.0942006 C14.0752098,25.7431421 12.5683811,26.3107891 11.1230086,27.5381641 C7.78817857,30.3700204 6.96746824,31.8205315 6.08594253,32.2225417 C5.49825872,32.4905484 4.58202521,32.4905484 3.33724201,32.2225417 C2.31803963,31.9297618 1.63561551,31.7041978 1.28996963,31.5458497 C0.771500816,31.3083276 0.381523383,31.1756218 0.172100609,30.7725198 C0.0324854264,30.5037852 0.253762679,30.2697444 0.835932368,30.0703976 L3.69032202,28.5674589 L6.08594253,18.9006213 C6.39003892,15.8333633 6.48372386,12.8333575 6.36699735,9.9006039 C6.25027084,6.9678503 6.00366285,4.06687913 5.62717337,1.1976904" id="left"></path>
                            </g>
                        </g>
                        <g id="tn_counters_1">
                            <g id="bare-foot" fill="#F4F4F4" stroke="#999999" stroke-width="0.4">
                                <path d="M21.4201686,0.0544557023 C22.2367776,5.70914269 22.6450821,9.90977424 22.6450821,12.6563504 C22.6450821,15.4029265 22.2367776,17.17725 21.4201686,17.9793209 C20.9656999,18.0598563 20.8520827,18.9588156 21.079317,20.6761989 C21.3065514,22.3935821 21.6277942,24.7167359 22.0430454,27.6456601 C21.8028667,29.1218483 21.6827774,30.1058815 21.6827774,30.5977597 C21.6827774,31.0896379 22.1329946,31.8389567 23.0334289,32.8457161 C23.9859965,33.3455111 24.9960037,33.5954085 26.0634505,33.5954085 C27.7670221,33.5327275 28.5372094,33.5327275 29.1706784,32.8457161 C29.8041475,32.1587048 30.969182,29.7661027 30.8279483,29.0124338 C30.6867146,28.2587648 30.1730229,27.0306639 29.8867454,26.3935899 C29.6623405,25.8942056 29.2355033,24.7924117 29.1706784,23.5970818 C29.1706784,21.8110933 29.409187,20.7803948 29.409187,19.9518435 C29.409187,19.3994759 29.2385907,18.7419684 28.8973981,17.9793209 C28.7723665,17.1503149 28.9429629,15.3759914 29.409187,12.6563504 C29.8754112,9.93670936 30.7290929,5.73607781 31.9702321,0.0544557023" id="right"></path>
                                <path d="M15.5275057,1.1976904 C14.4709997,7.79421222 13.9896574,12.5374364 14.0834789,15.427363 C14.1395355,17.1540425 14.2399983,18.6460707 14.6119246,19.5895579 C15.1737324,21.0147288 15.7930684,21.3426653 16.2675898,21.8618315 C16.7421113,22.3809978 16.6200182,23.1125293 16.6200182,23.4207892 C16.6200182,23.5014286 16.2076627,24.2458744 14.9994514,25.0942006 C14.0752098,25.7431421 12.5683811,26.3107891 11.1230086,27.5381641 C7.78817857,30.3700204 6.96746824,31.8205315 6.08594253,32.2225417 C5.49825872,32.4905484 4.58202521,32.4905484 3.33724201,32.2225417 C2.31803963,31.9297618 1.63561551,31.7041978 1.28996963,31.5458497 C0.771500816,31.3083276 0.381523383,31.1756218 0.172100609,30.7725198 C0.0324854264,30.5037852 0.253762679,30.2697444 0.835932368,30.0703976 L3.69032202,28.5674589 L6.08594253,18.9006213 C6.39003892,15.8333633 6.48372386,12.8333575 6.36699735,9.9006039 C6.25027084,6.9678503 6.00366285,4.06687913 5.62717337,1.1976904" id="left"></path>
                            </g>
                            <g transform="translate(12.000000, 19.285714)" fill="#4A4A4A" id="left-heel-1" stroke="#4A4A4A">
                                <path d="M2.02503506,0.121134152 C2.54572064,1.19109617 3.03375825,1.92377583 3.48914791,2.31917312 C3.86647856,2.64679477 4.12336739,2.86371666 4.24531245,3.32101063 C4.31923751,3.5982296 4.27650304,3.88210141 4.24531245,3.99266345 C4.17562956,4.23967002 4.13828646,4.40699079 2.89225565,5.49214691 C2.01067691,6.14405825 1.06970324,6.69541659 0.0693346341,7.14622193 C0.449681887,6.10693848 0.639855513,5.00623224 0.639855513,3.84410318 C0.639855513,2.68197413 1.10158203,1.44098445 2.02503506,0.121134152 Z"></path>
                            </g>
                            <g transform="translate(21.571429, 17.000000)" fill="#4A4A4A" id="right-counter-1" stroke="#4A4A4A">
                                <path d="M1.01302183,0.329189767 C1.14481501,0.188325444 1.3823404,0.731362809 1.22956598,1.59484027 C1.17214921,1.91935853 0.967143908,2.94819328 0.814100443,3.71890496 C0.745290605,4.06542447 0.438934852,6.49494407 0.437075018,6.48201241 C0.395492695,6.19288532 -0.082222137,2.64012136 0.0341119351,1.77444237 C0.09407179,1.47530869 0.228392818,1.28750658 0.437075018,1.21103604 C0.562610099,1.08014423 0.688285241,0.922566274 0.814100443,0.738302189 C0.927439374,0.559041634 0.881228653,0.47005409 1.01302183,0.329189767 Z M6.82577763,0.30701498 L6.91597493,0.973951749 C7.18512182,1.4987143 7.33722667,2.06930742 7.37228948,2.68573111 C7.4073523,3.30215479 7.32603717,4.42844995 7.1283441,6.06461658 C7.03537672,4.60482105 6.93452123,3.64522078 6.82577763,3.18581578 C6.69891485,2.64986334 6.31482329,1.72690593 6.31482329,1.47661547 C6.31482329,0.904510941 6.4851414,0.514644112 6.82577763,0.30701498 Z"></path>
                            </g>
                        </g>
                        <g id="tn_counter_2">
                            <g id="bare-foot" fill="#F4F4F4" stroke="#999999" stroke-width="0.4">
                                <path d="M21.4201686,0.0544557023 C22.2367776,5.70914269 22.6450821,9.90977424 22.6450821,12.6563504 C22.6450821,15.4029265 22.2367776,17.17725 21.4201686,17.9793209 C20.9656999,18.0598563 20.8520827,18.9588156 21.079317,20.6761989 C21.3065514,22.3935821 21.6277942,24.7167359 22.0430454,27.6456601 C21.8028667,29.1218483 21.6827774,30.1058815 21.6827774,30.5977597 C21.6827774,31.0896379 22.1329946,31.8389567 23.0334289,32.8457161 C23.9859965,33.3455111 24.9960037,33.5954085 26.0634505,33.5954085 C27.7670221,33.5327275 28.5372094,33.5327275 29.1706784,32.8457161 C29.8041475,32.1587048 30.969182,29.7661027 30.8279483,29.0124338 C30.6867146,28.2587648 30.1730229,27.0306639 29.8867454,26.3935899 C29.6623405,25.8942056 29.2355033,24.7924117 29.1706784,23.5970818 C29.1706784,21.8110933 29.409187,20.7803948 29.409187,19.9518435 C29.409187,19.3994759 29.2385907,18.7419684 28.8973981,17.9793209 C28.7723665,17.1503149 28.9429629,15.3759914 29.409187,12.6563504 C29.8754112,9.93670936 30.7290929,5.73607781 31.9702321,0.0544557023" id="right"></path>
                                <path d="M15.5275057,1.1976904 C14.4709997,7.79421222 13.9896574,12.5374364 14.0834789,15.427363 C14.1395355,17.1540425 14.2399983,18.6460707 14.6119246,19.5895579 C15.1737324,21.0147288 15.7930684,21.3426653 16.2675898,21.8618315 C16.7421113,22.3809978 16.6200182,23.1125293 16.6200182,23.4207892 C16.6200182,23.5014286 16.2076627,24.2458744 14.9994514,25.0942006 C14.0752098,25.7431421 12.5683811,26.3107891 11.1230086,27.5381641 C7.78817857,30.3700204 6.96746824,31.8205315 6.08594253,32.2225417 C5.49825872,32.4905484 4.58202521,32.4905484 3.33724201,32.2225417 C2.31803963,31.9297618 1.63561551,31.7041978 1.28996963,31.5458497 C0.771500816,31.3083276 0.381523383,31.1756218 0.172100609,30.7725198 C0.0324854264,30.5037852 0.253762679,30.2697444 0.835932368,30.0703976 L3.69032202,28.5674589 L6.08594253,18.9006213 C6.39003892,15.8333633 6.48372386,12.8333575 6.36699735,9.9006039 C6.25027084,6.9678503 6.00366285,4.06687913 5.62717337,1.1976904" id="left"></path>
                            </g>
                            <path d="M14.5815516,20 C15.0005516,20.9056709 15.4784373,21.5873763 16.0152086,22.0451162 C16.8203656,22.7317262 16.3716234,23.8246111 15.3498322,24.5305634 C14.0274641,25.5084304 12.0302527,26.4161054 10.8833839,27.3625694 C9.73651516,28.3090335 6.56770576,31.4692376 6.48893253,31.5488959 C6.21814839,31.2820737 5.93059402,31.0517883 5.75537645,30.8017554 C6.39927218,30.1152489 11.8511208,22.8555379 12.4135756,22.1915614 C12.7885455,21.7489103 13.5112041,21.0183899 14.5815516,20 Z" id="left_counter_2" stroke="#4A4A4A" fill="#4A4A4A"></path>
                            <path d="M22.155879,17.0921055 C22.2876722,16.9512411 22.5251975,17.4942785 22.3724231,18.357756 C22.3150064,18.6822742 22.1100011,19.711109 21.9569576,20.4818207 C21.9052517,20.7422065 22.3565694,25.3001952 22.3724231,27.5360941 C22.2236884,28.2172337 22.155879,28.6362494 22.0191528,28.8327991 C22.0191528,28.5272639 22.155879,28.1740724 22.155879,27.5360941 C22.0670385,26.5933534 21.7511585,24.7984116 21.5799322,23.4144628 C21.4901418,22.519286 21.2678781,21.2338503 21.1769691,20.1754417 C21.1103315,19.399614 21.1525303,18.7192151 21.1769691,18.5373581 C21.2369289,18.2382244 21.37125,18.0504223 21.5799322,17.9739517 C21.7054672,17.8430599 21.8311424,17.685482 21.9569576,17.5012179 C22.0702965,17.3219573 22.0240858,17.2329698 22.155879,17.0921055 Z M28.7868508,17.4241157 L29.0588321,17.9739517 C29.327979,18.4987143 29.4800838,19.0693074 29.5151466,19.6857311 C29.5383981,20.0945054 29.0265067,22.6910269 29.1944878,24.3708382 C29.3108093,25.0588709 30.372134,28.1207264 30.5186267,28.4970861 C30.623748,28.767157 30.623748,28.9934598 30.5186267,29.1759945 C29.7170374,26.9488185 29.2304392,25.4331902 29.0588321,24.6291094 C28.8262368,23.5392632 29.0386055,21.880797 28.9686348,20.682736 C28.9027318,19.554325 28.4576804,18.5980141 28.4576804,18.4766155 C28.4576804,17.9045109 28.5674039,17.5536777 28.7868508,17.4241157 Z" id="right-counter-2" stroke="#4A4A4A" fill="#4A4A4A"></path>
                        </g>
                        <g id="tn_counters_3">
                            <g id="bare-foot" fill="#F4F4F4" stroke="#999999" stroke-width="0.4">
                                <path d="M21.4201686,0.0544557023 C22.2367776,5.70914269 22.6450821,9.90977424 22.6450821,12.6563504 C22.6450821,15.4029265 22.2367776,17.17725 21.4201686,17.9793209 C20.9656999,18.0598563 20.8520827,18.9588156 21.079317,20.6761989 C21.3065514,22.3935821 21.6277942,24.7167359 22.0430454,27.6456601 C21.8028667,29.1218483 21.6827774,30.1058815 21.6827774,30.5977597 C21.6827774,31.0896379 22.1329946,31.8389567 23.0334289,32.8457161 C23.9859965,33.3455111 24.9960037,33.5954085 26.0634505,33.5954085 C27.7670221,33.5327275 28.5372094,33.5327275 29.1706784,32.8457161 C29.8041475,32.1587048 30.969182,29.7661027 30.8279483,29.0124338 C30.6867146,28.2587648 30.1730229,27.0306639 29.8867454,26.3935899 C29.6623405,25.8942056 29.2355033,24.7924117 29.1706784,23.5970818 C29.1706784,21.8110933 29.409187,20.7803948 29.409187,19.9518435 C29.409187,19.3994759 29.2385907,18.7419684 28.8973981,17.9793209 C28.7723665,17.1503149 28.9429629,15.3759914 29.409187,12.6563504 C29.8754112,9.93670936 30.7290929,5.73607781 31.9702321,0.0544557023" id="right"></path>
                                <path d="M15.5275057,1.1976904 C14.4709997,7.79421222 13.9896574,12.5374364 14.0834789,15.427363 C14.1395355,17.1540425 14.2399983,18.6460707 14.6119246,19.5895579 C15.1737324,21.0147288 15.7930684,21.3426653 16.2675898,21.8618315 C16.7421113,22.3809978 16.6200182,23.1125293 16.6200182,23.4207892 C16.6200182,23.5014286 16.2076627,24.2458744 14.9994514,25.0942006 C14.0752098,25.7431421 12.5683811,26.3107891 11.1230086,27.5381641 C7.78817857,30.3700204 6.96746824,31.8205315 6.08594253,32.2225417 C5.49825872,32.4905484 4.58202521,32.4905484 3.33724201,32.2225417 C2.31803963,31.9297618 1.63561551,31.7041978 1.28996963,31.5458497 C0.771500816,31.3083276 0.381523383,31.1756218 0.172100609,30.7725198 C0.0324854264,30.5037852 0.253762679,30.2697444 0.835932368,30.0703976 L3.69032202,28.5674589 L6.08594253,18.9006213 C6.39003892,15.8333633 6.48372386,12.8333575 6.36699735,9.9006039 C6.25027084,6.9678503 6.00366285,4.06687913 5.62717337,1.1976904" id="left"></path>
                            </g>
                            <path d="M14.5107909,18.5690476 C14.5631696,19.1246208 14.7451556,19.6744917 15.0567491,20.2186602 C15.4089051,20.8336672 15.945648,21.3810621 16.2034336,21.6048874 C16.6588233,22.0002847 16.8464721,22.6094144 16.7663799,23.4322765 C16.7689067,23.6309909 16.3548265,24.0920668 15.5241393,24.8155043 C14.6425606,25.4674156 13.5705638,26.1052664 12.3081489,26.7290567 C7.97726918,21.2890506 6.06804929,18.5690476 6.58048926,18.5690476 C7.09292923,18.5690476 9.73636312,18.5690476 14.5107909,18.5690476 Z" id="left-counter-3" stroke="#4A4A4A" fill="#4A4A4A"></path>
                            <path d="M14.8719924,19.8276987 C15.3042302,20.6170939 15.748044,21.2094901 16.2034336,21.6048874 C16.6588233,22.0002847 16.8464721,22.6094144 16.7663799,23.4322765 C16.7663799,23.567221 16.3510363,23.9964119 15.5203491,24.7198493 C14.6387704,25.3717607 13.568037,26.0414965 12.3081489,26.7290567 C11.8512049,27.0820412 11.5301278,27.3343401 11.3449176,27.4859536 C10.7574446,27.9668604 10.398202,28.3908089 10.1387239,28.619689 C8.94461614,29.6729863 7.1897678,31.5634945 7.11099457,31.6431528 C6.91996346,31.6431528 6.25502289,30.9257557 6.14079603,30.8436883 C6.78469176,30.1571818 12.1010528,22.4283075 12.6635076,21.7643309 C13.0384775,21.3216798 13.7746391,20.6761358 14.8719924,19.8276987 Z" id="left-heel-4" stroke="#4A4A4A" fill="#4A4A4A"></path>
                            <path d="M22.2987361,17.0921055 C22.4305293,16.9512411 24.0772344,20.1768128 23.9241909,20.9475245 C23.872485,21.2079103 22.4994266,25.3001952 22.5152803,27.5360941 C22.5152803,28.0915869 22.4354623,28.7214156 22.2987361,28.9179653 C22.2987361,28.6124301 22.2987361,28.1740724 22.2987361,27.5360941 C22.2098957,26.5933534 21.8940156,24.7984116 21.7227893,23.4144628 C21.6329989,22.519286 21.4107353,21.2338503 21.3198262,20.1754417 C21.2531887,19.399614 21.2953874,18.7192151 21.3198262,18.5373581 C21.3797861,18.2382244 21.5141071,18.0504223 21.7227893,17.9739517 C21.8483244,17.8430599 21.9739995,17.685482 22.0998147,17.5012179 C22.2131537,17.3219573 22.1669429,17.2329698 22.2987361,17.0921055 Z M29.1114919,17.307015 L29.2016892,17.9739517 C29.4708361,18.4987143 29.622941,19.0693074 29.6580038,19.6857311 C29.6812553,20.0945054 29.3464556,22.5770495 29.5144367,24.2568608 C29.6307583,24.9448935 30.2616944,26.7167824 30.8789645,28.2614817 C30.9459548,28.4291228 30.9161813,28.6479507 30.7896441,28.9179653 C28.8856038,24.6333309 27.8624176,21.9765173 27.7200857,20.9475245 C27.7200857,20.3143912 28.1838878,19.1008881 29.1114919,17.307015 Z" id="right-counter-3" stroke="#4A4A4A" fill="#4A4A4A"></path>
                        </g>
                    </g>
                    <g id="tn_shaft" transform="translate(6.000000, 0.000000)">
                        <g id="tn_shaft_0" transform="translate(0.000000, 13.000000)" fill="#F4F4F4" stroke="#999999" stroke-width="0.4">
                            <g id="bare-foot" transform="translate(0.000000, 0.142857)">
                                <path d="M21.4201686,0.0544557023 C22.2367776,5.70914269 22.6450821,9.90977424 22.6450821,12.6563504 C22.6450821,15.4029265 22.2367776,17.17725 21.4201686,17.9793209 C20.9656999,18.0598563 20.8520827,18.9588156 21.079317,20.6761989 C21.3065514,22.3935821 21.6277942,24.7167359 22.0430454,27.6456601 C21.8028667,29.1218483 21.6827774,30.1058815 21.6827774,30.5977597 C21.6827774,31.0896379 22.1329946,31.8389567 23.0334289,32.8457161 C23.9859965,33.3455111 24.9960037,33.5954085 26.0634505,33.5954085 C27.7670221,33.5327275 28.5372094,33.5327275 29.1706784,32.8457161 C29.8041475,32.1587048 30.969182,29.7661027 30.8279483,29.0124338 C30.6867146,28.2587648 30.1730229,27.0306639 29.8867454,26.3935899 C29.6623405,25.8942056 29.2355033,24.7924117 29.1706784,23.5970818 C29.1706784,21.8110933 29.409187,20.7803948 29.409187,19.9518435 C29.409187,19.3994759 29.2385907,18.7419684 28.8973981,17.9793209 C28.7723665,17.1503149 28.9429629,15.3759914 29.409187,12.6563504 C29.8754112,9.93670936 30.7290929,5.73607781 31.9702321,0.0544557023" id="right"></path>
                                <path d="M15.5275057,1.1976904 C14.4709997,7.79421222 13.9896574,12.5374364 14.0834789,15.427363 C14.1395355,17.1540425 14.2399983,18.6460707 14.6119246,19.5895579 C15.1737324,21.0147288 15.7930684,21.3426653 16.2675898,21.8618315 C16.7421113,22.3809978 16.6200182,23.1125293 16.6200182,23.4207892 C16.6200182,23.5014286 16.2076627,24.2458744 14.9994514,25.0942006 C14.0752098,25.7431421 12.5683811,26.3107891 11.1230086,27.5381641 C7.78817857,30.3700204 6.96746824,31.8205315 6.08594253,32.2225417 C5.49825872,32.4905484 4.58202521,32.4905484 3.33724201,32.2225417 C2.31803963,31.9297618 1.63561551,31.7041978 1.28996963,31.5458497 C0.771500816,31.3083276 0.381523383,31.1756218 0.172100609,30.7725198 C0.0324854264,30.5037852 0.253762679,30.2697444 0.835932368,30.0703976 L3.69032202,28.5674589 L6.08594253,18.9006213 C6.39003892,15.8333633 6.48372386,12.8333575 6.36699735,9.9006039 C6.25027084,6.9678503 6.00366285,4.06687913 5.62717337,1.1976904" id="left"></path>
                            </g>
                        </g>
                        <g id="tn_shaft_1" transform="translate(0.000000, 13.000000)">
                            <g id="bare-foot" transform="translate(0.000000, 0.142857)" fill="#F4F4F4" stroke="#999999" stroke-width="0.4">
                                <path d="M21.4201686,0.0544557023 C22.2367776,5.70914269 22.6450821,9.90977424 22.6450821,12.6563504 C22.6450821,15.4029265 22.2367776,17.17725 21.4201686,17.9793209 C20.9656999,18.0598563 20.8520827,18.9588156 21.079317,20.6761989 C21.3065514,22.3935821 21.6277942,24.7167359 22.0430454,27.6456601 C21.8028667,29.1218483 21.6827774,30.1058815 21.6827774,30.5977597 C21.6827774,31.0896379 22.1329946,31.8389567 23.0334289,32.8457161 C23.9859965,33.3455111 24.9960037,33.5954085 26.0634505,33.5954085 C27.7670221,33.5327275 28.5372094,33.5327275 29.1706784,32.8457161 C29.8041475,32.1587048 30.969182,29.7661027 30.8279483,29.0124338 C30.6867146,28.2587648 30.1730229,27.0306639 29.8867454,26.3935899 C29.6623405,25.8942056 29.2355033,24.7924117 29.1706784,23.5970818 C29.1706784,21.8110933 29.409187,20.7803948 29.409187,19.9518435 C29.409187,19.3994759 29.2385907,18.7419684 28.8973981,17.9793209 C28.7723665,17.1503149 28.9429629,15.3759914 29.409187,12.6563504 C29.8754112,9.93670936 30.7290929,5.73607781 31.9702321,0.0544557023" id="right"></path>
                                <path d="M15.5275057,1.1976904 C14.4709997,7.79421222 13.9896574,12.5374364 14.0834789,15.427363 C14.1395355,17.1540425 14.2399983,18.6460707 14.6119246,19.5895579 C15.1737324,21.0147288 15.7930684,21.3426653 16.2675898,21.8618315 C16.7421113,22.3809978 16.6200182,23.1125293 16.6200182,23.4207892 C16.6200182,23.5014286 16.2076627,24.2458744 14.9994514,25.0942006 C14.0752098,25.7431421 12.5683811,26.3107891 11.1230086,27.5381641 C7.78817857,30.3700204 6.96746824,31.8205315 6.08594253,32.2225417 C5.49825872,32.4905484 4.58202521,32.4905484 3.33724201,32.2225417 C2.31803963,31.9297618 1.63561551,31.7041978 1.28996963,31.5458497 C0.771500816,31.3083276 0.381523383,31.1756218 0.172100609,30.7725198 C0.0324854264,30.5037852 0.253762679,30.2697444 0.835932368,30.0703976 L3.69032202,28.5674589 L6.08594253,18.9006213 C6.39003892,15.8333633 6.48372386,12.8333575 6.36699735,9.9006039 C6.25027084,6.9678503 6.00366285,4.06687913 5.62717337,1.1976904" id="left"></path>
                            </g>
                            <path d="M6.02008389,19.5864736 C11.3808205,19.5864736 14.1580022,19.5864736 14.3516291,19.5864736 C14.2947654,19.2299172 14.2947654,18.3749164 14.3516291,17.0214709 L6.17375181,17.0214709 C6.20140404,17.9059329 6.20140404,18.4528619 6.17375181,18.662258 C6.14609958,18.871654 6.09487694,19.1797259 6.02008389,19.5864736 Z" id="left-shaft-1" stroke="#4A4A4A" fill="#4A4A4A"></path>
                            <path d="M21.3290423,18.1032532 C22.2225852,18.0005175 23.9249606,17.8451633 25.1766083,17.8451633 C26.0110402,17.8451633 27.2164109,17.9311933 28.7927204,18.1032532 C28.7927204,17.7657838 28.7927204,17.4581823 28.7927204,17.1804486 C28.7927204,16.9027149 28.7927204,16.6583837 28.7927204,16.4474551 C27.4619545,16.2067192 26.2565838,16.0863512 25.1766083,16.0863512 C24.0966329,16.0863512 23.2163419,16.1589901 22.5357354,16.3042679 L22.0347354,17.1804486 C21.5642733,17.5651204 21.3290423,17.8727219 21.3290423,18.1032532 Z" id="right-shaft-1" stroke="#4A4A4A" fill="#4A4A4A"></path>
                        </g>
                        <g id="tn_shaft_2" transform="translate(0.000000, 13.000000)">
                            <g id="bare-foot" transform="translate(0.000000, 0.142857)" fill="#F4F4F4" stroke="#999999" stroke-width="0.4">
                                <path d="M21.4201686,0.0544557023 C22.2367776,5.70914269 22.6450821,9.90977424 22.6450821,12.6563504 C22.6450821,15.4029265 22.2367776,17.17725 21.4201686,17.9793209 C20.9656999,18.0598563 20.8520827,18.9588156 21.079317,20.6761989 C21.3065514,22.3935821 21.6277942,24.7167359 22.0430454,27.6456601 C21.8028667,29.1218483 21.6827774,30.1058815 21.6827774,30.5977597 C21.6827774,31.0896379 22.1329946,31.8389567 23.0334289,32.8457161 C23.9859965,33.3455111 24.9960037,33.5954085 26.0634505,33.5954085 C27.7670221,33.5327275 28.5372094,33.5327275 29.1706784,32.8457161 C29.8041475,32.1587048 30.969182,29.7661027 30.8279483,29.0124338 C30.6867146,28.2587648 30.1730229,27.0306639 29.8867454,26.3935899 C29.6623405,25.8942056 29.2355033,24.7924117 29.1706784,23.5970818 C29.1706784,21.8110933 29.409187,20.7803948 29.409187,19.9518435 C29.409187,19.3994759 29.2385907,18.7419684 28.8973981,17.9793209 C28.7723665,17.1503149 28.9429629,15.3759914 29.409187,12.6563504 C29.8754112,9.93670936 30.7290929,5.73607781 31.9702321,0.0544557023" id="right"></path>
                                <path d="M15.5275057,1.1976904 C14.4709997,7.79421222 13.9896574,12.5374364 14.0834789,15.427363 C14.1395355,17.1540425 14.2399983,18.6460707 14.6119246,19.5895579 C15.1737324,21.0147288 15.7930684,21.3426653 16.2675898,21.8618315 C16.7421113,22.3809978 16.6200182,23.1125293 16.6200182,23.4207892 C16.6200182,23.5014286 16.2076627,24.2458744 14.9994514,25.0942006 C14.0752098,25.7431421 12.5683811,26.3107891 11.1230086,27.5381641 C7.78817857,30.3700204 6.96746824,31.8205315 6.08594253,32.2225417 C5.49825872,32.4905484 4.58202521,32.4905484 3.33724201,32.2225417 C2.31803963,31.9297618 1.63561551,31.7041978 1.28996963,31.5458497 C0.771500816,31.3083276 0.381523383,31.1756218 0.172100609,30.7725198 C0.0324854264,30.5037852 0.253762679,30.2697444 0.835932368,30.0703976 L3.69032202,28.5674589 L6.08594253,18.9006213 C6.39003892,15.8333633 6.48372386,12.8333575 6.36699735,9.9006039 C6.25027084,6.9678503 6.00366285,4.06687913 5.62717337,1.1976904" id="left"></path>
                            </g>
                            <path d="M6.21650219,18.755269 L14.2982242,18.755269 L15.5561139,6.60006326 L5.82449666,6.60006326 C6.25762903,9.21836313 6.47419522,11.4450402 6.47419522,13.2800945 C6.47419522,15.1151488 6.38829754,16.9402069 6.21650219,18.755269 Z" id="left-shaft-2" stroke="#4A4A4A" fill="#4A4A4A"></path>
                            <path d="M21.9662244,18.1032532 C23.5970849,18.739703 24.851742,19.0579279 25.7301955,19.0579279 C26.608649,19.0579279 27.8250803,18.739703 29.3794893,18.1032532 C29.3794893,17.5224444 29.3794893,17.0759423 29.3794893,16.7637468 C29.3794893,15.9458654 29.6126594,14.5499608 29.6643995,14.0632281 C29.8082208,12.7102645 30.3942286,10.1244301 31.4224228,6.30572473 L22.4188936,6.30572473 C22.8334967,9.91160281 23.0434928,11.9758212 23.0488818,12.49838 C23.0670796,14.2629632 22.9140241,15.1080569 22.8667378,15.3943689 C22.7984468,15.8078625 22.4982756,16.7108239 21.9662244,18.1032532 Z" id="right-shaft-2" stroke="#4A4A4A" fill="#4A4A4A"></path>
                        </g>
                        <g id="tn_shaft_3" transform="translate(0.000000, 7.000000)">
                            <g id="bare-foot" transform="translate(0.000000, 6.142857)" fill="#F4F4F4" stroke="#999999" stroke-width="0.4">
                                <path d="M21.4201686,0.0544557023 C22.2367776,5.70914269 22.6450821,9.90977424 22.6450821,12.6563504 C22.6450821,15.4029265 22.2367776,17.17725 21.4201686,17.9793209 C20.9656999,18.0598563 20.8520827,18.9588156 21.079317,20.6761989 C21.3065514,22.3935821 21.6277942,24.7167359 22.0430454,27.6456601 C21.8028667,29.1218483 21.6827774,30.1058815 21.6827774,30.5977597 C21.6827774,31.0896379 22.1329946,31.8389567 23.0334289,32.8457161 C23.9859965,33.3455111 24.9960037,33.5954085 26.0634505,33.5954085 C27.7670221,33.5327275 28.5372094,33.5327275 29.1706784,32.8457161 C29.8041475,32.1587048 30.969182,29.7661027 30.8279483,29.0124338 C30.6867146,28.2587648 30.1730229,27.0306639 29.8867454,26.3935899 C29.6623405,25.8942056 29.2355033,24.7924117 29.1706784,23.5970818 C29.1706784,21.8110933 29.409187,20.7803948 29.409187,19.9518435 C29.409187,19.3994759 29.2385907,18.7419684 28.8973981,17.9793209 C28.7723665,17.1503149 28.9429629,15.3759914 29.409187,12.6563504 C29.8754112,9.93670936 30.7290929,5.73607781 31.9702321,0.0544557023" id="right"></path>
                                <path d="M15.5275057,1.1976904 C14.4709997,7.79421222 13.9896574,12.5374364 14.0834789,15.427363 C14.1395355,17.1540425 14.2399983,18.6460707 14.6119246,19.5895579 C15.1737324,21.0147288 15.7930684,21.3426653 16.2675898,21.8618315 C16.7421113,22.3809978 16.6200182,23.1125293 16.6200182,23.4207892 C16.6200182,23.5014286 16.2076627,24.2458744 14.9994514,25.0942006 C14.0752098,25.7431421 12.5683811,26.3107891 11.1230086,27.5381641 C7.78817857,30.3700204 6.96746824,31.8205315 6.08594253,32.2225417 C5.49825872,32.4905484 4.58202521,32.4905484 3.33724201,32.2225417 C2.31803963,31.9297618 1.63561551,31.7041978 1.28996963,31.5458497 C0.771500816,31.3083276 0.381523383,31.1756218 0.172100609,30.7725198 C0.0324854264,30.5037852 0.253762679,30.2697444 0.835932368,30.0703976 L3.69032202,28.5674589 L6.08594253,18.9006213 C6.39003892,15.8333633 6.48372386,12.8333575 6.36699735,9.9006039 C6.25027084,6.9678503 6.00366285,4.06687913 5.62717337,1.1976904" id="left"></path>
                            </g>
                            <path d="M6.14201101,24.6194226 L14.1842859,24.6194226 L15.4811919,5.34202091 C15.015329,3.35403937 14.583027,2.13857178 14.1842859,1.69561815 C12.8621466,0.226879663 11.7919379,0.158734714 10.3010592,0.158734714 C8.81018042,0.158734714 7.85659614,0.158734714 5.4415678,0.158734714 C5.04051467,0.158734714 4.93363422,1.88649678 5.12092644,5.34202091 L6.14201101,24.6194226 Z" id="left-shaft-3" stroke="#4A4A4A" fill="#4A4A4A"></path>
                            <path d="M21.3592216,24.1383498 C22.6985831,24.7055712 23.9679236,24.9891818 25.1672431,24.9891818 C26.3665626,24.9891818 27.5407307,24.7055712 28.6897476,24.1383498 C28.5953778,22.6001595 28.5953778,21.4180202 28.6897476,20.5919319 C28.7926275,19.691348 29.7368805,14.8377517 31.5225065,6.03114296 C31.6848736,4.23904198 31.7660572,2.79193406 31.7660572,1.68981921 C31.7660572,0.105077962 29.6941987,0.105077962 26.2003107,0.105077962 C22.7064226,0.105077962 21.2798483,0.119809281 21.1179913,1.68981921 C21.0353021,2.49190286 21.1157122,3.93901077 21.3592216,6.03114296 C22.1494161,11.7416633 22.4495458,15.8302125 22.2596106,18.2967906 C22.0696754,20.7633688 21.7695457,22.7105552 21.3592216,24.1383498 Z" id="right-shaft-3" stroke="#4A4A4A" fill="#4A4A4A"></path>
                        </g>
                        <g id="tn_shaft_4">
                            <g id="bare-foot" transform="translate(0.000000, 13.142857)" fill="#F4F4F4" stroke="#999999" stroke-width="0.4">
                                <path d="M21.4201686,0.0544557023 C22.2367776,5.70914269 22.6450821,9.90977424 22.6450821,12.6563504 C22.6450821,15.4029265 22.2367776,17.17725 21.4201686,17.9793209 C20.9656999,18.0598563 20.8520827,18.9588156 21.079317,20.6761989 C21.3065514,22.3935821 21.6277942,24.7167359 22.0430454,27.6456601 C21.8028667,29.1218483 21.6827774,30.1058815 21.6827774,30.5977597 C21.6827774,31.0896379 22.1329946,31.8389567 23.0334289,32.8457161 C23.9859965,33.3455111 24.9960037,33.5954085 26.0634505,33.5954085 C27.7670221,33.5327275 28.5372094,33.5327275 29.1706784,32.8457161 C29.8041475,32.1587048 30.969182,29.7661027 30.8279483,29.0124338 C30.6867146,28.2587648 30.1730229,27.0306639 29.8867454,26.3935899 C29.6623405,25.8942056 29.2355033,24.7924117 29.1706784,23.5970818 C29.1706784,21.8110933 29.409187,20.7803948 29.409187,19.9518435 C29.409187,19.3994759 29.2385907,18.7419684 28.8973981,17.9793209 C28.7723665,17.1503149 28.9429629,15.3759914 29.409187,12.6563504 C29.8754112,9.93670936 30.7290929,5.73607781 31.9702321,0.0544557023" id="right"></path>
                                <path d="M15.5275057,1.1976904 C14.4709997,7.79421222 13.9896574,12.5374364 14.0834789,15.427363 C14.1395355,17.1540425 14.2399983,18.6460707 14.6119246,19.5895579 C15.1737324,21.0147288 15.7930684,21.3426653 16.2675898,21.8618315 C16.7421113,22.3809978 16.6200182,23.1125293 16.6200182,23.4207892 C16.6200182,23.5014286 16.2076627,24.2458744 14.9994514,25.0942006 C14.0752098,25.7431421 12.5683811,26.3107891 11.1230086,27.5381641 C7.78817857,30.3700204 6.96746824,31.8205315 6.08594253,32.2225417 C5.49825872,32.4905484 4.58202521,32.4905484 3.33724201,32.2225417 C2.31803963,31.9297618 1.63561551,31.7041978 1.28996963,31.5458497 C0.771500816,31.3083276 0.381523383,31.1756218 0.172100609,30.7725198 C0.0324854264,30.5037852 0.253762679,30.2697444 0.835932368,30.0703976 L3.69032202,28.5674589 L6.08594253,18.9006213 C6.39003892,15.8333633 6.48372386,12.8333575 6.36699735,9.9006039 C6.25027084,6.9678503 6.00366285,4.06687913 5.62717337,1.1976904" id="left"></path>
                            </g>
                            <path d="M6.21400934,31.4460892 L14.1842859,31.4460892 C14.7637323,23.2052234 15.1867481,17.5432946 15.4533333,14.4603026 C15.8532112,9.83581478 15.8581456,10.3496141 15.8581456,8.17500496 C15.1009311,6.43323684 12.8079451,6.22253716 11.6321598,6.06040937 C9.22558781,5.72856969 8.78388754,3.17843434 7.81209188,1.24263296 C7.47301017,0.567187616 6.21278989,0.104248042 5.89899748,0.0197414433 C5.09025759,-0.198058146 4.83090058,3.85159057 5.12092644,12.1686876 L6.21400934,31.4460892 Z" id="left-shaft-4" stroke="#4A4A4A" fill="#4A4A4A"></path>
                            <path d="M21.4850378,30.9650165 C23.0434647,31.6394653 24.2344501,31.9766897 25.0579942,31.9766897 C25.8815382,31.9766897 27.0921227,31.6394653 28.6897476,30.9650165 C28.6363,30.5567988 28.6095763,30.2505644 28.6095763,30.0463133 C28.6095763,29.8984522 28.6347902,29.4897711 28.8019055,28.2681717 C28.8443942,27.9575828 29.8324448,22.8207954 31.7660572,12.8578096 C31.7660572,9.45402642 31.7660572,7.20107739 31.7660572,6.09896254 C31.7660572,4.51422129 29.8693351,0.552229077 26.3754471,0.552229077 C22.881559,0.552229077 21.2798483,4.52895261 21.1179913,6.09896254 C21.0353021,6.90104619 21.0353021,9.15399522 21.1179913,12.8578096 C21.97193,20.6890695 22.4015031,24.8648176 22.4067104,25.3850539 C22.4242945,27.1417945 22.2764008,27.9831322 22.2307093,28.2681717 C22.1647214,28.6798275 21.9161642,29.5787758 21.4850378,30.9650165 Z" id="right-shaft-4" stroke="#4A4A4A" fill="#4A4A4A"></path>
                        </g>
                    </g>
                </g>
                <g id="tn_touches" fill="#BD10E0" stroke="#D5D0D0">
                    <rect id="tn_touch_7" x="0.419354839" y="0.419354839" width="51.1612903" height="50.3225806" rx="8"></rect>
                    <rect id="tn_touch_6" x="0.419354839" y="0.419354839" width="51.1612903" height="50.3225806" rx="8"></rect>
                    <rect id="tn_touch_5" x="0.419354839" y="0.419354839" width="51.1612903" height="50.3225806" rx="8"></rect>
                    <rect id="tn_touch_4" x="0.419354839" y="0.419354839" width="51.1612903" height="50.3225806" rx="8"></rect>
                    <rect id="tn_touch_3" x="0.419354839" y="0.419354839" width="51.1612903" height="50.3225806" rx="8"></rect>
                    <rect id="tn_touch_2" x="0.419354839" y="0.419354839" width="51.1612903" height="50.3225806" rx="8"></rect>
                    <rect id="tn_touch_1" x="0.419354839" y="0.419354839" width="51.1612903" height="50.3225806" rx="8"></rect>
                    <rect id="tn_touch_0" x="0.419354839" y="0.419354839" width="51.1612903" height="50.3225806" rx="8"></rect>
               </g>
            </g>
        </g>
    </g>
</svg>
