<?xml version="1.0" encoding="UTF-8"?>
<svg width="190px" height="384px" viewBox="0 0 190 384" version="1.1" xmlns="http://www.w3.org/2000/svg" xmlns:xlink="http://www.w3.org/1999/xlink">
    <!-- Generator: Sketch 53.2 (72643) - https://sketchapp.com -->
    <title>Final_VF_Pants_2.0</title>
    <desc>Created with Sketch.</desc>
    <g id="VF-Final" stroke="none" stroke-width="1" fill="none" fill-rule="evenodd">
        <g id="Final_VF_Pants_2.0">
            <g id="mannequin_pants" transform="translate(16.000000, 12.000000)" fill-rule="nonzero">
                <path d="M48.733,0.432 C48.733,0.432 49.153,13.06 46.608,20.588 C44.737,26.129 42.831,32.294 38.901,44.1 C34.553,57.162 30.239,79.765 30.239,111.1 C30.239,138.739 34.071,157.912 34.073,174.433 C34.073,176.098 32.593,195.121 32.382,196.646 C31.261,204.71 27.397,240.589 24.003,270.458 C21.899,289.01 19.28,315.465 19.177,316.366 C18.781,319.762 18.239,325.064 14.573,335.939 C10.907,346.816 9.835,359.527 9.014,360.814 C9.014,360.814 6.71,363.847 4.737,365.341 C2.546,367.003 -1.617,372.972 7.419,371.023 C13.995,369.601 17.876,369.502 22.044,366.941 C26.21,364.382 27.232,352.837 29.901,346.587 C32.569,340.333 42.624,340.095 44.839,332.335 C47.059,324.57 36.977,319.257 36.999,313.441 C37.011,310.545 58.938,234.314 60.653,220.713 C62.37,207.114 58.602,196.638 62.678,184.484 C66.753,172.335 79.38,108.43 78.325,93.251 L83.872,94.329 C83.872,94.329 84.214,123.078 87.694,135.03 C91.174,146.981 97.909,186.914 95.758,203.941 C93.612,220.968 97.45,245.947 97.973,263.472 C97.993,264.076 98.018,264.672 98.04,265.275 C98.719,282.89 101.444,298.089 99.212,312.837 C99.188,313.003 99.169,313.169 99.145,313.335 C99.145,313.335 94.991,339.982 94.479,347.076 C94.163,351.464 93.491,356.279 93.491,357.554 C93.491,358.825 92.942,365.744 94.22,367.566 C95.491,369.384 97.023,369.761 97.814,369.864 C101.462,370.329 108.337,367.642 111.316,363.458 C112.484,361.556 113.181,356.918 112.863,353.745 C112.544,350.516 111.577,336.879 111.577,333.159 C111.577,329.441 112.525,329.439 113.015,327.017 C113.498,324.593 112.627,319.98 112.789,318.687 C112.852,318.159 114.06,314.095 115.457,302.392 C116.469,296.955 117.67,289.913 118.563,282.799 C120.453,267.845 123.905,252.615 124.348,232.873 C124.789,213.133 118.793,203.875 122.577,181.997 C126.357,160.118 135.068,85.56 133.39,63.792 C130.898,31.429 110.898,17.429 116.23,1.762 C116.234,1.767 85.192,12.431 48.733,0.432 Z" id="single-line" fill="#FFFFFF"></path>
                <path d="M48.14,0.161 C48.515,3.956 48.584,7.781 48.388,11.615 C48.277,13.532 48.086,15.451 47.757,17.371 C47.581,18.33 47.388,19.291 47.108,20.244 L46.33,22.998 C44.238,30.305 41.976,37.591 39.654,44.786 C37.399,51.947 35.765,59.299 34.39,66.724 C33.096,74.159 32.077,81.662 31.431,89.204 C30.799,96.748 30.545,104.337 30.596,111.905 C30.64,119.502 30.964,127.051 31.581,134.615 C32.183,142.174 33.018,149.715 33.766,157.294 C34.13,161.085 34.458,164.893 34.636,168.72 C34.726,170.652 34.786,172.512 34.773,174.517 C34.669,176.413 34.578,178.306 34.431,180.222 C34.162,184.048 33.953,187.857 33.431,191.622 C33.184,193.499 32.975,195.476 32.776,197.335 L32.108,202.995 C31.211,210.544 30.435,218.091 29.594,225.641 L24.788,270.981 L20.117,316.356 C19.721,320.163 18.877,324.035 17.756,327.702 C17.494,328.633 17.194,329.546 16.889,330.453 C16.584,331.364 16.291,332.276 15.953,333.178 C15.303,334.987 14.627,336.78 14.056,338.534 C12.912,342.115 12.073,345.805 11.327,349.512 C10.955,351.366 10.613,353.233 10.279,355.102 L9.768,357.914 L9.481,359.332 C9.427,359.569 9.371,359.811 9.303,360.06 C9.213,360.327 9.19,360.53 8.972,360.912 L8.959,360.933 L8.938,360.954 C7.865,362.306 6.743,363.57 5.459,364.752 C5.147,365.042 4.771,365.324 4.458,365.586 C4.132,365.833 3.873,366.077 3.587,366.372 C3.039,366.943 2.552,367.597 2.198,368.271 C1.844,368.932 1.66,369.722 1.962,370.068 C2.232,370.469 3.08,370.609 3.837,370.603 C5.416,370.598 7.04,370.144 8.708,369.839 C12.013,369.151 15.375,368.754 18.421,367.568 C19.184,367.277 19.914,366.917 20.622,366.514 C21.393,366.113 21.882,365.682 22.361,365.047 C23.299,363.789 23.886,362.228 24.371,360.656 C25.29,357.478 25.826,354.172 26.589,350.851 C26.985,349.193 27.443,347.535 28.119,345.877 L28.412,345.257 C28.519,345.048 28.666,344.808 28.796,344.586 C29.064,344.17 29.353,343.785 29.662,343.422 C30.285,342.693 31.012,342.107 31.736,341.569 C34.691,339.507 37.894,338.453 40.382,336.431 C41.612,335.437 42.611,334.2 43.163,332.752 C43.737,331.341 43.884,329.731 43.453,328.3 C43.058,326.839 42.211,325.502 41.224,324.247 C40.232,322.984 39.084,321.798 37.97,320.479 C36.868,319.155 35.705,317.738 34.974,315.767 C34.796,315.278 34.638,314.755 34.565,314.193 C34.514,313.922 34.506,313.631 34.494,313.339 L34.489,313.233 C34.482,313.306 34.494,313.007 34.494,313.011 L34.509,312.855 L34.584,312.333 C34.763,311.4 34.959,310.599 35.159,309.763 C36.768,303.173 38.68,296.742 40.547,290.276 C42.426,283.814 44.353,277.373 46.164,270.898 C47.976,264.422 49.685,257.921 51.393,251.422 C53.079,244.915 54.703,238.398 56.215,231.864 C56.958,228.601 57.7,225.322 58.262,222.079 C58.397,221.267 58.527,220.476 58.586,219.687 C58.652,218.861 58.774,217.994 58.802,217.199 C58.903,215.595 58.948,213.947 58.934,212.3 C58.905,208.996 58.704,205.667 58.582,202.281 C58.461,198.902 58.394,195.437 58.826,191.974 L58.988,190.677 L59.219,189.386 C59.354,188.524 59.573,187.673 59.782,186.824 C59.967,185.97 60.271,185.143 60.521,184.305 C60.762,183.51 61.058,182.691 61.274,181.919 C62.206,178.777 63.018,175.497 63.802,172.252 C66.895,159.202 69.573,146.024 71.987,132.815 C73.179,126.21 74.304,119.586 75.258,112.946 C75.733,109.628 76.168,106.301 76.511,102.972 C76.831,99.65 77.133,96.296 77.017,93.028 L76.985,92.101 L77.86,92.283 L77.863,92.283 C78.817,92.301 79.751,92.439 80.675,92.611 C81.597,92.799 82.514,93.019 83.404,93.371 L84.05,93.625 L83.974,94.053 L83.974,94.054 C84.081,100.928 84.358,107.82 84.87,114.679 C85.133,118.108 85.401,121.537 85.932,124.931 C86.439,128.327 87.028,131.691 88.021,134.944 C89.004,138.291 89.779,141.668 90.525,145.048 C91.269,148.43 91.951,151.819 92.584,155.225 C93.855,162.027 94.916,168.869 95.765,175.746 C96.619,182.627 97.19,189.554 97.205,196.558 C97.188,198.314 97.147,200.074 97.015,201.845 L96.496,207.029 C96.246,210.351 96.14,213.767 96.113,217.179 C96.097,224.011 96.373,230.886 96.759,237.765 L97.957,258.445 C98.114,261.915 98.199,265.345 98.399,268.786 C98.602,272.211 98.878,275.648 99.211,279.077 C99.847,285.939 100.607,292.82 100.78,299.802 C100.852,303.283 100.772,306.795 100.439,310.302 L100.146,312.931 C100.028,313.788 99.839,314.628 99.693,315.48 L98.755,320.564 C97.526,327.347 96.276,334.134 95.276,340.944 C95.011,342.648 94.797,344.347 94.601,346.048 L94.06,351.204 L93.469,356.334 C93.367,358 93.293,359.772 93.276,361.461 C93.285,363.149 93.289,364.915 93.748,366.432 C93.875,366.834 94.011,367.016 94.312,367.389 C94.446,367.575 94.583,367.705 94.716,367.83 C94.843,367.967 94.985,368.096 95.146,368.209 C95.76,368.688 96.49,369.004 97.259,369.104 C98.863,369.272 100.526,368.916 102.124,368.411 C103.716,367.881 105.249,367.145 106.658,366.241 C108.046,365.345 109.374,364.176 110.281,362.936 C111.067,361.535 111.401,359.832 111.642,358.166 C111.865,356.479 111.929,354.803 111.748,353.107 C111.603,351.387 111.442,349.672 111.331,347.948 L110.935,342.782 C110.814,341.059 110.716,339.34 110.507,337.621 C110.353,335.885 110.111,334.183 110.072,332.387 C110.051,331.575 110.158,330.51 110.435,329.602 C110.755,328.637 111.19,327.936 111.406,327.21 C111.519,326.82 111.613,326.482 111.656,326.063 C111.685,325.712 111.72,325.296 111.71,324.887 C111.685,324.066 111.613,323.225 111.488,322.383 C111.377,321.535 111.238,320.695 111.134,319.805 C111.093,319.346 111.033,318.934 111.087,318.309 C111.185,317.768 111.274,317.434 111.363,316.987 L111.884,314.438 L112.322,311.909 L112.751,309.382 L113.093,306.83 L113.435,304.275 L113.605,303.004 L113.692,302.363 L113.735,302.048 L113.798,301.663 L114.701,296.572 C115.272,293.186 115.837,289.797 116.317,286.391 L117.755,276.15 L119.344,265.911 C120.406,259.102 121.358,252.298 121.933,245.455 L122.308,240.323 C122.412,238.612 122.451,236.895 122.521,235.182 C122.715,231.755 122.625,228.327 122.399,224.953 C121.931,218.146 120.324,211.474 119.42,204.515 C118.426,197.567 118.597,190.361 119.705,183.412 L121.369,173.208 C121.921,169.815 122.431,166.412 122.933,163.008 C124.959,149.387 126.728,135.708 128.099,121.997 C129.469,108.289 130.495,94.535 131.037,80.809 C131.255,73.95 131.463,67.081 130.683,60.426 C129.896,53.723 128.287,47.135 125.935,40.773 C123.649,34.379 120.587,28.258 117.851,21.859 C116.497,18.662 115.247,15.344 114.611,11.851 C114.315,10.105 114.173,8.32 114.334,6.558 C114.48,4.794 114.931,3.079 115.615,1.492 C115.201,3.176 115.033,4.888 115.108,6.574 C115.199,8.263 115.5,9.927 115.974,11.536 C116.912,14.77 118.42,17.825 119.962,20.874 C123.131,26.936 126.495,33.058 129.043,39.601 C131.592,46.13 133.418,53.008 134.217,60.014 C134.654,63.499 134.786,67.077 134.736,70.548 C134.701,74.033 134.56,77.499 134.385,80.962 C133.625,94.797 132.181,108.529 130.823,122.274 L128.684,142.878 C127.954,149.742 127.249,156.613 126.428,163.477 C126.021,166.908 125.598,170.336 125.141,173.769 C124.7,177.182 124.11,180.675 123.62,184.007 C122.592,190.691 122.426,197.393 122.932,204.155 C123.438,210.917 124.467,217.828 124.745,224.808 C124.823,226.54 124.869,228.336 124.851,230.052 L124.83,232.656 L124.713,235.257 C124.625,236.987 124.575,238.725 124.457,240.45 L124.035,245.637 C123.368,252.533 122.45,259.402 121.404,266.225 L119.851,276.439 L118.465,286.694 C117.986,290.125 117.463,293.545 116.868,296.957 L115.959,302.055 L115.26,307.137 L114.909,309.712 L114.471,312.278 L114.03,314.842 L113.509,317.363 L113.238,318.566 C113.214,318.799 113.217,319.254 113.232,319.654 L113.329,322.227 C113.345,323.105 113.391,323.986 113.362,324.887 C113.352,325.34 113.341,325.784 113.292,326.295 C113.251,326.733 113.128,327.232 113.023,327.678 C112.787,328.618 112.352,329.439 112.175,330.125 C111.987,330.875 111.9,331.536 111.863,332.447 L111.755,337.551 C111.785,340.997 112.063,344.434 112.266,347.866 C112.374,349.586 112.537,351.304 112.667,353.02 C112.854,354.758 112.802,356.547 112.576,358.285 C112.329,360.014 112.014,361.778 111.13,363.409 C110.009,364.971 108.686,366.094 107.192,367.079 C105.702,368.032 104.092,368.797 102.421,369.352 C100.744,369.875 98.958,370.276 97.112,370.081 C96.173,369.963 95.258,369.565 94.519,368.982 C94.331,368.846 94.151,368.685 93.983,368.506 C93.801,368.331 93.635,368.156 93.517,367.989 L93.319,367.733 L93.215,367.606 C93.149,367.512 93.135,367.482 93.092,367.418 C92.954,367.189 92.863,366.959 92.786,366.73 C92.26,364.926 92.267,363.187 92.243,361.442 C92.252,359.681 92.315,358.006 92.403,356.232 C92.541,354.494 92.724,352.791 92.882,351.072 C93.218,347.68 93.348,344.176 93.77,340.752 C94.502,333.877 95.273,327.017 96.084,320.155 L96.701,315.009 L97.021,312.447 L97.402,309.943 C97.852,306.596 98.069,303.207 98.131,299.797 C98.285,292.975 97.849,286.096 97.424,279.208 C97.236,275.762 96.986,272.316 96.822,268.854 C96.642,265.406 96.563,261.941 96.347,258.524 C95.95,251.659 95.154,244.807 94.45,237.937 C93.765,231.065 93.094,224.166 92.916,217.208 C92.822,213.727 92.904,210.237 93.154,206.687 L93.677,201.577 C93.823,199.917 93.879,198.223 93.909,196.531 C93.979,189.742 93.415,182.892 92.802,176.062 C92.145,169.23 91.256,162.409 90.241,155.608 C89.188,148.821 88.058,142.006 86.368,135.391 C85.444,132.01 84.941,128.541 84.532,125.108 C84.15,121.662 83.772,118.224 83.515,114.776 C82.976,107.88 82.668,100.985 82.534,94.068 L82.534,94.067 L83.097,94.745 C82.14,94.737 81.205,94.599 80.285,94.43 C79.36,94.242 78.444,94.026 77.555,93.68 L77.555,93.68 L78.398,92.935 C78.613,96.387 78.38,99.761 78.096,103.128 C77.803,106.492 77.412,109.846 76.992,113.19 C76.138,119.878 75.113,126.534 74.018,133.178 C71.8,146.463 69.33,159.697 66.418,172.866 C65.673,176.169 64.921,179.429 63.992,182.755 C63.767,183.609 63.492,184.368 63.272,185.193 C63.066,185.972 62.799,186.735 62.659,187.53 C62.49,188.318 62.306,189.102 62.209,189.905 L62.027,191.101 L61.911,192.311 C61.241,198.761 62.177,205.446 62.079,212.297 C62.068,214.011 61.999,215.722 61.861,217.474 C61.812,218.36 61.687,219.159 61.604,220.004 C61.522,220.893 61.365,221.763 61.209,222.606 C60.574,225.981 59.781,229.252 58.982,232.534 C57.371,239.088 55.628,245.588 53.908,252.095 L48.738,271.606 C47.049,278.117 45.443,284.65 43.8,291.169 L41.338,300.942 L38.842,310.673 C38.648,311.468 38.446,312.298 38.301,313.02 C38.257,313.093 38.262,313.382 38.303,313.664 C38.331,313.935 38.401,314.228 38.495,314.53 C38.89,315.747 39.727,317.093 40.617,318.468 C41.512,319.847 42.477,321.28 43.332,322.829 C44.18,324.382 44.93,326.069 45.238,327.91 C45.908,331.669 44.084,335.371 41.415,337.686 C38.769,340.069 35.582,341.528 33.141,343.491 C31.919,344.47 30.938,345.541 30.396,346.854 C29.762,348.296 29.272,349.875 28.766,351.455 C27.743,354.619 26.859,357.894 25.611,361.091 C25.306,361.895 24.973,362.691 24.586,363.468 C24.206,364.247 23.78,365.025 23.214,365.733 C22.917,366.087 22.649,366.421 22.243,366.742 C21.888,367.052 21.489,367.265 21.122,367.472 C20.366,367.897 19.582,368.277 18.772,368.579 C15.52,369.819 12.128,370.183 8.863,370.853 C7.232,371.158 5.589,371.647 3.79,371.673 C3.345,371.683 2.88,371.642 2.405,371.536 C1.941,371.427 1.403,371.21 1.028,370.716 C0.648,370.222 0.59,369.583 0.679,369.097 C0.76,368.593 0.941,368.154 1.146,367.743 C1.56,366.927 2.098,366.222 2.698,365.564 C2.988,365.251 3.339,364.91 3.676,364.64 C4.004,364.355 4.299,364.13 4.596,363.841 C5.766,362.72 6.854,361.44 7.844,360.136 L7.815,360.182 C7.836,360.149 7.919,359.882 7.967,359.696 C8.021,359.481 8.071,359.259 8.113,359.036 L8.362,357.653 L8.806,354.845 C9.101,352.966 9.402,351.083 9.737,349.202 C10.403,345.442 11.201,341.699 12.214,337.989 C12.719,336.103 13.286,334.304 13.778,332.489 C14.046,331.587 14.264,330.671 14.497,329.759 C14.728,328.848 14.966,327.938 15.157,327.021 C15.982,323.343 16.595,319.734 16.972,315.977 C17.758,308.429 18.497,300.873 19.331,293.317 L21.833,270.656 L27.157,225.364 C28.053,217.811 28.883,210.243 29.833,202.705 L30.54,197.052 C30.775,195.14 30.871,193.323 30.948,191.413 C31.038,187.606 31.425,183.838 31.7,180.087 C31.86,178.215 31.971,176.313 32.094,174.414 C32.121,172.621 32.08,170.684 32.009,168.816 C31.861,165.049 31.597,161.277 31.3,157.498 C30.686,149.939 29.967,142.357 29.47,134.758 C28.994,127.161 28.671,119.519 28.658,111.912 C28.663,104.281 28.859,96.67 29.269,89.05 C29.689,81.435 30.357,73.818 31.48,66.243 C32.615,58.682 34.148,51.122 36.6,43.822 C38.997,36.569 41.486,29.423 44.121,22.278 C44.445,21.389 44.798,20.49 45.099,19.61 C45.407,18.756 45.659,17.868 45.905,16.975 C46.374,15.178 46.697,13.327 46.983,11.464 C47.608,7.749 47.923,3.963 48.14,0.161 Z" id="outerline" fill="#BCBEC0"></path>
                <path d="M132.597,104.236 C133.321,96.497 133.968,88.745 134.396,80.962 C134.57,77.501 134.708,74.035 134.746,70.548 C134.801,67.082 134.664,63.504 134.228,60.019 C133.429,53.014 131.603,46.133 129.054,39.606 C128.412,37.96 127.72,36.337 126.992,34.742 C117.107,38.37 104.678,40.145 82.289,39.961 C61.512,39.791 47.185,35.845 40.191,33.362 C38.981,36.836 37.796,40.322 36.635,43.834 C34.182,51.134 32.649,58.694 31.514,66.255 C30.391,73.827 29.723,81.444 29.303,89.063 C29.111,92.628 28.97,96.197 28.869,99.764 C34.561,103.465 51.076,111.66 77.968,104.677 C78.017,104.164 78.075,103.655 78.12,103.141 C78.378,100.108 78.567,97.067 78.455,93.971 C79.065,94.158 79.684,94.316 80.309,94.442 C81.053,94.581 81.809,94.675 82.575,94.719 C82.614,96.576 82.821,102.437 82.886,104.289 C89.388,108.251 109.967,112.124 132.597,104.236 Z" id="default_pants" fill="#808285"></path>
            </g>
            <g id="ankle" transform="translate(27.000000, 213.000000)" fill="#808285" fill-rule="nonzero">
                <path d="M41.591,56.21 L37.785,70.613 C36.093,77.119 34.489,83.655 32.847,90.176 L30.385,99.949 L29.067,105.094 C18.151,108.339 10.5,104.371 7.34,102.163 C7.678,98.888 8.019,95.605 8.38,92.326 L10.882,69.665 L12.882,52.651 C20.612,55.108 28.258,56.375 41.591,56.21 Z M111.778,55.772 L110.443,65.224 L108.892,75.437 L107.505,85.691 C107.024,89.121 106.503,92.54 105.909,95.953 L104.999,101.052 L104.561,104.223 C97.09,107.153 90.921,106.288 86.867,104.905 C87.03,102.882 87.134,100.849 87.172,98.808 C87.326,91.986 86.89,85.107 86.465,78.217 C86.272,74.769 86.022,71.328 85.861,67.865 C85.684,64.417 85.603,60.952 85.388,57.535 C85.329,56.532 85.247,55.529 85.174,54.526 C91.757,56.125 100.132,56.5 111.778,55.772 Z" id="ankle_1_knees_1_thigh_1"></path>
                <path d="M47.219,34.688 C47.219,34.688 41.273,68.559 39.633,78.959 C37.993,89.359 35.413,108.82 34.989,112.625 C34.989,112.625 25.473,121.713 6.551,109.67 L14.98,34.69 C15.235,32.539 27.62,42.184 47.219,34.688 Z M83.228,34.368 C83.228,34.368 87.908,40.928 113.729,34.261 C113.729,34.261 113.091,57.623 112.468,71.459 C111.845,85.295 111.135,114.293 111.135,114.293 C111.135,114.293 94.8,124.461 82.05,113.377 C82.05,113.377 83.973,57.13 83.801,68.625 C83.629,80.12 83.228,34.368 83.228,34.368 Z" id="ankle_2_knees_1_thigh_1"></path>
                <path d="M48.203,51.292 C48.203,51.292 46.67,75.598 45.576,115.242 C45.576,115.242 25.474,121.713 6.553,109.67 L13.425,47.936 C13.426,47.933 28.604,58.788 48.203,51.292 Z M79.583,51.292 C79.583,51.292 91.475,57.959 117.297,51.292 L118.957,112.957 C118.957,112.957 100.671,124.019 76.712,114.128 L79.583,51.292 Z" id="ankle_2_knees_2_thigh_1"></path>
                <path d="M50.623,47.934 C50.623,47.934 43.799,113.29 43.8,113.29 C43.8,113.29 23.053,120.418 4.133,108.373 L10.9,47.934 C10.899,47.933 31.023,55.43 50.623,47.934 Z M75.441,47.934 C75.441,47.934 92.151,55.956 117.973,49.289 L118.81,111.623 C118.81,111.623 98.486,123.894 72.236,112.394 L75.441,47.934 Z" id="ankle_2_knees_1_thigh_2"></path>
                <path d="M48.895,45.45 C48.895,45.45 46.633,64.625 59.132,111.875 C59.132,111.875 25.11,129.242 2.007,106.625 C2.007,106.625 6.085,92.752 8.8,78.792 C11.515,64.834 14.166,41.631 14.166,41.631 C14.166,41.631 29.296,52.946 48.895,45.45 Z M79.614,46.295 C79.614,46.295 93.969,60.11 117.338,46.295 C117.338,46.295 118.219,60.857 121.469,73.958 C124.719,87.061 131.968,110.294 131.968,110.294 C131.968,110.294 94.134,133.625 62.634,111.625 C62.634,111.625 71.491,91.007 74.802,78.958 C78.875,64.125 79.614,46.295 79.614,46.295 Z" id="ankle_3_knees_2_thigh_1"></path>
                <path d="M66.1589077,114.589472 C55.5941147,119.748942 26.228634,130.769753 0.468,109.623 C0.468,109.623 7.28,65.622 8.968,50.624 C10.653,35.626 14.575,0.25 14.575,0.25 C14.575,0.25 30.583,7.188 56.404,0.521 C56.404,0.521 57.383,21.163 58.966,34.125 C59.7370768,40.43877 62.4245422,59.1764416 64.9785069,76.7366526 C66.8636601,65.963776 68.6278183,55.2412515 69.297,49.292 C70.985,34.294 74.248,4.164 74.248,4.164 C74.248,4.164 93.289,10.045 119.109,3.378 C119.109,3.378 122.038,37.808 123.76,52.291 C125.484,66.776 133.963,109.625 133.963,109.625 C133.963,109.625 97.092144,132.242469 66.1589077,114.589472 Z" id="ankle_3_knees_2_thigh_2"></path>
            </g>
            <g id="knees" transform="translate(37.000000, 173.000000)" fill="#808285" fill-rule="nonzero">
                <path d="M105.31,3.616 L104.166,12.764 C103.725,16.175 103.134,19.669 102.645,23.001 C101.613,29.683 101.447,36.384 101.959,43.15 C102.46,49.909 103.495,56.824 103.771,63.804 C103.849,65.536 103.895,67.329 103.879,69.045 L103.858,71.651 L103.742,74.25 C103.653,75.982 103.603,77.716 103.485,79.445 L103.063,84.629 C102.706,88.355 102.265,92.069 101.78,95.771 C90.256,98.335 81.4,96.878 75.171,94.523 C74.738,88.665 74.087,82.81 73.483,76.945 C72.803,70.073 72.129,63.181 71.949,56.214 C71.855,52.733 71.937,49.248 72.187,45.693 L72.712,40.583 C72.853,38.921 72.914,37.229 72.943,35.537 C73.018,28.748 72.451,21.898 71.837,15.068 C71.529,11.908 70.941,7.404 70.548,4.249 C70.553,4.312 70.562,4.375 70.57,4.437 C78.249,6.855 91.121,8.515 105.31,3.616 Z M10.773,2.624 C10.732,1.584 31.74,9.256 47.112,4.119 C46.669,6.239 45.923,9.754 45.456,11.871 C44.711,15.172 43.959,18.437 43.028,21.758 C42.804,22.611 42.528,23.373 42.308,24.196 C42.102,24.975 41.84,25.738 41.695,26.533 C41.526,27.321 41.347,28.104 41.247,28.908 L41.063,30.104 L40.947,31.313 C40.277,37.764 41.215,44.447 41.115,51.301 C41.104,53.014 41.037,54.725 40.897,56.477 C40.849,57.36 40.724,58.157 40.641,59.006 C40.558,59.895 40.398,60.766 40.247,61.609 C39.61,64.984 38.817,68.255 38.018,71.537 C36.407,78.089 34.668,84.589 32.944,91.098 L31.59,96.208 C18.264,98.699 8.72,95.747 2.871,92.646 L6.193,64.373 C7.091,56.82 7.921,49.252 8.871,41.714 L9.578,36.062 C9.811,34.15 9.909,32.33 9.984,30.422 C10.076,26.618 10.463,22.848 10.736,19.097 C10.899,17.225 11.01,15.319 11.132,13.423 C11.162,11.63 10.844,4.489 10.773,2.624 Z" id="knees_1_thigh_1"></path>
                <path d="M69.857,95.597 C68.963,82.128 70.546,4.25 70.546,4.25 C70.554,4.313 91.122,8.515 105.311,3.616 C108.142,85.625 107.178,94.614 107.178,94.614 C94.041,100.281 76.086,97.953 69.857,95.597 Z M41.946,31.315 C41.849,69.401 37.259,98.135 37.258,98.135 C23.932,100.625 8.72,95.747 2.871,92.646 L6.193,64.373 C7.091,56.82 7.921,49.252 8.871,41.714 L9.578,36.062 C9.811,34.15 9.909,32.33 9.984,30.422 C10.076,26.618 10.463,22.848 10.736,19.097 C10.899,17.225 11.01,15.319 11.132,13.423 C11.162,11.63 10.844,4.489 10.773,2.624 C10.732,1.585 31.742,9.256 47.11,4.121 C46.667,6.241 45.921,9.756 45.454,11.873 C44.709,15.174 42.839,25.74 42.694,26.535 C42.525,27.323 42.346,28.106 42.246,28.91 L42.062,30.106 L41.946,31.315 Z" id="knees_2_thigh_1"></path>
                <path d="M65.258,96.75 C66.345,76.189 62.236,2.526 62.236,2.526 C62.243,2.588 96.029,7.423 110.22,2.526 C109.763,15.126 107.84,94.775 107.84,94.775 C94.702,100.442 84.654,104.597 65.258,96.75 Z M7.323,0.954 C7.323,0.954 35.518,9.126 50.888,3.991 C50.443,6.111 39.823,95.605 39.823,95.605 C26.498,98.094 6.482,94.392 0.635,91.291 C0.633,91.291 5.916,24.91 7.323,0.954 Z" id="knees_1_thigh_2"></path>
                <path d="M59,94.775 C59.5087388,85.15202 65.1373268,65.8723834 64.3236849,45.9816623 C63.3988538,23.3727504 62.236,2.526 62.236,2.526 C62.243,2.588 96.029,7.423 110.22,2.526 C110.023897,7.93277343 109.557853,25.6855833 109.089646,44.1932652 C108.854085,53.5046799 110.355586,62.6871633 111,70.5 C112.059653,83.3471804 112.602159,92.5 112.602159,92.5 C99.4641588,98.167 78.396,102.622 59,94.775 Z M7.323,0.954 C7.323,0.954 35.518,9.126 50.888,3.991 C50.6912468,4.92834101 48.5053876,22.9463847 46.1278201,42.7576992 C45.107756,51.2574841 46.2040585,58.3022056 46.7261145,64.5 C47.7393273,76.5287542 49.6182411,85.2605898 50.888,94.5 C37.563,96.989 6.482,94.392 0.635,91.291 C0.633,91.291 5.916,24.91 7.323,0.954 Z" id="knees_2_thigh_2"></path>
            </g>
            <g id="thigh" transform="translate(38.000000, 45.000000)" fill="#808285" fill-rule="nonzero">
                <path d="M121.298,81.875 C117.469,57.188 114.627,36.322 111.683,22.644 C109.946,14.574 107.534,9.029 106.585,6.606 C105.942,4.96 105.251,3.337 104.523,1.742 C94.64,5.37 82.211,7.145 59.821,6.961 C39.045,6.791 24.717,2.845 17.724,0.362 C16.514,3.836 15.329,7.322 14.168,10.834 C11.715,18.134 10.182,25.694 9.047,33.255 C8.038,40.061 6.915,49.239 6.151,55.567 C5.367,62.088 2.418,74.92 0.043,85.295 C0.043,85.295 31.58,98.231 56.939,87.884 L57.735,61.412 C57.772,61.42 57.808,61.433 57.845,61.44 C57.857,61.442 57.867,61.443 57.879,61.445 L60.666,61.716 L59.084,88.125 C62.942,89.614 92.972,96.319 121.298,81.875 Z" id="thigh_0"></path>
                <path d="M112.128,27.016 C111.329,20.011 109.503,13.13 106.954,6.603 C106.311,4.957 105.62,3.334 104.892,1.739 C95.009,5.367 82.578,7.142 60.189,6.958 C39.413,6.788 25.085,2.841 18.092,0.359 C16.881,3.833 15.696,7.319 14.535,10.831 C12.082,18.131 10.549,25.691 9.414,33.252 C8.291,40.824 7.623,48.441 7.203,56.06 C6.793,63.68 6.599,71.29 6.593,78.921 C6.607,86.525 6.931,94.17 7.405,101.768 C7.902,109.369 8.62,116.951 9.236,124.507 C9.463,127.363 9.648,130.215 9.798,133.068 C17.093,135.709 30.327,138.653 45.697,133.516 C48.025,122.447 50.086,111.334 51.943,100.187 C53.039,93.541 54.062,86.883 54.918,80.199 C55.34,76.855 55.729,73.504 56.022,70.137 C56.28,67.105 56.471,64.064 56.356,60.967 C56.969,61.155 57.586,61.313 58.213,61.439 C58.957,61.578 59.713,61.672 60.477,61.716 C60.623,68.419 60.922,75.105 61.446,81.785 C61.704,85.233 62.081,88.671 62.462,92.117 C62.872,95.552 63.374,99.019 64.298,102.4 C65.989,109.016 67.12,115.83 68.171,122.617 C68.728,126.334 69.233,130.057 69.696,133.785 C77.378,136.203 89.792,138.226 103.981,133.327 C104.096,132.376 104.225,131.425 104.338,130.474 C105.157,123.613 105.859,116.742 106.594,109.874 L108.731,89.271 C110.09,75.528 111.538,61.792 112.295,47.959 C112.469,44.498 112.607,41.032 112.643,37.545 C112.698,34.082 112.563,30.504 112.128,27.016 Z" id="thigh_1"></path>
                <path d="M108.662,136.335 C110.583,117.276 112.826,84.954 113.391,66.625 C114.274,37.979 112.28,30.125 112.28,30.125 L112.062,30.241 C111.982,29.161 111.885,28.083 111.752,27.014 C110.948,20.011 109.123,13.13 106.573,6.603 C105.93,4.957 105.237,3.334 104.511,1.739 C94.628,5.367 82.196,7.142 59.808,6.958 C39.03,6.788 24.704,2.841 17.711,0.359 C16.502,3.833 15.315,7.319 14.152,10.831 C11.701,18.131 10.17,25.691 9.033,33.252 C8.022,40.058 7.393,46.897 6.971,53.736 L6.951,53.734 C6.951,53.734 6.949,53.855 6.945,54.084 C6.907,54.742 6.855,55.399 6.819,56.06 C6.413,63.68 6.215,71.29 6.212,78.921 C6.214,80.535 6.235,82.151 6.268,83.772 C5.845,96.973 7.079,118.576 6.003,136.336 C12.291,139.856 25.713,145.566 48.645,141.315 C52.725,112.044 57.722,61.413 57.722,61.413 C57.759,61.421 57.795,61.434 57.832,61.441 C57.844,61.443 57.853,61.444 57.865,61.446 L61.66,139.292 C67.969,142.092 86.355,152.921 108.662,136.335 Z" id="thigh_2"></path>
            </g>
            <g id="rise" transform="translate(52.000000, 9.000000)" fill="#808285" fill-rule="nonzero">
                <path d="M94.801,47.556 C94.26,45.886 93.668,44.233 93.03,42.603 C92.388,40.957 91.695,39.334 90.968,37.739 C81.085,41.367 68.653,43.142 46.265,42.958 C25.487,42.788 11.161,38.841 4.168,36.359 C2.959,39.833 1.772,43.319 0.609,46.831 C0.606,46.842 0.602,46.852 0.599,46.863 C8.979,50.691 45.176,64.703 94.801,47.556 Z" id="rise_0"></path>
                <path d="M83.886,23.879 C83.209,22.542 83.167,22.556 82.548,21.201 C53.041,31.227 20.839,24.27 9.65,20.911 C9.578,21.228 9.52,21.552 9.438,21.865 C9.192,22.758 8.94,23.645 8.633,24.5 C8.332,25.38 7.981,26.279 7.654,27.168 C6.296,30.855 4.521,35.361 3.232,39.064 C10.222,41.543 25.486,45.791 46.265,45.96 C68.651,46.145 81.787,42.958 91.671,39.329 C89.509,34.573 86.259,28.414 83.886,23.879 Z" id="rise_1"></path>
                <path d="M93.031,42.603 C92.6,41.499 92.14,40.411 91.671,39.329 C91.673,39.329 91.674,39.328 91.676,39.328 C91.646,39.263 91.61,39.187 91.579,39.12 C91.377,38.66 91.179,38.196 90.971,37.74 C90.961,37.744 90.95,37.747 90.941,37.751 C88.82,33.27 86.006,27.932 83.888,23.88 C83.211,22.543 82.55,21.202 81.931,19.85 C81.911,19.856 81.893,19.862 81.873,19.869 C81.145,18.147 80.308,15.957 79.896,14.545 C79.673,13.798 79.498,13.04 79.354,12.274 C79.083,9.758 79.858,4.022 80.713,1.504 C47.504,13.793 12.12,0.357 12.12,0.357 C11.903,4.159 11.509,10.753 10.93,14.48 C10.694,16.012 9.868,19.661 9.516,21.166 C9.37,21.659 9.218,22.147 9.047,22.624 C8.746,23.504 8.395,24.403 8.068,25.292 C7.001,28.188 5.422,32.745 4.17,36.363 C4.17,36.363 4.169,36.363 4.168,36.362 C4.121,36.499 4.076,36.637 4.026,36.774 C3.739,37.606 3.469,38.379 3.231,39.064 C3.237,39.065 3.244,39.067 3.248,39.069 C2.358,41.65 1.472,44.23 0.609,46.834 C0.606,46.847 0.602,46.855 0.599,46.866 C8.975,50.694 45.172,64.706 94.797,47.559 C94.259,45.886 93.668,44.234 93.031,42.603 Z" id="rise_2"></path>
            </g>
            <g id="touches_pants" fill="#F8E71C" stroke="#4A4A4A">
                <rect id="rise_TA" x="0.5" y="0.5" width="189" height="62"></rect>
                <rect id="thigh_TA" x="0.5" y="63.5" width="189" height="104"></rect>
                <rect id="knees_TA" x="0.5" y="168.5" width="189" height="104"></rect>
                <rect id="ankle_TA" x="0.5" y="273.5" width="189" height="104"></rect>
            </g>
        </g>
    </g>
</svg>
