<?xml version="1.0" encoding="UTF-8"?>
<svg width="201px" height="230px" viewBox="0 0 201 230" version="1.1" xmlns="http://www.w3.org/2000/svg" xmlns:xlink="http://www.w3.org/1999/xlink">
    <!-- Generator: Sketch 53.2 (72643) - https://sketchapp.com -->
    <title>Final_VF_Pants_2.0</title>
    <desc>Created with Sketch.</desc>
    <defs>
        <ellipse id="path-1" cx="100.061576" cy="130" rx="100.061576" ry="100"></ellipse>
    </defs>
    <g id="VF-Final" stroke="none" stroke-width="1" fill="none" fill-rule="evenodd">
        <g id="Final_VF_Pants_2.0">
            <g id="mannequin_pants" transform="translate(63.000000, 6.000000)" fill-rule="nonzero">
                <path d="M27.0738889,0.24 C27.0738889,0.24 27.3072222,7.25555556 25.8933333,11.4377778 C24.8538889,14.5161111 23.795,17.9411111 21.6116667,24.5 C19.1961111,31.7566667 16.7994444,44.3138889 16.7994444,61.7222222 C16.7994444,77.0772222 18.9283333,87.7288889 18.9294444,96.9072222 C18.9294444,97.8322222 18.1072222,108.400556 17.99,109.247778 C17.3672222,113.727778 15.2205556,133.660556 13.335,150.254444 C12.1661111,160.561111 10.7111111,175.258333 10.6538889,175.758889 C10.4338889,177.645556 10.1327778,180.591111 8.09611111,186.632778 C6.05944444,192.675556 5.46388889,199.737222 5.00777778,200.452222 C5.00777778,200.452222 3.72777778,202.137222 2.63166667,202.967222 C1.41444444,203.890556 -0.898333333,207.206667 4.12166667,206.123889 C7.775,205.333889 9.93111111,205.278889 12.2466667,203.856111 C14.5611111,202.434444 15.1288889,196.020556 16.6116667,192.548333 C18.0938889,189.073889 23.68,188.941667 24.9105556,184.630556 C26.1438889,180.316667 20.5427778,177.365 20.555,174.133889 C20.5616667,172.525 32.7433333,130.174444 33.6961111,122.618333 C34.65,115.063333 32.5566667,109.243333 34.8211111,102.491111 C37.085,95.7416667 44.1,60.2388889 43.5138889,51.8061111 L46.5955556,52.405 C46.5955556,52.405 46.7855556,68.3766667 48.7188889,75.0166667 C50.6522222,81.6561111 54.3938889,103.841111 53.1988889,113.300556 C52.0066667,122.76 54.1388889,136.637222 54.4294444,146.373333 C54.4405556,146.708889 54.4544444,147.04 54.4666667,147.375 C54.8438889,157.161111 56.3577778,165.605 55.1177778,173.798333 C55.1044444,173.890556 55.0938889,173.982778 55.0805556,174.075 C55.0805556,174.075 52.7727778,188.878889 52.4883333,192.82 C52.3127778,195.257778 51.9394444,197.932778 51.9394444,198.641111 C51.9394444,199.347222 51.6344444,203.191111 52.3444444,204.203333 C53.0505556,205.213333 53.9016667,205.422778 54.3411111,205.48 C56.3677778,205.738333 60.1872222,204.245556 61.8422222,201.921111 C62.4911111,200.864444 62.8783333,198.287778 62.7016667,196.525 C62.5244444,194.731111 61.9872222,187.155 61.9872222,185.088333 C61.9872222,183.022778 62.5138889,183.021667 62.7861111,181.676111 C63.0544444,180.329444 62.5705556,177.766667 62.6605556,177.048333 C62.6955556,176.755 63.3666667,174.497222 64.1427778,167.995556 C64.705,164.975 65.3722222,161.062778 65.8683333,157.110556 C66.9183333,148.802778 68.8361111,140.341667 69.0822222,129.373889 C69.3272222,118.407222 65.9961111,113.263889 68.0983333,101.109444 C70.1983333,88.9544444 75.0377778,47.5333333 74.1055556,35.44 C72.7211111,17.4605556 61.61,9.68277778 64.5722222,0.978888889 C64.5744444,0.981666667 47.3288889,6.90611111 27.0738889,0.24 Z" id="single-line" fill="#FFFFFF"></path>
                <path d="M26.7444444,0.0894444444 C26.9527778,2.19777778 26.9911111,4.32277778 26.8822222,6.45277778 C26.8205556,7.51777778 26.7144444,8.58388889 26.5316667,9.65055556 C26.4338889,10.1833333 26.3266667,10.7172222 26.1711111,11.2466667 L25.7388889,12.7766667 C24.5766667,16.8361111 23.32,20.8838889 22.03,24.8811111 C20.7772222,28.8594444 19.8694444,32.9438889 19.1055556,37.0688889 C18.3866667,41.1994444 17.8205556,45.3677778 17.4616667,49.5577778 C17.1105556,53.7488889 16.9694444,57.965 16.9977778,62.1694444 C17.0222222,66.39 17.2022222,70.5838889 17.545,74.7861111 C17.8794444,78.9855556 18.3433333,83.175 18.7588889,87.3855556 C18.9611111,89.4916667 19.1433333,91.6072222 19.2422222,93.7333333 C19.2922222,94.8066667 19.3255556,95.84 19.3183333,96.9538889 C19.2605556,98.0072222 19.21,99.0588889 19.1283333,100.123333 C18.9788889,102.248889 18.8627778,104.365 18.5727778,106.456667 C18.4355556,107.499444 18.3194444,108.597778 18.2088889,109.630556 L17.8377778,112.775 C17.3394444,116.968889 16.9083333,121.161667 16.4411111,125.356111 L13.7711111,150.545 L11.1761111,175.753333 C10.9561111,177.868333 10.4872222,180.019444 9.86444444,182.056667 C9.71888889,182.573889 9.55222222,183.081111 9.38277778,183.585 C9.21333333,184.091111 9.05055556,184.597778 8.86277778,185.098889 C8.50166667,186.103889 8.12611111,187.1 7.80888889,188.074444 C7.17333333,190.063889 6.70722222,192.113889 6.29277778,194.173333 C6.08611111,195.203333 5.89611111,196.240556 5.71055556,197.278889 L5.42666667,198.841111 L5.26722222,199.628889 C5.23722222,199.760556 5.20611111,199.895 5.16833333,200.033333 C5.11833333,200.181667 5.10555556,200.294444 4.98444444,200.506667 L4.97722222,200.518333 L4.96555556,200.53 C4.36944444,201.281111 3.74611111,201.983333 3.03277778,202.64 C2.85944444,202.801111 2.65055556,202.957778 2.47666667,203.103333 C2.29555556,203.240556 2.15166667,203.376111 1.99277778,203.54 C1.68833333,203.857222 1.41777778,204.220556 1.22111111,204.595 C1.02444444,204.962222 0.922222222,205.401111 1.09,205.593333 C1.24,205.816111 1.71111111,205.893889 2.13166667,205.890556 C3.00888889,205.887778 3.91111111,205.635556 4.83777778,205.466111 C6.67388889,205.083889 8.54166667,204.863333 10.2338889,204.204444 C10.6577778,204.042778 11.0633333,203.842778 11.4566667,203.618889 C11.885,203.396111 12.1566667,203.156667 12.4227778,202.803889 C12.9438889,202.105 13.27,201.237778 13.5394444,200.364444 C14.05,198.598889 14.3477778,196.762222 14.7716667,194.917222 C14.9916667,193.996111 15.2461111,193.075 15.6216667,192.153889 L15.7844444,191.809444 C15.8438889,191.693333 15.9255556,191.56 15.9977778,191.436667 C16.1466667,191.205556 16.3072222,190.991667 16.4788889,190.79 C16.825,190.385 17.2288889,190.059444 17.6311111,189.760556 C19.2727778,188.615 21.0522222,188.029444 22.4344444,186.906111 C23.1177778,186.353889 23.6727778,185.666667 23.9794444,184.862222 C24.2983333,184.078333 24.38,183.183889 24.1405556,182.388889 C23.9211111,181.577222 23.4505556,180.834444 22.9022222,180.137222 C22.3511111,179.435556 21.7133333,178.776667 21.0944444,178.043889 C20.4822222,177.308333 19.8361111,176.521111 19.43,175.426111 C19.3311111,175.154444 19.2433333,174.863889 19.2027778,174.551667 C19.1744444,174.401111 19.17,174.239444 19.1633333,174.077222 L19.1605556,174.018333 C19.1566667,174.058889 19.1633333,173.892778 19.1633333,173.895 L19.1716667,173.808333 L19.2133333,173.518333 C19.3127778,173 19.4216667,172.555 19.5327778,172.090556 C20.4266667,168.429444 21.4888889,164.856667 22.5261111,161.264444 C23.57,157.674444 24.6405556,154.096111 25.6466667,150.498889 C26.6533333,146.901111 27.6027778,143.289444 28.5516667,139.678889 C29.4883333,136.063889 30.3905556,132.443333 31.2305556,128.813333 C31.6433333,127.000556 32.0555556,125.178889 32.3677778,123.377222 C32.4427778,122.926111 32.515,122.486667 32.5477778,122.048333 C32.5844444,121.589444 32.6522222,121.107778 32.6677778,120.666111 C32.7238889,119.775 32.7488889,118.859444 32.7411111,117.944444 C32.725,116.108889 32.6133333,114.259444 32.5455556,112.378333 C32.4783333,110.501111 32.4411111,108.576111 32.6811111,106.652222 L32.7711111,105.931667 L32.8994444,105.214444 C32.9744444,104.735556 33.0961111,104.262778 33.2122222,103.791111 C33.315,103.316667 33.4838889,102.857222 33.6227778,102.391667 C33.7566667,101.95 33.9211111,101.495 34.0411111,101.066111 C34.5588889,99.3205556 35.01,97.4983333 35.4455556,95.6955556 C37.1638889,88.4455556 38.6516667,81.1244444 39.9927778,73.7861111 C40.655,70.1166667 41.28,66.4366667 41.81,62.7477778 C42.0738889,60.9044444 42.3155556,59.0561111 42.5061111,57.2066667 C42.6838889,55.3611111 42.8516667,53.4977778 42.7872222,51.6822222 L42.7694444,51.1672222 L43.2555556,51.2683333 L43.2572222,51.2683333 C43.7872222,51.2783333 44.3061111,51.355 44.8194444,51.4505556 C45.3316667,51.555 45.8411111,51.6772222 46.3355556,51.8727778 L46.6944444,52.0138889 L46.6522222,52.2516667 L46.6522222,52.2522222 C46.7116667,56.0711111 46.8655556,59.9 47.15,63.7105556 C47.2961111,65.6155556 47.445,67.5205556 47.74,69.4061111 C48.0216667,71.2927778 48.3488889,73.1616667 48.9005556,74.9688889 C49.4466667,76.8283333 49.8772222,78.7044444 50.2916667,80.5822222 C50.705,82.4611111 51.0838889,84.3438889 51.4355556,86.2361111 C52.1416667,90.015 52.7311111,93.8161111 53.2027778,97.6366667 C53.6772222,101.459444 53.9944444,105.307778 54.0027778,109.198889 C53.9933333,110.174444 53.9705556,111.152222 53.8972222,112.136111 L53.6088889,115.016111 C53.47,116.861667 53.4111111,118.759444 53.3961111,120.655 C53.3872222,124.450556 53.5405556,128.27 53.755,132.091667 L54.4205556,143.580556 C54.5077778,145.508333 54.555,147.413889 54.6661111,149.325556 C54.7788889,151.228333 54.9322222,153.137778 55.1172222,155.042778 C55.4705556,158.855 55.8927778,162.677778 55.9888889,166.556667 C56.0288889,168.490556 55.9844444,170.441667 55.7994444,172.39 L55.6366667,173.850556 C55.5711111,174.326667 55.4661111,174.793333 55.385,175.266667 L54.8638889,178.091111 C54.1811111,181.859444 53.4866667,185.63 52.9311111,189.413333 C52.7838889,190.36 52.665,191.303889 52.5561111,192.248889 L52.2555556,195.113333 L51.9272222,197.963333 C51.8705556,198.888889 51.8294444,199.873333 51.82,200.811667 C51.825,201.749444 51.8272222,202.730556 52.0822222,203.573333 C52.1527778,203.796667 52.2283333,203.897778 52.3955556,204.105 C52.47,204.208333 52.5461111,204.280556 52.62,204.35 C52.6905556,204.426111 52.7694444,204.497778 52.8588889,204.560556 C53.2,204.826667 53.6055556,205.002222 54.0327778,205.057778 C54.9238889,205.151111 55.8477778,204.953333 56.7355556,204.672778 C57.62,204.378333 58.4716667,203.969444 59.2544444,203.467222 C60.0255556,202.969444 60.7633333,202.32 61.2672222,201.631111 C61.7038889,200.852778 61.8894444,199.906667 62.0233333,198.981111 C62.1472222,198.043889 62.1827778,197.112778 62.0822222,196.170556 C62.0016667,195.215 61.9122222,194.262222 61.8505556,193.304444 L61.6305556,190.434444 C61.5633333,189.477222 61.5088889,188.522222 61.3927778,187.567222 C61.3072222,186.602778 61.1727778,185.657222 61.1511111,184.659444 C61.1394444,184.208333 61.1988889,183.616667 61.3527778,183.112222 C61.5305556,182.576111 61.7722222,182.186667 61.8922222,181.783333 C61.955,181.566667 62.0072222,181.378889 62.0311111,181.146111 C62.0472222,180.951111 62.0666667,180.72 62.0611111,180.492778 C62.0472222,180.036667 62.0072222,179.569444 61.9377778,179.101667 C61.8761111,178.630556 61.7988889,178.163889 61.7411111,177.669444 C61.7183333,177.414444 61.685,177.185556 61.715,176.838333 C61.7694444,176.537778 61.8188889,176.352222 61.8683333,176.103889 L62.1577778,174.687778 L62.4011111,173.282778 L62.6394444,171.878889 L62.8294444,170.461111 L63.0194444,169.041667 L63.1138889,168.335556 L63.1622222,167.979444 L63.1861111,167.804444 L63.2211111,167.590556 L63.7227778,164.762222 C64.04,162.881111 64.3538889,160.998333 64.6205556,159.106111 L65.4194444,153.416667 L66.3022222,147.728333 C66.8922222,143.945556 67.4211111,140.165556 67.7405556,136.363889 L67.9488889,133.512778 C68.0066667,132.562222 68.0283333,131.608333 68.0672222,130.656667 C68.175,128.752778 68.125,126.848333 67.9994444,124.973889 C67.7394444,121.192222 66.8466667,117.485556 66.3444444,113.619444 C65.7922222,109.759444 65.8872222,105.756111 66.5027778,101.895556 L67.4272222,96.2266667 C67.7338889,94.3416667 68.0172222,92.4511111 68.2961111,90.56 C69.4216667,82.9927778 70.4044444,75.3933333 71.1661111,67.7761111 C71.9272222,60.1605556 72.4972222,52.5194444 72.7983333,44.8938889 C72.9194444,41.0833333 73.035,37.2672222 72.6016667,33.57 C72.1644444,29.8461111 71.2705556,26.1861111 69.9638889,22.6516667 C68.6938889,19.0994444 66.9927778,15.6988889 65.4727778,12.1438889 C64.7205556,10.3677778 64.0261111,8.52444444 63.6727778,6.58388889 C63.5083333,5.61388889 63.4294444,4.62222222 63.5188889,3.64333333 C63.6,2.66333333 63.8505556,1.71055556 64.2305556,0.828888889 C64.0005556,1.76444444 63.9072222,2.71555556 63.9488889,3.65222222 C63.9994444,4.59055556 64.1666667,5.515 64.43,6.40888889 C64.9511111,8.20555556 65.7888889,9.90277778 66.6455556,11.5966667 C68.4061111,14.9644444 70.275,18.3655556 71.6905556,22.0005556 C73.1066667,25.6277778 74.1211111,29.4488889 74.565,33.3411111 C74.8077778,35.2772222 74.8811111,37.265 74.8533333,39.1933333 C74.8338889,41.1294444 74.7555556,43.055 74.6583333,44.9788889 C74.2361111,52.665 73.4338889,60.2938889 72.6794444,67.93 L71.4911111,79.3766667 C71.0855556,83.19 70.6938889,87.0072222 70.2377778,90.8205556 C70.0116667,92.7266667 69.7766667,94.6311111 69.5227778,96.5383333 C69.2777778,98.4344444 68.95,100.375 68.6777778,102.226111 C68.1066667,105.939444 68.0144444,109.662778 68.2955556,113.419444 C68.5766667,117.176111 69.1483333,121.015556 69.3027778,124.893333 C69.3461111,125.855556 69.3716667,126.853333 69.3616667,127.806667 L69.35,129.253333 L69.285,130.698333 C69.2361111,131.659444 69.2083333,132.625 69.1427778,133.583333 L68.9083333,136.465 C68.5377778,140.296111 68.0277778,144.112222 67.4466667,147.902778 L66.5838889,153.577222 L65.8138889,159.274444 C65.5477778,161.180556 65.2572222,163.080556 64.9266667,164.976111 L64.4216667,167.808333 L64.0333333,170.631667 L63.8383333,172.062222 L63.595,173.487778 L63.35,174.912222 L63.0605556,176.312778 L62.91,176.981111 C62.8966667,177.110556 62.8983333,177.363333 62.9066667,177.585556 L62.9605556,179.015 C62.9694444,179.502778 62.995,179.992222 62.9788889,180.492778 C62.9733333,180.744444 62.9672222,180.991111 62.94,181.275 C62.9172222,181.518333 62.8488889,181.795556 62.7905556,182.043333 C62.6594444,182.565556 62.4177778,183.021667 62.3194444,183.402778 C62.215,183.819444 62.1666667,184.186667 62.1461111,184.692778 L62.0861111,187.528333 C62.1027778,189.442778 62.2572222,191.352222 62.37,193.258889 C62.43,194.214444 62.5205556,195.168889 62.5927778,196.122222 C62.6966667,197.087778 62.6677778,198.081667 62.5422222,199.047222 C62.405,200.007778 62.23,200.987778 61.7388889,201.893889 C61.1161111,202.761667 60.3811111,203.385556 59.5511111,203.932778 C58.7233333,204.462222 57.8288889,204.887222 56.9005556,205.195556 C55.9688889,205.486111 54.9766667,205.708889 53.9511111,205.600556 C53.4294444,205.535 52.9211111,205.313889 52.5105556,204.99 C52.4061111,204.914444 52.3061111,204.825 52.2127778,204.725556 C52.1116667,204.628333 52.0194444,204.531111 51.9538889,204.438333 L51.8438889,204.296111 L51.7861111,204.225556 C51.7494444,204.173333 51.7416667,204.156667 51.7177778,204.121111 C51.6411111,203.993889 51.5905556,203.866111 51.5477778,203.738889 C51.2555556,202.736667 51.2594444,201.770556 51.2461111,200.801111 C51.2511111,199.822778 51.2861111,198.892222 51.335,197.906667 C51.4116667,196.941111 51.5133333,195.995 51.6011111,195.04 C51.7877778,193.155556 51.86,191.208889 52.0944444,189.306667 C52.5011111,185.487222 52.9294444,181.676111 53.38,177.863889 L53.7227778,175.005 L53.9005556,173.581667 L54.1122222,172.190556 C54.3622222,170.331111 54.4827778,168.448333 54.5172222,166.553889 C54.6027778,162.763889 54.3605556,158.942222 54.1244444,155.115556 C54.02,153.201111 53.8811111,151.286667 53.79,149.363333 C53.69,147.447778 53.6461111,145.522778 53.5261111,143.624444 C53.3055556,139.810556 52.8633333,136.003889 52.4722222,132.187222 C52.0916667,128.369444 51.7188889,124.536667 51.62,120.671111 C51.5677778,118.737222 51.6133333,116.798333 51.7522222,114.826111 L52.0427778,111.987222 C52.1238889,111.065 52.155,110.123889 52.1716667,109.183889 C52.2105556,105.412222 51.8972222,101.606667 51.5566667,97.8122222 C51.1916667,94.0166667 50.6977778,90.2272222 50.1338889,86.4488889 C49.5488889,82.6783333 48.9211111,78.8922222 47.9822222,75.2172222 C47.4688889,73.3388889 47.1894444,71.4116667 46.9622222,69.5044444 C46.75,67.59 46.54,65.68 46.3972222,63.7644444 C46.0977778,59.9333333 45.9266667,56.1027778 45.8522222,52.26 L45.8522222,52.2594444 L46.165,52.6361111 C45.6333333,52.6316667 45.1138889,52.555 44.6027778,52.4611111 C44.0888889,52.3566667 43.58,52.2366667 43.0861111,52.0444444 L43.0861111,52.0444444 L43.5544444,51.6305556 C43.6738889,53.5483333 43.5444444,55.4227778 43.3866667,57.2933333 C43.2238889,59.1622222 43.0066667,61.0255556 42.7733333,62.8833333 C42.2988889,66.5988889 41.7294444,70.2966667 41.1211111,73.9877778 C39.8888889,81.3683333 38.5166667,88.7205556 36.8988889,96.0366667 C36.485,97.8716667 36.0672222,99.6827778 35.5511111,101.530556 C35.4261111,102.005 35.2733333,102.426667 35.1511111,102.885 C35.0366667,103.317778 34.8883333,103.741667 34.8105556,104.183333 C34.7166667,104.621111 34.6144444,105.056667 34.5605556,105.502778 L34.4594444,106.167222 L34.395,106.839444 C34.0227778,110.422778 34.5427778,114.136667 34.4883333,117.942778 C34.4822222,118.895 34.4438889,119.845556 34.3672222,120.818889 C34.34,121.311111 34.2705556,121.755 34.2244444,122.224444 C34.1788889,122.718333 34.0916667,123.201667 34.005,123.67 C33.6522222,125.545 33.2116667,127.362222 32.7677778,129.185556 C31.8727778,132.826667 30.9044444,136.437778 29.9488889,140.052778 L27.0766667,150.892222 C26.1383333,154.509444 25.2461111,158.138889 24.3333333,161.760556 L22.9655556,167.19 L21.5788889,172.596111 C21.4711111,173.037778 21.3588889,173.498889 21.2783333,173.9 C21.2538889,173.940556 21.2566667,174.101111 21.2794444,174.257778 C21.295,174.408333 21.3338889,174.571111 21.3861111,174.738889 C21.6055556,175.415 22.0705556,176.162778 22.565,176.926667 C23.0622222,177.692778 23.5983333,178.488889 24.0733333,179.349444 C24.5444444,180.212222 24.9611111,181.149444 25.1322222,182.172222 C25.5044444,184.260556 24.4911111,186.317222 23.0083333,187.603333 C21.5383333,188.927222 19.7677778,189.737778 18.4116667,190.828333 C17.7327778,191.372222 17.1877778,191.967222 16.8866667,192.696667 C16.5344444,193.497778 16.2622222,194.375 15.9811111,195.252778 C15.4127778,197.010556 14.9216667,198.83 14.2283333,200.606111 C14.0588889,201.052778 13.8738889,201.495 13.6588889,201.926667 C13.4477778,202.359444 13.2111111,202.791667 12.8966667,203.185 C12.7316667,203.381667 12.5827778,203.567222 12.3572222,203.745556 C12.16,203.917778 11.9383333,204.036111 11.7344444,204.151111 C11.3144444,204.387222 10.8788889,204.598333 10.4288889,204.766111 C8.62222222,205.455 6.73777778,205.657222 4.92388889,206.029444 C4.01777778,206.198889 3.105,206.470556 2.10555556,206.485 C1.85833333,206.490556 1.6,206.467778 1.33611111,206.408889 C1.07833333,206.348333 0.779444444,206.227778 0.571111111,205.953333 C0.36,205.678889 0.327777778,205.323889 0.377222222,205.053889 C0.422222222,204.773889 0.522777778,204.53 0.636666667,204.301667 C0.866666667,203.848333 1.16555556,203.456667 1.49888889,203.091111 C1.66,202.917222 1.855,202.727778 2.04222222,202.577778 C2.22444444,202.419444 2.38833333,202.294444 2.55333333,202.133889 C3.20333333,201.511111 3.80777778,200.8 4.35777778,200.075556 L4.34166667,200.101111 C4.35333333,200.082778 4.39944444,199.934444 4.42611111,199.831111 C4.45611111,199.711667 4.48388889,199.588333 4.50722222,199.464444 L4.64555556,198.696111 L4.89222222,197.136111 C5.05611111,196.092222 5.22333333,195.046111 5.40944444,194.001111 C5.77944444,191.912222 6.22277778,189.832778 6.78555556,187.771667 C7.06611111,186.723889 7.38111111,185.724444 7.65444444,184.716111 C7.80333333,184.215 7.92444444,183.706111 8.05388889,183.199444 C8.18222222,182.693333 8.31444444,182.187778 8.42055556,181.678333 C8.87888889,179.635 9.21944444,177.63 9.42888889,175.542778 C9.86555556,171.349444 10.2761111,167.151667 10.7394444,162.953889 L12.1294444,150.364444 L15.0872222,125.202222 C15.585,121.006111 16.0461111,116.801667 16.5738889,112.613889 L16.9666667,109.473333 C17.0972222,108.411111 17.1505556,107.401667 17.1933333,106.340556 C17.2433333,104.225556 17.4583333,102.132222 17.6111111,100.048333 C17.7,99.0083333 17.7616667,97.9516667 17.83,96.8966667 C17.845,95.9005556 17.8222222,94.8244444 17.7827778,93.7866667 C17.7005556,91.6938889 17.5538889,89.5983333 17.3888889,87.4988889 C17.0477778,83.2994444 16.6483333,79.0872222 16.3722222,74.8655556 C16.1077778,70.645 15.9283333,66.3994444 15.9211111,62.1733333 C15.9238889,57.9338889 16.0327778,53.7055556 16.2605556,49.4722222 C16.4938889,45.2416667 16.865,41.01 17.4888889,36.8016667 C18.1194444,32.6011111 18.9711111,28.4011111 20.3333333,24.3455556 C21.665,20.3161111 23.0477778,16.3461111 24.5116667,12.3766667 C24.6916667,11.8827778 24.8877778,11.3833333 25.055,10.8944444 C25.2261111,10.42 25.3661111,9.92666667 25.5027778,9.43055556 C25.7633333,8.43222222 25.9427778,7.40388889 26.1016667,6.36888889 C26.4488889,4.305 26.6238889,2.20166667 26.7444444,0.0894444444 Z" id="outerline" fill="#808285"></path>
                <path d="M73.665,57.9088889 C74.0672222,53.6094444 74.4266667,49.3027778 74.6644444,44.9788889 C74.7611111,43.0561111 74.8377778,41.1305556 74.8588889,39.1933333 C74.8894444,37.2677778 74.8133333,35.28 74.5711111,33.3438889 C74.1272222,29.4522222 73.1127778,25.6294444 71.6966667,22.0033333 C71.34,21.0888889 70.9555556,20.1872222 70.5511111,19.3011111 C65.0594444,21.3166667 58.1544444,22.3027778 45.7161111,22.2005556 C34.1733333,22.1061111 26.2138889,19.9138889 22.3283333,18.5344444 C21.6561111,20.4644444 20.9977778,22.4011111 20.3527778,24.3522222 C18.99,28.4077778 18.1383333,32.6077778 17.5077778,36.8083333 C16.8838889,41.015 16.5127778,45.2466667 16.2794444,49.4794444 C16.1727778,51.46 16.0944444,53.4427778 16.0383333,55.4244444 C19.2005556,57.4805556 28.3755556,62.0333333 43.3155556,58.1538889 C43.3427778,57.8688889 43.375,57.5861111 43.4,57.3005556 C43.5433333,55.6155556 43.6483333,53.9261111 43.5861111,52.2061111 C43.925,52.31 44.2688889,52.3977778 44.6161111,52.4677778 C45.0294444,52.545 45.4494444,52.5972222 45.875,52.6216667 C45.8966667,53.6533333 46.0116667,56.9094444 46.0477778,57.9383333 C49.66,60.1394444 61.0927778,62.2911111 73.665,57.9088889 Z" id="default_pants" fill="#808285"></path>
            </g>
            <g id="pants" transform="translate(69.300000, 4.000000)" fill="#808285" fill-rule="nonzero">
                <g id="ankle" transform="translate(0.000000, 112.656716)">
                    <path d="M22.9681642,31.0413433 L20.8663433,38.9952388 C19.9319552,42.5881045 19.0461642,46.1975373 18.1393881,49.7986866 L16.7797761,55.1957164 L16.0519254,58.0369851 C10.0236866,59.829 5.79850746,57.6377164 4.05343284,56.4183731 C4.24008955,54.609791 4.42840299,52.796791 4.62776119,50.986 L6.00946269,38.4717164 L7.1139403,29.0759254 C11.3827463,30.4327761 15.6051642,31.1324627 22.9681642,31.0413433 Z M61.7281493,30.7994627 L60.9909104,36.0192239 L60.1343881,41.6592388 L59.3684328,47.3218955 C59.102806,49.2160746 58.8150896,51.1041791 58.4870597,52.9889701 L57.9845224,55.8048358 L57.7426418,57.5559851 C53.6168657,59.1740448 50.2101045,58.6963582 47.9713284,57.9326119 C48.0613433,56.8154328 48.1187761,55.6927313 48.1397612,54.5656119 C48.224806,50.7982388 47.9840299,46.9993881 47.7493284,43.1944627 C47.6427463,41.2903433 47.5046866,39.3900896 47.4157761,37.4776866 C47.3180299,35.5735672 47.2732985,33.6600597 47.1545672,31.7730597 C47.1219851,31.2191642 47.0767015,30.6652687 47.0363881,30.1113731 C50.6717761,30.994403 55.2967761,31.2014925 61.7281493,30.7994627 Z" id="ankle_1_knees_1_thigh_1"></path>
                    <path d="M28.0032836,30.6492537 C25.9405251,38.2292054 24.2101768,44.0277129 22.8122388,48.0447761 C22.0748534,50.1636996 20.6022166,53.5691723 18.3943284,58.261194 C12.3660896,60.053209 6.24507463,57.6377164 4.5,56.4183731 C4.68665672,54.609791 4.87497015,52.796791 5.07432836,50.986 L6.35552239,27.8880597 C13.8107463,29.5447761 20.2719403,30.3731343 28.0032836,30.6492537 Z M65.5002985,30.0970149 C65.5002985,30.6708648 65.4525781,33.7099505 64.2301493,38.6567164 C63.4765787,41.7061677 61.6357827,48.056914 58.7077612,57.7089552 C54.5819851,59.3270149 49.073403,58.4727015 46.8346269,57.7089552 C46.8740145,57.220114 44.1188054,47.083583 42.6928358,39.4850746 C41.8658028,35.0780959 42.0301493,31.3432247 42.0301493,31.3119403 C42.0301493,30.7597015 61.6346269,30.0970149 65.5002985,30.0970149 Z" id="ankle_1_knees_1_thigh_2"></path>
                    <path d="M26.0761642,19.1560597 C26.0761642,19.1560597 22.7925522,37.8609403 21.8868806,43.6042239 C20.981209,49.3475075 19.5564328,60.0946269 19.3222836,62.1958955 C19.3222836,62.1958955 14.0671791,67.2146418 3.61771642,60.5640299 L8.27253731,19.1571642 C8.41335821,17.9692985 15.2528358,23.2956418 26.0761642,19.1560597 Z M45.9617313,18.9793433 C45.9617313,18.9793433 48.546209,22.6020299 62.8055672,18.9202537 C62.8055672,18.9202537 62.4532388,31.8216567 62.109194,39.4624328 C61.7651493,47.103209 61.3730597,63.1170299 61.3730597,63.1170299 C61.3730597,63.1170299 52.3522388,68.732194 45.311194,62.6111791 C45.311194,62.6111791 46.3731493,31.549403 46.2781642,37.8973881 C46.1831791,44.2453731 45.9617313,18.9793433 45.9617313,18.9793433 Z" id="ankle_2_knees_1_thigh_1"></path>
                    <path d="M26.6195672,28.3254328 C26.6195672,28.3254328 25.7729851,41.7481493 25.1688358,63.6411045 C25.1688358,63.6411045 14.0677313,67.2146418 3.6188209,60.5640299 L7.41380597,26.4721194 C7.41435821,26.4704627 15.7962388,32.4650149 26.6195672,28.3254328 Z M43.9488209,28.3254328 C43.9488209,28.3254328 50.5160448,32.007209 64.7759552,28.3254328 L65.6926716,62.3792388 C65.6926716,62.3792388 55.5944328,68.4881045 42.3633433,63.0259104 L43.9488209,28.3254328 Z" id="ankle_2_knees_2_thigh_1"></path>
                    <path d="M28.3735821,26.4710149 C28.3735821,26.4710149 24.6051045,62.5631343 24.6056567,62.5631343 C24.6056567,62.5631343 13.1483582,66.4994925 2.7,59.8477761 L6.437,26.4710149 C6.43644776,26.4704627 17.5497015,30.610597 28.3735821,26.4710149 Z M42.0790448,26.4710149 C42.0790448,26.4710149 51.3069552,30.9010746 65.5668657,27.2192985 L66.0290896,61.6425522 C66.0290896,61.6425522 54.8053881,68.4190746 40.3091194,62.0683284 L42.0790448,26.4710149 Z" id="ankle_2_knees_1_thigh_2"></path>
                    <path d="M27.0017164,25.0992537 C27.0017164,25.0992537 25.7525522,35.6884328 32.6549851,61.7817164 C32.6549851,61.7817164 13.8667164,71.3724478 1.10834328,58.8824627 C1.10834328,58.8824627 3.36037313,51.2212537 4.85970149,43.512 C6.35902985,35.8038507 7.82301493,22.9902537 7.82301493,22.9902537 C7.82301493,22.9902537 16.1783881,29.2388358 27.0017164,25.0992537 Z M43.9659403,25.5658955 C43.9659403,25.5658955 51.8933284,33.1950746 64.798597,25.5658955 C64.798597,25.5658955 65.2851194,33.607597 67.0798955,40.8424776 C68.8746716,48.0784627 72.8778507,60.9086269 72.8778507,60.9086269 C72.8778507,60.9086269 51.9844478,73.7929104 34.5889254,61.6436567 C34.5889254,61.6436567 39.4801045,50.257597 41.3085672,43.6036716 C43.5578358,35.4123134 43.9659403,25.5658955 43.9659403,25.5658955 Z" id="ankle_3_knees_2_thigh_1"></path>
                    <path d="M36.9770685,63.2807534 C31.1427797,66.1300127 14.9260218,72.2161323 0.7,60.5380746 C0.7,60.5380746 4.46185075,36.2390149 5.39402985,27.9565373 C6.32455224,19.6740597 8.49043284,0.138059701 8.49043284,0.138059701 C8.49043284,0.138059701 17.3306716,3.96949254 31.5900299,0.287716418 C31.5900299,0.287716418 32.1306716,11.6870299 33.0048657,18.8451493 C33.4306842,22.3318581 34.9148069,32.6795274 36.3252053,42.3769574 C37.3662601,36.4277569 38.3404967,30.5063628 38.7100448,27.2209552 C39.6422239,18.9384776 41.4441791,2.29952239 41.4441791,2.29952239 C41.4441791,2.29952239 51.9593582,5.54723881 66.2181642,1.86546269 C66.2181642,1.86546269 67.8356716,20.8790448 68.7866269,28.8771194 C69.7386866,36.8762985 74.4211194,60.5391791 74.4211194,60.5391791 C74.4211194,60.5391791 54.0596019,73.0294234 36.9770685,63.2807534 Z" id="ankle_3_knees_2_thigh_2"></path>
                </g>
                <g id="knees" transform="translate(5.522388, 90.567164)">
                    <path d="M58.1562687,1.99689552 L57.5245075,7.04877612 C57.2809701,8.93246269 56.954597,10.8619851 56.6845522,12.7020448 C56.1146418,16.3921045 56.0229701,20.0926567 56.3057164,23.8291045 C56.5823881,27.5616866 57.1539552,31.3804179 57.3063731,35.2350448 C57.3494478,36.1915224 57.3748507,37.1816866 57.3660149,38.1293284 L57.3544179,39.5684627 L57.2903582,41.0037313 C57.241209,41.960209 57.213597,42.917791 57.1484328,43.8726119 L56.9153881,46.7354179 C56.7182388,48.7930597 56.4747015,50.8440746 56.2068657,52.8884627 C49.8428657,54.304403 44.9522388,53.499791 41.5123433,52.1992687 C41.2732239,48.9642537 40.9137164,45.7308955 40.5801642,42.4920149 C40.2046418,38.6970299 39.8324328,34.891 39.7330299,31.0435522 C39.6811194,29.121209 39.726403,27.1966567 39.8644627,25.2334478 L40.1543881,22.4115075 C40.2322537,21.4936866 40.2659403,20.5592985 40.2819552,19.6249104 C40.3233731,15.8757612 40.0102537,12.0929254 39.6711791,8.32113433 C39.5010896,6.5760597 39.1763731,4.08877612 38.9593433,2.34646269 C38.9621045,2.38125373 38.9670746,2.41604478 38.9714925,2.45028358 C43.2121343,3.78559701 50.3205522,4.70231343 58.1562687,1.99689552 Z M5.94926866,1.44907463 C5.92662687,0.874746269 17.5280597,5.11152239 26.0170746,2.27467164 C25.7724328,3.44541791 25.3604627,5.38653731 25.1025672,6.55562687 C24.6911493,8.37856716 24.2758657,10.1816269 23.7617313,12.0156119 C23.6380299,12.4866716 23.4856119,12.9074776 23.3641194,13.3619701 C23.2503582,13.7921642 23.1056716,14.2135224 23.025597,14.6525522 C22.9322687,15.0877164 22.8334179,15.5201194 22.778194,15.9641194 L22.6765821,16.624597 L22.6125224,17.2922537 C22.2425224,20.8547463 22.7605224,24.5453582 22.7052985,28.330403 C22.6992239,29.2763881 22.6622239,30.2212687 22.5849104,31.188791 C22.558403,31.6764179 22.4893731,32.1165522 22.4435373,32.585403 C22.3977015,33.0763433 22.3093433,33.5573433 22.2259552,34.0228806 C21.8741791,35.8866866 21.4362537,37.6930597 20.9950149,39.5055075 C20.1053582,43.1237761 19.1450149,46.7133284 18.1929552,50.3078507 L17.4452239,53.129791 C10.0860896,54.5054179 4.81552239,52.875209 1.58547761,51.1627164 L3.42001493,35.5492687 C3.91592537,31.378209 4.37428358,27.1988657 4.89891045,23.0360896 L5.28934328,19.9148358 C5.41801493,18.8589552 5.47213433,17.8538806 5.51355224,16.800209 C5.56435821,14.6994925 5.77807463,12.6175522 5.92883582,10.5461045 C6.01885075,9.51231343 6.08014925,8.45974627 6.14752239,7.41270149 C6.16408955,6.42253731 5.98847761,2.479 5.94926866,1.44907463 Z" id="knees_1_thigh_1"></path>
                    <path d="M38.5777463,52.7923731 C38.0840448,45.3542687 38.9582388,2.34701493 38.9582388,2.34701493 C38.9626567,2.38180597 50.3211045,4.70231343 58.1568209,1.99689552 C59.720209,47.2854478 59.1878507,52.2495224 59.1878507,52.2495224 C51.9330896,55.3790597 42.0176418,54.0934478 38.5777463,52.7923731 Z M23.164209,17.2933582 C23.1106418,38.3259254 20.5758657,54.1939552 20.5753134,54.1939552 C13.2161791,55.5690299 4.81552239,52.875209 1.58547761,51.1627164 L3.42001493,35.5492687 C3.91592537,31.378209 4.37428358,27.1988657 4.89891045,23.0360896 L5.28934328,19.9148358 C5.41801493,18.8589552 5.47213433,17.8538806 5.51355224,16.800209 C5.56435821,14.6994925 5.77807463,12.6175522 5.92883582,10.5461045 C6.01885075,9.51231343 6.08014925,8.45974627 6.14752239,7.41270149 C6.16408955,6.42253731 5.98847761,2.479 5.94926866,1.44907463 C5.92662687,0.875298507 17.5291642,5.11152239 26.0159701,2.27577612 C25.7713284,3.44652239 25.3593582,5.38764179 25.1014627,6.55673134 C24.6900448,8.37967164 23.6573582,14.2146269 23.5772836,14.6536567 C23.4839552,15.0888209 23.3851045,15.5212239 23.3298806,15.9652239 L23.2282687,16.6257015 L23.164209,17.2933582 Z" id="knees_2_thigh_1"></path>
                    <path d="M36.4649406,53.4291045 C37.0652242,42.0745224 34.7960749,1.39495522 34.7960749,1.39495522 C34.7999406,1.42919403 53.4578809,4.09926866 61.2947018,1.39495522 C61.0423287,8.35316418 59.9803734,52.3384328 59.9803734,52.3384328 C52.72506,55.4679701 47.1761645,57.7625224 36.4649406,53.4291045 Z M4.47098539,0.526835821 C4.47098539,0.526835821 20.0413585,5.03973134 28.529269,2.20398507 C28.2835227,3.37473134 22.4187466,52.796791 22.4187466,52.796791 C15.0601645,54.1713134 4.00655255,52.1269254 0.777612254,50.4144328 C0.776507776,50.4144328 3.69398539,13.7562687 4.47098539,0.526835821 Z" id="knees_1_thigh_2"></path>
                    <path d="M33.0090302,52.3384328 C33.2899755,47.0242499 36.3983002,36.3772864 35.9489756,25.3928583 C35.4382479,12.9073398 34.7960749,1.39495522 34.7960749,1.39495522 C34.7999406,1.42919403 53.4578809,4.09926866 61.2947018,1.39495522 C61.1864062,4.38078533 60.9290386,14.1845759 60.6704762,24.405236 C60.5403907,29.5473605 61.3695779,34.6182842 61.7254481,38.9328358 C62.3106298,46.0275474 62.6102224,51.0820896 62.6102224,51.0820896 C55.3549089,54.2116269 43.720254,56.6718507 33.0090302,52.3384328 Z M4.47098539,0.526835821 C4.47098539,0.526835821 20.0413585,5.03973134 28.529269,2.20398507 C28.4206142,2.72162116 27.2134979,12.6718841 25.9005129,23.6124607 C25.3371939,28.3063718 25.9426147,32.1967404 26.2309143,35.619403 C26.7904497,42.2621478 27.8280588,47.0842063 28.529269,52.1865672 C21.1706869,53.5610896 4.00655255,52.1269254 0.777612254,50.4144328 C0.776507776,50.4144328 3.69398539,13.7562687 4.47098539,0.526835821 Z" id="knees_2_thigh_2"></path>
                </g>
                <g id="thigh" transform="translate(6.074627, 19.880597)">
                    <path d="M66.9854627,45.2145522 C64.8709403,31.5814328 63.3014776,20.0584179 61.6756866,12.5048955 C60.7164478,8.04832836 59.3844478,4.98616418 58.8603731,3.64808955 C58.5052836,2.73910448 58.1236866,1.8428209 57.7216567,0.962 C52.2638806,2.96552239 45.4001045,3.94574627 33.0354776,3.84413433 C21.5621642,3.75025373 13.6496866,1.5711194 9.7878806,0.199910448 C9.11967164,2.11838806 8.46526866,4.04349254 7.8241194,5.98295522 C6.46947761,10.0142985 5.62289552,14.1892239 4.99610448,18.3647015 C4.43889552,22.1232388 3.81873134,27.1916866 3.3968209,30.6862537 C2.96386567,34.287403 1.33531343,41.3737313 0.0237462687,47.103209 C0.0237462687,47.103209 17.4397015,54.2469701 31.4439254,48.5329552 L31.8835075,33.9140896 C31.9039403,33.9185075 31.9238209,33.9256866 31.9442537,33.9295522 C31.9508806,33.9306567 31.956403,33.931209 31.9630299,33.9323134 L33.5021194,34.0819701 L32.6284776,48.6660448 C34.7590149,49.4883284 51.3427463,53.1910896 66.9854627,45.2145522 Z" id="thigh_0"></path>
                    <path d="M61.9214328,15.9192836 C61.480194,12.0508507 60.471806,8.25089552 59.0641493,4.64643284 C58.7090597,3.73744776 58.3274627,2.84116418 57.9254328,1.96034328 C52.4676567,3.96386567 45.6027761,4.94408955 33.2387015,4.84247761 C21.7653881,4.74859701 13.8529104,2.56891045 9.99110448,1.19825373 C9.32234328,3.11673134 8.6679403,5.04183582 8.02679104,6.98129851 C6.67214925,11.0126418 5.82556716,15.1875672 5.19877612,19.3630448 C4.57861194,23.544597 4.20971642,27.751 3.97777612,31.9585075 C3.75135821,36.1665672 3.64422388,40.3691045 3.64091045,44.5832388 C3.64864179,48.7824627 3.82756716,53.0043284 4.08932836,57.2002388 C4.36379104,61.397806 4.76029851,65.5848806 5.10047761,69.757597 C5.22583582,71.334791 5.328,72.9097761 5.41083582,74.4853134 C9.43941791,75.9437761 16.7477463,77.5695672 25.2356567,74.7327164 C26.5212687,68.6199851 27.6594328,62.4829552 28.6849403,56.3271493 C29.290194,52.6569701 29.8551343,48.9801642 30.3278507,45.289 C30.5608955,43.4423134 30.7757164,41.5917612 30.9375224,39.7323731 C31.08,38.0579851 31.1854776,36.3786269 31.1219701,34.6683433 C31.4604925,34.7721642 31.8012239,34.8594179 32.1474776,34.929 C32.5583433,35.0057612 32.9758358,35.0576716 33.3977463,35.0819701 C33.4783731,38.7836269 33.6434925,42.4758955 33.9328657,46.1648507 C34.0753433,48.0689701 34.2835373,49.9675672 34.4939403,51.8705821 C34.7203582,53.7675224 34.9975821,55.6821343 35.5078507,57.5492537 C36.4416866,61.2028657 37.0662687,64.9658209 37.6466716,68.7138657 C37.9542687,70.7665373 38.2331493,72.8225224 38.4888358,74.8812687 C42.7311343,76.2165821 49.5866269,77.3337612 57.4223433,74.6283433 C57.4858507,74.1031642 57.5570896,73.5779851 57.6194925,73.052806 C58.0717761,69.2638955 58.4594478,65.4694627 58.8653433,61.6766866 L60.0454776,50.2989104 C60.7959701,42.7094925 61.5956119,35.1239403 62.0136567,27.4848209 C62.1097463,25.5735224 62.1859552,23.6594627 62.2058358,21.733806 C62.236209,19.821403 62.1616567,17.8454925 61.9214328,15.9192836 Z" id="thigh_1"></path>
                    <path d="M60.0073731,76.2894776 C61.0682239,65.7643582 62.3068955,47.9148955 62.6189104,37.7929104 C63.1065373,21.9734776 62.0053731,17.636194 62.0053731,17.636194 L61.8849851,17.7002537 C61.840806,17.1038358 61.7872388,16.5085224 61.713791,15.9181791 C61.269791,12.0508507 60.2619552,8.25089552 58.8537463,4.64643284 C58.4986567,3.73744776 58.1159552,2.84116418 57.7150299,1.96034328 C52.2572537,3.96386567 45.3918209,4.94408955 33.0282985,4.84247761 C21.5538806,4.74859701 13.6425075,2.56891045 9.78070149,1.19825373 C9.11304478,3.11673134 8.45753731,5.04183582 7.81528358,6.98129851 C6.46174627,11.0126418 5.61626866,15.1875672 4.98837313,19.3630448 C4.4300597,23.1215821 4.08270149,26.8983433 3.84965672,30.6751045 L3.83861194,30.674 C3.83861194,30.674 3.83750746,30.7408209 3.83529851,30.8672836 C3.81431343,31.2306567 3.78559701,31.5934776 3.76571642,31.9585075 C3.54150746,36.1665672 3.43216418,40.3691045 3.43050746,44.5832388 C3.43161194,45.4745522 3.44320896,46.3669701 3.46143284,47.2621493 C3.22783582,54.5522537 3.90929851,66.4822687 3.31508955,76.2900299 C6.78756716,78.2339104 14.1997164,81.387194 26.8636567,79.0396269 C29.116791,62.8750448 31.8763284,34.9146418 31.8763284,34.9146418 C31.8967612,34.9190597 31.9166418,34.9262388 31.9370746,34.9301045 C31.9437015,34.931209 31.9486716,34.9317612 31.9552985,34.9328657 L34.0510448,77.9224478 C37.5351194,79.4687164 47.6885821,85.4489104 60.0073731,76.2894776 Z" id="thigh_2"></path>
                </g>
                <g id="rise" transform="translate(13.805970, 0.000000)">
                    <path d="M52.352791,26.2622687 C52.0540299,25.3400299 51.7271045,24.4271791 51.3747761,23.5270299 C51.0202388,22.6180448 50.6375373,21.7217612 50.2360597,20.8409403 C44.7782836,22.8444627 37.9128507,23.8246866 25.5493284,23.7230746 C14.0749104,23.629194 6.16353731,21.4495075 2.30173134,20.0788507 C1.63407463,21.9973284 0.978567164,23.9224328 0.336313433,25.8618955 C0.334656716,25.8679701 0.332447761,25.8734925 0.330791045,25.8795672 C4.95855224,27.9935373 24.9479403,35.7315075 52.352791,26.2622687 Z" id="rise_0"></path>
                    <path d="M46.3251045,13.1869104 C45.9512388,12.4485672 45.9280448,12.4562985 45.586209,11.7080149 C29.2912985,17.2447612 11.5081045,13.4028358 5.32910448,11.5478657 C5.28934328,11.7229254 5.25731343,11.9018507 5.21202985,12.0747015 C5.0761791,12.5678507 4.93701493,13.0576866 4.76747761,13.5298507 C4.60125373,14.0158209 4.40741791,14.5122836 4.22683582,15.0032239 C3.47689552,17.0393284 2.49667164,19.5277164 1.78483582,21.5726567 C5.64498507,22.9416567 14.0743582,25.2875672 25.5493284,25.3808955 C37.9117463,25.4830597 45.1659552,23.7230746 50.6242836,21.719 C49.4303433,19.0925522 47.6355672,15.6913134 46.3251045,13.1869104 Z" id="rise_1"></path>
                    <path d="M51.3753284,23.5270299 C51.1373134,22.9173582 50.8832836,22.3165224 50.6242836,21.719 C50.6253881,21.719 50.6259403,21.7184478 50.6270448,21.7184478 C50.6104776,21.6825522 50.590597,21.6405821 50.5734776,21.6035821 C50.4619254,21.3495522 50.3525821,21.0933134 50.2377164,20.8414925 C50.232194,20.8437015 50.2261194,20.8453582 50.2211493,20.8475672 C49.0498507,18.3729851 47.4958507,15.4251343 46.326209,13.1874627 C45.9523433,12.4491194 45.5873134,11.7085672 45.2454776,10.9619403 C45.2344328,10.9652537 45.2244925,10.9685672 45.2134478,10.9724328 C44.8114179,10.0214776 44.349194,8.81207463 44.1216716,8.03231343 C43.9985224,7.61979104 43.9018806,7.20119403 43.8223582,6.7781791 C43.6727015,5.38874627 44.1006866,2.22110448 44.5728507,0.830567164 C26.2335522,7.61702985 6.69313433,0.197149254 6.69313433,0.197149254 C6.57329851,2.29676119 6.35571642,5.93822388 6.03597015,7.99641791 C5.90564179,8.84244776 5.44949254,10.8575672 5.25510448,11.6886866 C5.17447761,11.9609403 5.09053731,12.2304328 4.99610448,12.4938507 C4.8298806,12.9798209 4.63604478,13.4762836 4.45546269,13.9672239 C3.86622388,15.5665075 2.99423881,18.0830597 2.30283582,20.0810597 C2.30283582,20.0810597 2.30228358,20.0810597 2.30173134,20.0805075 C2.27577612,20.1561642 2.25092537,20.2323731 2.22331343,20.3080299 C2.0648209,20.7674925 1.91571642,21.1943731 1.78428358,21.5726567 C1.78759701,21.573209 1.79146269,21.5743134 1.79367164,21.5754179 C1.3021791,23.0007463 0.812895522,24.4255224 0.336313433,25.8635522 C0.334656716,25.8707313 0.332447761,25.8751493 0.330791045,25.8812239 C4.95634328,27.995194 24.9457313,35.7331642 52.3505821,26.2639254 C52.0534776,25.3400299 51.7271045,24.4277313 51.3753284,23.5270299 Z" id="rise_2"></path>
                </g>
            </g>
            <g id="pants_HL" transform="translate(70.000000, 4.000000)">
                <g id="ankle_HL" transform="translate(0.000000, 18.880597)" fill-rule="nonzero">
                    <g id="ankle_0_HL" transform="translate(4.417910, 0.198254)">
                        <path d="M40.1712712,73.6910975 C40.1626876,73.6884042 40.1541146,73.68571 40.1455522,73.6830149 C39.8898657,71.6242687 39.6109851,69.5682836 39.3033881,67.5156119 C38.7229851,63.7675672 38.098403,60.0046119 37.1645672,56.351 C36.6542985,54.4838806 36.3770746,52.5692687 36.1506567,50.6723284 C35.9402537,48.7693134 35.7320597,46.8707164 35.5895821,44.966597 C35.300209,41.2776418 35.1350896,37.5853731 35.0544627,33.8837164 C34.6325522,33.8594179 34.2150597,33.8075075 33.804194,33.7307463 C33.4579403,33.6611642 33.117209,33.5739104 32.7786866,33.4700896 C32.842194,35.1803731 32.7367164,36.8597313 32.5942388,38.5341194 C32.4324328,40.3935075 32.2176119,42.2440597 31.9845672,44.0907463 C31.5118507,47.7819104 30.9469104,51.4587164 30.3416567,55.1288955 C29.3579365,61.0338656 28.2705535,66.9215585 27.0487988,72.7870999 C27.0730751,72.779119 27.0973263,72.7710809 27.1215522,72.7629851 C26.8769104,73.9337313 26.4649403,75.8748507 26.2070448,77.0439403 C25.7956269,78.8668806 25.3803433,80.6699403 24.866209,82.5039254 C24.7425075,82.9749851 24.5900896,83.395791 24.468597,83.8502836 C24.3548358,84.2804776 24.2101493,84.7018358 24.1300746,85.1408657 C24.0367463,85.5760299 23.9378955,86.0084328 23.8826716,86.4524328 L23.7810597,87.1129104 L23.717,87.7805672 C23.347,91.3430597 23.865,95.0336716 23.8097761,98.8187164 C23.8037015,99.7647015 23.7667015,100.709582 23.6893881,101.677104 C23.6628806,102.164731 23.5938507,102.604866 23.5480149,103.073716 C23.5021791,103.564657 23.4138209,104.045657 23.3304328,104.511194 C22.9786567,106.375 22.5407313,108.181373 22.0994925,109.993821 C21.2098358,113.61209 20.2494925,117.201642 19.2974328,120.796164 L18.5497015,123.618104 C11.1905672,124.993731 5.92,123.363522 2.68995522,121.65103 L4.52449254,106.037582 C5.02040299,101.866522 5.47876119,97.6871791 6.00338806,93.524403 L6.3938209,90.4031493 C6.52249254,89.3472687 6.57661194,88.342194 6.61802985,87.2885224 C6.66883582,85.187806 6.88255224,83.1058657 7.03331343,81.0344179 C7.12332836,80.0006269 7.18462687,78.9480597 7.252,77.9010149 C7.26407182,77.1795224 7.17410717,74.8899521 7.10922719,73.3021109 C7.09529682,73.297092 7.08140514,73.2920748 7.06755224,73.2870597 C6.98471642,71.7115224 6.88255224,70.1365373 6.75719403,68.5593433 C6.41701493,64.3866269 6.02050746,60.1995522 5.74604478,56.0019851 C5.48428358,51.8060746 5.30535821,47.584209 5.29762687,43.3849851 C5.3009403,39.1708507 5.40807463,34.9683134 5.63449254,30.7602537 C5.86643284,26.5527463 6.23532836,22.3463433 6.85549254,18.164791 C7.48228358,13.9893134 8.32886567,9.81438806 9.68350746,5.78304478 C10.3246567,3.84358209 10.9790597,1.91847761 11.6478209,0 C15.5096269,1.37065672 23.4221045,3.55034328 34.8954179,3.64422388 C47.2594925,3.74583582 54.1243731,2.76561194 59.5821493,0.762089552 C59.9841791,1.64291045 60.3657761,2.53919403 60.7208657,3.4481791 C62.1285224,7.05264179 63.1369104,10.852597 63.5781493,14.7210299 C63.8183731,16.6472388 63.8929254,18.6231493 63.8625522,20.5355522 C63.8426716,22.461209 63.7664627,24.3752687 63.6703731,26.2865672 C63.2523284,33.9256866 62.4526866,41.5112388 61.702194,49.1006567 L60.5220597,60.4784328 C60.1161642,64.271209 59.7284925,68.0656418 59.276209,71.8545522 C59.2503373,72.0722865 59.2229468,72.2900208 59.1952183,72.5077551 C59.2170552,72.5002678 59.2388979,72.4927525 59.2607463,72.485209 L58.6289851,77.5370896 C58.3854478,79.4207761 58.0590746,81.3502985 57.7890299,83.1903582 C57.2191194,86.8804179 57.1274478,90.5809701 57.410194,94.3174179 C57.6868657,98.05 58.2584328,101.868731 58.4108507,105.723358 C58.4539254,106.679836 58.4793284,107.67 58.4704925,108.617642 L58.4588955,110.056776 L58.3948358,111.492045 C58.3456866,112.448522 58.3180746,113.406104 58.2529104,114.360925 L58.0198657,117.223731 C57.8227164,119.281373 57.5791791,121.332388 57.3113433,123.376776 C50.9473433,124.792716 46.0567164,123.988104 42.6168209,122.687582 C42.3777015,119.452567 42.018194,116.219209 41.6846418,112.980328 C41.3091194,109.185343 40.9369104,105.379313 40.8375075,101.531866 C40.785597,99.6095224 40.8308806,97.6849701 40.9689403,95.7217612 L41.2588657,92.8998209 C41.3367313,91.982 41.3704179,91.0476119 41.3864328,90.1132239 C41.4278507,86.3640746 41.1147313,82.5812388 40.7756567,78.8094478 C40.6318722,77.3342562 40.3775899,75.328675 40.1712712,73.6910975 Z" id="ankle_0_HL_1" fill="#808285"></path>
                        <path d="M17.6716418,122.719526 L15.7079541,130.72224 C14.8349746,134.337158 14.0073984,137.968744 13.1602163,141.591996 L11.889959,147.022152 L11.2099431,149.880859 C5.57788442,151.683873 1.63038709,149.47914 0,148.252313 C0.174389505,146.43263 0.350326845,144.608502 0.536583091,142.786597 L1.82747818,130.195505 L2.85936874,120.742045 C6.84762576,122.107223 10.7925434,122.811205 17.6716418,122.719526 Z M56.3283582,123.091432 L55.6355688,128.345944 L54.8306876,134.023507 L54.1109131,139.723863 C53.8613013,141.630652 53.5909318,143.531327 53.2826794,145.428666 L52.8104409,148.263278 L52.5831437,150.026086 C48.7061176,151.654918 45.5047558,151.174051 43.4009592,150.40522 C43.485547,149.280603 43.5395171,148.150428 43.559237,147.015804 C43.6391543,143.22335 43.4128949,139.399208 43.192344,135.568952 C43.0921879,133.652155 42.9624521,131.739251 42.8789022,129.814116 C42.7870492,127.89732 42.7450148,125.971073 42.6334419,124.07151 C42.6028243,123.513927 42.5602709,122.956344 42.5223881,122.398761 C45.9385924,123.28767 50.2847434,123.496138 56.3283582,123.091432 Z" id="ankle_0_HL_0" fill="#582ADF" opacity="0.300000012"></path>
                    </g>
                    <path d="M22.0147313,124.817463 L19.9129104,132.771358 C18.9785224,136.364224 18.0927313,139.973657 17.1859552,143.574806 L15.8263433,148.971836 L15.0984925,151.813104 C9.07025373,153.605119 4.84507463,151.413836 3.1,150.194493 C3.28665672,148.38591 3.47497015,146.57291 3.67432836,144.762119 L5.05602985,132.247836 L6.16050746,122.852045 C10.4293134,124.208896 14.6517313,124.908582 22.0147313,124.817463 Z M60.9917612,124.575582 L60.2545224,129.795343 L59.398,135.435358 L58.6320448,141.098015 C58.3664179,142.992194 58.0787015,144.880299 57.7506716,146.76509 L57.2481343,149.580955 L57.0062537,151.332104 C52.8804776,152.950164 49.4737164,152.472478 47.2349403,151.708731 C47.3249552,150.591552 47.3823881,149.468851 47.4033731,148.341731 C47.4884179,144.574358 47.2476418,140.775507 47.0129403,136.970582 C46.9063582,135.066463 46.7682985,133.166209 46.6793881,131.253806 C46.5816418,129.349687 46.5369104,127.436179 46.4181791,125.549179 C46.385597,124.995284 46.3403134,124.441388 46.3,123.887493 C49.9353881,124.770522 54.5603881,124.977612 60.9917612,124.575582 Z" id="ankle_1_knees_1_thigh_1_HL" fill="#582ADF"></path>
                    <path d="M27.4032836,124.425373 C25.3405251,132.005325 23.6101768,137.803832 22.2122388,141.820896 C21.4748534,143.939819 20.0022166,147.345292 17.7943284,152.037313 C11.7660896,153.829328 5.64507463,151.413836 3.9,150.194493 C4.08665672,148.38591 4.27497015,146.57291 4.47432836,144.762119 L5.75552239,121.664179 C13.2107463,123.320896 19.6719403,124.149254 27.4032836,124.425373 Z M64.8002985,123.873134 C64.8002985,124.446984 64.7525781,127.48607 63.5301493,132.432836 C62.7765787,135.482287 60.9357827,141.833033 58.0077612,151.485075 C53.8819851,153.103134 48.373403,152.248821 46.1346269,151.485075 C46.1740145,150.996233 43.4188054,140.859702 41.9928358,133.261194 C41.1658028,128.854215 41.3301493,125.119344 41.3301493,125.08806 C41.3301493,124.535821 60.9346269,123.873134 64.8002985,123.873134 Z" id="ankle_1_knees_1_thigh_2_HL" fill="#582ADF"></path>
                    <path d="M24.9584478,112.932179 C24.9584478,112.932179 21.6748358,131.63706 20.7691642,137.380343 C19.8634925,143.123627 18.4387164,153.870746 18.2045672,155.972015 C18.2045672,155.972015 12.9494627,160.990761 2.5,154.340149 L7.1548209,112.933284 C7.29564179,111.745418 14.1351194,117.071761 24.9584478,112.932179 Z M45.0505373,112.755463 C45.0505373,112.755463 47.6350149,116.378149 61.8943731,112.696373 C61.8943731,112.696373 61.5420448,125.597776 61.198,133.238552 C60.8539552,140.879328 60.4618657,156.893149 60.4618657,156.893149 C60.4618657,156.893149 51.4410448,162.508313 44.4,156.387299 C44.4,156.387299 45.4619552,125.325522 45.3669701,131.673507 C45.2719851,138.021493 45.0505373,112.755463 45.0505373,112.755463 Z" id="ankle_2_knees_1_thigh_1_HL" fill="#582ADF"></path>
                    <path d="M25.6007463,122.101552 C25.6007463,122.101552 24.7541642,135.524269 24.1500149,157.417224 C24.1500149,157.417224 13.0489104,160.990761 2.6,154.340149 L6.39498507,120.248239 C6.39553731,120.246582 14.7774179,126.241134 25.6007463,122.101552 Z M42.93,122.101552 C42.93,122.101552 49.4972239,125.783328 63.7571343,122.101552 L64.6738507,156.155358 C64.6738507,156.155358 54.5756119,162.264224 41.3445224,156.80203 L42.93,122.101552 Z" id="ankle_2_knees_2_thigh_1_HL" fill="#582ADF"></path>
                    <path d="M27.7735821,120.247134 C27.7735821,120.247134 24.0051045,156.339254 24.0056567,156.339254 C24.0056567,156.339254 12.5483582,160.275612 2.1,153.623896 L5.837,120.247134 C5.83644776,120.246582 16.9497015,124.386716 27.7735821,120.247134 Z M41.4790448,120.247134 C41.4790448,120.247134 50.7069552,124.677194 64.9668657,120.995418 L65.4290896,155.418672 C65.4290896,155.418672 54.2053881,162.195194 39.7091194,155.844448 L41.4790448,120.247134 Z" id="ankle_2_knees_1_thigh_2_HL" fill="#582ADF"></path>
                    <path d="M26.1933731,117.875373 C26.1933731,117.875373 24.944209,128.464552 31.8466418,154.557836 C31.8466418,154.557836 13.0583731,164.148567 0.3,151.658582 C0.3,151.658582 2.55202985,143.997373 4.05135821,136.288119 C5.55068657,128.57997 7.01467164,115.766373 7.01467164,115.766373 C7.01467164,115.766373 15.3700448,122.014955 26.1933731,117.875373 Z M42.9659403,118.342015 C42.9659403,118.342015 50.8933284,125.971194 63.798597,118.342015 C63.798597,118.342015 64.2851194,126.383716 66.0798955,133.618597 C67.8746716,140.854582 71.8778507,153.684746 71.8778507,153.684746 C71.8778507,153.684746 50.9844478,166.56903 33.5889254,154.419776 C33.5889254,154.419776 38.4801045,143.033716 40.3085672,136.379791 C42.5578358,128.188433 42.9659403,118.342015 42.9659403,118.342015 Z" id="ankle_3_knees_2_thigh_1_HL" fill="#582ADF"></path>
                    <path d="M36.267295,156.110267 C30.3416574,158.980958 14.2377717,164.919808 0.1,153.314194 C0.1,153.314194 3.86185075,129.015134 4.79402985,120.732657 C5.72455224,112.450179 7.89043284,92.9141791 7.89043284,92.9141791 C7.89043284,92.9141791 16.7306716,96.7456119 30.9900299,93.0638358 C30.9900299,93.0638358 31.5306716,104.463149 32.4048657,111.621269 C32.8213768,115.031766 34.2504337,125.006574 35.6326276,134.516335 C36.6312681,128.784574 37.5499244,123.165229 37.9062836,119.997075 C38.8384627,111.714597 40.6404179,95.0756418 40.6404179,95.0756418 C40.6404179,95.0756418 51.155597,98.3233582 65.414403,94.6415821 C65.414403,94.6415821 67.0319104,113.655164 67.9828657,121.653239 C68.9349254,129.652418 73.6173582,153.315299 73.6173582,153.315299 C73.6173582,153.315299 53.3304319,165.759787 36.267295,156.110267 Z" id="ankle_3_knees_2_thigh_2_HL" fill="#582ADF"></path>
                </g>
                <g id="knees_HL" transform="translate(4.522388, 20.880597)" fill-rule="nonzero">
                    <g id="knees_0_HL" transform="translate(1.656716, 0.198254)">
                        <path d="M56.3283582,72.6972687 L55.7054716,76.7784037 C55.4653554,78.7119547 55.1435669,80.692555 54.8773156,82.5813242 C54.3154109,86.3690662 54.225027,90.1675786 54.5038014,94.0029366 C54.7765865,97.8343266 55.3401247,101.754146 55.4904015,105.710812 C55.532871,106.692609 55.5579172,107.708985 55.5492055,108.681712 L55.5377714,110.158943 L55.4746115,111.632206 C55.4261527,112.614003 55.3989286,113.596934 55.3346798,114.577031 L55.1049087,117.51562 C54.9105289,119.627731 54.6704127,121.73304 54.4063392,123.831547 C48.1317368,125.284969 43.3098104,124.459058 39.9182365,123.124108 C39.6824761,119.803457 39.3280187,116.484506 38.999152,113.159887 C38.6289047,109.264442 38.2619244,105.35766 38.1639177,101.408363 C38.1127365,99.4351323 38.1573839,97.4596338 38.2935043,95.4444553 L38.5793569,92.5478133 C38.6561288,91.6056961 38.6893422,90.6465732 38.7051321,89.6874502 C38.7459682,85.8390545 38.4372473,81.9560804 38.1029358,78.0844435 C37.9352356,76.2931737 38.0423394,74.4857042 37.8283582,72.6972687 C37.8310806,72.7329807 38.2436384,72.507998 37.8283582,72.4211493 C42.0094301,73.7918108 48.6027131,75.4743037 56.3283582,72.6972687 Z M4.28234539,72.7215595 C4.26817268,72.3472825 8.80694071,74.0339864 14.2863899,74.2695635 C17.4377396,74.4050489 20.9197833,73.784794 23.9758226,72.7215595 C23.7346174,73.9232974 23.4410087,75.0721626 23.186736,76.2721999 C22.7810974,78.1433966 22.3716475,79.9941865 21.8647354,81.8767203 C21.7427716,82.3602498 21.5924947,82.7921952 21.4727088,83.258719 C21.3605457,83.700301 21.2178916,84.1328133 21.1389418,84.583465 C21.0469245,85.0301488 20.9494623,85.4739982 20.8950142,85.9297517 L20.7948296,86.6077133 L20.7316698,87.293044 C20.3668673,90.9498419 20.8775908,94.7381508 20.8231427,98.6233923 C20.8171534,99.5944193 20.7806731,100.564312 20.7044457,101.557447 C20.6783106,102.057982 20.6102505,102.509768 20.5650585,102.99103 C20.5198666,103.494966 20.4327496,103.988699 20.3505329,104.46656 C20.0036983,106.379704 19.5719246,108.233895 19.1368841,110.094321 C18.2597247,113.808372 17.3128717,117.492946 16.374186,121.182621 L15.6369583,124.079263 C8.38120058,125.491305 3.1846711,123.817942 0,122.060117 L1.80876686,106.033354 C2.29771107,101.751879 2.74963054,97.4619012 3.26688777,93.1889292 L3.65183605,89.9850504 C3.77870019,88.9012188 3.83205936,87.8695381 3.87289545,86.787974 C3.92298773,84.6316479 4.13370199,82.494595 4.28234539,80.3683124 C4.37109584,79.3071552 4.43153326,78.2267247 4.49795998,77.1519628 C4.51429442,76.1355873 4.32100356,73.7787488 4.28234539,72.7215595 Z" id="knees_0_HL_1" fill="#582ADF" opacity="0.200000003"></path>
                        <path d="M60.8169552,14.7210299 C60.3757164,10.852597 59.3673284,7.05264179 57.9596716,3.4481791 C57.6045821,2.53919403 57.2229851,1.64291045 56.8209552,0.762089552 C51.3631791,2.76561194 44.4982985,3.74583582 32.1342239,3.64422388 C20.6609104,3.55034328 12.7484328,1.37065672 8.88662687,0 C8.21786567,1.91847761 7.56346269,3.84358209 6.92231343,5.78304478 C5.56767164,9.81438806 4.72108955,13.9893134 4.09429851,18.164791 C3.47413433,22.3463433 3.10523881,26.5527463 2.87329851,30.7602537 C2.6468806,34.9683134 2.53974627,39.1708507 2.53643284,43.3849851 C2.54416418,47.584209 2.72308955,51.8060746 2.98485075,56.0019851 C3.25931343,60.1995522 3.6558209,64.3866269 3.996,68.5593433 C4.12135821,70.1365373 4.22352239,71.7115224 4.30635821,73.2870597 C8.3349403,74.7455224 15.6432687,76.3713134 24.1311791,73.5344627 C25.416791,67.4217313 26.5549552,61.2847015 27.5804627,55.1288955 C28.1857164,51.4587164 28.7506567,47.7819104 29.2233731,44.0907463 C29.4564179,42.2440597 29.6712388,40.3935075 29.8330448,38.5341194 C29.9755224,36.8597313 30.081,35.1803731 30.0174925,33.4700896 C30.3560149,33.5739104 30.6967463,33.6611642 31.043,33.7307463 C31.4538657,33.8075075 31.8713582,33.8594179 32.2932687,33.8837164 C32.3738955,37.5853731 32.5390149,41.2776418 32.8283881,44.966597 C32.9708657,46.8707164 33.1790597,48.7693134 33.3894627,50.6723284 C33.6158806,52.5692687 33.8931045,54.4838806 34.4033731,56.351 C35.337209,60.0046119 35.961791,63.7675672 36.542194,67.5156119 C36.849791,69.5682836 37.1286716,71.6242687 37.3843582,73.6830149 C41.6266567,75.0183284 48.4821493,76.1355075 56.3178657,73.4300896 C56.3813731,72.9049104 56.4526119,72.3797313 56.5150149,71.8545522 C56.9672985,68.0656418 57.3549701,64.271209 57.7608657,60.4784328 L58.941,49.1006567 C59.6914925,41.5112388 60.4911343,33.9256866 60.9091791,26.2865672 C61.0052687,24.3752687 61.0814776,22.461209 61.1013582,20.5355522 C61.1317313,18.6231493 61.0571791,16.6472388 60.8169552,14.7210299 Z" id="thigh_0_HL_2" fill="#808285"></path>
                    </g>
                    <path d="M58.4745373,72.6834627 L57.8427761,77.7353433 C57.5992388,79.6190299 57.2728657,81.5485522 57.0028209,83.3886119 C56.4329104,87.0786716 56.3412388,90.7792239 56.6239851,94.5156716 C56.9006567,98.2482537 57.4722239,102.066985 57.6246418,105.921612 C57.6677164,106.87809 57.6931194,107.868254 57.6842836,108.815896 L57.6726866,110.25503 L57.6086269,111.690299 C57.5594776,112.646776 57.5318657,113.604358 57.4667015,114.559179 L57.2336567,117.421985 C57.0365075,119.479627 56.7929701,121.530642 56.5251343,123.57503 C50.1611343,124.99097 45.2705075,124.186358 41.8306119,122.885836 C41.5914925,119.650821 41.2319851,116.417463 40.8984328,113.178582 C40.5229104,109.383597 40.1507015,105.577567 40.0512985,101.730119 C39.9993881,99.8077761 40.0446716,97.8832239 40.1827313,95.9200149 L40.4726567,93.0980746 C40.5505224,92.1802537 40.584209,91.2458657 40.6002239,90.3114776 C40.6416418,86.5623284 40.3285224,82.7794925 39.9894478,79.0077015 C39.8193582,77.2626269 39.4946418,74.7753433 39.2776119,73.0330299 C39.2803731,73.0678209 39.2853433,73.1026119 39.2897612,73.1368507 C43.530403,74.4721642 50.6388209,75.3888806 58.4745373,72.6834627 Z M5.94926866,72.1356418 C5.92662687,71.5613134 17.5280597,75.7980896 26.0170746,72.9612388 C25.7724328,74.1319851 25.3604627,76.0731045 25.1025672,77.242194 C24.6911493,79.0651343 24.2758657,80.868194 23.7617313,82.7021791 C23.6380299,83.1732388 23.4856119,83.5940448 23.3641194,84.0485373 C23.2503582,84.4787313 23.1056716,84.9000896 23.025597,85.3391194 C22.9322687,85.7742836 22.8334179,86.2066866 22.778194,86.6506866 L22.6765821,87.3111642 L22.6125224,87.9788209 C22.2425224,91.5413134 22.7605224,95.2319254 22.7052985,99.0169701 C22.6992239,99.9629552 22.6622239,100.907836 22.5849104,101.875358 C22.558403,102.362985 22.4893731,102.803119 22.4435373,103.27197 C22.3977015,103.76291 22.3093433,104.24391 22.2259552,104.709448 C21.8741791,106.573254 21.4362537,108.379627 20.9950149,110.192075 C20.1053582,113.810343 19.1450149,117.399896 18.1929552,120.994418 L17.4452239,123.816358 C10.0860896,125.191985 4.81552239,123.561776 1.58547761,121.849284 L3.42001493,106.235836 C3.91592537,102.064776 4.37428358,97.8854328 4.89891045,93.7226567 L5.28934328,90.601403 C5.41801493,89.5455224 5.47213433,88.5404478 5.51355224,87.4867761 C5.56435821,85.3860597 5.77807463,83.3041194 5.92883582,81.2326716 C6.01885075,80.1988806 6.08014925,79.1463134 6.14752239,78.0992687 C6.16408955,77.1091045 5.98847761,73.1655672 5.94926866,72.1356418 Z" id="knees_1_thigh_1_HL" fill="#582ADF"></path>
                    <path d="M38.5777463,123.47894 C38.0840448,116.040836 38.9582388,73.0335821 38.9582388,73.0335821 C38.9626567,73.0683731 50.3211045,75.3888806 58.1568209,72.6834627 C59.720209,117.972015 59.1878507,122.93609 59.1878507,122.93609 C51.9330896,126.065627 42.0176418,124.780015 38.5777463,123.47894 Z M23.164209,87.9799254 C23.1106418,109.012493 20.5758657,124.880522 20.5753134,124.880522 C13.2161791,126.255597 4.81552239,123.561776 1.58547761,121.849284 L3.42001493,106.235836 C3.91592537,102.064776 4.37428358,97.8854328 4.89891045,93.7226567 L5.28934328,90.601403 C5.41801493,89.5455224 5.47213433,88.5404478 5.51355224,87.4867761 C5.56435821,85.3860597 5.77807463,83.3041194 5.92883582,81.2326716 C6.01885075,80.1988806 6.08014925,79.1463134 6.14752239,78.0992687 C6.16408955,77.1091045 5.98847761,73.1655672 5.94926866,72.1356418 C5.92662687,71.5618657 17.5291642,75.7980896 26.0159701,72.9623433 C25.7713284,74.1330896 25.3593582,76.074209 25.1014627,77.2432985 C24.6900448,79.0662388 23.6573582,84.901194 23.5772836,85.3402239 C23.4839552,85.7753881 23.3851045,86.207791 23.3298806,86.651791 L23.2282687,87.3122687 L23.164209,87.9799254 Z" id="knees_2_thigh_1_HL" fill="#582ADF"></path>
                    <path d="M36.7649406,124.115672 C37.3652242,112.76109 35.0960749,72.0815224 35.0960749,72.0815224 C35.0999406,72.1157612 53.7578809,74.7858358 61.5947018,72.0815224 C61.3423287,79.0397313 60.2803734,123.025 60.2803734,123.025 C53.02506,126.154537 47.4761645,128.44909 36.7649406,124.115672 Z M4.77098539,71.213403 C4.77098539,71.213403 20.3413585,75.7262985 28.829269,72.8905522 C28.5835227,74.0612985 22.7187466,123.483358 22.7187466,123.483358 C15.3601645,124.857881 4.30655255,122.813493 1.07761225,121.101 C1.07650778,121.101 3.99398539,84.4428358 4.77098539,71.213403 Z" id="knees_1_thigh_2_HL" fill="#582ADF"></path>
                    <path d="M33.2090302,123.025 C33.4899755,117.710817 36.5983002,107.063854 36.1489756,96.0794255 C35.6382479,83.5939069 34.9960749,72.0815224 34.9960749,72.0815224 C34.9999406,72.1157612 53.6578809,74.7858358 61.4947018,72.0815224 C61.3864062,75.0673525 61.1290386,84.871143 60.8704762,95.0918032 C60.7403907,100.233928 61.5695779,105.304851 61.9254481,109.619403 C62.5106298,116.714115 62.8102224,121.768657 62.8102224,121.768657 C55.5549089,124.898194 43.920254,127.358418 33.2090302,123.025 Z M4.67098539,71.213403 C4.67098539,71.213403 20.2413585,75.7262985 28.729269,72.8905522 C28.6206142,73.4081883 27.4134979,83.3584513 26.1005129,94.2990279 C25.5371939,98.992939 26.1426147,102.883308 26.4309143,106.30597 C26.9904497,112.948715 28.0280588,117.770773 28.729269,122.873134 C21.3706869,124.247657 4.20655255,122.813493 0.977612254,121.101 C0.976507776,121.101 3.89398539,84.4428358 4.67098539,71.213403 Z" id="knees_2_thigh_2_HL" fill="#582ADF"></path>
                </g>
                <g id="thigh_HL" transform="translate(5.074627, 19.880597)" fill="#582ADF">
                    <g id="thigh_0_HL" transform="translate(0.023746, 0.119403)">
                        <path d="M61.8987888,15.5196885 C61.4619666,11.7590745 60.4636721,8.06502961 59.0701053,4.56102855 C58.71857,3.67737822 58.3407926,2.80607536 57.9427869,1.94980423 C52.5396405,3.89748553 45.7434741,4.85038914 33.503158,4.75160928 C22.144687,4.66034527 14.3114096,2.54140974 10.4882585,1.20895522 C9.82619125,3.07396207 9.17833853,4.94541108 8.54360688,6.83081812 C7.20252441,10.749802 6.3644162,14.8083661 5.74389904,18.8674671 C5.12994241,22.9324734 4.76473936,27.0216378 4.53512067,31.1118759 C4.3109691,35.2026508 4.20490713,39.2880573 4.20162687,43.3847376 C4.20928082,47.4669229 4.38641524,51.5711191 4.64555633,55.6500834 C4.91727177,59.7306582 5.30981038,63.801033 5.64658445,67.8574497 C5.77068789,69.3906851 5.87182945,70.921773 5.95383612,72.4533978 C9.94209402,73.871211 17.1772695,75.4516889 25.58022,72.6939053 C26.8529635,66.7515447 27.9797352,60.7855628 28.9949778,54.8013281 C29.5941733,51.2334422 30.1534588,47.6591142 30.6214435,44.0708282 C30.8521556,42.2756114 31.0648263,40.4766368 31.2250127,38.6690726 C31.3660641,37.0413521 31.470486,35.4088001 31.4076142,33.7461846 C31.7427481,33.8471119 32.0800689,33.9319337 32.4228568,33.9995764 C32.8296099,34.0741982 33.2429235,34.1246618 33.6606109,34.1482831 C33.7404307,37.7467692 33.9038973,41.336129 34.190374,44.9222677 C34.3314255,46.7733165 34.5375356,48.6189968 34.7458325,50.468972 C34.9699841,52.3130418 35.2444331,54.1742907 35.7495942,55.9893707 C36.6740828,59.5411512 37.2924131,63.1992274 37.8670065,66.8428087 C38.1715246,68.8382694 38.4476138,70.8369512 38.700741,72.8383172 C42.9005761,74.1364135 49.6874484,75.2224552 57.444733,72.5924412 C57.5076048,72.0818996 57.5781306,71.571358 57.6399089,71.0608164 C58.0876654,67.3775084 58.4714566,63.6888319 58.8732893,60.001766 L60.041611,48.9411051 C60.7845915,41.5632153 61.5762293,34.1890835 61.9900896,26.7628775 C62.0852173,24.9048496 62.1606635,23.0441376 62.1803451,21.1721517 C62.2104142,19.3130502 62.1366082,17.3922112 61.8987888,15.5196885 Z" id="thigh_defualt" opacity="0.300000012"></path>
                        <path d="M67.3633433,45.2145522 C65.2488209,31.5814328 63.6793582,20.0584179 62.0535672,12.5048955 C61.0943284,8.04832836 60.4257015,4.95747761 59.9016269,3.61940299 C59.5465373,2.71041791 58.8036567,1.50022388 58.4016269,0.619402985 C52.9438507,2.62292537 45.7779851,3.94574627 33.4133582,3.84413433 C21.9400448,3.75025373 14.0275672,1.5711194 10.1657612,0.199910448 C9.49755224,2.11838806 8.84314925,4.04349254 8.202,5.98295522 C6.84735821,10.0142985 6.00077612,14.1892239 5.37398507,18.3647015 C4.81677612,22.1232388 4.19661194,27.1916866 3.77470149,30.6862537 C3.34174627,34.287403 1.71319403,41.3737313 0.401626866,47.103209 C0.401626866,47.103209 17.8175821,54.2469701 31.821806,48.5329552 L32.2613881,33.9140896 C32.2818209,33.9185075 32.3017015,33.9256866 32.3221343,33.9295522 C32.3287612,33.9306567 32.3342836,33.931209 32.3409104,33.9323134 L33.88,34.0819701 L33.0063582,48.6660448 C35.1368955,49.4883284 51.7206269,53.1910896 67.3633433,45.2145522 Z" id="thigh_0_HL_1" fill-rule="nonzero"></path>
                    </g>
                    <path d="M62.3058955,15.5404328 C61.8646567,11.672 60.8562687,7.87204478 59.4486119,4.26758209 C59.0935224,3.35859701 58.7119254,2.46231343 58.3098955,1.58149254 C52.8521194,3.58501493 45.9872388,4.56523881 33.6231642,4.46362687 C22.1498507,4.36974627 14.2373731,2.1900597 10.3755672,0.819402985 C9.70680597,2.7378806 9.05240299,4.66298507 8.41125373,6.60244776 C7.05661194,10.633791 6.21002985,14.8087164 5.58323881,18.984194 C4.96307463,23.1657463 4.5941791,27.3721493 4.36223881,31.5796567 C4.1358209,35.7877164 4.02868657,39.9902537 4.02537313,44.2043881 C4.03310448,48.4036119 4.21202985,52.6254776 4.47379104,56.8213881 C4.74825373,61.0189552 5.14476119,65.2060299 5.4849403,69.3787463 C5.61029851,70.9559403 5.71246269,72.5309254 5.79529851,74.1064627 C9.8238806,75.5649254 17.132209,77.1907164 25.6201194,74.3538657 C26.9057313,68.2411343 28.0438955,62.1041045 29.069403,55.9482985 C29.6746567,52.2781194 30.239597,48.6013134 30.7123134,44.9101493 C30.9453582,43.0634627 31.1601791,41.2129104 31.3219851,39.3535224 C31.4644627,37.6791343 31.5699403,35.9997761 31.5064328,34.2894925 C31.8449552,34.3933134 32.1856866,34.4805672 32.5319403,34.5501493 C32.942806,34.6269104 33.3602985,34.6788209 33.782209,34.7031194 C33.8628358,38.4047761 34.0279552,42.0970448 34.3173284,45.786 C34.459806,47.6901194 34.668,49.5887164 34.878403,51.4917313 C35.1048209,53.3886716 35.3820448,55.3032836 35.8923134,57.170403 C36.8261493,60.8240149 37.4507313,64.5869701 38.0311343,68.3350149 C38.3387313,70.3876866 38.6176119,72.4436716 38.8732985,74.5024179 C43.115597,75.8377313 49.9710896,76.9549104 57.806806,74.2494925 C57.8703134,73.7243134 57.9415522,73.1991343 58.0039552,72.6739552 C58.4562388,68.8850448 58.8439104,65.0906119 59.249806,61.2978358 L60.4299403,49.9200597 C61.1804328,42.3306418 61.9800746,34.7450896 62.3981194,27.1059701 C62.494209,25.1946716 62.5704179,23.2806119 62.5902985,21.3549552 C62.6206716,19.4425522 62.5461194,17.4666418 62.3058955,15.5404328 Z" id="thigh_1_HL" fill-rule="nonzero"></path>
                    <path d="M60.7176567,76.2894776 C61.7785075,65.7643582 63.0171791,47.9148955 63.329194,37.7929104 C63.8168209,21.9734776 62.7156567,17.636194 62.7156567,17.636194 L62.5952687,17.7002537 C62.5510896,17.1038358 62.4975224,16.5085224 62.4240746,15.9181791 C61.9800746,12.0508507 60.9722388,8.25089552 59.5640299,4.64643284 C59.2089403,3.73744776 58.8262388,2.84116418 58.4253134,1.96034328 C52.9675373,3.96386567 46.1021045,4.94408955 33.7385821,4.84247761 C22.2641642,4.74859701 14.352791,2.56891045 10.4909851,1.19825373 C9.82332836,3.11673134 9.1678209,5.04183582 8.52556716,6.98129851 C7.17202985,11.0126418 6.32655224,15.1875672 5.69865672,19.3630448 C5.14034328,23.1215821 4.79298507,26.8983433 4.5599403,30.6751045 L4.54889552,30.674 C4.54889552,30.674 4.54779104,30.7408209 4.54558209,30.8672836 C4.52459701,31.2306567 4.4958806,31.5934776 4.476,31.9585075 C4.25179104,36.1665672 4.14244776,40.3691045 4.14079104,44.5832388 C4.14189552,45.4745522 4.15349254,46.3669701 4.17171642,47.2621493 C3.9381194,54.5522537 4.61958209,66.4822687 4.02537313,76.2900299 C7.49785075,78.2339104 14.91,81.387194 27.5739403,79.0396269 C29.8270746,62.8750448 32.5866119,34.9146418 32.5866119,34.9146418 C32.6070448,34.9190597 32.6269254,34.9262388 32.6473582,34.9301045 C32.6539851,34.931209 32.6589552,34.9317612 32.6655821,34.9328657 L34.7613284,77.9224478 C38.245403,79.4687164 48.3988657,85.4489104 60.7176567,76.2894776 Z" id="thigh_2_HL" fill-rule="nonzero"></path>
                </g>
                <g id="rise_HL" transform="translate(12.805970, 0.000000)" fill="#582ADF">
                    <g id="rise_0_HL" transform="translate(0.694030, 0.552239)">
                        <path d="M52.022,25.7100299 C51.7232388,24.787791 51.3963134,23.8749403 51.0439851,22.974791 C50.6894478,22.065806 50.3067463,21.1695224 49.9052687,20.2887015 C44.4474925,22.2922239 37.5820597,23.2724478 25.2185373,23.1708358 C13.7441194,23.0769552 5.83274627,20.8972687 1.9709403,19.5266119 C1.30328358,21.4450896 0.647776119,23.370194 0.00552238806,25.3096567 C0.00386567164,25.3157313 0.00165671642,25.3212537 -1.42108547e-14,25.3273284 C4.62776119,27.4412985 24.6171493,35.1792687 52.022,25.7100299 Z" id="rise_0_HL_1" fill-rule="nonzero"></path>
                        <path d="M50.6168062,22.264836 C50.3818183,21.6829968 50.1310192,21.10959 49.8753131,20.5393454 C49.8764035,20.5393454 49.8769487,20.5388184 49.8780392,20.5388184 C49.8616827,20.5045616 49.8420549,20.4645074 49.8251533,20.4291965 C49.7150197,20.1867635 49.6070671,19.9422224 49.4936622,19.7018975 C49.4882101,19.7040056 49.4822127,19.7055867 49.4773058,19.7076948 C48.3209037,17.3460812 46.7866673,14.5328043 45.6319009,12.3972858 C45.26279,11.692649 44.9024026,10.9859041 44.5649142,10.2733619 C44.5540099,10.2765241 44.544196,10.2796863 44.5332917,10.2833755 C44.1363748,9.37583279 43.6800294,8.22164089 43.4554007,7.47747699 C43.3338176,7.08378688 43.2384049,6.68429945 43.1598939,6.2805958 C43.0121405,4.9545927 43.4346825,1.93155858 43.9008417,0.604501417 C25.7947804,7.08115173 6.50287545,0 6.50287545,0 C6.38456369,2.00376145 6.16974878,5.47898582 5.85406901,7.44322015 C5.72539816,8.25062745 5.27505016,10.1737536 5.08313431,10.9669311 C5.00353285,11.226756 4.92066009,11.4839458 4.82742824,11.7353383 C4.66331838,12.1991232 4.47194774,12.6729216 4.29366227,13.1414497 C3.71191734,14.6677236 2.85102208,17.0693914 2.16841228,18.9761796 C2.16841228,18.9761796 2.16786707,18.9761796 2.16732185,18.9756526 C2.14169673,19.0478555 2.11716203,19.1205854 2.08990125,19.1927882 C1.93342441,19.6312757 1.78621622,20.0386686 1.65645494,20.399683 C1.65972623,20.40021 1.66354274,20.401264 1.6657236,20.4023181 C1.18048181,21.762578 0.697420886,23.122311 0.226899916,24.4946926 C0.22526427,24.5015439 0.223083408,24.5057601 0.221447761,24.5115575 C4.78817273,26.5290216 24.5233379,33.9137417 51.5796567,24.876788 C51.2863308,23.9950698 50.9641084,23.1244191 50.6168062,22.264836 Z" id="rise_default" opacity="0.300000012"></path>
                    </g>
                    <g id="rise_1_HL" transform="translate(0.694030, 0.552239)">
                        <path d="M50.6168062,22.264836 C50.3818183,21.6829968 50.1310192,21.10959 49.8753131,20.5393454 C49.8764035,20.5393454 49.8769487,20.5388184 49.8780392,20.5388184 C49.8616827,20.5045616 49.8420549,20.4645074 49.8251533,20.4291965 C49.7150197,20.1867635 49.6070671,19.9422224 49.4936622,19.7018975 C49.4882101,19.7040056 49.4822127,19.7055867 49.4773058,19.7076948 C48.3209037,17.3460812 46.7866673,14.5328043 45.6319009,12.3972858 C45.26279,11.692649 44.9024026,10.9859041 44.5649142,10.2733619 C44.5540099,10.2765241 44.544196,10.2796863 44.5332917,10.2833755 C44.1363748,9.37583279 43.6800294,8.22164089 43.4554007,7.47747699 C43.3338176,7.08378688 43.2384049,6.68429945 43.1598939,6.2805958 C43.0121405,4.9545927 43.4346825,1.93155858 43.9008417,0.604501417 C25.7947804,7.08115173 6.50287545,0 6.50287545,0 C6.38456369,2.00376145 6.16974878,5.47898582 5.85406901,7.44322015 C5.72539816,8.25062745 5.27505016,10.1737536 5.08313431,10.9669311 C5.00353285,11.226756 4.92066009,11.4839458 4.82742824,11.7353383 C4.66331838,12.1991232 4.47194774,12.6729216 4.29366227,13.1414497 C3.71191734,14.6677236 2.85102208,17.0693914 2.16841228,18.9761796 C2.16841228,18.9761796 2.16786707,18.9761796 2.16732185,18.9756526 C2.14169673,19.0478555 2.11716203,19.1205854 2.08990125,19.1927882 C1.93342441,19.6312757 1.78621622,20.0386686 1.65645494,20.399683 C1.65972623,20.40021 1.66354274,20.401264 1.6657236,20.4023181 C1.18048181,21.762578 0.697420886,23.122311 0.226899916,24.4946926 C0.22526427,24.5015439 0.223083408,24.5057601 0.221447761,24.5115575 C4.78817273,26.5290216 24.5233379,33.9137417 51.5796567,24.876788 C51.2863308,23.9950698 50.9641084,23.1244191 50.6168062,22.264836 Z" id="rise_default" opacity="0.300000012"></path>
                        <path d="M52.022,25.7100299 C51.7232388,24.787791 51.3963134,23.8749403 51.0439851,22.974791 C50.6894478,22.065806 50.3067463,21.1695224 49.9052687,20.2887015 C44.4474925,22.2922239 37.5820597,23.2724478 25.2185373,23.1708358 C13.7441194,23.0769552 5.83274627,20.8972687 1.9709403,19.5266119 C1.30328358,21.4450896 0.647776119,23.370194 0.00552238806,25.3096567 C0.00386567164,25.3157313 0.00165671642,25.3212537 -1.42108547e-14,25.3273284 C4.62776119,27.4412985 24.6171493,35.1792687 52.022,25.7100299 Z" id="rise_0_HL_1" fill-rule="nonzero"></path>
                        <path d="M45.9943134,12.6346716 C45.6204478,11.8963284 45.5972537,11.9040597 45.2554179,11.1557761 C28.9605075,16.6925224 11.1773134,12.850597 4.99831343,10.9956269 C4.95855224,11.1706866 4.92652239,11.3496119 4.88123881,11.5224627 C4.74538806,12.0156119 4.60622388,12.5054478 4.43668657,12.9776119 C4.27046269,13.4635821 4.07662687,13.9600448 3.89604478,14.4509851 C3.14610448,16.4870896 2.1658806,18.9754776 1.45404478,21.0204179 C5.31419403,22.3894179 13.7435672,24.7353284 25.2185373,24.8286567 C37.5809552,24.9308209 44.8351642,23.1708358 50.2934925,21.1667612 C49.0995522,18.5403134 47.3047761,15.1390746 45.9943134,12.6346716 Z" id="rise_1_HL_1" fill-rule="nonzero"></path>
                    </g>
                    <path d="M51.7385672,23.5270299 C51.5005522,22.9173582 51.2465224,22.3165224 50.9875224,21.719 C50.9886269,21.719 50.9891791,21.7184478 50.9902836,21.7184478 C50.9737164,21.6825522 50.9538358,21.6405821 50.9367164,21.6035821 C50.8251642,21.3495522 50.7158209,21.0933134 50.6009552,20.8414925 C50.5954328,20.8437015 50.5893582,20.8453582 50.5843881,20.8475672 C49.4130896,18.3729851 47.8590896,15.4251343 46.6894478,13.1874627 C46.3155821,12.4491194 45.9505522,11.7085672 45.6087164,10.9619403 C45.5976716,10.9652537 45.5877313,10.9685672 45.5766866,10.9724328 C45.1746567,10.0214776 44.7124328,8.81207463 44.4849104,8.03231343 C44.3617612,7.61979104 44.2651194,7.20119403 44.185597,6.7781791 C44.0359403,5.38874627 44.4639254,2.22110448 44.9360896,0.830567164 C26.596791,7.61702985 7.05637313,0.197149254 7.05637313,0.197149254 C6.93653731,2.29676119 6.71895522,5.93822388 6.39920896,7.99641791 C6.2688806,8.84244776 5.81273134,10.8575672 5.61834328,11.6886866 C5.53771642,11.9609403 5.45377612,12.2304328 5.35934328,12.4938507 C5.1931194,12.9798209 4.99928358,13.4762836 4.81870149,13.9672239 C4.22946269,15.5665075 3.35747761,18.0830597 2.66607463,20.0810597 C2.66607463,20.0810597 2.66552239,20.0810597 2.66497015,20.0805075 C2.63901493,20.1561642 2.61416418,20.2323731 2.58655224,20.3080299 C2.4280597,20.7674925 2.27895522,21.1943731 2.14752239,21.5726567 C2.15083582,21.573209 2.15470149,21.5743134 2.15691045,21.5754179 C1.66541791,23.0007463 1.17613433,24.4255224 0.699552239,25.8635522 C0.697895522,25.8707313 0.695686567,25.8751493 0.694029851,25.8812239 C5.31958209,27.995194 25.3089701,35.7331642 52.7138209,26.2639254 C52.4167164,25.3400299 52.0903433,24.4277313 51.7385672,23.5270299 Z" id="rise_2_HL" fill-rule="nonzero"></path>
                </g>
            </g>
            <g id="pants_points" transform="translate(51.000000, 11.000000)" fill-rule="nonzero">
                <g id="ankle_point" transform="translate(0.000000, 139.229299)">
                    <polygon id="Polygon" fill="#1B1B1D" points="8.70967742 0.770700637 16.2524793 5.15244338 16.2524793 13.9159289 8.70967742 18.2976716 1.16687552 13.9159289 1.16687552 5.15244338"></polygon>
                    <path d="M8.70967742,5.57864101 L5.30970964,7.55374049 L5.30970964,11.5146317 L8.70967742,13.4897312 L12.1096452,11.5146317 L12.1096452,7.55374049 L8.70967742,5.57864101 Z" id="Polygon" stroke="#FFFFFF" stroke-width="2"></path>
                    <polygon id="Polygon" fill="#1B1B1D" points="104.709677 9.77070064 112.252479 14.1524434 112.252479 22.9159289 104.709677 27.2976716 97.1668755 22.9159289 97.1668755 14.1524434"></polygon>
                    <path d="M104.709677,14.578641 L101.30971,16.5537405 L101.30971,20.5146317 L104.709677,22.4897312 L108.109645,20.5146317 L108.109645,16.5537405 L104.709677,14.578641 Z" id="Polygon" stroke="#FFFFFF" stroke-width="2"></path>
                </g>
                <g id="knees_point" transform="translate(87.878981, 99.598726)">
                    <polygon id="Polygon" fill="#1B1B1D" points="8.83069653 0.401273885 16.3734984 4.78301662 16.3734984 13.5465021 8.83069653 17.9282448 1.28789462 13.5465021 1.28789462 4.78301662"></polygon>
                    <path d="M8.83069653,5.20921426 L5.43072875,7.18431374 L5.43072875,11.145205 L8.83069653,13.1203045 L12.2306643,11.145205 L12.2306643,7.18431374 L8.83069653,5.20921426 Z" id="Polygon" stroke="#FFFFFF" stroke-width="2"></path>
                </g>
                <g id="thigh_point" transform="translate(4.649682, 54.579618)">
                    <polygon id="Polygon" fill="#1B1B1D" points="9.05999589 0.420382166 16.6027978 4.8021249 16.6027978 13.5656104 9.05999589 17.9473531 1.51719399 13.5656104 1.51719399 4.8021249"></polygon>
                    <path d="M9.05999589,5.22832254 L5.66002811,7.20342202 L5.66002811,11.1643133 L9.05999589,13.1394128 L12.4599637,11.1643133 L12.4599637,7.20342202 L9.05999589,5.22832254 Z" id="Polygon" stroke="#FFFFFF" stroke-width="2"></path>
                </g>
                <g id="rise_point" transform="translate(47.426752, 0.000000)">
                    <polygon id="Polygon" fill="#1B1B1D" points="9.28292583 1.42108547e-14 16.8257277 4.38174274 16.8257277 13.1452282 9.28292583 17.526971 1.74012392 13.1452282 1.74012392 4.38174274"></polygon>
                    <path d="M9.28292583,4.80794037 L5.88295805,6.78303985 L5.88295805,10.7439311 L9.28292583,12.7190306 L12.6828936,10.7439311 L12.6828936,6.78303985 L9.28292583,4.80794037 Z" id="Polygon" stroke="#FFFFFF" stroke-width="2"></path>
                </g>
            </g>
            <g id="touches_pants" transform="translate(16.000000, 0.000000)" fill="#F8E71C" stroke="#4A4A4A">
                <rect id="rise_TA" x="0.5" y="0.5" width="165" height="35"></rect>
                <rect id="thigh_TA" x="0.5" y="35.5" width="165" height="63"></rect>
                <rect id="knees_TA" x="0.5" y="98.5" width="165" height="47"></rect>
                <rect id="ankle_TA" x="0.5" y="145.5" width="165" height="57"></rect>
            </g>
            <mask id="mask-2" fill="white">
                <use xlink:href="#path-1"></use>
            </mask>
            <use id="Mask" fill="#01070D" fill-rule="nonzero" opacity="0.0199999996" xlink:href="#path-1"></use>
        </g>
    </g>
</svg>