<?xml version="1.0" encoding="UTF-8"?>
<svg width="40px" height="296px" viewBox="0 0 40 296" version="1.1" xmlns="http://www.w3.org/2000/svg" xmlns:xlink="http://www.w3.org/1999/xlink">
    <!-- Generator: Sketch 50.2 (55047) - http://www.bohemiancoding.com/sketch -->
    <title>sleeves_thumbnails</title>
    <desc>Created with Sketch.</desc>
    <defs></defs>
    <g id="Page-1" stroke="none" stroke-width="1" fill="none" fill-rule="evenodd">
        <g id="sleeves_thumbnails" transform="translate(4.000000, 0.000000)">
            <g id="sleeves_thumbnails_0" transform="translate(3.428571, 31.000000)" fill-rule="nonzero">
                <path d="M9.53307665,23.1458743 C9.14210102,25.6002957 9.21690568,28.1063974 9.75357896,30.5331293 L16.1781742,30.5331293 C16.2245054,30.0226279 16.2828485,29.5129846 16.3291797,29.0024832 C16.4218421,28.0629891 16.3523453,27.1149152 16.3523453,26.1848589 C16.4841804,26.137777 16.6200118,26.1027423 16.7581724,26.0801847 C16.897166,26.3375803 17.140834,26.5675204 17.1639996,26.8343539 C17.2798276,28.0750009 17.3261588,29.3044941 17.4419868,30.5451411 L23.8897477,30.5451411 C24.4342665,28.1196351 24.5128798,25.6127439 24.1214038,23.1578861 C19.7109374,26.1284033 13.9386453,26.1236505 9.53307665,23.1458743 Z" id="Path_3" fill="#F4F4F4"></path>
                <path d="M24.0982382,23.1458743 C23.8068179,21.624493 23.2366898,20.1700845 22.4165866,18.8559469 C21.036946,16.6526402 22.393421,14.5763153 22.7065858,12.4425054 C22.6893158,10.6044548 22.3519451,8.78346608 21.7096066,7.06122051 C18.7636141,9.25803124 14.7153162,9.2247134 11.8058802,6.97971189 C11.1470886,8.69845409 10.7984911,10.5204565 10.7762977,12.3609968 C10.7762977,12.348985 10.7883094,12.3258194 10.7883094,12.3146656 C11.0894623,13.0456692 11.1941366,13.764661 11.4378045,14.4716411 C12.0010919,16.1081627 11.8189052,17.9093338 10.9393149,19.3999097 C10.3156491,20.5091361 9.85011932,21.7001068 9.55624231,22.9382418 L9.5210649,23.1467323 C13.9232498,26.126959 19.6964041,26.1266192 24.0982382,23.1458743 Z" id="Path_15" fill="#F4F4F4"></path>
                <path d="M24.877289,26.3401542 C24.588403,23.9129527 23.8616517,21.5582783 22.7323253,19.3904719 C20.8296281,19.8578589 18.8871624,20.1451209 16.9306275,20.2484573 C14.907486,20.1996195 12.896883,19.9157222 10.9393149,19.4024837 C10.3571973,20.4883735 9.84368799,21.6096692 9.40180491,22.7597809 C8.93982516,24.0254987 8.69190662,25.3593295 8.66822732,26.7065141 C13.060255,29.6845816 20.4921252,29.3207958 24.877289,26.3401542 Z" id="Path_49" fill="#F4F4F4"></path>
                <path d="M19.5869505,2.66661887 C19.0858903,2.18713611 18.8409366,1.49903889 18.9263017,0.810796277 C17.7481912,-0.290961547 15.9101281,-0.265201389 14.7633562,0.869139293 C14.8266982,1.54099255 14.584035,2.20563738 14.1027073,2.67863067 C15.625873,4.17652904 18.0703609,4.17117503 19.5869505,2.66661887 Z" id="Path_4" fill="#F4F4F4"></path>
                <path d="M8.37308033,7.76905853 C8.3543171,8.75227874 8.26514442,9.73289186 8.10624682,10.7033689 C7.70041967,12.7908476 7.08610208,14.831995 6.64767148,16.8963081 C6.20666698,18.9142899 4.17753131,20.6765921 3.77170417,22.694574 C3.64808824,23.1552385 3.42980771,23.5850787 3.13078902,23.9566706 C2.53019918,24.8146561 0.660648819,25.6151565 0,26.4379646 C0.0438820962,26.5047285 0.0944807727,26.5668269 0.151005445,26.6232895 C0.568844372,26.4379646 0.997837113,26.2517817 1.40366425,26.0896225 C1.28783621,26.9939392 1.15999637,27.9102677 1.05618013,28.8497618 C0.997837113,29.42976 1.47401906,29.7197591 1.99567423,29.6382504 C2.46670435,29.579683 2.89574436,29.3380399 3.18999002,28.9655898 C3.78417011,27.945964 4.19969838,26.8322785 4.41862523,25.6726416 C4.60395009,23.933505 6.1234424,22.216676 7.1787645,20.7907042 C8.37308033,19.1673956 9.54423051,17.8795594 9.90372639,16.3609252 C10.2280449,15.0387695 10.4948784,13.7011702 10.7737237,12.3712927 C10.7842121,10.3633298 11.2025014,8.37842553 12.0032169,6.53699138 C10.9552017,7.32368543 9.68343702,7.75532195 8.37308033,7.76905853 Z" id="Path_7" fill="#D6D4D4"></path>
                <path d="M30.6386615,26.2423439 C31.0447746,26.3933494 31.4623276,26.5440688 31.8913203,26.6945023 C31.36622,25.8025471 30.7772471,24.9497694 30.1290182,24.1428534 C29.873554,23.8507861 29.6766452,23.5123126 29.54902,23.1458743 C28.7836969,19.8289024 26.6730527,16.7109832 26.0312795,13.3699878 C25.6837954,11.526177 25.4976125,9.64718872 25.3242995,7.78021233 C23.8634052,7.77917292 22.4535258,7.24287544 21.3612645,6.27273183 C22.2622791,8.20432841 22.7254729,10.3111133 22.7177396,12.4425054 C22.7177396,12.407328 22.7297514,12.3841624 22.7297514,12.349843 C22.8896647,12.730922 23.0101253,13.1273781 23.0892473,13.533005 C23.9618113,16.757005 25.2865369,19.8411951 27.0239687,22.693716 C27.3078255,23.3918117 27.4307017,24.144905 27.3834646,24.8970227 C27.4502231,26.4286355 27.9621745,27.9075397 28.8566257,29.1526307 C29.2386662,29.5113182 29.7476863,29.7033197 30.2714437,29.6862977 C30.9784238,29.6742859 30.9784238,29.0857078 30.9209387,28.5957981 C30.847152,27.77299 30.731324,26.9733476 30.6386615,26.2423439 Z" id="Path_8" fill="#D6D4D4"></path>
                <path d="M14.1018494,2.67777269 C13.8469456,2.89881703 13.5514513,3.06812887 13.2318521,3.17626225 C12.4433634,3.47741515 11.701206,3.90726588 10.8895517,4.12691016 C9.45855704,4.36233288 8.41114593,5.60329132 8.41941154,7.05349863 C8.40739974,7.29716654 8.39624594,7.52882259 8.38423413,7.77249045 C11.3289952,7.83031517 13.8211191,5.60969223 14.1018494,2.67777269 Z" id="Path_11" fill="#F4F4F4"></path>
                <path d="M25.3268734,7.76905853 C25.3037078,7.50222507 25.2805422,7.24740336 25.2453648,6.9805699 C25.2074154,5.57463935 24.1929235,4.38606092 22.810402,4.12776815 C21.9635703,3.89611207 21.2214129,3.45510753 20.386593,3.14194283 C20.0990359,3.03369386 19.8322984,2.8766699 19.5981044,2.67777269 C19.8703526,5.61799333 22.3750253,7.84395223 25.3268734,7.76905853 Z" id="Path_12" fill="#F4F4F4"></path>
                <path d="M21.7207604,7.06122051 C21.6049324,6.77122139 21.4770926,6.50438793 21.3612645,6.27273183 C20.322314,5.35872179 19.6884997,4.06980142 19.5989623,2.6889265 L19.5869505,2.6769147 C18.0692709,4.18429732 15.6195291,4.18429732 14.1018494,2.6769147 L14.0898376,2.6889265 C13.9883189,4.21488087 13.226359,5.62068445 12.0032169,6.53870734 C11.9283731,6.68530618 11.8624737,6.83630183 11.8058802,6.99086569 C14.7240369,9.22656773 18.7711707,9.25528576 21.7207604,7.06122051 Z" id="Path_9" fill="#F4F4F4"></path>
            </g>
            <g id="sleeves_thumbnails_1" transform="translate(3.428571, 67.000000)" fill-rule="nonzero">
                <path d="M9.53307665,23.1458743 C9.14210102,25.6002957 9.21690568,28.1063974 9.75357896,30.5331293 L16.1781742,30.5331293 C16.2245054,30.0226279 16.2828485,29.5129846 16.3291797,29.0024832 C16.4218421,28.0629891 16.3523453,27.1149152 16.3523453,26.1848589 C16.4841804,26.137777 16.6200118,26.1027423 16.7581724,26.0801847 C16.897166,26.3375803 17.140834,26.5675204 17.1639996,26.8343539 C17.2798276,28.0750009 17.3261588,29.3044941 17.4419868,30.5451411 L23.8897477,30.5451411 C24.4342665,28.1196351 24.5128798,25.6127439 24.1214038,23.1578861 C19.7109374,26.1284033 13.9386453,26.1236505 9.53307665,23.1458743 Z" id="Path_3-3" fill="#F4F4F4"></path>
                <path d="M24.0982382,23.1458743 C23.8068179,21.624493 23.2366898,20.1700845 22.4165866,18.8559469 C21.036946,16.6526402 22.393421,14.5763153 22.7065858,12.4425054 C22.6893158,10.6044548 22.3519451,8.78346608 21.7096066,7.06122051 C18.7636141,9.25803124 14.7153162,9.2247134 11.8058802,6.97971189 C11.1470886,8.69845409 10.7984911,10.5204565 10.7762977,12.3609968 C10.7762977,12.348985 10.7883094,12.3258194 10.7883094,12.3146656 C11.0894623,13.0456692 11.1941366,13.764661 11.4378045,14.4716411 C12.0010919,16.1081627 11.8189052,17.9093338 10.9393149,19.3999097 C10.3156491,20.5091361 9.85011932,21.7001068 9.55624231,22.9382418 L9.5210649,23.1467323 C13.9232498,26.126959 19.6964041,26.1266192 24.0982382,23.1458743 Z" id="Path_15-3" fill="#F4F4F4"></path>
                <path d="M24.877289,26.3401542 C24.588403,23.9129527 23.8616517,21.5582783 22.7323253,19.3904719 C20.8296281,19.8578589 18.8871624,20.1451209 16.9306275,20.2484573 C14.907486,20.1996195 12.896883,19.9157222 10.9393149,19.4024837 C10.3571973,20.4883735 9.84368799,21.6096692 9.40180491,22.7597809 C8.93982516,24.0254987 8.69190662,25.3593295 8.66822732,26.7065141 C13.060255,29.6845816 20.4921252,29.3207958 24.877289,26.3401542 Z" id="Path_49-3" fill="#F4F4F4"></path>
                <path d="M19.5869505,2.66661887 C19.0858903,2.18713611 18.8409366,1.49903889 18.9263017,0.810796277 C17.7481912,-0.290961547 15.9101281,-0.265201389 14.7633562,0.869139293 C14.8266982,1.54099255 14.584035,2.20563738 14.1027073,2.67863067 C15.625873,4.17652904 18.0703609,4.17117503 19.5869505,2.66661887 Z" id="Path_4-3" fill="#F4F4F4"></path>
                <path d="M8.37308033,7.76905853 C8.3543171,8.75227874 8.26514442,9.73289186 8.10624682,10.7033689 C7.70041967,12.7908476 7.08610208,14.831995 6.64767148,16.8963081 C6.20666698,18.9142899 4.17753131,20.6765921 3.77170417,22.694574 C3.64808824,23.1552385 3.42980771,23.5850787 3.13078902,23.9566706 C2.53019918,24.8146561 0.660648819,25.6151565 0,26.4379646 C0.0438820962,26.5047285 0.0944807727,26.5668269 0.151005445,26.6232895 C0.568844372,26.4379646 0.997837113,26.2517817 1.40366425,26.0896225 C1.28783621,26.9939392 1.15999637,27.9102677 1.05618013,28.8497618 C0.997837113,29.42976 1.47401906,29.7197591 1.99567423,29.6382504 C2.46670435,29.579683 2.89574436,29.3380399 3.18999002,28.9655898 C3.78417011,27.945964 4.19969838,26.8322785 4.41862523,25.6726416 C4.60395009,23.933505 6.1234424,22.216676 7.1787645,20.7907042 C8.37308033,19.1673956 9.54423051,17.8795594 9.90372639,16.3609252 C10.2280449,15.0387695 10.4948784,13.7011702 10.7737237,12.3712927 C10.7842121,10.3633298 11.2025014,8.37842553 12.0032169,6.53699138 C10.9552017,7.32368543 9.68343702,7.75532195 8.37308033,7.76905853 Z" id="Path_7-3" fill="#D6D4D4"></path>
                <path d="M30.6386615,26.2423439 C31.0447746,26.3933494 31.4623276,26.5440688 31.8913203,26.6945023 C31.36622,25.8025471 30.7772471,24.9497694 30.1290182,24.1428534 C29.873554,23.8507861 29.6766452,23.5123126 29.54902,23.1458743 C28.7836969,19.8289024 26.6730527,16.7109832 26.0312795,13.3699878 C25.6837954,11.526177 25.4976125,9.64718872 25.3242995,7.78021233 C23.8634052,7.77917292 22.4535258,7.24287544 21.3612645,6.27273183 C22.2622791,8.20432841 22.7254729,10.3111133 22.7177396,12.4425054 C22.7177396,12.407328 22.7297514,12.3841624 22.7297514,12.349843 C22.8896647,12.730922 23.0101253,13.1273781 23.0892473,13.533005 C23.9618113,16.757005 25.2865369,19.8411951 27.0239687,22.693716 C27.3078255,23.3918117 27.4307017,24.144905 27.3834646,24.8970227 C27.4502231,26.4286355 27.9621745,27.9075397 28.8566257,29.1526307 C29.2386662,29.5113182 29.7476863,29.7033197 30.2714437,29.6862977 C30.9784238,29.6742859 30.9784238,29.0857078 30.9209387,28.5957981 C30.847152,27.77299 30.731324,26.9733476 30.6386615,26.2423439 Z" id="Path_8-3" fill="#D6D4D4"></path>
                <path d="M14.1018494,2.67777269 C13.8469456,2.89881703 13.5514513,3.06812887 13.2318521,3.17626225 C12.4433634,3.47741515 11.701206,3.90726588 10.8895517,4.12691016 C9.45855704,4.36233288 8.41114593,5.60329132 8.41941154,7.05349863 C8.40739974,7.29716654 8.39624594,7.52882259 8.38423413,7.77249045 C11.3289952,7.83031517 13.8211191,5.60969223 14.1018494,2.67777269 Z" id="Path_11-3" fill="#F4F4F4"></path>
                <path d="M25.3268734,7.76905853 C25.3037078,7.50222507 25.2805422,7.24740336 25.2453648,6.9805699 C25.2074154,5.57463935 24.1929235,4.38606092 22.810402,4.12776815 C21.9635703,3.89611207 21.2214129,3.45510753 20.386593,3.14194283 C20.0990359,3.03369386 19.8322984,2.8766699 19.5981044,2.67777269 C19.8703526,5.61799333 22.3750253,7.84395223 25.3268734,7.76905853 Z" id="Path_12-3" fill="#F4F4F4"></path>
                <path d="M21.7207604,7.06122051 C21.6049324,6.77122139 21.4770926,6.50438793 21.3612645,6.27273183 C20.322314,5.35872179 19.6884997,4.06980142 19.5989623,2.6889265 L19.5869505,2.6769147 C18.0692709,4.18429732 15.6195291,4.18429732 14.1018494,2.6769147 L14.0898376,2.6889265 C13.9883189,4.21488087 13.226359,5.62068445 12.0032169,6.53870734 C11.9283731,6.68530618 11.8624737,6.83630183 11.8058802,6.99086569 C14.7240369,9.22656773 18.7711707,9.25528576 21.7207604,7.06122051 Z" id="Path_9-3" fill="#F4F4F4"></path>
                <path d="M11.3674496,8.39538793 L10.9667704,10.3558847 C10.4909504,10.5424121 9.98210289,10.6299935 9.47130172,10.6132804 C9.05346277,10.5369197 8.25467829,10.3850563 8.27012206,9.99209889 C8.28299182,9.09207215 8.37479629,8.20577312 8.40053586,7.77506441 C9.63503507,7.74675312 10.8385767,7.38314001 11.8822409,6.72317423 L11.3674496,8.39538793 Z" id="Path-4-Copy_1_" fill="#676767"></path>
                <path d="M22.1943684,8.46917467 L22.6130653,10.517186 C23.1101673,10.7106998 23.6414837,10.8009069 24.1745989,10.7823035 C24.6113135,10.7025109 25.5473757,10.5515054 25.5353639,10.1405304 C25.5224941,9.19674638 25.3225835,8.26840611 25.2959859,7.81796371 C24.1033861,7.72701724 23.4890685,7.50908895 21.5560272,6.50095596 L22.1943684,8.46917467 Z" id="Path-4-Copy_1_2" fill="#676767"></path>
            </g>
            <g id="sleeves_thumbnails_2" transform="translate(3.428571, 102.000000)" fill-rule="nonzero">
                <path d="M8.37308033,7.76905853 C8.3543171,8.75227874 8.26514442,9.73289186 8.10624682,10.7033689 C7.70041967,12.7908476 7.08610208,14.831995 6.64767148,16.8963081 C6.20666698,18.9142899 4.17753131,20.6765921 3.77170417,22.694574 C3.64808824,23.1552385 3.42980771,23.5850787 3.13078902,23.9566706 C2.53019918,24.8146561 0.660648819,25.6151565 0,26.4379646 C0.0438820962,26.5047285 0.0944807727,26.5668269 0.151005445,26.6232895 C0.568844372,26.4379646 0.997837113,26.2517817 1.40366425,26.0896225 C1.28783621,26.9939392 1.15999637,27.9102677 1.05618013,28.8497618 C0.997837113,29.42976 1.47401906,29.7197591 1.99567423,29.6382504 C2.46670435,29.579683 2.89574436,29.3380399 3.18999002,28.9655898 C3.78417011,27.945964 4.19969838,26.8322785 4.41862523,25.6726416 C4.60395009,23.933505 6.1234424,22.216676 7.1787645,20.7907042 C8.37308033,19.1673956 9.54423051,17.8795594 9.90372639,16.3609252 C10.2280449,15.0387695 10.4948784,13.7011702 10.7737237,12.3712927 C10.7842121,10.3633298 11.2025014,8.37842553 12.0032169,6.53699138 C10.9552017,7.32368543 9.68343702,7.75532195 8.37308033,7.76905853 Z" id="Path_7-4" fill="#D6D4D4"></path>
                <path d="M30.6386615,26.2423439 C31.0447746,26.3933494 31.4623276,26.5440688 31.8913203,26.6945023 C31.36622,25.8025471 30.7772471,24.9497694 30.1290182,24.1428534 C29.873554,23.8507861 29.6766452,23.5123126 29.54902,23.1458743 C28.7836969,19.8289024 26.6730527,16.7109832 26.0312795,13.3699878 C25.6837954,11.526177 25.4976125,9.64718872 25.3242995,7.78021233 C23.8634052,7.77917292 22.4535258,7.24287544 21.3612645,6.27273183 C22.2622791,8.20432841 22.7254729,10.3111133 22.7177396,12.4425054 C22.7177396,12.407328 22.7297514,12.3841624 22.7297514,12.349843 C22.8896647,12.730922 23.0101253,13.1273781 23.0892473,13.533005 C23.9618113,16.757005 25.2865369,19.8411951 27.0239687,22.693716 C27.3078255,23.3918117 27.4307017,24.144905 27.3834646,24.8970227 C27.4502231,26.4286355 27.9621745,27.9075397 28.8566257,29.1526307 C29.2386662,29.5113182 29.7476863,29.7033197 30.2714437,29.6862977 C30.9784238,29.6742859 30.9784238,29.0857078 30.9209387,28.5957981 C30.847152,27.77299 30.731324,26.9733476 30.6386615,26.2423439 Z" id="Path_8-4" fill="#D6D4D4"></path>
                <path d="M14.1018494,2.67777269 C13.8469456,2.89881703 13.5514513,3.06812887 13.2318521,3.17626225 C12.4433634,3.47741515 11.701206,3.90726588 10.8895517,4.12691016 C9.45855704,4.36233288 8.41114593,5.60329132 8.41941154,7.05349863 C8.40739974,7.29716654 8.39624594,7.52882259 8.38423413,7.77249045 C11.3289952,7.83031517 13.8211191,5.60969223 14.1018494,2.67777269 Z" id="Path_11-4" fill="#F4F4F4"></path>
                <path d="M25.3268734,7.76905853 C25.3037078,7.50222507 25.2805422,7.24740336 25.2453648,6.9805699 C25.2074154,5.57463935 24.1929235,4.38606092 22.810402,4.12776815 C21.9635703,3.89611207 21.2214129,3.45510753 20.386593,3.14194283 C20.0990359,3.03369386 19.8322984,2.8766699 19.5981044,2.67777269 C19.8703526,5.61799333 22.3750253,7.84395223 25.3268734,7.76905853 Z" id="Path_12-4" fill="#F4F4F4"></path>
                <path d="M9.53307665,23.1458743 C9.14210102,25.6002957 9.21690568,28.1063974 9.75357896,30.5331293 L16.1781742,30.5331293 C16.2245054,30.0226279 16.2828485,29.5129846 16.3291797,29.0024832 C16.4218421,28.0629891 16.3523453,27.1149152 16.3523453,26.1848589 C16.4841804,26.137777 16.6200118,26.1027423 16.7581724,26.0801847 C16.897166,26.3375803 17.140834,26.5675204 17.1639996,26.8343539 C17.2798276,28.0750009 17.3261588,29.3044941 17.4419868,30.5451411 L23.8897477,30.5451411 C24.4342665,28.1196351 24.5128798,25.6127439 24.1214038,23.1578861 C19.7109374,26.1284033 13.9386453,26.1236505 9.53307665,23.1458743 Z" id="Path_3-4" fill="#F4F4F4"></path>
                <path d="M24.0982382,23.1458743 C23.8068179,21.624493 23.2366898,20.1700845 22.4165866,18.8559469 C21.036946,16.6526402 22.393421,14.5763153 22.7065858,12.4425054 C22.6893158,10.6044548 22.3519451,8.78346608 21.7096066,7.06122051 C18.7636141,9.25803124 14.7153162,9.2247134 11.8058802,6.97971189 C11.1470886,8.69845409 10.7984911,10.5204565 10.7762977,12.3609968 C10.7762977,12.348985 10.7883094,12.3258194 10.7883094,12.3146656 C11.0894623,13.0456692 11.1941366,13.764661 11.4378045,14.4716411 C12.0010919,16.1081627 11.8189052,17.9093338 10.9393149,19.3999097 C10.3156491,20.5091361 9.85011932,21.7001068 9.55624231,22.9382418 L9.5210649,23.1467323 C13.9232498,26.126959 19.6964041,26.1266192 24.0982382,23.1458743 Z" id="Path_15-4" fill="#F4F4F4"></path>
                <path d="M24.877289,26.3401542 C24.588403,23.9129527 23.8616517,21.5582783 22.7323253,19.3904719 C20.8296281,19.8578589 18.8871624,20.1451209 16.9306275,20.2484573 C14.907486,20.1996195 12.896883,19.9157222 10.9393149,19.4024837 C10.3571973,20.4883735 9.84368799,21.6096692 9.40180491,22.7597809 C8.93982516,24.0254987 8.69190662,25.3593295 8.66822732,26.7065141 C13.060255,29.6845816 20.4921252,29.3207958 24.877289,26.3401542 Z" id="Path_49-4" fill="#F4F4F4"></path>
                <path d="M19.5869505,2.66661887 C19.0858903,2.18713611 18.8409366,1.49903889 18.9263017,0.810796277 C17.7481912,-0.290961547 15.9101281,-0.265201389 14.7633562,0.869139293 C14.8266982,1.54099255 14.584035,2.20563738 14.1027073,2.67863067 C15.625873,4.17652904 18.0703609,4.17117503 19.5869505,2.66661887 Z" id="Path_4-4" fill="#F4F4F4"></path>
                <path d="M21.7207604,7.06122051 C21.6049324,6.77122139 21.4770926,6.50438793 21.3612645,6.27273183 C20.322314,5.35872179 19.6884997,4.06980142 19.5989623,2.6889265 L19.5869505,2.6769147 C18.0692709,4.18429732 15.6195291,4.18429732 14.1018494,2.6769147 L14.0898376,2.6889265 C13.9883189,4.21488087 13.226359,5.62068445 12.0032169,6.53870734 C11.9283731,6.68530618 11.8624737,6.83630183 11.8058802,6.99086569 C14.7240369,9.22656773 18.7711707,9.25528576 21.7207604,7.06122051 Z" id="Path_9-4" fill="#F4F4F4"></path>
                <path d="M11.8916788,6.69657665 C10.8707176,7.40424497 9.66073524,7.78894044 8.41855354,7.80080398 C8.23041459,9.97877643 7.85406978,12.1363718 7.29373457,14.2494229 C7.77812865,14.719946 8.40926444,15.0100747 9.0817763,15.0713729 C9.51893141,15.1032391 9.95197709,14.9686976 10.2941098,14.6947173 L10.7419782,12.3472691 C10.8876822,10.4230768 11.2739245,8.52472474 11.8916788,6.69657665 Z" id="Path-25_3_3" fill="#676767"></path>
                <path d="M21.5431574,6.50867785 C22.6499043,7.28265645 23.9481798,7.73737937 25.2959859,7.82311163 C25.6271683,10.1010631 25.4967546,10.6330141 26.2226103,14.2485649 C25.7382162,14.7190881 25.1070804,15.0092167 24.4345685,15.070515 C24.0373873,15.1148028 23.6398608,14.9902839 23.338921,14.7273208 L22.7743666,12.3472691 C22.5924713,10.3598058 22.1792739,8.4003575 21.5431574,6.50867785 Z" id="Path-25_3_4" fill="#676767"></path>
            </g>
            <g id="sleeves_thumbnails_3" transform="translate(3.428571, 139.000000)" fill-rule="nonzero">
                <path d="M9.53307665,23.1458743 C9.14210102,25.6002957 9.21690568,28.1063974 9.75357896,30.5331293 L16.1781742,30.5331293 C16.2245054,30.0226279 16.2828485,29.5129846 16.3291797,29.0024832 C16.4218421,28.0629891 16.3523453,27.1149152 16.3523453,26.1848589 C16.4841804,26.137777 16.6200118,26.1027423 16.7581724,26.0801847 C16.897166,26.3375803 17.140834,26.5675204 17.1639996,26.8343539 C17.2798276,28.0750009 17.3261588,29.3044941 17.4419868,30.5451411 L23.8897477,30.5451411 C24.4342665,28.1196351 24.5128798,25.6127439 24.1214038,23.1578861 C19.7109374,26.1284033 13.9386453,26.1236505 9.53307665,23.1458743 Z" id="Path_3-2" fill="#F4F4F4"></path>
                <path d="M24.0982382,23.1458743 C23.8068179,21.624493 23.2366898,20.1700845 22.4165866,18.8559469 C21.036946,16.6526402 22.393421,14.5763153 22.7065858,12.4425054 C22.6893158,10.6044548 22.3519451,8.78346608 21.7096066,7.06122051 C18.7636141,9.25803124 14.7153162,9.2247134 11.8058802,6.97971189 C11.1470886,8.69845409 10.7984911,10.5204565 10.7762977,12.3609968 C10.7762977,12.348985 10.7883094,12.3258194 10.7883094,12.3146656 C11.0894623,13.0456692 11.1941366,13.764661 11.4378045,14.4716411 C12.0010919,16.1081627 11.8189052,17.9093338 10.9393149,19.3999097 C10.3156491,20.5091361 9.85011932,21.7001068 9.55624231,22.9382418 L9.5210649,23.1467323 C13.9232498,26.126959 19.6964041,26.1266192 24.0982382,23.1458743 Z" id="Path_15-2" fill="#F4F4F4"></path>
                <path d="M24.877289,26.3401542 C24.588403,23.9129527 23.8616517,21.5582783 22.7323253,19.3904719 C20.8296281,19.8578589 18.8871624,20.1451209 16.9306275,20.2484573 C14.907486,20.1996195 12.896883,19.9157222 10.9393149,19.4024837 C10.3571973,20.4883735 9.84368799,21.6096692 9.40180491,22.7597809 C8.93982516,24.0254987 8.69190662,25.3593295 8.66822732,26.7065141 C13.060255,29.6845816 20.4921252,29.3207958 24.877289,26.3401542 Z" id="Path_49-2" fill="#F4F4F4"></path>
                <path d="M19.5869505,2.66661887 C19.0858903,2.18713611 18.8409366,1.49903889 18.9263017,0.810796277 C17.7481912,-0.290961547 15.9101281,-0.265201389 14.7633562,0.869139293 C14.8266982,1.54099255 14.584035,2.20563738 14.1027073,2.67863067 C15.625873,4.17652904 18.0703609,4.17117503 19.5869505,2.66661887 Z" id="Path_4-2" fill="#F4F4F4"></path>
                <path d="M8.37308033,7.76905853 C8.3543171,8.75227874 8.26514442,9.73289186 8.10624682,10.7033689 C7.70041967,12.7908476 7.08610208,14.831995 6.64767148,16.8963081 C6.20666698,18.9142899 4.17753131,20.6765921 3.77170417,22.694574 C3.64808824,23.1552385 3.42980771,23.5850787 3.13078902,23.9566706 C2.53019918,24.8146561 0.660648819,25.6151565 0,26.4379646 C0.0438820962,26.5047285 0.0944807727,26.5668269 0.151005445,26.6232895 C0.568844372,26.4379646 0.997837113,26.2517817 1.40366425,26.0896225 C1.28783621,26.9939392 1.15999637,27.9102677 1.05618013,28.8497618 C0.997837113,29.42976 1.47401906,29.7197591 1.99567423,29.6382504 C2.46670435,29.579683 2.89574436,29.3380399 3.18999002,28.9655898 C3.78417011,27.945964 4.19969838,26.8322785 4.41862523,25.6726416 C4.60395009,23.933505 6.1234424,22.216676 7.1787645,20.7907042 C8.37308033,19.1673956 9.54423051,17.8795594 9.90372639,16.3609252 C10.2280449,15.0387695 10.4948784,13.7011702 10.7737237,12.3712927 C10.7842121,10.3633298 11.2025014,8.37842553 12.0032169,6.53699138 C10.9552017,7.32368543 9.68343702,7.75532195 8.37308033,7.76905853 Z" id="Path_7-2" fill="#D6D4D4"></path>
                <path d="M30.6386615,26.2423439 C31.0447746,26.3933494 31.4623276,26.5440688 31.8913203,26.6945023 C31.36622,25.8025471 30.7772471,24.9497694 30.1290182,24.1428534 C29.873554,23.8507861 29.6766452,23.5123126 29.54902,23.1458743 C28.7836969,19.8289024 26.6730527,16.7109832 26.0312795,13.3699878 C25.6837954,11.526177 25.4976125,9.64718872 25.3242995,7.78021233 C23.8634052,7.77917292 22.4535258,7.24287544 21.3612645,6.27273183 C22.2622791,8.20432841 22.7254729,10.3111133 22.7177396,12.4425054 C22.7177396,12.407328 22.7297514,12.3841624 22.7297514,12.349843 C22.8896647,12.730922 23.0101253,13.1273781 23.0892473,13.533005 C23.9618113,16.757005 25.2865369,19.8411951 27.0239687,22.693716 C27.3078255,23.3918117 27.4307017,24.144905 27.3834646,24.8970227 C27.4502231,26.4286355 27.9621745,27.9075397 28.8566257,29.1526307 C29.2386662,29.5113182 29.7476863,29.7033197 30.2714437,29.6862977 C30.9784238,29.6742859 30.9784238,29.0857078 30.9209387,28.5957981 C30.847152,27.77299 30.731324,26.9733476 30.6386615,26.2423439 Z" id="Path_8-2" fill="#D6D4D4"></path>
                <path d="M14.1018494,2.67777269 C13.8469456,2.89881703 13.5514513,3.06812887 13.2318521,3.17626225 C12.4433634,3.47741515 11.701206,3.90726588 10.8895517,4.12691016 C9.45855704,4.36233288 8.41114593,5.60329132 8.41941154,7.05349863 C8.40739974,7.29716654 8.39624594,7.52882259 8.38423413,7.77249045 C11.3289952,7.83031517 13.8211191,5.60969223 14.1018494,2.67777269 Z" id="Path_11-2" fill="#F4F4F4"></path>
                <path d="M25.3268734,7.76905853 C25.3037078,7.50222507 25.2805422,7.24740336 25.2453648,6.9805699 C25.2074154,5.57463935 24.1929235,4.38606092 22.810402,4.12776815 C21.9635703,3.89611207 21.2214129,3.45510753 20.386593,3.14194283 C20.0990359,3.03369386 19.8322984,2.8766699 19.5981044,2.67777269 C19.8703526,5.61799333 22.3750253,7.84395223 25.3268734,7.76905853 Z" id="Path_12-2" fill="#F4F4F4"></path>
                <path d="M21.7207604,7.06122051 C21.6049324,6.77122139 21.4770926,6.50438793 21.3612645,6.27273183 C20.322314,5.35872179 19.6884997,4.06980142 19.5989623,2.6889265 L19.5869505,2.6769147 C18.0692709,4.18429732 15.6195291,4.18429732 14.1018494,2.6769147 L14.0898376,2.6889265 C13.9883189,4.21488087 13.226359,5.62068445 12.0032169,6.53870734 C11.9283731,6.68530618 11.8624737,6.83630183 11.8058802,6.99086569 C14.7240369,9.22656773 18.7711707,9.25528576 21.7207604,7.06122051 Z" id="Path_9-2" fill="#F4F4F4"></path>
                <path d="M21.5431574,6.50867785 C22.6499043,7.28265645 23.9481798,7.73737937 25.2959859,7.82311163 C25.5465145,10.1496557 25.9283552,12.4601782 26.4396806,14.7436225 C26.7751529,16.0529084 27.5276062,17.0335858 27.7798539,18.2879605 C27.4238327,18.6802563 26.9560866,18.9539566 26.4396806,19.0721592 C25.9887193,19.1823279 25.5178651,19.1823279 25.0669038,19.0721592 L23.7258725,15.7955127 L22.7743666,12.3472691 C22.5924713,10.3598058 22.1792739,8.4003575 21.5431574,6.50867785 Z" id="Path-25_3_" fill="#676767"></path>
                <path d="M11.9500218,6.63136976 C10.9058667,7.36647404 9.66991135,7.78094399 8.39367197,7.82396958 C8.11526055,10.1035498 7.71284078,12.3662657 7.18820234,14.6020549 C6.85273001,15.9113408 6.31820508,17.1313961 6.06595734,18.3857709 C6.36914316,18.7448876 6.78767657,18.9875157 7.24997732,19.0721592 C7.7009386,19.1823279 8.17179279,19.1823279 8.62275406,19.0721592 L9.84795734,16.7555985 L10.7642859,12.3584229 C10.9265024,10.4084825 11.3246558,8.48541915 11.9500218,6.63136976 Z" id="Path-25_3_2" fill="#676767"></path>
            </g>
            <g id="sleeves_thumbnails_4" transform="translate(3.428571, 175.000000)" fill-rule="nonzero">
                <path d="M8.37308033,7.76905853 C8.3543171,8.75227874 8.26514442,9.73289186 8.10624682,10.7033689 C7.70041967,12.7908476 7.08610208,14.831995 6.64767148,16.8963081 C6.20666698,18.9142899 4.17753131,20.6765921 3.77170417,22.694574 C3.64808824,23.1552385 3.42980771,23.5850787 3.13078902,23.9566706 C2.53019918,24.8146561 0.660648819,25.6151565 0,26.4379646 C0.0438820962,26.5047285 0.0944807727,26.5668269 0.151005445,26.6232895 C0.568844372,26.4379646 0.997837113,26.2517817 1.40366425,26.0896225 C1.28783621,26.9939392 1.15999637,27.9102677 1.05618013,28.8497618 C0.997837113,29.42976 1.47401906,29.7197591 1.99567423,29.6382504 C2.46670435,29.579683 2.89574436,29.3380399 3.18999002,28.9655898 C3.78417011,27.945964 4.19969838,26.8322785 4.41862523,25.6726416 C4.60395009,23.933505 6.1234424,22.216676 7.1787645,20.7907042 C8.37308033,19.1673956 9.54423051,17.8795594 9.90372639,16.3609252 C10.2280449,15.0387695 10.4948784,13.7011702 10.7737237,12.3712927 C10.7842121,10.3633298 11.2025014,8.37842553 12.0032169,6.53699138 C10.9552017,7.32368543 9.68343702,7.75532195 8.37308033,7.76905853 Z" id="Path_7-5" fill="#D6D4D4"></path>
                <path d="M30.6386615,26.2423439 C31.0447746,26.3933494 31.4623276,26.5440688 31.8913203,26.6945023 C31.36622,25.8025471 30.7772471,24.9497694 30.1290182,24.1428534 C29.873554,23.8507861 29.6766452,23.5123126 29.54902,23.1458743 C28.7836969,19.8289024 26.6730527,16.7109832 26.0312795,13.3699878 C25.6837954,11.526177 25.4976125,9.64718872 25.3242995,7.78021233 C23.8634052,7.77917292 22.4535258,7.24287544 21.3612645,6.27273183 C22.2622791,8.20432841 22.7254729,10.3111133 22.7177396,12.4425054 C22.7177396,12.407328 22.7297514,12.3841624 22.7297514,12.349843 C22.8896647,12.730922 23.0101253,13.1273781 23.0892473,13.533005 C23.9618113,16.757005 25.2865369,19.8411951 27.0239687,22.693716 C27.3078255,23.3918117 27.4307017,24.144905 27.3834646,24.8970227 C27.4502231,26.4286355 27.9621745,27.9075397 28.8566257,29.1526307 C29.2386662,29.5113182 29.7476863,29.7033197 30.2714437,29.6862977 C30.9784238,29.6742859 30.9784238,29.0857078 30.9209387,28.5957981 C30.847152,27.77299 30.731324,26.9733476 30.6386615,26.2423439 Z" id="Path_8-5" fill="#D6D4D4"></path>
                <path d="M14.1018494,2.67777269 C13.8469456,2.89881703 13.5514513,3.06812887 13.2318521,3.17626225 C12.4433634,3.47741515 11.701206,3.90726588 10.8895517,4.12691016 C9.45855704,4.36233288 8.41114593,5.60329132 8.41941154,7.05349863 C8.40739974,7.29716654 8.39624594,7.52882259 8.38423413,7.77249045 C11.3289952,7.83031517 13.8211191,5.60969223 14.1018494,2.67777269 Z" id="Path_11-5" fill="#F4F4F4"></path>
                <path d="M25.3268734,7.76905853 C25.3037078,7.50222507 25.2805422,7.24740336 25.2453648,6.9805699 C25.2074154,5.57463935 24.1929235,4.38606092 22.810402,4.12776815 C21.9635703,3.89611207 21.2214129,3.45510753 20.386593,3.14194283 C20.0990359,3.03369386 19.8322984,2.8766699 19.5981044,2.67777269 C19.8703526,5.61799333 22.3750253,7.84395223 25.3268734,7.76905853 Z" id="Path_12-5" fill="#F4F4F4"></path>
                <path d="M9.53307665,23.1458743 C9.14210102,25.6002957 9.21690568,28.1063974 9.75357896,30.5331293 L16.1781742,30.5331293 C16.2245054,30.0226279 16.2828485,29.5129846 16.3291797,29.0024832 C16.4218421,28.0629891 16.3523453,27.1149152 16.3523453,26.1848589 C16.4841804,26.137777 16.6200118,26.1027423 16.7581724,26.0801847 C16.897166,26.3375803 17.140834,26.5675204 17.1639996,26.8343539 C17.2798276,28.0750009 17.3261588,29.3044941 17.4419868,30.5451411 L23.8897477,30.5451411 C24.4342665,28.1196351 24.5128798,25.6127439 24.1214038,23.1578861 C19.7109374,26.1284033 13.9386453,26.1236505 9.53307665,23.1458743 Z" id="Path_3-5" fill="#F4F4F4"></path>
                <path d="M24.0982382,23.1458743 C23.8068179,21.624493 23.2366898,20.1700845 22.4165866,18.8559469 C21.036946,16.6526402 22.393421,14.5763153 22.7065858,12.4425054 C22.6893158,10.6044548 22.3519451,8.78346608 21.7096066,7.06122051 C18.7636141,9.25803124 14.7153162,9.2247134 11.8058802,6.97971189 C11.1470886,8.69845409 10.7984911,10.5204565 10.7762977,12.3609968 C10.7762977,12.348985 10.7883094,12.3258194 10.7883094,12.3146656 C11.0894623,13.0456692 11.1941366,13.764661 11.4378045,14.4716411 C12.0010919,16.1081627 11.8189052,17.9093338 10.9393149,19.3999097 C10.3156491,20.5091361 9.85011932,21.7001068 9.55624231,22.9382418 L9.5210649,23.1467323 C13.9232498,26.126959 19.6964041,26.1266192 24.0982382,23.1458743 Z" id="Path_15-5" fill="#F4F4F4"></path>
                <path d="M24.877289,26.3401542 C24.588403,23.9129527 23.8616517,21.5582783 22.7323253,19.3904719 C20.8296281,19.8578589 18.8871624,20.1451209 16.9306275,20.2484573 C14.907486,20.1996195 12.896883,19.9157222 10.9393149,19.4024837 C10.3571973,20.4883735 9.84368799,21.6096692 9.40180491,22.7597809 C8.93982516,24.0254987 8.69190662,25.3593295 8.66822732,26.7065141 C13.060255,29.6845816 20.4921252,29.3207958 24.877289,26.3401542 Z" id="Path_49-5" fill="#F4F4F4"></path>
                <path d="M19.5869505,2.66661887 C19.0858903,2.18713611 18.8409366,1.49903889 18.9263017,0.810796277 C17.7481912,-0.290961547 15.9101281,-0.265201389 14.7633562,0.869139293 C14.8266982,1.54099255 14.584035,2.20563738 14.1027073,2.67863067 C15.625873,4.17652904 18.0703609,4.17117503 19.5869505,2.66661887 Z" id="Path_4-5" fill="#F4F4F4"></path>
                <path d="M21.7207604,7.06122051 C21.6049324,6.77122139 21.4770926,6.50438793 21.3612645,6.27273183 C20.322314,5.35872179 19.6884997,4.06980142 19.5989623,2.6889265 L19.5869505,2.6769147 C18.0692709,4.18429732 15.6195291,4.18429732 14.1018494,2.6769147 L14.0898376,2.6889265 C13.9883189,4.21488087 13.226359,5.62068445 12.0032169,6.53870734 C11.9283731,6.68530618 11.8624737,6.83630183 11.8058802,6.99086569 C14.7240369,9.22656773 18.7711707,9.25528576 21.7207604,7.06122051 Z" id="Path_9-5" fill="#F4F4F4"></path>
                <path d="M21.5431574,6.50867785 C22.6499043,7.28265645 23.9481798,7.73737937 25.2959859,7.82311163 C25.5465145,10.1496557 25.9283552,12.4601782 26.4396806,14.7436225 C26.7751529,16.0529084 29.2770385,21.6933049 29.5284283,22.9511116 C29.1406189,23.338921 29.1045835,23.4770567 28.5786384,23.578299 C28.1106161,23.6006701 27.644253,23.5078689 27.2204473,23.3080335 L24.0167296,16.6088829 L22.7743666,12.3472691 C22.5924713,10.3598058 22.1792739,8.4003575 21.5431574,6.50867785 Z" id="Path-25_3_5" fill="#676767"></path>
                <path d="M11.9491638,6.63136976 C10.9050087,7.36647404 9.66905334,7.78094399 8.39281397,7.82396958 C8.11440425,10.10355 7.71198449,12.3662661 7.18734439,14.6020549 C6.85187206,15.9113408 3.67904174,22.2698711 3.42679401,23.5251039 C3.81460345,23.9129134 3.61126089,23.7927954 3.95617105,23.9841261 C4.23756778,24.1678253 4.59293237,24.1962545 4.89995508,24.0596289 L9.6094374,17.4711584 L10.7608539,12.3575649 C10.9239728,10.4078072 11.3229901,8.48503352 11.9491638,6.63136976 Z" id="Path-25_3_6" fill="#676767"></path>
            </g>
            <g id="sleeves_thumbnails_5" transform="translate(3.428571, 210.000000)" fill-rule="nonzero">
                <path d="M14.1018494,2.67777269 C13.8469456,2.89881703 13.5514513,3.06812887 13.2318521,3.17626225 C12.4433634,3.47741515 11.701206,3.90726588 10.8895517,4.12691016 C9.45855704,4.36233288 8.41114593,5.60329132 8.41941154,7.05349863 C8.40739974,7.29716654 8.39624594,7.52882259 8.38423413,7.77249045 C11.3289952,7.83031517 13.8211191,5.60969223 14.1018494,2.67777269 Z" id="Path_11-6" fill="#F4F4F4"></path>
                <path d="M25.3268734,7.76905853 C25.3037078,7.50222507 25.2805422,7.24740336 25.2453648,6.9805699 C25.2074154,5.57463935 24.1929235,4.38606092 22.810402,4.12776815 C21.9635703,3.89611207 21.2214129,3.45510753 20.386593,3.14194283 C20.0990359,3.03369386 19.8322984,2.8766699 19.5981044,2.67777269 C19.8703526,5.61799333 22.3750253,7.84395223 25.3268734,7.76905853 Z" id="Path_12-6" fill="#F4F4F4"></path>
                <path d="M9.53307665,23.1458743 C9.14210102,25.6002957 9.21690568,28.1063974 9.75357896,30.5331293 L16.1781742,30.5331293 C16.2245054,30.0226279 16.2828485,29.5129846 16.3291797,29.0024832 C16.4218421,28.0629891 16.3523453,27.1149152 16.3523453,26.1848589 C16.4841804,26.137777 16.6200118,26.1027423 16.7581724,26.0801847 C16.897166,26.3375803 17.140834,26.5675204 17.1639996,26.8343539 C17.2798276,28.0750009 17.3261588,29.3044941 17.4419868,30.5451411 L23.8897477,30.5451411 C24.4342665,28.1196351 24.5128798,25.6127439 24.1214038,23.1578861 C19.7109374,26.1284033 13.9386453,26.1236505 9.53307665,23.1458743 Z" id="Path_3-6" fill="#F4F4F4"></path>
                <path d="M24.0982382,23.1458743 C23.8068179,21.624493 23.2366898,20.1700845 22.4165866,18.8559469 C21.036946,16.6526402 22.393421,14.5763153 22.7065858,12.4425054 C22.6893158,10.6044548 22.3519451,8.78346608 21.7096066,7.06122051 C18.7636141,9.25803124 14.7153162,9.2247134 11.8058802,6.97971189 C11.1470886,8.69845409 10.7984911,10.5204565 10.7762977,12.3609968 C10.7762977,12.348985 10.7883094,12.3258194 10.7883094,12.3146656 C11.0894623,13.0456692 11.1941366,13.764661 11.4378045,14.4716411 C12.0010919,16.1081627 11.8189052,17.9093338 10.9393149,19.3999097 C10.3156491,20.5091361 9.85011932,21.7001068 9.55624231,22.9382418 L9.5210649,23.1467323 C13.9232498,26.126959 19.6964041,26.1266192 24.0982382,23.1458743 Z" id="Path_15-6" fill="#F4F4F4"></path>
                <path d="M24.877289,26.3401542 C24.588403,23.9129527 23.8616517,21.5582783 22.7323253,19.3904719 C20.8296281,19.8578589 18.8871624,20.1451209 16.9306275,20.2484573 C14.907486,20.1996195 12.896883,19.9157222 10.9393149,19.4024837 C10.3571973,20.4883735 9.84368799,21.6096692 9.40180491,22.7597809 C8.93982516,24.0254987 8.69190662,25.3593295 8.66822732,26.7065141 C13.060255,29.6845816 20.4921252,29.3207958 24.877289,26.3401542 Z" id="Path_49-6" fill="#F4F4F4"></path>
                <path d="M19.5869505,2.66661887 C19.0858903,2.18713611 18.8409366,1.49903889 18.9263017,0.810796277 C17.7481912,-0.290961547 15.9101281,-0.265201389 14.7633562,0.869139293 C14.8266982,1.54099255 14.584035,2.20563738 14.1027073,2.67863067 C15.625873,4.17652904 18.0703609,4.17117503 19.5869505,2.66661887 Z" id="Path_4-6" fill="#F4F4F4"></path>
                <path d="M8.37308033,7.76905853 C8.3543171,8.75227874 8.26514442,9.73289186 8.10624682,10.7033689 C7.70041967,12.7908476 7.08610208,14.831995 6.64767148,16.8963081 C6.20666698,18.9142899 4.17753131,20.6765921 3.77170417,22.694574 C3.64808824,23.1552385 3.42980771,23.5850787 3.13078902,23.9566706 C2.53019918,24.8146561 0.660648819,25.6151565 -5.10702591e-15,26.4379646 C0.0438820962,26.5047285 0.0944807727,26.5668269 0.151005445,26.6232895 C0.568844372,26.4379646 0.997837113,26.2517817 1.40366425,26.0896225 C1.28783621,26.9939392 1.15999637,27.9102677 1.05618013,28.8497618 C0.997837113,29.42976 1.47401906,29.7197591 1.99567423,29.6382504 C2.46670435,29.579683 2.89574436,29.3380399 3.18999002,28.9655898 C3.78417011,27.945964 4.19969838,26.8322785 4.41862523,25.6726416 C4.60395009,23.933505 6.1234424,22.216676 7.1787645,20.7907042 C8.37308033,19.1673956 9.54423051,17.8795594 9.90372639,16.3609252 C10.2280449,15.0387695 10.4948784,13.7011702 10.7737237,12.3712927 C10.7842121,10.3633298 11.2025014,8.37842553 12.0032169,6.53699138 C10.9552017,7.32368543 9.68343702,7.75532195 8.37308033,7.76905853 Z" id="Path_7-6" fill="#D6D4D4"></path>
                <path d="M30.6386615,26.2423439 C31.0447746,26.3933494 31.4623276,26.5440688 31.8913203,26.6945023 C31.36622,25.8025471 30.7772471,24.9497694 30.1290182,24.1428534 C29.873554,23.8507861 29.6766452,23.5123126 29.54902,23.1458743 C28.7836969,19.8289024 26.6730527,16.7109832 26.0312795,13.3699878 C25.6837954,11.526177 25.4976125,9.64718872 25.3242995,7.78021233 C23.8634052,7.77917292 22.4535258,7.24287544 21.3612645,6.27273183 C22.2622791,8.20432841 22.7254729,10.3111133 22.7177396,12.4425054 C22.7177396,12.407328 22.7297514,12.3841624 22.7297514,12.349843 C22.8896647,12.730922 23.0101253,13.1273781 23.0892473,13.533005 C23.9618113,16.757005 25.2865369,19.8411951 27.0239687,22.693716 C27.3078255,23.3918117 27.4307017,24.144905 27.3834646,24.8970227 C27.4502231,26.4286355 27.9621745,27.9075397 28.8566257,29.1526307 C29.2386662,29.5113182 29.7476863,29.7033197 30.2714437,29.6862977 C30.9784238,29.6742859 30.9784238,29.0857078 30.9209387,28.5957981 C30.847152,27.77299 30.731324,26.9733476 30.6386615,26.2423439 Z" id="Path_8-6" fill="#D6D4D4"></path>
                <path d="M21.7207604,7.06122051 C21.6049324,6.77122139 21.4770926,6.50438793 21.3612645,6.27273183 C20.322314,5.35872179 19.6884997,4.06980142 19.5989623,2.6889265 L19.5869505,2.6769147 C18.0692709,4.18429732 15.6195291,4.18429732 14.1018494,2.6769147 L14.0898376,2.6889265 C13.9883189,4.21488087 13.226359,5.62068445 12.0032169,6.53870734 C11.9283731,6.68530618 11.8624737,6.83630183 11.8058802,6.99086569 C14.7240369,9.22656773 18.7711707,9.25528576 21.7207604,7.06122051 Z" id="Path_9-6" fill="#F4F4F4"></path>
                <path d="M21.5431574,6.50867785 C22.6499043,7.28265645 23.9481798,7.73737937 25.2959859,7.82311163 C25.5465145,10.1496557 25.9283552,12.4601782 26.4396806,14.7436225 C26.7751529,16.0529084 31.6922677,22.4612019 31.9436574,23.7155767 C31.0544656,24.3811294 30.0743853,24.9156661 29.0333707,25.3028498 C28.5074256,25.4049501 26.5537927,26.0827586 26.0793267,25.9643566 L24.0201615,16.6123149 L22.7743666,12.3472691 C22.5924713,10.3598058 22.1792739,8.4003575 21.5431574,6.50867785 Z" id="Path-25_3_7" fill="#676767"></path>
                <path d="M11.9491638,6.63136976 C10.9050087,7.36647404 9.66905334,7.78094399 8.39281397,7.82396958 C8.11440254,10.1035498 7.71198283,12.3662657 7.18734439,14.6020549 C6.85187206,15.9113408 1.08620962,22.9468217 0.838251817,24.2011965 C1.54833617,24.7381565 2.30034009,25.2173044 3.08703176,25.6340322 C4.03743332,26.0580249 5.04997955,26.3260092 6.08569103,26.4276688 L9.61544328,17.4711584 L10.7668598,12.3575649 C10.9280333,10.4080572 11.3250327,8.48528932 11.9491638,6.63136976 Z" id="Path-25_3_8" fill="#676767"></path>
            </g>
            <text id="ALL" fill-opacity="0.775334013" fill="#686868" font-family="Muli-Bold, Muli" font-size="14" font-weight="bold">
                <tspan x="6.42857143" y="14">ALL</tspan>
            </text>
        </g>
    </g>
</svg>
