<?xml version="1.0" encoding="UTF-8"?>
<svg width="453px" height="61px" viewBox="0 0 453 61" version="1.1" xmlns="http://www.w3.org/2000/svg" xmlns:xlink="http://www.w3.org/1999/xlink">
    <!-- Generator: Sketch 51.1 (57501) - http://www.bohemiancoding.com/sketch -->
    <title>horizontal thumbnails-10.1</title>
    <desc>Created with Sketch.</desc>
    <defs></defs>
    <g id="BodyParts-Thumbnail-Horizontal" stroke="none" stroke-width="1" fill="none" fill-rule="evenodd">
        <g id="neckline_thumbnails" transform="translate(0.000000, 4.000000)" fill-rule="nonzero">
            <text id="ALL" fill-opacity="0.775334013" fill="#686868" font-family="Muli-Bold, Muli" font-size="20" font-weight="bold">
                <tspan x="217" y="36">ALL</tspan>
            </text>
            <g id="neckline_thumbnails_4" transform="translate(269.000000, 0.000000)">
                <path d="M21.0932296,15.5075736 C21.3991027,14.3298704 21.8065742,13.1820959 22.310874,12.0776875 C21.9034803,12.3824432 21.4803523,12.6646867 21.0433139,12.9232014 C21.0191122,12.947888 20.9949106,12.947888 20.9707089,12.9725745 L20.6787768,13.1268654 L20.5275167,13.200925 C20.4592542,13.2440628 20.3854367,13.2772972 20.3081894,13.2996712 C20.2386669,13.3224342 20.1728912,13.355721 20.1130639,13.3984173 C20.0336173,13.4356087 19.9523316,13.4685684 19.869535,13.4971636 C19.79693,13.52185 19.7470142,13.5465366 19.6744093,13.5712231 C19.5231492,13.6205962 19.4066789,13.6699693 19.2599565,13.725514 L19.2357548,13.725514 C18.1293619,14.1105465 16.9696032,14.3121403 15.8006366,14.3226197 C15.7614912,16.1131075 15.5987358,17.8985581 15.3135789,19.6657128 C14.5829922,23.4689829 13.4863561,27.1966504 12.7058537,30.975234 C11.9268639,34.6535284 8.29510732,37.8843795 7.56300813,41.5626739 C7.34131391,42.4061992 6.95152194,43.1940499 6.4179687,43.877037 C5.36217276,45.4322891 2.01781057,46.8995953 0.824367887,48.3900452 C0.905950374,48.5121914 0.995390424,48.6286798 1.09209837,48.7387426 C1.84839919,48.3900452 2.6047,48.0675772 3.33377398,47.7697958 C3.11444674,49.4099079 2.89511952,51.1009358 2.69999391,52.8151075 C2.64995575,53.2629063 2.8233116,53.7064747 3.16164665,53.9963456 C3.49998171,54.2862167 3.95824084,54.383789 4.38200691,54.2561843 C5.22252854,54.1428089 5.98931851,53.7076049 6.52687602,53.0388293 C7.59382934,51.1776236 8.335937,49.1416168 8.72014837,47.0214851 C9.06199634,43.8400072 11.766528,40.7079025 13.6663557,38.0988437 C15.8112248,35.1410876 17.9016402,32.7804372 18.5399581,30.0217164 C19.125335,27.61015 19.5881911,25.17544 20.0994504,22.739187 L20.0994504,22.7145005 C20.1306381,20.2789937 20.4645628,17.8573581 21.0932296,15.5075736 Z" id="Path_704" fill="#F4F4F4"></path>
                <path d="M17.4902126,49.5842565 C17.6144122,51.6884512 17.8833081,53.7811532 18.2949167,55.8469232 L29.7906891,55.8469232 C29.8632939,54.9211779 29.9858146,53.9830895 30.0584195,53.0696875 C30.0779343,52.9296936 30.0860292,52.7882897 30.0826211,52.6469304 C25.6957204,52.7579618 21.3560151,51.7024764 17.4902126,49.5842565 Z" id="Path_703" fill="#F4F4F4"></path>
                <path d="M19.6592833,13.5434508 C19.7318882,13.5187642 19.7818041,13.4940776 19.8544089,13.4693912 C19.9338577,13.4322049 20.0151431,13.3992453 20.0979378,13.370645 C20.1674603,13.347882 20.2332361,13.3145952 20.2930634,13.2718988 C20.3656683,13.2472123 20.4443235,13.1978392 20.5123907,13.1731526 L20.6636508,13.0990931 L20.9555829,12.9448022 C20.9797846,12.9201156 21.0039861,12.9201156 21.0281878,12.895429 C21.692591,12.5200034 22.3136149,12.069745 22.8796122,11.5530985 C22.9805991,11.4748902 23.0706707,11.3830139 23.1473426,11.2800036 L23.3424683,11.0809684 L23.4392748,10.9822222 C24.9751066,9.37515673 25.8922293,7.25768749 26.0227984,5.01733695 L26.0439748,4.99419332 C25.5868889,5.40155412 25.0575134,5.71580185 24.4844826,5.91993858 C23.1172479,6.57235568 21.7182923,7.1532434 20.2930634,7.66033966 C17.742456,8.10642736 15.8790211,10.3637565 15.8823171,13.0034327 C15.8581154,13.4508762 15.8339139,13.8736332 15.8097122,14.3210768 C16.9700636,14.3025991 18.1206338,14.1011834 19.2206289,13.7239711 L19.2448305,13.7239711 C19.3889109,13.6790839 19.5278563,13.6185644 19.6592833,13.5434508 Z" id="Path_709" fill="#F4F4F4"></path>
                <path d="M43.8790606,49.5842565 C43.754866,51.6884516 43.48597,53.781154 43.0743565,55.8469232 L31.5785841,55.8469232 C31.5059793,54.9211779 31.3834585,53.9830895 31.3108537,53.0696875 C31.291332,52.9296943 31.2832369,52.7882898 31.286652,52.6469304 C35.672939,52.7520196 40.0111772,51.6968911 43.8790606,49.5842565 Z" id="Path_728" fill="#F4F4F4"></path>
                <path d="M43.7081366,41.6552484 C42.9207026,39.5506531 42.001153,37.4999943 40.9552016,35.5160145 C37.5903329,36.4027092 34.1421785,36.9199508 30.6695106,37.0589232 C27.1966739,36.9218054 23.7483263,36.4045348 20.3838195,35.5160145 C19.3432491,37.5027173 18.4238569,39.5530248 17.6308846,41.6552484 C16.8057609,43.967673 16.361111,46.4033376 16.3149211,48.8637182 C16.6809707,49.1121265 17.071222,49.3605347 17.4599606,49.5842565 C21.3318285,51.6874864 25.671711,52.7320033 30.0569069,52.6160722 L31.2745513,52.6160722 C35.6597471,52.7320033 39.9996296,51.6874864 43.8714976,49.5842565 C44.2617487,49.3605347 44.6504874,49.1121265 45.016537,48.8637182 C44.9710093,46.4039527 44.5289702,43.9685933 43.7081366,41.6552484 Z" id="Path_729" fill="#F4F4F4"></path>
                <path d="M34.1091667,1.71396929 C33.2342975,0.717313727 31.9848095,0.147739667 30.6732921,0.147739667 C29.3617746,0.147739667 28.1122867,0.717313727 27.2374174,1.71396929 C27.351207,2.94317073 26.9122735,4.15867617 26.0439748,5.01887986 L26.0681765,5.04356639 C27.3105326,6.26544081 28.949628,6.97923985 30.6740484,7.04934779 C32.3974015,6.97442525 34.0348933,6.26132455 35.2799203,5.04356639 L35.304122,5.01887986 C34.4316491,4.16136802 33.9914797,2.94398315 34.1091667,1.71396929 Z" id="Path_730" fill="#F4F4F4"></path>
                <path d="M40.2730183,15.5075736 C39.9671453,14.3298704 39.5596737,13.1820959 39.055374,12.0776875 C39.4627693,12.3824407 39.8858972,12.6646843 40.3229341,12.9232014 C40.3471358,12.947888 40.3713374,12.947888 40.3955391,12.9725745 L40.6874711,13.1268654 L40.8387313,13.200925 C40.9070029,13.2440451 40.980818,13.2772784 41.0580585,13.2996712 C41.127581,13.3224342 41.1933568,13.355721 41.2531841,13.3984173 C41.3326308,13.4356087 41.4139164,13.4685684 41.496713,13.4971636 C41.5693179,13.52185 41.6192337,13.5465366 41.6918387,13.5712231 C41.8430987,13.6205962 41.9595691,13.6699693 42.1062915,13.725514 L42.1304931,13.725514 C43.2368861,14.1105465 44.3966447,14.3121403 45.5656113,14.3226197 C45.5926376,16.1137978 45.755476,17.9001589 46.0526691,19.6657128 C46.7832557,23.4689829 47.8798919,27.1966504 48.6603943,30.975234 C49.4393841,34.6535284 53.0711407,37.8843795 53.8032398,41.5626739 C54.0249341,42.4061992 54.414726,43.1940499 54.9482793,43.877037 C56.0207139,45.4430895 59.3590256,46.9088528 60.5524683,48.4008455 C60.4708894,48.5229944 60.3814491,48.6394831 60.2847378,48.7495429 C59.528437,48.4008455 58.7721361,48.0783776 58.0430622,47.7805962 C58.2623894,49.4207082 58.4817167,51.1117363 58.6768422,52.8259079 C58.7268804,53.2737067 58.5535245,53.717275 58.2151896,54.007146 C57.8768545,54.297017 57.4185953,54.3945894 56.9948293,54.2669846 C56.1543076,54.1536093 55.3875177,53.7184053 54.8499602,53.0496296 C53.7830068,51.1884239 53.0408991,49.1524172 52.6566878,47.0322855 C52.3148398,43.8508076 49.6103081,40.7187028 47.7104805,38.1096441 C45.5656113,35.151888 43.4751959,32.7912376 42.836878,30.0325167 C42.2515013,27.6209503 41.7886452,25.1862403 41.2773858,22.7499873 L41.2773858,22.7253008 C41.2194549,20.2876913 40.8823783,17.8653445 40.2730183,15.5075736 Z" id="Path_731" fill="#F4F4F4"></path>
                <path d="M41.6857882,13.5434508 C41.6131833,13.5187642 41.5632674,13.4940776 41.4906626,13.4693912 C41.4112139,13.4322049 41.3299285,13.3992453 41.2471337,13.370645 C41.1776113,13.347882 41.1118355,13.3145952 41.0520081,13.2718988 C40.9794033,13.2472123 40.900748,13.1978392 40.8326809,13.1731526 L40.6814207,13.0990931 L40.3894887,12.9448022 C40.365287,12.9201156 40.3410854,12.9201156 40.3168837,12.895429 C39.6524873,12.5199924 39.0314647,12.0697349 38.4654593,11.5530985 C38.3644724,11.4748902 38.2744008,11.3830139 38.1977289,11.2800036 L38.0026033,11.0809684 L37.9057967,10.9822222 C36.3699649,9.37515673 35.4528422,7.25768749 35.3222732,5.01733695 L35.3026093,4.99419332 C35.7596952,5.40155412 36.2890708,5.71580185 36.8621016,5.91993858 C38.2293342,6.57236058 39.62829,7.15324841 41.0535207,7.66033966 C43.6171598,8.08310244 45.4923145,10.3546288 45.4642671,13.0034327 C45.4884687,13.4508762 45.5126703,13.8736332 45.536872,14.3210768 C44.3765206,14.3025991 43.2259503,14.1011834 42.1259553,13.7239711 L42.1017537,13.7239711 C41.9588091,13.6746502 41.8197523,13.6143024 41.6857882,13.5434508 Z" id="Path_736" fill="#F4F4F4"></path>
                <path d="M41.2229321,22.8641626 C41.2229321,22.8888491 41.2471337,22.6651273 41.2471337,22.6898139 C41.1895348,20.2658789 40.8627432,17.8564161 40.2730183,15.5075736 C39.944079,14.3373624 39.5372529,13.191406 39.055374,12.0776875 C39.055374,12.0776875 38.6651228,11.7552195 38.4699972,11.5808708 C38.3690103,11.5026626 38.2789387,11.4107863 38.2022667,11.3077759 L38.0071411,11.1087407 L37.9103346,11.0099946 C36.3718674,9.39173335 35.4475803,7.26823117 35.3026093,5.01887986 L35.2784078,5.04356639 C34.0860256,6.34371913 32.4186906,7.08161973 30.6732921,7.08161973 C28.9278936,7.08161973 27.2605586,6.34371913 26.0681765,5.04356639 L26.0439748,5.01887986 C25.9046835,7.26920312 24.9795352,9.39413668 23.4362496,11.0084517 L23.3394431,11.1071978 L23.1443174,11.306233 L22.876587,11.5793279 C22.6814613,11.7536766 22.4863358,11.9280253 22.2912102,12.0761446 C21.8056238,13.1883423 21.3987027,14.3345663 21.0735659,15.5060307 C20.4600526,17.8500394 20.132868,20.2624006 20.0994504,22.688271 C20.0994504,22.6635844 20.123652,22.638898 20.123652,22.6142114 C20.659113,23.956542 20.8542387,25.2494995 21.2928931,26.5409142 C22.2902209,29.531418 21.9587869,32.8169407 20.3853321,35.5376151 C23.7502009,36.4243098 27.1983552,36.9415514 30.6710232,37.0805239 C34.1438598,36.9434061 37.5922074,36.4261355 40.9567142,35.5376151 C39.3832594,32.8169407 39.0518255,29.531418 40.0491533,26.5409142 C40.5180598,25.2510424 40.6874711,24.1818067 41.2229321,22.8641626 Z" id="Path_745" fill="#F4F4F4"></path>
                <path d="M39.055374,12.0530009 C38.8602484,11.89871 38.6651228,11.730533 38.4699972,11.5561843 C38.3690103,11.4779761 38.2789387,11.3860998 38.2022667,11.2830895 L38.0071411,11.0840542 L37.9103346,10.985308 C36.3707603,9.36750287 35.4453785,7.24394927 35.2995841,4.99419332 L35.2753826,5.01887986 C34.0830004,6.3190326 32.4156655,7.05693319 30.6702669,7.05693319 C28.9248684,7.05693319 27.2575333,6.3190326 26.0651513,5.01887986 L26.0439748,4.99419332 C25.9046835,7.24451657 24.9795352,9.36945012 23.4362496,10.9837651 L23.3394431,11.0825113 L23.1443174,11.2815465 L22.876587,11.5546414 C22.6814613,11.7289901 22.4863358,11.9033387 22.2912102,12.051458 C22.6073439,12.2998663 24.8989354,20.5019693 30.6725358,20.5019693 C36.1300024,20.5019693 38.7377276,12.2751798 39.0538613,12.051458 L39.055374,12.0530009 Z" id="Path_748" fill="#F4F4F4"></path>
                <path d="M34.2651919,1.56622962 C33.7876319,0.7520442 32.6436177,1.95138743 30.8300735,1.95138743 C29.0165294,1.95138743 27.7464743,0.7520442 27.3934426,1.56622962 C27.5072322,2.79543106 27.0682987,4.0109365 26.2,4.87114019 L26.2242016,4.89582672 C27.4665578,6.11770115 29.1056532,6.83150018 30.8300735,6.90160812 C32.5534267,6.82668558 34.1909185,6.11358489 35.4359455,4.89582672 L35.4601472,4.87114019 C34.5876743,4.01362835 34.1475049,2.79624348 34.2651919,1.56622962 Z" id="Path_730-2" fill="#676767"></path>
            </g>
            <g id="neckline_thumbnails_3" transform="translate(201.750000, 0.000000)">
                <g id="top_collar_thumbnails_0-copy-3" transform="translate(-0.000000, 0.000000)" fill="#F4F4F4">
                    <path d="M21.0932296,15.5075736 C21.3991027,14.3298704 21.8065742,13.1820959 22.310874,12.0776875 C21.9034803,12.3824432 21.4803523,12.6646867 21.0433139,12.9232014 C21.0191122,12.947888 20.9949106,12.947888 20.9707089,12.9725745 L20.6787768,13.1268654 L20.5275167,13.200925 C20.4592542,13.2440628 20.3854367,13.2772972 20.3081894,13.2996712 C20.2386669,13.3224342 20.1728912,13.355721 20.1130639,13.3984173 C20.0336173,13.4356087 19.9523316,13.4685684 19.869535,13.4971636 C19.79693,13.52185 19.7470142,13.5465366 19.6744093,13.5712231 C19.5231492,13.6205962 19.4066789,13.6699693 19.2599565,13.725514 L19.2357548,13.725514 C18.1293619,14.1105465 16.9696032,14.3121403 15.8006366,14.3226197 C15.7614912,16.1131075 15.5987358,17.8985581 15.3135789,19.6657128 C14.5829922,23.4689829 13.4863561,27.1966504 12.7058537,30.975234 C11.9268639,34.6535284 8.29510732,37.8843795 7.56300813,41.5626739 C7.34131391,42.4061992 6.95152194,43.1940499 6.4179687,43.877037 C5.36217276,45.4322891 2.01781057,46.8995953 0.824367887,48.3900452 C0.905950374,48.5121914 0.995390424,48.6286798 1.09209837,48.7387426 C1.84839919,48.3900452 2.6047,48.0675772 3.33377398,47.7697958 C3.11444674,49.4099079 2.89511952,51.1009358 2.69999391,52.8151075 C2.64995575,53.2629063 2.8233116,53.7064747 3.16164665,53.9963456 C3.49998171,54.2862167 3.95824084,54.383789 4.38200691,54.2561843 C5.22252854,54.1428089 5.98931851,53.7076049 6.52687602,53.0388293 C7.59382934,51.1776236 8.335937,49.1416168 8.72014837,47.0214851 C9.06199634,43.8400072 11.766528,40.7079025 13.6663557,38.0988437 C15.8112248,35.1410876 17.9016402,32.7804372 18.5399581,30.0217164 C19.125335,27.61015 19.5881911,25.17544 20.0994504,22.739187 L20.0994504,22.7145005 C20.1306381,20.2789937 20.4645628,17.8573581 21.0932296,15.5075736 Z" id="Path_704"></path>
                    <path d="M17.4902126,49.5842565 C17.6144122,51.6884512 17.8833081,53.7811532 18.2949167,55.8469232 L29.7906891,55.8469232 C29.8632939,54.9211779 29.9858146,53.9830895 30.0584195,53.0696875 C30.0779343,52.9296936 30.0860292,52.7882897 30.0826211,52.6469304 C25.6957204,52.7579618 21.3560151,51.7024764 17.4902126,49.5842565 Z" id="Path_703"></path>
                    <path d="M19.6592833,13.5434508 C19.7318882,13.5187642 19.7818041,13.4940776 19.8544089,13.4693912 C19.9338577,13.4322049 20.0151431,13.3992453 20.0979378,13.370645 C20.1674603,13.347882 20.2332361,13.3145952 20.2930634,13.2718988 C20.3656683,13.2472123 20.4443235,13.1978392 20.5123907,13.1731526 L20.6636508,13.0990931 L20.9555829,12.9448022 C20.9797846,12.9201156 21.0039861,12.9201156 21.0281878,12.895429 C21.692591,12.5200034 22.3136149,12.069745 22.8796122,11.5530985 C22.9805991,11.4748902 23.0706707,11.3830139 23.1473426,11.2800036 L23.3424683,11.0809684 L23.4392748,10.9822222 C24.9751066,9.37515673 25.8922293,7.25768749 26.0227984,5.01733695 L26.0439748,4.99419332 C25.5868889,5.40155412 25.0575134,5.71580185 24.4844826,5.91993858 C23.1172479,6.57235568 21.7182923,7.1532434 20.2930634,7.66033966 C17.742456,8.10642736 15.8790211,10.3637565 15.8823171,13.0034327 C15.8581154,13.4508762 15.8339139,13.8736332 15.8097122,14.3210768 C16.9700636,14.3025991 18.1206338,14.1011834 19.2206289,13.7239711 L19.2448305,13.7239711 C19.3889109,13.6790839 19.5278563,13.6185644 19.6592833,13.5434508 Z" id="Path_709"></path>
                    <path d="M43.8790606,49.5842565 C43.754866,51.6884516 43.48597,53.781154 43.0743565,55.8469232 L31.5785841,55.8469232 C31.5059793,54.9211779 31.3834585,53.9830895 31.3108537,53.0696875 C31.291332,52.9296943 31.2832369,52.7882898 31.286652,52.6469304 C35.672939,52.7520196 40.0111772,51.6968911 43.8790606,49.5842565 Z" id="Path_728"></path>
                    <path d="M43.7081366,41.6552484 C42.9207026,39.5506531 42.001153,37.4999943 40.9552016,35.5160145 C37.5903329,36.4027092 34.1421785,36.9199508 30.6695106,37.0589232 C27.1966739,36.9218054 23.7483263,36.4045348 20.3838195,35.5160145 C19.3432491,37.5027173 18.4238569,39.5530248 17.6308846,41.6552484 C16.8057609,43.967673 16.361111,46.4033376 16.3149211,48.8637182 C16.6809707,49.1121265 17.071222,49.3605347 17.4599606,49.5842565 C21.3318285,51.6874864 25.671711,52.7320033 30.0569069,52.6160722 L31.2745513,52.6160722 C35.6597471,52.7320033 39.9996296,51.6874864 43.8714976,49.5842565 C44.2617487,49.3605347 44.6504874,49.1121265 45.016537,48.8637182 C44.9710093,46.4039527 44.5289702,43.9685933 43.7081366,41.6552484 Z" id="Path_729"></path>
                    <path d="M34.1091667,1.71396929 C33.2342975,0.717313727 31.9848095,0.147739667 30.6732921,0.147739667 C29.3617746,0.147739667 28.1122867,0.717313727 27.2374174,1.71396929 C27.351207,2.94317073 26.9122735,4.15867617 26.0439748,5.01887986 L26.0681765,5.04356639 C27.3105326,6.26544081 28.949628,6.97923985 30.6740484,7.04934779 C32.3974015,6.97442525 34.0348933,6.26132455 35.2799203,5.04356639 L35.304122,5.01887986 C34.4316491,4.16136802 33.9914797,2.94398315 34.1091667,1.71396929 Z" id="Path_730"></path>
                    <path d="M40.2730183,15.5075736 C39.9671453,14.3298704 39.5596737,13.1820959 39.055374,12.0776875 C39.4627693,12.3824407 39.8858972,12.6646843 40.3229341,12.9232014 C40.3471358,12.947888 40.3713374,12.947888 40.3955391,12.9725745 L40.6874711,13.1268654 L40.8387313,13.200925 C40.9070029,13.2440451 40.980818,13.2772784 41.0580585,13.2996712 C41.127581,13.3224342 41.1933568,13.355721 41.2531841,13.3984173 C41.3326308,13.4356087 41.4139164,13.4685684 41.496713,13.4971636 C41.5693179,13.52185 41.6192337,13.5465366 41.6918387,13.5712231 C41.8430987,13.6205962 41.9595691,13.6699693 42.1062915,13.725514 L42.1304931,13.725514 C43.2368861,14.1105465 44.3966447,14.3121403 45.5656113,14.3226197 C45.5926376,16.1137978 45.755476,17.9001589 46.0526691,19.6657128 C46.7832557,23.4689829 47.8798919,27.1966504 48.6603943,30.975234 C49.4393841,34.6535284 53.0711407,37.8843795 53.8032398,41.5626739 C54.0249341,42.4061992 54.414726,43.1940499 54.9482793,43.877037 C56.0207139,45.4430895 59.3590256,46.9088528 60.5524683,48.4008455 C60.4708894,48.5229944 60.3814491,48.6394831 60.2847378,48.7495429 C59.528437,48.4008455 58.7721361,48.0783776 58.0430622,47.7805962 C58.2623894,49.4207082 58.4817167,51.1117363 58.6768422,52.8259079 C58.7268804,53.2737067 58.5535245,53.717275 58.2151896,54.007146 C57.8768545,54.297017 57.4185953,54.3945894 56.9948293,54.2669846 C56.1543076,54.1536093 55.3875177,53.7184053 54.8499602,53.0496296 C53.7830068,51.1884239 53.0408991,49.1524172 52.6566878,47.0322855 C52.3148398,43.8508076 49.6103081,40.7187028 47.7104805,38.1096441 C45.5656113,35.151888 43.4751959,32.7912376 42.836878,30.0325167 C42.2515013,27.6209503 41.7886452,25.1862403 41.2773858,22.7499873 L41.2773858,22.7253008 C41.2194549,20.2876913 40.8823783,17.8653445 40.2730183,15.5075736 Z" id="Path_731"></path>
                    <path d="M41.6857882,13.5434508 C41.6131833,13.5187642 41.5632674,13.4940776 41.4906626,13.4693912 C41.4112139,13.4322049 41.3299285,13.3992453 41.2471337,13.370645 C41.1776113,13.347882 41.1118355,13.3145952 41.0520081,13.2718988 C40.9794033,13.2472123 40.900748,13.1978392 40.8326809,13.1731526 L40.6814207,13.0990931 L40.3894887,12.9448022 C40.365287,12.9201156 40.3410854,12.9201156 40.3168837,12.895429 C39.6524873,12.5199924 39.0314647,12.0697349 38.4654593,11.5530985 C38.3644724,11.4748902 38.2744008,11.3830139 38.1977289,11.2800036 L38.0026033,11.0809684 L37.9057967,10.9822222 C36.3699649,9.37515673 35.4528422,7.25768749 35.3222732,5.01733695 L35.3026093,4.99419332 C35.7596952,5.40155412 36.2890708,5.71580185 36.8621016,5.91993858 C38.2293342,6.57236058 39.62829,7.15324841 41.0535207,7.66033966 C43.6171598,8.08310244 45.4923145,10.3546288 45.4642671,13.0034327 C45.4884687,13.4508762 45.5126703,13.8736332 45.536872,14.3210768 C44.3765206,14.3025991 43.2259503,14.1011834 42.1259553,13.7239711 L42.1017537,13.7239711 C41.9588091,13.6746502 41.8197523,13.6143024 41.6857882,13.5434508 Z" id="Path_736"></path>
                    <path d="M41.2229321,22.8641626 C41.2229321,22.8888491 41.2471337,22.6651273 41.2471337,22.6898139 C41.1895348,20.2658789 40.8627432,17.8564161 40.2730183,15.5075736 C39.944079,14.3373624 39.5372529,13.191406 39.055374,12.0776875 C39.055374,12.0776875 38.6651228,11.7552195 38.4699972,11.5808708 C38.3690103,11.5026626 38.2789387,11.4107863 38.2022667,11.3077759 L38.0071411,11.1087407 L37.9103346,11.0099946 C36.3718674,9.39173335 35.4475803,7.26823117 35.3026093,5.01887986 L35.2784078,5.04356639 C34.0860256,6.34371913 32.4186906,7.08161973 30.6732921,7.08161973 C28.9278936,7.08161973 27.2605586,6.34371913 26.0681765,5.04356639 L26.0439748,5.01887986 C25.9046835,7.26920312 24.9795352,9.39413668 23.4362496,11.0084517 L23.3394431,11.1071978 L23.1443174,11.306233 L22.876587,11.5793279 C22.6814613,11.7536766 22.4863358,11.9280253 22.2912102,12.0761446 C21.8056238,13.1883423 21.3987027,14.3345663 21.0735659,15.5060307 C20.4600526,17.8500394 20.132868,20.2624006 20.0994504,22.688271 C20.0994504,22.6635844 20.123652,22.638898 20.123652,22.6142114 C20.659113,23.956542 20.8542387,25.2494995 21.2928931,26.5409142 C22.2902209,29.531418 21.9587869,32.8169407 20.3853321,35.5376151 C23.7502009,36.4243098 27.1983552,36.9415514 30.6710232,37.0805239 C34.1438598,36.9434061 37.5922074,36.4261355 40.9567142,35.5376151 C39.3832594,32.8169407 39.0518255,29.531418 40.0491533,26.5409142 C40.5180598,25.2510424 40.6874711,24.1818067 41.2229321,22.8641626 Z" id="Path_745"></path>
                    <path d="M39.055374,12.0530009 C38.8602484,11.89871 38.6651228,11.730533 38.4699972,11.5561843 C38.3690103,11.4779761 38.2789387,11.3860998 38.2022667,11.2830895 L38.0071411,11.0840542 L37.9103346,10.985308 C36.3707603,9.36750287 35.4453785,7.24394927 35.2995841,4.99419332 L35.2753826,5.01887986 C34.0830004,6.3190326 32.4156655,7.05693319 30.6702669,7.05693319 C28.9248684,7.05693319 27.2575333,6.3190326 26.0651513,5.01887986 L26.0439748,4.99419332 C25.9046835,7.24451657 24.9795352,9.36945012 23.4362496,10.9837651 L23.3394431,11.0825113 L23.1443174,11.2815465 L22.876587,11.5546414 C22.6814613,11.7289901 22.4863358,11.9033387 22.2912102,12.051458 C22.6073439,12.2998663 24.8989354,20.5019693 30.6725358,20.5019693 C36.1300024,20.5019693 38.7377276,12.2751798 39.0538613,12.051458 L39.055374,12.0530009 Z" id="Path_748"></path>
                </g>
                <g id="neckline_2_for_shoulder_4" transform="translate(25.000000, 3.000000)" fill="#676767">
                    <g id="neckline_2_for_shoulder_4_1">
                        <path d="M10.4919579,2.07543545 C10.3756093,1.96334219 9.42037149,0.51180086 9.22514904,0.247774091 C8.23793074,1.29260142 6.7226604,1.29260142 5.71815712,1.29260142 C4.71365383,1.29260142 3.0822171,1.29260142 2.08330004,0.247774091 C2.01750886,0.442370859 1.07183362,2.02553037 0.943506279,2.07543545 C2.27156164,3.17158004 3.72004545,4.10669461 5.66663429,4.10669461 C7.61322313,4.10669461 9.42037149,3.12104231 10.4919579,2.07543545 Z" id="neckline_top_2"></path>
                    </g>
                </g>
            </g>
            <g id="neckline_thumbnails_2" transform="translate(134.500000, 0.000000)">
                <path d="M21.0932296,15.5075736 C21.3991027,14.3298704 21.8065742,13.1820959 22.310874,12.0776875 C21.9034803,12.3824432 21.4803523,12.6646867 21.0433139,12.9232014 C21.0191122,12.947888 20.9949106,12.947888 20.9707089,12.9725745 L20.6787768,13.1268654 L20.5275167,13.200925 C20.4592542,13.2440628 20.3854367,13.2772972 20.3081894,13.2996712 C20.2386669,13.3224342 20.1728912,13.355721 20.1130639,13.3984173 C20.0336173,13.4356087 19.9523316,13.4685684 19.869535,13.4971636 C19.79693,13.52185 19.7470142,13.5465366 19.6744093,13.5712231 C19.5231492,13.6205962 19.4066789,13.6699693 19.2599565,13.725514 L19.2357548,13.725514 C18.1293619,14.1105465 16.9696032,14.3121403 15.8006366,14.3226197 C15.7614912,16.1131075 15.5987358,17.8985581 15.3135789,19.6657128 C14.5829922,23.4689829 13.4863561,27.1966504 12.7058537,30.975234 C11.9268639,34.6535284 8.29510732,37.8843795 7.56300813,41.5626739 C7.34131391,42.4061992 6.95152194,43.1940499 6.4179687,43.877037 C5.36217276,45.4322891 2.01781057,46.8995953 0.824367887,48.3900452 C0.905950374,48.5121914 0.995390424,48.6286798 1.09209837,48.7387426 C1.84839919,48.3900452 2.6047,48.0675772 3.33377398,47.7697958 C3.11444674,49.4099079 2.89511952,51.1009358 2.69999391,52.8151075 C2.64995575,53.2629063 2.8233116,53.7064747 3.16164665,53.9963456 C3.49998171,54.2862167 3.95824084,54.383789 4.38200691,54.2561843 C5.22252854,54.1428089 5.98931851,53.7076049 6.52687602,53.0388293 C7.59382934,51.1776236 8.335937,49.1416168 8.72014837,47.0214851 C9.06199634,43.8400072 11.766528,40.7079025 13.6663557,38.0988437 C15.8112248,35.1410876 17.9016402,32.7804372 18.5399581,30.0217164 C19.125335,27.61015 19.5881911,25.17544 20.0994504,22.739187 L20.0994504,22.7145005 C20.1306381,20.2789937 20.4645628,17.8573581 21.0932296,15.5075736 Z" id="Path_704" fill="#F4F4F4"></path>
                <path d="M17.4902126,49.5842565 C17.6144122,51.6884512 17.8833081,53.7811532 18.2949167,55.8469232 L29.7906891,55.8469232 C29.8632939,54.9211779 29.9858146,53.9830895 30.0584195,53.0696875 C30.0779343,52.9296936 30.0860292,52.7882897 30.0826211,52.6469304 C25.6957204,52.7579618 21.3560151,51.7024764 17.4902126,49.5842565 Z" id="Path_703" fill="#F4F4F4"></path>
                <path d="M19.6592833,13.5434508 C19.7318882,13.5187642 19.7818041,13.4940776 19.8544089,13.4693912 C19.9338577,13.4322049 20.0151431,13.3992453 20.0979378,13.370645 C20.1674603,13.347882 20.2332361,13.3145952 20.2930634,13.2718988 C20.3656683,13.2472123 20.4443235,13.1978392 20.5123907,13.1731526 L20.6636508,13.0990931 L20.9555829,12.9448022 C20.9797846,12.9201156 21.0039861,12.9201156 21.0281878,12.895429 C21.692591,12.5200034 22.3136149,12.069745 22.8796122,11.5530985 C22.9805991,11.4748902 23.0706707,11.3830139 23.1473426,11.2800036 L23.3424683,11.0809684 L23.4392748,10.9822222 C24.9751066,9.37515673 25.8922293,7.25768749 26.0227984,5.01733695 L26.0439748,4.99419332 C25.5868889,5.40155412 25.0575134,5.71580185 24.4844826,5.91993858 C23.1172479,6.57235568 21.7182923,7.1532434 20.2930634,7.66033966 C17.742456,8.10642736 15.8790211,10.3637565 15.8823171,13.0034327 C15.8581154,13.4508762 15.8339139,13.8736332 15.8097122,14.3210768 C16.9700636,14.3025991 18.1206338,14.1011834 19.2206289,13.7239711 L19.2448305,13.7239711 C19.3889109,13.6790839 19.5278563,13.6185644 19.6592833,13.5434508 Z" id="Path_709" fill="#F4F4F4"></path>
                <path d="M43.8790606,49.5842565 C43.754866,51.6884516 43.48597,53.781154 43.0743565,55.8469232 L31.5785841,55.8469232 C31.5059793,54.9211779 31.3834585,53.9830895 31.3108537,53.0696875 C31.291332,52.9296943 31.2832369,52.7882898 31.286652,52.6469304 C35.672939,52.7520196 40.0111772,51.6968911 43.8790606,49.5842565 Z" id="Path_728" fill="#F4F4F4"></path>
                <path d="M43.7081366,41.6552484 C42.9207026,39.5506531 42.001153,37.4999943 40.9552016,35.5160145 C37.5903329,36.4027092 34.1421785,36.9199508 30.6695106,37.0589232 C27.1966739,36.9218054 23.7483263,36.4045348 20.3838195,35.5160145 C19.3432491,37.5027173 18.4238569,39.5530248 17.6308846,41.6552484 C16.8057609,43.967673 16.361111,46.4033376 16.3149211,48.8637182 C16.6809707,49.1121265 17.071222,49.3605347 17.4599606,49.5842565 C21.3318285,51.6874864 25.671711,52.7320033 30.0569069,52.6160722 L31.2745513,52.6160722 C35.6597471,52.7320033 39.9996296,51.6874864 43.8714976,49.5842565 C44.2617487,49.3605347 44.6504874,49.1121265 45.016537,48.8637182 C44.9710093,46.4039527 44.5289702,43.9685933 43.7081366,41.6552484 Z" id="Path_729" fill="#F4F4F4"></path>
                <path d="M34.1091667,1.71396929 C33.2342975,0.717313727 31.9848095,0.147739667 30.6732921,0.147739667 C29.3617746,0.147739667 28.1122867,0.717313727 27.2374174,1.71396929 C27.351207,2.94317073 26.9122735,4.15867617 26.0439748,5.01887986 L26.0681765,5.04356639 C27.3105326,6.26544081 28.949628,6.97923985 30.6740484,7.04934779 C32.3974015,6.97442525 34.0348933,6.26132455 35.2799203,5.04356639 L35.304122,5.01887986 C34.4316491,4.16136802 33.9914797,2.94398315 34.1091667,1.71396929 Z" id="Path_730" fill="#F4F4F4"></path>
                <path d="M40.2730183,15.5075736 C39.9671453,14.3298704 39.5596737,13.1820959 39.055374,12.0776875 C39.4627693,12.3824407 39.8858972,12.6646843 40.3229341,12.9232014 C40.3471358,12.947888 40.3713374,12.947888 40.3955391,12.9725745 L40.6874711,13.1268654 L40.8387313,13.200925 C40.9070029,13.2440451 40.980818,13.2772784 41.0580585,13.2996712 C41.127581,13.3224342 41.1933568,13.355721 41.2531841,13.3984173 C41.3326308,13.4356087 41.4139164,13.4685684 41.496713,13.4971636 C41.5693179,13.52185 41.6192337,13.5465366 41.6918387,13.5712231 C41.8430987,13.6205962 41.9595691,13.6699693 42.1062915,13.725514 L42.1304931,13.725514 C43.2368861,14.1105465 44.3966447,14.3121403 45.5656113,14.3226197 C45.5926376,16.1137978 45.755476,17.9001589 46.0526691,19.6657128 C46.7832557,23.4689829 47.8798919,27.1966504 48.6603943,30.975234 C49.4393841,34.6535284 53.0711407,37.8843795 53.8032398,41.5626739 C54.0249341,42.4061992 54.414726,43.1940499 54.9482793,43.877037 C56.0207139,45.4430895 59.3590256,46.9088528 60.5524683,48.4008455 C60.4708894,48.5229944 60.3814491,48.6394831 60.2847378,48.7495429 C59.528437,48.4008455 58.7721361,48.0783776 58.0430622,47.7805962 C58.2623894,49.4207082 58.4817167,51.1117363 58.6768422,52.8259079 C58.7268804,53.2737067 58.5535245,53.717275 58.2151896,54.007146 C57.8768545,54.297017 57.4185953,54.3945894 56.9948293,54.2669846 C56.1543076,54.1536093 55.3875177,53.7184053 54.8499602,53.0496296 C53.7830068,51.1884239 53.0408991,49.1524172 52.6566878,47.0322855 C52.3148398,43.8508076 49.6103081,40.7187028 47.7104805,38.1096441 C45.5656113,35.151888 43.4751959,32.7912376 42.836878,30.0325167 C42.2515013,27.6209503 41.7886452,25.1862403 41.2773858,22.7499873 L41.2773858,22.7253008 C41.2194549,20.2876913 40.8823783,17.8653445 40.2730183,15.5075736 Z" id="Path_731" fill="#F4F4F4"></path>
                <path d="M41.6857882,13.5434508 C41.6131833,13.5187642 41.5632674,13.4940776 41.4906626,13.4693912 C41.4112139,13.4322049 41.3299285,13.3992453 41.2471337,13.370645 C41.1776113,13.347882 41.1118355,13.3145952 41.0520081,13.2718988 C40.9794033,13.2472123 40.900748,13.1978392 40.8326809,13.1731526 L40.6814207,13.0990931 L40.3894887,12.9448022 C40.365287,12.9201156 40.3410854,12.9201156 40.3168837,12.895429 C39.6524873,12.5199924 39.0314647,12.0697349 38.4654593,11.5530985 C38.3644724,11.4748902 38.2744008,11.3830139 38.1977289,11.2800036 L38.0026033,11.0809684 L37.9057967,10.9822222 C36.3699649,9.37515673 35.4528422,7.25768749 35.3222732,5.01733695 L35.3026093,4.99419332 C35.7596952,5.40155412 36.2890708,5.71580185 36.8621016,5.91993858 C38.2293342,6.57236058 39.62829,7.15324841 41.0535207,7.66033966 C43.6171598,8.08310244 45.4923145,10.3546288 45.4642671,13.0034327 C45.4884687,13.4508762 45.5126703,13.8736332 45.536872,14.3210768 C44.3765206,14.3025991 43.2259503,14.1011834 42.1259553,13.7239711 L42.1017537,13.7239711 C41.9588091,13.6746502 41.8197523,13.6143024 41.6857882,13.5434508 Z" id="Path_736" fill="#F4F4F4"></path>
                <path d="M41.2229321,22.8641626 C41.2229321,22.8888491 41.2471337,22.6651273 41.2471337,22.6898139 C41.1895348,20.2658789 40.8627432,17.8564161 40.2730183,15.5075736 C39.944079,14.3373624 39.5372529,13.191406 39.055374,12.0776875 C39.055374,12.0776875 38.6651228,11.7552195 38.4699972,11.5808708 C38.3690103,11.5026626 38.2789387,11.4107863 38.2022667,11.3077759 L38.0071411,11.1087407 L37.9103346,11.0099946 C36.3718674,9.39173335 35.4475803,7.26823117 35.3026093,5.01887986 L35.2784078,5.04356639 C34.0860256,6.34371913 32.4186906,7.08161973 30.6732921,7.08161973 C28.9278936,7.08161973 27.2605586,6.34371913 26.0681765,5.04356639 L26.0439748,5.01887986 C25.9046835,7.26920312 24.9795352,9.39413668 23.4362496,11.0084517 L23.3394431,11.1071978 L23.1443174,11.306233 L22.876587,11.5793279 C22.6814613,11.7536766 22.4863358,11.9280253 22.2912102,12.0761446 C21.8056238,13.1883423 21.3987027,14.3345663 21.0735659,15.5060307 C20.4600526,17.8500394 20.132868,20.2624006 20.0994504,22.688271 C20.0994504,22.6635844 20.123652,22.638898 20.123652,22.6142114 C20.659113,23.956542 20.8542387,25.2494995 21.2928931,26.5409142 C22.2902209,29.531418 21.9587869,32.8169407 20.3853321,35.5376151 C23.7502009,36.4243098 27.1983552,36.9415514 30.6710232,37.0805239 C34.1438598,36.9434061 37.5922074,36.4261355 40.9567142,35.5376151 C39.3832594,32.8169407 39.0518255,29.531418 40.0491533,26.5409142 C40.5180598,25.2510424 40.6874711,24.1818067 41.2229321,22.8641626 Z" id="Path_745" fill="#F4F4F4"></path>
                <path d="M39.055374,12.0530009 C38.8602484,11.89871 38.6651228,11.730533 38.4699972,11.5561843 C38.3690103,11.4779761 38.2789387,11.3860998 38.2022667,11.2830895 L38.0071411,11.0840542 L37.9103346,10.985308 C36.3707603,9.36750287 35.4453785,7.24394927 35.2995841,4.99419332 L35.2753826,5.01887986 C34.0830004,6.3190326 32.4156655,7.05693319 30.6702669,7.05693319 C28.9248684,7.05693319 27.2575333,6.3190326 26.0651513,5.01887986 L26.0439748,4.99419332 C25.9046835,7.24451657 24.9795352,9.36945012 23.4362496,10.9837651 L23.3394431,11.0825113 L23.1443174,11.2815465 L22.876587,11.5546414 C22.6814613,11.7289901 22.4863358,11.9033387 22.2912102,12.051458 C22.6073439,12.2998663 24.8989354,20.5019693 30.6725358,20.5019693 C36.1300024,20.5019693 38.7377276,12.2751798 39.0538613,12.051458 L39.055374,12.0530009 Z" id="Path_748" fill="#F4F4F4"></path>
                <path d="M37.0975097,6.05719006 C36.5734838,5.87514731 35.6512892,5.47424617 35.1856067,5 C33.9377687,6.23604684 32.5502983,6.74269193 30.8998584,6.74269193 C29.2494186,6.74269193 26.6624307,6.05719006 26.061256,5 C25.7686778,5.2630872 24.965017,5.83027824 24.2997689,6.05719006 C27.0520645,7.67598592 29.2520943,8.48538385 30.8998584,8.48538385 C33.3715046,8.48538385 36.0467012,6.92351861 37.0975097,6.05719006 Z" id="Path_748-Copy" fill="#D6D4D4"></path>
            </g>
            <g id="neckline_thumbnails_1" transform="translate(67.250000, 0.000000)">
                <path d="M21.0932296,15.5075736 C21.3991027,14.3298704 21.8065742,13.1820959 22.310874,12.0776875 C21.9034803,12.3824432 21.4803523,12.6646867 21.0433139,12.9232014 C21.0191122,12.947888 20.9949106,12.947888 20.9707089,12.9725745 L20.6787768,13.1268654 L20.5275167,13.200925 C20.4592542,13.2440628 20.3854367,13.2772972 20.3081894,13.2996712 C20.2386669,13.3224342 20.1728912,13.355721 20.1130639,13.3984173 C20.0336173,13.4356087 19.9523316,13.4685684 19.869535,13.4971636 C19.79693,13.52185 19.7470142,13.5465366 19.6744093,13.5712231 C19.5231492,13.6205962 19.4066789,13.6699693 19.2599565,13.725514 L19.2357548,13.725514 C18.1293619,14.1105465 16.9696032,14.3121403 15.8006366,14.3226197 C15.7614912,16.1131075 15.5987358,17.8985581 15.3135789,19.6657128 C14.5829922,23.4689829 13.4863561,27.1966504 12.7058537,30.975234 C11.9268639,34.6535284 8.29510732,37.8843795 7.56300813,41.5626739 C7.34131391,42.4061992 6.95152194,43.1940499 6.4179687,43.877037 C5.36217276,45.4322891 2.01781057,46.8995953 0.824367887,48.3900452 C0.905950374,48.5121914 0.995390424,48.6286798 1.09209837,48.7387426 C1.84839919,48.3900452 2.6047,48.0675772 3.33377398,47.7697958 C3.11444674,49.4099079 2.89511952,51.1009358 2.69999391,52.8151075 C2.64995575,53.2629063 2.8233116,53.7064747 3.16164665,53.9963456 C3.49998171,54.2862167 3.95824084,54.383789 4.38200691,54.2561843 C5.22252854,54.1428089 5.98931851,53.7076049 6.52687602,53.0388293 C7.59382934,51.1776236 8.335937,49.1416168 8.72014837,47.0214851 C9.06199634,43.8400072 11.766528,40.7079025 13.6663557,38.0988437 C15.8112248,35.1410876 17.9016402,32.7804372 18.5399581,30.0217164 C19.125335,27.61015 19.5881911,25.17544 20.0994504,22.739187 L20.0994504,22.7145005 C20.1306381,20.2789937 20.4645628,17.8573581 21.0932296,15.5075736 Z" id="Path_704" fill="#F4F4F4"></path>
                <path d="M17.4902126,49.5842565 C17.6144122,51.6884512 17.8833081,53.7811532 18.2949167,55.8469232 L29.7906891,55.8469232 C29.8632939,54.9211779 29.9858146,53.9830895 30.0584195,53.0696875 C30.0779343,52.9296936 30.0860292,52.7882897 30.0826211,52.6469304 C25.6957204,52.7579618 21.3560151,51.7024764 17.4902126,49.5842565 Z" id="Path_703" fill="#F4F4F4"></path>
                <path d="M19.6592833,13.5434508 C19.7318882,13.5187642 19.7818041,13.4940776 19.8544089,13.4693912 C19.9338577,13.4322049 20.0151431,13.3992453 20.0979378,13.370645 C20.1674603,13.347882 20.2332361,13.3145952 20.2930634,13.2718988 C20.3656683,13.2472123 20.4443235,13.1978392 20.5123907,13.1731526 L20.6636508,13.0990931 L20.9555829,12.9448022 C20.9797846,12.9201156 21.0039861,12.9201156 21.0281878,12.895429 C21.692591,12.5200034 22.3136149,12.069745 22.8796122,11.5530985 C22.9805991,11.4748902 23.0706707,11.3830139 23.1473426,11.2800036 L23.3424683,11.0809684 L23.4392748,10.9822222 C24.9751066,9.37515673 25.8922293,7.25768749 26.0227984,5.01733695 L26.0439748,4.99419332 C25.5868889,5.40155412 25.0575134,5.71580185 24.4844826,5.91993858 C23.1172479,6.57235568 21.7182923,7.1532434 20.2930634,7.66033966 C17.742456,8.10642736 15.8790211,10.3637565 15.8823171,13.0034327 C15.8581154,13.4508762 15.8339139,13.8736332 15.8097122,14.3210768 C16.9700636,14.3025991 18.1206338,14.1011834 19.2206289,13.7239711 L19.2448305,13.7239711 C19.3889109,13.6790839 19.5278563,13.6185644 19.6592833,13.5434508 Z" id="Path_709" fill="#F4F4F4"></path>
                <path d="M43.8790606,49.5842565 C43.754866,51.6884516 43.48597,53.781154 43.0743565,55.8469232 L31.5785841,55.8469232 C31.5059793,54.9211779 31.3834585,53.9830895 31.3108537,53.0696875 C31.291332,52.9296943 31.2832369,52.7882898 31.286652,52.6469304 C35.672939,52.7520196 40.0111772,51.6968911 43.8790606,49.5842565 Z" id="Path_728" fill="#F4F4F4"></path>
                <path d="M43.7081366,41.6552484 C42.9207026,39.5506531 42.001153,37.4999943 40.9552016,35.5160145 C37.5903329,36.4027092 34.1421785,36.9199508 30.6695106,37.0589232 C27.1966739,36.9218054 23.7483263,36.4045348 20.3838195,35.5160145 C19.3432491,37.5027173 18.4238569,39.5530248 17.6308846,41.6552484 C16.8057609,43.967673 16.361111,46.4033376 16.3149211,48.8637182 C16.6809707,49.1121265 17.071222,49.3605347 17.4599606,49.5842565 C21.3318285,51.6874864 25.671711,52.7320033 30.0569069,52.6160722 L31.2745513,52.6160722 C35.6597471,52.7320033 39.9996296,51.6874864 43.8714976,49.5842565 C44.2617487,49.3605347 44.6504874,49.1121265 45.016537,48.8637182 C44.9710093,46.4039527 44.5289702,43.9685933 43.7081366,41.6552484 Z" id="Path_729" fill="#F4F4F4"></path>
                <path d="M34.1091667,1.71396929 C33.2342975,0.717313727 31.9848095,0.147739667 30.6732921,0.147739667 C29.3617746,0.147739667 28.1122867,0.717313727 27.2374174,1.71396929 C27.351207,2.94317073 26.9122735,4.15867617 26.0439748,5.01887986 L26.0681765,5.04356639 C27.3105326,6.26544081 28.949628,6.97923985 30.6740484,7.04934779 C32.3974015,6.97442525 34.0348933,6.26132455 35.2799203,5.04356639 L35.304122,5.01887986 C34.4316491,4.16136802 33.9914797,2.94398315 34.1091667,1.71396929 Z" id="Path_730" fill="#F4F4F4"></path>
                <path d="M40.2730183,15.5075736 C39.9671453,14.3298704 39.5596737,13.1820959 39.055374,12.0776875 C39.4627693,12.3824407 39.8858972,12.6646843 40.3229341,12.9232014 C40.3471358,12.947888 40.3713374,12.947888 40.3955391,12.9725745 L40.6874711,13.1268654 L40.8387313,13.200925 C40.9070029,13.2440451 40.980818,13.2772784 41.0580585,13.2996712 C41.127581,13.3224342 41.1933568,13.355721 41.2531841,13.3984173 C41.3326308,13.4356087 41.4139164,13.4685684 41.496713,13.4971636 C41.5693179,13.52185 41.6192337,13.5465366 41.6918387,13.5712231 C41.8430987,13.6205962 41.9595691,13.6699693 42.1062915,13.725514 L42.1304931,13.725514 C43.2368861,14.1105465 44.3966447,14.3121403 45.5656113,14.3226197 C45.5926376,16.1137978 45.755476,17.9001589 46.0526691,19.6657128 C46.7832557,23.4689829 47.8798919,27.1966504 48.6603943,30.975234 C49.4393841,34.6535284 53.0711407,37.8843795 53.8032398,41.5626739 C54.0249341,42.4061992 54.414726,43.1940499 54.9482793,43.877037 C56.0207139,45.4430895 59.3590256,46.9088528 60.5524683,48.4008455 C60.4708894,48.5229944 60.3814491,48.6394831 60.2847378,48.7495429 C59.528437,48.4008455 58.7721361,48.0783776 58.0430622,47.7805962 C58.2623894,49.4207082 58.4817167,51.1117363 58.6768422,52.8259079 C58.7268804,53.2737067 58.5535245,53.717275 58.2151896,54.007146 C57.8768545,54.297017 57.4185953,54.3945894 56.9948293,54.2669846 C56.1543076,54.1536093 55.3875177,53.7184053 54.8499602,53.0496296 C53.7830068,51.1884239 53.0408991,49.1524172 52.6566878,47.0322855 C52.3148398,43.8508076 49.6103081,40.7187028 47.7104805,38.1096441 C45.5656113,35.151888 43.4751959,32.7912376 42.836878,30.0325167 C42.2515013,27.6209503 41.7886452,25.1862403 41.2773858,22.7499873 L41.2773858,22.7253008 C41.2194549,20.2876913 40.8823783,17.8653445 40.2730183,15.5075736 Z" id="Path_731" fill="#F4F4F4"></path>
                <path d="M41.6857882,13.5434508 C41.6131833,13.5187642 41.5632674,13.4940776 41.4906626,13.4693912 C41.4112139,13.4322049 41.3299285,13.3992453 41.2471337,13.370645 C41.1776113,13.347882 41.1118355,13.3145952 41.0520081,13.2718988 C40.9794033,13.2472123 40.900748,13.1978392 40.8326809,13.1731526 L40.6814207,13.0990931 L40.3894887,12.9448022 C40.365287,12.9201156 40.3410854,12.9201156 40.3168837,12.895429 C39.6524873,12.5199924 39.0314647,12.0697349 38.4654593,11.5530985 C38.3644724,11.4748902 38.2744008,11.3830139 38.1977289,11.2800036 L38.0026033,11.0809684 L37.9057967,10.9822222 C36.3699649,9.37515673 35.4528422,7.25768749 35.3222732,5.01733695 L35.3026093,4.99419332 C35.7596952,5.40155412 36.2890708,5.71580185 36.8621016,5.91993858 C38.2293342,6.57236058 39.62829,7.15324841 41.0535207,7.66033966 C43.6171598,8.08310244 45.4923145,10.3546288 45.4642671,13.0034327 C45.4884687,13.4508762 45.5126703,13.8736332 45.536872,14.3210768 C44.3765206,14.3025991 43.2259503,14.1011834 42.1259553,13.7239711 L42.1017537,13.7239711 C41.9588091,13.6746502 41.8197523,13.6143024 41.6857882,13.5434508 Z" id="Path_736" fill="#F4F4F4"></path>
                <path d="M41.2229321,22.8641626 C41.2229321,22.8888491 41.2471337,22.6651273 41.2471337,22.6898139 C41.1895348,20.2658789 40.8627432,17.8564161 40.2730183,15.5075736 C39.944079,14.3373624 39.5372529,13.191406 39.055374,12.0776875 C39.055374,12.0776875 38.6651228,11.7552195 38.4699972,11.5808708 C38.3690103,11.5026626 38.2789387,11.4107863 38.2022667,11.3077759 L38.0071411,11.1087407 L37.9103346,11.0099946 C36.3718674,9.39173335 35.4475803,7.26823117 35.3026093,5.01887986 L35.2784078,5.04356639 C34.0860256,6.34371913 32.4186906,7.08161973 30.6732921,7.08161973 C28.9278936,7.08161973 27.2605586,6.34371913 26.0681765,5.04356639 L26.0439748,5.01887986 C25.9046835,7.26920312 24.9795352,9.39413668 23.4362496,11.0084517 L23.3394431,11.1071978 L23.1443174,11.306233 L22.876587,11.5793279 C22.6814613,11.7536766 22.4863358,11.9280253 22.2912102,12.0761446 C21.8056238,13.1883423 21.3987027,14.3345663 21.0735659,15.5060307 C20.4600526,17.8500394 20.132868,20.2624006 20.0994504,22.688271 C20.0994504,22.6635844 20.123652,22.638898 20.123652,22.6142114 C20.659113,23.956542 20.8542387,25.2494995 21.2928931,26.5409142 C22.2902209,29.531418 21.9587869,32.8169407 20.3853321,35.5376151 C23.7502009,36.4243098 27.1983552,36.9415514 30.6710232,37.0805239 C34.1438598,36.9434061 37.5922074,36.4261355 40.9567142,35.5376151 C39.3832594,32.8169407 39.0518255,29.531418 40.0491533,26.5409142 C40.5180598,25.2510424 40.6874711,24.1818067 41.2229321,22.8641626 Z" id="Path_745" fill="#F4F4F4"></path>
                <path d="M38.4699972,11.5561843 C38.3690103,11.4779761 38.2789387,11.3860998 38.2022667,11.2830895 L38.0071411,11.0840542 L37.9103346,10.985308 C36.3707603,9.36750287 35.4453785,7.24394927 35.2995841,4.99419332 C34.0830004,6.3190326 32.4156655,7.05693319 30.6702669,7.05693319 C28.9248684,7.05693319 27.2575333,6.3190326 26.0651513,5.01887986 C25.9046835,7.24451657 24.9795352,9.36945012 23.4362496,10.9837651 L23.3394431,11.0825113 L23.1443174,11.2815465 L22.876587,11.5546414 C22.6814613,11.7289901 22.4863358,11.9033387 22.2912102,12.051458 C22.6073439,12.2998663 24.8996917,16.070815 30.6732921,16.070815 C36.1307588,16.070815 38.7377276,12.2751798 39.0538613,12.051458 C38.8602484,11.89871 38.6651228,11.730533 38.4699972,11.5561843 Z" id="Path_748" fill="#D6D4D4"></path>
            </g>
            <g id="neckline_thumbnails_0">
                <path d="M21.0932296,15.5075736 C21.3991027,14.3298704 21.8065742,13.1820959 22.310874,12.0776875 C21.9034803,12.3824432 21.4803523,12.6646867 21.0433139,12.9232014 C21.0191122,12.947888 20.9949106,12.947888 20.9707089,12.9725745 L20.6787768,13.1268654 L20.5275167,13.200925 C20.4592542,13.2440628 20.3854367,13.2772972 20.3081894,13.2996712 C20.2386669,13.3224342 20.1728912,13.355721 20.1130639,13.3984173 C20.0336173,13.4356087 19.9523316,13.4685684 19.869535,13.4971636 C19.79693,13.52185 19.7470142,13.5465366 19.6744093,13.5712231 C19.5231492,13.6205962 19.4066789,13.6699693 19.2599565,13.725514 L19.2357548,13.725514 C18.1293619,14.1105465 16.9696032,14.3121403 15.8006366,14.3226197 C15.7614912,16.1131075 15.5987358,17.8985581 15.3135789,19.6657128 C14.5829922,23.4689829 13.4863561,27.1966504 12.7058537,30.975234 C11.9268639,34.6535284 8.29510732,37.8843795 7.56300813,41.5626739 C7.34131391,42.4061992 6.95152194,43.1940499 6.4179687,43.877037 C5.36217276,45.4322891 2.01781057,46.8995953 0.824367887,48.3900452 C0.905950374,48.5121914 0.995390424,48.6286798 1.09209837,48.7387426 C1.84839919,48.3900452 2.6047,48.0675772 3.33377398,47.7697958 C3.11444674,49.4099079 2.89511952,51.1009358 2.69999391,52.8151075 C2.64995575,53.2629063 2.8233116,53.7064747 3.16164665,53.9963456 C3.49998171,54.2862167 3.95824084,54.383789 4.38200691,54.2561843 C5.22252854,54.1428089 5.98931851,53.7076049 6.52687602,53.0388293 C7.59382934,51.1776236 8.335937,49.1416168 8.72014837,47.0214851 C9.06199634,43.8400072 11.766528,40.7079025 13.6663557,38.0988437 C15.8112248,35.1410876 17.9016402,32.7804372 18.5399581,30.0217164 C19.125335,27.61015 19.5881911,25.17544 20.0994504,22.739187 L20.0994504,22.7145005 C20.1306381,20.2789937 20.4645628,17.8573581 21.0932296,15.5075736 Z" id="Path_704" fill="#F4F4F4"></path>
                <path d="M17.4902126,49.5842565 C17.6144122,51.6884512 17.8833081,53.7811532 18.2949167,55.8469232 L29.7906891,55.8469232 C29.8632939,54.9211779 29.9858146,53.9830895 30.0584195,53.0696875 C30.0779343,52.9296936 30.0860292,52.7882897 30.0826211,52.6469304 C25.6957204,52.7579618 21.3560151,51.7024764 17.4902126,49.5842565 Z" id="Path_703" fill="#F4F4F4"></path>
                <path d="M19.6592833,13.5434508 C19.7318882,13.5187642 19.7818041,13.4940776 19.8544089,13.4693912 C19.9338577,13.4322049 20.0151431,13.3992453 20.0979378,13.370645 C20.1674603,13.347882 20.2332361,13.3145952 20.2930634,13.2718988 C20.3656683,13.2472123 20.4443235,13.1978392 20.5123907,13.1731526 L20.6636508,13.0990931 L20.9555829,12.9448022 C20.9797846,12.9201156 21.0039861,12.9201156 21.0281878,12.895429 C21.692591,12.5200034 22.3136149,12.069745 22.8796122,11.5530985 C22.9805991,11.4748902 23.0706707,11.3830139 23.1473426,11.2800036 L23.3424683,11.0809684 L23.4392748,10.9822222 C24.9751066,9.37515673 25.8922293,7.25768749 26.0227984,5.01733695 L26.0439748,4.99419332 C25.5868889,5.40155412 25.0575134,5.71580185 24.4844826,5.91993858 C23.1172479,6.57235568 21.7182923,7.1532434 20.2930634,7.66033966 C17.742456,8.10642736 15.8790211,10.3637565 15.8823171,13.0034327 C15.8581154,13.4508762 15.8339139,13.8736332 15.8097122,14.3210768 C16.9700636,14.3025991 18.1206338,14.1011834 19.2206289,13.7239711 L19.2448305,13.7239711 C19.3889109,13.6790839 19.5278563,13.6185644 19.6592833,13.5434508 Z" id="Path_709" fill="#F4F4F4"></path>
                <path d="M43.8790606,49.5842565 C43.754866,51.6884516 43.48597,53.781154 43.0743565,55.8469232 L31.5785841,55.8469232 C31.5059793,54.9211779 31.3834585,53.9830895 31.3108537,53.0696875 C31.291332,52.9296943 31.2832369,52.7882898 31.286652,52.6469304 C35.672939,52.7520196 40.0111772,51.6968911 43.8790606,49.5842565 Z" id="Path_728" fill="#F4F4F4"></path>
                <path d="M43.7081366,41.6552484 C42.9207026,39.5506531 42.001153,37.4999943 40.9552016,35.5160145 C37.5903329,36.4027092 34.1421785,36.9199508 30.6695106,37.0589232 C27.1966739,36.9218054 23.7483263,36.4045348 20.3838195,35.5160145 C19.3432491,37.5027173 18.4238569,39.5530248 17.6308846,41.6552484 C16.8057609,43.967673 16.361111,46.4033376 16.3149211,48.8637182 C16.6809707,49.1121265 17.071222,49.3605347 17.4599606,49.5842565 C21.3318285,51.6874864 25.671711,52.7320033 30.0569069,52.6160722 L31.2745513,52.6160722 C35.6597471,52.7320033 39.9996296,51.6874864 43.8714976,49.5842565 C44.2617487,49.3605347 44.6504874,49.1121265 45.016537,48.8637182 C44.9710093,46.4039527 44.5289702,43.9685933 43.7081366,41.6552484 Z" id="Path_729" fill="#F4F4F4"></path>
                <path d="M34.1091667,1.71396929 C33.2342975,0.717313727 31.9848095,0.147739667 30.6732921,0.147739667 C29.3617746,0.147739667 28.1122867,0.717313727 27.2374174,1.71396929 C27.351207,2.94317073 26.9122735,4.15867617 26.0439748,5.01887986 L26.0681765,5.04356639 C27.3105326,6.26544081 28.949628,6.97923985 30.6740484,7.04934779 C32.3974015,6.97442525 34.0348933,6.26132455 35.2799203,5.04356639 L35.304122,5.01887986 C34.4316491,4.16136802 33.9914797,2.94398315 34.1091667,1.71396929 Z" id="Path_730" fill="#F4F4F4"></path>
                <path d="M40.2730183,15.5075736 C39.9671453,14.3298704 39.5596737,13.1820959 39.055374,12.0776875 C39.4627693,12.3824407 39.8858972,12.6646843 40.3229341,12.9232014 C40.3471358,12.947888 40.3713374,12.947888 40.3955391,12.9725745 L40.6874711,13.1268654 L40.8387313,13.200925 C40.9070029,13.2440451 40.980818,13.2772784 41.0580585,13.2996712 C41.127581,13.3224342 41.1933568,13.355721 41.2531841,13.3984173 C41.3326308,13.4356087 41.4139164,13.4685684 41.496713,13.4971636 C41.5693179,13.52185 41.6192337,13.5465366 41.6918387,13.5712231 C41.8430987,13.6205962 41.9595691,13.6699693 42.1062915,13.725514 L42.1304931,13.725514 C43.2368861,14.1105465 44.3966447,14.3121403 45.5656113,14.3226197 C45.5926376,16.1137978 45.755476,17.9001589 46.0526691,19.6657128 C46.7832557,23.4689829 47.8798919,27.1966504 48.6603943,30.975234 C49.4393841,34.6535284 53.0711407,37.8843795 53.8032398,41.5626739 C54.0249341,42.4061992 54.414726,43.1940499 54.9482793,43.877037 C56.0207139,45.4430895 59.3590256,46.9088528 60.5524683,48.4008455 C60.4708894,48.5229944 60.3814491,48.6394831 60.2847378,48.7495429 C59.528437,48.4008455 58.7721361,48.0783776 58.0430622,47.7805962 C58.2623894,49.4207082 58.4817167,51.1117363 58.6768422,52.8259079 C58.7268804,53.2737067 58.5535245,53.717275 58.2151896,54.007146 C57.8768545,54.297017 57.4185953,54.3945894 56.9948293,54.2669846 C56.1543076,54.1536093 55.3875177,53.7184053 54.8499602,53.0496296 C53.7830068,51.1884239 53.0408991,49.1524172 52.6566878,47.0322855 C52.3148398,43.8508076 49.6103081,40.7187028 47.7104805,38.1096441 C45.5656113,35.151888 43.4751959,32.7912376 42.836878,30.0325167 C42.2515013,27.6209503 41.7886452,25.1862403 41.2773858,22.7499873 L41.2773858,22.7253008 C41.2194549,20.2876913 40.8823783,17.8653445 40.2730183,15.5075736 Z" id="Path_731" fill="#F4F4F4"></path>
                <path d="M41.6857882,13.5434508 C41.6131833,13.5187642 41.5632674,13.4940776 41.4906626,13.4693912 C41.4112139,13.4322049 41.3299285,13.3992453 41.2471337,13.370645 C41.1776113,13.347882 41.1118355,13.3145952 41.0520081,13.2718988 C40.9794033,13.2472123 40.900748,13.1978392 40.8326809,13.1731526 L40.6814207,13.0990931 L40.3894887,12.9448022 C40.365287,12.9201156 40.3410854,12.9201156 40.3168837,12.895429 C39.6524873,12.5199924 39.0314647,12.0697349 38.4654593,11.5530985 C38.3644724,11.4748902 38.2744008,11.3830139 38.1977289,11.2800036 L38.0026033,11.0809684 L37.9057967,10.9822222 C36.3699649,9.37515673 35.4528422,7.25768749 35.3222732,5.01733695 L35.3026093,4.99419332 C35.7596952,5.40155412 36.2890708,5.71580185 36.8621016,5.91993858 C38.2293342,6.57236058 39.62829,7.15324841 41.0535207,7.66033966 C43.6171598,8.08310244 45.4923145,10.3546288 45.4642671,13.0034327 C45.4884687,13.4508762 45.5126703,13.8736332 45.536872,14.3210768 C44.3765206,14.3025991 43.2259503,14.1011834 42.1259553,13.7239711 L42.1017537,13.7239711 C41.9588091,13.6746502 41.8197523,13.6143024 41.6857882,13.5434508 Z" id="Path_736" fill="#F4F4F4"></path>
                <path d="M41.2229321,22.8641626 C41.2229321,22.8888491 41.2471337,22.6651273 41.2471337,22.6898139 C41.1895348,20.2658789 40.8627432,17.8564161 40.2730183,15.5075736 C39.944079,14.3373624 39.5372529,13.191406 39.055374,12.0776875 C39.055374,12.0776875 38.6651228,11.7552195 38.4699972,11.5808708 C38.3690103,11.5026626 38.2789387,11.4107863 38.2022667,11.3077759 L38.0071411,11.1087407 L37.9103346,11.0099946 C36.3718674,9.39173335 35.4475803,7.26823117 35.3026093,5.01887986 L35.2784078,5.04356639 C34.0860256,6.34371913 32.4186906,7.08161973 30.6732921,7.08161973 C28.9278936,7.08161973 27.2605586,6.34371913 26.0681765,5.04356639 L26.0439748,5.01887986 C25.9046835,7.26920312 24.9795352,9.39413668 23.4362496,11.0084517 L23.3394431,11.1071978 L23.1443174,11.306233 L22.876587,11.5793279 C22.6814613,11.7536766 22.4863358,11.9280253 22.2912102,12.0761446 C21.8056238,13.1883423 21.3987027,14.3345663 21.0735659,15.5060307 C20.4600526,17.8500394 20.132868,20.2624006 20.0994504,22.688271 C20.0994504,22.6635844 20.123652,22.638898 20.123652,22.6142114 C20.659113,23.956542 20.8542387,25.2494995 21.2928931,26.5409142 C22.2902209,29.531418 21.9587869,32.8169407 20.3853321,35.5376151 C23.7502009,36.4243098 27.1983552,36.9415514 30.6710232,37.0805239 C34.1438598,36.9434061 37.5922074,36.4261355 40.9567142,35.5376151 C39.3832594,32.8169407 39.0518255,29.531418 40.0491533,26.5409142 C40.5180598,25.2510424 40.6874711,24.1818067 41.2229321,22.8641626 Z" id="Path_745" fill="#F4F4F4"></path>
                <path d="M39.055374,12.0530009 C38.8602484,11.89871 38.6651228,11.730533 38.4699972,11.5561843 C38.3690103,11.4779761 38.2789387,11.3860998 38.2022667,11.2830895 L38.0071411,11.0840542 L37.9103346,10.985308 C36.3707603,9.36750287 35.4453785,7.24394927 35.2995841,4.99419332 L35.2753826,5.01887986 C34.0830004,6.3190326 32.4156655,7.05693319 30.6702669,7.05693319 C28.9248684,7.05693319 27.2575333,6.3190326 26.0651513,5.01887986 L26.0439748,4.99419332 C25.9046835,7.24451657 24.9795352,9.36945012 23.4362496,10.9837651 L23.3394431,11.0825113 L23.1443174,11.2815465 L22.876587,11.5546414 C22.6814613,11.7289901 22.4863358,11.9033387 22.2912102,12.051458 C22.6073439,12.2998663 24.8989354,20.5019693 30.6725358,20.5019693 C36.1300024,20.5019693 38.7377276,12.2751798 39.0538613,12.051458 L39.055374,12.0530009 Z" id="Path_748" fill="#F4F4F4"></path>
                <path d="M39.0972052,12.0587949 C38.8985641,11.9023846 38.6999231,11.7350257 38.5012821,11.5614103 C38.3980294,11.483032 38.3059424,11.390945 38.2275641,11.2876923 L38.0289231,11.0890513 L37.9288205,10.9889487 C36.3601827,9.37121736 35.4177436,7.24851188 35.2698462,5 L35.2448205,5.02502564 C34.0291688,6.32252776 32.3305233,7.05874849 30.5525129,7.05874849 C28.7745025,7.05874849 27.0758569,6.32252776 25.8602052,5.02502564 L25.827359,5.0015641 C25.6857007,7.2516098 24.7423447,9.37638066 23.1683846,10.9905128 L23.0682821,11.0906154 L22.8696411,11.2892564 L22.5959231,11.5629744 C22.3972821,11.7365898 22.1986411,11.9102051 22,12.060359 C22.3237693,12.3090513 24.6589744,20.5065128 30.5478205,20.5065128 C36.1128975,20.5065128 38.7718718,12.2824616 39.0956411,12.060359 L39.0972052,12.0587949 Z" id="Path_243" fill="#D6D4D4"></path>
            </g>
        </g>
     </g>
</svg>