<?xml version="1.0" encoding="UTF-8"?>
<svg width="42px" height="237px" viewBox="0 0 42 237" version="1.1" xmlns="http://www.w3.org/2000/svg" xmlns:xlink="http://www.w3.org/1999/xlink">
    <!-- Generator: Sketch 51.1 (57501) - http://www.bohemiancoding.com/sketch -->
    <title>thumbnails_Vertical_10.1</title>
    <desc>Created with Sketch.</desc>
    <defs></defs>
    <g id="BodyParts-Thumbnail-Vertical" stroke="none" stroke-width="1" fill="none" fill-rule="evenodd">
        <g id="neckline_thumbnails" fill-rule="nonzero">
            <text id="ALL" fill-opacity="0.775334013" fill="#686868" font-family="Muli-Bold, Muli" font-size="14" font-weight="bold">
                <tspan x="7" y="14">ALL</tspan>
            </text>
            <g id="neckline_thumbnails_4" transform="translate(0.000000, 200)">
                <path d="M14.312275,10.52227 C14.5198174,9.72316943 14.7962968,8.94437625 15.1384767,8.19500795 C14.86205,8.40179221 14.5749473,8.59330138 14.2784059,8.76870994 C14.2619845,8.78546038 14.2455631,8.78546038 14.2291417,8.80221082 L14.0310586,8.90690098 L13.9284248,8.95715223 C13.8821071,8.98642231 13.8320201,9.00897263 13.7796059,9.02415392 C13.7324332,9.03959922 13.6878028,9.06218514 13.6472084,9.09115561 C13.5933019,9.11639086 13.5381476,9.13875485 13.4819681,9.15815737 C13.4327038,9.17490774 13.3988347,9.19165818 13.3495705,9.20840862 C13.2469368,9.24190943 13.1679088,9.27541031 13.0683541,9.31309878 L13.0519327,9.31309878 C12.3012178,9.57435277 11.5142931,9.71113911 10.7211205,9.71824968 C10.6945594,10.9331397 10.5841258,12.1446118 10.3906398,13.3436697 C9.89491884,15.924282 9.15082425,18.4535961 8.62123416,21.0174579 C8.09267041,23.5132712 5.62843429,25.705483 5.13168699,28.2012963 C4.98126201,28.7736489 4.71677857,29.308225 4.35474958,29.7716486 C3.63836608,30.8269253 1.36913409,31.8225287 0.559353882,32.8338356 C0.614709607,32.9167148 0.675396879,32.995755 0.7410156,33.0704353 C1.2541843,32.8338356 1.767353,32.6150331 2.26204763,32.4129811 C2.1132287,33.5258375 1.96440978,34.6732415 1.83201226,35.8363492 C1.79806014,36.1401916 1.91568634,36.4411637 2.145255,36.6378483 C2.37482365,36.8345329 2.68576375,36.9007381 2.97329944,36.8141552 C3.54361404,36.7372273 4.06389989,36.4419306 4.42864587,35.9881499 C5.15259994,34.7252761 5.65613824,33.3437954 5.9168351,31.9052339 C6.14878735,29.7465229 7.98387859,27.6213128 9.27295841,25.8510023 C10.7283048,23.8440921 12.1467031,22.2423327 12.5798175,20.3704728 C12.9770101,18.7341657 13.2910693,17.0821551 13.6379713,15.4290976 L13.6379713,15.4123471 C13.6591329,13.7597959 13.8857091,12.1166566 14.312275,10.52227 Z" id="Path_704" fill="#F4F4F4"></path>
                <path d="M11.8675393,33.6441373 C11.9518118,35.0718852 12.1342643,36.4918349 12.4135508,37.8935107 L20.2137151,37.8935107 C20.2629793,37.2653698 20.3461126,36.6288537 20.3953768,36.0090879 C20.408618,35.9140987 20.4141106,35.8181526 20.4117982,35.7222369 C17.4351782,35.7975744 14.4905814,35.0814016 11.8675393,33.6441373 Z" id="Path_703" fill="#F4F4F4"></path>
                <path d="M13.3393072,9.18956438 C13.3885713,9.17281394 13.4224405,9.1560635 13.4717047,9.13931313 C13.5256126,9.11408133 13.5807668,9.09171741 13.636945,9.07231144 C13.6841177,9.05686614 13.7287482,9.03428022 13.7693425,9.00530968 C13.8186067,8.98855931 13.8719763,8.95505843 13.9181615,8.93830799 L14.0207952,8.88805674 L14.2188783,8.78336658 C14.2352997,8.76661614 14.2517211,8.76661614 14.2681425,8.7498657 C14.7189564,8.49513016 15.1403364,8.18961879 15.5243795,7.8390614 C15.5929016,7.78599518 15.6540174,7.72365485 15.7060412,7.6537598 L15.8384387,7.51870952 L15.9041243,7.45170783 C16.946224,6.36127438 17.5685143,4.92451943 17.6571086,3.40438649 L17.6714773,3.38868297 C17.3613333,3.66508729 17.002139,3.87831211 16.6133235,4.0168239 C15.6856211,4.45950494 14.7363954,4.85365155 13.7693425,5.19772883 C12.0386927,5.5004103 10.7743063,7.0320636 10.7765427,8.82314885 C10.7601213,9.12675029 10.7436999,9.41360128 10.7272785,9.71720279 C11.5146054,9.7046652 12.2952956,9.56799968 13.0416693,9.31205188 L13.0580907,9.31205188 C13.1558528,9.2815948 13.2501307,9.24053083 13.3393072,9.18956438 Z" id="Path_709" fill="#F4F4F4"></path>
                <path d="M29.7730216,33.6441373 C29.6887525,35.0718855 29.5062999,36.4918355 29.2270101,37.8935107 L21.4268458,37.8935107 C21.3775817,37.2653698 21.2944483,36.6288537 21.2451842,36.0090879 C21.2319382,35.9140992 21.2264455,35.8181527 21.2287627,35.7222369 C24.2049663,35.7935425 27.1485676,35.0776119 29.7730216,33.6441373 Z" id="Path_728" fill="#F4F4F4"></path>
                <path d="M29.6570455,28.2641104 C29.1227521,26.8360907 28.4988151,25.4446683 27.7891114,24.0984892 C25.5059652,24.7001333 23.1663077,25.0510945 20.8100171,25.1453907 C18.453612,25.0523529 16.1138234,24.701372 13.8309228,24.0984892 C13.1248702,25.4465159 12.50104,26.8377 11.9629887,28.2641104 C11.403122,29.8331473 11.1014162,31.4858056 11.0700752,33.1552344 C11.3184488,33.3237855 11.5832439,33.4923366 11.8470126,33.6441373 C14.4741702,35.0712305 17.4188872,35.779961 20.3943504,35.7012989 L21.2205521,35.7012989 C24.1960153,35.779961 27.1407323,35.0712305 29.7678899,33.6441373 C30.0326849,33.4923366 30.2964537,33.3237855 30.5448273,33.1552344 C30.5139356,31.486223 30.2140013,29.8337718 29.6570455,28.2641104 Z" id="Path_729" fill="#F4F4F4"></path>
                <path d="M23.1439083,1.16297031 C22.5502881,0.486715003 21.7024798,0.100244997 20.8125829,0.100244997 C19.9226861,0.100244997 19.0748778,0.486715003 18.4812575,1.16297031 C18.5584665,1.99701371 18.2606394,2.82176404 17.6714773,3.4054334 L17.6878987,3.42218382 C18.530868,4.25125566 19.6430345,4.73558586 20.8130961,4.78315582 C21.9824336,4.73231903 23.093512,4.24846268 23.9382935,3.42218382 L23.9547149,3.4054334 C23.3627206,2.82359053 23.0640548,1.99756496 23.1439083,1.16297031 Z" id="Path_730" fill="#F4F4F4"></path>
                <path d="M27.3262332,10.52227 C27.1186909,9.72316943 26.8422114,8.94437625 26.5000317,8.19500795 C26.7764594,8.40179052 27.063562,8.59329969 27.3601023,8.76870994 C27.3765238,8.78546038 27.3929452,8.78546038 27.4093666,8.80221082 L27.6074497,8.90690098 L27.7100834,8.95715223 C27.7564074,8.98641028 27.8064927,9.00895989 27.8589023,9.02415392 C27.9060751,9.03959922 27.9507056,9.06218514 27.9912998,9.09115561 C28.0452064,9.11639086 28.1003606,9.13875485 28.1565402,9.15815737 C28.2058044,9.17490774 28.2396735,9.19165818 28.2889377,9.20840862 C28.3915714,9.24190943 28.4705994,9.27541031 28.5701542,9.31309878 L28.5865756,9.31309878 C29.3372904,9.57435277 30.1242152,9.71113911 30.9173878,9.71824968 C30.9357257,10.933608 31.0462156,12.145698 31.2478684,13.3436697 C31.7435894,15.924282 32.487684,18.4535961 33.0172741,21.0174579 C33.5458378,23.5132712 36.010074,25.705483 36.5068213,28.2012963 C36.6572462,28.7736489 36.9217297,29.308225 37.2837587,29.7716486 C38.0114319,30.8342537 40.2765585,31.8288101 41.0863387,32.8411639 C41.0309854,32.9240449 40.970298,33.0030853 40.904677,33.0777636 C40.3915083,32.8411639 39.8783396,32.6223615 39.383645,32.4203094 C39.5324639,33.5331658 39.6812828,34.6805699 39.8136803,35.8436775 C39.8476325,36.14752 39.7300062,36.448492 39.5004376,36.6451766 C39.270869,36.8418612 38.9599289,36.9080665 38.6723932,36.8214835 C38.1020786,36.7445555 37.5817927,36.4492589 37.2170467,35.9954782 C36.4930927,34.7326043 35.9895543,33.3511237 35.7288575,31.9125622 C35.4969053,29.7538512 33.661814,27.6286411 32.3727342,25.8583307 C30.9173878,23.8514204 29.4989895,22.2496611 29.0658751,20.3778011 C28.6686826,18.741494 28.3546233,17.0894834 28.0077213,15.4364258 L28.0077213,15.4196754 C27.9684137,13.7656974 27.739699,12.1220756 27.3262332,10.52227 Z" id="Path_731" fill="#F4F4F4"></path>
                <path d="M28.2848323,9.18956438 C28.2355682,9.17281394 28.201699,9.1560635 28.1524348,9.13931313 C28.0985269,9.11408133 28.0433728,9.09171741 27.9871945,9.07231144 C27.9400218,9.05686614 27.8953913,9.03428022 27.854797,9.00530968 C27.8055328,8.98855931 27.7521633,8.95505843 27.7059781,8.93830799 L27.6033443,8.88805674 L27.4052612,8.78336658 C27.3888398,8.76661614 27.3724184,8.76661614 27.355997,8.7498657 C26.9051877,8.4951227 26.4838086,8.1896119 26.09976,7.8390614 C26.0312379,7.78599518 25.9701221,7.72365485 25.9180983,7.6537598 L25.7857008,7.51870952 L25.7200152,7.45170783 C24.6779156,6.36127438 24.0556252,4.92451943 23.9670309,3.40438649 L23.9536885,3.38868297 C24.2638325,3.66508729 24.6230269,3.87831211 25.0118424,4.0168239 C25.9395433,4.45950827 26.8887692,4.85365494 27.8558233,5.19772883 C29.5953155,5.48458377 30.8676541,7.02587024 30.8486232,8.82314885 C30.8650446,9.12675029 30.881466,9.41360128 30.8978874,9.71720279 C30.1105605,9.7046652 29.3298702,9.56799968 28.5834966,9.31205188 L28.5670752,9.31205188 C28.4700838,9.2785864 28.3757303,9.23763895 28.2848323,9.18956438 Z" id="Path_736" fill="#F4F4F4"></path>
                <path d="M27.9707731,15.5138966 C27.9707731,15.530647 27.9871945,15.3788462 27.9871945,15.3955967 C27.9481122,13.7508972 27.7263761,12.1160174 27.3262332,10.52227 C27.1030398,9.72825292 26.8269983,8.95069338 26.5000317,8.19500795 C26.5000317,8.19500795 26.2352366,7.97620547 26.1028391,7.85790563 C26.034317,7.80483941 25.9732012,7.74249909 25.9211773,7.67260404 L25.7887798,7.53755376 L25.7230942,7.47055207 C24.6792064,6.37252202 24.0520549,4.93167358 23.9536885,3.4054334 L23.9372672,3.42218382 C23.1282066,4.30436942 21.9968788,4.80505313 20.8125829,4.80505313 C19.6282871,4.80505313 18.4969594,4.30436942 17.6878987,3.42218382 L17.6714773,3.4054334 C17.5769648,4.93233307 16.9492289,6.37415274 15.9020717,7.46950517 L15.8363861,7.53650686 L15.7039885,7.67155714 L15.5223268,7.85685874 C15.3899293,7.97515857 15.2575318,8.09345848 15.1251342,8.19396105 C14.795652,8.94861457 14.519546,9.72635572 14.2989327,10.5212231 C13.8826488,12.1116907 13.660646,13.748537 13.6379713,15.3945498 C13.6379713,15.3777993 13.6543927,15.361049 13.6543927,15.3442985 C14.0177162,16.2551028 14.1501137,17.1324063 14.4477516,18.0086629 C15.124463,20.0377933 14.8995769,22.2671012 13.8319491,24.1131457 C16.1150953,24.7147899 18.4547528,25.065751 20.8110434,25.1600473 C23.1674485,25.0670095 25.5072371,24.7160287 27.7901377,24.1131457 C26.7225099,22.2671012 26.4976239,20.0377933 27.1743353,18.0086629 C27.4924999,17.1334532 27.6074497,16.4079504 27.9707731,15.5138966 Z" id="Path_745" fill="#F4F4F4"></path>
                <path d="M26.5000317,8.17825751 C26.3676341,8.07356735 26.2352366,7.9594551 26.1028391,7.84115519 C26.034317,7.78808904 25.9732012,7.72574872 25.9211773,7.65585367 L25.7887798,7.52080332 L25.7230942,7.45380163 C24.6784552,6.35608105 24.0505609,4.91519771 23.9516358,3.38868297 L23.9352145,3.4054334 C23.1261539,4.287619 21.9948261,4.7883027 20.8105303,4.7883027 C19.6262345,4.7883027 18.4949066,4.287619 17.6858461,3.4054334 L17.6714773,3.38868297 C17.5769648,4.91558264 16.9492289,6.3574023 15.9020717,7.45275473 L15.8363861,7.51975642 L15.7039885,7.6548067 L15.5223268,7.8401083 C15.3899293,7.9584082 15.2575318,8.07670804 15.1251342,8.17721061 C15.3396388,8.34576177 16.8945399,13.9110903 20.8120698,13.9110903 C24.5150951,13.9110903 26.2845008,8.32901133 26.4990053,8.17721061 L26.5000317,8.17825751 Z" id="Path_748" fill="#F4F4F4"></path>
                <path d="M23.2497753,1.06272531 C22.9257391,0.510280482 22.1494973,1.32406436 20.918963,1.32406436 C19.6884287,1.32406436 18.8266651,0.510280482 18.5871244,1.06272531 C18.6643335,1.89676872 18.3665063,2.72151905 17.7773443,3.3051884 L17.7937657,3.32193882 C18.6367349,4.15101066 19.7489014,4.63534086 20.918963,4.68291082 C22.0883005,4.63207403 23.1993789,4.14821768 24.0441604,3.32193882 L24.0605818,3.3051884 C23.4685875,2.72334553 23.1699217,1.89731996 23.2497753,1.06272531 Z" id="Path_730-2" fill="#676767"></path>
            </g>
            <g id="neckline_thumbnails_3" transform="translate(0.000000, 158)">
                <g id="top_collar_thumbnails_0-copy-3" transform="translate(-0.000000, 0.000000)" fill="#F4F4F4">
                    <path d="M14.312275,10.52227 C14.5198174,9.72316943 14.7962968,8.94437625 15.1384767,8.19500795 C14.86205,8.40179221 14.5749473,8.59330138 14.2784059,8.76870994 C14.2619845,8.78546038 14.2455631,8.78546038 14.2291417,8.80221082 L14.0310586,8.90690098 L13.9284248,8.95715223 C13.8821071,8.98642231 13.8320201,9.00897263 13.7796059,9.02415392 C13.7324332,9.03959922 13.6878028,9.06218514 13.6472084,9.09115561 C13.5933019,9.11639086 13.5381476,9.13875485 13.4819681,9.15815737 C13.4327038,9.17490774 13.3988347,9.19165818 13.3495705,9.20840862 C13.2469368,9.24190943 13.1679088,9.27541031 13.0683541,9.31309878 L13.0519327,9.31309878 C12.3012178,9.57435277 11.5142931,9.71113911 10.7211205,9.71824968 C10.6945594,10.9331397 10.5841258,12.1446118 10.3906398,13.3436697 C9.89491884,15.924282 9.15082425,18.4535961 8.62123416,21.0174579 C8.09267041,23.5132712 5.62843429,25.705483 5.13168699,28.2012963 C4.98126201,28.7736489 4.71677857,29.308225 4.35474958,29.7716486 C3.63836608,30.8269253 1.36913409,31.8225287 0.559353882,32.8338356 C0.614709607,32.9167148 0.675396879,32.995755 0.7410156,33.0704353 C1.2541843,32.8338356 1.767353,32.6150331 2.26204763,32.4129811 C2.1132287,33.5258375 1.96440978,34.6732415 1.83201226,35.8363492 C1.79806014,36.1401916 1.91568634,36.4411637 2.145255,36.6378483 C2.37482365,36.8345329 2.68576375,36.9007381 2.97329944,36.8141552 C3.54361404,36.7372273 4.06389989,36.4419306 4.42864587,35.9881499 C5.15259994,34.7252761 5.65613824,33.3437954 5.9168351,31.9052339 C6.14878735,29.7465229 7.98387859,27.6213128 9.27295841,25.8510023 C10.7283048,23.8440921 12.1467031,22.2423327 12.5798175,20.3704728 C12.9770101,18.7341657 13.2910693,17.0821551 13.6379713,15.4290976 L13.6379713,15.4123471 C13.6591329,13.7597959 13.8857091,12.1166566 14.312275,10.52227 Z" id="Path_704"></path>
                    <path d="M11.8675393,33.6441373 C11.9518118,35.0718852 12.1342643,36.4918349 12.4135508,37.8935107 L20.2137151,37.8935107 C20.2629793,37.2653698 20.3461126,36.6288537 20.3953768,36.0090879 C20.408618,35.9140987 20.4141106,35.8181526 20.4117982,35.7222369 C17.4351782,35.7975744 14.4905814,35.0814016 11.8675393,33.6441373 Z" id="Path_703"></path>
                    <path d="M13.3393072,9.18956438 C13.3885713,9.17281394 13.4224405,9.1560635 13.4717047,9.13931313 C13.5256126,9.11408133 13.5807668,9.09171741 13.636945,9.07231144 C13.6841177,9.05686614 13.7287482,9.03428022 13.7693425,9.00530968 C13.8186067,8.98855931 13.8719763,8.95505843 13.9181615,8.93830799 L14.0207952,8.88805674 L14.2188783,8.78336658 C14.2352997,8.76661614 14.2517211,8.76661614 14.2681425,8.7498657 C14.7189564,8.49513016 15.1403364,8.18961879 15.5243795,7.8390614 C15.5929016,7.78599518 15.6540174,7.72365485 15.7060412,7.6537598 L15.8384387,7.51870952 L15.9041243,7.45170783 C16.946224,6.36127438 17.5685143,4.92451943 17.6571086,3.40438649 L17.6714773,3.38868297 C17.3613333,3.66508729 17.002139,3.87831211 16.6133235,4.0168239 C15.6856211,4.45950494 14.7363954,4.85365155 13.7693425,5.19772883 C12.0386927,5.5004103 10.7743063,7.0320636 10.7765427,8.82314885 C10.7601213,9.12675029 10.7436999,9.41360128 10.7272785,9.71720279 C11.5146054,9.7046652 12.2952956,9.56799968 13.0416693,9.31205188 L13.0580907,9.31205188 C13.1558528,9.2815948 13.2501307,9.24053083 13.3393072,9.18956438 Z" id="Path_709"></path>
                    <path d="M29.7730216,33.6441373 C29.6887525,35.0718855 29.5062999,36.4918355 29.2270101,37.8935107 L21.4268458,37.8935107 C21.3775817,37.2653698 21.2944483,36.6288537 21.2451842,36.0090879 C21.2319382,35.9140992 21.2264455,35.8181527 21.2287627,35.7222369 C24.2049663,35.7935425 27.1485676,35.0776119 29.7730216,33.6441373 Z" id="Path_728"></path>
                    <path d="M29.6570455,28.2641104 C29.1227521,26.8360907 28.4988151,25.4446683 27.7891114,24.0984892 C25.5059652,24.7001333 23.1663077,25.0510945 20.8100171,25.1453907 C18.453612,25.0523529 16.1138234,24.701372 13.8309228,24.0984892 C13.1248702,25.4465159 12.50104,26.8377 11.9629887,28.2641104 C11.403122,29.8331473 11.1014162,31.4858056 11.0700752,33.1552344 C11.3184488,33.3237855 11.5832439,33.4923366 11.8470126,33.6441373 C14.4741702,35.0712305 17.4188872,35.779961 20.3943504,35.7012989 L21.2205521,35.7012989 C24.1960153,35.779961 27.1407323,35.0712305 29.7678899,33.6441373 C30.0326849,33.4923366 30.2964537,33.3237855 30.5448273,33.1552344 C30.5139356,31.486223 30.2140013,29.8337718 29.6570455,28.2641104 Z" id="Path_729"></path>
                    <path d="M23.1439083,1.16297031 C22.5502881,0.486715003 21.7024798,0.100244997 20.8125829,0.100244997 C19.9226861,0.100244997 19.0748778,0.486715003 18.4812575,1.16297031 C18.5584665,1.99701371 18.2606394,2.82176404 17.6714773,3.4054334 L17.6878987,3.42218382 C18.530868,4.25125566 19.6430345,4.73558586 20.8130961,4.78315582 C21.9824336,4.73231903 23.093512,4.24846268 23.9382935,3.42218382 L23.9547149,3.4054334 C23.3627206,2.82359053 23.0640548,1.99756496 23.1439083,1.16297031 Z" id="Path_730"></path>
                    <path d="M27.3262332,10.52227 C27.1186909,9.72316943 26.8422114,8.94437625 26.5000317,8.19500795 C26.7764594,8.40179052 27.063562,8.59329969 27.3601023,8.76870994 C27.3765238,8.78546038 27.3929452,8.78546038 27.4093666,8.80221082 L27.6074497,8.90690098 L27.7100834,8.95715223 C27.7564074,8.98641028 27.8064927,9.00895989 27.8589023,9.02415392 C27.9060751,9.03959922 27.9507056,9.06218514 27.9912998,9.09115561 C28.0452064,9.11639086 28.1003606,9.13875485 28.1565402,9.15815737 C28.2058044,9.17490774 28.2396735,9.19165818 28.2889377,9.20840862 C28.3915714,9.24190943 28.4705994,9.27541031 28.5701542,9.31309878 L28.5865756,9.31309878 C29.3372904,9.57435277 30.1242152,9.71113911 30.9173878,9.71824968 C30.9357257,10.933608 31.0462156,12.145698 31.2478684,13.3436697 C31.7435894,15.924282 32.487684,18.4535961 33.0172741,21.0174579 C33.5458378,23.5132712 36.010074,25.705483 36.5068213,28.2012963 C36.6572462,28.7736489 36.9217297,29.308225 37.2837587,29.7716486 C38.0114319,30.8342537 40.2765585,31.8288101 41.0863387,32.8411639 C41.0309854,32.9240449 40.970298,33.0030853 40.904677,33.0777636 C40.3915083,32.8411639 39.8783396,32.6223615 39.383645,32.4203094 C39.5324639,33.5331658 39.6812828,34.6805699 39.8136803,35.8436775 C39.8476325,36.14752 39.7300062,36.448492 39.5004376,36.6451766 C39.270869,36.8418612 38.9599289,36.9080665 38.6723932,36.8214835 C38.1020786,36.7445555 37.5817927,36.4492589 37.2170467,35.9954782 C36.4930927,34.7326043 35.9895543,33.3511237 35.7288575,31.9125622 C35.4969053,29.7538512 33.661814,27.6286411 32.3727342,25.8583307 C30.9173878,23.8514204 29.4989895,22.2496611 29.0658751,20.3778011 C28.6686826,18.741494 28.3546233,17.0894834 28.0077213,15.4364258 L28.0077213,15.4196754 C27.9684137,13.7656974 27.739699,12.1220756 27.3262332,10.52227 Z" id="Path_731"></path>
                    <path d="M28.2848323,9.18956438 C28.2355682,9.17281394 28.201699,9.1560635 28.1524348,9.13931313 C28.0985269,9.11408133 28.0433728,9.09171741 27.9871945,9.07231144 C27.9400218,9.05686614 27.8953913,9.03428022 27.854797,9.00530968 C27.8055328,8.98855931 27.7521633,8.95505843 27.7059781,8.93830799 L27.6033443,8.88805674 L27.4052612,8.78336658 C27.3888398,8.76661614 27.3724184,8.76661614 27.355997,8.7498657 C26.9051877,8.4951227 26.4838086,8.1896119 26.09976,7.8390614 C26.0312379,7.78599518 25.9701221,7.72365485 25.9180983,7.6537598 L25.7857008,7.51870952 L25.7200152,7.45170783 C24.6779156,6.36127438 24.0556252,4.92451943 23.9670309,3.40438649 L23.9536885,3.38868297 C24.2638325,3.66508729 24.6230269,3.87831211 25.0118424,4.0168239 C25.9395433,4.45950827 26.8887692,4.85365494 27.8558233,5.19772883 C29.5953155,5.48458377 30.8676541,7.02587024 30.8486232,8.82314885 C30.8650446,9.12675029 30.881466,9.41360128 30.8978874,9.71720279 C30.1105605,9.7046652 29.3298702,9.56799968 28.5834966,9.31205188 L28.5670752,9.31205188 C28.4700838,9.2785864 28.3757303,9.23763895 28.2848323,9.18956438 Z" id="Path_736"></path>
                    <path d="M27.9707731,15.5138966 C27.9707731,15.530647 27.9871945,15.3788462 27.9871945,15.3955967 C27.9481122,13.7508972 27.7263761,12.1160174 27.3262332,10.52227 C27.1030398,9.72825292 26.8269983,8.95069338 26.5000317,8.19500795 C26.5000317,8.19500795 26.2352366,7.97620547 26.1028391,7.85790563 C26.034317,7.80483941 25.9732012,7.74249909 25.9211773,7.67260404 L25.7887798,7.53755376 L25.7230942,7.47055207 C24.6792064,6.37252202 24.0520549,4.93167358 23.9536885,3.4054334 L23.9372672,3.42218382 C23.1282066,4.30436942 21.9968788,4.80505313 20.8125829,4.80505313 C19.6282871,4.80505313 18.4969594,4.30436942 17.6878987,3.42218382 L17.6714773,3.4054334 C17.5769648,4.93233307 16.9492289,6.37415274 15.9020717,7.46950517 L15.8363861,7.53650686 L15.7039885,7.67155714 L15.5223268,7.85685874 C15.3899293,7.97515857 15.2575318,8.09345848 15.1251342,8.19396105 C14.795652,8.94861457 14.519546,9.72635572 14.2989327,10.5212231 C13.8826488,12.1116907 13.660646,13.748537 13.6379713,15.3945498 C13.6379713,15.3777993 13.6543927,15.361049 13.6543927,15.3442985 C14.0177162,16.2551028 14.1501137,17.1324063 14.4477516,18.0086629 C15.124463,20.0377933 14.8995769,22.2671012 13.8319491,24.1131457 C16.1150953,24.7147899 18.4547528,25.065751 20.8110434,25.1600473 C23.1674485,25.0670095 25.5072371,24.7160287 27.7901377,24.1131457 C26.7225099,22.2671012 26.4976239,20.0377933 27.1743353,18.0086629 C27.4924999,17.1334532 27.6074497,16.4079504 27.9707731,15.5138966 Z" id="Path_745"></path>
                    <path d="M26.5000317,8.17825751 C26.3676341,8.07356735 26.2352366,7.9594551 26.1028391,7.84115519 C26.034317,7.78808904 25.9732012,7.72574872 25.9211773,7.65585367 L25.7887798,7.52080332 L25.7230942,7.45380163 C24.6784552,6.35608105 24.0505609,4.91519771 23.9516358,3.38868297 L23.9352145,3.4054334 C23.1261539,4.287619 21.9948261,4.7883027 20.8105303,4.7883027 C19.6262345,4.7883027 18.4949066,4.287619 17.6858461,3.4054334 L17.6714773,3.38868297 C17.5769648,4.91558264 16.9492289,6.3574023 15.9020717,7.45275473 L15.8363861,7.51975642 L15.7039885,7.6548067 L15.5223268,7.8401083 C15.3899293,7.9584082 15.2575318,8.07670804 15.1251342,8.17721061 C15.3396388,8.34576177 16.8945399,13.9110903 20.8120698,13.9110903 C24.5150951,13.9110903 26.2845008,8.32901133 26.4990053,8.17721061 L26.5000317,8.17825751 Z" id="Path_748"></path>
                </g>
                <g id="neckline_2_for_shoulder_4" transform="translate(16.641639, 1.714098)" fill="#676767">
                    <g id="neckline_2_for_shoulder_4_1">
                        <path d="M7.43518747,1.81986325 C7.38568823,1.75322965 7.15182326,1.55960906 6.96290103,1.29361519 C6.78944954,1.04940343 6.66083646,0.732615514 6.59743245,0.646865363 C5.76218852,1.47145953 4.60280461,1.54035297 4.25134623,1.54035297 C3.89988784,1.54035297 2.33749657,1.31917269 1.74324716,0.646865363 C1.7207395,0.713438395 1.61705469,0.942620332 1.42772005,1.21719376 C1.2415348,1.48719995 0.969834099,1.80307433 0.926662603,1.81986325 C0.977774613,2.02647735 2.71748305,3.34605924 4.33543383,3.33382183 C5.87547197,3.32217371 7.43518747,1.83572112 7.43518747,1.81986325 Z" id="neckline_top_2"></path>
                    </g>
                </g>
            </g>
            <g id="neckline_thumbnails_2" transform="translate(0.000000, 116.000000)">
                <path d="M14.312275,10.52227 C14.5198174,9.72316943 14.7962968,8.94437625 15.1384767,8.19500795 C14.86205,8.40179221 14.5749473,8.59330138 14.2784059,8.76870994 C14.2619845,8.78546038 14.2455631,8.78546038 14.2291417,8.80221082 L14.0310586,8.90690098 L13.9284248,8.95715223 C13.8821071,8.98642231 13.8320201,9.00897263 13.7796059,9.02415392 C13.7324332,9.03959922 13.6878028,9.06218514 13.6472084,9.09115561 C13.5933019,9.11639086 13.5381476,9.13875485 13.4819681,9.15815737 C13.4327038,9.17490774 13.3988347,9.19165818 13.3495705,9.20840862 C13.2469368,9.24190943 13.1679088,9.27541031 13.0683541,9.31309878 L13.0519327,9.31309878 C12.3012178,9.57435277 11.5142931,9.71113911 10.7211205,9.71824968 C10.6945594,10.9331397 10.5841258,12.1446118 10.3906398,13.3436697 C9.89491884,15.924282 9.15082425,18.4535961 8.62123416,21.0174579 C8.09267041,23.5132712 5.62843429,25.705483 5.13168699,28.2012963 C4.98126201,28.7736489 4.71677857,29.308225 4.35474958,29.7716486 C3.63836608,30.8269253 1.36913409,31.8225287 0.559353882,32.8338356 C0.614709607,32.9167148 0.675396879,32.995755 0.7410156,33.0704353 C1.2541843,32.8338356 1.767353,32.6150331 2.26204763,32.4129811 C2.1132287,33.5258375 1.96440978,34.6732415 1.83201226,35.8363492 C1.79806014,36.1401916 1.91568634,36.4411637 2.145255,36.6378483 C2.37482365,36.8345329 2.68576375,36.9007381 2.97329944,36.8141552 C3.54361404,36.7372273 4.06389989,36.4419306 4.42864587,35.9881499 C5.15259994,34.7252761 5.65613824,33.3437954 5.9168351,31.9052339 C6.14878735,29.7465229 7.98387859,27.6213128 9.27295841,25.8510023 C10.7283048,23.8440921 12.1467031,22.2423327 12.5798175,20.3704728 C12.9770101,18.7341657 13.2910693,17.0821551 13.6379713,15.4290976 L13.6379713,15.4123471 C13.6591329,13.7597959 13.8857091,12.1166566 14.312275,10.52227 Z" id="Path_704" fill="#F4F4F4"></path>
                <path d="M11.8675393,33.6441373 C11.9518118,35.0718852 12.1342643,36.4918349 12.4135508,37.8935107 L20.2137151,37.8935107 C20.2629793,37.2653698 20.3461126,36.6288537 20.3953768,36.0090879 C20.408618,35.9140987 20.4141106,35.8181526 20.4117982,35.7222369 C17.4351782,35.7975744 14.4905814,35.0814016 11.8675393,33.6441373 Z" id="Path_703" fill="#F4F4F4"></path>
                <path d="M13.3393072,9.18956438 C13.3885713,9.17281394 13.4224405,9.1560635 13.4717047,9.13931313 C13.5256126,9.11408133 13.5807668,9.09171741 13.636945,9.07231144 C13.6841177,9.05686614 13.7287482,9.03428022 13.7693425,9.00530968 C13.8186067,8.98855931 13.8719763,8.95505843 13.9181615,8.93830799 L14.0207952,8.88805674 L14.2188783,8.78336658 C14.2352997,8.76661614 14.2517211,8.76661614 14.2681425,8.7498657 C14.7189564,8.49513016 15.1403364,8.18961879 15.5243795,7.8390614 C15.5929016,7.78599518 15.6540174,7.72365485 15.7060412,7.6537598 L15.8384387,7.51870952 L15.9041243,7.45170783 C16.946224,6.36127438 17.5685143,4.92451943 17.6571086,3.40438649 L17.6714773,3.38868297 C17.3613333,3.66508729 17.002139,3.87831211 16.6133235,4.0168239 C15.6856211,4.45950494 14.7363954,4.85365155 13.7693425,5.19772883 C12.0386927,5.5004103 10.7743063,7.0320636 10.7765427,8.82314885 C10.7601213,9.12675029 10.7436999,9.41360128 10.7272785,9.71720279 C11.5146054,9.7046652 12.2952956,9.56799968 13.0416693,9.31205188 L13.0580907,9.31205188 C13.1558528,9.2815948 13.2501307,9.24053083 13.3393072,9.18956438 Z" id="Path_709" fill="#F4F4F4"></path>
                <path d="M29.7730216,33.6441373 C29.6887525,35.0718855 29.5062999,36.4918355 29.2270101,37.8935107 L21.4268458,37.8935107 C21.3775817,37.2653698 21.2944483,36.6288537 21.2451842,36.0090879 C21.2319382,35.9140992 21.2264455,35.8181527 21.2287627,35.7222369 C24.2049663,35.7935425 27.1485676,35.0776119 29.7730216,33.6441373 Z" id="Path_728" fill="#F4F4F4"></path>
                <path d="M29.6570455,28.2641104 C29.1227521,26.8360907 28.4988151,25.4446683 27.7891114,24.0984892 C25.5059652,24.7001333 23.1663077,25.0510945 20.8100171,25.1453907 C18.453612,25.0523529 16.1138234,24.701372 13.8309228,24.0984892 C13.1248702,25.4465159 12.50104,26.8377 11.9629887,28.2641104 C11.403122,29.8331473 11.1014162,31.4858056 11.0700752,33.1552344 C11.3184488,33.3237855 11.5832439,33.4923366 11.8470126,33.6441373 C14.4741702,35.0712305 17.4188872,35.779961 20.3943504,35.7012989 L21.2205521,35.7012989 C24.1960153,35.779961 27.1407323,35.0712305 29.7678899,33.6441373 C30.0326849,33.4923366 30.2964537,33.3237855 30.5448273,33.1552344 C30.5139356,31.486223 30.2140013,29.8337718 29.6570455,28.2641104 Z" id="Path_729" fill="#F4F4F4"></path>
                <path d="M23.1439083,1.16297031 C22.5502881,0.486715003 21.7024798,0.100244997 20.8125829,0.100244997 C19.9226861,0.100244997 19.0748778,0.486715003 18.4812575,1.16297031 C18.5584665,1.99701371 18.2606394,2.82176404 17.6714773,3.4054334 L17.6878987,3.42218382 C18.530868,4.25125566 19.6430345,4.73558586 20.8130961,4.78315582 C21.9824336,4.73231903 23.093512,4.24846268 23.9382935,3.42218382 L23.9547149,3.4054334 C23.3627206,2.82359053 23.0640548,1.99756496 23.1439083,1.16297031 Z" id="Path_730" fill="#F4F4F4"></path>
                <path d="M27.3262332,10.52227 C27.1186909,9.72316943 26.8422114,8.94437625 26.5000317,8.19500795 C26.7764594,8.40179052 27.063562,8.59329969 27.3601023,8.76870994 C27.3765238,8.78546038 27.3929452,8.78546038 27.4093666,8.80221082 L27.6074497,8.90690098 L27.7100834,8.95715223 C27.7564074,8.98641028 27.8064927,9.00895989 27.8589023,9.02415392 C27.9060751,9.03959922 27.9507056,9.06218514 27.9912998,9.09115561 C28.0452064,9.11639086 28.1003606,9.13875485 28.1565402,9.15815737 C28.2058044,9.17490774 28.2396735,9.19165818 28.2889377,9.20840862 C28.3915714,9.24190943 28.4705994,9.27541031 28.5701542,9.31309878 L28.5865756,9.31309878 C29.3372904,9.57435277 30.1242152,9.71113911 30.9173878,9.71824968 C30.9357257,10.933608 31.0462156,12.145698 31.2478684,13.3436697 C31.7435894,15.924282 32.487684,18.4535961 33.0172741,21.0174579 C33.5458378,23.5132712 36.010074,25.705483 36.5068213,28.2012963 C36.6572462,28.7736489 36.9217297,29.308225 37.2837587,29.7716486 C38.0114319,30.8342537 40.2765585,31.8288101 41.0863387,32.8411639 C41.0309854,32.9240449 40.970298,33.0030853 40.904677,33.0777636 C40.3915083,32.8411639 39.8783396,32.6223615 39.383645,32.4203094 C39.5324639,33.5331658 39.6812828,34.6805699 39.8136803,35.8436775 C39.8476325,36.14752 39.7300062,36.448492 39.5004376,36.6451766 C39.270869,36.8418612 38.9599289,36.9080665 38.6723932,36.8214835 C38.1020786,36.7445555 37.5817927,36.4492589 37.2170467,35.9954782 C36.4930927,34.7326043 35.9895543,33.3511237 35.7288575,31.9125622 C35.4969053,29.7538512 33.661814,27.6286411 32.3727342,25.8583307 C30.9173878,23.8514204 29.4989895,22.2496611 29.0658751,20.3778011 C28.6686826,18.741494 28.3546233,17.0894834 28.0077213,15.4364258 L28.0077213,15.4196754 C27.9684137,13.7656974 27.739699,12.1220756 27.3262332,10.52227 Z" id="Path_731" fill="#F4F4F4"></path>
                <path d="M28.2848323,9.18956438 C28.2355682,9.17281394 28.201699,9.1560635 28.1524348,9.13931313 C28.0985269,9.11408133 28.0433728,9.09171741 27.9871945,9.07231144 C27.9400218,9.05686614 27.8953913,9.03428022 27.854797,9.00530968 C27.8055328,8.98855931 27.7521633,8.95505843 27.7059781,8.93830799 L27.6033443,8.88805674 L27.4052612,8.78336658 C27.3888398,8.76661614 27.3724184,8.76661614 27.355997,8.7498657 C26.9051877,8.4951227 26.4838086,8.1896119 26.09976,7.8390614 C26.0312379,7.78599518 25.9701221,7.72365485 25.9180983,7.6537598 L25.7857008,7.51870952 L25.7200152,7.45170783 C24.6779156,6.36127438 24.0556252,4.92451943 23.9670309,3.40438649 L23.9536885,3.38868297 C24.2638325,3.66508729 24.6230269,3.87831211 25.0118424,4.0168239 C25.9395433,4.45950827 26.8887692,4.85365494 27.8558233,5.19772883 C29.5953155,5.48458377 30.8676541,7.02587024 30.8486232,8.82314885 C30.8650446,9.12675029 30.881466,9.41360128 30.8978874,9.71720279 C30.1105605,9.7046652 29.3298702,9.56799968 28.5834966,9.31205188 L28.5670752,9.31205188 C28.4700838,9.2785864 28.3757303,9.23763895 28.2848323,9.18956438 Z" id="Path_736" fill="#F4F4F4"></path>
                <path d="M27.9707731,15.5138966 C27.9707731,15.530647 27.9871945,15.3788462 27.9871945,15.3955967 C27.9481122,13.7508972 27.7263761,12.1160174 27.3262332,10.52227 C27.1030398,9.72825292 26.8269983,8.95069338 26.5000317,8.19500795 C26.5000317,8.19500795 26.2352366,7.97620547 26.1028391,7.85790563 C26.034317,7.80483941 25.9732012,7.74249909 25.9211773,7.67260404 L25.7887798,7.53755376 L25.7230942,7.47055207 C24.6792064,6.37252202 24.0520549,4.93167358 23.9536885,3.4054334 L23.9372672,3.42218382 C23.1282066,4.30436942 21.9968788,4.80505313 20.8125829,4.80505313 C19.6282871,4.80505313 18.4969594,4.30436942 17.6878987,3.42218382 L17.6714773,3.4054334 C17.5769648,4.93233307 16.9492289,6.37415274 15.9020717,7.46950517 L15.8363861,7.53650686 L15.7039885,7.67155714 L15.5223268,7.85685874 C15.3899293,7.97515857 15.2575318,8.09345848 15.1251342,8.19396105 C14.795652,8.94861457 14.519546,9.72635572 14.2989327,10.5212231 C13.8826488,12.1116907 13.660646,13.748537 13.6379713,15.3945498 C13.6379713,15.3777993 13.6543927,15.361049 13.6543927,15.3442985 C14.0177162,16.2551028 14.1501137,17.1324063 14.4477516,18.0086629 C15.124463,20.0377933 14.8995769,22.2671012 13.8319491,24.1131457 C16.1150953,24.7147899 18.4547528,25.065751 20.8110434,25.1600473 C23.1674485,25.0670095 25.5072371,24.7160287 27.7901377,24.1131457 C26.7225099,22.2671012 26.4976239,20.0377933 27.1743353,18.0086629 C27.4924999,17.1334532 27.6074497,16.4079504 27.9707731,15.5138966 Z" id="Path_745" fill="#F4F4F4"></path>
                <path d="M26.5000317,8.17825751 C26.3676341,8.07356735 26.2352366,7.9594551 26.1028391,7.84115519 C26.034317,7.78808904 25.9732012,7.72574872 25.9211773,7.65585367 L25.7887798,7.52080332 L25.7230942,7.45380163 C24.6784552,6.35608105 24.0505609,4.91519771 23.9516358,3.38868297 L23.9352145,3.4054334 C23.1261539,4.287619 21.9948261,4.7883027 20.8105303,4.7883027 C19.6262345,4.7883027 18.4949066,4.287619 17.6858461,3.4054334 L17.6714773,3.38868297 C17.5769648,4.91558264 16.9492289,6.3574023 15.9020717,7.45275473 L15.8363861,7.51975642 L15.7039885,7.6548067 L15.5223268,7.8401083 C15.3899293,7.9584082 15.2575318,8.07670804 15.1251342,8.17721061 C15.3396388,8.34576177 16.8945399,13.9110903 20.8120698,13.9110903 C24.5150951,13.9110903 26.2845008,8.32901133 26.4990053,8.17721061 L26.5000317,8.17825751 Z" id="Path_748" fill="#F4F4F4"></path>
                <path d="M24.866222,3.93043993 C24.4873682,3.76690317 24.1731921,3.57509522 23.9236938,3.35501609 C23.0982118,4.25395212 22.2364555,4.73258961 21.0521596,4.73258961 C19.8678638,4.73258961 18.5043831,4.23720169 17.6953225,3.35501609 C17.4739033,3.63319567 17.2245955,3.77347895 16.7175934,3.93043993 C18.6155267,5.06814492 20.0603821,5.63699742 21.0521596,5.63699742 C22.5398259,5.63699742 24.8962705,3.97081065 24.866222,3.93043993 Z" id="Path_748-Copy" fill="#D6D4D4"></path>
            </g>
            <g id="neckline_thumbnails_1" transform="translate(0.000000, 75.000000)">
                <path d="M14.312275,10.52227 C14.5198174,9.72316943 14.7962968,8.94437625 15.1384767,8.19500795 C14.86205,8.40179221 14.5749473,8.59330138 14.2784059,8.76870994 C14.2619845,8.78546038 14.2455631,8.78546038 14.2291417,8.80221082 L14.0310586,8.90690098 L13.9284248,8.95715223 C13.8821071,8.98642231 13.8320201,9.00897263 13.7796059,9.02415392 C13.7324332,9.03959922 13.6878028,9.06218514 13.6472084,9.09115561 C13.5933019,9.11639086 13.5381476,9.13875485 13.4819681,9.15815737 C13.4327038,9.17490774 13.3988347,9.19165818 13.3495705,9.20840862 C13.2469368,9.24190943 13.1679088,9.27541031 13.0683541,9.31309878 L13.0519327,9.31309878 C12.3012178,9.57435277 11.5142931,9.71113911 10.7211205,9.71824968 C10.6945594,10.9331397 10.5841258,12.1446118 10.3906398,13.3436697 C9.89491884,15.924282 9.15082425,18.4535961 8.62123416,21.0174579 C8.09267041,23.5132712 5.62843429,25.705483 5.13168699,28.2012963 C4.98126201,28.7736489 4.71677857,29.308225 4.35474958,29.7716486 C3.63836608,30.8269253 1.36913409,31.8225287 0.559353882,32.8338356 C0.614709607,32.9167148 0.675396879,32.995755 0.7410156,33.0704353 C1.2541843,32.8338356 1.767353,32.6150331 2.26204763,32.4129811 C2.1132287,33.5258375 1.96440978,34.6732415 1.83201226,35.8363492 C1.79806014,36.1401916 1.91568634,36.4411637 2.145255,36.6378483 C2.37482365,36.8345329 2.68576375,36.9007381 2.97329944,36.8141552 C3.54361404,36.7372273 4.06389989,36.4419306 4.42864587,35.9881499 C5.15259994,34.7252761 5.65613824,33.3437954 5.9168351,31.9052339 C6.14878735,29.7465229 7.98387859,27.6213128 9.27295841,25.8510023 C10.7283048,23.8440921 12.1467031,22.2423327 12.5798175,20.3704728 C12.9770101,18.7341657 13.2910693,17.0821551 13.6379713,15.4290976 L13.6379713,15.4123471 C13.6591329,13.7597959 13.8857091,12.1166566 14.312275,10.52227 Z" id="Path_704" fill="#F4F4F4"></path>
                <path d="M11.8675393,33.6441373 C11.9518118,35.0718852 12.1342643,36.4918349 12.4135508,37.8935107 L20.2137151,37.8935107 C20.2629793,37.2653698 20.3461126,36.6288537 20.3953768,36.0090879 C20.408618,35.9140987 20.4141106,35.8181526 20.4117982,35.7222369 C17.4351782,35.7975744 14.4905814,35.0814016 11.8675393,33.6441373 Z" id="Path_703" fill="#F4F4F4"></path>
                <path d="M13.3393072,9.18956438 C13.3885713,9.17281394 13.4224405,9.1560635 13.4717047,9.13931313 C13.5256126,9.11408133 13.5807668,9.09171741 13.636945,9.07231144 C13.6841177,9.05686614 13.7287482,9.03428022 13.7693425,9.00530968 C13.8186067,8.98855931 13.8719763,8.95505843 13.9181615,8.93830799 L14.0207952,8.88805674 L14.2188783,8.78336658 C14.2352997,8.76661614 14.2517211,8.76661614 14.2681425,8.7498657 C14.7189564,8.49513016 15.1403364,8.18961879 15.5243795,7.8390614 C15.5929016,7.78599518 15.6540174,7.72365485 15.7060412,7.6537598 L15.8384387,7.51870952 L15.9041243,7.45170783 C16.946224,6.36127438 17.5685143,4.92451943 17.6571086,3.40438649 L17.6714773,3.38868297 C17.3613333,3.66508729 17.002139,3.87831211 16.6133235,4.0168239 C15.6856211,4.45950494 14.7363954,4.85365155 13.7693425,5.19772883 C12.0386927,5.5004103 10.7743063,7.0320636 10.7765427,8.82314885 C10.7601213,9.12675029 10.7436999,9.41360128 10.7272785,9.71720279 C11.5146054,9.7046652 12.2952956,9.56799968 13.0416693,9.31205188 L13.0580907,9.31205188 C13.1558528,9.2815948 13.2501307,9.24053083 13.3393072,9.18956438 Z" id="Path_709" fill="#F4F4F4"></path>
                <path d="M29.7730216,33.6441373 C29.6887525,35.0718855 29.5062999,36.4918355 29.2270101,37.8935107 L21.4268458,37.8935107 C21.3775817,37.2653698 21.2944483,36.6288537 21.2451842,36.0090879 C21.2319382,35.9140992 21.2264455,35.8181527 21.2287627,35.7222369 C24.2049663,35.7935425 27.1485676,35.0776119 29.7730216,33.6441373 Z" id="Path_728" fill="#F4F4F4"></path>
                <path d="M29.6570455,28.2641104 C29.1227521,26.8360907 28.4988151,25.4446683 27.7891114,24.0984892 C25.5059652,24.7001333 23.1663077,25.0510945 20.8100171,25.1453907 C18.453612,25.0523529 16.1138234,24.701372 13.8309228,24.0984892 C13.1248702,25.4465159 12.50104,26.8377 11.9629887,28.2641104 C11.403122,29.8331473 11.1014162,31.4858056 11.0700752,33.1552344 C11.3184488,33.3237855 11.5832439,33.4923366 11.8470126,33.6441373 C14.4741702,35.0712305 17.4188872,35.779961 20.3943504,35.7012989 L21.2205521,35.7012989 C24.1960153,35.779961 27.1407323,35.0712305 29.7678899,33.6441373 C30.0326849,33.4923366 30.2964537,33.3237855 30.5448273,33.1552344 C30.5139356,31.486223 30.2140013,29.8337718 29.6570455,28.2641104 Z" id="Path_729" fill="#F4F4F4"></path>
                <path d="M23.1439083,1.16297031 C22.5502881,0.486715003 21.7024798,0.100244997 20.8125829,0.100244997 C19.9226861,0.100244997 19.0748778,0.486715003 18.4812575,1.16297031 C18.5584665,1.99701371 18.2606394,2.82176404 17.6714773,3.4054334 L17.6878987,3.42218382 C18.530868,4.25125566 19.6430345,4.73558586 20.8130961,4.78315582 C21.9824336,4.73231903 23.093512,4.24846268 23.9382935,3.42218382 L23.9547149,3.4054334 C23.3627206,2.82359053 23.0640548,1.99756496 23.1439083,1.16297031 Z" id="Path_730" fill="#F4F4F4"></path>
                <path d="M27.3262332,10.52227 C27.1186909,9.72316943 26.8422114,8.94437625 26.5000317,8.19500795 C26.7764594,8.40179052 27.063562,8.59329969 27.3601023,8.76870994 C27.3765238,8.78546038 27.3929452,8.78546038 27.4093666,8.80221082 L27.6074497,8.90690098 L27.7100834,8.95715223 C27.7564074,8.98641028 27.8064927,9.00895989 27.8589023,9.02415392 C27.9060751,9.03959922 27.9507056,9.06218514 27.9912998,9.09115561 C28.0452064,9.11639086 28.1003606,9.13875485 28.1565402,9.15815737 C28.2058044,9.17490774 28.2396735,9.19165818 28.2889377,9.20840862 C28.3915714,9.24190943 28.4705994,9.27541031 28.5701542,9.31309878 L28.5865756,9.31309878 C29.3372904,9.57435277 30.1242152,9.71113911 30.9173878,9.71824968 C30.9357257,10.933608 31.0462156,12.145698 31.2478684,13.3436697 C31.7435894,15.924282 32.487684,18.4535961 33.0172741,21.0174579 C33.5458378,23.5132712 36.010074,25.705483 36.5068213,28.2012963 C36.6572462,28.7736489 36.9217297,29.308225 37.2837587,29.7716486 C38.0114319,30.8342537 40.2765585,31.8288101 41.0863387,32.8411639 C41.0309854,32.9240449 40.970298,33.0030853 40.904677,33.0777636 C40.3915083,32.8411639 39.8783396,32.6223615 39.383645,32.4203094 C39.5324639,33.5331658 39.6812828,34.6805699 39.8136803,35.8436775 C39.8476325,36.14752 39.7300062,36.448492 39.5004376,36.6451766 C39.270869,36.8418612 38.9599289,36.9080665 38.6723932,36.8214835 C38.1020786,36.7445555 37.5817927,36.4492589 37.2170467,35.9954782 C36.4930927,34.7326043 35.9895543,33.3511237 35.7288575,31.9125622 C35.4969053,29.7538512 33.661814,27.6286411 32.3727342,25.8583307 C30.9173878,23.8514204 29.4989895,22.2496611 29.0658751,20.3778011 C28.6686826,18.741494 28.3546233,17.0894834 28.0077213,15.4364258 L28.0077213,15.4196754 C27.9684137,13.7656974 27.739699,12.1220756 27.3262332,10.52227 Z" id="Path_731" fill="#F4F4F4"></path>
                <path d="M28.2848323,9.18956438 C28.2355682,9.17281394 28.201699,9.1560635 28.1524348,9.13931313 C28.0985269,9.11408133 28.0433728,9.09171741 27.9871945,9.07231144 C27.9400218,9.05686614 27.8953913,9.03428022 27.854797,9.00530968 C27.8055328,8.98855931 27.7521633,8.95505843 27.7059781,8.93830799 L27.6033443,8.88805674 L27.4052612,8.78336658 C27.3888398,8.76661614 27.3724184,8.76661614 27.355997,8.7498657 C26.9051877,8.4951227 26.4838086,8.1896119 26.09976,7.8390614 C26.0312379,7.78599518 25.9701221,7.72365485 25.9180983,7.6537598 L25.7857008,7.51870952 L25.7200152,7.45170783 C24.6779156,6.36127438 24.0556252,4.92451943 23.9670309,3.40438649 L23.9536885,3.38868297 C24.2638325,3.66508729 24.6230269,3.87831211 25.0118424,4.0168239 C25.9395433,4.45950827 26.8887692,4.85365494 27.8558233,5.19772883 C29.5953155,5.48458377 30.8676541,7.02587024 30.8486232,8.82314885 C30.8650446,9.12675029 30.881466,9.41360128 30.8978874,9.71720279 C30.1105605,9.7046652 29.3298702,9.56799968 28.5834966,9.31205188 L28.5670752,9.31205188 C28.4700838,9.2785864 28.3757303,9.23763895 28.2848323,9.18956438 Z" id="Path_736" fill="#F4F4F4"></path>
                <path d="M27.9707731,15.5138966 C27.9707731,15.530647 27.9871945,15.3788462 27.9871945,15.3955967 C27.9481122,13.7508972 27.7263761,12.1160174 27.3262332,10.52227 C27.1030398,9.72825292 26.8269983,8.95069338 26.5000317,8.19500795 C26.5000317,8.19500795 26.2352366,7.97620547 26.1028391,7.85790563 C26.034317,7.80483941 25.9732012,7.74249909 25.9211773,7.67260404 L25.7887798,7.53755376 L25.7230942,7.47055207 C24.6792064,6.37252202 24.0520549,4.93167358 23.9536885,3.4054334 L23.9372672,3.42218382 C23.1282066,4.30436942 21.9968788,4.80505313 20.8125829,4.80505313 C19.6282871,4.80505313 18.4969594,4.30436942 17.6878987,3.42218382 L17.6714773,3.4054334 C17.5769648,4.93233307 16.9492289,6.37415274 15.9020717,7.46950517 L15.8363861,7.53650686 L15.7039885,7.67155714 L15.5223268,7.85685874 C15.3899293,7.97515857 15.2575318,8.09345848 15.1251342,8.19396105 C14.795652,8.94861457 14.519546,9.72635572 14.2989327,10.5212231 C13.8826488,12.1116907 13.660646,13.748537 13.6379713,15.3945498 C13.6379713,15.3777993 13.6543927,15.361049 13.6543927,15.3442985 C14.0177162,16.2551028 14.1501137,17.1324063 14.4477516,18.0086629 C15.124463,20.0377933 14.8995769,22.2671012 13.8319491,24.1131457 C16.1150953,24.7147899 18.4547528,25.065751 20.8110434,25.1600473 C23.1674485,25.0670095 25.5072371,24.7160287 27.7901377,24.1131457 C26.7225099,22.2671012 26.4976239,20.0377933 27.1743353,18.0086629 C27.4924999,17.1334532 27.6074497,16.4079504 27.9707731,15.5138966 Z" id="Path_745" fill="#F4F4F4"></path>
                <path d="M26.1028391,7.84115519 C26.034317,7.78808904 25.9732012,7.72574872 25.9211773,7.65585367 L25.7887798,7.52080332 L25.7230942,7.45380163 C24.6784552,6.35608105 24.0505609,4.91519771 23.9516358,3.38868297 C23.1261539,4.287619 21.9948261,4.7883027 20.8105303,4.7883027 C19.6262345,4.7883027 18.4949066,4.287619 17.6858461,3.4054334 C17.5769648,4.91558264 16.9492289,6.3574023 15.9020717,7.45275473 L15.8363861,7.51975642 L15.7039885,7.6548067 L15.5223268,7.8401083 C15.3899293,7.9584082 15.2575318,8.07670804 15.1251342,8.17721061 C15.3396388,8.34576177 16.8950531,10.9044432 20.812583,10.9044432 C24.5156083,10.9044432 26.2845008,8.32901133 26.4990053,8.17721061 C26.3676341,8.07356735 26.2352366,7.9594551 26.1028391,7.84115519 Z" id="Path_748" fill="#D6D4D4"></path>
            </g>
            <g id="neckline_thumbnails_0" transform="translate(0.000000, 34)">
                <path d="M14.312275,10.52227 C14.5198174,9.72316943 14.7962968,8.94437625 15.1384767,8.19500795 C14.86205,8.40179221 14.5749473,8.59330138 14.2784059,8.76870994 C14.2619845,8.78546038 14.2455631,8.78546038 14.2291417,8.80221082 L14.0310586,8.90690098 L13.9284248,8.95715223 C13.8821071,8.98642231 13.8320201,9.00897263 13.7796059,9.02415392 C13.7324332,9.03959922 13.6878028,9.06218514 13.6472084,9.09115561 C13.5933019,9.11639086 13.5381476,9.13875485 13.4819681,9.15815737 C13.4327038,9.17490774 13.3988347,9.19165818 13.3495705,9.20840862 C13.2469368,9.24190943 13.1679088,9.27541031 13.0683541,9.31309878 L13.0519327,9.31309878 C12.3012178,9.57435277 11.5142931,9.71113911 10.7211205,9.71824968 C10.6945594,10.9331397 10.5841258,12.1446118 10.3906398,13.3436697 C9.89491884,15.924282 9.15082425,18.4535961 8.62123416,21.0174579 C8.09267041,23.5132712 5.62843429,25.705483 5.13168699,28.2012963 C4.98126201,28.7736489 4.71677857,29.308225 4.35474958,29.7716486 C3.63836608,30.8269253 1.36913409,31.8225287 0.559353882,32.8338356 C0.614709607,32.9167148 0.675396879,32.995755 0.7410156,33.0704353 C1.2541843,32.8338356 1.767353,32.6150331 2.26204763,32.4129811 C2.1132287,33.5258375 1.96440978,34.6732415 1.83201226,35.8363492 C1.79806014,36.1401916 1.91568634,36.4411637 2.145255,36.6378483 C2.37482365,36.8345329 2.68576375,36.9007381 2.97329944,36.8141552 C3.54361404,36.7372273 4.06389989,36.4419306 4.42864587,35.9881499 C5.15259994,34.7252761 5.65613824,33.3437954 5.9168351,31.9052339 C6.14878735,29.7465229 7.98387859,27.6213128 9.27295841,25.8510023 C10.7283048,23.8440921 12.1467031,22.2423327 12.5798175,20.3704728 C12.9770101,18.7341657 13.2910693,17.0821551 13.6379713,15.4290976 L13.6379713,15.4123471 C13.6591329,13.7597959 13.8857091,12.1166566 14.312275,10.52227 Z" id="Path_704" fill="#F4F4F4"></path>
                <path d="M11.8675393,33.6441373 C11.9518118,35.0718852 12.1342643,36.4918349 12.4135508,37.8935107 L20.2137151,37.8935107 C20.2629793,37.2653698 20.3461126,36.6288537 20.3953768,36.0090879 C20.408618,35.9140987 20.4141106,35.8181526 20.4117982,35.7222369 C17.4351782,35.7975744 14.4905814,35.0814016 11.8675393,33.6441373 Z" id="Path_703" fill="#F4F4F4"></path>
                <path d="M13.3393072,9.18956438 C13.3885713,9.17281394 13.4224405,9.1560635 13.4717047,9.13931313 C13.5256126,9.11408133 13.5807668,9.09171741 13.636945,9.07231144 C13.6841177,9.05686614 13.7287482,9.03428022 13.7693425,9.00530968 C13.8186067,8.98855931 13.8719763,8.95505843 13.9181615,8.93830799 L14.0207952,8.88805674 L14.2188783,8.78336658 C14.2352997,8.76661614 14.2517211,8.76661614 14.2681425,8.7498657 C14.7189564,8.49513016 15.1403364,8.18961879 15.5243795,7.8390614 C15.5929016,7.78599518 15.6540174,7.72365485 15.7060412,7.6537598 L15.8384387,7.51870952 L15.9041243,7.45170783 C16.946224,6.36127438 17.5685143,4.92451943 17.6571086,3.40438649 L17.6714773,3.38868297 C17.3613333,3.66508729 17.002139,3.87831211 16.6133235,4.0168239 C15.6856211,4.45950494 14.7363954,4.85365155 13.7693425,5.19772883 C12.0386927,5.5004103 10.7743063,7.0320636 10.7765427,8.82314885 C10.7601213,9.12675029 10.7436999,9.41360128 10.7272785,9.71720279 C11.5146054,9.7046652 12.2952956,9.56799968 13.0416693,9.31205188 L13.0580907,9.31205188 C13.1558528,9.2815948 13.2501307,9.24053083 13.3393072,9.18956438 Z" id="Path_709" fill="#F4F4F4"></path>
                <path d="M29.7730216,33.6441373 C29.6887525,35.0718855 29.5062999,36.4918355 29.2270101,37.8935107 L21.4268458,37.8935107 C21.3775817,37.2653698 21.2944483,36.6288537 21.2451842,36.0090879 C21.2319382,35.9140992 21.2264455,35.8181527 21.2287627,35.7222369 C24.2049663,35.7935425 27.1485676,35.0776119 29.7730216,33.6441373 Z" id="Path_728" fill="#F4F4F4"></path>
                <path d="M29.6570455,28.2641104 C29.1227521,26.8360907 28.4988151,25.4446683 27.7891114,24.0984892 C25.5059652,24.7001333 23.1663077,25.0510945 20.8100171,25.1453907 C18.453612,25.0523529 16.1138234,24.701372 13.8309228,24.0984892 C13.1248702,25.4465159 12.50104,26.8377 11.9629887,28.2641104 C11.403122,29.8331473 11.1014162,31.4858056 11.0700752,33.1552344 C11.3184488,33.3237855 11.5832439,33.4923366 11.8470126,33.6441373 C14.4741702,35.0712305 17.4188872,35.779961 20.3943504,35.7012989 L21.2205521,35.7012989 C24.1960153,35.779961 27.1407323,35.0712305 29.7678899,33.6441373 C30.0326849,33.4923366 30.2964537,33.3237855 30.5448273,33.1552344 C30.5139356,31.486223 30.2140013,29.8337718 29.6570455,28.2641104 Z" id="Path_729" fill="#F4F4F4"></path>
                <path d="M23.1439083,1.16297031 C22.5502881,0.486715003 21.7024798,0.100244997 20.8125829,0.100244997 C19.9226861,0.100244997 19.0748778,0.486715003 18.4812575,1.16297031 C18.5584665,1.99701371 18.2606394,2.82176404 17.6714773,3.4054334 L17.6878987,3.42218382 C18.530868,4.25125566 19.6430345,4.73558586 20.8130961,4.78315582 C21.9824336,4.73231903 23.093512,4.24846268 23.9382935,3.42218382 L23.9547149,3.4054334 C23.3627206,2.82359053 23.0640548,1.99756496 23.1439083,1.16297031 Z" id="Path_730" fill="#F4F4F4"></path>
                <path d="M27.3262332,10.52227 C27.1186909,9.72316943 26.8422114,8.94437625 26.5000317,8.19500795 C26.7764594,8.40179052 27.063562,8.59329969 27.3601023,8.76870994 C27.3765238,8.78546038 27.3929452,8.78546038 27.4093666,8.80221082 L27.6074497,8.90690098 L27.7100834,8.95715223 C27.7564074,8.98641028 27.8064927,9.00895989 27.8589023,9.02415392 C27.9060751,9.03959922 27.9507056,9.06218514 27.9912998,9.09115561 C28.0452064,9.11639086 28.1003606,9.13875485 28.1565402,9.15815737 C28.2058044,9.17490774 28.2396735,9.19165818 28.2889377,9.20840862 C28.3915714,9.24190943 28.4705994,9.27541031 28.5701542,9.31309878 L28.5865756,9.31309878 C29.3372904,9.57435277 30.1242152,9.71113911 30.9173878,9.71824968 C30.9357257,10.933608 31.0462156,12.145698 31.2478684,13.3436697 C31.7435894,15.924282 32.487684,18.4535961 33.0172741,21.0174579 C33.5458378,23.5132712 36.010074,25.705483 36.5068213,28.2012963 C36.6572462,28.7736489 36.9217297,29.308225 37.2837587,29.7716486 C38.0114319,30.8342537 40.2765585,31.8288101 41.0863387,32.8411639 C41.0309854,32.9240449 40.970298,33.0030853 40.904677,33.0777636 C40.3915083,32.8411639 39.8783396,32.6223615 39.383645,32.4203094 C39.5324639,33.5331658 39.6812828,34.6805699 39.8136803,35.8436775 C39.8476325,36.14752 39.7300062,36.448492 39.5004376,36.6451766 C39.270869,36.8418612 38.9599289,36.9080665 38.6723932,36.8214835 C38.1020786,36.7445555 37.5817927,36.4492589 37.2170467,35.9954782 C36.4930927,34.7326043 35.9895543,33.3511237 35.7288575,31.9125622 C35.4969053,29.7538512 33.661814,27.6286411 32.3727342,25.8583307 C30.9173878,23.8514204 29.4989895,22.2496611 29.0658751,20.3778011 C28.6686826,18.741494 28.3546233,17.0894834 28.0077213,15.4364258 L28.0077213,15.4196754 C27.9684137,13.7656974 27.739699,12.1220756 27.3262332,10.52227 Z" id="Path_731" fill="#F4F4F4"></path>
                <path d="M28.2848323,9.18956438 C28.2355682,9.17281394 28.201699,9.1560635 28.1524348,9.13931313 C28.0985269,9.11408133 28.0433728,9.09171741 27.9871945,9.07231144 C27.9400218,9.05686614 27.8953913,9.03428022 27.854797,9.00530968 C27.8055328,8.98855931 27.7521633,8.95505843 27.7059781,8.93830799 L27.6033443,8.88805674 L27.4052612,8.78336658 C27.3888398,8.76661614 27.3724184,8.76661614 27.355997,8.7498657 C26.9051877,8.4951227 26.4838086,8.1896119 26.09976,7.8390614 C26.0312379,7.78599518 25.9701221,7.72365485 25.9180983,7.6537598 L25.7857008,7.51870952 L25.7200152,7.45170783 C24.6779156,6.36127438 24.0556252,4.92451943 23.9670309,3.40438649 L23.9536885,3.38868297 C24.2638325,3.66508729 24.6230269,3.87831211 25.0118424,4.0168239 C25.9395433,4.45950827 26.8887692,4.85365494 27.8558233,5.19772883 C29.5953155,5.48458377 30.8676541,7.02587024 30.8486232,8.82314885 C30.8650446,9.12675029 30.881466,9.41360128 30.8978874,9.71720279 C30.1105605,9.7046652 29.3298702,9.56799968 28.5834966,9.31205188 L28.5670752,9.31205188 C28.4700838,9.2785864 28.3757303,9.23763895 28.2848323,9.18956438 Z" id="Path_736" fill="#F4F4F4"></path>
                <path d="M27.9707731,15.5138966 C27.9707731,15.530647 27.9871945,15.3788462 27.9871945,15.3955967 C27.9481122,13.7508972 27.7263761,12.1160174 27.3262332,10.52227 C27.1030398,9.72825292 26.8269983,8.95069338 26.5000317,8.19500795 C26.5000317,8.19500795 26.2352366,7.97620547 26.1028391,7.85790563 C26.034317,7.80483941 25.9732012,7.74249909 25.9211773,7.67260404 L25.7887798,7.53755376 L25.7230942,7.47055207 C24.6792064,6.37252202 24.0520549,4.93167358 23.9536885,3.4054334 L23.9372672,3.42218382 C23.1282066,4.30436942 21.9968788,4.80505313 20.8125829,4.80505313 C19.6282871,4.80505313 18.4969594,4.30436942 17.6878987,3.42218382 L17.6714773,3.4054334 C17.5769648,4.93233307 16.9492289,6.37415274 15.9020717,7.46950517 L15.8363861,7.53650686 L15.7039885,7.67155714 L15.5223268,7.85685874 C15.3899293,7.97515857 15.2575318,8.09345848 15.1251342,8.19396105 C14.795652,8.94861457 14.519546,9.72635572 14.2989327,10.5212231 C13.8826488,12.1116907 13.660646,13.748537 13.6379713,15.3945498 C13.6379713,15.3777993 13.6543927,15.361049 13.6543927,15.3442985 C14.0177162,16.2551028 14.1501137,17.1324063 14.4477516,18.0086629 C15.124463,20.0377933 14.8995769,22.2671012 13.8319491,24.1131457 C16.1150953,24.7147899 18.4547528,25.065751 20.8110434,25.1600473 C23.1674485,25.0670095 25.5072371,24.7160287 27.7901377,24.1131457 C26.7225099,22.2671012 26.4976239,20.0377933 27.1743353,18.0086629 C27.4924999,17.1334532 27.6074497,16.4079504 27.9707731,15.5138966 Z" id="Path_745" fill="#F4F4F4"></path>
                <path d="M26.5000317,8.17825751 C26.3676341,8.07356735 26.2352366,7.9594551 26.1028391,7.84115519 C26.034317,7.78808904 25.9732012,7.72574872 25.9211773,7.65585367 L25.7887798,7.52080332 L25.7230942,7.45380163 C24.6784552,6.35608105 24.0505609,4.91519771 23.9516358,3.38868297 L23.9352145,3.4054334 C23.1261539,4.287619 21.9948261,4.7883027 20.8105303,4.7883027 C19.6262345,4.7883027 18.4949066,4.287619 17.6858461,3.4054334 L17.6714773,3.38868297 C17.5769648,4.91558264 16.9492289,6.3574023 15.9020717,7.45275473 L15.8363861,7.51975642 L15.7039885,7.6548067 L15.5223268,7.8401083 C15.3899293,7.9584082 15.2575318,8.07670804 15.1251342,8.17721061 C15.3396388,8.34576177 16.8945399,13.9110903 20.8120698,13.9110903 C24.5150951,13.9110903 26.2845008,8.32901133 26.4990053,8.17721061 L26.5000317,8.17825751 Z" id="Path_748" fill="#F4F4F4"></path>
                <path d="M26.5284151,8.18218885 C26.3936323,8.07606062 26.2588495,7.96250349 26.1240667,7.84470117 C26.0540072,7.79151957 25.9915239,7.72903627 25.9383423,7.65897678 L25.8035595,7.52419398 L25.7356374,7.4562719 C24.6712781,6.35860142 24.03181,4.91829355 23.9314579,3.39262295 L23.9144774,3.40960346 C23.0896278,4.28999056 21.9370551,4.78953443 20.7306313,4.78953443 C19.5242075,4.78953443 18.3716347,4.28999056 17.5467851,3.40960346 L17.5244982,3.39368423 C17.4283795,4.92039557 16.7882893,6.36210484 15.7203187,7.45733318 L15.6523967,7.52525526 L15.5176139,7.66003806 L15.3318895,7.84576245 C15.1971067,7.96356477 15.0623239,8.08136702 14.927541,8.18325013 C15.1472264,8.35199398 16.7317205,13.9141732 20.7274474,13.9141732 C24.503489,13.9141732 26.3076684,8.33395221 26.5273539,8.18325013 L26.5284151,8.18218885 Z" id="Path_243" fill="#D6D4D4"></path>
            </g>
        </g>
    </g>
</svg>