<?xml version="1.0" encoding="UTF-8" standalone="no"?>
<svg width="386px" height="56px" viewBox="0 0 386 56" version="1.1" xmlns="http://www.w3.org/2000/svg" xmlns:xlink="http://www.w3.org/1999/xlink">
    <!-- Generator: Sketch 50.2 (55047) - http://www.bohemiancoding.com/sketch -->
    <title>shoulder_thumbnails</title>
    <desc>Created with Sketch.</desc>
    <defs></defs>
    <g id="BodyParts-Thumbnail-Final" stroke="none" stroke-width="1" fill="none" fill-rule="evenodd">
        <g id="shoulder_thumbnails">
            <text id="ALL" fill-opacity="0.775334013" fill="#686868" font-family="Muli-Bold, Muli" font-size="20" font-weight="bold">
                <tspan x="354" y="36">ALL</tspan>
            </text>
            <g id="shoulder_thumbnails_0" fill-rule="nonzero">
                <path d="M16.80245,48.862525 C16.9276676,50.9422959 17.1987676,53.0107076 17.61375,55.0525 L29.20375,55.0525 C29.27695,54.1375 29.400475,53.2103 29.473675,52.3075 C29.4933497,52.1691311 29.501511,52.0293684 29.498075,51.88965 C25.0752161,51.9993926 20.6999394,50.9561584 16.80245,48.862525 Z" id="Path_927" fill="#F4F4F4"></path>
                <path d="M20.435,15.181375 C20.7433801,14.0173415 21.1541916,12.8828895 21.662625,11.7913 C21.251892,12.0925184 20.8252957,12.3714859 20.384675,12.627 C20.360275,12.6514 20.335875,12.6514 20.311475,12.6758 L20.01715,12.8283 L19.86465,12.9015 C19.795828,12.9441371 19.7214054,12.9769857 19.643525,12.9991 C19.5734327,13.0215988 19.5071178,13.0544993 19.4468,13.0967 C19.3667022,13.1334596 19.2847503,13.1660368 19.201275,13.1943 C19.128075,13.2187 19.07775,13.2431 19.00455,13.2675 C18.85205,13.3163 18.734625,13.3651 18.5867,13.42 L18.5623,13.42 C17.4468382,13.8005634 16.2775733,13.9998172 15.099025,14.010175 C15.0595588,15.7798804 14.8954693,17.544607 14.607975,19.29125 C13.8714,23.050375 12.765775,26.734775 11.978875,30.4695 C11.1935,34.1051 7.531975,37.29845 6.793875,40.93405 C6.57036361,41.7677844 6.17737662,42.5464905 5.63945,43.22155 C4.575,44.75875 1.203225,46.209025 0,47.682175 C0.0822511977,47.8029034 0.172424362,47.9180398 0.269925,48.026825 C1.032425,47.682175 1.794925,47.36345 2.529975,47.069125 C2.30885,48.6902 2.087725,50.3616 1.891,52.055875 C1.84055169,52.4984761 2.0153285,52.9368959 2.35643679,53.2234023 C2.69754508,53.5099088 3.15956044,53.6063486 3.5868,53.480225 C4.43421115,53.3681656 5.20728628,52.9380131 5.74925,52.277 C6.82494884,50.4373976 7.57313935,48.4250231 7.9605,46.3295 C8.30515,43.18495 11.03185,40.0892 12.94725,37.510425 C15.1097,34.587 17.21725,32.25375 17.8608,29.52705 C18.450975,27.143475 18.917625,24.737025 19.433075,22.32905 L19.433075,22.30465 C19.4645183,19.8974125 19.8011801,17.5038851 20.435,15.181375 Z" id="Path_928" fill="#F4F4F4"></path>
                <path d="M43.4076,48.862525 C43.2823874,50.9422964 43.0112874,53.0107084 42.5963,55.0525 L31.0063,55.0525 C30.9331,54.1375 30.809575,53.2103 30.736375,52.3075 C30.7166933,52.1691318 30.708532,52.0293686 30.711975,51.88965 C35.1342152,51.9935194 39.5080127,50.9506379 43.4076,48.862525 Z" id="Path_951" fill="#F4F4F4"></path>
                <path d="M43.235275,41.02555 C42.4413866,38.945383 41.5142997,36.9185266 40.459775,34.957575 C37.0673253,35.8339777 33.5909075,36.3452156 30.089775,36.482575 C26.5884725,36.3470487 23.1118598,35.8357821 19.719775,34.957575 C18.6706753,36.9212179 17.7437472,38.9477272 16.944275,41.02555 C16.1123881,43.3111339 15.6640935,45.7185274 15.617525,48.15035 C15.986575,48.395875 16.380025,48.6414 16.77195,48.862525 C20.6755545,50.9413423 25.0510099,51.9737354 29.47215,51.85915 L30.699775,51.85915 C35.1209151,51.9737354 39.4963705,50.9413423 43.399975,48.862525 C43.793425,48.6414 44.18535,48.395875 44.5544,48.15035 C44.5084991,45.7191354 44.0628368,43.3120436 43.235275,41.02555 Z" id="Path_952" fill="#F4F4F4"></path>
                <path d="M33.557625,1.547875 C32.6755848,0.562787763 31.4158552,-0.000175166266 30.0935875,-0.000175166266 C28.7713198,-0.000175166266 27.5115902,0.562787763 26.62955,1.547875 C26.7442722,2.76280892 26.3017409,3.96420583 25.426325,4.814425 L25.450725,4.838825 C26.7032645,6.04651695 28.355795,6.75203081 30.09435,6.821325 C31.831829,6.7472721 33.4827428,6.04244846 34.737975,4.838825 L34.762375,4.814425 C33.8827507,3.96686642 33.4389734,2.76361191 33.557625,1.547875 Z" id="Path_953" fill="#F4F4F4"></path>
                <path d="M39.772,15.181375 C39.4636199,14.0173415 39.0528084,12.8828895 38.544375,11.7913 C38.9551096,12.092516 39.3817058,12.3714834 39.822325,12.627 C39.846725,12.6514 39.871125,12.6514 39.895525,12.6758 L40.18985,12.8283 L40.34235,12.9015 C40.4111812,12.9441196 40.4856013,12.9769671 40.563475,12.9991 C40.6335673,13.0215988 40.6998822,13.0544993 40.7602,13.0967 C40.8402978,13.1334596 40.9222497,13.1660368 41.005725,13.1943 C41.078925,13.2187 41.12925,13.2431 41.20245,13.2675 C41.35495,13.3163 41.472375,13.3651 41.6203,13.42 L41.6447,13.42 C42.7601618,13.8005634 43.9294267,13.9998172 45.107975,14.010175 C45.1352227,15.7805626 45.2993959,17.5461892 45.599025,19.29125 C46.3356,23.050375 47.441225,26.734775 48.228125,30.4695 C49.0135,34.1051 52.675025,37.29845 53.413125,40.93405 C53.6366364,41.7677844 54.0296234,42.5464905 54.56755,43.22155 C55.648775,44.769425 59.01445,46.218175 60.217675,47.69285 C60.1354274,47.813581 60.0452541,47.9287176 59.94775,48.0375 C59.18525,47.69285 58.42275,47.374125 57.6877,47.0798 C57.908825,48.700875 58.12995,50.372275 58.326675,52.06655 C58.3771233,52.5091511 58.2023465,52.9475709 57.8612382,53.2340773 C57.5201299,53.5205838 57.0581146,53.6170236 56.630875,53.4909 C55.7834638,53.3788406 55.0103887,52.9486881 54.468425,52.287675 C53.3927262,50.4480726 52.6445356,48.4356981 52.257175,46.340175 C51.912525,43.195625 49.185825,40.099875 47.270425,37.5211 C45.107975,34.597675 43.000425,32.264425 42.356875,29.537725 C41.7667,27.15415 41.30005,24.7477 40.7846,22.339725 L40.7846,22.315325 C40.7261942,19.9060091 40.3863548,17.5117789 39.772,15.181375 Z" id="Path_954" fill="#F4F4F4"></path>
                <path d="M40.7297,22.452575 C40.7297,22.476975 40.7541,22.25585 40.7541,22.28025 C40.6960289,19.88445 40.3665588,17.5029542 39.772,15.181375 C39.4403644,14.0247465 39.0302037,12.8920915 38.544375,11.7913 C38.544375,11.7913 38.150925,11.472575 37.9542,11.30025 C37.8523853,11.2229496 37.7615754,11.1321397 37.684275,11.030325 L37.48755,10.8336 L37.38995,10.736 C35.8388725,9.13652213 34.9070092,7.03766778 34.76085,4.814425 L34.73645,4.838825 C33.5342942,6.12388668 31.8532926,6.85322236 30.0935875,6.85322236 C28.3338824,6.85322236 26.6528808,6.12388668 25.450725,4.838825 L25.426325,4.814425 C25.285892,7.03862844 24.3531604,9.13889758 22.797225,10.734475 L22.699625,10.832075 L22.5029,11.0288 L22.232975,11.298725 C22.03625,11.47105 21.839525,11.643375 21.6428,11.789775 C21.1532335,12.8890633 20.7429769,14.0219829 20.415175,15.17985 C19.796633,17.4966514 19.4667666,19.881012 19.433075,22.278725 C19.433075,22.254325 19.457475,22.229925 19.457475,22.205525 C19.997325,23.532275 20.19405,24.810225 20.6363,26.08665 C21.6418026,29.0424426 21.307652,32.2898298 19.7213,34.978925 C23.1137497,35.8553277 26.5901675,36.3665656 30.0913,36.503925 C33.5926025,36.3683987 37.0692152,35.8571321 40.4613,34.978925 C38.874948,32.2898298 38.5407974,29.0424426 39.5463,26.08665 C40.01905,24.81175 40.18985,23.754925 40.7297,22.452575 Z" id="Path_968" fill="#F4F4F4"></path>
                <path d="M38.544375,11.7669 C38.34765,11.6144 38.150925,11.448175 37.9542,11.27585 C37.8523853,11.1985496 37.7615754,11.1077397 37.684275,11.005925 L37.48755,10.8092 L37.38995,10.7116 C35.8377563,9.11257298 34.9047894,7.01366772 34.7578,4.790025 L34.7334,4.814425 C33.5312442,6.09948668 31.8502426,6.82882236 30.0905375,6.82882236 C28.3308324,6.82882236 26.6498308,6.09948668 25.447675,4.814425 L25.426325,4.790025 C25.285892,7.01422844 24.3531604,9.11449758 22.797225,10.710075 L22.699625,10.807675 L22.5029,11.0044 L22.232975,11.274325 C22.03625,11.44665 21.839525,11.618975 21.6428,11.765375 C21.961525,12.0109 24.2719,20.1178 30.092825,20.1178 C35.595025,20.1178 38.224125,11.9865 38.54285,11.765375 L38.544375,11.7669 Z" id="Path_971" fill="#F4F4F4"></path>
                <path d="M18.57145,13.412375 C17.4540356,13.7851979 16.2860021,13.9842419 15.108175,14.00255 C15.132575,13.5603 15.156975,13.14245 15.181375,12.7002 C15.178052,10.0911628 17.056761,7.86003491 19.628275,7.419125 C21.0650686,6.91991012 22.4754893,6.34780158 23.85405,5.705025 C24.4336626,5.50737069 24.9681375,5.19632805 25.426325,4.790025 L25.401925,4.814425 C25.2702857,7.02877147 24.3456456,9.12166295 22.797225,10.710075 L22.699625,10.807675 L22.5029,11.0044 L22.232975,11.274325 C21.6641225,11.7872044 21.0377434,12.2324249 20.366375,12.601075 C20.341975,12.625475 20.317575,12.625475 20.293175,12.649875 L19.99885,12.802375 L19.84635,12.875575 C19.777528,12.9182121 19.7031054,12.9510607 19.625225,12.973175 C19.5551327,12.9956738 19.4888178,13.0285743 19.4285,13.070775 C19.3484,13.1075296 19.2664484,13.1401066 19.182975,13.168375 C19.109775,13.192775 19.05945,13.217175 18.98625,13.241575 C18.854394,13.3129781 18.7153535,13.3702301 18.57145,13.412375 Z M41.6142,13.412375 C42.7316144,13.7851979 43.8996479,13.9842419 45.077475,14.00255 C45.053075,13.5603 45.028675,13.14245 45.004275,12.7002 C45.007598,10.0911628 43.128889,7.86003491 40.557375,7.419125 C39.1210969,6.9198642 37.7111863,6.34775606 36.333125,5.705025 C35.7535124,5.50737069 35.2190375,5.19632805 34.76085,4.790025 L34.78525,4.814425 C34.9168893,7.02877147 35.8415294,9.12166295 37.38995,10.710075 L37.48755,10.807675 L37.684275,11.0044 L37.9542,11.274325 C38.5230525,11.7872044 39.1494316,12.2324249 39.8208,12.601075 C39.8452,12.625475 39.8696,12.625475 39.894,12.649875 L40.188325,12.802375 L40.340825,12.875575 C40.409647,12.9182121 40.4840696,12.9510607 40.56195,12.973175 C40.6320423,12.9956738 40.6983572,13.0285743 40.758675,13.070775 C40.8387739,13.1075321 40.9207257,13.1401092 41.0042,13.168375 C41.0774,13.192775 41.127725,13.217175 41.200925,13.241575 C41.3342371,13.3087219 41.47238,13.3658141 41.6142,13.412375 Z" id="Path_959" fill="#D6D4D4"></path>
            </g>
            <g id="shoulder_thumbnails_1" transform="translate(68.000000, 0.000000)" fill-rule="nonzero">
                <path d="M16.871075,48.862525 C16.9962726,50.9422978 17.2673728,53.0107109 17.682375,55.0525 L29.272375,55.0525 C29.345575,54.1375 29.4691,53.2103 29.5423,52.3075 C29.5619817,52.1691318 29.570143,52.0293686 29.5667,51.88965 C25.1444598,51.9935194 20.7706623,50.9506379 16.871075,48.862525 Z" id="Path_982" fill="#F4F4F4"></path>
                <path d="M20.5021,15.181375 C20.8104725,14.0173392 21.2212842,12.8828865 21.729725,11.7913 C21.3189937,12.0925208 20.8923973,12.3714884 20.451775,12.627 C20.427375,12.6514 20.402975,12.6514 20.378575,12.6758 L20.08425,12.8283 L19.93175,12.9015 C19.862928,12.9441371 19.7885054,12.9769857 19.710625,12.9991 C19.6405327,13.0215988 19.5742178,13.0544993 19.5139,13.0967 C19.4338022,13.1334596 19.3518503,13.1660368 19.268375,13.1943 C19.195175,13.2187 19.14485,13.2431 19.07165,13.2675 C18.91915,13.3163 18.801725,13.3651 18.6538,13.42 L18.6294,13.42 C17.5139382,13.8005634 16.3446733,13.9998172 15.166125,14.010175 C15.1388895,15.7805633 14.9747162,17.5461908 14.675075,19.29125 C13.9385,23.050375 12.832875,26.734775 12.045975,30.4695 C11.2606,34.1051 7.599075,37.29845 6.860975,40.93405 C6.63746361,41.7677844 6.24447662,42.5464905 5.70655,43.22155 C4.625325,44.769425 1.25965,46.218175 0.056425,47.69285 C0.138672575,47.813581 0.228845923,47.9287176 0.32635,48.0375 C1.08885,47.69285 1.85135,47.374125 2.5864,47.0798 C2.365275,48.700875 2.14415,50.372275 1.947425,52.06655 C1.89697669,52.5091511 2.0717535,52.9475709 2.41286179,53.2340773 C2.75397008,53.5205838 3.21598544,53.6170236 3.643225,53.4909 C4.49063615,53.3788406 5.26371128,52.9486881 5.805675,52.287675 C6.88137384,50.4480726 7.62956435,48.4356981 8.016925,46.340175 C8.361575,43.195625 11.088275,40.099875 13.003675,37.5211 C15.166125,34.597675 17.273675,32.264425 17.917225,29.537725 C18.5074,27.15415 18.97405,24.7477 19.4895,22.339725 L19.4895,22.315325 C19.5478918,19.906008 19.8877315,17.5117761 20.5021,15.181375 Z" id="Path_983" fill="#F4F4F4"></path>
                <path d="M19.0808,13.24005 C19.154,13.21565 19.204325,13.19125 19.277525,13.16685 C19.3576228,13.1300904 19.4395747,13.0975132 19.52305,13.06925 C19.5931423,13.0467512 19.6594572,13.0138507 19.719775,12.97165 C19.792975,12.94725 19.872275,12.89845 19.9409,12.87405 L20.0934,12.80085 L20.387725,12.64835 C20.412125,12.62395 20.436525,12.62395 20.460925,12.59955 C21.1307673,12.228471 21.7568803,11.7834398 22.327525,11.2728 C22.4293272,11.1954853 22.5201353,11.1046772 22.59745,11.002875 L22.794175,10.80615 L22.891775,10.70855 C24.4401956,9.12013795 25.3648357,7.02724647 25.496475,4.8129 L25.520875,4.7885 C25.0600425,5.1911325 24.5263278,5.50173272 23.9486,5.7035 C22.5701606,6.34834926 21.1597379,6.92249463 19.722825,7.4237 C17.1381725,7.84155572 15.2476476,10.0867161 15.275925,12.704775 C15.251525,13.147025 15.227125,13.564875 15.202725,14.007125 C16.3725874,13.9888618 17.5325885,13.789784 18.6416,13.41695 L18.666,13.41695 C18.8085135,13.3684853 18.9471727,13.3093513 19.0808,13.24005 Z" id="Path_988" fill="#D6D4D4"></path>
                <path d="M43.4991,48.862525 C43.3739024,50.9422978 43.1028022,53.0107109 42.6878,55.0525 L31.0978,55.0525 C31.0246,54.1375 30.901075,53.2103 30.827875,52.3075 C30.8081933,52.1691318 30.800032,52.0293686 30.803475,51.88965 C35.2257152,51.9935194 39.5995127,50.9506379 43.4991,48.862525 Z" id="Path_1007" fill="#F4F4F4"></path>
                <path d="M43.326775,41.02555 C42.5328788,38.9453863 41.6057921,36.9185303 40.551275,34.957575 C33.7872666,36.9896507 26.5752834,36.9896507 19.811275,34.957575 C18.7621719,36.9212161 17.8352436,38.9477257 17.035775,41.02555 C16.2039151,43.3111413 15.7556214,45.7185302 15.709025,48.15035 C16.078075,48.395875 16.471525,48.6414 16.86345,48.862525 C20.7670545,50.9413423 25.1425099,51.9737354 29.56365,51.85915 L30.791275,51.85915 C35.2124151,51.9737354 39.5878705,50.9413423 43.491475,48.862525 C43.884925,48.6414 44.27685,48.395875 44.6459,48.15035 C44.5999991,45.7191354 44.1543368,43.3120436 43.326775,41.02555 Z" id="Path_1008" fill="#F4F4F4"></path>
                <path d="M33.649125,1.547875 C32.7670848,0.562787763 31.5073552,-0.000175166266 30.1850875,-0.000175166266 C28.8628198,-0.000175166266 27.6030902,0.562787763 26.72105,1.547875 C26.8357722,2.76280892 26.3932409,3.96420583 25.517825,4.814425 L25.542225,4.838825 C26.7947645,6.04651695 28.447295,6.75203081 30.18585,6.821325 C31.923329,6.7472721 33.5742428,6.04244846 34.829475,4.838825 L34.853875,4.814425 C33.9742507,3.96686642 33.5304734,2.76361191 33.649125,1.547875 Z" id="Path_1009" fill="#F4F4F4"></path>
                <path d="M39.8391,15.181375 C39.5307046,14.0173463 39.1198936,12.8828956 38.611475,11.7913 C39.0222063,12.0925208 39.4488027,12.3714884 39.889425,12.627 C39.913825,12.6514 39.938225,12.6514 39.962625,12.6758 L40.25695,12.8283 L40.40945,12.9015 C40.478272,12.9441371 40.5526946,12.9769857 40.630575,12.9991 C40.7006673,13.0215988 40.7669822,13.0544993 40.8273,13.0967 C40.9073978,13.1334596 40.9893497,13.1660368 41.072825,13.1943 C41.146025,13.2187 41.19635,13.2431 41.26955,13.2675 C41.42205,13.3163 41.539475,13.3651 41.6874,13.42 L41.7118,13.42 C42.8272618,13.8005634 43.9965267,13.9998172 45.175075,14.010175 C45.2023349,15.780562 45.366508,17.5461876 45.666125,19.29125 C46.4027,23.050375 47.508325,26.734775 48.295225,30.4695 C49.082125,34.1051 52.742125,37.29845 53.480225,40.93405 C53.7036954,41.7678001 54.0966864,42.5465142 54.63465,43.22155 C55.715875,44.769425 59.08155,46.218175 60.284775,47.69285 C60.202513,47.8135705 60.1123403,47.9287061 60.01485,48.0375 C59.25235,47.69285 58.48985,47.374125 57.7548,47.0798 C57.975925,48.700875 58.19705,50.372275 58.393775,52.06655 C58.4442233,52.5091511 58.2694465,52.9475709 57.9283382,53.2340773 C57.5872299,53.5205838 57.1252146,53.6170236 56.697975,53.4909 C55.8505638,53.3788406 55.0774887,52.9486881 54.535525,52.287675 C53.4598262,50.4480726 52.7116356,48.4356981 52.324275,46.340175 C51.979625,43.195625 49.252925,40.099875 47.337525,37.5211 C45.175075,34.597675 43.067525,32.264425 42.423975,29.537725 C41.8338,27.15415 41.36715,24.7477 40.8517,22.339725 L40.8517,22.315325 C40.8176621,19.9040534 40.4774044,17.5068764 39.8391,15.181375 Z" id="Path_1010" fill="#F4F4F4"></path>
                <path d="M41.289375,13.24005 C41.216175,13.21565 41.16585,13.19125 41.09265,13.16685 C41.0125522,13.1300904 40.9306003,13.0975132 40.847125,13.06925 C40.7770327,13.0467512 40.7107178,13.0138507 40.6504,12.97165 C40.5772,12.94725 40.4979,12.89845 40.429275,12.87405 L40.276775,12.80085 L39.98245,12.64835 C39.95805,12.62395 39.93365,12.62395 39.90925,12.59955 C39.2394008,12.2284819 38.6132867,11.7834498 38.04265,11.2728 C37.9408478,11.1954853 37.8500397,11.1046772 37.772725,11.002875 L37.576,10.80615 L37.4784,10.70855 C35.9299794,9.12013795 35.0053393,7.02724647 34.8737,4.8129 L34.85235,4.790025 C35.3131825,5.1926575 35.8468972,5.50325772 36.424625,5.705025 C37.8030675,6.34986699 39.2134899,6.92401221 40.6504,7.425225 C43.2350525,7.84308072 45.1255774,10.0882411 45.0973,12.7063 C45.1217,13.14855 45.1461,13.5664 45.1705,14.00865 C44.0006376,13.9903868 42.8406365,13.791309 41.731625,13.418475 L41.707225,13.418475 C41.5619636,13.3741088 41.4218793,13.3142918 41.289375,13.24005 Z" id="Path_1015" fill="#D6D4D4"></path>
                <path d="M40.8212,22.452575 C40.8212,22.476975 40.8456,22.25585 40.8456,22.28025 C40.787542,19.8844489 40.4580717,17.5029516 39.8635,15.181375 C39.5318689,14.0247451 39.1217081,12.8920898 38.635875,11.7913 C38.635875,11.7913 38.242425,11.472575 38.0457,11.30025 C37.9438853,11.2229496 37.8530754,11.1321397 37.775775,11.030325 L37.57905,10.8336 L37.48145,10.736 C35.9307016,9.13691426 34.9988638,7.0386577 34.85235,4.81595 L34.82795,4.84035 C33.6257942,6.12541168 31.9447926,6.85474736 30.1850875,6.85474736 C28.4253824,6.85474736 26.7443808,6.12541168 25.542225,4.84035 L25.517825,4.81595 C25.3775254,7.04018614 24.4447741,9.14049959 22.888725,10.736 L22.791125,10.8336 L22.5944,11.030325 L22.324475,11.30025 C22.12775,11.472575 21.931025,11.6449 21.7343,11.7913 C21.2447383,12.8905903 20.8344819,14.0235095 20.506675,15.181375 C19.8881636,17.4981826 19.5582977,19.8825393 19.524575,22.28025 C19.524575,22.25585 19.548975,22.23145 19.548975,22.20705 C20.088825,23.5338 20.28555,24.81175 20.7278,26.088175 C21.7335102,29.0439441 21.3993505,32.2914201 19.8128,34.98045 C23.2052497,35.8568527 26.6816675,36.3680906 30.1828,36.50545 C33.6841025,36.3699237 37.1607152,35.8586571 40.5528,34.98045 C38.966448,32.2913548 38.6322974,29.0439676 39.6378,26.088175 C40.084625,24.81175 40.28135,23.754925 40.8212,22.452575 Z" id="Path_1024" fill="#F4F4F4"></path>
                <path d="M38.635875,11.7669 C38.43915,11.6144 38.242425,11.448175 38.0457,11.27585 C37.9438978,11.1985353 37.8530897,11.1077272 37.775775,11.005925 L37.57905,10.8092 L37.48145,10.7116 C35.9292563,9.11257298 34.9962894,7.01366772 34.8493,4.790025 L34.8249,4.814425 C33.6227442,6.09948668 31.9417426,6.82882236 30.1820375,6.82882236 C28.4223324,6.82882236 26.7413308,6.09948668 25.539175,4.814425 L25.517825,4.790025 C25.377392,7.01422844 24.4446604,9.11449758 22.888725,10.710075 L22.791125,10.807675 L22.5944,11.0044 L22.324475,11.274325 C22.12775,11.44665 21.931025,11.618975 21.7343,11.765375 C22.053025,12.0109 24.3634,20.1178 30.184325,20.1178 C35.662125,20.1178 38.315625,11.9865 38.63435,11.765375 L38.635875,11.7669 Z" id="Path_1027" fill="#F4F4F4"></path>
                <path d="M21.63365,11.87975 C21.65805,9.349775 21.70685,6.745075 21.70685,6.745075 C21.70685,6.745075 21.879175,6.647475 22.885675,6.205225 C22.812475,7.653975 23.0092,10.700925 23.0092,10.700925 C22.56695,11.094375 22.1247,11.4375 21.63365,11.87975 Z" id="Path_69_4_" fill="#676767"></path>
                <path d="M37.3564,10.676525 C37.3564,10.676525 37.553125,7.626525 37.479925,6.180825 C38.486425,6.623075 38.65875,6.720675 38.65875,6.720675 C38.65875,6.720675 38.70755,9.325375 38.73195,11.85535 C38.2165,11.4375 37.79865,11.094375 37.3564,10.676525 Z" id="Path_69_3_" fill="#676767"></path>
            </g>
            <g id="shoulder_thumbnails_2" transform="translate(137.000000, 0.000000)" fill-rule="nonzero">
                <path d="M17.130325,48.862525 C17.2555476,50.9422955 17.5266475,53.0107068 17.941625,55.0525 L29.531625,55.0525 C29.604825,54.1375 29.72835,53.2103 29.80155,52.3075 C29.8211899,52.1691276 29.829351,52.0293678 29.82595,51.88965 C25.4030911,51.9993926 21.0278144,50.9561584 17.130325,48.862525 Z" id="Path_1038" fill="#F4F4F4"></path>
                <path d="M20.762875,15.181375 C21.0712932,14.0173535 21.4821035,12.8829047 21.9905,11.7913 C21.5797837,12.0925425 21.1531861,12.3715109 20.71255,12.627 C20.68815,12.6514 20.66375,12.6514 20.63935,12.6758 L20.345025,12.8283 L20.192525,12.9015 C20.1236938,12.9441196 20.0492737,12.9769671 19.9714,12.9991 C19.901299,13.0215774 19.8349809,13.0544793 19.774675,13.0967 C19.6945707,13.1334445 19.6126196,13.1660214 19.52915,13.1943 C19.45595,13.2187 19.405625,13.2431 19.332425,13.2675 C19.179925,13.3163 19.0625,13.3651 18.914575,13.42 L18.890175,13.42 C17.7747132,13.8005634 16.6054483,13.9998172 15.4269,14.010175 C15.3996401,15.780562 15.235467,17.5461876 14.93585,19.29125 C14.199275,23.050375 13.09365,26.734775 12.30675,30.4695 C11.51985,34.1051 7.85985,37.29845 7.12175,40.93405 C6.89823861,41.7677844 6.50525162,42.5464905 5.967325,43.22155 C4.8861,44.769425 1.520425,46.218175 0.3172,47.69285 C0.399476464,47.8135599 0.48964835,47.9286946 0.587125,48.0375 C1.349625,47.69285 2.112125,47.374125 2.847175,47.0798 C2.62605,48.700875 2.404925,50.372275 2.2082,52.06655 C2.15775169,52.5091511 2.3325285,52.9475709 2.67363679,53.2340773 C3.01474508,53.5205838 3.47676044,53.6170236 3.904,53.4909 C4.75141115,53.3788406 5.52448628,52.9486881 6.06645,52.287675 C7.14209284,50.448046 7.89027962,48.4356816 8.2777,46.340175 C8.62235,43.195625 11.34905,40.099875 13.26445,37.5211 C15.4269,34.597675 17.53445,32.264425 18.178,29.537725 C18.768175,27.15415 19.234825,24.7477 19.750275,22.339725 L19.750275,22.315325 C19.7842635,19.9040496 20.1245221,17.5068663 20.762875,15.181375 Z" id="Path_1039" fill="#F4F4F4"></path>
                <path d="M19.317175,13.24005 C19.390375,13.21565 19.4407,13.19125 19.5139,13.16685 C19.5939913,13.1300752 19.675944,13.0974977 19.759425,13.06925 C19.8295086,13.0467298 19.8958205,13.0138309 19.95615,12.97165 C20.02935,12.94725 20.10865,12.89845 20.177275,12.87405 L20.329775,12.80085 L20.6241,12.64835 C20.6485,12.62395 20.6729,12.62395 20.6973,12.59955 C21.367156,12.2284928 21.9932713,11.7834598 22.5639,11.2728 C22.6657147,11.1954996 22.7565246,11.1046897 22.833825,11.002875 L23.03055,10.80615 L23.12815,10.70855 C24.6765706,9.12013795 25.6012107,7.02724647 25.73285,4.8129 L25.75725,4.7885 C25.2964175,5.1911325 24.7627028,5.50173272 24.184975,5.7035 C22.8065356,6.34834926 21.3961129,6.92249463 19.9592,7.4237 C17.3745475,7.84155572 15.4840226,10.0867161 15.5123,12.704775 C15.4879,13.147025 15.4635,13.564875 15.4391,14.007125 C16.6089624,13.9888618 17.7689635,13.789784 18.877975,13.41695 L18.902375,13.41695 C19.0465264,13.3728674 19.1855763,13.3135667 19.317175,13.24005 Z" id="Path_1044" fill="#D6D4D4"></path>
                <path d="M43.735475,48.862525 C43.6102524,50.9422955 43.3391525,53.0107068 42.924175,55.0525 L31.334175,55.0525 C31.260975,54.1375 31.13745,53.2103 31.06425,52.3075 C31.0445683,52.1691318 31.036407,52.0293686 31.03985,51.88965 C35.4620902,51.9935194 39.8358877,50.9506379 43.735475,48.862525 Z" id="Path_1063" fill="#F4F4F4"></path>
                <path d="M43.56315,41.02555 C42.7692538,38.9453863 41.8421671,36.9185303 40.78765,34.957575 C34.0236416,36.9896507 26.8116584,36.9896507 20.04765,34.957575 C18.9985642,36.9212248 18.0716365,38.9477332 17.27215,41.02555 C16.4402901,43.3111413 15.9919964,45.7185302 15.9454,48.15035 C16.31445,48.395875 16.7079,48.6414 17.099825,48.862525 C21.0034295,50.9413423 25.3788849,51.9737354 29.800025,51.85915 L31.02765,51.85915 C35.4487901,51.9737354 39.8242455,50.9413423 43.72785,48.862525 C44.1213,48.6414 44.513225,48.395875 44.882275,48.15035 C44.8363741,45.7191354 44.3907118,43.3120436 43.56315,41.02555 Z" id="Path_1064" fill="#F4F4F4"></path>
                <path d="M33.883975,1.547875 C33.0019348,0.562787763 31.7422052,-0.000175166266 30.4199375,-0.000175166266 C29.0976698,-0.000175166266 27.8379402,0.562787763 26.9559,1.547875 C27.070397,2.7627796 26.6279004,3.96408201 25.752675,4.814425 L25.777075,4.838825 C27.0296145,6.04651695 28.682145,6.75203081 30.4207,6.821325 C32.158179,6.7472721 33.8090928,6.04244846 35.064325,4.838825 L35.088725,4.814425 C34.2091007,3.96686642 33.7653234,2.76361191 33.883975,1.547875 Z" id="Path_1065" fill="#F4F4F4"></path>
                <path d="M40.099875,15.181375 C39.7915406,14.0173272 39.3807277,12.8828712 38.87225,11.7913 C39.2829946,12.0925016 39.70959,12.3714685 40.1502,12.627 C40.1746,12.6514 40.199,12.6514 40.2234,12.6758 L40.517725,12.8283 L40.670225,12.9015 C40.7390377,12.9441547 40.8134629,12.9770044 40.89135,12.9991 C40.9614423,13.0215988 41.0277572,13.0544993 41.088075,13.0967 C41.1681652,13.1334773 41.2501181,13.1660549 41.3336,13.1943 C41.4068,13.2187 41.457125,13.2431 41.530325,13.2675 C41.682825,13.3163 41.80025,13.3651 41.948175,13.42 L41.972575,13.42 C43.0880368,13.8005634 44.2573017,13.9998172 45.43585,14.010175 C45.4630611,15.7805646 45.6272346,17.546194 45.9269,19.29125 C46.663475,23.050375 47.7691,26.734775 48.556,30.4695 C49.341375,34.1051 53.0029,37.29845 53.741,40.93405 C53.9645114,41.7677844 54.3574984,42.5464905 54.895425,43.22155 C55.97665,44.769425 59.342325,46.218175 60.54555,47.69285 C60.4633315,47.8136023 60.3731567,47.9287408 60.275625,48.0375 C59.513125,47.69285 58.750625,47.374125 58.015575,47.0798 C58.2367,48.700875 58.457825,50.372275 58.65455,52.06655 C58.7049983,52.5091511 58.5302215,52.9475709 58.1891132,53.2340773 C57.8480049,53.5205838 57.3859896,53.6170236 56.95875,53.4909 C56.1113388,53.3788406 55.3382637,52.9486881 54.7963,52.287675 C53.7206012,50.4480726 52.9724106,48.4356981 52.58505,46.340175 C52.2404,43.195625 49.5137,40.099875 47.5983,37.5211 C45.43585,34.597675 43.3283,32.264425 42.68475,29.537725 C42.094575,27.15415 41.627925,24.7477 41.112475,22.339725 L41.112475,22.315325 C41.0541388,19.9060034 40.7142983,17.5117651 40.099875,15.181375 Z" id="Path_1066" fill="#F4F4F4"></path>
                <path d="M41.52575,13.24005 C41.45255,13.21565 41.402225,13.19125 41.329025,13.16685 C41.2489197,13.130108 41.1669687,13.0975312 41.0835,13.06925 C41.0134077,13.0467512 40.9470928,13.0138507 40.886775,12.97165 C40.813575,12.94725 40.734275,12.89845 40.66565,12.87405 L40.51315,12.80085 L40.218825,12.64835 C40.194425,12.62395 40.170025,12.62395 40.145625,12.59955 C39.475769,12.2284928 38.8496537,11.7834598 38.279025,11.2728 C38.1772103,11.1954996 38.0864004,11.1046897 38.0091,11.002875 L37.812375,10.80615 L37.714775,10.70855 C36.1663544,9.12013795 35.2417143,7.02724647 35.110075,4.8129 L35.088725,4.790025 C35.5495575,5.1926575 36.0832722,5.50325772 36.661,5.705025 C38.0385618,6.34771056 39.4479624,6.91981828 40.883725,7.419125 C43.4683775,7.83698072 45.3589024,10.0821411 45.330625,12.7002 C45.355025,13.14245 45.379425,13.5603 45.403825,14.00255 C44.2339626,13.9842868 43.0739615,13.785209 41.96495,13.412375 L41.94055,13.412375 C41.7981729,13.3653753 41.659518,13.3077723 41.52575,13.24005 Z" id="Path_1071" fill="#D6D4D4"></path>
                <path d="M41.057575,22.452575 C41.057575,22.476975 41.081975,22.25585 41.081975,22.28025 C41.023917,19.8844489 40.6944467,17.5029516 40.099875,15.181375 C39.7682846,14.0247319 39.3581227,12.8920739 38.87225,11.7913 C38.87225,11.7913 38.4788,11.472575 38.282075,11.30025 C38.1802353,11.2229783 38.0894217,11.1321647 38.01215,11.030325 L37.815425,10.8336 L37.717825,10.736 C36.1670766,9.13691426 35.2352388,7.0386577 35.088725,4.81595 L35.064325,4.84035 C33.8621692,6.12541168 32.1811676,6.85474736 30.4214625,6.85474736 C28.6617574,6.85474736 26.9807558,6.12541168 25.7786,4.84035 L25.7542,4.81595 C25.613767,7.04015344 24.6810354,9.14042258 23.1251,10.736 L23.0275,10.8336 L22.830775,11.030325 L22.56085,11.30025 C22.364125,11.472575 22.1674,11.6449 21.970675,11.7913 C21.4810939,12.8905825 21.070837,14.0235031 20.74305,15.181375 C20.1245386,17.4981826 19.7946727,19.8825393 19.76095,22.28025 C19.76095,22.25585 19.78535,22.23145 19.78535,22.20705 C20.3252,23.5338 20.521925,24.81175 20.964175,26.088175 C21.9696776,29.0439676 21.635527,32.2913548 20.049175,34.98045 C23.4416247,35.8568527 26.9180425,36.3680906 30.419175,36.50545 C33.9204775,36.3699237 37.3970902,35.8586571 40.789175,34.98045 C39.202823,32.2913548 38.8686724,29.0439676 39.874175,26.088175 C40.346925,24.81175 40.517725,23.754925 41.057575,22.452575 Z" id="Path_1080" fill="#F4F4F4"></path>
                <path d="M38.87225,11.7669 C38.675525,11.6144 38.4788,11.448175 38.282075,11.27585 C38.1802353,11.1985783 38.0894217,11.1077647 38.01215,11.005925 L37.815425,10.8092 L37.717825,10.7116 C36.1656313,9.11257298 35.2326644,7.01366772 35.085675,4.790025 L35.061275,4.814425 C33.8591192,6.09948668 32.1781176,6.82882236 30.4184125,6.82882236 C28.6587074,6.82882236 26.9777058,6.09948668 25.77555,4.814425 L25.7542,4.790025 C25.613767,7.01422844 24.6810354,9.11449758 23.1251,10.710075 L23.0275,10.807675 L22.830775,11.0044 L22.56085,11.274325 C22.364125,11.44665 22.1674,11.618975 21.970675,11.765375 C22.2894,12.0109 24.599775,20.1178 30.4207,20.1178 C35.9229,20.1178 38.552,11.9865 38.870725,11.765375 L38.87225,11.7669 Z" id="Path_1083" fill="#F4F4F4"></path>
                <path d="M19.5871,7.5701 C19.463575,8.87245 19.390375,10.73905 19.365975,13.220225 C20.8720064,12.6799433 22.2217488,11.7769724 23.2959,10.591125 C23.4581906,9.10422981 23.3669193,7.60057404 23.025975,6.144225 C22.3449936,6.50509488 21.6391647,6.8169846 20.91385,7.077525 C20.496,7.202575 20.00495,7.3993 19.5871,7.5701 Z" id="Path_44_8_" fill="#676767"></path>
                <path d="M39.92755,7.07905 C39.2022353,6.8185096 38.4964064,6.50661988 37.815425,6.14575 C37.4744807,7.60209904 37.3832094,9.10575481 37.5455,10.59265 C38.6151075,11.7837488 39.9662738,12.6876723 41.475425,13.22175 C41.451025,10.764975 41.402225,8.873975 41.2543,7.571625 C40.84255,7.3993 40.3454,7.202575 39.92755,7.07905 Z" id="Path_44_7_" fill="#676767"></path>
            </g>
            <g id="shoulder_thumbnails_3" transform="translate(203.000000, 0.000000)" fill-rule="nonzero">
                <path d="M16.925975,48.862525 C17.0512625,50.9422893 17.3223619,53.010696 17.737275,55.0525 L29.327275,55.0525 C29.400475,54.1375 29.524,53.2103 29.5972,52.3075 C29.6168817,52.1691318 29.625043,52.0293686 29.6216,51.88965 C25.1993598,51.9935194 20.8255623,50.9506379 16.925975,48.862525 Z" id="Path_1094" fill="#F4F4F4"></path>
                <path d="M20.557,15.181375 C20.8653725,14.0173392 21.2761842,12.8828865 21.784625,11.7913 C21.373892,12.0925184 20.9472957,12.3714859 20.506675,12.627 C20.482275,12.6514 20.457875,12.6514 20.433475,12.6758 L20.13915,12.8283 L19.98665,12.9015 C19.9178188,12.9441196 19.8433987,12.9769671 19.765525,12.9991 C19.6954414,13.0216202 19.6291295,13.0545191 19.5688,13.0967 C19.4887098,13.1334773 19.4067569,13.1660549 19.323275,13.1943 C19.250075,13.2187 19.19975,13.2431 19.12655,13.2675 C18.97405,13.3163 18.856625,13.3651 18.7087,13.42 L18.6843,13.42 C17.5688382,13.8005634 16.3995733,13.9998172 15.221025,14.010175 C15.1937164,15.7805593 15.0295437,17.5461812 14.729975,19.29125 C13.9934,23.050375 12.887775,26.734775 12.100875,30.4695 C11.3155,34.1051 7.653975,37.29845 6.915875,40.93405 C6.69236361,41.7677844 6.29937662,42.5464905 5.76145,43.22155 C4.680225,44.769425 1.31455,46.218175 0.111325,47.69285 C0.193576198,47.8135784 0.283749362,47.9287148 0.38125,48.0375 C1.14375,47.69285 1.90625,47.374125 2.6413,47.0798 C2.420175,48.700875 2.19905,50.372275 2.002325,52.06655 C1.95187669,52.5091511 2.1266535,52.9475709 2.46776179,53.2340773 C2.80887008,53.5205838 3.27088544,53.6170236 3.698125,53.4909 C4.54548725,53.3786929 5.31851152,52.9485686 5.860575,52.287675 C6.93627384,50.4480726 7.68446435,48.4356981 8.071825,46.340175 C8.416475,43.195625 11.143175,40.099875 13.058575,37.5211 C15.221025,34.597675 17.328575,32.264425 17.972125,29.537725 C18.5623,27.15415 19.02895,24.7477 19.5444,22.339725 L19.5444,22.315325 C19.5905883,19.9050131 19.9306332,17.5093358 20.557,15.181375 Z" id="Path_1095" fill="#F4F4F4"></path>
                <path d="M19.137225,13.24005 C19.210425,13.21565 19.26075,13.19125 19.33395,13.16685 C19.4140553,13.130108 19.4960063,13.0975312 19.579475,13.06925 C19.649576,13.0467726 19.7158941,13.0138707 19.7762,12.97165 C19.8494,12.94725 19.9287,12.89845 19.997325,12.87405 L20.149825,12.80085 L20.44415,12.64835 C20.46855,12.62395 20.49295,12.62395 20.51735,12.59955 C21.1871923,12.228471 21.8133053,11.7834398 22.38395,11.2728 C22.4857647,11.1954996 22.5765746,11.1046897 22.653875,11.002875 L22.8506,10.80615 L22.9482,10.70855 C24.4966206,9.12013795 25.4212607,7.02724647 25.5529,4.8129 L25.5773,4.7885 C25.1164675,5.1911325 24.5827528,5.50173272 24.005025,5.7035 C22.6265856,6.34834926 21.2161629,6.92249463 19.77925,7.4237 C17.1945975,7.84155572 15.3040726,10.0867161 15.33235,12.704775 C15.30795,13.147025 15.28355,13.564875 15.25915,14.007125 C16.4290124,13.9888618 17.5890135,13.789784 18.698025,13.41695 L18.722425,13.41695 C18.8429,13.363575 18.9893,13.314775 19.137225,13.24005 Z" id="Path_1100" fill="#D6D4D4"></path>
                <path d="M43.531125,48.862525 C43.4059024,50.9422955 43.1348025,53.0107068 42.719825,55.0525 L31.129825,55.0525 C31.056625,54.1375 30.9331,53.2103 30.8599,52.3075 C30.8402183,52.1691318 30.832057,52.0293686 30.8355,51.88965 C35.2577402,51.9935194 39.6315377,50.9506379 43.531125,48.862525 Z" id="Path_1119" fill="#F4F4F4"></path>
                <path d="M43.3832,41.02555 C42.5893077,38.9453847 41.6622209,36.9185284 40.6077,34.957575 C33.8436784,36.9895609 26.6317216,36.9895609 19.8677,34.957575 C18.8186455,36.9212402 17.8917187,38.9477467 17.0922,41.02555 C16.2603401,43.3111413 15.8120464,45.7185302 15.76545,48.15035 C16.1345,48.395875 16.52795,48.6414 16.919875,48.862525 C20.8234795,50.9413423 25.1989349,51.9737354 29.620075,51.85915 L30.8477,51.85915 C35.2688401,51.9737354 39.6442955,50.9413423 43.5479,48.862525 C43.94135,48.6414 44.333275,48.395875 44.702325,48.15035 C44.6563964,45.7191382 44.2107349,43.3120509 43.3832,41.02555 Z" id="Path_1120" fill="#F4F4F4"></path>
                <path d="M33.704025,1.547875 C32.8219848,0.562787763 31.5622552,-0.000175166266 30.2399875,-0.000175166266 C28.9177198,-0.000175166266 27.6579902,0.562787763 26.77595,1.547875 C26.890447,2.7627796 26.4479504,3.96408201 25.572725,4.814425 L25.597125,4.838825 C26.8496645,6.04651695 28.502195,6.75203081 30.24075,6.821325 C31.978229,6.7472721 33.6291428,6.04244846 34.884375,4.838825 L34.908775,4.814425 C34.0291507,3.96686642 33.5853734,2.76361191 33.704025,1.547875 Z" id="Path_1121" fill="#F4F4F4"></path>
                <path d="M39.894,15.181375 C39.5856275,14.0173392 39.1748158,12.8828865 38.666375,11.7913 C39.077108,12.0925184 39.5037043,12.3714859 39.944325,12.627 C39.968725,12.6514 39.993125,12.6514 40.017525,12.6758 L40.31185,12.8283 L40.46435,12.9015 C40.533172,12.9441371 40.6075946,12.9769857 40.685475,12.9991 C40.7555673,13.0215988 40.8218822,13.0544993 40.8822,13.0967 C40.9622902,13.1334773 41.0442431,13.1660549 41.127725,13.1943 C41.200925,13.2187 41.25125,13.2431 41.32445,13.2675 C41.47695,13.3163 41.594375,13.3651 41.7423,13.42 L41.7667,13.42 C42.8806456,13.797329 44.0477888,13.993998 45.223875,14.00255 C45.2511349,15.772937 45.415308,17.5385626 45.714925,19.283625 C46.4515,23.04275 47.557125,26.72715 48.344025,30.461875 C49.1294,34.097475 52.790925,37.290825 53.529025,40.926425 C53.7525774,41.7601438 54.1455603,42.5388418 54.68345,43.213925 C55.764675,44.7618 59.13035,46.21055 60.333575,47.685225 C60.2513274,47.805956 60.1611541,47.9210926 60.06365,48.029875 C59.30115,47.685225 58.53865,47.3665 57.8036,47.072175 C58.024725,48.69325 58.24585,50.36465 58.442575,52.058925 C58.4930233,52.5015261 58.3182465,52.9399459 57.9771382,53.2264523 C57.6360299,53.5129588 57.1740146,53.6093986 56.746775,53.483275 C55.8993638,53.3712156 55.1262887,52.9410631 54.584325,52.28005 C53.5086262,50.4404476 52.7604356,48.4280731 52.373075,46.33255 C52.028425,43.188 49.301725,40.09225 47.386325,37.513475 C45.223875,34.59005 43.116325,32.2568 42.472775,29.5301 C41.8826,27.146525 41.41595,24.740075 40.9005,22.3321 L40.9005,22.3077 C40.8556839,19.9001957 40.5176934,17.5071205 39.894,15.181375 Z" id="Path_1122" fill="#F4F4F4"></path>
                <path d="M41.344275,13.24005 C41.271075,13.21565 41.22075,13.19125 41.14755,13.16685 C41.0674447,13.130108 40.9854937,13.0975312 40.902025,13.06925 C40.8319327,13.0467512 40.7656178,13.0138507 40.7053,12.97165 C40.6321,12.94725 40.5528,12.89845 40.484175,12.87405 L40.331675,12.80085 L40.03735,12.64835 C40.01295,12.62395 39.98855,12.62395 39.96415,12.59955 C39.294294,12.2284928 38.6681787,11.7834598 38.09755,11.2728 C37.9957103,11.1955283 37.9048967,11.1047147 37.827625,11.002875 L37.6309,10.80615 L37.5333,10.70855 C35.9848794,9.12013795 35.0602393,7.02724647 34.9286,4.8129 L34.90725,4.790025 C35.3680604,5.19268826 35.9017813,5.50329211 36.479525,5.705025 C37.8579633,6.34987668 39.2683861,6.9240221 40.7053,7.425225 C43.2899525,7.84308072 45.1804774,10.0882411 45.1522,12.7063 C45.1766,13.14855 45.201,13.5664 45.2254,14.00865 C44.0555376,13.9903868 42.8955365,13.791309 41.786525,13.418475 L41.762125,13.418475 C41.6168917,13.374032 41.4768154,13.3142184 41.344275,13.24005 Z" id="Path_1127" fill="#D6D4D4"></path>
                <path d="M40.877625,22.452575 C40.877625,22.476975 40.902025,22.25585 40.902025,22.28025 C40.8439539,19.88445 40.5144838,17.5029542 39.919925,15.181375 C39.5882534,14.0247582 39.1780935,12.8921057 38.6923,11.7913 C38.6923,11.7913 38.29885,11.472575 38.102125,11.30025 C38.0002853,11.2229783 37.9094717,11.1321647 37.8322,11.030325 L37.635475,10.8336 L37.537875,10.736 C35.9871266,9.13691426 35.0552888,7.0386577 34.908775,4.81595 L34.884375,4.84035 C33.6822192,6.12541168 32.0012176,6.85474736 30.2415125,6.85474736 C28.4818074,6.85474736 26.8008058,6.12541168 25.59865,4.84035 L25.57425,4.81595 C25.433817,7.04015344 24.5010854,9.14042258 22.94515,10.736 L22.84755,10.8336 L22.650825,11.030325 L22.3809,11.30025 C22.184175,11.472575 21.98745,11.6449 21.790725,11.7913 C21.3011826,12.8905981 20.8909267,14.0235159 20.5631,15.181375 C19.9440737,17.498118 19.6136954,19.8824758 19.579475,22.28025 C19.579475,22.25585 19.603875,22.23145 19.603875,22.20705 C20.143725,23.5338 20.34045,24.81175 20.7827,26.088175 C21.7882026,29.0439676 21.454052,32.2913548 19.8677,34.98045 C23.2601497,35.8568527 26.7365675,36.3680906 30.2377,36.50545 C33.7390025,36.3699237 37.2156152,35.8586571 40.6077,34.98045 C39.021348,32.2913548 38.6871974,29.0439676 39.6927,26.088175 C40.14105,24.81175 40.337775,23.754925 40.877625,22.452575 Z" id="Path_1136" fill="#F4F4F4"></path>
                <path d="M38.666375,11.7669 C38.46965,11.6144 38.272925,11.448175 38.0762,11.27585 C37.9743853,11.1985496 37.8835754,11.1077397 37.806275,11.005925 L37.60955,10.8092 L37.51195,10.7116 C35.9597563,9.11257298 35.0267894,7.01366772 34.8798,4.790025 L34.8554,4.814425 C33.6532442,6.09948668 31.9722426,6.82882236 30.2125375,6.82882236 C28.4528324,6.82882236 26.7718308,6.09948668 25.569675,4.814425 L25.548325,4.790025 C25.407892,7.01422844 24.4751604,9.11449758 22.919225,10.710075 L22.821625,10.807675 L22.6249,11.0044 L22.354975,11.274325 C22.15825,11.44665 21.961525,11.618975 21.7648,11.765375 C22.083525,12.0109 24.3939,20.1178 30.214825,20.1178 C35.717025,20.1178 38.370525,11.9865 38.66485,11.765375 L38.666375,11.7669 Z" id="Path_1139" fill="#F4F4F4"></path>
                <path d="M18.670575,7.815625 C18.54705,9.117975 18.54705,11.008975 18.54705,13.46575 C20.4582105,12.843615 22.1647999,11.7146729 23.485,10.1992 C23.7540343,8.80078433 23.7291058,7.36168393 23.4118,5.973425 C22.699625,6.29215 21.5452,6.833525 20.8071,7.07905 C20.36485,7.20105 19.0869,7.650925 18.670575,7.815625 Z" id="Path_44_6_" fill="#676767"></path>
                <path d="M39.672875,7.07905 C38.7798539,6.77187541 37.9094838,6.40242673 37.068175,5.973425 C36.7508692,7.36168393 36.7259407,8.80078433 36.994975,10.1992 C38.3151751,11.7146729 40.0217645,12.843615 41.932925,13.46575 C41.908525,11.008975 41.932925,9.117975 41.8094,7.815625 C41.393075,7.650925 40.090725,7.20105 39.672875,7.07905 Z" id="Path_44_5_" fill="#676767"></path>
            </g>
            <g id="shoulder_thumbnails_4" transform="translate(272.000000, 0.000000)" fill-rule="nonzero">
                <path d="M17.0816118,49.4363397 C17.2057716,51.5405381 17.474668,53.633243 17.8863159,55.6990063 L29.3820882,55.6990063 C29.4546931,54.7732611 29.5772139,53.8351725 29.6498187,52.9217705 C29.6693403,52.7817774 29.6774353,52.6403729 29.6740203,52.4990136 C25.2877333,52.6041028 20.9494951,51.5489743 17.0816118,49.4363397 Z" id="Path_1150" fill="#F4F4F4"></path>
                <path d="M20.7073179,15.3596568 C21.0136719,14.1819009 21.4216503,13.0341245 21.9264748,11.9297705 C21.5190547,12.2344874 21.0959288,12.5167296 20.6589146,12.7752846 C20.634713,12.7999711 20.6105113,12.7999711 20.5863098,12.8246576 L20.2943776,12.9789485 L20.1431174,13.0530082 C20.0748458,13.0961283 20.0010307,13.1293615 19.9237902,13.1517543 C19.8542678,13.1745174 19.788492,13.2078042 19.7286646,13.2505005 C19.6492169,13.2876892 19.5679315,13.3206489 19.4851358,13.3492466 C19.4125309,13.3739332 19.362615,13.3986197 19.2900102,13.4233062 C19.13875,13.4726793 19.0222796,13.5220524 18.8755574,13.5775971 L18.8513557,13.5775971 C17.7449691,13.9626555 16.5852063,14.16425 15.4162374,14.1747028 C15.3892474,15.9658829 15.2264088,17.7522468 14.9291796,19.5177958 C14.1985931,23.3210659 13.1019569,27.0487335 12.3214545,30.8273171 C11.540952,34.5056116 7.91070813,37.7364625 7.17860894,41.414757 C6.95695542,42.2582981 6.56715942,43.0461571 6.03356952,43.7291202 C4.96113496,45.2951725 1.62282317,46.7609358 0.436943498,48.2529287 C0.518518798,48.3750801 0.607959204,48.4915691 0.704673983,48.6016261 C1.4609748,48.2529287 2.21727561,47.9304607 2.94634959,47.6326793 C2.72702235,49.2727913 2.50769513,50.9638193 2.31256952,52.6779909 C2.26253136,53.1257897 2.43588721,53.5693582 2.77422226,53.8592291 C3.11255732,54.1491001 3.57081645,54.2466725 3.99458252,54.1190677 C4.83456051,54.0053189 5.60074976,53.5701489 6.13793902,52.9017128 C7.20489234,51.0405071 7.94700001,49.0045003 8.33121139,46.8843685 C8.67305935,43.7028907 11.3775911,40.5707859 13.2774187,37.9617272 C15.4222878,35.0039711 17.5127033,32.6433207 18.1510211,29.8845998 C18.736398,27.4730335 19.1992541,25.0383234 19.7105134,22.6020705 L19.7105134,22.5773839 C19.7418904,20.1381323 20.0768383,17.7128204 20.7073179,15.3596568 Z" id="Path_1151" fill="#F4F4F4"></path>
                <path d="M19.2733715,13.3955339 C19.3459765,13.3708474 19.3958922,13.3461608 19.4684972,13.3214742 C19.5479459,13.2842881 19.6292313,13.2513284 19.712026,13.2227281 C19.7815485,13.199965 19.8473243,13.1666782 19.9071516,13.1239819 C19.9797565,13.0992954 20.0584118,13.0499224 20.1264789,13.0252358 L20.2777391,12.9511761 L20.5696711,12.7968853 C20.5938728,12.7721988 20.6180744,12.7721988 20.642276,12.7475122 C21.3066792,12.3720864 21.927703,11.9218282 22.4937004,11.4051816 C22.5946503,11.32693 22.6847165,11.2350593 22.7614309,11.1320867 L22.9565565,10.9330515 L23.053363,10.8343054 C24.5891949,9.22723984 25.5063176,7.1097706 25.6368866,4.86942006 L25.6610882,4.84473352 C25.2040024,5.25209431 24.6746268,5.56634205 24.1015959,5.77047877 C22.7343634,6.42290078 21.3354076,7.00378861 19.9101768,7.51087986 C17.3465378,7.93364264 15.471383,10.205169 15.4994305,12.8539729 C15.4752289,13.3014165 15.4510272,13.7241735 15.4268256,14.171617 C16.5871769,14.1531393 17.7377471,13.9517236 18.8377422,13.5745113 L18.8619439,13.5745113 C19.0033008,13.525483 19.140833,13.4656542 19.2733715,13.3955339 Z" id="Path_1156" fill="#F4F4F4"></path>
                <path d="M43.4931487,49.4363397 C43.3690833,51.5405473 43.100186,53.6332588 42.6884447,55.6990063 L31.1926724,55.6990063 C31.1200674,54.7732611 30.9975467,53.8351725 30.9249419,52.9217705 C30.9054202,52.7817774 30.8973252,52.6403729 30.9007402,52.4990136 C35.2870273,52.6041028 39.6252654,51.5489743 43.4931487,49.4363397 Z" id="Path_1175" fill="#F4F4F4"></path>
                <path d="M43.3237374,41.5073315 C42.5362686,39.4027511 41.61672,37.3520946 40.5708024,35.3680975 C33.8617728,37.423946 26.7084499,37.423946 19.9994203,35.3680975 C18.9588947,37.354823 18.0395039,39.4051277 17.2464854,41.5073315 C16.4213886,43.8197636 15.9767396,46.2554235 15.930522,48.7158012 C16.2965715,48.9642096 16.6868228,49.2126179 17.0755613,49.4363397 C20.9474293,51.5395695 25.2873118,52.5840864 29.6725078,52.4681554 L30.890152,52.4681554 C35.2753551,52.5841569 39.6152549,51.5396358 43.4870984,49.4363397 C43.8773496,49.2126179 44.2676008,48.9642096 44.6321378,48.7158012 C44.5867748,46.2560188 44.1447308,43.8206322 43.3237374,41.5073315 Z" id="Path_1176" fill="#F4F4F4"></path>
                <path d="M33.7232548,1.56605239 C32.8483857,0.569396833 31.5988978,-0.000177223322 30.2873803,-0.000177223322 C28.9758627,-0.000177223322 27.7263748,0.569396833 26.8515057,1.56605239 C26.9650718,2.79522416 26.5261728,4.01063401 25.658063,4.87096296 L25.6822646,4.89564951 C26.9246209,6.11752393 28.5637162,6.83132295 30.2881366,6.90143089 C32.0114897,6.82650835 33.6489815,6.11340766 34.8940085,4.89564951 L34.9182102,4.87096296 C34.0457372,4.01345112 33.6055678,2.79606625 33.7232548,1.56605239 Z" id="Path_1177" fill="#F4F4F4"></path>
                <path d="M39.8629048,15.3596568 C39.5571227,14.1819245 39.1496483,13.0341421 38.6452606,11.9297705 C39.0526526,12.2345288 39.4757807,12.5167724 39.9128207,12.7752846 C39.9370224,12.7999711 39.961224,12.7999711 39.9854256,12.8246576 L40.2773578,12.9789485 L40.4286179,13.0530082 C40.4968895,13.0961283 40.5707046,13.1293615 40.6479452,13.1517543 C40.7174676,13.1745174 40.7832434,13.2078042 40.8430707,13.2505005 C40.922529,13.2876638 41.0038133,13.320623 41.0865996,13.3492466 C41.1592045,13.3739332 41.2091203,13.3986197 41.2817252,13.4233062 C41.4329854,13.4726793 41.5494557,13.5220524 41.696178,13.5775971 L41.7203796,13.5775971 C42.8267662,13.9626555 43.986529,14.16425 45.155498,14.1747028 C45.1824879,15.9658829 45.3453266,17.7522468 45.6425557,19.5177958 C46.3731422,23.3210659 47.4697785,27.0487335 48.2502809,30.8273171 C49.0292707,34.5056116 52.6610272,37.7364625 53.3931265,41.414757 C53.6148614,42.2582665 54.0046493,43.0461091 54.5381659,43.7291202 C55.6106004,45.2951725 58.9489122,46.7609358 60.1423548,48.2529287 C60.0607724,48.3750748 59.9713323,48.4915632 59.8746244,48.6016261 C59.1183235,48.2529287 58.3620228,47.9304607 57.6329487,47.6326793 C57.852276,49.2727913 58.0716033,50.9638193 58.2667289,52.6779909 C58.316767,53.1257897 58.1434112,53.5693582 57.8050761,53.8592291 C57.466741,54.1491001 57.0084819,54.2466725 56.5847159,54.1190677 C55.7442427,54.0055429 54.9775032,53.5703675 54.4398467,52.9017128 C53.3729767,51.0404667 52.6308746,49.0044752 52.2465744,46.8843685 C51.9047265,43.7028907 49.2001947,40.5707859 47.3003671,37.9617272 C45.155498,35.0039711 43.0650826,32.6433207 42.4267646,29.8845998 C41.8413878,27.4730335 41.3785317,25.0383234 40.8672724,22.6020705 L40.8672724,22.5773839 C40.8336092,20.1377879 40.4961161,17.7124472 39.8629048,15.3596568 Z" id="Path_1178" fill="#F4F4F4"></path>
                <path d="M41.2998765,13.3955339 C41.2272715,13.3708474 41.1773557,13.3461608 41.1047508,13.3214742 C41.025302,13.2842881 40.9440167,13.2513284 40.861222,13.2227281 C40.7916995,13.199965 40.7259237,13.1666782 40.6660963,13.1239819 C40.5934915,13.0992954 40.5148361,13.0499224 40.4467691,13.0252358 L40.2955089,12.9511761 L40.0035768,12.7968853 C39.9793752,12.7721988 39.9551735,12.7721988 39.930972,12.7475122 C39.2665347,12.3721415 38.6455051,11.921879 38.0795476,11.4051816 C37.9785108,11.3270315 37.888432,11.2351478 37.8118171,11.1320867 L37.6166915,10.9330515 L37.519885,10.8343054 C35.9840531,9.22723984 35.0669304,7.1097706 34.9363613,4.86942006 L34.9166976,4.84627642 C35.3737834,5.25363722 35.903159,5.56788495 36.4761898,5.77202168 C37.8434202,6.4244486 39.2423763,7.00533652 40.6676089,7.51242276 C43.231248,7.93518554 45.1064028,10.2067119 45.0783553,12.8555158 C45.1025569,13.3029594 45.1267585,13.7257164 45.1509602,14.1731599 C43.9906088,14.1546822 42.8400386,13.9532665 41.7400435,13.5760542 L41.7158419,13.5760542 C41.5728932,13.5267444 41.4338356,13.4663963 41.2998765,13.3955339 Z" id="Path_1183" fill="#F4F4F4"></path>
                <path d="M40.8370204,22.7162457 C40.8370204,22.7409323 40.861222,22.5172105 40.861222,22.5418971 C40.8035451,20.1179685 40.4767549,17.7085147 39.8871065,15.3596568 C39.5581716,14.189444 39.1513454,13.0434874 38.6694622,11.9297705 C38.6694622,11.9297705 38.2792109,11.6073026 38.0840854,11.4329539 C37.9830984,11.3547457 37.8930269,11.2628694 37.8163548,11.1598591 L37.6212293,10.9608239 L37.5244228,10.8620776 C35.9861711,9.24428961 35.0618902,7.12134855 34.9166976,4.87250587 L34.8924959,4.89719241 C33.7001138,6.19734515 32.0327788,6.93524575 30.2873803,6.93524575 C28.5419817,6.93524575 26.8746468,6.19734515 25.6822646,4.89719241 L25.658063,4.87250587 C25.5187717,7.12282913 24.5936234,9.24776269 23.0503378,10.8620776 L22.9535313,10.9608239 L22.7584057,11.1598591 L22.4906752,11.4329539 C22.2955496,11.6073026 22.100424,11.7816513 21.9052984,11.9297705 C21.4196159,13.0419288 21.0126923,14.1881599 20.6876541,15.3596568 C20.0740801,17.7036528 19.7468945,20.1160217 19.7135387,22.5418971 C19.7135387,22.5172105 19.7377402,22.4925239 19.7377402,22.4678374 C20.2732013,23.810168 20.4683268,25.1031256 20.9069813,26.3945401 C21.9043091,29.3850441 21.5728751,32.6705668 19.9994204,35.3912412 C23.3642868,36.2779475 26.8124423,36.7951892 30.2851113,36.93415 C33.7579491,36.7970439 37.2062979,36.2797732 40.5708024,35.3912412 C38.9971508,32.6706328 38.6657078,29.3850203 39.6632415,26.3945401 C40.1064337,25.1031256 40.3015593,24.0338898 40.8370204,22.7162457 Z" id="Path_1192" fill="#F4F4F4"></path>
                <path d="M18.8589187,13.5698826 C17.750589,13.9470836 16.5920516,14.1484651 15.4238004,14.1669883 C15.448002,13.7195447 15.4722037,13.2967877 15.4964053,12.8493441 C15.4931093,10.2096679 17.3565442,7.95233884 19.9071516,7.50625113 C21.3323824,6.99915988 22.7313382,6.41827206 24.0985707,5.76585005 C24.6734542,5.56583697 25.2035769,5.25114573 25.658063,4.84010479 L25.6338613,4.86479133 C25.5032924,7.10514187 24.5861697,9.22261112 23.0503378,10.8296766 L22.9535313,10.9284228 L22.7584057,11.127458 L22.4906752,11.4005528 C21.9264476,11.9194552 21.3051609,12.3699041 20.6392508,12.7428835 C20.6150492,12.76757 20.5908476,12.76757 20.5666459,12.7922565 L20.2747139,12.9465474 L20.1234537,13.0206071 C20.0551912,13.0637449 19.9813736,13.0969793 19.9041265,13.1193532 C19.8346039,13.1421163 19.7688281,13.1754031 19.7090008,13.2180994 C19.629552,13.2552856 19.5482667,13.2882452 19.465472,13.3168455 C19.3928671,13.3415321 19.3429513,13.3662187 19.2703463,13.3909051 C19.1378054,13.4610202 19.0002736,13.5208488 18.8589187,13.5698826 Z M41.7143293,13.5698826 C42.822659,13.9470836 43.9811963,14.1484651 45.1494476,14.1669883 C45.1252459,13.7195447 45.1010443,13.2967877 45.0768426,12.8493441 C45.0801387,10.2096679 43.2167038,7.95233884 40.6660963,7.50625113 C39.2408758,6.99913234 37.8419214,6.41824509 36.4746772,5.76585005 C35.8997769,5.5658746 35.3696474,5.25117924 34.915185,4.84010479 L34.9393866,4.86479133 C35.0699556,7.10514187 35.9870783,9.22261112 37.5229102,10.8296766 L37.6197167,10.9284228 L37.8148422,11.127458 L38.0825728,11.4005528 C38.6468004,11.9194552 39.268087,12.3699041 39.9339972,12.7428835 C39.9581987,12.76757 39.9824004,12.76757 40.006602,12.7922565 L40.2985341,12.9465474 L40.4497943,13.0206071 C40.5180567,13.0637449 40.5918744,13.0969793 40.6691215,13.1193532 C40.738644,13.1421163 40.8044198,13.1754031 40.8642472,13.2180994 C40.9436959,13.2552856 41.0249813,13.2882452 41.107776,13.3168455 C41.1803809,13.3415321 41.2302967,13.3662187 41.3029016,13.3909051 C41.4354425,13.4610202 41.5729744,13.5208488 41.7143293,13.5698826 Z" id="Path_1196" fill="#676767"></path>
            </g>
        </g>
    </g>
</svg>
