<?xml version="1.0" encoding="UTF-8" standalone="no"?>
<svg width="321px" height="56px" viewBox="0 0 321 56" version="1.1" xmlns="http://www.w3.org/2000/svg" xmlns:xlink="http://www.w3.org/1999/xlink">
    <!-- Generator: Sketch 50.2 (55047) - http://www.bohemiancoding.com/sketch -->
    <title>top_core_thumbnails</title>
    <desc>Created with Sketch.</desc>
    <defs></defs>
    <g id="BodyParts-Thumbnail-Final" stroke="none" stroke-width="1" fill="none" fill-rule="evenodd">
        <g id="top_core_thumbnails" transform="translate(1.000000, 3.000000)" fill-rule="nonzero">
            <g id="top_core_thumbnails_0">
                <path d="M16,49 C16.1252226,51.0797705 16.3963225,53.1481818 16.8113,55.189975 L28.4013,55.189975 C28.4745,54.274975 28.598025,53.347775 28.671225,52.444975 C28.6909067,52.3066068 28.699068,52.1668436 28.695625,52.027125 C24.2733848,52.1309944 19.8995873,51.0881129 16,49 Z" id="Path_477" fill="#F4F4F4"></path>
                <path d="M20.445675,15.390075 C20.7540475,14.2260392 21.1648592,13.0915865 21.6733,12 C21.2625687,12.3012208 20.8359723,12.5801884 20.39535,12.8357 C20.37095,12.8601 20.34655,12.8601 20.32215,12.8845 L20.027825,13.037 L19.875325,13.1102 C19.806503,13.1528371 19.7320804,13.1856857 19.6542,13.2078 C19.5841077,13.2302988 19.5177928,13.2631993 19.457475,13.3054 C19.3773772,13.3421596 19.2954253,13.3747368 19.21195,13.403 C19.13875,13.4274 19.088425,13.4518 19.015225,13.4762 C18.862725,13.525 18.7453,13.5738 18.597375,13.6287 L18.572975,13.6287 C17.4575132,14.0092634 16.2882483,14.2085172 15.1097,14.218875 C15.0824645,15.9892633 14.9182912,17.7548908 14.61865,19.49995 C13.882075,23.259075 12.77645,26.943475 11.98955,30.6782 C11.20265,34.3138 7.54265,37.50715 6.80455,41.14275 C6.58103861,41.9764844 6.18805162,42.7551905 5.650125,43.43025 C4.5689,44.978125 1.203225,46.426875 0,47.90155 C0.082247575,48.022281 0.172420923,48.1374176 0.269925,48.2462 C1.032425,47.90155 1.794925,47.582825 2.529975,47.2885 C2.30885,48.909575 2.087725,50.580975 1.891,52.27525 C1.84055169,52.7178511 2.0153285,53.1562709 2.35643679,53.4427773 C2.69754508,53.7292838 3.15956044,53.8257236 3.5868,53.6996 C4.43421115,53.5875406 5.20728628,53.1573881 5.74925,52.496375 C6.82494884,50.6567726 7.57313935,48.6443981 7.9605,46.548875 C8.30515,43.404325 11.03185,40.308575 12.94725,37.7298 C15.1097,34.806375 17.21725,32.473125 17.8608,29.746425 C18.450975,27.36285 18.917625,24.9564 19.433075,22.548425 L19.433075,22.524025 C19.4792937,20.1137155 19.819338,17.7180419 20.445675,15.390075 Z" id="Path_478" fill="#F4F4F4"></path>
                <path d="M18.878075,13.45155 C18.951275,13.42715 19.0016,13.40275 19.0748,13.37835 C19.1548989,13.3415929 19.2368507,13.3090158 19.320325,13.28075 C19.3904086,13.2582298 19.4567205,13.2253309 19.51705,13.18315 C19.59025,13.15875 19.66955,13.10995 19.738175,13.08555 L19.890675,13.01235 L20.185,12.85985 C20.2094,12.83545 20.2338,12.83545 20.2582,12.81105 C20.9280492,12.4399819 21.5541633,11.9949498 22.1248,11.4843 C22.2266147,11.4069996 22.3174246,11.3161897 22.394725,11.214375 L22.59145,11.01765 L22.68905,10.92005 C24.2374706,9.3316379 25.1621107,7.23874647 25.29375,5.0244 L25.31815,5 C24.8573175,5.4026325 24.3236028,5.71323272 23.745875,5.915 C22.3674325,6.55984199 20.9570101,7.13398721 19.5201,7.6352 C16.9354475,8.05305572 15.0449226,10.2982161 15.0732,12.916275 C15.0488,13.358525 15.0244,13.776375 15,14.218625 C16.1698624,14.2003618 17.3298635,14.001284 18.438875,13.62845 L18.463275,13.62845 C18.6057885,13.5799853 18.7444477,13.5208513 18.878075,13.45155 Z" id="Path_484" fill="#F4F4F4"></path>
                <path d="M42.6963914,49 C42.5711688,51.0797705 42.3000689,53.1481818 41.8850914,55.189975 L30.2950914,55.189975 C30.2218914,54.274975 30.0983664,53.347775 30.0251664,52.444975 C30.0054847,52.3066068 29.9973234,52.1668436 30.0007664,52.027125 C34.4230066,52.1309944 38.7968041,51.0881129 42.6963914,49 Z" id="Path_503" fill="#F4F4F4"></path>
                <path d="M42.61775,41.067975 C41.8238577,38.9878097 40.8967709,36.9609534 39.84225,35 C33.0782416,37.0320757 25.8662584,37.0320757 19.10225,35 C18.0531469,36.9636411 17.1262186,38.9901507 16.32675,41.067975 C15.4948631,43.3535589 15.0465685,45.7609524 15,48.192775 C15.36905,48.4383 15.7625,48.683825 16.154425,48.90495 C20.0580295,50.9837673 24.4334849,52.0161604 28.854625,51.901575 L30.08225,51.901575 C34.5033901,52.0161604 38.8788455,50.9837673 42.78245,48.90495 C43.1759,48.683825 43.56935,48.4383 43.936875,48.192775 C43.8909464,45.7615632 43.4452849,43.3544759 42.61775,41.067975 Z" id="Path_504" fill="#F4F4F4"></path>
                <path d="M33.1313,1.54805017 C32.2492598,0.56296293 30.9895302,0 29.6672625,0 C28.3449948,0 27.0852652,0.56296293 26.203225,1.54805017 C26.317722,2.76295477 25.8752254,3.96425718 25,4.81460017 L25.0244,4.83900017 C26.2769395,6.04669212 27.92947,6.75220598 29.668025,6.82150017 C31.405504,6.74744727 33.0564178,6.04262363 34.31165,4.83900017 L34.33605,4.81460017 C33.4564257,3.96704159 33.0126484,2.76378708 33.1313,1.54805017 Z" id="Path_505" fill="#F4F4F4"></path>
                <path d="M39.227625,15.390075 C38.9192525,14.2260392 38.5084408,13.0915865 38,12 C38.4107313,12.3012208 38.8373277,12.5801884 39.27795,12.8357 C39.30235,12.8601 39.32675,12.8601 39.35115,12.8845 L39.645475,13.037 L39.797975,13.1102 C39.866797,13.1528371 39.9412196,13.1856857 40.0191,13.2078 C40.0891923,13.2302988 40.1555072,13.2631993 40.215825,13.3054 C40.2959217,13.3421621 40.3778738,13.3747393 40.46135,13.403 C40.53455,13.4274 40.584875,13.4518 40.658075,13.4762 C40.810575,13.525 40.928,13.5738 41.075925,13.6287 L41.100325,13.6287 C42.2157868,14.0092634 43.3850517,14.2085172 44.5636,14.218875 C44.5908599,15.989262 44.755033,17.7548876 45.05465,19.49995 C45.791225,23.259075 46.89685,26.943475 47.68375,30.6782 C48.469125,34.3138 52.13065,37.50715 52.86875,41.14275 C53.0909948,41.9702621 53.4802293,42.7435412 54.0125,43.415 C55.093725,44.962875 58.4594,46.411625 59.662625,47.8863 C59.5803738,48.0070284 59.4902006,48.1221648 59.3927,48.23095 C58.6302,47.8863 57.8677,47.567575 57.13265,47.27325 C57.353775,48.894325 57.5749,50.565725 57.771625,52.26 C57.8220733,52.7026011 57.6472965,53.1410209 57.3061882,53.4275273 C56.9650799,53.7140338 56.5030646,53.8104736 56.075825,53.68435 C55.2284138,53.5722906 54.4553387,53.1421381 53.913375,52.481125 C52.8376762,50.6415226 52.0894856,48.6291481 51.702125,46.533625 C51.357475,43.389075 48.630775,40.293325 46.715375,37.71455 C44.552925,34.791125 42.445375,32.457875 41.801825,29.731175 C41.21165,27.3476 40.745,24.94115 40.22955,22.533175 L40.22955,22.508775 C40.1855942,20.1040164 39.8491459,17.7135439 39.227625,15.390075 Z" id="Path_506" fill="#F4F4F4"></path>
                <path d="M40.437025,13.450025 C40.363825,13.425625 40.3135,13.401225 40.2403,13.376825 C40.1602022,13.3400654 40.0782503,13.3074882 39.994775,13.279225 C39.9246827,13.2567262 39.8583678,13.2238257 39.79805,13.181625 C39.72485,13.157225 39.64555,13.108425 39.576925,13.084025 L39.424425,13.010825 L39.1301,12.858325 C39.1057,12.833925 39.0813,12.833925 39.0569,12.809525 C38.3870508,12.4384569 37.7609367,11.9934248 37.1903,11.482775 C37.0884853,11.4054746 36.9976754,11.3146647 36.920375,11.21285 L36.72365,11.016125 L36.62605,10.918525 C35.0776294,9.3301129 34.1529893,7.23722147 34.02135,5.022875 L34,5 C34.4608325,5.4026325 34.9945472,5.71323272 35.572275,5.915 C36.9498368,6.55768556 38.3592374,7.12979328 39.795,7.6291 C42.3796525,8.04695572 44.2701774,10.2921161 44.2419,12.910175 C44.2663,13.352425 44.2907,13.770275 44.3151,14.212525 C43.1452376,14.1942618 41.9852365,13.995184 40.876225,13.62235 L40.851825,13.62235 C40.707857,13.5797285 40.5688133,13.521964 40.437025,13.450025 Z" id="Path_512" fill="#F4F4F4"></path>
                <path d="M40.296625,22.636625 C40.296625,22.661025 40.321025,22.4399 40.321025,22.4643 C40.2628754,20.0685063 39.9334065,17.6870194 39.338925,15.365425 C39.0072534,14.2088082 38.5970935,13.0761557 38.1113,11.97535 C38.1113,11.97535 37.71785,11.656625 37.521125,11.4843 C37.4193103,11.4069996 37.3285004,11.3161897 37.2512,11.214375 L37.054475,11.01765 L36.956875,10.92005 C35.4061266,9.3209643 34.4742888,7.2227077 34.327775,5 L34.303375,5.0244 C33.1012192,6.30946168 31.4202176,7.03879736 29.6605125,7.03879736 C27.9008074,7.03879736 26.2198058,6.30946168 25.01765,5.0244 L24.99325,5 C24.852817,7.22420344 23.9200854,9.3244726 22.36415,10.92005 L22.26655,11.01765 L22.069825,11.214375 L21.7999,11.4843 C21.603175,11.656625 21.40645,11.82895 21.209725,11.97535 C20.7201633,13.0746403 20.3099069,14.2075595 19.9821,15.365425 C19.363558,17.6822264 19.0336916,20.066587 19,22.4643 C19,22.4399 19.0244,22.4155 19.0244,22.3911 C19.56425,23.71785 19.760975,24.9958 20.203225,26.272225 C21.2087276,29.2280176 20.874577,32.4754048 19.288225,35.1645 C22.6806747,36.0409027 26.1570925,36.5521406 29.658225,36.6895 C33.1595275,36.5539737 36.6361402,36.0427071 40.028225,35.1645 C38.4416745,32.4754701 38.1075148,29.2279941 39.113225,26.272225 C39.56005,24.9958 39.756775,23.938975 40.296625,22.636625 Z" id="Path_521" fill="#F4F4F4"></path>
                <path d="M20,27 C20.7496781,28.8084764 20.5433476,32.6535747 20,34.5343664 C22.9870594,35.3503316 26.3671282,35.9964931 29.4572875,36.1945807 C32.54723,35.9989657 35.9285678,35.3527617 38.914575,34.5343664 C38.64465,32.0531914 37.859275,30.069825 38.914575,27 C32.183741,27 27.9346268,27 20,27 Z" id="Path_522" fill="#D6D4D4"></path>
                <path d="M37.904625,11.976875 C37.7079,11.824375 37.511175,11.65815 37.31445,11.485825 C37.2126478,11.4085103 37.1218397,11.3177022 37.044525,11.2159 L36.8478,11.019175 L36.7502,10.921575 C35.1980063,9.322548 34.2650394,7.22364272 34.11805,5 L34.09365,5.0244 C32.8914942,6.30946168 31.2104926,7.03879736 29.4507875,7.03879736 C27.6910824,7.03879736 26.0100808,6.30946168 24.807925,5.0244 L24.783525,5 C24.643092,7.22420344 23.7103604,9.3244726 22.154425,10.92005 L22.056825,11.01765 L21.8601,11.214375 L21.590175,11.4843 C21.39345,11.656625 21.196725,11.82895 21,11.97535 C21.318725,12.220875 23.6291,20.327775 29.450025,20.327775 C34.952225,20.327775 37.605725,12.196475 37.90005,11.97535 L37.904625,11.976875 Z" id="Path_688" stroke="#F4F4F4" stroke-width="0.3" fill="#F4F4F4"></path>
            </g>
            <g id="top_core_thumbnails_1" transform="translate(68.000000, 0.000000)">
                <path d="M17,50 C17.1242689,52.1041879 17.3931642,54.1968849 17.8047041,56.2626667 L29.3004765,56.2626667 C29.3730813,55.3369214 29.495602,54.398833 29.5682069,53.485431 C29.5877285,53.3454378 29.5958235,53.2040333 29.5924085,53.0626739 C25.2061215,53.1677631 20.8678833,52.1126346 17,50 Z" id="Path_533" fill="#F4F4F4"></path>
                <path d="M20.27945,15.4298861 C20.5853154,14.2521805 20.9927872,13.1044055 21.4970943,12 C21.0896891,12.3047386 20.6665619,12.5869816 20.2295341,12.8455139 C20.2053326,12.8702005 20.1811309,12.8702005 20.1569293,12.8948871 L19.8649972,13.0491779 L19.713737,13.1232375 C19.6454746,13.1663754 19.5716569,13.1996097 19.4944098,13.2219837 C19.4248786,13.2447251 19.3590998,13.2780133 19.2992841,13.3207298 C19.2198365,13.3579186 19.1385509,13.3908783 19.0557553,13.4194761 C18.9831504,13.4441625 18.9332346,13.4688491 18.8606297,13.4935357 C18.7093695,13.5429087 18.5928992,13.5922818 18.4461768,13.6478265 L18.4219752,13.6478265 C17.3155822,14.032859 16.1558236,14.2344528 14.9868569,14.2449323 C14.959867,16.0361123 14.7970283,17.8224763 14.4997992,19.5880253 C13.7692126,23.3912954 12.6725765,27.118963 11.892074,30.8975465 C11.1115715,34.5758409 7.48132765,37.806692 6.74922846,41.4849864 C6.52753423,42.3285117 6.13774226,43.1163625 5.60418902,43.7993496 C4.53175447,45.365402 1.19344268,46.8311653 0,48.323158 C0.0815500247,48.4453284 0.170991723,48.5618191 0.267730484,48.6718554 C1.0240313,48.323158 1.78033211,48.0006901 2.50940609,47.7029087 C2.29007887,49.3430207 2.07075163,51.0340488 1.87562602,52.7482204 C1.82558786,53.1960192 1.99894371,53.6395875 2.33727877,53.9294586 C2.67561382,54.2193295 3.13387296,54.3169019 3.55763902,54.1892971 C4.39816065,54.0759218 5.16495062,53.6407178 5.70250813,52.9719421 C6.76940591,51.1107096 7.51150987,49.074713 7.89578048,46.954598 C8.23611585,43.7731201 10.9421602,40.6410153 12.8419878,38.0319566 C14.9868569,35.0742005 17.0772724,32.7135501 17.7155902,29.9548292 C18.3009671,27.5432628 18.7638232,25.1085528 19.2750826,22.6722999 L19.2750826,22.6476133 C19.3208503,20.2089923 19.6581312,17.785176 20.27945,15.4298861 Z" id="Path_534" fill="#F4F4F4"></path>
                <path d="M18.8465459,13.5508004 C18.9191508,13.5261138 18.9690667,13.5014272 19.0416715,13.4767408 C19.1211202,13.4395545 19.2024057,13.4065949 19.2852004,13.3779946 C19.3547143,13.3552099 19.4204869,13.3219246 19.480326,13.2792484 C19.5529309,13.2545619 19.6315861,13.2051888 19.6996532,13.1805022 L19.8509134,13.1064426 L20.1428455,12.9521518 C20.1670471,12.9274652 20.1912487,12.9274652 20.2154504,12.9027786 C20.8798605,12.527364 21.5008854,12.0771048 22.0668748,11.5604481 C22.1678617,11.4822398 22.2579333,11.3903635 22.3346052,11.2873532 L22.5297309,11.088318 L22.6265374,10.9895718 C24.1623692,9.38250632 25.0794919,7.26503709 25.2100609,5.02468654 L25.2342626,5 C24.7771767,5.4073608 24.2478012,5.72160853 23.6747702,5.92574526 C22.3075388,6.57816972 20.9085828,7.1590576 19.4833512,7.66614634 C16.9197121,8.08890913 15.0445573,10.3604355 15.0726048,13.0092394 C15.0484032,13.4566829 15.0242015,13.8794399 15,14.3268835 C16.1603513,14.3084058 17.3109216,14.1069901 18.4109167,13.7297778 L18.4351182,13.7297778 C18.5780977,13.6851774 18.7160171,13.6251804 18.8465459,13.5508004 Z" id="Path_539" fill="#F4F4F4"></path>
                <path d="M42.5931688,50 C42.4689642,52.1041942 42.2000683,54.1968958 41.7884647,56.2626667 L30.2926923,56.2626667 C30.2200875,55.3369214 30.0975667,54.398833 30.0249619,53.485431 C30.0054401,53.3454378 29.9973451,53.2040333 30.0007602,53.0626739 C34.3870472,53.1677631 38.7252853,52.1126346 42.5931688,50 Z" id="Path_558" fill="#F4F4F4"></path>
                <path d="M42.3932154,42.139234 C41.6057737,40.034642 40.6862243,37.9839837 39.6402805,36 C32.9312639,38.0559392 25.7779148,38.0559392 19.0688984,36 C18.0283417,37.9867097 17.1089501,40.0370164 16.3159634,42.139234 C15.4908666,44.451666 15.0462176,46.887326 15,49.3477037 C15.3660496,49.596112 15.7563008,49.8445203 16.1450394,50.068242 C20.0169074,52.1714719 24.3567899,53.2159888 28.7419858,53.1000577 L29.95963,53.1000577 C34.344826,53.2159888 38.6847085,52.1714719 42.5565765,50.068242 C42.9468276,49.8445203 43.3355663,49.596112 43.7016159,49.3477037 C43.6560881,46.8879382 43.2140491,44.4525788 42.3932154,42.139234 Z" id="Path_559" fill="#F4F4F4"></path>
                <path d="M33.0651919,1.56622962 C32.1903227,0.569574061 30.9408347,0 29.6293172,0 C28.3177998,0 27.0683117,0.569574061 26.1934426,1.56622962 C26.3072322,2.79543106 25.8682987,4.0109365 25,4.87114019 L25.0242015,4.89582672 C26.2665578,6.11770115 27.9056532,6.83150018 29.6300735,6.90160812 C31.3534267,6.82668558 32.9909185,6.11358489 34.2359455,4.89582672 L34.2601471,4.87114019 C33.3974463,4.00715031 32.9590603,2.79469803 33.0651919,1.56622962 Z" id="Path_560" fill="#F4F4F4"></path>
                <path d="M39.2176444,15.4298861 C38.9117789,14.2521805 38.5043071,13.1044055 38,12 C38.4074053,12.3047386 38.8305324,12.5869816 39.2675602,12.8455139 C39.2917618,12.8702005 39.3159635,12.8702005 39.340165,12.8948871 L39.6320972,13.0491779 L39.7833574,13.1232375 C39.8516107,13.1663932 39.9254306,13.1996287 40.0026846,13.2219837 C40.072207,13.2447467 40.1379828,13.2780336 40.1978102,13.3207298 C40.2772493,13.3579391 40.3585358,13.3908992 40.4413391,13.4194761 C40.5139439,13.4441625 40.5638598,13.4688491 40.6364646,13.4935357 C40.7877248,13.5429087 40.9041952,13.5922818 41.0509175,13.6478265 L41.0751191,13.6478265 C42.1815121,14.032859 43.3412708,14.2344528 44.5102374,14.2449323 C44.5372757,16.0361097 44.700114,17.8224697 44.9972952,19.5880253 C45.7278817,23.3912954 46.8245179,27.118963 47.6050204,30.8975465 C48.3855228,34.5758409 52.0157667,37.806692 52.7478659,41.4849864 C52.9683038,42.3222163 53.3543738,43.1045764 53.8823171,43.7839205 C54.9547516,45.3499729 58.2930635,46.8157361 59.4865061,48.307729 C59.4049272,48.4298778 59.315487,48.5463665 59.2187757,48.6564264 C58.4624748,48.307729 57.706174,47.985261 56.9771,47.6874796 C57.1964272,49.3275917 57.4157545,51.0186196 57.6108801,52.7327912 C57.6609182,53.1805901 57.4875624,53.6241584 57.1492274,53.9140294 C56.8108923,54.2039005 56.3526331,54.3014728 55.9288671,54.1738681 C55.0883455,54.0604928 54.3215555,53.6252888 53.783998,52.9565131 C52.7170446,51.0953074 51.974937,49.0593007 51.5907257,46.9391689 C51.2488777,43.7576911 48.5443459,40.6255863 46.6445183,38.0165275 C44.4996492,35.0587715 42.4092337,32.698121 41.7709159,29.9394002 C41.1855391,27.5278338 40.7226829,25.0931238 40.2114236,22.6568708 L40.2114236,22.6321843 C40.1678851,20.1991806 39.8341712,17.7806284 39.2176444,15.4298861 Z" id="Path_561" fill="#F4F4F4"></path>
                <path d="M40.3846915,13.5492575 C40.3120866,13.5245709 40.2621707,13.4998843 40.1895659,13.4751979 C40.1101172,13.4380116 40.0288317,13.405052 39.946037,13.3764517 C39.8765231,13.353667 39.8107505,13.3203817 39.7509114,13.2777055 C39.6783065,13.253019 39.5996513,13.2036459 39.5315842,13.1789593 L39.380324,13.1048997 L39.0883919,12.9506088 C39.0641903,12.9259223 39.0399887,12.9259223 39.015787,12.9012357 C38.3513769,12.5258211 37.730352,12.0755619 37.1643626,11.5589051 C37.0633509,11.4807259 36.9732756,11.388846 36.8966322,11.2858103 L36.7015065,11.0867751 L36.6047,10.9880289 C35.0688682,9.38096341 34.1517455,7.26349418 34.0211765,5.02314363 L34,5 C34.4570859,5.4073608 34.9864614,5.72160853 35.5594923,5.92574526 C36.9267311,6.57815256 38.3256863,7.15904006 39.7509114,7.66614634 C42.3145505,8.08890912 44.1897052,10.3604355 44.1616578,13.0092394 C44.1858594,13.4566829 44.210061,13.8794399 44.2342626,14.3268835 C43.0739113,14.3084058 41.923341,14.1069901 40.8233459,13.7297778 L40.7991444,13.7297778 C40.6766236,13.6742331 40.5299013,13.6248599 40.3846915,13.5492575 Z" id="Path_566" fill="#F4F4F4"></path>
                <path d="M40.296625,22.636625 C40.296625,22.661025 40.321025,22.4399 40.321025,22.4643 C40.2628754,20.0685063 39.9334065,17.6870194 39.338925,15.365425 C39.0072534,14.2088082 38.5970935,13.0761557 38.1113,11.97535 C38.1113,11.97535 37.71785,11.656625 37.521125,11.4843 C37.4193103,11.4069996 37.3285004,11.3161897 37.2512,11.214375 L37.054475,11.01765 L36.956875,10.92005 C35.4061266,9.3209643 34.4742888,7.2227077 34.327775,5 L34.303375,5.0244 C33.1012192,6.30946168 31.4202176,7.03879736 29.6605125,7.03879736 C27.9008074,7.03879736 26.2198058,6.30946168 25.01765,5.0244 L24.99325,5 C24.852817,7.22420344 23.9200854,9.3244726 22.36415,10.92005 L22.26655,11.01765 L22.069825,11.214375 L21.7999,11.4843 C21.603175,11.656625 21.40645,11.82895 21.209725,11.97535 C20.7201633,13.0746403 20.3099069,14.2075595 19.9821,15.365425 C19.363558,17.6822264 19.0336916,20.066587 19,22.4643 C19,22.4399 19.0244,22.4155 19.0244,22.3911 C19.56425,23.71785 19.760975,24.9958 20.203225,26.272225 C21.2087276,29.2280176 20.874577,32.4754048 19.288225,35.1645 C22.6806747,36.0409027 26.1570925,36.5521406 29.658225,36.6895 C33.1595275,36.5539737 36.6361402,36.0427071 40.028225,35.1645 C38.4416745,32.4754701 38.1075148,29.2279941 39.113225,26.272225 C39.56005,24.9958 39.756775,23.938975 40.296625,22.636625 Z" id="Path_521" fill="#F4F4F4"></path>
                <path d="M20.3142805,27 C21.8951928,31.2061175 21.3625134,33.9839765 18,38.9297705 C21.7982327,40.1111851 25.728117,40.7960524 29.6954358,40.9679531 C33.7016555,40.7841895 37.5987225,40.0996803 41.4414826,38.9297705 C38.6167985,33.9839765 37.1218516,31.7403007 39.1007926,27 C30.5124487,27 28.5264136,27 20.3142805,27 Z" id="Path_576" fill="#676767"></path>
                <path d="M37.1818122,11.561991 C37.0808004,11.4838118 36.9907252,11.3919318 36.9140817,11.2888961 L36.7189561,11.0898609 L36.6221496,10.9911147 C35.0825753,9.37330958 34.1571935,7.24975596 34.0113991,5 C32.7948154,6.32483927 31.1274805,7.06273987 29.3820819,7.06273987 C27.6366834,7.06273987 25.9693483,6.32483927 24.7769663,5.02468653 C24.6134734,7.25032326 23.688325,9.37525682 22.1450394,10.9895718 L22.0482329,11.088318 L21.8531073,11.2873532 L21.5853768,11.5604481 C21.3902512,11.7347967 21.1951256,11.9091454 21,12.0572647 C21.3161337,12.3056729 23.6077252,20.507776 29.3813256,20.507776 C34.8145906,20.507776 37.4465174,12.2809865 37.7626512,12.0572647 C37.5720634,11.9045167 37.3769378,11.7363396 37.1818122,11.561991 Z" id="Path_689" stroke="#F4F4F4" stroke-width="0.3" fill="#F4F4F4" stroke-linejoin="bevel"></path>
            </g>
            <g id="top_core_thumbnails_2" transform="translate(136.000000, 0.000000)">
                <path d="M17,50 C17.1242044,52.1041942 17.3931004,54.1968958 17.8047041,56.2626667 L29.3004765,56.2626667 C29.3730813,55.3369214 29.495602,54.398833 29.5682069,53.485431 C29.5877285,53.3454378 29.5958235,53.2040333 29.5924085,53.0626739 C25.2061215,53.1677631 20.8678833,52.1126346 17,50 Z" id="Path_588" fill="#F4F4F4"></path>
                <path d="M20.27945,15.4298861 C20.5853154,14.2521805 20.9927872,13.1044055 21.4970943,12 C21.0897006,12.3047557 20.6665726,12.5869993 20.2295341,12.8455139 C20.2053326,12.8702005 20.1811309,12.8702005 20.1569293,12.8948871 L19.8649972,13.0491779 L19.713737,13.1232375 C19.6454653,13.1663576 19.5716503,13.1995909 19.4944098,13.2219837 C19.4248873,13.2447467 19.3591115,13.2780336 19.2992841,13.3207298 C19.219845,13.3579391 19.1385585,13.3908992 19.0557553,13.4194761 C18.9831504,13.4441625 18.9332346,13.4688491 18.8606297,13.4935357 C18.7093695,13.5429087 18.5928992,13.5922818 18.4461768,13.6478265 L18.4219752,13.6478265 C17.3155822,14.032859 16.1558236,14.2344528 14.9868569,14.2449323 C14.9598186,16.0361097 14.7969803,17.8224697 14.4997992,19.5880253 C13.7692126,23.3912954 12.6725765,27.118963 11.892074,30.8975465 C11.1130841,34.5758409 7.48132765,37.806692 6.74922846,41.4849864 C6.52749355,42.3284959 6.1377056,43.1163385 5.60418902,43.7993496 C4.53175447,45.365402 1.19344268,46.8311653 0,48.323158 C0.0815824889,48.4453042 0.171022538,48.5617927 0.267730484,48.6718554 C1.0240313,48.323158 1.78033211,48.0006901 2.50940609,47.7029087 C2.29007887,49.3430207 2.07075163,51.0340488 1.87562602,52.7482204 C1.82558786,53.1960192 1.99894371,53.6395875 2.33727877,53.9294586 C2.67561382,54.2193295 3.13387296,54.3169019 3.55763902,54.1892971 C4.39811215,54.0757724 5.16485167,53.640597 5.70250813,52.9719421 C6.76946145,51.1107364 7.51156912,49.0747297 7.89578048,46.954598 C8.23762846,43.7731201 10.9421602,40.6410153 12.8419878,38.0319566 C14.9868569,35.0742005 17.0772724,32.7135501 17.7155902,29.9548292 C18.3009671,27.5432628 18.7638232,25.1085528 19.2750826,22.6722999 L19.2750826,22.6476133 C19.3208954,20.208996 19.6581756,17.7851853 20.27945,15.4298861 Z" id="Path_589" fill="#F4F4F4"></path>
                <path d="M18.8465459,13.5508004 C18.9191508,13.5261138 18.9690667,13.5014272 19.0416715,13.4767408 C19.1211256,13.4395673 19.2024103,13.4066078 19.2852004,13.3779946 C19.3547228,13.3552316 19.4204986,13.3219448 19.480326,13.2792484 C19.5529309,13.2545619 19.6315861,13.2051888 19.6996532,13.1805022 L19.8509134,13.1064426 L20.1428455,12.9521518 C20.1670471,12.9274652 20.1912487,12.9274652 20.2154504,12.9027786 C20.8798605,12.527364 21.5008854,12.0771048 22.0668748,11.5604481 C22.1678865,11.4822688 22.2579618,11.3903889 22.3346052,11.2873532 L22.5297309,11.088318 L22.6265374,10.9895718 C24.1623692,9.38250632 25.0794919,7.26503709 25.2100609,5.02468654 L25.2342626,5 C24.7771986,5.40739192 24.2478169,5.72164334 23.6747702,5.92574526 C22.3075315,6.57815256 20.9085763,7.15904007 19.4833512,7.66614634 C16.9197121,8.08890913 15.0445573,10.3604355 15.0726048,13.0092394 C15.0484032,13.4566829 15.0242015,13.8794399 15,14.3268835 C16.1603513,14.3084058 17.3109216,14.1069901 18.4109167,13.7297778 L18.4351182,13.7297778 C18.5780703,13.6851009 18.7159819,13.6251072 18.8465459,13.5508004 Z" id="Path_594" fill="#F4F4F4"></path>
                <path d="M42.593153,50 C42.4689485,52.1041942 42.2000525,54.1968958 41.7884489,56.2626667 L30.2926766,56.2626667 C30.2200717,55.3369214 30.097551,54.398833 30.0249461,53.485431 C30.0054659,53.3454336 29.9973711,53.2040325 30.0007445,53.0626739 C34.3870314,53.1677631 38.7252696,52.1126346 42.593153,50 Z" id="Path_613" fill="#F4F4F4"></path>
                <path d="M42.3932154,42.139234 C41.6057467,40.0346535 40.686198,37.9839969 39.6402805,36 C32.9312509,38.0558484 25.7779279,38.0558484 19.0688984,36 C18.0283417,37.9867097 17.1089501,40.0370164 16.3159634,42.139234 C15.4908398,44.4516585 15.0461898,46.8873231 15,49.3477037 C15.3660496,49.596112 15.7563008,49.8445203 16.1450394,50.068242 C20.0169074,52.1714719 24.3567899,53.2159888 28.7419858,53.1000577 L29.95963,53.1000577 C34.344826,53.2159888 38.6847085,52.1714719 42.5565765,50.068242 C42.9468276,49.8445203 43.3370789,49.596112 43.7016159,49.3477037 C43.6560881,46.8879382 43.2140491,44.4525788 42.3932154,42.139234 Z" id="Path_614" fill="#F4F4F4"></path>
                <path d="M33.0636793,1.56605239 C32.1452627,0.632592468 30.9229658,0.0753537452 29.6285609,0 C28.3354988,0.0809567733 27.1150563,0.637350114 26.1934426,1.56605239 C26.3070088,2.79522416 25.8681097,4.01063401 25,4.87096296 L25.0242015,4.89564949 C26.2665578,6.11752392 27.9056532,6.83132295 29.6300735,6.90143089 C31.3534267,6.82650835 32.9909185,6.11340766 34.2359455,4.89564949 L34.2601471,4.87096296 C33.3968929,4.00725296 32.9579386,2.7947635 33.0636793,1.56605239 Z" id="Path_615" fill="#F4F4F4"></path>
                <path d="M39.2176444,15.4298861 C38.9117789,14.2521805 38.5043071,13.1044055 38,12 C38.4074053,12.3047386 38.8305324,12.5869816 39.2675602,12.8455139 C39.2917618,12.8702005 39.3159635,12.8702005 39.340165,12.8948871 L39.6320972,13.0491779 L39.7833574,13.1232375 C39.8516198,13.1663754 39.9254373,13.1996097 40.0026846,13.2219837 C40.072207,13.2447467 40.1379828,13.2780336 40.1978102,13.3207298 C40.2772558,13.3579237 40.3585415,13.3908835 40.4413391,13.4194761 C40.5139439,13.4441625 40.5638598,13.4688491 40.6364646,13.4935357 C40.7877248,13.5429087 40.9041952,13.5922818 41.0509175,13.6478265 L41.0751191,13.6478265 C42.1815121,14.032859 43.3412708,14.2344528 44.5102374,14.2449323 C44.5371971,16.036114 44.7000361,17.8224803 44.9972952,19.5880253 C45.7278817,23.3912954 46.8245179,27.118963 47.6050204,30.8975465 C48.3855228,34.5758409 52.0157667,37.806692 52.7478659,41.4849864 C52.9683439,42.3222007 53.3544099,43.1045529 53.8823171,43.7839205 C54.9547516,45.3499729 58.2930635,46.8157361 59.4865061,48.307729 C59.4049272,48.4298778 59.315487,48.5463665 59.2187757,48.6564264 C58.4624748,48.307729 57.706174,47.985261 56.9771,47.6874796 C57.1964272,49.3275917 57.4157545,51.0186196 57.6108801,52.7327912 C57.6609182,53.1805901 57.4875624,53.6241584 57.1492274,53.9140294 C56.8108923,54.2039005 56.3526331,54.3014728 55.9288671,54.1738681 C55.0883455,54.0604928 54.3215555,53.6252888 53.783998,52.9565131 C52.7170169,51.0953208 51.9749073,49.0593089 51.5907257,46.9391689 C51.2488777,43.7576911 48.5443459,40.6255863 46.6445183,38.0165275 C44.4996492,35.0587715 42.4092337,32.698121 41.7709159,29.9394002 C41.1855391,27.5278338 40.7226829,25.0931238 40.2114236,22.6568708 L40.2114236,22.6321843 C40.1677952,20.1991878 39.8340828,17.7806467 39.2176444,15.4298861 Z" id="Path_616" fill="#F4F4F4"></path>
                <path d="M40.3846915,13.5492575 C40.3120866,13.5245709 40.2621707,13.4998843 40.1895659,13.4751979 C40.1101193,13.4380065 40.0288336,13.4050468 39.946037,13.3764517 C39.8765145,13.3536887 39.8107388,13.3204018 39.7509114,13.2777055 C39.6783065,13.253019 39.5996513,13.2036459 39.5315842,13.1789593 L39.380324,13.1048997 L39.0883919,12.9506088 C39.0641903,12.9259223 39.0399887,12.9259223 39.015787,12.9012357 C38.3513769,12.5258211 37.730352,12.0755619 37.1643626,11.5589051 C37.0633757,11.4806969 36.9733041,11.3888206 36.8966322,11.2858103 L36.7015065,11.0867751 L36.6047,10.9880289 C35.0687542,9.38104202 34.1516117,7.26352723 34.0211765,5.02314363 L34,5 C34.4570859,5.4073608 34.9864614,5.72160853 35.5594923,5.92574526 C36.9267248,6.57816727 38.3256807,7.15905509 39.7509114,7.66614634 C42.3145505,8.08890912 44.1897052,10.3604355 44.1616578,13.0092394 C44.1858594,13.4566829 44.210061,13.8794399 44.2342626,14.3268835 C43.0739113,14.3084058 41.923341,14.1069901 40.8233459,13.7297778 L40.7991444,13.7297778 C40.6766236,13.6742331 40.5299013,13.6248599 40.3846915,13.5492575 Z" id="Path_621" fill="#F4F4F4"></path>
                <path d="M40.296625,22.636625 C40.296625,22.661025 40.321025,22.4399 40.321025,22.4643 C40.2628754,20.0685063 39.9334065,17.6870194 39.338925,15.365425 C39.0072534,14.2088082 38.5970935,13.0761557 38.1113,11.97535 C38.1113,11.97535 37.71785,11.656625 37.521125,11.4843 C37.4193103,11.4069996 37.3285004,11.3161897 37.2512,11.214375 L37.054475,11.01765 L36.956875,10.92005 C35.4061266,9.3209643 34.4742888,7.2227077 34.327775,5 L34.303375,5.0244 C33.1012192,6.30946168 31.4202176,7.03879736 29.6605125,7.03879736 C27.9008074,7.03879736 26.2198058,6.30946168 25.01765,5.0244 L24.99325,5 C24.852817,7.22420344 23.9200854,9.3244726 22.36415,10.92005 L22.26655,11.01765 L22.069825,11.214375 L21.7999,11.4843 C21.603175,11.656625 21.40645,11.82895 21.209725,11.97535 C20.7201633,13.0746403 20.3099069,14.2075595 19.9821,15.365425 C19.363558,17.6822264 19.0336916,20.066587 19,22.4643 C19,22.4399 19.0244,22.4155 19.0244,22.3911 C19.56425,23.71785 19.760975,24.9958 20.203225,26.272225 C21.2087276,29.2280176 20.874577,32.4754048 19.288225,35.1645 C22.6806747,36.0409027 26.1570925,36.5521406 29.658225,36.6895 C33.1595275,36.5539737 36.6361402,36.0427071 40.028225,35.1645 C38.4416745,32.4754701 38.1075148,29.2279941 39.113225,26.272225 C39.56005,24.9958 39.756775,23.938975 40.296625,22.636625 Z" id="Path_521" fill="#F4F4F4"></path>
                <path d="M37.7671889,12.0588076 C37.5720634,11.9045167 37.3769378,11.7363396 37.1818121,11.561991 C37.0808004,11.4838118 36.9907251,11.3919318 36.9140817,11.2888961 L36.718956,11.0898609 L36.6221495,10.9911147 C35.0825753,9.37330958 34.1571935,7.24975596 34.0113991,5 L33.9871975,5.02468653 C32.7948153,6.32483927 31.1274804,7.06273987 29.3820819,7.06273987 C27.6366833,7.06273987 25.9693483,6.32483927 24.7769662,5.02468653 L24.7527646,5 C24.6134734,7.25032326 23.6883249,9.37525682 22.1450393,10.9895718 L22.0482328,11.088318 L21.8531073,11.2873532 L21.5853767,11.5604481 C21.3902512,11.7347967 21.1951256,11.9091454 21,12.0572647 C21.3161337,12.3056729 23.6077252,20.507776 29.3813256,20.507776 C34.8387922,20.507776 37.4465174,12.2809865 37.7626512,12.0572647 L37.7671889,12.0588076 Z" id="Path_690" stroke="#F4F4F4" stroke-width="0.3" fill="#F4F4F4" stroke-linejoin="bevel"></path>
                <path d="M19.0845664,26 C19.0845664,29.8563554 18.7376368,35.7652748 18,37.9297705 C21.7230662,39.1301576 25.4125581,39.7960524 29.3798768,39.9679531 C33.3860966,39.7841895 36.6014192,39.0996803 40.4441793,37.9297705 C39.6042871,33.5586037 39.7372942,30.190339 39.488211,26 C30.899867,26 27.2966995,26 19.0845664,26 Z" id="Path_576" fill="#676767"></path>
            </g>
            <g id="top_core_thumbnails_3" transform="translate(204.000000, 0.000000)">
                <path d="M17,50 C17.1242044,52.1041942 17.3931004,54.1968958 17.8047041,56.2626667 L29.3004765,56.2626667 C29.3730813,55.3369214 29.495602,54.398833 29.5682069,53.485431 C29.5877285,53.3454378 29.5958235,53.2040333 29.5924085,53.0626739 C25.2061215,53.1677631 20.8678833,52.1126346 17,50 Z" id="Path_588" fill="#F4F4F4"></path>
                <path d="M20.27945,15.4298861 C20.5853154,14.2521805 20.9927872,13.1044055 21.4970943,12 C21.0897006,12.3047557 20.6665726,12.5869993 20.2295341,12.8455139 C20.2053326,12.8702005 20.1811309,12.8702005 20.1569293,12.8948871 L19.8649972,13.0491779 L19.713737,13.1232375 C19.6454653,13.1663576 19.5716503,13.1995909 19.4944098,13.2219837 C19.4248873,13.2447467 19.3591115,13.2780336 19.2992841,13.3207298 C19.219845,13.3579391 19.1385585,13.3908992 19.0557553,13.4194761 C18.9831504,13.4441625 18.9332346,13.4688491 18.8606297,13.4935357 C18.7093695,13.5429087 18.5928992,13.5922818 18.4461768,13.6478265 L18.4219752,13.6478265 C17.3155822,14.032859 16.1558236,14.2344528 14.9868569,14.2449323 C14.9598186,16.0361097 14.7969803,17.8224697 14.4997992,19.5880253 C13.7692126,23.3912954 12.6725765,27.118963 11.892074,30.8975465 C11.1130841,34.5758409 7.48132765,37.806692 6.74922846,41.4849864 C6.52749355,42.3284959 6.1377056,43.1163385 5.60418902,43.7993496 C4.53175447,45.365402 1.19344268,46.8311653 0,48.323158 C0.0815824889,48.4453042 0.171022538,48.5617927 0.267730484,48.6718554 C1.0240313,48.323158 1.78033211,48.0006901 2.50940609,47.7029087 C2.29007887,49.3430207 2.07075163,51.0340488 1.87562602,52.7482204 C1.82558786,53.1960192 1.99894371,53.6395875 2.33727877,53.9294586 C2.67561382,54.2193295 3.13387296,54.3169019 3.55763902,54.1892971 C4.39811215,54.0757724 5.16485167,53.640597 5.70250813,52.9719421 C6.76946145,51.1107364 7.51156912,49.0747297 7.89578048,46.954598 C8.23762846,43.7731201 10.9421602,40.6410153 12.8419878,38.0319566 C14.9868569,35.0742005 17.0772724,32.7135501 17.7155902,29.9548292 C18.3009671,27.5432628 18.7638232,25.1085528 19.2750826,22.6722999 L19.2750826,22.6476133 C19.3208954,20.208996 19.6581756,17.7851853 20.27945,15.4298861 Z" id="Path_589" fill="#F4F4F4"></path>
                <path d="M18.8465459,13.5508004 C18.9191508,13.5261138 18.9690667,13.5014272 19.0416715,13.4767408 C19.1211256,13.4395673 19.2024103,13.4066078 19.2852004,13.3779946 C19.3547228,13.3552316 19.4204986,13.3219448 19.480326,13.2792484 C19.5529309,13.2545619 19.6315861,13.2051888 19.6996532,13.1805022 L19.8509134,13.1064426 L20.1428455,12.9521518 C20.1670471,12.9274652 20.1912487,12.9274652 20.2154504,12.9027786 C20.8798605,12.527364 21.5008854,12.0771048 22.0668748,11.5604481 C22.1678865,11.4822688 22.2579618,11.3903889 22.3346052,11.2873532 L22.5297309,11.088318 L22.6265374,10.9895718 C24.1623692,9.38250632 25.0794919,7.26503709 25.2100609,5.02468654 L25.2342626,5 C24.7771986,5.40739192 24.2478169,5.72164334 23.6747702,5.92574526 C22.3075315,6.57815256 20.9085763,7.15904007 19.4833512,7.66614634 C16.9197121,8.08890913 15.0445573,10.3604355 15.0726048,13.0092394 C15.0484032,13.4566829 15.0242015,13.8794399 15,14.3268835 C16.1603513,14.3084058 17.3109216,14.1069901 18.4109167,13.7297778 L18.4351182,13.7297778 C18.5780703,13.6851009 18.7159819,13.6251072 18.8465459,13.5508004 Z" id="Path_594" fill="#F4F4F4"></path>
                <path d="M42.593153,50 C42.4689485,52.1041942 42.2000525,54.1968958 41.7884489,56.2626667 L30.2926766,56.2626667 C30.2200717,55.3369214 30.097551,54.398833 30.0249461,53.485431 C30.0054659,53.3454336 29.9973711,53.2040325 30.0007445,53.0626739 C34.3870314,53.1677631 38.7252696,52.1126346 42.593153,50 Z" id="Path_613" fill="#F4F4F4"></path>
                <path d="M42.3932154,42.139234 C41.6057467,40.0346535 40.686198,37.9839969 39.6402805,36 C32.9312509,38.0558484 25.7779279,38.0558484 19.0688984,36 C18.0283417,37.9867097 17.1089501,40.0370164 16.3159634,42.139234 C15.4908398,44.4516585 15.0461898,46.8873231 15,49.3477037 C15.3660496,49.596112 15.7563008,49.8445203 16.1450394,50.068242 C20.0169074,52.1714719 24.3567899,53.2159888 28.7419858,53.1000577 L29.95963,53.1000577 C34.344826,53.2159888 38.6847085,52.1714719 42.5565765,50.068242 C42.9468276,49.8445203 43.3370789,49.596112 43.7016159,49.3477037 C43.6560881,46.8879382 43.2140491,44.4525788 42.3932154,42.139234 Z" id="Path_614" fill="#F4F4F4"></path>
                <path d="M33.0636793,1.56605239 C32.1452627,0.632592468 30.9229658,0.0753537452 29.6285609,0 C28.3354988,0.0809567733 27.1150563,0.637350114 26.1934426,1.56605239 C26.3070088,2.79522416 25.8681097,4.01063401 25,4.87096296 L25.0242015,4.89564949 C26.2665578,6.11752392 27.9056532,6.83132295 29.6300735,6.90143089 C31.3534267,6.82650835 32.9909185,6.11340766 34.2359455,4.89564949 L34.2601471,4.87096296 C33.3968929,4.00725296 32.9579386,2.7947635 33.0636793,1.56605239 Z" id="Path_615" fill="#F4F4F4"></path>
                <path d="M39.2176444,15.4298861 C38.9117789,14.2521805 38.5043071,13.1044055 38,12 C38.4074053,12.3047386 38.8305324,12.5869816 39.2675602,12.8455139 C39.2917618,12.8702005 39.3159635,12.8702005 39.340165,12.8948871 L39.6320972,13.0491779 L39.7833574,13.1232375 C39.8516198,13.1663754 39.9254373,13.1996097 40.0026846,13.2219837 C40.072207,13.2447467 40.1379828,13.2780336 40.1978102,13.3207298 C40.2772558,13.3579237 40.3585415,13.3908835 40.4413391,13.4194761 C40.5139439,13.4441625 40.5638598,13.4688491 40.6364646,13.4935357 C40.7877248,13.5429087 40.9041952,13.5922818 41.0509175,13.6478265 L41.0751191,13.6478265 C42.1815121,14.032859 43.3412708,14.2344528 44.5102374,14.2449323 C44.5371971,16.036114 44.7000361,17.8224803 44.9972952,19.5880253 C45.7278817,23.3912954 46.8245179,27.118963 47.6050204,30.8975465 C48.3855228,34.5758409 52.0157667,37.806692 52.7478659,41.4849864 C52.9683439,42.3222007 53.3544099,43.1045529 53.8823171,43.7839205 C54.9547516,45.3499729 58.2930635,46.8157361 59.4865061,48.307729 C59.4049272,48.4298778 59.315487,48.5463665 59.2187757,48.6564264 C58.4624748,48.307729 57.706174,47.985261 56.9771,47.6874796 C57.1964272,49.3275917 57.4157545,51.0186196 57.6108801,52.7327912 C57.6609182,53.1805901 57.4875624,53.6241584 57.1492274,53.9140294 C56.8108923,54.2039005 56.3526331,54.3014728 55.9288671,54.1738681 C55.0883455,54.0604928 54.3215555,53.6252888 53.783998,52.9565131 C52.7170169,51.0953208 51.9749073,49.0593089 51.5907257,46.9391689 C51.2488777,43.7576911 48.5443459,40.6255863 46.6445183,38.0165275 C44.4996492,35.0587715 42.4092337,32.698121 41.7709159,29.9394002 C41.1855391,27.5278338 40.7226829,25.0931238 40.2114236,22.6568708 L40.2114236,22.6321843 C40.1677952,20.1991878 39.8340828,17.7806467 39.2176444,15.4298861 Z" id="Path_616" fill="#F4F4F4"></path>
                <path d="M40.3846915,13.5492575 C40.3120866,13.5245709 40.2621707,13.4998843 40.1895659,13.4751979 C40.1101193,13.4380065 40.0288336,13.4050468 39.946037,13.3764517 C39.8765145,13.3536887 39.8107388,13.3204018 39.7509114,13.2777055 C39.6783065,13.253019 39.5996513,13.2036459 39.5315842,13.1789593 L39.380324,13.1048997 L39.0883919,12.9506088 C39.0641903,12.9259223 39.0399887,12.9259223 39.015787,12.9012357 C38.3513769,12.5258211 37.730352,12.0755619 37.1643626,11.5589051 C37.0633757,11.4806969 36.9733041,11.3888206 36.8966322,11.2858103 L36.7015065,11.0867751 L36.6047,10.9880289 C35.0687542,9.38104202 34.1516117,7.26352723 34.0211765,5.02314363 L34,5 C34.4570859,5.4073608 34.9864614,5.72160853 35.5594923,5.92574526 C36.9267248,6.57816727 38.3256807,7.15905509 39.7509114,7.66614634 C42.3145505,8.08890912 44.1897052,10.3604355 44.1616578,13.0092394 C44.1858594,13.4566829 44.210061,13.8794399 44.2342626,14.3268835 C43.0739113,14.3084058 41.923341,14.1069901 40.8233459,13.7297778 L40.7991444,13.7297778 C40.6766236,13.6742331 40.5299013,13.6248599 40.3846915,13.5492575 Z" id="Path_621" fill="#F4F4F4"></path>
                <path d="M40.296625,22.636625 C40.296625,22.661025 40.321025,22.4399 40.321025,22.4643 C40.2628754,20.0685063 39.9334065,17.6870194 39.338925,15.365425 C39.0072534,14.2088082 38.5970935,13.0761557 38.1113,11.97535 C38.1113,11.97535 37.71785,11.656625 37.521125,11.4843 C37.4193103,11.4069996 37.3285004,11.3161897 37.2512,11.214375 L37.054475,11.01765 L36.956875,10.92005 C35.4061266,9.3209643 34.4742888,7.2227077 34.327775,5 L34.303375,5.0244 C33.1012192,6.30946168 31.4202176,7.03879736 29.6605125,7.03879736 C27.9008074,7.03879736 26.2198058,6.30946168 25.01765,5.0244 L24.99325,5 C24.852817,7.22420344 23.9200854,9.3244726 22.36415,10.92005 L22.26655,11.01765 L22.069825,11.214375 L21.7999,11.4843 C21.603175,11.656625 21.40645,11.82895 21.209725,11.97535 C20.7201633,13.0746403 20.3099069,14.2075595 19.9821,15.365425 C19.363558,17.6822264 19.0336916,20.066587 19,22.4643 C19,22.4399 19.0244,22.4155 19.0244,22.3911 C19.56425,23.71785 19.760975,24.9958 20.203225,26.272225 C21.2087276,29.2280176 20.874577,32.4754048 19.288225,35.1645 C22.6806747,36.0409027 26.1570925,36.5521406 29.658225,36.6895 C33.1595275,36.5539737 36.6361402,36.0427071 40.028225,35.1645 C38.4416745,32.4754701 38.1075148,29.2279941 39.113225,26.272225 C39.56005,24.9958 39.756775,23.938975 40.296625,22.636625 Z" id="Path_521" fill="#F4F4F4"></path>
                <path d="M37.7671889,12.0588076 C37.5720634,11.9045167 37.3769378,11.7363396 37.1818121,11.561991 C37.0808004,11.4838118 36.9907251,11.3919318 36.9140817,11.2888961 L36.718956,11.0898609 L36.6221495,10.9911147 C35.0825753,9.37330958 34.1571935,7.24975596 34.0113991,5 L33.9871975,5.02468653 C32.7948153,6.32483927 31.1274804,7.06273987 29.3820819,7.06273987 C27.6366833,7.06273987 25.9693483,6.32483927 24.7769662,5.02468653 L24.7527646,5 C24.6134734,7.25032326 23.6883249,9.37525682 22.1450393,10.9895718 L22.0482328,11.088318 L21.8531073,11.2873532 L21.5853767,11.5604481 C21.3902512,11.7347967 21.1951256,11.9091454 21,12.0572647 C21.3161337,12.3056729 23.6077252,20.507776 29.3813256,20.507776 C34.8387922,20.507776 37.4465174,12.2809865 37.7626512,12.0572647 L37.7671889,12.0588076 Z" id="Path_690" stroke="#F4F4F4" stroke-width="0.3" fill="#F4F4F4" stroke-linejoin="bevel"></path>
                <path d="M40.6786042,25 C31.2053253,25 28.4566019,25 19.8668413,25 C19.2278663,29.5933 18.37515,34.7843029 18,40.0165779 C21.8293696,41.1842636 25.8592546,41.8611811 29.8590906,42.0311029 C33.8981482,41.8494723 38.3259608,41.1729084 42.2002189,40.0165779 C41.6602911,33.5155515 41.1940542,31.0538492 40.6786042,25 Z" id="Path_686" fill="#676767"></path>
            </g>
        </g>
    </g>
</svg>
