<?xml version="1.0" encoding="UTF-8"?>
<svg width="42px" height="203px" viewBox="0 0 42 203" version="1.1" xmlns="http://www.w3.org/2000/svg" xmlns:xlink="http://www.w3.org/1999/xlink">
    <!-- Generator: Sketch 50.2 (55047) - http://www.bohemiancoding.com/sketch -->
    <title>top_core_thumbnails</title>
    <desc>Created with Sketch.</desc>
    <defs></defs>
    <g id="Page-1" stroke="none" stroke-width="1" fill="none" fill-rule="evenodd">
        <g id="top_core_thumbnails" transform="translate(1.000000, 0.000000)">
            <text id="ALL" fill-opacity="0.775334013" fill="#686868" font-family="Muli-Bold, Muli" font-size="14" font-weight="bold">
                <tspan x="7" y="14">ALL</tspan>
            </text>
            <g id="top_core_thumbnails_0" transform="translate(0.000000, 34)">
                <path d="M11.8365053,33.2705882 C11.9214719,34.6817636 12.1054198,36.0852315 12.3869922,37.4706384 L20.2510922,37.4706384 C20.3007602,36.8497884 20.384575,36.2206604 20.434243,35.6080884 C20.4475975,35.5142022 20.4531352,35.4193694 20.450799,35.3245669 C17.4502003,35.3950449 14.4824711,34.6874241 11.8365053,33.2705882 Z" id="Path_477" fill="#F4F4F4"></path>
                <path d="M14.3012798,10.4170997 C14.5105181,9.62727275 14.7892639,8.85751869 15.1342535,8.11685041 C14.8555622,8.32123613 14.5661061,8.51052251 14.267133,8.68389341 C14.250577,8.70044941 14.234021,8.70044941 14.217465,8.71700541 L14.0177583,8.82048041 L13.9142833,8.87014841 C13.8675858,8.89907873 13.8170883,8.92136731 13.7642445,8.93637241 C13.7166852,8.9516384 13.6716889,8.9739622 13.6307617,9.00259641 C13.5764134,9.0275387 13.520807,9.04964313 13.464167,9.06882041 C13.414499,9.08537641 13.3803522,9.10193241 13.3306842,9.11848841 C13.2272092,9.15160041 13.1475335,9.18471241 13.0471628,9.22196341 L13.0306068,9.22196341 C12.2737385,9.48018503 11.4803635,9.61538364 10.6806895,9.62241166 C10.6622095,10.8236637 10.5508139,12.0216853 10.3475,13.2057509 C9.84771575,15.7564097 9.097522,18.2563657 8.563591,20.7904684 C8.02966,23.2573124 5.54626,25.4240789 5.045441,27.8909229 C4.89378303,28.4566322 4.62713169,28.9850034 4.26213525,29.4430479 C3.5284975,30.4933192 1.24480425,31.4763317 0.4283865,32.4769349 C0.484193502,32.5588539 0.545378336,32.6369769 0.61153725,32.7107884 C1.12891225,32.4769349 1.64628725,32.2606722 2.14503675,32.0609654 C1.994998,33.1609047 1.84495925,34.2949907 1.7114765,35.4445979 C1.67724608,35.7449136 1.79583644,36.0423923 2.02728681,36.2367939 C2.25873717,36.4311956 2.57222595,36.4966324 2.8621185,36.4110544 C3.4371078,36.3350194 3.96165829,36.0431503 4.329394,35.5946367 C5.05928211,34.3464212 5.56694777,32.9809756 5.8297815,31.5591117 C6.063635,29.4254572 7.913768,27.3249147 9.213414,25.5751524 C10.6806895,23.5915367 12.110714,22.0083692 12.5473785,20.1582362 C12.9478268,18.5409219 13.2644602,16.9080864 13.6142057,15.2742162 L13.6142057,15.2576602 C13.6455663,13.6222059 13.8762947,11.9966824 14.3012798,10.4170997 Z" id="Path_478" fill="#F4F4F4"></path>
                <path d="M13.3368927,9.09986291 C13.3865607,9.08330691 13.4207075,9.06675091 13.4703755,9.05019491 C13.5247246,9.02525431 13.5803309,9.00314995 13.6369703,8.98397091 C13.6845237,8.9686904 13.729518,8.94636769 13.770453,8.91774691 C13.820121,8.90119091 13.873928,8.86807891 13.9204917,8.85152291 L14.0239667,8.80185491 L14.2236735,8.69837991 C14.2402295,8.68182391 14.2567855,8.68182391 14.2733415,8.66526791 C14.7278507,8.41348908 15.1526845,8.11152386 15.5398755,7.76503541 C15.6089593,7.71258519 15.670576,7.65096844 15.7230262,7.58188466 L15.856509,7.44840191 L15.922733,7.38217791 C16.9733745,6.30440124 17.6007655,4.88432294 17.690086,3.38183441 L17.706642,3.36527841 C17.3939558,3.63847446 17.0318173,3.84922435 16.6398147,3.98612841 C15.7045076,4.42366956 14.7475013,4.81324121 13.7725225,5.15332641 C12.0187722,5.43685179 10.7360046,6.96024832 10.7551915,8.73666566 C10.7386355,9.03674316 10.7220795,9.32026466 10.7055235,9.62034216 C11.4993039,9.60795013 12.2863932,9.47287095 13.0388847,9.21989391 L13.0554407,9.21989391 C13.1521397,9.18700942 13.2462233,9.14688555 13.3368927,9.09986291 Z" id="Path_484" fill="#F4F4F4"></path>
                <path d="M29.8887537,33.2705882 C29.8037871,34.6817636 29.6198392,36.0852315 29.3382667,37.4706384 L21.4741667,37.4706384 C21.4244987,36.8497884 21.340684,36.2206604 21.291016,35.6080884 C21.2776615,35.5142022 21.2721238,35.4193694 21.27446,35.3245669 C24.2750587,35.3950449 27.2427879,34.6874241 29.8887537,33.2705882 Z" id="Path_503" fill="#F4F4F4"></path>
                <path d="M29.788383,27.9530079 C29.2497076,26.5415646 28.6206564,25.1662928 27.905138,23.8357377 C23.315592,25.214551 18.422084,25.214551 13.832538,23.8357377 C13.1206957,25.1681164 12.4917521,26.543153 11.949293,27.9530079 C11.3848373,29.5038328 11.0806584,31.1373085 11.0490605,32.7873599 C11.29947,32.9539547 11.5664355,33.1205494 11.8323662,33.2705882 C14.4810579,34.6811168 17.449912,35.3816209 20.4497643,35.3038719 L21.282738,35.3038719 C24.2825903,35.3816209 27.2514444,34.6811168 29.900136,33.2705882 C30.1671015,33.1205494 30.434067,32.9539547 30.6834418,32.7873599 C30.6522781,31.1377229 30.3498858,29.504455 29.788383,27.9530079 Z" id="Path_504" fill="#F4F4F4"></path>
                <path d="M23.2208247,1.16643466 C22.6223388,0.498028744 21.7675813,0.116044553 20.8703901,0.116044553 C19.973199,0.116044553 19.1184415,0.498028744 18.5199555,1.16643466 C18.5976445,1.99077731 18.2973997,2.80589053 17.7035377,3.38286916 L17.7200938,3.39942516 C18.5699726,4.21887385 19.6912552,4.69758235 20.8709075,4.74460016 C22.0498297,4.69435345 23.1700153,4.21611327 24.0217212,3.39942516 L24.0382773,3.38286916 C23.4414305,2.80777982 23.1403167,1.99134205 23.2208247,1.16643466 Z" id="Path_505" fill="#F4F4F4"></path>
                <path d="M27.420875,10.4170997 C27.2116367,9.62727275 26.9328908,8.85751869 26.5879013,8.11685041 C26.8665925,8.32123613 27.1560487,8.51052251 27.4550218,8.68389341 C27.4715778,8.70044941 27.4881338,8.70044941 27.5046898,8.71700541 L27.7043965,8.82048041 L27.8078715,8.87014841 C27.8545689,8.89907873 27.9050665,8.92136731 27.9579103,8.93637241 C28.0054696,8.9516384 28.0504659,8.9739622 28.091393,9.00259641 C28.1457406,9.0275404 28.2013471,9.04964483 28.2579878,9.06882041 C28.3076558,9.08537641 28.3418025,9.10193241 28.3914705,9.11848841 C28.4949455,9.15160041 28.5746213,9.18471241 28.674992,9.22196341 L28.691548,9.22196341 C29.4484163,9.48018503 30.2417912,9.61538364 31.0414653,9.62241166 C31.0599618,10.8236628 31.1713572,12.0216832 31.3746548,13.2057509 C31.874439,15.7564097 32.6246328,18.2563657 33.1585638,20.7904684 C33.69146,23.2573124 36.1758948,25.4240789 36.6767138,27.8909229 C36.8275123,28.4524102 37.0916175,28.9770991 37.4527762,29.4327004 C38.186414,30.4829717 40.4701073,31.4659842 41.286525,32.4665874 C41.2307155,32.5485046 41.1695308,32.6266275 41.1033743,32.7004409 C40.5859993,32.4665874 40.0686242,32.2503247 39.5698748,32.0506179 C39.7199135,33.1505572 39.8699523,34.2846432 40.003435,35.4342504 C40.0376654,35.7345661 39.9190751,36.0320448 39.6876247,36.2264464 C39.4561743,36.4208481 39.1426856,36.4862849 38.852793,36.4007069 C38.2778037,36.3246719 37.7532532,36.0328028 37.3855175,35.5842892 C36.6556294,34.3360737 36.1479637,32.9706281 35.88513,31.5487642 C35.6512765,29.4151097 33.8011435,27.3145672 32.5014975,25.5648049 C31.034222,23.5811892 29.6041975,21.9980217 29.167533,20.1478887 C28.7670848,18.5305744 28.4504513,16.8977389 28.1007058,15.2638687 L28.1007058,15.2473127 C28.0708807,13.6156248 27.8425922,11.9936304 27.420875,10.4170997 Z" id="Path_506" fill="#F4F4F4"></path>
                <path d="M28.405957,9.09986291 C28.356289,9.08330691 28.3221422,9.06675091 28.2724742,9.05019491 C28.2181259,9.02525262 28.1625195,9.00314819 28.1058795,8.98397091 C28.0583202,8.96870492 28.0133239,8.94638112 27.9723967,8.91774691 C27.9227287,8.90119091 27.8689217,8.86807891 27.822358,8.85152291 L27.718883,8.80185491 L27.5191762,8.69837991 C27.5026202,8.68182391 27.4860642,8.68182391 27.4695082,8.66526791 C27.0149991,8.41348908 26.5901653,8.11152386 26.2029743,7.76503541 C26.1338905,7.71258519 26.0722737,7.65096844 26.0198235,7.58188466 L25.8863407,7.44840191 L25.8201168,7.38217791 C24.7694753,6.30440124 24.1420843,4.88432294 24.0527638,3.38183441 L24.0382773,3.36631316 C24.3509634,3.63950921 24.713102,3.8502591 25.1051045,3.98716316 C26.0398141,4.42324112 26.996127,4.81143027 27.9703273,5.15022216 C29.7240775,5.43374754 31.0068452,6.95714407 30.9876582,8.73356141 C31.0042143,9.03363891 31.0207702,9.31716041 31.0373262,9.61723791 C30.2435458,9.60484588 29.4564566,9.4697667 28.703965,9.21678966 L28.687409,9.21678966 C28.5897232,9.18786992 28.4953786,9.14867529 28.405957,9.09986291 Z" id="Path_512" fill="#F4F4F4"></path>
                <path d="M28.0882888,15.3507877 C28.0882888,15.3673437 28.1048447,15.2173049 28.1048447,15.2338609 C28.0653888,13.608256 27.8418361,11.9923585 27.4384658,10.4170997 C27.2134184,9.63230672 26.9351148,8.86377415 26.605492,8.11685041 C26.605492,8.11685041 26.3385265,7.90058766 26.2050438,7.78366091 C26.13596,7.73121069 26.0743432,7.66959394 26.021893,7.60051016 L25.8884103,7.46702741 L25.8221863,7.40080341 C24.7699653,6.31578444 24.1376905,4.89206574 24.0382773,3.38390391 L24.0217213,3.40045991 C23.206029,4.27240586 22.0654281,4.76727805 20.8714249,4.76727805 C19.6774217,4.76727805 18.5368208,4.27240586 17.7211285,3.40045991 L17.7045725,3.38390391 C17.6092853,4.89308064 16.9764039,6.31816491 15.9206635,7.40080341 L15.8544395,7.46702741 L15.7209568,7.60051016 L15.537806,7.78366091 C15.4043233,7.90058766 15.2708405,8.01751441 15.1373578,8.11685041 C14.8051781,8.86274591 14.526809,9.63145945 14.304384,10.4170997 C13.884688,11.9891064 13.6608656,13.6069537 13.638005,15.2338609 C13.638005,15.2173049 13.654561,15.2007489 13.654561,15.1841929 C14.0208625,16.0844254 14.1543453,16.9515459 14.4544227,17.8176317 C15.136681,19.8232096 14.9099516,22.0266417 13.8335728,23.8512589 C16.1354333,24.4459197 18.4942683,24.7928072 20.8698727,24.8860089 C23.2455926,24.794051 25.6045598,24.447144 27.9061728,23.8512589 C26.8296592,22.026686 26.6029236,19.8231937 27.2853227,17.8176317 C27.5885045,16.9515459 27.7219872,16.2344642 28.0882888,15.3507877 Z" id="Path_521" fill="#F4F4F4"></path>
                <path d="M14.4213108,17.8176317 C14.9299858,19.0447274 14.7899855,21.6537211 14.4213108,22.9298846 C16.448104,23.483537 18.7415638,23.9219734 20.8383129,24.0563807 C22.9349148,23.9236511 25.2292357,23.4851859 27.255315,22.9298846 C27.0721643,21.2463463 26.539268,19.9005834 27.255315,17.8176317 C22.6882786,17.8176317 19.8051502,17.8176317 14.4213108,17.8176317 Z" id="Path_522" fill="#D6D4D4"></path>
                <path d="M26.588936,8.11685041 C26.4554532,8.01337541 26.3219705,7.90058766 26.1884878,7.78366091 C26.1194125,7.73120098 26.0577969,7.66958546 26.005337,7.60051016 L25.8718543,7.46702741 L25.8056303,7.40080341 C24.7524287,6.31582427 24.1193877,4.89166543 24.0196518,3.38286916 L24.0030957,3.39942516 C23.1874035,4.27137111 22.0468026,4.7662433 20.8527994,4.7662433 C19.6587962,4.7662433 18.5181953,4.27137111 17.702503,3.39942516 L17.685947,3.38286916 C17.5906598,4.89204589 16.9577784,6.31713016 15.902038,7.39976866 L15.835814,7.46599266 L15.7023313,7.59947541 L15.5191805,7.78262616 C15.3856978,7.89955291 15.252215,8.01647966 15.1187323,8.11581566 C15.334995,8.28241041 16.9026413,13.7831414 20.852282,13.7831414 C24.58566,13.7831414 26.386125,8.26585441 26.5858318,8.11581566 L26.588936,8.11685041 Z" id="Path_688" stroke="#F4F4F4" stroke-width="0.3" fill="#F4F4F4"></path>
            </g>
            <g id="top_core_thumbnails_1" transform="translate(0.000000, 75.0)">
                <path d="M11.9055138,33.6441373 C11.9898333,35.0718805 12.1722854,36.491827 12.4515253,37.8935107 L20.2516896,37.8935107 C20.3009537,37.2653698 20.3840871,36.6288537 20.4333513,36.0090879 C20.4465972,35.9140992 20.4520898,35.8181527 20.4497727,35.7222369 C17.473569,35.7935425 14.5299678,35.0776119 11.9055138,33.6441373 Z" id="Path_533" fill="#F4F4F4"></path>
                <path d="M14.3492232,10.52227 C14.5567604,9.72316781 14.83324,8.94437421 15.1754248,8.19500795 C14.8989903,8.4017806 14.6118881,8.59328942 14.315354,8.76870994 C14.2989327,8.78546038 14.2825112,8.78546038 14.2660898,8.80221082 L14.0680067,8.90690098 L13.965373,8.95715223 C13.9190552,8.98642231 13.8689682,9.00897263 13.8165541,9.02415392 C13.7693755,9.03958451 13.7247429,9.06217142 13.6841565,9.09115561 C13.6302493,9.11638911 13.5750951,9.13875309 13.5189162,9.15815737 C13.469652,9.17490774 13.4357829,9.19165818 13.3865187,9.20840862 C13.2838849,9.24190943 13.204857,9.27541031 13.1053022,9.31309878 L13.0888808,9.31309878 C12.338166,9.57435277 11.5512412,9.71113911 10.7580686,9.71824968 C10.7397553,10.9336094 10.6292653,12.1457013 10.427588,13.3436697 C9.931867,15.924282 9.18777241,18.4535961 8.65818233,21.0174579 C8.12859217,23.5132712 5.66538244,25.705483 5.16863514,28.2012963 C5.01821015,28.7736489 4.75372672,29.308225 4.39169773,29.7716486 C3.66402451,30.8342537 1.39889787,31.8288101 0.589117667,32.8411639 C0.644451364,32.9240594 0.705139755,33.0031012 0.770779384,33.0777636 C1.28394808,32.8411639 1.79711678,32.6223615 2.29181141,32.4203094 C2.14299249,33.5331658 1.99417357,34.6805699 1.86177604,35.8436775 C1.82782392,36.14752 1.94545013,36.448492 2.17501878,36.6451766 C2.40458744,36.8418612 2.71552753,36.9080665 3.00306323,36.8214835 C3.57337782,36.7445555 4.09366367,36.4492589 4.45840966,35.9954782 C5.18232604,34.7325861 5.68586182,33.3511124 5.94659888,31.9125622 C6.1775248,29.7538512 8.01364241,27.6286411 9.30272217,25.8583307 C10.7580686,23.8514204 12.1764669,22.2496611 12.6095813,20.3778011 C13.0067738,18.741494 13.3208331,17.0894834 13.6677352,15.4364258 L13.6677352,15.4196754 C13.6987897,13.7650111 13.9276431,12.1203921 14.3492232,10.52227 Z" id="Path_534" fill="#F4F4F4"></path>
                <path d="M13.3762553,9.18956438 C13.4255195,9.17281394 13.4593887,9.1560635 13.5086528,9.13931313 C13.5625608,9.11408133 13.6177149,9.09171741 13.6738932,9.07231144 C13.72106,9.05685144 13.7656884,9.03426657 13.8062907,9.00530968 C13.8555549,8.98855931 13.9089244,8.95505843 13.9551096,8.93830799 L14.0577433,8.88805674 L14.2558265,8.78336658 C14.2722478,8.76661614 14.2886693,8.76661614 14.3050907,8.7498657 C14.7559092,8.49513762 15.1772899,8.18962569 15.5613277,7.8390614 C15.6298498,7.78599518 15.6909656,7.72365485 15.7429893,7.6537598 L15.8753869,7.51870952 L15.9410725,7.45170783 C16.9831721,6.36127438 17.6054624,4.92451943 17.6940567,3.40438649 L17.7104782,3.38763607 C17.4003341,3.66404039 17.0411398,3.8772652 16.6523243,4.01577699 C15.7246241,4.45846303 14.7753981,4.85260974 13.8083433,5.19668192 C12.0688512,5.48353687 10.7965126,7.02482334 10.8155435,8.82210195 C10.7991221,9.12570339 10.7827007,9.41255438 10.7662793,9.71615589 C11.5536062,9.7036183 12.3342964,9.56695278 13.0806702,9.31100499 L13.0970915,9.31100499 C13.1941066,9.28074254 13.2876883,9.24003306 13.3762553,9.18956438 Z" id="Path_539" fill="#F4F4F4"></path>
                <path d="M29.8099697,33.6441373 C29.7256939,35.0718848 29.5432414,36.4918344 29.2639582,37.8935107 L21.463794,37.8935107 C21.4145298,37.2653698 21.3313965,36.6288537 21.2821323,36.0090879 C21.2688864,35.9140992 21.2633937,35.8181527 21.2657109,35.7222369 C24.2419145,35.7935425 27.1855157,35.0776119 29.8099697,33.6441373 Z" id="Path_558" fill="#F4F4F4"></path>
                <path d="M29.6950199,28.2641104 C29.1607214,26.836093 28.5367845,25.4446709 27.8270859,24.0984892 C23.2748532,25.4934945 18.4211299,25.4934945 13.8688973,24.0984892 C13.162854,25.4465206 12.5390241,26.837704 12.0009632,28.2641104 C11.4411147,29.8331524 11.1394094,31.4858076 11.1080497,33.1552344 C11.3564233,33.3237855 11.6212183,33.4923366 11.8849871,33.6441373 C14.5121447,35.0712305 17.4568617,35.779961 20.4323249,35.7012989 L21.2585265,35.7012989 C24.2339898,35.779961 27.1787068,35.0712305 29.8058644,33.6441373 C30.0706594,33.4923366 30.3344282,33.3237855 30.5828018,33.1552344 C30.5519101,31.486223 30.2519758,29.8337718 29.6950199,28.2641104 Z" id="Path_559" fill="#F4F4F4"></path>
                <path d="M23.1808565,1.16297031 C22.5872363,0.486715003 21.7394279,0.100244997 20.8495311,0.100244997 C19.9596342,0.100244997 19.1118259,0.486715003 18.5182057,1.16297031 C18.5954147,1.99701371 18.2975875,2.82176404 17.7084255,3.4054334 L17.7248468,3.42218382 C18.5678161,4.25125566 19.6799826,4.73558586 20.8500442,4.78315582 C22.0193818,4.73231903 23.1304602,4.24846268 23.9752417,3.42218382 L23.991663,3.4054334 C23.4062993,2.81919502 23.1088436,1.99651633 23.1808565,1.16297031 Z" id="Path_560" fill="#F4F4F4"></path>
                <path d="M27.3631814,10.52227 C27.1556442,9.72316781 26.8791645,8.94437421 26.5369798,8.19500795 C26.8134143,8.4017806 27.1005164,8.59328942 27.3970505,8.76870994 C27.4134719,8.78546038 27.4298933,8.78546038 27.4463147,8.80221082 L27.6443978,8.90690098 L27.7470316,8.95715223 C27.7933431,8.98643442 27.8434318,9.00898551 27.8958505,9.02415392 C27.9430232,9.03959922 27.9876537,9.06218514 28.028248,9.09115561 C28.0821494,9.11640304 28.1373043,9.13876724 28.1934883,9.15815737 C28.2427525,9.17490774 28.2766217,9.19165818 28.3258858,9.20840862 C28.4285196,9.24190943 28.5075476,9.27541031 28.6071023,9.31309878 L28.6235237,9.31309878 C29.3742385,9.57435277 30.1611633,9.71113911 30.9543359,9.71824968 C30.972682,10.9336076 31.0831719,12.1456968 31.2848166,13.3436697 C31.7805375,15.924282 32.5246322,18.4535961 33.0542223,21.0174579 C33.5838123,23.5132712 36.0470221,25.705483 36.5437694,28.2012963 C36.693342,28.7693773 36.9553,29.3002279 37.3135224,29.7611796 C38.0411957,30.8237846 40.3063223,31.818341 41.1161025,32.8306949 C41.0607492,32.9135758 41.0000618,32.9926163 40.9344408,33.0672946 C40.4212721,32.8306949 39.9081034,32.6118924 39.4134088,32.4098404 C39.5622277,33.5226968 39.7110466,34.6701008 39.8434442,35.8332084 C39.8773962,36.1370509 39.7597701,36.438023 39.5302014,36.6347076 C39.3006327,36.8313922 38.9896926,36.8975974 38.7021569,36.8110145 C38.1318424,36.7340866 37.6115565,36.4387899 37.2468105,35.9850092 C36.5228564,34.7221354 36.0193182,33.3406547 35.7586213,31.9020932 C35.5266691,29.7433823 33.6915778,27.6181721 32.402498,25.8478616 C30.9471516,23.8409514 29.5287533,22.239192 29.0956389,20.3673321 C28.6984463,18.731025 28.3843871,17.0790144 28.0374851,15.4259569 L28.0374851,15.4092064 C28.0079431,13.7583536 27.78151,12.1173065 27.3631814,10.52227 Z" id="Path_561" fill="#F4F4F4"></path>
                <path d="M28.3228068,9.18956438 C28.2735427,9.17281394 28.2396735,9.1560635 28.1904093,9.13931313 C28.1365014,9.11408133 28.0813472,9.09171741 28.025169,9.07231144 C27.9780021,9.05685144 27.9333738,9.03426657 27.8927715,9.00530968 C27.8435073,8.98855931 27.7901377,8.95505843 27.7439526,8.93830799 L27.6413188,8.88805674 L27.4432357,8.78336658 C27.4268143,8.76661614 27.4103929,8.76661614 27.3939715,8.7498657 C26.9431529,8.49513762 26.5217722,8.18962569 26.1377345,7.8390614 C26.0691956,7.78601488 26.0080773,7.72367209 25.9560728,7.6537598 L25.8236753,7.51870952 L25.7579897,7.45170783 C24.71589,6.36127438 24.0935997,4.92451943 24.0050054,3.40438649 L23.9906367,3.38868297 C24.3007807,3.66508729 24.659975,3.87831211 25.0487906,4.0168239 C25.9764957,4.45949829 26.9257212,4.85364475 27.8927715,5.19772883 C29.6322636,5.48458377 30.9046022,7.02587024 30.8855713,8.82314885 C30.9019927,9.12675029 30.9184142,9.41360128 30.9348355,9.71720279 C30.1475086,9.7046652 29.3668184,9.56799968 28.6204447,9.31205188 L28.6040233,9.31205188 C28.52089,9.27436341 28.4213352,9.24086253 28.3228068,9.18956438 Z" id="Path_566" fill="#F4F4F4"></path>
                <path d="M28.0207756,15.3595067 C28.0207756,15.3760627 28.0373316,15.226024 28.0373316,15.24258 C27.9978756,13.616975 27.7743229,12.0010776 27.3709526,10.4258187 C27.1459052,9.64102576 26.8676016,8.87249319 26.5379788,8.12556945 C26.5379788,8.12556945 26.2710133,7.9093067 26.1375306,7.79237995 C26.0684468,7.73992973 26.00683,7.67831298 25.9543798,7.6092292 L25.8208971,7.47574645 L25.7546731,7.40952245 C24.7024521,6.32450348 24.0701773,4.90078478 23.9707641,3.39262295 L23.9542081,3.40917895 C23.1385158,4.2811249 21.9979149,4.77599709 20.8039117,4.77599709 C19.6099085,4.77599709 18.4693076,4.2811249 17.6536153,3.40917895 L17.6370593,3.39262295 C17.5417721,4.90179968 16.9088907,6.32688395 15.8531503,7.40952245 L15.7869263,7.47574645 L15.6534436,7.6092292 L15.4702928,7.79237995 C15.3368101,7.9093067 15.2033273,8.02623345 15.0698446,8.12556945 C14.7376649,8.87146495 14.4592958,9.64017849 14.2368708,10.4258187 C13.8171748,11.9978254 13.5933524,13.6156727 13.5704918,15.24258 C13.5704918,15.226024 13.5870478,15.209468 13.5870478,15.192912 C13.9533493,16.0931445 14.0868321,16.960265 14.3869096,17.8263507 C15.0691678,19.8319287 14.8424384,22.0353607 13.7660596,23.859978 C16.0679201,24.4546387 18.4267551,24.8015262 20.8023596,24.894728 C23.1780794,24.80277 25.5370466,24.4558631 27.8386596,23.859978 C26.762146,22.035405 26.5354105,19.8319127 27.2178096,17.8263507 C27.5209913,16.960265 27.6544741,16.2431832 28.0207756,15.3595067 Z" id="Path_521" fill="#F4F4F4"></path>
                <path d="M14.4025927,18.0107567 C15.4752806,20.8647109 15.1138445,22.7495565 12.8322965,26.1053994 C15.4094908,26.9070182 18.0760139,27.3717175 20.7679373,27.4883564 C23.4862559,27.3636682 26.1305117,26.8992119 28.7379189,26.1053994 C26.8213013,22.7495565 25.8069431,21.2271673 27.1497032,18.0107567 C21.3223006,18.0107567 19.974727,18.0107567 14.4025927,18.0107567 Z" id="Path_576" fill="#676767"></path>
                <path d="M26.1233658,7.85790563 C26.0548268,7.80485911 25.9937086,7.74251632 25.9417041,7.67260404 L25.8093066,7.53755376 L25.743621,7.47055207 C24.698982,6.37283149 24.0710877,4.93194814 23.9721626,3.4054334 C23.1466806,4.30436942 22.0153529,4.80505313 20.831057,4.80505313 C19.6467612,4.80505313 18.5154334,4.30436942 17.7063728,3.42218382 C17.5954389,4.93233307 16.9677029,6.37415274 15.9205457,7.46950517 L15.8548602,7.53650686 L15.7224626,7.67155714 L15.5408009,7.85685874 C15.4084033,7.97515857 15.2760058,8.09345848 15.1436083,8.19396105 C15.3581128,8.36251214 16.913014,13.9278407 20.8305438,13.9278407 C24.5171478,13.9278407 26.3029748,8.34576177 26.5174793,8.19396105 C26.3881608,8.09031779 26.2557633,7.97620547 26.1233658,7.85790563 Z" id="Path_689" stroke="#F4F4F4" stroke-width="0.3" fill="#F4F4F4" stroke-linejoin="bevel"></path>
            </g>
            <g id="top_core_thumbnails_2" transform="translate(0.000000, 116)">
                <path d="M11.9055138,33.6441373 C11.9897896,35.0718848 12.1722421,36.4918344 12.4515253,37.8935107 L20.2516896,37.8935107 C20.3009537,37.2653698 20.3840871,36.6288537 20.4333513,36.0090879 C20.4465972,35.9140992 20.4520898,35.8181527 20.4497727,35.7222369 C17.473569,35.7935425 14.5299678,35.0776119 11.9055138,33.6441373 Z" id="Path_588" fill="#F4F4F4"></path>
                <path d="M14.3492232,10.52227 C14.5567604,9.72316781 14.83324,8.94437421 15.1754248,8.19500795 C14.8989981,8.40179221 14.6118954,8.59330138 14.315354,8.76870994 C14.2989327,8.78546038 14.2825112,8.78546038 14.2660898,8.80221082 L14.0680067,8.90690098 L13.965373,8.95715223 C13.919049,8.98641028 13.8689637,9.00895989 13.8165541,9.02415392 C13.7693813,9.03959922 13.7247509,9.06218514 13.6841565,9.09115561 C13.6302551,9.11640304 13.5751002,9.13876724 13.5189162,9.15815737 C13.469652,9.17490774 13.4357829,9.19165818 13.3865187,9.20840862 C13.2838849,9.24190943 13.204857,9.27541031 13.1053022,9.31309878 L13.0888808,9.31309878 C12.338166,9.57435277 11.5512412,9.71113911 10.7580686,9.71824968 C10.7397225,10.9336076 10.6292327,12.1456968 10.427588,13.3436697 C9.931867,15.924282 9.18777241,18.4535961 8.65818233,21.0174579 C8.12961851,23.5132712 5.66538244,25.705483 5.16863514,28.2012963 C5.01818255,28.7736382 4.75370185,29.3082088 4.39169773,29.7716486 C3.66402451,30.8342537 1.39889787,31.8288101 0.589117667,32.8411639 C0.644473391,32.924043 0.705160664,33.0030834 0.770779384,33.0777636 C1.28394808,32.8411639 1.79711678,32.6223615 2.29181141,32.4203094 C2.14299249,33.5331658 1.99417357,34.6805699 1.86177604,35.8436775 C1.82782392,36.14752 1.94545013,36.448492 2.17501878,36.6451766 C2.40458744,36.8418612 2.71552753,36.9080665 3.00306323,36.8214835 C3.57334491,36.7444541 4.09359653,36.4491769 4.45840966,35.9954782 C5.18236372,34.7326043 5.68590202,33.3511237 5.94659888,31.9125622 C6.17855114,29.7538512 8.01364241,27.6286411 9.30272217,25.8583307 C10.7580686,23.8514204 12.1764669,22.2496611 12.6095813,20.3778011 C13.0067738,18.741494 13.3208331,17.0894834 13.6677352,15.4364258 L13.6677352,15.4196754 C13.6988203,13.7650136 13.9276732,12.1203984 14.3492232,10.52227 Z" id="Path_589" fill="#F4F4F4"></path>
                <path d="M13.3762553,9.18956438 C13.4255195,9.17281394 13.4593887,9.1560635 13.5086528,9.13931313 C13.5625644,9.11408998 13.617718,9.0917262 13.6738932,9.07231144 C13.7210658,9.05686614 13.7656963,9.03428022 13.8062907,9.00530968 C13.8555549,8.98855931 13.9089244,8.95505843 13.9551096,8.93830799 L14.0577433,8.88805674 L14.2558265,8.78336658 C14.2722478,8.76661614 14.2886693,8.76661614 14.3050907,8.7498657 C14.7559092,8.49513762 15.1772899,8.18962569 15.5613277,7.8390614 C15.6298666,7.78601488 15.6909849,7.72367209 15.7429893,7.6537598 L15.8753869,7.51870952 L15.9410725,7.45170783 C16.9831721,6.36127438 17.6054624,4.92451943 17.6940567,3.40438649 L17.7104782,3.38763607 C17.400349,3.66406151 17.0411505,3.87728882 16.6523243,4.01577699 C15.7246191,4.45845139 14.7753936,4.85259785 13.8083433,5.19668192 C12.0688512,5.48353687 10.7965126,7.02482334 10.8155435,8.82210195 C10.7991221,9.12570339 10.7827007,9.41255438 10.7662793,9.71615589 C11.5536062,9.7036183 12.3342964,9.56695278 13.0806702,9.31100499 L13.0970915,9.31100499 C13.194088,9.28069061 13.2876644,9.23998338 13.3762553,9.18956438 Z" id="Path_594" fill="#F4F4F4"></path>
                <path d="M29.8099697,33.6441373 C29.7256939,35.0718848 29.5432414,36.4918344 29.2639582,37.8935107 L21.463794,37.8935107 C21.4145298,37.2653698 21.3313965,36.6288537 21.2821323,36.0090879 C21.2689145,35.9140963 21.263422,35.8181522 21.2657109,35.7222369 C24.2419145,35.7935425 27.1855157,35.0776119 29.8099697,33.6441373 Z" id="Path_613" fill="#F4F4F4"></path>
                <path d="M29.6939936,28.2641104 C29.1596767,26.8361008 28.5357403,25.4446799 27.8260596,24.0984892 C23.273818,25.4934328 18.4201125,25.4934328 13.8678709,24.0984892 C13.1618277,25.4465206 12.5379978,26.837704 11.9999368,28.2641104 C11.4400702,29.8331473 11.1383643,31.4858056 11.1070233,33.1552344 C11.355397,33.3237855 11.620192,33.4923366 11.8839607,33.6441373 C14.5111184,35.0712305 17.4558354,35.779961 20.4312986,35.7012989 L21.2575002,35.7012989 C24.2329635,35.779961 27.1776805,35.0712305 29.8048381,33.6441373 C30.0696331,33.4923366 30.3344282,33.3237855 30.5817755,33.1552344 C30.5508838,31.486223 30.2509494,29.8337718 29.6939936,28.2641104 Z" id="Path_614" fill="#F4F4F4"></path>
                <path d="M23.1808565,1.16297031 C22.5576882,0.529594797 21.7283298,0.151494621 20.8500442,0.100365251 C19.9726698,0.155296413 19.1445695,0.532822976 18.519232,1.16297031 C18.5962894,1.99699358 18.2984856,2.82167905 17.7094518,3.4054334 L17.7258732,3.42218382 C18.5688425,4.25125566 19.6810089,4.73558586 20.8510706,4.78315582 C22.0204081,4.73231903 23.1314865,4.24846268 23.976268,3.42218382 L23.9926893,3.4054334 C23.4069501,2.81938492 23.1091089,1.99668101 23.1808565,1.16297031 Z" id="Path_615" fill="#F4F4F4"></path>
                <path d="M27.3631814,10.52227 C27.1556442,9.72316781 26.8791645,8.94437421 26.5369798,8.19500795 C26.8134143,8.4017806 27.1005164,8.59328942 27.3970505,8.76870994 C27.4134719,8.78546038 27.4298933,8.78546038 27.4463147,8.80221082 L27.6443978,8.90690098 L27.7470316,8.95715223 C27.7933493,8.98642231 27.8434363,9.00897263 27.8958505,9.02415392 C27.9430232,9.03959922 27.9876537,9.06218514 28.028248,9.09115561 C28.0821538,9.11639255 28.1373082,9.13875661 28.1934883,9.15815737 C28.2427525,9.17490774 28.2766217,9.19165818 28.3258858,9.20840862 C28.4285196,9.24190943 28.5075476,9.27541031 28.6071023,9.31309878 L28.6235237,9.31309878 C29.3742385,9.57435277 30.1611633,9.71113911 30.9543359,9.71824968 C30.9726287,10.9336106 31.083119,12.145704 31.2848166,13.3436697 C31.7805375,15.924282 32.5246322,18.4535961 33.0542223,21.0174579 C33.5838123,23.5132712 36.0470221,25.705483 36.5437694,28.2012963 C36.6933692,28.7693668 36.9553245,29.3002119 37.3135224,29.7611796 C38.0411957,30.8237846 40.3063223,31.818341 41.1161025,32.8306949 C41.0607492,32.9135758 41.0000618,32.9926163 40.9344408,33.0672946 C40.4212721,32.8306949 39.9081034,32.6118924 39.4134088,32.4098404 C39.5622277,33.5226968 39.7110466,34.6701008 39.8434442,35.8332084 C39.8773962,36.1370509 39.7597701,36.438023 39.5302014,36.6347076 C39.3006327,36.8313922 38.9896926,36.8975974 38.7021569,36.8110145 C38.1318424,36.7340866 37.6115565,36.4387899 37.2468105,35.9850092 C36.5228376,34.7221444 36.019298,33.3406604 35.7586213,31.9020932 C35.5266691,29.7433823 33.6915778,27.6181721 32.402498,25.8478616 C30.9471516,23.8409514 29.5287533,22.239192 29.0956389,20.3673321 C28.6984463,18.731025 28.3843871,17.0790144 28.0374851,15.4259569 L28.0374851,15.4092064 C28.0078821,13.7583585 27.7814501,12.1173189 27.3631814,10.52227 Z" id="Path_616" fill="#F4F4F4"></path>
                <path d="M28.3228068,9.18956438 C28.2735427,9.17281394 28.2396735,9.1560635 28.1904093,9.13931313 C28.1365029,9.11407788 28.0813485,9.09171389 28.025169,9.07231144 C27.9779963,9.05686614 27.9333658,9.03428022 27.8927715,9.00530968 C27.8435073,8.98855931 27.7901377,8.95505843 27.7439526,8.93830799 L27.6413188,8.88805674 L27.4432357,8.78336658 C27.4268143,8.76661614 27.4103929,8.76661614 27.3939715,8.7498657 C26.9431529,8.49513762 26.5217722,8.18962569 26.1377345,7.8390614 C26.0692124,7.78599518 26.0080966,7.72365485 25.9560728,7.6537598 L25.8236753,7.51870952 L25.7579897,7.45170783 C24.7158126,6.36132771 24.093509,4.92454186 24.0050054,3.40438649 L23.9906367,3.38868297 C24.3007807,3.66508729 24.659975,3.87831211 25.0487906,4.0168239 C25.9764914,4.45950827 26.9257174,4.85365494 27.8927715,5.19772883 C29.6322636,5.48458377 30.9046022,7.02587024 30.8855713,8.82314885 C30.9019927,9.12675029 30.9184142,9.41360128 30.9348355,9.71720279 C30.1475086,9.7046652 29.3668184,9.56799968 28.6204447,9.31205188 L28.6040233,9.31205188 C28.52089,9.27436341 28.4213352,9.24086253 28.3228068,9.18956438 Z" id="Path_621" fill="#F4F4F4"></path>
                <path d="M27.9118639,15.3595067 C27.9118639,15.3760627 27.9284199,15.226024 27.9284199,15.24258 C27.8889639,13.616975 27.6654112,12.0010776 27.2620409,10.4258187 C27.0369935,9.64102576 26.75869,8.87249319 26.4290671,8.12556945 C26.4290671,8.12556945 26.1621016,7.9093067 26.0286189,7.79237995 C25.9595351,7.73992973 25.8979183,7.67831298 25.8454681,7.6092292 L25.7119854,7.47574645 L25.6457614,7.40952245 C24.5935405,6.32450348 23.9612656,4.90078478 23.8618524,3.39262295 L23.8452964,3.40917895 C23.0296041,4.2811249 21.8890032,4.77599709 20.695,4.77599709 C19.5009968,4.77599709 18.3603959,4.2811249 17.5447036,3.40917895 L17.5281476,3.39262295 C17.4328604,4.90179968 16.7999791,6.32688395 15.7442386,7.40952245 L15.6780146,7.47574645 L15.5445319,7.6092292 L15.3613811,7.79237995 C15.2278984,7.9093067 15.0944156,8.02623345 14.9609329,8.12556945 C14.6287532,8.87146495 14.3503842,9.64017849 14.1279591,10.4258187 C13.7082632,11.9978254 13.4844407,13.6156727 13.4615801,15.24258 C13.4615801,15.226024 13.4781361,15.209468 13.4781361,15.192912 C13.8444376,16.0931445 13.9779204,16.960265 14.2779979,17.8263507 C14.9602561,19.8319287 14.7335267,22.0353607 13.6571479,23.859978 C15.9590084,24.4546387 18.3178434,24.8015262 20.6934479,24.894728 C23.0691677,24.80277 25.4281349,24.4558631 27.7297479,23.859978 C26.6532343,22.035405 26.4264988,19.8319127 27.1088979,17.8263507 C27.4120796,16.960265 27.5455624,16.2431832 27.9118639,15.3595067 Z" id="Path_521" fill="#F4F4F4"></path>
                <path d="M26.5369798,8.19500795 C26.4045822,8.09031779 26.2721847,7.97620547 26.1397872,7.85790563 C26.0712482,7.80485911 26.01013,7.74251632 25.9581255,7.67260404 L25.8257279,7.53755376 L25.7600423,7.47055207 C24.7154034,6.37283149 24.0875091,4.93194814 23.988584,3.4054334 L23.9721626,3.42218382 C23.163102,4.30436942 22.0317742,4.80505313 20.8474784,4.80505313 C19.6631826,4.80505313 18.5318548,4.30436942 17.7227942,3.42218382 L17.7063728,3.4054334 C17.6118603,4.93233307 16.9841243,6.37415274 15.9369671,7.46950517 L15.8712815,7.53650686 L15.738884,7.67155714 L15.5572223,7.85685874 C15.4248248,7.97515857 15.2924272,8.09345848 15.1600297,8.19396105 C15.3745342,8.36251214 16.9294354,13.9278407 20.8469652,13.9278407 C24.5499906,13.9278407 26.3193962,8.34576177 26.5339008,8.19396105 L26.5369798,8.19500795 Z" id="Path_690" stroke="#F4F4F4" stroke-width="0.3" fill="#F4F4F4" stroke-linejoin="bevel"></path>
                <path d="M13.8419867,17.6416393 C13.8419867,20.2582713 13.6065864,24.2676185 13.1060817,25.736282 C15.6322737,26.5507742 18.1356847,27.0026001 20.827608,27.119239 C23.5459266,26.9945509 25.7276021,26.5300946 28.3350093,25.736282 C27.7651217,22.7703378 27.8553704,20.4848874 27.6863613,17.6416393 C21.8589587,17.6416393 19.4141209,17.6416393 13.8419867,17.6416393 Z" id="Path_576" fill="#676767"></path>
            </g>
            <g id="top_core_thumbnails_3" transform="translate(0.000000, 158.000000)">
                <path d="M11.9055138,33.6441373 C11.9897896,35.0718848 12.1722421,36.4918344 12.4515253,37.8935107 L20.2516896,37.8935107 C20.3009537,37.2653698 20.3840871,36.6288537 20.4333513,36.0090879 C20.4465972,35.9140992 20.4520898,35.8181527 20.4497727,35.7222369 C17.473569,35.7935425 14.5299678,35.0776119 11.9055138,33.6441373 Z" id="Path_588" fill="#F4F4F4"></path>
                <path d="M14.3492232,10.52227 C14.5567604,9.72316781 14.83324,8.94437421 15.1754248,8.19500795 C14.8989981,8.40179221 14.6118954,8.59330138 14.315354,8.76870994 C14.2989327,8.78546038 14.2825112,8.78546038 14.2660898,8.80221082 L14.0680067,8.90690098 L13.965373,8.95715223 C13.919049,8.98641028 13.8689637,9.00895989 13.8165541,9.02415392 C13.7693813,9.03959922 13.7247509,9.06218514 13.6841565,9.09115561 C13.6302551,9.11640304 13.5751002,9.13876724 13.5189162,9.15815737 C13.469652,9.17490774 13.4357829,9.19165818 13.3865187,9.20840862 C13.2838849,9.24190943 13.204857,9.27541031 13.1053022,9.31309878 L13.0888808,9.31309878 C12.338166,9.57435277 11.5512412,9.71113911 10.7580686,9.71824968 C10.7397225,10.9336076 10.6292327,12.1456968 10.427588,13.3436697 C9.931867,15.924282 9.18777241,18.4535961 8.65818233,21.0174579 C8.12961851,23.5132712 5.66538244,25.705483 5.16863514,28.2012963 C5.01818255,28.7736382 4.75370185,29.3082088 4.39169773,29.7716486 C3.66402451,30.8342537 1.39889787,31.8288101 0.589117667,32.8411639 C0.644473391,32.924043 0.705160664,33.0030834 0.770779384,33.0777636 C1.28394808,32.8411639 1.79711678,32.6223615 2.29181141,32.4203094 C2.14299249,33.5331658 1.99417357,34.6805699 1.86177604,35.8436775 C1.82782392,36.14752 1.94545013,36.448492 2.17501878,36.6451766 C2.40458744,36.8418612 2.71552753,36.9080665 3.00306323,36.8214835 C3.57334491,36.7444541 4.09359653,36.4491769 4.45840966,35.9954782 C5.18236372,34.7326043 5.68590202,33.3511237 5.94659888,31.9125622 C6.17855114,29.7538512 8.01364241,27.6286411 9.30272217,25.8583307 C10.7580686,23.8514204 12.1764669,22.2496611 12.6095813,20.3778011 C13.0067738,18.741494 13.3208331,17.0894834 13.6677352,15.4364258 L13.6677352,15.4196754 C13.6988203,13.7650136 13.9276732,12.1203984 14.3492232,10.52227 Z" id="Path_589" fill="#F4F4F4"></path>
                <path d="M13.3762553,9.18956438 C13.4255195,9.17281394 13.4593887,9.1560635 13.5086528,9.13931313 C13.5625644,9.11408998 13.617718,9.0917262 13.6738932,9.07231144 C13.7210658,9.05686614 13.7656963,9.03428022 13.8062907,9.00530968 C13.8555549,8.98855931 13.9089244,8.95505843 13.9551096,8.93830799 L14.0577433,8.88805674 L14.2558265,8.78336658 C14.2722478,8.76661614 14.2886693,8.76661614 14.3050907,8.7498657 C14.7559092,8.49513762 15.1772899,8.18962569 15.5613277,7.8390614 C15.6298666,7.78601488 15.6909849,7.72367209 15.7429893,7.6537598 L15.8753869,7.51870952 L15.9410725,7.45170783 C16.9831721,6.36127438 17.6054624,4.92451943 17.6940567,3.40438649 L17.7104782,3.38763607 C17.400349,3.66406151 17.0411505,3.87728882 16.6523243,4.01577699 C15.7246191,4.45845139 14.7753936,4.85259785 13.8083433,5.19668192 C12.0688512,5.48353687 10.7965126,7.02482334 10.8155435,8.82210195 C10.7991221,9.12570339 10.7827007,9.41255438 10.7662793,9.71615589 C11.5536062,9.7036183 12.3342964,9.56695278 13.0806702,9.31100499 L13.0970915,9.31100499 C13.194088,9.28069061 13.2876644,9.23998338 13.3762553,9.18956438 Z" id="Path_594" fill="#F4F4F4"></path>
                <path d="M29.8099697,33.6441373 C29.7256939,35.0718848 29.5432414,36.4918344 29.2639582,37.8935107 L21.463794,37.8935107 C21.4145298,37.2653698 21.3313965,36.6288537 21.2821323,36.0090879 C21.2689145,35.9140963 21.263422,35.8181522 21.2657109,35.7222369 C24.2419145,35.7935425 27.1855157,35.0776119 29.8099697,33.6441373 Z" id="Path_613" fill="#F4F4F4"></path>
                <path d="M29.6939936,28.2641104 C29.1596767,26.8361008 28.5357403,25.4446799 27.8260596,24.0984892 C23.273818,25.4934328 18.4201125,25.4934328 13.8678709,24.0984892 C13.1618277,25.4465206 12.5379978,26.837704 11.9999368,28.2641104 C11.4400702,29.8331473 11.1383643,31.4858056 11.1070233,33.1552344 C11.355397,33.3237855 11.620192,33.4923366 11.8839607,33.6441373 C14.5111184,35.0712305 17.4558354,35.779961 20.4312986,35.7012989 L21.2575002,35.7012989 C24.2329635,35.779961 27.1776805,35.0712305 29.8048381,33.6441373 C30.0696331,33.4923366 30.3344282,33.3237855 30.5817755,33.1552344 C30.5508838,31.486223 30.2509494,29.8337718 29.6939936,28.2641104 Z" id="Path_614" fill="#F4F4F4"></path>
                <path d="M23.1808565,1.16297031 C22.5576882,0.529594797 21.7283298,0.151494621 20.8500442,0.100365251 C19.9726698,0.155296413 19.1445695,0.532822976 18.519232,1.16297031 C18.5962894,1.99699358 18.2984856,2.82167905 17.7094518,3.4054334 L17.7258732,3.42218382 C18.5688425,4.25125566 19.6810089,4.73558586 20.8510706,4.78315582 C22.0204081,4.73231903 23.1314865,4.24846268 23.976268,3.42218382 L23.9926893,3.4054334 C23.4069501,2.81938492 23.1091089,1.99668101 23.1808565,1.16297031 Z" id="Path_615" fill="#F4F4F4"></path>
                <path d="M27.3631814,10.52227 C27.1556442,9.72316781 26.8791645,8.94437421 26.5369798,8.19500795 C26.8134143,8.4017806 27.1005164,8.59328942 27.3970505,8.76870994 C27.4134719,8.78546038 27.4298933,8.78546038 27.4463147,8.80221082 L27.6443978,8.90690098 L27.7470316,8.95715223 C27.7933493,8.98642231 27.8434363,9.00897263 27.8958505,9.02415392 C27.9430232,9.03959922 27.9876537,9.06218514 28.028248,9.09115561 C28.0821538,9.11639255 28.1373082,9.13875661 28.1934883,9.15815737 C28.2427525,9.17490774 28.2766217,9.19165818 28.3258858,9.20840862 C28.4285196,9.24190943 28.5075476,9.27541031 28.6071023,9.31309878 L28.6235237,9.31309878 C29.3742385,9.57435277 30.1611633,9.71113911 30.9543359,9.71824968 C30.9726287,10.9336106 31.083119,12.145704 31.2848166,13.3436697 C31.7805375,15.924282 32.5246322,18.4535961 33.0542223,21.0174579 C33.5838123,23.5132712 36.0470221,25.705483 36.5437694,28.2012963 C36.6933692,28.7693668 36.9553245,29.3002119 37.3135224,29.7611796 C38.0411957,30.8237846 40.3063223,31.818341 41.1161025,32.8306949 C41.0607492,32.9135758 41.0000618,32.9926163 40.9344408,33.0672946 C40.4212721,32.8306949 39.9081034,32.6118924 39.4134088,32.4098404 C39.5622277,33.5226968 39.7110466,34.6701008 39.8434442,35.8332084 C39.8773962,36.1370509 39.7597701,36.438023 39.5302014,36.6347076 C39.3006327,36.8313922 38.9896926,36.8975974 38.7021569,36.8110145 C38.1318424,36.7340866 37.6115565,36.4387899 37.2468105,35.9850092 C36.5228376,34.7221444 36.019298,33.3406604 35.7586213,31.9020932 C35.5266691,29.7433823 33.6915778,27.6181721 32.402498,25.8478616 C30.9471516,23.8409514 29.5287533,22.239192 29.0956389,20.3673321 C28.6984463,18.731025 28.3843871,17.0790144 28.0374851,15.4259569 L28.0374851,15.4092064 C28.0078821,13.7583585 27.7814501,12.1173189 27.3631814,10.52227 Z" id="Path_616" fill="#F4F4F4"></path>
                <path d="M28.3228068,9.18956438 C28.2735427,9.17281394 28.2396735,9.1560635 28.1904093,9.13931313 C28.1365029,9.11407788 28.0813485,9.09171389 28.025169,9.07231144 C27.9779963,9.05686614 27.9333658,9.03428022 27.8927715,9.00530968 C27.8435073,8.98855931 27.7901377,8.95505843 27.7439526,8.93830799 L27.6413188,8.88805674 L27.4432357,8.78336658 C27.4268143,8.76661614 27.4103929,8.76661614 27.3939715,8.7498657 C26.9431529,8.49513762 26.5217722,8.18962569 26.1377345,7.8390614 C26.0692124,7.78599518 26.0080966,7.72365485 25.9560728,7.6537598 L25.8236753,7.51870952 L25.7579897,7.45170783 C24.7158126,6.36132771 24.093509,4.92454186 24.0050054,3.40438649 L23.9906367,3.38868297 C24.3007807,3.66508729 24.659975,3.87831211 25.0487906,4.0168239 C25.9764914,4.45950827 26.9257174,4.85365494 27.8927715,5.19772883 C29.6322636,5.48458377 30.9046022,7.02587024 30.8855713,8.82314885 C30.9019927,9.12675029 30.9184142,9.41360128 30.9348355,9.71720279 C30.1475086,9.7046652 29.3668184,9.56799968 28.6204447,9.31205188 L28.6040233,9.31205188 C28.52089,9.27436341 28.4213352,9.24086253 28.3228068,9.18956438 Z" id="Path_621" fill="#F4F4F4"></path>
                <path d="M27.9118639,15.3595067 C27.9118639,15.3760627 27.9284199,15.226024 27.9284199,15.24258 C27.8889639,13.616975 27.6654112,12.0010776 27.2620409,10.4258187 C27.0369935,9.64102576 26.75869,8.87249319 26.4290671,8.12556945 C26.4290671,8.12556945 26.1621016,7.9093067 26.0286189,7.79237995 C25.9595351,7.73992973 25.8979183,7.67831298 25.8454681,7.6092292 L25.7119854,7.47574645 L25.6457614,7.40952245 C24.5935405,6.32450348 23.9612656,4.90078478 23.8618524,3.39262295 L23.8452964,3.40917895 C23.0296041,4.2811249 21.8890032,4.77599709 20.695,4.77599709 C19.5009968,4.77599709 18.3603959,4.2811249 17.5447036,3.40917895 L17.5281476,3.39262295 C17.4328604,4.90179968 16.7999791,6.32688395 15.7442386,7.40952245 L15.6780146,7.47574645 L15.5445319,7.6092292 L15.3613811,7.79237995 C15.2278984,7.9093067 15.0944156,8.02623345 14.9609329,8.12556945 C14.6287532,8.87146495 14.3503842,9.64017849 14.1279591,10.4258187 C13.7082632,11.9978254 13.4844407,13.6156727 13.4615801,15.24258 C13.4615801,15.226024 13.4781361,15.209468 13.4781361,15.192912 C13.8444376,16.0931445 13.9779204,16.960265 14.2779979,17.8263507 C14.9602561,19.8319287 14.7335267,22.0353607 13.6571479,23.859978 C15.9590084,24.4546387 18.3178434,24.8015262 20.6934479,24.894728 C23.0691677,24.80277 25.4281349,24.4558631 27.7297479,23.859978 C26.6532343,22.035405 26.4264988,19.8319127 27.1088979,17.8263507 C27.4120796,16.960265 27.5455624,16.2431832 27.9118639,15.3595067 Z" id="Path_521" fill="#F4F4F4"></path>
                <path d="M26.5369798,8.19500795 C26.4045822,8.09031779 26.2721847,7.97620547 26.1397872,7.85790563 C26.0712482,7.80485911 26.01013,7.74251632 25.9581255,7.67260404 L25.8257279,7.53755376 L25.7600423,7.47055207 C24.7154034,6.37283149 24.0875091,4.93194814 23.988584,3.4054334 L23.9721626,3.42218382 C23.163102,4.30436942 22.0317742,4.80505313 20.8474784,4.80505313 C19.6631826,4.80505313 18.5318548,4.30436942 17.7227942,3.42218382 L17.7063728,3.4054334 C17.6118603,4.93233307 16.9841243,6.37415274 15.9369671,7.46950517 L15.8712815,7.53650686 L15.738884,7.67155714 L15.5572223,7.85685874 C15.4248248,7.97515857 15.2924272,8.09345848 15.1600297,8.19396105 C15.3745342,8.36251214 16.9294354,13.9278407 20.8469652,13.9278407 C24.5499906,13.9278407 26.3193962,8.34576177 26.5339008,8.19396105 L26.5369798,8.19500795 Z" id="Path_690" stroke="#F4F4F4" stroke-width="0.3" fill="#F4F4F4" stroke-linejoin="bevel"></path>
                <path d="M28.2799578,16.9631148 C21.8521052,16.9631148 19.9870288,16.9631148 14.1586649,16.9631148 C13.7251047,20.0797818 13.1465157,23.6020049 12.8919672,27.1522321 C15.4902887,27.9445356 18.2246647,28.4038408 20.9386518,28.5191369 C23.6792517,28.395896 26.6836315,27.9368308 29.3124108,27.1522321 C28.9460566,22.7411258 28.6297033,21.0708003 28.2799578,16.9631148 Z" id="Path_686" fill="#676767"></path>
            </g>
        </g>
</svg>
