<?xml version="1.0" encoding="UTF-8"?>
<svg width="45px" height="45px" viewBox="0 0 45 45" version="1.1" xmlns="http://www.w3.org/2000/svg" xmlns:xlink="http://www.w3.org/1999/xlink">
    <!-- Generator: Sketch 50.2 (55047) - http://www.bohemiancoding.com/sketch -->
    <title>details_ellipse</title>
    <desc>Created with Sketch.</desc>
    <defs></defs>
    <g id="Page-1" stroke="none" stroke-width="1" fill="none" fill-rule="evenodd">
        <g id="Presets-Copy-2" transform="translate(-524.000000, -329.000000)" fill="#3D3D3D" fill-rule="nonzero" stroke="#979797">
            <g id="Preset-1" transform="translate(131.000000, 108.000000)">
                <g id="Website-Preset-Filters-Off" transform="translate(387.000000, 91.000000)">
                    <g id="Preset-Details-Off" transform="translate(0.794393, 126.390593)">
                        <path d="M17.8116089,39.8868361 C15.6088424,39.8766693 13.8304292,38.0845296 13.8371992,35.8817499 C13.8439692,33.6789703 15.6333646,31.8977957 17.8361521,31.901169 C20.0389394,31.9045423 21.8228711,33.691189 21.8228947,35.8939789 C21.822906,36.9561513 21.3997024,37.9745528 20.6469059,38.7238908 C19.8941094,39.4732289 18.8737699,39.8917384 17.8116089,39.8868361 Z M17.8116089,29.9308005 C15.6088424,29.9206337 13.8304292,28.1284938 13.8371992,25.9257143 C13.8439692,23.7229347 15.6333646,21.9417601 17.8361521,21.9451334 C20.0389394,21.9485067 21.8228711,23.7351532 21.8228947,25.9379433 C21.822906,27.0001155 21.3997024,28.0185172 20.6469059,28.7678552 C19.8941094,29.5171931 18.8737699,29.9357028 17.8116089,29.9308005 Z M17.8116089,20.0085505 C15.6064148,20.0085505 13.8187518,18.2208874 13.8187518,16.0156933 C13.8187518,13.8104992 15.6064148,12.0228361 17.8116089,12.0228361 C20.016803,12.0228361 21.8044661,13.8104992 21.8044661,16.0156933 C21.7968829,18.2177386 20.0136544,20.0009672 17.8116089,20.0085505 Z M27.6632161,39.8868361 C25.458022,39.8868361 23.6703589,38.099173 23.6703589,35.8939789 C23.6703589,33.6887848 25.458022,31.9011219 27.6632161,31.9011219 C29.8684102,31.9011219 31.6560733,33.6887848 31.6560733,35.8939789 C31.6560733,38.099173 29.8684102,39.8868361 27.6632161,39.8868361 Z M27.6632161,29.9308005 C25.458022,29.9308005 23.6703589,28.1431374 23.6703589,25.9379433 C23.6703589,23.7327492 25.458022,21.9450861 27.6632161,21.9450861 C29.8684102,21.9450861 31.6560733,23.7327492 31.6560733,25.9379433 C31.6560733,28.1431374 29.8684102,29.9308005 27.6632161,29.9308005 Z M27.6632161,20.0085505 C25.4604496,19.9983837 23.6820363,18.2062438 23.6888064,16.0034643 C23.6955763,13.8006846 25.4849718,12.01951 27.6877591,12.0228833 C29.8905466,12.0262566 31.6744783,13.8129032 31.6745019,16.0156933 C31.674513,17.0778655 31.2513094,18.0962672 30.4985131,18.8456052 C29.7457166,19.5949431 28.725377,20.0134528 27.6632161,20.0085505 Z M37.5148233,39.8868361 C35.3096292,39.8868361 33.5219661,38.099173 33.5219661,35.8939789 C33.5219661,33.6887848 35.3096292,31.9011219 37.5148233,31.9011219 C39.7200174,31.9011219 41.5076803,33.6887848 41.5076803,35.8939789 C41.5076803,38.099173 39.7200174,39.8868361 37.5148233,39.8868361 Z M37.5148233,29.9308005 C35.3096292,29.9308005 33.5219661,28.1431374 33.5219661,25.9379433 C33.5219661,23.7327492 35.3096292,21.9450861 37.5148233,21.9450861 C39.7200174,21.9450861 41.5076803,23.7327492 41.5076803,25.9379433 C41.5076803,28.1431374 39.7200174,29.9308005 37.5148233,29.9308005 Z M37.5148233,20.0085505 C35.3096292,20.0085505 33.5219661,18.2208874 33.5219661,16.0156933 C33.5219661,13.8104992 35.3096292,12.0228361 37.5148233,12.0228361 C39.7200174,12.0228361 41.5076803,13.8104992 41.5076803,16.0156933 C41.5076803,18.2208874 39.7200174,20.0085505 37.5148233,20.0085505 Z M17.8116089,12.9289075 C16.1153058,12.9289075 14.7401803,14.304033 14.7401803,16.0003361 C14.7401803,17.6966393 16.1153058,19.0717647 17.8116089,19.0717647 C19.5079121,19.0717647 20.8830375,17.6966393 20.8830375,16.0003361 C20.8738049,14.307872 19.5040731,12.9381401 17.8116089,12.9289075 Z M37.5148233,22.8511575 C35.81852,22.8511575 34.4433947,24.2262829 34.4433947,25.9225861 C34.4433947,27.6188893 35.81852,28.9940147 37.5148233,28.9940147 C39.2111263,28.9940147 40.5862519,27.6188893 40.5862519,25.9225861 C40.5862519,25.1079925 40.2626557,24.3267627 39.6866513,23.7507581 C39.1106467,23.1747535 38.3294166,22.8511575 37.5148233,22.8511575 Z M27.6632161,32.8025861 C25.9669129,32.8025861 24.5917875,34.1777115 24.5917875,35.8740147 C24.5917875,37.5703179 25.9669129,38.9454433 27.6632161,38.9454433 C29.3595193,38.9454433 30.7346447,37.5703179 30.7346447,35.8740147 C30.7346447,34.1777115 29.3595193,32.8025861 27.6632161,32.8025861 Z M27.5234661,4.69901469 C15.6493439,4.69901469 6.02346607,14.3248926 6.02346607,26.1990147 C6.02346607,38.0731369 15.6493439,47.6990147 27.5234661,47.6990147 C39.3975882,47.6990147 49.0234661,38.0731369 49.0234661,26.1990147 C49.0234661,20.4968602 46.758294,15.0282511 42.7262619,10.9962189 C38.6942297,6.96418675 33.2256206,4.69901469 27.5234661,4.69901469 Z" id="details_ellipse"></path>
                    </g>
                </g>
            </g>
        </g>
    </g>
</svg>