<?xml version="1.0" encoding="UTF-8"?>
<svg width="44px" height="43px" viewBox="0 0 44 43" version="1.1" xmlns="http://www.w3.org/2000/svg" xmlns:xlink="http://www.w3.org/1999/xlink">
    <!-- Generator: Sketch 50.2 (55047) - http://www.bohemiancoding.com/sketch -->
    <title>pattern_icon</title>
    <desc>Created with Sketch.</desc>
    <defs></defs>
    <g id="Page-1" stroke="none" stroke-width="1" fill="none" fill-rule="evenodd">
        <g id="Presets-Copy-2" transform="translate(-524.000000, -267.000000)" fill="#3D3D3D" fill-rule="nonzero">
            <g id="Preset-1" transform="translate(131.000000, 108.000000)">
                <g id="Website-Preset-Filters-Off" transform="translate(387.000000, 91.000000)">
                    <g id="Preset-Patterns-Off" transform="translate(1.000000, 63.591002)">
                        <g id="pattern_icon" transform="translate(5.817859, 5.024168)">
                            <path d="M1.37067791,29.1135748 C2.55525768,19.7547823 7.49722501,16.7527639 11.9199671,14.0914745 C16.4375378,11.3746478 20.3441636,8.98804318 19.8746846,0.0525353225 C17.8138198,0.194727765 15.7846945,0.621348126 13.8491843,1.3193871 C14.0466142,8.41615867 10.564385,10.5205736 7.18631167,12.5529401 C3.6170267,14.6993833 0.252944504,16.7272467 0.0353051768,24.7351309 C0.312886932,26.2374569 0.760701781,27.7057602 1.37067791,29.1135748 Z" id="Path_23"></path>
                            <path d="M6.15097029,10.9588683 C9.30052229,9.06309364 11.8469024,7.50654709 11.9028668,2.12693006 C6.09951505,4.87766625 1.85506849,9.96787651 0.310463476,16.0292774 C1.79483782,13.9002749 3.80115938,12.1584961 6.15097029,10.9588683 Z" id="Path_24"></path>
                            <path d="M6.73237823,36.4745239 C7.49877956,26.5003177 12.0318959,23.0179763 16.4282104,19.6482107 C21.203839,15.9872492 25.7151913,12.5184169 25.461797,0.348234139 C24.2589099,0.133641547 23.0394557,0.0171526156 21.8163382,0 C22.3200178,10.0177355 17.5661531,12.9086792 12.9553084,15.6870473 C8.27606289,18.5014395 3.44757893,21.4224036 3.07603751,32.243179 C4.09861965,33.8014597 5.32781702,35.2239634 6.73237823,36.4745239 Z" id="Path_25"></path>
                            <path d="M30.0384411,25.5096516 C34.4005551,22.1293789 38.5139384,18.9127161 38.2947445,7.69717526 C37.118377,6.31560677 35.7655002,5.08347846 34.2684169,4.03020974 C34.2093434,16.282948 29.2767036,20.1060184 24.4948565,23.8165132 C19.9943861,27.3033577 15.7473101,30.6025759 15.4363968,41.2132101 C17.2687402,41.7218144 19.1623328,41.9958406 21.0685917,42.0282581 C21.5800441,32.093078 25.8737571,28.7398235 30.0384411,25.5096516 Z" id="Path_26"></path>
                            <path d="M37.3495681,29.8940995 C34.2264436,31.7313348 31.516834,33.3464208 31.201257,39.8007603 C37.29338,36.845509 41.606104,31.3121952 42.8605067,24.8417025 C41.5808239,27.0145401 39.6631623,28.7726412 37.3495681,29.8940995 Z" id="Path_27"></path>
                            <path d="M36.3359906,28.2910216 C39.681418,26.3216977 42.8434065,24.4634481 42.4578739,15.8221381 L42.5573662,15.8221381 C42.0490046,13.893534 41.2574838,12.0450759 40.2068615,10.3329474 C39.7404915,20.358188 35.4436693,23.7264527 31.258776,26.9701336 C27.2759763,30.0532065 23.5185886,32.9921825 23.0195727,41.9682177 C25.1428265,41.8265694 27.2328617,41.3835132 29.2222936,40.6533336 C29.3404407,32.4067889 33.0558549,30.2198185 36.3359906,28.2910216 Z" id="Path_28"></path>
                            <path d="M23.2729672,22.3515282 C28.0610323,18.6470375 32.5801575,15.1346759 32.3158813,2.80238421 C30.775044,1.94235418 29.1303683,1.26883467 27.4189964,0.797035894 C27.5589074,13.51959 22.5174478,17.3831878 17.6376631,21.1237027 C13.1947117,24.5294927 9.00049093,27.7656685 8.60096731,37.963525 C10.1176234,39.0392578 11.7725729,39.9202152 13.5242798,40.5842871 C14.0046409,29.5668795 18.7134233,25.889407 23.2729672,22.3515282 Z" id="Path_29"></path>
                        </g>
                    </g>
                </g>
            </g>
        </g>
    </g>
</svg>