<?xml version="1.0" encoding="UTF-8"?>
<svg version="1.1" xmlns="http://www.w3.org/2000/svg">
 <g id="fullview_area">
  <!-- Generator: Sketch 51.1 (57501) - http://www.bohemiancoding.com/sketch -->
  <g id="BodyParts-VisualFilter-Final-Distribution" fill="none" fill-rule="evenodd">
   <g id="shoes_parts_filters" transform="translate(80 90) scale(.8)">
    <g id="full_bare_foot" transform="translate(19 44)" stroke="#4A4A4A">
     <path id="right_foot" d="m149 0c5.72 39.6 8.57 69 8.57 88.2 0 19.2-2.86 31.6-8.57 37.3-3.18 0.564-3.98 6.86-2.39 18.9 1.59 12 3.84 28.3 6.75 48.8-1.68 10.3-2.52 17.2-2.52 20.7 0 3.44 3.15 8.69 9.45 15.7 6.67 3.5 13.7 5.25 21.2 5.25 11.9-0.439 17.3-0.439 21.8-5.25 4.43-4.81 12.1-21.5 11.6-26.4-0.504-4.84-4.6-14.3-6.6-18.8-1.57-3.5-4.56-11.2-5.01-19.6 0-12.5 1.67-19.7 1.67-25.5 0-3.87-1.19-8.47-3.58-13.8-0.875-5.8 0.319-18.2 3.58-37.3 3.26-19 9.24-48.4 17.9-88.2"/>
     <path id="left_foot" d="m108 8c-7.4 46.2-10.8 79.4-10.1 99.6 0.392 12.1 1.1 22.5 3.7 29.1 3.93 9.98 8.27 12.3 11.6 15.9 3.32 3.63 2.47 8.75 2.47 10.9 0 0.564-2.89 5.78-11.3 11.7-6.47 4.54-17 8.52-27.1 17.1-23.3 19.8-29.1 30-35.3 32.8-4.11 1.88-10.5 1.88-19.2 0-7.13-2.05-11.9-3.63-14.3-4.74-3.63-1.66-6.36-2.59-7.83-5.41-0.977-1.88 0.572-3.52 4.65-4.91l20-10.5 16.8-67.7c2.13-21.5 2.78-42.5 1.97-63s-2.54-40.8-5.18-60.9"/>
    </g>
    <g id="bottoms" transform="translate(18 202)" fill="#4A4A4A" stroke="#4A4A4A">
     <path id="bottoms_0" d="m85 29.7c-6.42 4.82-11.3 9.12-14.7 12.9 5.89-1.78 10.8-3.2 14.7-4.27l29.7-15.9 1.56-15.5c-4.67 5.42-9.41 9.84-14.2 13.3-5.32 1.75-11 4.93-17.1 9.55z"/>
     <path id="bottoms_1" d="m0.615 57c1.06 0 11.4 6.83 18.7 8.78 7.29 1.95 18.6 3.5 22.5 1.55 8.62-4.28 20.2-20.4 34.6-31.1 5.17-6.4 20.1-12.8 30.2-19.4 2.43-1.58 5.23-4.35 7.08-9.15 1.84-4.8 2.08-9.02 2.97-7.16 1.09 3.84 0.548 27.1 0 30-0.327 1.77-12.6 3.97-23.2 10.1-10.6 6.17-38.7 29.3-46.8 32.6-17 6.82-43.3-6.64-44.5-8.38-1.21-1.74-2.59-7.96-1.53-7.96z"/>
     <path id="bottoms_2" d="m50.5 60.3-8.48 8.57h74.3c0-5.8-4.52-5.8-4.52-24.3s4.52-29.2 4.52-37.7c0-1.48-5.03 9.94-22.2 17.3-5.35 1.07-18 11.4-22.6 15.7-4.22 3.87-11.2 10.7-21 20.4z"/>
     <path id="bottoms_3" d="m85 29.7 1.25 20.3h27.9l2.12-43.1c-4.67 5.42-9.41 9.84-14.2 13.3-5.32 1.75-11 4.93-17.1 9.55z"/>
     <path id="bottoms_4" d="m85 29.7 3.5 40h22.6l5.19-62.8c-4.67 5.42-9.41 9.84-14.2 13.3-5.32 1.75-11 4.93-17.1 9.55z"/>
     <path id="bottoms_5" d="m103 25c-0.615-0.711-1.61-1.21-2.99-1.49-1.77-0.361-5.57 0.912-11.4 3.82l14.4-7.46v-0.858c2.22-1.08 4.43-2.59 6.65-4.51 2.22-1.92 4.43-4.48 6.65-7.66v38.4h-13.3v-20.2z"/>
     <path id="bottoms_6" d="m103 25.1c-0.471-0.864-1.32-1.57-2.58-1.98-2.4-0.786-6.34 0.626-11.8 4.23l14.4-7.46v-0.858c2.22-1.08 4.43-2.59 6.65-4.51 2.22-1.92 4.43-4.48 6.65-7.66v62h-13.3v-43.7z"/>
    </g>
    <g id="counters" transform="translate(19 52)" stroke="#4A4A4A">
     <path id="counters_0" d="m108 0c-7.4 46.2-10.8 79.4-10.1 99.6 0.392 12.1 1.1 22.5 3.7 29.1 3.93 9.98 8.27 12.3 11.6 15.9 3.32 3.63 2.47 8.75 2.47 10.9 0 0.564-2.89 5.78-11.3 11.7-6.47 4.54-17 8.52-27.1 17.1-23.3 19.8-29.1 30-35.3 32.8-4.11 1.88-10.5 1.88-19.2 0-7.13-2.05-11.9-3.63-14.3-4.74-3.63-1.66-6.36-2.59-7.83-5.41-0.977-1.88 0.572-3.52 4.65-4.91l20-10.5 16.8-67.7c2.13-21.5 2.78-42.5 1.97-63s-2.54-40.8-5.18-60.9"/>
     <g id="counters_1" transform="translate(86 111)" fill="#4A4A4A">
      <g id="left_counter_1" transform="translate(0 16)">
       <path id="left-heel-1" d="m14.2 0.848c3.64 7.49 7.06 12.6 10.2 15.4 2.64 2.29 4.44 3.81 5.29 7.01 0.517 1.94 0.218 3.93 0 4.7-0.488 1.73-0.749 2.9-9.47 10.5-6.17 4.56-12.8 8.42-19.8 11.6 2.66-7.27 3.99-15 3.99-23.1 0-8.13 3.23-16.8 9.7-26.1z"/>
      </g>
      <g id="right_counter_1" transform="translate(60)">
       <path id="right-counter-1" d="m7.09 0.645c0.923-0.986 2.59 2.82 1.52 8.86-0.402 2.27-1.84 9.47-2.91 14.9-0.482 2.43-2.63 19.4-2.64 19.3-0.291-2.02-3.64-26.9-2.82-33 0.42-2.09 1.36-3.41 2.82-3.94 0.879-0.916 1.76-2.02 2.64-3.31 0.793-1.25 0.47-1.88 1.39-2.86zm47.7 1.5 0.631 4.67c1.88 3.67 2.95 7.67 3.19 12s-0.324 12.2-1.71 23.7c-0.651-10.2-1.36-16.9-2.12-20.2-0.888-3.75-3.58-10.2-3.58-12 0-4 1.19-6.73 3.58-8.19z"/>
      </g>
     </g>
     <g id="counters_2" transform="translate(40 111)" fill="#4A4A4A">
      <g id="left_counter_2" transform="translate(0 16)">
       <path d="m60.8 2.06c0.0163-0.0155 0.0326-0.0311 0.049-0.0466 0.706 1.47 1.41 2.85 2.11 4.14 2.59 4.6 5.05 7.94 7.39 10 0.0325 0.0287 0.0651 0.0572 0.0976 0.0854 2.64 2.29 4.44 3.81 5.29 7.01 0.517 1.94 0.218 3.93 0 4.7-0.488 1.73-0.749 2.9-9.47 10.5-5.52 4.08-11.4 7.6-17.6 10.6-1.78 1.03-3.63 2.06-5.53 3.1-3.2 2.47-5.45 4.24-6.74 5.3-4.11 3.37-6.93 6.28-8.75 7.88-8.36 7.37-20.3 20.7-20.8 21.2-1.9-1.87-4.85-4.58-6.08-6.33 4.51-4.81 41-58.2 44.9-62.9 2.17-2.56 6-6.5 11.5-11.8 0.915-1.54 1.92-3.11 3.03-4.68 0.199 0.41 0.398 0.812 0.596 1.21z"/>
      </g>
      <g id="right_counter_2" transform="translate(105)">
       <path id="right-counter-2" d="m8.09 0.645c0.923-0.986 2.59 2.82 1.52 8.86-0.402 2.27-1.84 9.47-2.91 14.9-0.362 1.82 2.8 33.7 2.91 49.4-1.04 4.77-1.52 7.7-2.47 9.08 0-2.14 0.957-4.61 0.957-9.08-0.622-6.6-2.83-19.2-4.03-28.9-0.629-6.27-2.18-15.3-2.82-22.7-0.466-5.43-0.171-10.2 0-11.5 0.42-2.09 1.36-3.41 2.82-3.94 0.879-0.916 1.76-2.02 2.64-3.31 0.793-1.25 0.47-1.88 1.39-2.86zm47.7 1.5 0.631 4.67c1.88 3.67 2.95 7.67 3.19 12 0.163 2.86-2.18 20.2-1 32 0.814 4.82 4.48 14.5 8.77 25.6 0.175 0.456-0.0368 0.936-0.636 1.44-6.1-11.9-9.75-20.7-11-26.3-1.63-7.63 0.49-17.4 0-25.8-0.461-7.9-3.58-14.6-3.58-15.4 0-4 1.19-6.73 3.58-8.19z"/>
      </g>
     </g>
     <g id="counters_3" transform="translate(41 111)" fill="#4A4A4A">
      <g id="left_counter_3" transform="translate(0 10)">
       <path id="left-counter-3" d="m42.2 58.1c-3.2 2.47-5.45 4.24-6.74 5.3-4.11 3.37-6.63 6.33-8.44 7.94-6.97 6.15-16.7 16.4-20 19.9-0.668 0.708-7.14-5.26-6.74-5.76 4.58-5.73 19.4-26.9 30.7-43-10.3-14.3-17.6-24-21.9-29.1-0.944-1.15-8.22-11.7-8.83-12.4h57.4c0.281 2.98 1.1 5.94 2.44 8.88 0.0282-0.0218 0.0564-0.0436 0.0846-0.0654 2.71 4.96 5.49 8.8 8.34 11.5 0.368 0.352 0.701 0.655 0.985 0.901 2.64 2.29 4.44 3.81 5.29 7.01 0.517 1.94 0.218 3.93 0 4.7-0.488 1.73-0.749 2.9-9.47 10.5-6.17 4.56-13.9 9.12-23.1 13.7z"/>
      </g>
      <g id="right_counter_3" transform="translate(104)">
       <path id="right-counter-3" d="m8.09 0.645c0.923-0.986 12.4 21.6 11.4 27-0.362 1.82-9.97 30.5-9.86 46.1-1.04 4.77-1.52 7.7-2.47 9.08 0-2.14 0.957-4.61 0.957-9.08-0.622-6.6-2.83-19.2-4.03-28.9-0.629-6.27-2.18-15.3-2.82-22.7-0.466-5.43-0.171-10.2 0-11.5 0.42-2.09 1.36-3.41 2.82-3.94 0.879-0.916 1.76-2.02 2.64-3.31 0.793-1.25 0.47-1.88 1.39-2.86zm47.7 1.5 0.631 4.67c1.88 3.67 2.95 7.67 3.19 12 0.163 2.86-2.18 20.2-1 32 0.814 4.82 4.48 14.5 8.77 25.6 0.175 0.456 0.175 0.659 0 0.608-13.2-25.7-20.3-42.2-21.3-49.4 0-4.43 3.25-12.9 9.74-25.5z"/>
      </g>
     </g>
    </g>
    <g id="shafts" transform="translate(18)" stroke="#4A4A4A">
     <g id="shafts_0" transform="translate(0 44)">
      <path id="left-toe-0" d="m109 8.38c-7.4 46.2-10.8 79.4-10.1 99.6 0.392 12.1 1.1 22.5 3.7 29.1 3.93 9.98 8.27 12.3 11.6 15.9 3.32 3.63 2.47 8.75 2.47 10.9 0 0.564-2.89 5.78-11.3 11.7-6.47 4.54-17 8.52-27.1 17.1-23.3 19.8-29.1 30-35.3 32.8-4.11 1.88-10.5 1.88-19.2 0-7.13-2.05-11.9-3.63-14.3-4.74-3.63-1.66-6.36-2.59-7.83-5.41-0.977-1.88 0.572-3.52 4.65-4.91l20-10.5 16.8-67.7c2.13-21.5 2.78-42.5 1.97-63-0.817-20.5-2.54-40.8-5.18-60.9"/>
      <path id="right-toe-0" d="m150 0.381c5.72 39.6 8.57 69 8.57 88.2 0 19.2-2.86 31.6-8.57 37.3-3.18 0.564-3.98 6.86-2.39 18.9 1.59 12 3.84 28.3 6.75 48.8-1.68 10.3-2.52 17.2-2.52 20.7 0 3.44 3.15 8.69 9.45 15.7 6.67 3.5 13.7 5.25 21.2 5.25 11.9-0.439 17.3-0.439 21.8-5.25 4.43-4.81 12.6-21.6 11.6-26.8s-4.58-13.9-6.59-18.3c-1.57-3.5-4.56-11.2-5.01-19.6 0-12.5 1.67-19.7 1.67-25.5 0-3.87-1.19-8.47-3.58-13.8-0.875-5.8 0.319-18.2 3.58-37.3 3.26-19 9.24-48.4 17.9-88.2"/>
     </g>
     <g id="shafts_1" transform="translate(42 154)" fill="#4A4A4A">
      <path id="left-shaft-1" d="m0.141 26.1h58.3c-0.398-2.5-0.398-8.48 0-18h-57.2c0.194 6.19 0.194 10 0 11.5-0.194 1.47-0.552 3.62-1.08 6.47z"/>
      <path id="right-shaft-1" d="m107 15.7c5.16-0.826 18.2-1.81 26.9-1.81 5.84 0 14.4 0.602 25.8 1.81v-6.46-7.66c-9.62-1.01-18.2-1.52-25.8-1.52h-19.2l-2.82 9.18c-0.864 1.88-2.51 4.04-4.94 6.46z"/>
     </g>
     <g id="shafts_2" transform="translate(42 125)" fill="#4A4A4A">
      <path id="left-shaft-2" d="m0.321 48.1h58.3v-47.6h-58.3c0.194 25.4 0.194 38.9 0 40.3-0.194 1.47-0.194 3.88 0 7.23z"/>
      <path id="right-shaft-2" d="m106 44.7c14 4.13 23.8 6.2 29.6 6.2s14-2.07 24.7-6.2c-0.387-2.87-0.581-5.02-0.581-6.46 0-1.04 0.177-3.91 1.35-12.5 0.299-2.18 1.58-9.95 3.84-23.3h-50c0.464 12.6 0.464 20.4 0 23.3-0.464 2.89-3.41 9.22-8.84 19z"/>
     </g>
     <g id="shafts_3" transform="translate(37 71)" fill="#4A4A4A">
      <path id="left-shaft-3" d="m5.32 102h58.3l8.26-101h-71.1c4.38 61.7 6.47 93.3 6.27 94.8-0.194 1.47-0.763 3.62-1.71 6.47z"/>
      <path id="right-shaft-3" d="m112 98.7c12.7 4.46 22 6.68 27.9 6.68 5.97 0 14.6-2.23 25.9-6.68-0.348-2.87-0.521-5.02-0.521-6.46 0-1.04 0.177-3.91 1.35-12.5 0.299-2.18 5.01-27.7 14.1-76.7h-63.2c2.73 33.9 4.11 52.7 4.15 56.4 0.124 12.4-0.916 18.3-1.24 20.3-0.464 2.89-3.29 9.22-8.47 19z"/>
     </g>
     <g id="shafts_4" transform="translate(36)" fill="#4A4A4A">
      <path id="left-shaft-4" d="m6.32 173h58.3l9.12-136c-3.28-14-6.32-22.5-9.12-25.6-9.3-10.3-16.8-10.8-27.3-10.8h-34.2c-2.82 0-3.57 12.1-2.25 36.4 4.98 84.6 7.37 128 7.18 129-0.194 1.47-0.763 3.62-1.71 6.47z"/>
      <path id="right-shaft-4" d="m112 170c13.3 4.74 22.8 7.11 28.6 7.11 5.79 0 14.3-2.37 25.5-7.11-0.376-2.87-0.564-5.02-0.564-6.46 0-1.04 0.177-3.91 1.35-12.5 0.299-2.18 7.25-38.3 20.8-108v-30.5c0-11.1-14.6-11.1-39.1-11.1-24.6 0-34.6 0.104-35.7 11.1-0.581 5.64-0.581 15.8 0 30.5 6 55.1 9.02 84.4 9.06 88.1 0.124 12.4-0.916 18.3-1.24 20.3-0.464 2.89-3.38 9.22-8.76 19z"/>
     </g>
    </g>
    <g id="covers" transform="translate(44 167)" fill="#4A4A4A" stroke="#4A4A4A">
     <g id="covers_0" transform="translate(0 50)">
      <path id="left-cover-2" d="m0 26.7 22.4 21.3 18.6-19-34.3-29c-2.65 11.1-4.3 17.8-4.93 20.1-0.629 2.31-1.21 4.5-1.74 6.58z"/>
      <path id="right-cover-2" d="m126 37.5c17 1.06 41.1 1.06 63.2 0 1.48-3.58 3.2-6.52 0.469-11.9-2.33-4.62-5.03-10.3-6.21-12.7-17.4 1.13-38.6 1.13-55.9 0 0 3.06 0.2 7.82 0 12.7-0.244 5.99-1.59 11.9-1.59 11.9z"/>
     </g>
     <g id="covers_1" transform="translate(0 29)">
      <path id="left-cover-3" d="m0 47.7 22.7 21.3c3.97-4.79 9.29-10.3 16-16.4 6.67-6.15 13.4-11.8 20.3-17l-47-35.6c-6.2 25.2-9.61 38.9-10.3 41.2-0.639 2.3-1.23 4.48-1.76 6.55z"/>
      <path id="right-cover-3" d="m126 58.5c17 1.06 41.7 1.06 63.4 0 1.18-2.95 2.6-7.07 1.18-11.9-0.697-2.39-6.35-13.5-8.72-22.1-2.46-8.97-2.08-15.3-2.68-16.5-8.58 0.561-8.58-6.27-27.1-6.27-18.5 0-19 6.84-27.8 6.27-0.455 1.75 1.66 12.5 2.53 22.4 0.648 7.36 0.0855 14.2 0 16.3-0.244 5.99-0.854 10-0.854 11.9z"/>
     </g>
     <g id="covers_2" transform="translate(0 6)">
      <path id="left-cover-3" d="m0 70.6 22.7 21.4c3.97-4.83 9.29-10.3 16-16.5s13.4-11.9 20.3-17.1l-42.7-58.3c-3.32 14.3-5.61 24.3-6.89 29.9-4.76 21-7.24 32.4-7.69 34.1-0.639 2.31-1.23 4.51-1.76 6.6z"/>
      <path id="right-cover-3" d="m126 81.5c17 1.06 41.1 1.06 62.8 0 1.18-2.95 3.24-7.07 1.83-11.9-0.697-2.39-8.08-15.8-9.18-19.2-1.1-3.45-4.91-12.8-2.78-28.3-6.87 0-7.59-8.8-26.1-8.8-18.5 0-21.5 9.37-30.3 8.8-0.169 0.649 4.08 25.2 4.62 31.4 0.648 7.36 0.0855 14.1 0 16.2-0.244 5.99-0.908 10-0.908 11.9z"/>
     </g>
     <g id="covers_3">
      <path id="left-cover-3" d="m0 76.6 22.6 21.4c3.95-4.83 9.23-10.3 15.9-16.5 6.62-6.19 13.3-11.9 20.2-17.1 10.7-29.1 16.8-45.5 18.4-49.1-1.52-4.66-2.47-6.04-2.47-9.26h-58.3c-3.3 14.3-5.58 24.3-6.84 29.9-4.72 21-7.19 32.4-7.64 34.1-0.635 2.31-1.22 4.51-1.75 6.6z"/>
      <path id="right-cover-3" d="m127 87.5c17 1.06 42.3 1.06 62.3 0 1.37-4.71 2.42-6.31 1.49-9.87s-6.47-15.6-8.84-24.2c-0.735-2.67-2.02-7.33-2.47-14-0.396-5.83 0-13.6 0-17.5 0-9.3-0.131-16.5-2.7-18.8-8.58 0.561-8.97-3.21-25.8-3.21-16.8 0-23.2 3.59-28.9 3.21-4.45 2.52 4.01 46.3 4.88 56.1 0.648 7.36 0.0855 14.2 0 16.3-0.244 5.99 0 11.9 0 11.9z"/>
     </g>
    </g>
    <g id="toes" transform="translate(12 44)" stroke="#4A4A4A">
     <g id="toes_2" transform="translate(0 194)" fill="#4A4A4A">
      <path id="left-toe-2" d="m53.9 27.4c-1.34 1.65-5.09 5.66-13.8 5.66-6.88-0.277-13.8-0.541-22.9-2.18-0.239-0.0429-0.608-0.095-1.11-0.156-10.1-2.32-15.4-4.61-16-6.88 0-1.41 3.93-3.85 11.8-7.34 8.49-4.42 15-7.85 19.5-10.3 9.6 9.41 14.5 14 22.6 21.2z"/>
      <path id="right-toe-2" d="m160 0.709c1.84 5.75 2.62 11.4 4.22 12.5 5.93 3.44 44.6 3.17 49.7 0 4.46-4.71 3.96-8.65 5.07-11.9-0.369-1.01 7.14 10.1 0.641 21.5-6.49 11.4-23.5 34.7-29.6 34.7-6.12 0-31.6-28.8-32.3-34.7-0.73-6.68 2.2-20.9 2.2-22z"/>
     </g>
     <g id="toes_1" transform="translate(2 194)" fill="#4A4A4A">
      <path id="left-toe-1" d="m51.9 27.4c-1.34 1.65-4.78 4.64-13.6 6.81-8.78 2.17-19.2 2.25-28.6 0-9.33-2.25-10.5-4.89-9.44-9.8 0.726-3.28 3.87-5.91 9.44-7.9 8.49-4.42 15-7.85 19.5-10.3 9.6 9.41 14.5 14 22.6 21.2z"/>
      <path id="right-toe-1" d="m158 0.709c1.84 5.75 3.55 13.8 5.14 14.9 5.93 3.44 44 3.17 49.2 0 4.46-4.71 4.2-11.6 5.31-14.9-0.369-1.01 6.49 18.4 0 29.7s-7.56 16.9-29.7 16.9c-22.2 0-31.8-18.7-32.4-24.6-0.73-6.68 2.48-20.9 2.48-22z"/>
     </g>
     <g id="toes_0" transform="translate(6)">
      <path id="left-toe-0" d="m109 8.38c-7.4 46.2-10.8 79.4-10.1 99.6 0.392 12.1 1.1 22.5 3.7 29.1 3.93 9.98 8.27 12.3 11.6 15.9 3.32 3.63 2.47 8.75 2.47 10.9 0 0.564-2.89 5.78-11.3 11.7-6.47 4.54-17 8.52-27.1 17.1-23.3 19.8-29.1 30-35.3 32.8-4.11 1.88-10.5 1.88-19.2 0-7.13-2.05-11.9-3.63-14.3-4.74-3.63-1.66-6.36-2.59-7.83-5.41-0.977-1.88 0.572-3.52 4.65-4.91l20-10.5 16.8-67.7c2.13-21.5 2.78-42.5 1.97-63-0.817-20.5-2.54-40.8-5.18-60.9"/>
      <path id="right-toe-0" d="m150 0.381c5.72 39.6 8.57 69 8.57 88.2 0 19.2-2.86 31.6-8.57 37.3-3.18 0.564-3.98 6.86-2.39 18.9 1.59 12 3.84 28.3 6.75 48.8-1.68 10.3-2.52 17.2-2.52 20.7 0 3.44 3.15 8.69 9.45 15.7 6.67 3.5 13.7 5.25 21.2 5.25 11.9-0.439 17.3-0.439 21.8-5.25 4.43-4.81 12.6-21.6 11.6-26.8s-4.58-13.9-6.59-18.3c-1.57-3.5-4.56-11.2-5.01-19.6 0-12.5 1.67-19.7 1.67-25.5 0-3.87-1.19-8.47-3.58-13.8-0.875-5.8 0.319-18.2 3.58-37.3 3.26-19 9.24-48.4 17.9-88.2"/>
     </g>
    </g>
    <path id="bottoms_0_HL" d="m103 232c-6.42 4.82-11.3 9.12-14.7 12.9 5.89-1.78 10.8-3.2 14.7-4.27l29.7-15.9 1.56-15.5c-4.67 5.42-9.41 9.84-14.2 13.3-5.32 1.75-11 4.93-17.1 9.55z" fill="#FAB09A" fill-opacity=".5"/>
    <path id="bottoms_1_HL" d="m18.6 259c1.06 0 11.4 6.83 18.7 8.78 7.29 1.95 18.6 3.5 22.5 1.55 8.62-4.28 20.2-20.4 34.6-31.1 5.17-6.4 20.1-12.8 30.2-19.4 2.43-1.58 5.23-4.35 7.08-9.15 1.84-4.8 2.08-9.02 2.97-7.16 1.09 3.84 0.548 27.1 0 30-0.327 1.77-12.6 3.97-23.2 10.1s-38.7 29.3-46.8 32.6c-17 6.82-43.3-6.64-44.5-8.38s-2.59-7.96-1.53-7.96z" fill="#FAB09A" fill-opacity=".5"/>
    <path id="bottoms_2_HL" d="m68.5 262-8.48 8.57h74.3c0-5.8-4.52-5.8-4.52-24.3 0-18.5 4.52-29.2 4.52-37.7 0-1.48-5.03 9.94-22.2 17.3-5.35 1.07-18 11.4-22.6 15.7-4.22 3.87-11.2 10.7-21 20.4z" fill="#FAB09A" fill-opacity=".5"/>
    <path id="bottoms_3_HL" d="m103 232 1.25 20.3h27.9l2.12-43.1c-4.67 5.42-9.41 9.84-14.2 13.3-5.32 1.75-11 4.93-17.1 9.55z" fill="#FAB09A" fill-opacity=".5"/>
    <path id="bottoms_4_HL" d="m103 232 3.5 40h22.6l5.19-62.8c-4.67 5.42-9.41 9.84-14.2 13.3-5.32 1.75-11 4.93-17.1 9.55z" fill="#FAB09A" fill-opacity=".5"/>
    <path id="bottoms_5_HL" d="m121 221v26.2h13.3v-38.4c-2.22 3.18-4.43 5.73-6.65 7.66-2.22 1.92-4.43 3.43-6.65 4.51z" fill="#FAB09A" fill-opacity=".5"/>
    <path id="bottoms_6_HL" d="m121 221v49.8h13.3v-62c-2.22 3.18-4.43 5.73-6.65 7.66-2.22 1.92-4.43 3.43-6.65 4.51z" fill="#FAB09A" fill-opacity=".5"/>
    <path id="counters_0_HL" d="m120 183c3.03 5.53 6.13 9.67 9.32 12.4 3.19 2.77 4.5 7.03 3.94 12.8 0 0.945-2.91 3.95-8.72 9.01-6.17 4.56-13.7 9.25-22.5 14.1 2.22-7.25 3.33-14.9 3.33-23.1 0-8.13 4.87-16.5 14.6-25.2z" fill="#FAB09A" fill-opacity=".5"/>
    <path id="counters_1_HL" d="m120 183c3.03 5.53 6.13 9.67 9.32 12.4 3.19 2.77 4.5 7.03 3.94 12.8 0 0.945-2.91 3.95-8.72 9.01-6.17 4.56-13.7 9.25-22.5 14.1 11.2-7.97 16.9-16 16.9-24.2 0-8.17-1.63-13.9-2.87-16.9-0.53-1.3 0.785-3.72 3.94-7.26z" fill="#FAB09A" fill-opacity=".5"/>
    <path id="counters_2_HL" d="m120 183c3.03 5.53 6.13 9.67 9.32 12.4 3.19 2.77 4.5 7.03 3.94 12.8 0 0.945-2.91 3.95-8.72 9.01-6.17 4.56-13.7 9.25-22.5 14.1 2.22-7.25 3.33-14.9 3.33-23.1 0-8.13 4.87-16.5 14.6-25.2z" fill="#FAB09A" fill-opacity=".5"/>
    <path id="counters_3_HL" d="m120 183c3.03 5.53 6.13 9.67 9.32 12.4 3.19 2.77 4.5 7.03 3.94 12.8 0 0.945-2.91 3.95-8.72 9.01-6.17 4.56-13.7 9.25-22.5 14.1-3.2 2.47-5.45 4.24-6.74 5.3-4.11 3.37-6.94 5.92-8.75 7.52-8.36 7.37-21.2 20.5-21.8 21-1.34 0-5.09-4.45-5.89-5.03 4.51-4.81 41.7-58.9 45.7-63.6 2.62-3.1 7.78-7.62 15.5-13.6z" fill="#FAB09A" fill-opacity=".5"/>
    <path id="counters_4_HL" d="m120 183c0.0282-0.0218 0.0564-0.0436 0.0846-0.0654 2.71 4.96 5.49 8.8 8.34 11.5 0.368 0.352 0.701 0.655 0.985 0.901 3.19 2.77 4.5 7.03 3.94 12.8 0.0177 1.39-2.88 4.62-8.7 9.68-6.17 4.56-13.7 9.03-22.5 13.4-3.2 2.47-5.45 4.24-6.74 5.3-4.11 3.37-6.94 5.92-8.75 7.52-8.36 7.37-21.2 20.5-21.8 21-1.34 0-5.09-4.45-5.89-5.03 2.91-3.11 19.5-26.8 31.9-44.4-10.3-14.2-17.6-23.9-21.8-29.1-0.944-1.15-8.22-11.7-8.83-12.4h57.4c0.281 2.98 1.1 5.94 2.44 8.88z" fill="#FAB09A" fill-opacity=".5"/>
    <path id="shafts_0_HL" d="m60.3 173c0.946-2.85 1.52-5 1.71-6.47 0.194-1.47-2.2-44.5-7.18-129-1.32-24.3-0.565-36.4 2.25-36.4h34.2c10.5 0 18 0.479 27.3 10.8 2.8 3.11 5.84 11.7 9.12 25.6l-9.12 136h-58.3zm106-3.38c5.38-9.75 8.3-16.1 8.76-19 0.321-2 1.36-7.92 1.24-20.3-0.0366-3.66-3.06-33-9.06-88.1-0.581-14.7-0.581-24.9 0-30.5 1.14-11 11.2-11.1 35.7-11.1 24.6 0 39.1 0 39.1 11.1v30.5c-13.6 70.1-20.5 106-20.8 108-1.18 8.59-1.35 11.5-1.35 12.5 0 1.44 0.188 3.59 0.564 6.46-11.2 4.74-19.7 7.11-25.5 7.11-5.79 0-15.3-2.37-28.6-7.11z" fill="#FAB09A" fill-opacity=".5"/>
    <path id="shafts_1_HL" d="m60.1 180c0.524-2.85 0.882-5 1.08-6.47 0.194-1.47 0.194-5.29 0-11.5h57.2c-0.398 9.47-0.398 15.5 0 18h-58.3zm108-10.4 3.78-6.46 1.26-3.5h46.5v3.5 6.46c-11.3 4.29-19.9 6.43-25.8 6.43-5.84 0-14.4-2.14-25.8-6.43z" fill="#FAB09A" fill-opacity=".5"/>
    <path id="shafts_2_HL" d="m60.3 173c-0.194-3.35-0.194-5.76 0-7.23 0.194-1.47 0.194-14.9 0-40.3h58.3v47.6h-58.3zm106-3.38c5.43-9.75 8.37-16.1 8.84-19 0.464-2.89 0.464-10.7 0-23.3h50c-2.26 13.3-3.55 21.1-3.84 23.3-1.18 8.59-1.35 11.5-1.35 12.5 0 1.44 0.194 3.59 0.581 6.46-10.7 4.13-18.9 6.2-24.7 6.2s-15.6-2.07-29.6-6.2z" fill="#FAB09A" fill-opacity=".5"/>
    <path id="shafts_3_HL" d="m60.3 173c0.946-2.85 1.52-5 1.71-6.47 0.194-1.47-1.9-33.1-6.27-94.8h71.1l-8.26 101h-58.3zm106-3.38c5.18-9.75 8.01-16.1 8.47-19 0.321-2 1.36-7.92 1.24-20.3-0.0366-3.66-1.42-22.5-4.15-56.4h63.2c-9.12 48.9-13.8 74.5-14.1 76.7-1.18 8.59-1.35 11.5-1.35 12.5 0 1.44 0.174 3.59 0.521 6.46-11.3 4.46-19.9 6.68-25.9 6.68-5.97 0-15.3-2.23-27.9-6.68z" fill="#FAB09A" fill-opacity=".5"/>
    <path id="shafts_4_HL" d="m60.3 173c0.946-2.85 1.52-5 1.71-6.47 0.194-1.47-2.2-44.5-7.18-129-1.32-24.3-0.565-36.4 2.25-36.4h34.2c10.5 0 18 0.479 27.3 10.8 2.8 3.11 5.84 11.7 9.12 25.6l-9.12 136h-58.3zm106-3.38c5.38-9.75 8.3-16.1 8.76-19 0.321-2 1.36-7.92 1.24-20.3-0.0366-3.66-3.06-33-9.06-88.1-0.581-14.7-0.581-24.9 0-30.5 1.14-11 11.2-11.1 35.7-11.1 24.6 0 39.1 0 39.1 11.1v30.5c-13.6 70.1-20.5 106-20.8 108-1.18 8.59-1.35 11.5-1.35 12.5 0 1.44 0.188 3.59 0.564 6.46-11.2 4.74-19.7 7.11-25.5 7.11-5.79 0-15.3-2.37-28.6-7.11z" fill="#FAB09A" fill-opacity=".5"/>
    <path id="covers_0_HL" d="m44 244c0.528-2.08 1.11-4.27 1.74-6.58s2.27-9 4.93-20.1l34.3 29-18.6 19-22.4-21.3zm126 10.9s1.34-5.94 1.59-11.9c0.2-4.9 0-9.67 0-12.7 17.4 1.13 38.6 1.13 55.9 0 1.17 2.39 3.88 8.11 6.21 12.7 2.73 5.42 1.01 8.35-0.469 11.9-22.1 1.06-46.2 1.06-63.2 0z" fill="#FAB09A" fill-opacity=".5"/>
    <path id="covers_1_HL" d="m44 244c0.536-2.07 1.12-4.25 1.76-6.55 0.639-2.3 4.06-16 10.3-41.2l47 35.6c-6.86 5.19-13.6 10.9-20.3 17s-12 11.6-16 16.4l-22.7-21.3zm126 10.8c0-1.89 0.61-5.94 0.854-11.9 0.0855-2.1 0.648-8.92 0-16.3-0.866-9.83-2.98-20.6-2.53-22.4 8.78 0.574 9.24-6.27 27.8-6.27 18.5 0 18.5 6.83 27.1 6.27 0.598 1.22 0.212 7.55 2.68 16.5 2.37 8.62 8.02 19.7 8.72 22.1 1.42 4.86 0 8.98-1.18 11.9-21.7 1.06-46.4 1.06-63.4 0z" fill="#FAB09A" fill-opacity=".5"/>
    <path id="covers_2_HL" d="m44 244c0.536-2.09 1.12-4.29 1.76-6.6 0.456-1.65 2.94-13 7.69-34.1 1.27-5.62 3.57-15.6 6.89-29.9l42.7 58.3c-6.86 5.23-13.6 10.9-20.3 17.1-6.67 6.19-12 11.7-16 16.5l-22.7-21.4zm126 11c0-1.89 0.664-5.94 0.908-11.9 0.0855-2.1 0.648-8.84 0-16.2-0.545-6.19-4.79-30.7-4.62-31.4 8.78 0.574 11.8-8.8 30.3-8.8 18.5 0 19.2 8.8 26.1 8.8-2.13 15.5 1.68 24.9 2.78 28.3 1.1 3.45 8.48 16.8 9.18 19.2 1.42 4.86-0.644 8.98-1.83 11.9-21.7 1.06-45.8 1.06-62.8 0z" fill="#FAB09A" fill-opacity=".5"/>
    <path id="covers_3_HL" d="m44 244c0.532-2.09 1.12-4.29 1.75-6.6 0.453-1.65 2.92-13 7.64-34.1 1.26-5.62 3.54-15.6 6.84-29.9h58.3c0 3.22 0.948 4.6 2.47 9.26-1.57 3.59-7.7 19.9-18.4 49.1-6.81 5.23-13.5 10.9-20.2 17.1-6.62 6.19-11.9 11.7-15.9 16.5l-22.6-21.4zm127 11s-0.244-5.94 0-11.9c0.0855-2.1 0.648-8.92 0-16.3-0.866-9.83-9.33-53.6-4.88-56.1 5.79 0.378 12.2-3.21 28.9-3.21 16.8 0 17.2 3.77 25.8 3.21 2.57 2.32 2.7 9.48 2.7 18.8 0 3.95-0.396 11.7 0 17.5 0.45 6.62 1.74 11.3 2.47 14 2.37 8.62 7.9 20.7 8.84 24.2 0.937 3.55-0.118 5.16-1.49 9.87-20.1 1.06-45.3 1.06-62.3 0z" fill="#FAB09A" fill-opacity=".5"/>
    <path id="toes_2_HL" d="m65.9 265c-1.34 1.65-4.78 4.64-13.6 6.81s-19.2 2.25-28.6 0c-9.33-2.25-10.5-4.89-9.44-9.8 0.726-3.28 3.87-5.91 9.44-7.9 8.49-4.42 15-7.85 19.5-10.3 9.6 9.41 14.5 14 22.6 21.2zm106-26.7c1.84 5.75 3.55 13.8 5.14 14.9 5.93 3.44 44 3.17 49.2 0 4.46-4.71 4.2-11.6 5.31-14.9-0.369-1.01 6.49 18.4 0 29.7-6.49 11.4-7.56 16.9-29.7 16.9-22.2 0-31.8-18.7-32.4-24.6-0.73-6.68 2.48-20.9 2.48-22z" fill="#FAB09A" fill-opacity=".5"/>
    <path id="toes_1_HL" d="m65.9 265c-1.34 1.65-5.09 5.66-13.8 5.66-6.88-0.277-13.8-0.541-22.9-2.18-0.239-0.0429-0.608-0.095-1.11-0.156-10.1-2.32-15.4-4.61-16-6.88 0-1.41 3.93-3.85 11.8-7.34 8.49-4.42 15-7.85 19.5-10.3 9.6 9.41 14.5 14 22.6 21.2z" fill="#FAB09A" fill-opacity=".5"/>
    <path id="right-toe-1_HL" d="m172 239c1.84 5.75 2.62 11.4 4.22 12.5 5.93 3.44 44.6 3.17 49.7 0 4.46-4.71 3.96-8.65 5.07-11.9-0.369-1.01 7.14 10.1 0.641 21.5s-23.5 34.7-29.6 34.7c-6.12 0-31.6-28.8-32.3-34.7-0.73-6.68 2.2-20.9 2.2-22z" fill="#FAB09A" fill-opacity=".5"/>
    <path id="toes_0_HL" d="m65.9 265c-1.34 1.65-5.09 5.66-13.8 5.66-6.88-0.277-13.8-0.541-22.9-2.18-0.239-0.0429-0.608-0.095-1.11-0.156-10.1-2.32-15.4-4.61-16-6.88 0-1.41 3.93-3.85 11.8-7.34 8.49-4.42 15-7.85 19.5-10.3 9.6 9.41 14.5 14 22.6 21.2z" fill="#FAB09A" fill-opacity=".5"/>
    <path id="right-toe-0_HL" d="m172 239c1.84 5.75 2.62 11.4 4.22 12.5 5.93 3.44 44.6 3.17 49.7 0 4.46-4.71 3.96-8.65 5.07-11.9-0.369-1.01 7.14 10.1 0.641 21.5s-23.5 34.7-29.6 34.7c-6.12 0-31.6-28.8-32.3-34.7-0.73-6.68 2.2-20.9 2.2-22z" fill="#FAB09A" fill-opacity=".5"/>
    <g id="touches_shoes" transform="translate(0 21)" fill="#D8D8D8" stroke="#4A4A4A">
     <g id="touch_toes" transform="translate(0 210)">
      <path id="touch_toes_left" d="m36.5 0.47s10.4 10.4 31.2 31.2l-25.4 23.5c-16.4 5.03-28 4.23-34.8-2.41-6.76-6.64-8.66-17.9-5.71-33.7 5.56-8.21 9.76-13 12.6-14.3 11.5-5.41 22.1-4.2 22.1-4.2z"/>
      <path id="touch_toes_right" d="m155 17.5h90.2v34c-4.96 14.8-19.4 22.2-43.4 22.2-24 0-39.6-7.39-46.8-22.2v-34z"/>
     </g>
     <g id="touch_covers" transform="translate(14 149)">
      <path id="touch_cover_left" d="m27.8 0.69h77l-16.3 60.6-32.4 30.3-33.5-32.1c-15.9-3.36-23.1-14.4-21.7-33 1.41-18.6 10.4-27.2 26.8-25.8z"/>
      <polygon id="touch_cover_right" points="139 0.172 226 0.172 232 77.2 141 77.2"/>
     </g>
     <polygon id="touch_shafts" points="19.8 148 263 148 263 0.0514 19.8 0.0514"/>
     <path id="touch_counters" d="m120 150-16.3 61.5c15.7-11.1 26.3-18.7 31.9-22.6 9.12 0 11.3-2.76 14.4-2.76 2.07 0 2.07-12 0-36.1h-30.1z"/>
     <path id="touch_bottoms" d="m45 265c-4.21 6.48-3.04 9.72 3.5 9.72h103v-87.1l-15.7 2.44c-15.5 10.1-26.9 18-34.2 23.6-7.22 5.59-17.1 14.2-29.6 25.7l-27 25.6z"/>
    </g>
   </g>
  </g>
 </g>
 <g id="thumbnail_area" transform="translate(0)">
  <!-- Generator: Sketch 51.1 (57501) - http://www.bohemiancoding.com/sketch -->
  <g id="Shoes" fill="none" fill-rule="evenodd">
   <g id="iPhone-8-Copy-21" transform="translate(-210 -133)">
    <g id="tn_shoes" transform="translate(211 134)">
     <g id="tn_HL">
      <g id="path-1-link" fill="#000" fill-rule="nonzero">
       <rect id="path-1" width="52" height="51.2" rx="8"/>
      </g>
      <rect id="Rectangle-path" x=".419" y=".419" width="51.2" height="50.3" rx="8" fill="#fff" stroke="#D5D0D0"/>
     </g>
     <g transform="translate(3 2)">
      <g id="tn_bottoms" transform="translate(6 12)">
       <g id="tn_bottoms_0" transform="translate(0 .429)">
        <g id="bare-foot" transform="translate(0 .571)" fill="#F4F4F4" stroke="#999" stroke-width=".4">
         <path id="right" d="m21.4 0.0545c0.817 5.65 1.22 9.86 1.22 12.6 0 2.75-0.408 4.52-1.22 5.32-0.454 0.0805-0.568 0.979-0.341 2.7 0.227 1.72 0.548 4.04 0.964 6.97-0.24 1.48-0.36 2.46-0.36 2.95s0.45 1.24 1.35 2.25c0.953 0.5 1.96 0.75 3.03 0.75 1.7-0.0627 2.47-0.0627 3.11-0.75 0.633-0.687 1.8-3.08 1.66-3.83-0.141-0.754-0.655-1.98-0.941-2.62-0.224-0.499-0.651-1.6-0.716-2.8 0-1.79 0.239-2.82 0.239-3.65 0-0.552-0.171-1.21-0.512-1.97-0.125-0.829 0.0456-2.6 0.512-5.32 0.466-2.72 1.32-6.92 2.56-12.6"/>
         <path id="left" d="m15.5 1.2c-1.06 6.6-1.54 11.3-1.44 14.2 0.0561 1.73 0.157 3.22 0.528 4.16 0.562 1.43 1.18 1.75 1.66 2.27 0.475 0.519 0.352 1.25 0.352 1.56 0 0.0806-0.412 0.825-1.62 1.67-0.924 0.649-2.43 1.22-3.88 2.44-3.33 2.83-4.16 4.28-5.04 4.68-0.588 0.268-1.5 0.268-2.75 0-1.02-0.293-1.7-0.518-2.05-0.677-0.518-0.238-0.908-0.37-1.12-0.773-0.14-0.269 0.0817-0.503 0.664-0.702l2.85-1.5 2.4-9.67c0.304-3.07 0.398-6.07 0.281-9s-0.363-5.83-0.74-8.7"/>
        </g>
        <path id="tn_bottom-0" d="m12 27.9c-1.16 0.918-1.98 1.65-2.46 2.18 0.701-0.174 1.52-0.428 2.46-0.763l4.37-2.35v-1.89c-0.149 0.208-1.61 1.15-4.37 2.82z" fill="#4A4A4A" stroke="#4A4A4A"/>
       </g>
       <g id="tn_bottoms_1" transform="translate(0 .429)">
        <g id="bare-foot" transform="translate(0 .429)" fill="#F4F4F4" stroke="#999" stroke-width=".4">
         <path id="right" d="m21.4 0.0545c0.817 5.65 1.22 9.86 1.22 12.6 0 2.75-0.408 4.52-1.22 5.32-0.454 0.0805-0.568 0.979-0.341 2.7 0.227 1.72 0.548 4.04 0.964 6.97-0.24 1.48-0.36 2.46-0.36 2.95s0.45 1.24 1.35 2.25c0.953 0.5 1.96 0.75 3.03 0.75 1.7-0.0627 2.47-0.0627 3.11-0.75 0.633-0.687 1.8-3.08 1.66-3.83-0.141-0.754-0.655-1.98-0.941-2.62-0.224-0.499-0.651-1.6-0.716-2.8 0-1.79 0.239-2.82 0.239-3.65 0-0.552-0.171-1.21-0.512-1.97-0.125-0.829 0.0456-2.6 0.512-5.32 0.466-2.72 1.32-6.92 2.56-12.6"/>
         <path id="left" d="m15.5 1.2c-1.06 6.6-1.54 11.3-1.44 14.2 0.0561 1.73 0.157 3.22 0.528 4.16 0.562 1.43 1.18 1.75 1.66 2.27 0.475 0.519 0.352 1.25 0.352 1.56 0 0.0806-0.412 0.825-1.62 1.67-0.924 0.649-2.43 1.22-3.88 2.44-3.33 2.83-4.16 4.28-5.04 4.68-0.588 0.268-1.5 0.268-2.75 0-1.02-0.293-1.7-0.518-2.05-0.677-0.518-0.238-0.908-0.37-1.12-0.773-0.14-0.269 0.0817-0.503 0.664-0.702l2.85-1.5 2.4-9.67c0.304-3.07 0.398-6.07 0.281-9s-0.363-5.83-0.74-8.7"/>
        </g>
        <path id="bottom-1" d="m0.0879 31.1c0.151 0 1.63 0.976 2.67 1.25 1.04 0.279 2.66 0.5 3.22 0.221 1.23-0.612 2.89-2.92 4.94-4.44 0.738-0.914 2.88-1.83 4.32-2.77 0.347-0.226 0.748-0.621 1.01-1.31 0.263-0.686 0.297-1.29 0.424-1.02 0.156 0.549 0.0782 3.87 0 4.29-0.0468 0.252-1.8 0.567-3.32 1.45-1.52 0.882-5.53 4.19-6.69 4.66-2.43 0.975-6.18-0.948-6.35-1.2-0.173-0.249-0.369-1.14-0.218-1.14z" fill="#4A4A4A" stroke="#4A4A4A"/>
       </g>
       <g id="tn_bottoms_2">
        <g id="bare-foot" transform="translate(0 .857)" fill="#F4F4F4" stroke="#999" stroke-width=".4">
         <path id="right" d="m21.4 0.0545c0.817 5.65 1.22 9.86 1.22 12.6 0 2.75-0.408 4.52-1.22 5.32-0.454 0.0805-0.568 0.979-0.341 2.7 0.227 1.72 0.548 4.04 0.964 6.97-0.24 1.48-0.36 2.46-0.36 2.95s0.45 1.24 1.35 2.25c0.953 0.5 1.96 0.75 3.03 0.75 1.7-0.0627 2.47-0.0627 3.11-0.75 0.633-0.687 1.8-3.08 1.66-3.83-0.141-0.754-0.655-1.98-0.941-2.62-0.224-0.499-0.651-1.6-0.716-2.8 0-1.79 0.239-2.82 0.239-3.65 0-0.552-0.171-1.21-0.512-1.97-0.125-0.829 0.0456-2.6 0.512-5.32 0.466-2.72 1.32-6.92 2.56-12.6"/>
         <path id="left" d="m15.5 1.2c-1.06 6.6-1.54 11.3-1.44 14.2 0.0561 1.73 0.157 3.22 0.528 4.16 0.562 1.43 1.18 1.75 1.66 2.27 0.475 0.519 0.352 1.25 0.352 1.56 0 0.0806-0.412 0.825-1.62 1.67-0.924 0.649-2.43 1.22-3.88 2.44-3.33 2.83-4.16 4.28-5.04 4.68-0.588 0.268-1.5 0.268-2.75 0-1.02-0.293-1.7-0.518-2.05-0.677-0.518-0.238-0.908-0.37-1.12-0.773-0.14-0.269 0.0817-0.503 0.664-0.702l2.85-1.5 2.4-9.67c0.304-3.07 0.398-6.07 0.281-9s-0.363-5.83-0.74-8.7"/>
        </g>
        <path id="bottom-2" d="m7.21 31.8-1.21 1.22h10.6c0-0.828-0.646-0.828-0.646-3.47 0-2.64 0.646-4.17 0.646-5.39 0-0.211-0.718 1.42-3.17 2.48-0.765 0.152-2.57 1.63-3.23 2.24-0.603 0.553-1.6 1.52-3.01 2.91z" fill="#4A4A4A" stroke="#4A4A4A"/>
       </g>
       <g id="tn_bottoms_3">
        <g id="bare-foot" transform="translate(0 .857)" fill="#F4F4F4" stroke="#999" stroke-width=".4">
         <path id="right" d="m21.4 0.0545c0.817 5.65 1.22 9.86 1.22 12.6 0 2.75-0.408 4.52-1.22 5.32-0.454 0.0805-0.568 0.979-0.341 2.7 0.227 1.72 0.548 4.04 0.964 6.97-0.24 1.48-0.36 2.46-0.36 2.95s0.45 1.24 1.35 2.25c0.953 0.5 1.96 0.75 3.03 0.75 1.7-0.0627 2.47-0.0627 3.11-0.75 0.633-0.687 1.8-3.08 1.66-3.83-0.141-0.754-0.655-1.98-0.941-2.62-0.224-0.499-0.651-1.6-0.716-2.8 0-1.79 0.239-2.82 0.239-3.65 0-0.552-0.171-1.21-0.512-1.97-0.125-0.829 0.0456-2.6 0.512-5.32 0.466-2.72 1.32-6.92 2.56-12.6"/>
         <path id="left" d="m15.5 1.2c-1.06 6.6-1.54 11.3-1.44 14.2 0.0561 1.73 0.157 3.22 0.528 4.16 0.562 1.43 1.18 1.75 1.66 2.27 0.475 0.519 0.352 1.25 0.352 1.56 0 0.0806-0.412 0.825-1.62 1.67-0.924 0.649-2.43 1.22-3.88 2.44-3.33 2.83-4.16 4.28-5.04 4.68-0.588 0.268-1.5 0.268-2.75 0-1.02-0.293-1.7-0.518-2.05-0.677-0.518-0.238-0.908-0.37-1.12-0.773-0.14-0.269 0.0817-0.503 0.664-0.702l2.85-1.5 2.4-9.67c0.304-3.07 0.398-6.07 0.281-9s-0.363-5.83-0.74-8.7"/>
        </g>
        <path id="bottom-3" d="m12 27.8 0.178 2.89h3.97l0.301-6.13c-0.664 0.771-1.34 1.4-2.02 1.89-0.756 0.249-1.57 0.701-2.43 1.36z" fill="#4A4A4A" stroke="#4A4A4A"/>
       </g>
       <g id="tn_bottoms_4" transform="translate(0 .429)">
        <g id="bare-foot" transform="translate(0 .429)" fill="#F4F4F4" stroke="#999" stroke-width=".4">
         <path id="right" d="m21.4 0.0545c0.817 5.65 1.22 9.86 1.22 12.6 0 2.75-0.408 4.52-1.22 5.32-0.454 0.0805-0.568 0.979-0.341 2.7 0.227 1.72 0.548 4.04 0.964 6.97-0.24 1.48-0.36 2.46-0.36 2.95s0.45 1.24 1.35 2.25c0.953 0.5 1.96 0.75 3.03 0.75 1.7-0.0627 2.47-0.0627 3.11-0.75 0.633-0.687 1.8-3.08 1.66-3.83-0.141-0.754-0.655-1.98-0.941-2.62-0.224-0.499-0.651-1.6-0.716-2.8 0-1.79 0.239-2.82 0.239-3.65 0-0.552-0.171-1.21-0.512-1.97-0.125-0.829 0.0456-2.6 0.512-5.32 0.466-2.72 1.32-6.92 2.56-12.6"/>
         <path id="left" d="m15.5 1.2c-1.06 6.6-1.54 11.3-1.44 14.2 0.0561 1.73 0.157 3.22 0.528 4.16 0.562 1.43 1.18 1.75 1.66 2.27 0.475 0.519 0.352 1.25 0.352 1.56 0 0.0806-0.412 0.825-1.62 1.67-0.924 0.649-2.43 1.22-3.88 2.44-3.33 2.83-4.16 4.28-5.04 4.68-0.588 0.268-1.5 0.268-2.75 0-1.02-0.293-1.7-0.518-2.05-0.677-0.518-0.238-0.908-0.37-1.12-0.773-0.14-0.269 0.0817-0.503 0.664-0.702l2.85-1.5 2.4-9.67c0.304-3.07 0.398-6.07 0.281-9s-0.363-5.83-0.74-8.7"/>
        </g>
        <path id="bottom-4" d="m12 27.9 0.498 5.69h3.21l0.738-8.94c-0.664 0.771-1.34 1.4-2.02 1.89-0.756 0.249-1.57 0.701-2.43 1.36z" fill="#4A4A4A" stroke="#4A4A4A"/>
       </g>
       <g id="tn_bottoms_5" transform="translate(0 1)">
        <g id="bare-foot" fill="#F4F4F4" stroke="#999" stroke-width=".4">
         <path id="right" d="m21.4 0.0545c0.817 5.65 1.22 9.86 1.22 12.6 0 2.75-0.408 4.52-1.22 5.32-0.454 0.0805-0.568 0.979-0.341 2.7 0.227 1.72 0.548 4.04 0.964 6.97-0.24 1.48-0.36 2.46-0.36 2.95s0.45 1.24 1.35 2.25c0.953 0.5 1.96 0.75 3.03 0.75 1.7-0.0627 2.47-0.0627 3.11-0.75 0.633-0.687 1.8-3.08 1.66-3.83-0.141-0.754-0.655-1.98-0.941-2.62-0.224-0.499-0.651-1.6-0.716-2.8 0-1.79 0.239-2.82 0.239-3.65 0-0.552-0.171-1.21-0.512-1.97-0.125-0.829 0.0456-2.6 0.512-5.32 0.466-2.72 1.32-6.92 2.56-12.6"/>
         <path id="left" d="m15.5 1.2c-1.06 6.6-1.54 11.3-1.44 14.2 0.0561 1.73 0.157 3.22 0.528 4.16 0.562 1.43 1.18 1.75 1.66 2.27 0.475 0.519 0.352 1.25 0.352 1.56 0 0.0806-0.412 0.825-1.62 1.67-0.924 0.649-2.43 1.22-3.88 2.44-3.33 2.83-4.16 4.28-5.04 4.68-0.588 0.268-1.5 0.268-2.75 0-1.02-0.293-1.7-0.518-2.05-0.677-0.518-0.238-0.908-0.37-1.12-0.773-0.14-0.269 0.0817-0.503 0.664-0.702l2.85-1.5 2.4-9.67c0.304-3.07 0.398-6.07 0.281-9s-0.363-5.83-0.74-8.7"/>
        </g>
        <path id="bottom-5" d="m14 26.9v3.73h1.89v-5.46c-0.315 0.452-0.63 0.815-0.945 1.09s-0.63 0.487-0.945 0.642z" fill="#4A4A4A" stroke="#4A4A4A"/>
       </g>
       <g id="tn_bottoms_6" transform="translate(0 1)">
        <g id="bare-foot" fill="#F4F4F4" stroke="#999" stroke-width=".4">
         <path id="right" d="m21.4 0.0545c0.817 5.65 1.22 9.86 1.22 12.6 0 2.75-0.408 4.52-1.22 5.32-0.454 0.0805-0.568 0.979-0.341 2.7 0.227 1.72 0.548 4.04 0.964 6.97-0.24 1.48-0.36 2.46-0.36 2.95s0.45 1.24 1.35 2.25c0.953 0.5 1.96 0.75 3.03 0.75 1.7-0.0627 2.47-0.0627 3.11-0.75 0.633-0.687 1.8-3.08 1.66-3.83-0.141-0.754-0.655-1.98-0.941-2.62-0.224-0.499-0.651-1.6-0.716-2.8 0-1.79 0.239-2.82 0.239-3.65 0-0.552-0.171-1.21-0.512-1.97-0.125-0.829 0.0456-2.6 0.512-5.32 0.466-2.72 1.32-6.92 2.56-12.6"/>
         <path id="left" d="m15.5 1.2c-1.06 6.6-1.54 11.3-1.44 14.2 0.0561 1.73 0.157 3.22 0.528 4.16 0.562 1.43 1.18 1.75 1.66 2.27 0.475 0.519 0.352 1.25 0.352 1.56 0 0.0806-0.412 0.825-1.62 1.67-0.924 0.649-2.43 1.22-3.88 2.44-3.33 2.83-4.16 4.28-5.04 4.68-0.588 0.268-1.5 0.268-2.75 0-1.02-0.293-1.7-0.518-2.05-0.677-0.518-0.238-0.908-0.37-1.12-0.773-0.14-0.269 0.0817-0.503 0.664-0.702l2.85-1.5 2.4-9.67c0.304-3.07 0.398-6.07 0.281-9s-0.363-5.83-0.74-8.7"/>
        </g>
        <path id="bottom-6" d="m14 25.9v7.08h1.89v-8.81c-0.315 0.452-0.63 0.815-0.945 1.09s-0.63 0.487-0.945 0.642z" fill="#4A4A4A" stroke="#4A4A4A"/>
       </g>
      </g>
      <g id="tn_toes" transform="translate(0 14)">
       <g id="tn_toes_0" transform="translate(2)" fill="#F4F4F4" stroke="#8F8F8F" stroke-width=".6">
        <path id="right-toe-0" d="m25.3 6.72c0.327 2.47 0.788 5.81 1.39 10-0.345 2.12-0.518 3.54-0.518 4.24s0.647 1.78 1.94 3.23c1.37 0.718 2.82 1.08 4.36 1.08 2.45-0.0901 3.56-0.0901 4.47-1.08 0.911-0.988 2.59-4.43 2.38-5.51-0.203-1.08-0.941-2.85-1.35-3.76-0.323-0.718-0.936-2.3-1.03-4.02 0-2.57 0.343-4.05 0.343-5.24s-12.5-2.66-12 1.04z"/>
        <path id="left-toe-0" d="m19.2 1.45c0.0772 2.38 0.216 4.43 0.728 5.73 0.774 1.96 1.63 2.41 2.28 3.13 0.653 0.715 0.485 1.72 0.485 2.15 0 0.111-0.568 1.14-2.23 2.3-1.27 0.894-3.35 1.68-5.34 3.37-4.59 3.9-5.72 5.9-6.94 6.45-0.809 0.369-2.07 0.369-3.78 0-1.4-0.403-2.34-0.714-2.82-0.932-0.714-0.327-1.25-0.51-1.54-1.06-0.192-0.37 0.112-0.692 0.914-0.967l3.93-2.07 3.3-13.3c6.18-5.15 9.85-6.74 11-4.78z"/>
       </g>
       <g id="tn_toes_1">
        <path id="right-toe-0" d="m27.3 6.72c0.327 2.47 0.788 5.81 1.39 10-0.345 2.12-0.518 3.54-0.518 4.24s0.647 1.78 1.94 3.23c1.37 0.718 2.82 1.08 4.36 1.08 2.45-0.0901 3.56-0.0901 4.47-1.08 0.911-0.988 2.59-4.43 2.38-5.51-0.203-1.08-0.941-2.85-1.35-3.76-0.323-0.718-0.936-2.3-1.03-4.02 0-2.57 0.343-4.05 0.343-5.24s-12.5-2.66-12 1.04z" fill="#F4F4F4" stroke="#8F8F8F" stroke-width=".6"/>
        <path id="left-toe-0" d="m21.2 1.45c0.0772 2.38 0.216 4.43 0.728 5.73 0.774 1.96 1.63 2.41 2.28 3.13 0.653 0.715 0.485 1.72 0.485 2.15 0 0.111-0.568 1.14-2.23 2.3-1.27 0.894-3.35 1.68-5.34 3.37-4.59 3.9-5.72 5.9-6.94 6.45-0.809 0.369-2.07 0.369-3.78 0-1.4-0.403-2.34-0.714-2.82-0.932-0.714-0.327-1.25-0.51-1.54-1.06-0.192-0.37 0.112-0.692 0.914-0.967l3.93-2.07 3.3-13.3c6.18-5.15 9.85-6.74 11-4.78z" fill="#F4F4F4" stroke="#8F8F8F" stroke-width=".6"/>
        <path id="right-toe-1" d="m28.4 18.6c0.412 1.29-0.133 2.1 1.19 2.87 1.33 0.769 9.71 0.709 10.9 0 0.997-1.05 0.866-2.14 1.11-2.87-0.0826-0.227 1.62 4.11 0.17 6.65-1.45 2.54-1.69 3.78-6.65 3.78s-7.11-4.19-7.25-5.51c-0.163-1.5 0.555-4.66 0.555-4.93z" fill="#4A4A4A" stroke="#4A4A4A"/>
        <path id="left-toe-1" d="m11.6 23.5c-0.3 0.369-1.07 1.04-3.03 1.52-1.96 0.485-4.3 0.503-6.39 0-2.09-0.503-2.35-1.09-2.11-2.19 0.162-0.733 0.866-1.32 2.11-1.77 1.9-0.988 3.35-1.76 4.36-2.31 2.15 2.1 3.25 3.14 5.06 4.74z" fill="#4A4A4A" stroke="#4A4A4A"/>
       </g>
       <g id="tn_toes_2" transform="translate(1)">
        <path id="right-toe-0" d="m26.3 6.72c0.327 2.47 0.788 5.81 1.39 10-0.345 2.12-0.518 3.54-0.518 4.24s0.647 1.78 1.94 3.23c1.37 0.718 2.82 1.08 4.36 1.08 2.45-0.0901 3.56-0.0901 4.47-1.08 0.911-0.988 2.59-4.43 2.38-5.51-0.203-1.08-0.941-2.85-1.35-3.76-0.323-0.718-0.936-2.3-1.03-4.02 0-2.57 0.343-4.05 0.343-5.24s-12.5-2.66-12 1.04z" fill="#F4F4F4" stroke="#8F8F8F" stroke-width=".6"/>
        <path id="left-toe-0" d="m20.2 1.45c0.0772 2.38 0.216 4.43 0.728 5.73 0.774 1.96 1.63 2.41 2.28 3.13 0.653 0.715 0.485 1.72 0.485 2.15 0 0.111-0.568 1.14-2.23 2.3-1.27 0.894-3.35 1.68-5.34 3.37-4.59 3.9-5.72 5.9-6.94 6.45-0.809 0.369-2.07 0.369-3.78 0-1.4-0.403-2.34-0.714-2.82-0.932-0.714-0.327-1.25-0.51-1.54-1.06-0.192-0.37 0.112-0.692 0.914-0.967l3.93-2.07 3.3-13.3c6.18-5.15 9.85-6.74 11-4.78z" fill="#F4F4F4" stroke="#8F8F8F" stroke-width=".6"/>
        <path id="right-toe-2" d="m27.7 18.2c0.392 1.22 0.558 2.43 0.897 2.66 1.26 0.732 9.48 0.674 10.6 0 0.948-1 0.843-1.84 1.08-2.54-0.0786-0.216 1.52 2.15 0.136 4.57-1.38 2.42-4.99 7.38-6.3 7.38s-6.73-6.13-6.87-7.38c-0.155-1.42 0.468-4.44 0.468-4.69z" fill="#4A4A4A" stroke="#4A4A4A"/>
        <path id="left-toe-2" d="m10.6 23.4c-0.265 0.326-1.01 1.12-2.73 1.12-1.36-0.0547-2.73-0.107-4.53-0.43-0.0472-0.00847-0.12-0.0188-0.218-0.0309-1.99-0.459-3.04-0.911-3.17-1.36 0-0.278 0.776-0.76 2.33-1.45 1.68-0.872 2.96-1.55 3.85-2.04 1.89 1.86 2.86 2.77 4.46 4.19z" fill="#4A4A4A" stroke="#4A4A4A"/>
       </g>
      </g>
      <g id="tn_covers" transform="translate(6 13)">
       <g id="tn_covers_0">
        <g id="bare-foot" fill="#F4F4F4" stroke="#999" stroke-width=".4">
         <path id="right" d="m21.4 0.0545c0.817 5.65 1.22 9.86 1.22 12.6 0 2.75-0.408 4.52-1.22 5.32-0.454 0.0805-0.568 0.979-0.341 2.7 0.227 1.72 0.548 4.04 0.964 6.97-0.24 1.48-0.36 2.46-0.36 2.95s0.45 1.24 1.35 2.25c0.953 0.5 1.96 0.75 3.03 0.75 1.7-0.0627 2.47-0.0627 3.11-0.75 0.633-0.687 1.8-3.08 1.66-3.83-0.141-0.754-0.655-1.98-0.941-2.62-0.224-0.499-0.651-1.6-0.716-2.8 0-1.79 0.239-2.82 0.239-3.65 0-0.552-0.171-1.21-0.512-1.97-0.125-0.829 0.0456-2.6 0.512-5.32 0.466-2.72 1.32-6.92 2.56-12.6"/>
         <path id="left" d="m15.5 1.2c-1.06 6.6-1.54 11.3-1.44 14.2 0.0561 1.73 0.157 3.22 0.528 4.16 0.562 1.43 1.18 1.75 1.66 2.27 0.475 0.519 0.352 1.25 0.352 1.56 0 0.0806-0.412 0.825-1.62 1.67-0.924 0.649-2.43 1.22-3.88 2.44-3.33 2.83-4.16 4.28-5.04 4.68-0.588 0.268-1.5 0.268-2.75 0-1.02-0.293-1.7-0.518-2.05-0.677-0.518-0.238-0.908-0.37-1.12-0.773-0.14-0.269 0.0817-0.503 0.664-0.702l2.85-1.5 2.4-9.67c0.304-3.07 0.398-6.07 0.281-9s-0.363-5.83-0.74-8.7"/>
        </g>
        <path id="left-cover-1" d="m4.08 28 3.18 3.04 1.81-1.87-4.2-4.14c-0.229 0.968-0.389 1.62-0.479 1.95-0.0899 0.329-0.192 0.67-0.308 1.02z" fill="#4A4A4A" stroke="#4A4A4A"/>
        <path id="right-cover-1" d="m22.1 29.7c0.707 0.0227 1.57-0.29 4.7-0.29s3.11 0.306 3.78 0.29c0.14-0.174 0.0905-0.878 0-1.36-0.13-0.687-0.367-1.1-0.424-1.16-0.265-0.112-1.04-0.198-3.48-0.198s-2.95 0.241-4.21 0.198c0 0.225-0.358 2.51-0.358 2.51z" fill="#4A4A4A" stroke="#4A4A4A"/>
       </g>
       <g id="tn_covers_1">
        <g id="bare-foot" fill="#F4F4F4" stroke="#999" stroke-width=".4">
         <path id="right" d="m21.4 0.0545c0.817 5.65 1.22 9.86 1.22 12.6 0 2.75-0.408 4.52-1.22 5.32-0.454 0.0805-0.568 0.979-0.341 2.7 0.227 1.72 0.548 4.04 0.964 6.97-0.24 1.48-0.36 2.46-0.36 2.95s0.45 1.24 1.35 2.25c0.953 0.5 1.96 0.75 3.03 0.75 1.7-0.0627 2.47-0.0627 3.11-0.75 0.633-0.687 1.8-3.08 1.66-3.83-0.141-0.754-0.655-1.98-0.941-2.62-0.224-0.499-0.651-1.6-0.716-2.8 0-1.79 0.239-2.82 0.239-3.65 0-0.552-0.171-1.21-0.512-1.97-0.125-0.829 0.0456-2.6 0.512-5.32 0.466-2.72 1.32-6.92 2.56-12.6"/>
         <path id="left" d="m15.5 1.2c-1.06 6.6-1.54 11.3-1.44 14.2 0.0561 1.73 0.157 3.22 0.528 4.16 0.562 1.43 1.18 1.75 1.66 2.27 0.475 0.519 0.352 1.25 0.352 1.56 0 0.0806-0.412 0.825-1.62 1.67-0.924 0.649-2.43 1.22-3.88 2.44-3.33 2.83-4.16 4.28-5.04 4.68-0.588 0.268-1.5 0.268-2.75 0-1.02-0.293-1.7-0.518-2.05-0.677-0.518-0.238-0.908-0.37-1.12-0.773-0.14-0.269 0.0817-0.503 0.664-0.702l2.85-1.5 2.4-9.67c0.304-3.07 0.398-6.07 0.281-9s-0.363-5.83-0.74-8.7"/>
        </g>
        <path id="left-cover-2" d="m4 27.7 3.25 3.04c0.568-0.685 1.33-1.47 2.28-2.34 0.952-0.878 1.56-1.42 1.83-1.63l-5.9-4.73c-0.713 2.83-1.12 4.4-1.21 4.73-0.0914 0.328-0.175 0.64-0.252 0.936z" fill="#4A4A4A" stroke="#4A4A4A"/>
        <path id="right-cover-2" d="m22 29.2c2.43 0.151 5.87 0.151 8.97 0 0.169-0.422 0.463-1.01 0.261-1.7-0.0995-0.342-1.15-2.25-1.31-2.74-0.157-0.492-0.321-1.33-0.406-1.5-0.982 0-0.982-1.11-3.63-1.11-2.64 0-2.81 1.19-4.06 1.11-0.0241 0.0927 0.228 1.04 0.306 1.92 0.0926 1.05 0.0122 2.03 0 2.33-0.0349 0.856-0.13 1.44-0.13 1.7z" fill="#4A4A4A" stroke="#4A4A4A"/>
       </g>
       <g id="tn_covers_2">
        <g id="bare-foot" fill="#F4F4F4" stroke="#999" stroke-width=".4">
         <path id="right" d="m21.4 0.0545c0.817 5.65 1.22 9.86 1.22 12.6 0 2.75-0.408 4.52-1.22 5.32-0.454 0.0805-0.568 0.979-0.341 2.7 0.227 1.72 0.548 4.04 0.964 6.97-0.24 1.48-0.36 2.46-0.36 2.95s0.45 1.24 1.35 2.25c0.953 0.5 1.96 0.75 3.03 0.75 1.7-0.0627 2.47-0.0627 3.11-0.75 0.633-0.687 1.8-3.08 1.66-3.83-0.141-0.754-0.655-1.98-0.941-2.62-0.224-0.499-0.651-1.6-0.716-2.8 0-1.79 0.239-2.82 0.239-3.65 0-0.552-0.171-1.21-0.512-1.97-0.125-0.829 0.0456-2.6 0.512-5.32 0.466-2.72 1.32-6.92 2.56-12.6"/>
         <path id="left" d="m15.5 1.2c-1.06 6.6-1.54 11.3-1.44 14.2 0.0561 1.73 0.157 3.22 0.528 4.16 0.562 1.43 1.18 1.75 1.66 2.27 0.475 0.519 0.352 1.25 0.352 1.56 0 0.0806-0.412 0.825-1.62 1.67-0.924 0.649-2.43 1.22-3.88 2.44-3.33 2.83-4.16 4.28-5.04 4.68-0.588 0.268-1.5 0.268-2.75 0-1.02-0.293-1.7-0.518-2.05-0.677-0.518-0.238-0.908-0.37-1.12-0.773-0.14-0.269 0.0817-0.503 0.664-0.702l2.85-1.5 2.4-9.67c0.304-3.07 0.398-6.07 0.281-9s-0.363-5.83-0.74-8.7"/>
        </g>
        <path id="left-cover-3" d="m4 28.1 3.25 3.06c0.568-0.69 1.33-1.48 2.28-2.36 0.952-0.885 1.92-1.7 2.9-2.45l-6.09-8.33c-0.474 2.05-0.802 3.47-0.984 4.27-0.679 3-1.03 4.63-1.1 4.87-0.0914 0.331-0.175 0.645-0.252 0.943z" fill="#4A4A4A" stroke="#4A4A4A"/>
        <path id="right-cover-3" d="m22 29.6c2.43 0.151 5.87 0.151 8.97 0 0.169-0.422 0.463-1.01 0.261-1.7-0.0995-0.342-1.15-2.25-1.31-2.74-0.157-0.492-0.701-1.83-0.397-4.05-0.982 0-1.08-1.26-3.73-1.26-2.64 0-3.07 1.34-4.33 1.26-0.0241 0.0927 0.582 3.6 0.66 4.48 0.0926 1.05 0.0122 2.01 0 2.31-0.0349 0.856-0.13 1.44-0.13 1.7z" fill="#4A4A4A" stroke="#4A4A4A"/>
       </g>
       <g id="tn_covers_3">
        <g id="bare-foot" fill="#F4F4F4" stroke="#999" stroke-width=".4">
         <path id="right" d="m21.4 0.0545c0.817 5.65 1.22 9.86 1.22 12.6 0 2.75-0.408 4.52-1.22 5.32-0.454 0.0805-0.568 0.979-0.341 2.7 0.227 1.72 0.548 4.04 0.964 6.97-0.24 1.48-0.36 2.46-0.36 2.95s0.45 1.24 1.35 2.25c0.953 0.5 1.96 0.75 3.03 0.75 1.7-0.0627 2.47-0.0627 3.11-0.75 0.633-0.687 1.8-3.08 1.66-3.83-0.141-0.754-0.655-1.98-0.941-2.62-0.224-0.499-0.651-1.6-0.716-2.8 0-1.79 0.239-2.82 0.239-3.65 0-0.552-0.171-1.21-0.512-1.97-0.125-0.829 0.0456-2.6 0.512-5.32 0.466-2.72 1.32-6.92 2.56-12.6"/>
         <path id="left" d="m15.5 1.2c-1.06 6.6-1.54 11.3-1.44 14.2 0.0561 1.73 0.157 3.22 0.528 4.16 0.562 1.43 1.18 1.75 1.66 2.27 0.475 0.519 0.352 1.25 0.352 1.56 0 0.0806-0.412 0.825-1.62 1.67-0.924 0.649-2.43 1.22-3.88 2.44-3.33 2.83-4.16 4.28-5.04 4.68-0.588 0.268-1.5 0.268-2.75 0-1.02-0.293-1.7-0.518-2.05-0.677-0.518-0.238-0.908-0.37-1.12-0.773-0.14-0.269 0.0817-0.503 0.664-0.702l2.85-1.5 2.4-9.67c0.304-3.07 0.398-6.07 0.281-9s-0.363-5.83-0.74-8.7"/>
        </g>
        <path id="left-cover-4" d="m4 28.2 3.2 2.68c0.636-0.63 1.43-1.39 2.37-2.27 0.946-0.885 1.88-1.68 2.8-2.39 1.27-3.49 2.02-5.49 2.24-6.01-0.439-0.806-0.624-1.52-0.739-2.47h-7.62c-0.43 2.14-0.735 3.61-0.916 4.42-0.675 3-1.03 4.63-1.09 4.87-0.0907 0.331-0.174 0.721-0.249 1.17z" fill="#4A4A4A" stroke="#4A4A4A"/>
        <path id="right-cover-4" d="m22.2 29.5c2.43 0.151 5.84 0 8.39 0 0.247-0.583 0.546-1.01 0.412-1.52-0.134-0.508-0.61-2.12-0.948-3.35-0.105-0.382-0.289-1.05-0.353-1.99-0.0566-0.833 0-1.94 0-2.5 0-1.33-0.0188-2.35-0.386-2.68-1.23 0.0801-1.28-0.459-3.68-0.459s-3.31 0.513-4.14 0.459c-0.636 0.36 0.573 6.61 0.697 8.01 0.0926 1.05 0.0122 2.03 0 2.33-0.0349 0.856-0.246 1.7 0 1.7z" fill="#4A4A4A" stroke="#4A4A4A"/>
       </g>
      </g>
      <g id="tn_counters" transform="translate(6 13)">
       <g id="tn_counters_0" fill="#F4F4F4" stroke="#999" stroke-width=".4">
        <g id="bare-foot">
         <path id="right" d="m21.4 0.0545c0.817 5.65 1.22 9.86 1.22 12.6 0 2.75-0.408 4.52-1.22 5.32-0.454 0.0805-0.568 0.979-0.341 2.7 0.227 1.72 0.548 4.04 0.964 6.97-0.24 1.48-0.36 2.46-0.36 2.95s0.45 1.24 1.35 2.25c0.953 0.5 1.96 0.75 3.03 0.75 1.7-0.0627 2.47-0.0627 3.11-0.75 0.633-0.687 1.8-3.08 1.66-3.83-0.141-0.754-0.655-1.98-0.941-2.62-0.224-0.499-0.651-1.6-0.716-2.8 0-1.79 0.239-2.82 0.239-3.65 0-0.552-0.171-1.21-0.512-1.97-0.125-0.829 0.0456-2.6 0.512-5.32 0.466-2.72 1.32-6.92 2.56-12.6"/>
         <path id="left" d="m15.5 1.2c-1.06 6.6-1.54 11.3-1.44 14.2 0.0561 1.73 0.157 3.22 0.528 4.16 0.562 1.43 1.18 1.75 1.66 2.27 0.475 0.519 0.352 1.25 0.352 1.56 0 0.0806-0.412 0.825-1.62 1.67-0.924 0.649-2.43 1.22-3.88 2.44-3.33 2.83-4.16 4.28-5.04 4.68-0.588 0.268-1.5 0.268-2.75 0-1.02-0.293-1.7-0.518-2.05-0.677-0.518-0.238-0.908-0.37-1.12-0.773-0.14-0.269 0.0817-0.503 0.664-0.702l2.85-1.5 2.4-9.67c0.304-3.07 0.398-6.07 0.281-9s-0.363-5.83-0.74-8.7"/>
        </g>
       </g>
       <g id="tn_counters_1">
        <g id="bare-foot" fill="#F4F4F4" stroke="#999" stroke-width=".4">
         <path id="right" d="m21.4 0.0545c0.817 5.65 1.22 9.86 1.22 12.6 0 2.75-0.408 4.52-1.22 5.32-0.454 0.0805-0.568 0.979-0.341 2.7 0.227 1.72 0.548 4.04 0.964 6.97-0.24 1.48-0.36 2.46-0.36 2.95s0.45 1.24 1.35 2.25c0.953 0.5 1.96 0.75 3.03 0.75 1.7-0.0627 2.47-0.0627 3.11-0.75 0.633-0.687 1.8-3.08 1.66-3.83-0.141-0.754-0.655-1.98-0.941-2.62-0.224-0.499-0.651-1.6-0.716-2.8 0-1.79 0.239-2.82 0.239-3.65 0-0.552-0.171-1.21-0.512-1.97-0.125-0.829 0.0456-2.6 0.512-5.32 0.466-2.72 1.32-6.92 2.56-12.6"/>
         <path id="left" d="m15.5 1.2c-1.06 6.6-1.54 11.3-1.44 14.2 0.0561 1.73 0.157 3.22 0.528 4.16 0.562 1.43 1.18 1.75 1.66 2.27 0.475 0.519 0.352 1.25 0.352 1.56 0 0.0806-0.412 0.825-1.62 1.67-0.924 0.649-2.43 1.22-3.88 2.44-3.33 2.83-4.16 4.28-5.04 4.68-0.588 0.268-1.5 0.268-2.75 0-1.02-0.293-1.7-0.518-2.05-0.677-0.518-0.238-0.908-0.37-1.12-0.773-0.14-0.269 0.0817-0.503 0.664-0.702l2.85-1.5 2.4-9.67c0.304-3.07 0.398-6.07 0.281-9s-0.363-5.83-0.74-8.7"/>
        </g>
        <g id="left-heel-1" transform="translate(12 19.3)" fill="#4A4A4A" stroke="#4A4A4A">
         <path d="m2.03 0.121c0.521 1.07 1.01 1.8 1.46 2.2 0.377 0.328 0.634 0.545 0.756 1 0.0739 0.277 0.0312 0.561 0 0.672-0.0697 0.247-0.107 0.414-1.35 1.5-0.882 0.652-1.82 1.2-2.82 1.65 0.38-1.04 0.571-2.14 0.571-3.3 0-1.16 0.462-2.4 1.39-3.72z"/>
        </g>
        <g id="right-counter-1" transform="translate(21.6 17)" fill="#4A4A4A" stroke="#4A4A4A">
         <path d="m1.01 0.329c0.132-0.141 0.369 0.402 0.217 1.27-0.0574 0.325-0.262 1.35-0.415 2.12-0.0688 0.347-0.375 2.78-0.377 2.76-0.0416-0.289-0.519-3.84-0.403-4.71 0.06-0.299 0.194-0.487 0.403-0.563 0.126-0.131 0.251-0.288 0.377-0.473 0.113-0.179 0.0671-0.268 0.199-0.409zm5.81-0.0222 0.0902 0.667c0.269 0.525 0.421 1.1 0.456 1.71 0.0351 0.616-0.0463 1.74-0.244 3.38-0.093-1.46-0.194-2.42-0.303-2.88-0.127-0.536-0.511-1.46-0.511-1.71 0-0.572 0.17-0.962 0.511-1.17z"/>
        </g>
       </g>
       <g id="tn_counters_2">
        <g id="bare-foot" fill="#F4F4F4" stroke="#999" stroke-width=".4">
         <path id="right" d="m21.4 0.0545c0.817 5.65 1.22 9.86 1.22 12.6 0 2.75-0.408 4.52-1.22 5.32-0.454 0.0805-0.568 0.979-0.341 2.7 0.227 1.72 0.548 4.04 0.964 6.97-0.24 1.48-0.36 2.46-0.36 2.95s0.45 1.24 1.35 2.25c0.953 0.5 1.96 0.75 3.03 0.75 1.7-0.0627 2.47-0.0627 3.11-0.75 0.633-0.687 1.8-3.08 1.66-3.83-0.141-0.754-0.655-1.98-0.941-2.62-0.224-0.499-0.651-1.6-0.716-2.8 0-1.79 0.239-2.82 0.239-3.65 0-0.552-0.171-1.21-0.512-1.97-0.125-0.829 0.0456-2.6 0.512-5.32 0.466-2.72 1.32-6.92 2.56-12.6"/>
         <path id="left" d="m15.5 1.2c-1.06 6.6-1.54 11.3-1.44 14.2 0.0561 1.73 0.157 3.22 0.528 4.16 0.562 1.43 1.18 1.75 1.66 2.27 0.475 0.519 0.352 1.25 0.352 1.56 0 0.0806-0.412 0.825-1.62 1.67-0.924 0.649-2.43 1.22-3.88 2.44-3.33 2.83-4.16 4.28-5.04 4.68-0.588 0.268-1.5 0.268-2.75 0-1.02-0.293-1.7-0.518-2.05-0.677-0.518-0.238-0.908-0.37-1.12-0.773-0.14-0.269 0.0817-0.503 0.664-0.702l2.85-1.5 2.4-9.67c0.304-3.07 0.398-6.07 0.281-9s-0.363-5.83-0.74-8.7"/>
        </g>
        <path id="left_counter_2" d="m14.6 20c0.419 0.906 0.897 1.59 1.43 2.05 0.805 0.687 0.356 1.78-0.665 2.49-1.32 0.978-3.32 1.89-4.47 2.83-1.15 0.946-4.32 4.11-4.39 4.19-0.271-0.267-0.558-0.497-0.734-0.747 0.644-0.687 6.1-7.95 6.66-8.61 0.375-0.443 1.1-1.17 2.17-2.19z" fill="#4A4A4A" stroke="#4A4A4A"/>
        <path id="right-counter-2" d="m22.2 17.1c0.132-0.141 0.369 0.402 0.217 1.27-0.0574 0.325-0.262 1.35-0.415 2.12-0.0517 0.26 0.4 4.82 0.415 7.05-0.149 0.681-0.217 1.1-0.353 1.3 0-0.306 0.137-0.659 0.137-1.3-0.0888-0.943-0.405-2.74-0.576-4.12-0.0898-0.895-0.312-2.18-0.403-3.24-0.0666-0.776-0.0244-1.46 0-1.64 0.06-0.299 0.194-0.487 0.403-0.563 0.126-0.131 0.251-0.288 0.377-0.473 0.113-0.179 0.0671-0.268 0.199-0.409zm6.63 0.332 0.272 0.55c0.269 0.525 0.421 1.1 0.456 1.71 0.0233 0.409-0.489 3.01-0.321 4.69 0.116 0.688 1.18 3.75 1.32 4.13 0.105 0.27 0.105 0.496 0 0.679-0.802-2.23-1.29-3.74-1.46-4.55-0.233-1.09-0.0202-2.75-0.0902-3.95-0.0659-1.13-0.511-2.08-0.511-2.21 0-0.572 0.11-0.923 0.329-1.05z" fill="#4A4A4A" stroke="#4A4A4A"/>
       </g>
      </g>
      <g id="tn_shafts" transform="translate(6)">
       <g id="tn_shafts_0" transform="translate(0 13)" fill="#F4F4F4" stroke="#999" stroke-width=".4">
        <g id="bare-foot" transform="translate(0 .143)">
         <path id="right" d="m21.4 0.0545c0.817 5.65 1.22 9.86 1.22 12.6 0 2.75-0.408 4.52-1.22 5.32-0.454 0.0805-0.568 0.979-0.341 2.7 0.227 1.72 0.548 4.04 0.964 6.97-0.24 1.48-0.36 2.46-0.36 2.95s0.45 1.24 1.35 2.25c0.953 0.5 1.96 0.75 3.03 0.75 1.7-0.0627 2.47-0.0627 3.11-0.75 0.633-0.687 1.8-3.08 1.66-3.83-0.141-0.754-0.655-1.98-0.941-2.62-0.224-0.499-0.651-1.6-0.716-2.8 0-1.79 0.239-2.82 0.239-3.65 0-0.552-0.171-1.21-0.512-1.97-0.125-0.829 0.0456-2.6 0.512-5.32 0.466-2.72 1.32-6.92 2.56-12.6"/>
         <path id="left" d="m15.5 1.2c-1.06 6.6-1.54 11.3-1.44 14.2 0.0561 1.73 0.157 3.22 0.528 4.16 0.562 1.43 1.18 1.75 1.66 2.27 0.475 0.519 0.352 1.25 0.352 1.56 0 0.0806-0.412 0.825-1.62 1.67-0.924 0.649-2.43 1.22-3.88 2.44-3.33 2.83-4.16 4.28-5.04 4.68-0.588 0.268-1.5 0.268-2.75 0-1.02-0.293-1.7-0.518-2.05-0.677-0.518-0.238-0.908-0.37-1.12-0.773-0.14-0.269 0.0817-0.503 0.664-0.702l2.85-1.5 2.4-9.67c0.304-3.07 0.398-6.07 0.281-9s-0.363-5.83-0.74-8.7"/>
        </g>
       </g>
       <g id="tn_shafts_1" transform="translate(0 13)">
        <g id="bare-foot" transform="translate(0 .143)" fill="#F4F4F4" stroke="#999" stroke-width=".4">
         <path id="right" d="m21.4 0.0545c0.817 5.65 1.22 9.86 1.22 12.6 0 2.75-0.408 4.52-1.22 5.32-0.454 0.0805-0.568 0.979-0.341 2.7 0.227 1.72 0.548 4.04 0.964 6.97-0.24 1.48-0.36 2.46-0.36 2.95s0.45 1.24 1.35 2.25c0.953 0.5 1.96 0.75 3.03 0.75 1.7-0.0627 2.47-0.0627 3.11-0.75 0.633-0.687 1.8-3.08 1.66-3.83-0.141-0.754-0.655-1.98-0.941-2.62-0.224-0.499-0.651-1.6-0.716-2.8 0-1.79 0.239-2.82 0.239-3.65 0-0.552-0.171-1.21-0.512-1.97-0.125-0.829 0.0456-2.6 0.512-5.32 0.466-2.72 1.32-6.92 2.56-12.6"/>
         <path id="left" d="m15.5 1.2c-1.06 6.6-1.54 11.3-1.44 14.2 0.0561 1.73 0.157 3.22 0.528 4.16 0.562 1.43 1.18 1.75 1.66 2.27 0.475 0.519 0.352 1.25 0.352 1.56 0 0.0806-0.412 0.825-1.62 1.67-0.924 0.649-2.43 1.22-3.88 2.44-3.33 2.83-4.16 4.28-5.04 4.68-0.588 0.268-1.5 0.268-2.75 0-1.02-0.293-1.7-0.518-2.05-0.677-0.518-0.238-0.908-0.37-1.12-0.773-0.14-0.269 0.0817-0.503 0.664-0.702l2.85-1.5 2.4-9.67c0.304-3.07 0.398-6.07 0.281-9s-0.363-5.83-0.74-8.7"/>
        </g>
        <path id="left-shaft-1" d="m6.02 19.6h8.33c-0.0569-0.357-0.0569-1.21 0-2.57h-8.18c0.0277 0.884 0.0277 1.43 0 1.64-0.0277 0.209-0.0789 0.517-0.154 0.924z" fill="#4A4A4A" stroke="#4A4A4A"/>
        <path id="right-shaft-1" d="m21.3 18.1c0.894-0.103 2.6-0.258 3.85-0.258 0.834 0 2.04 0.086 3.62 0.258v-0.923-0.733c-1.33-0.241-2.54-0.361-3.62-0.361-1.08 0-1.96 0.0726-2.64 0.218l-0.501 0.876c-0.47 0.385-0.706 0.692-0.706 0.923z" fill="#4A4A4A" stroke="#4A4A4A"/>
       </g>
       <g id="tn_shafts_2" transform="translate(0 13)">
        <g id="bare-foot" transform="translate(0 .143)" fill="#F4F4F4" stroke="#999" stroke-width=".4">
         <path id="right" d="m21.4 0.0545c0.817 5.65 1.22 9.86 1.22 12.6 0 2.75-0.408 4.52-1.22 5.32-0.454 0.0805-0.568 0.979-0.341 2.7 0.227 1.72 0.548 4.04 0.964 6.97-0.24 1.48-0.36 2.46-0.36 2.95s0.45 1.24 1.35 2.25c0.953 0.5 1.96 0.75 3.03 0.75 1.7-0.0627 2.47-0.0627 3.11-0.75 0.633-0.687 1.8-3.08 1.66-3.83-0.141-0.754-0.655-1.98-0.941-2.62-0.224-0.499-0.651-1.6-0.716-2.8 0-1.79 0.239-2.82 0.239-3.65 0-0.552-0.171-1.21-0.512-1.97-0.125-0.829 0.0456-2.6 0.512-5.32 0.466-2.72 1.32-6.92 2.56-12.6"/>
         <path id="left" d="m15.5 1.2c-1.06 6.6-1.54 11.3-1.44 14.2 0.0561 1.73 0.157 3.22 0.528 4.16 0.562 1.43 1.18 1.75 1.66 2.27 0.475 0.519 0.352 1.25 0.352 1.56 0 0.0806-0.412 0.825-1.62 1.67-0.924 0.649-2.43 1.22-3.88 2.44-3.33 2.83-4.16 4.28-5.04 4.68-0.588 0.268-1.5 0.268-2.75 0-1.02-0.293-1.7-0.518-2.05-0.677-0.518-0.238-0.908-0.37-1.12-0.773-0.14-0.269 0.0817-0.503 0.664-0.702l2.85-1.5 2.4-9.67c0.304-3.07 0.398-6.07 0.281-9s-0.363-5.83-0.74-8.7"/>
        </g>
        <path id="left-shaft-2" d="m6.22 18.8h8.08l1.26-12.2h-9.73c0.433 2.62 0.65 4.84 0.65 6.68s-0.0859 3.66-0.258 5.48z" fill="#4A4A4A" stroke="#4A4A4A"/>
        <path id="right-shaft-2" d="m22 18.1c1.63 0.636 2.89 0.955 3.76 0.955s2.09-0.318 3.65-0.955v-1.34c0-0.818 0.233-2.21 0.285-2.7 0.144-1.35 0.73-3.94 1.76-7.76h-9c0.415 3.61 0.625 5.67 0.63 6.19 0.0182 1.76-0.135 2.61-0.182 2.9-0.0683 0.413-0.368 1.32-0.901 2.71z" fill="#4A4A4A" stroke="#4A4A4A"/>
       </g>
       <g id="tn_shafts_3" transform="translate(0 7)">
        <g id="bare-foot" transform="translate(0 6.14)" fill="#F4F4F4" stroke="#999" stroke-width=".4">
         <path id="right" d="m21.4 0.0545c0.817 5.65 1.22 9.86 1.22 12.6 0 2.75-0.408 4.52-1.22 5.32-0.454 0.0805-0.568 0.979-0.341 2.7 0.227 1.72 0.548 4.04 0.964 6.97-0.24 1.48-0.36 2.46-0.36 2.95s0.45 1.24 1.35 2.25c0.953 0.5 1.96 0.75 3.03 0.75 1.7-0.0627 2.47-0.0627 3.11-0.75 0.633-0.687 1.8-3.08 1.66-3.83-0.141-0.754-0.655-1.98-0.941-2.62-0.224-0.499-0.651-1.6-0.716-2.8 0-1.79 0.239-2.82 0.239-3.65 0-0.552-0.171-1.21-0.512-1.97-0.125-0.829 0.0456-2.6 0.512-5.32 0.466-2.72 1.32-6.92 2.56-12.6"/>
         <path id="left" d="m15.5 1.2c-1.06 6.6-1.54 11.3-1.44 14.2 0.0561 1.73 0.157 3.22 0.528 4.16 0.562 1.43 1.18 1.75 1.66 2.27 0.475 0.519 0.352 1.25 0.352 1.56 0 0.0806-0.412 0.825-1.62 1.67-0.924 0.649-2.43 1.22-3.88 2.44-3.33 2.83-4.16 4.28-5.04 4.68-0.588 0.268-1.5 0.268-2.75 0-1.02-0.293-1.7-0.518-2.05-0.677-0.518-0.238-0.908-0.37-1.12-0.773-0.14-0.269 0.0817-0.503 0.664-0.702l2.85-1.5 2.4-9.67c0.304-3.07 0.398-6.07 0.281-9s-0.363-5.83-0.74-8.7"/>
        </g>
        <path id="left-shaft-3" d="m6.14 24.6h8.04l1.3-19.3c-0.466-1.99-0.898-3.2-1.3-3.65-1.32-1.47-2.39-1.54-3.88-1.54h-4.86c-0.401 0-0.508 1.73-0.321 5.18l1.02 19.3z" fill="#4A4A4A" stroke="#4A4A4A"/>
        <path id="right-shaft-3" d="m21.4 24.1c1.34 0.567 2.61 0.851 3.81 0.851s2.37-0.284 3.52-0.851c-0.0944-1.54-0.0944-2.72 0-3.55 0.103-0.901 1.05-5.75 2.83-14.6 0.162-1.79 0.244-3.24 0.244-4.34 0-1.58-2.07-1.58-5.57-1.58-3.49 0-4.92 0.0147-5.08 1.58-0.0827 0.802-0.00228 2.25 0.241 4.34 0.79 5.71 1.09 9.8 0.9 12.3-0.19 2.47-0.49 4.41-0.9 5.84z" fill="#4A4A4A" stroke="#4A4A4A"/>
       </g>
       <g id="tn_shafts_4">
        <g id="bare-foot" transform="translate(0 13.1)" fill="#F4F4F4" stroke="#999" stroke-width=".4">
         <path id="right" d="m21.4 0.0545c0.817 5.65 1.22 9.86 1.22 12.6 0 2.75-0.408 4.52-1.22 5.32-0.454 0.0805-0.568 0.979-0.341 2.7 0.227 1.72 0.548 4.04 0.964 6.97-0.24 1.48-0.36 2.46-0.36 2.95s0.45 1.24 1.35 2.25c0.953 0.5 1.96 0.75 3.03 0.75 1.7-0.0627 2.47-0.0627 3.11-0.75 0.633-0.687 1.8-3.08 1.66-3.83-0.141-0.754-0.655-1.98-0.941-2.62-0.224-0.499-0.651-1.6-0.716-2.8 0-1.79 0.239-2.82 0.239-3.65 0-0.552-0.171-1.21-0.512-1.97-0.125-0.829 0.0456-2.6 0.512-5.32 0.466-2.72 1.32-6.92 2.56-12.6"/>
         <path id="left" d="m15.5 1.2c-1.06 6.6-1.54 11.3-1.44 14.2 0.0561 1.73 0.157 3.22 0.528 4.16 0.562 1.43 1.18 1.75 1.66 2.27 0.475 0.519 0.352 1.25 0.352 1.56 0 0.0806-0.412 0.825-1.62 1.67-0.924 0.649-2.43 1.22-3.88 2.44-3.33 2.83-4.16 4.28-5.04 4.68-0.588 0.268-1.5 0.268-2.75 0-1.02-0.293-1.7-0.518-2.05-0.677-0.518-0.238-0.908-0.37-1.12-0.773-0.14-0.269 0.0817-0.503 0.664-0.702l2.85-1.5 2.4-9.67c0.304-3.07 0.398-6.07 0.281-9s-0.363-5.83-0.74-8.7"/>
        </g>
        <path id="left-shaft-4" d="m6.21 31.4h7.97c0.579-8.24 1-13.9 1.27-17 0.4-4.62 0.405-4.11 0.405-6.29-0.757-1.74-3.05-1.95-4.23-2.11-2.41-0.332-2.85-2.88-3.82-4.82-0.339-0.675-1.6-1.14-1.91-1.22-0.809-0.218-1.07 3.83-0.778 12.1l1.09 19.3z" fill="#4A4A4A" stroke="#4A4A4A"/>
        <path id="right-shaft-4" d="m21.5 31c1.56 0.674 2.75 1.01 3.57 1.01 0.824 0 2.03-0.337 3.63-1.01-0.0534-0.408-0.0802-0.714-0.0802-0.919 0-0.148 0.0252-0.557 0.192-1.78 0.0425-0.311 1.03-5.45 2.96-15.4v-6.76c0-1.58-1.9-5.55-5.39-5.55-3.49 0-5.1 3.98-5.26 5.55-0.0827 0.802-0.0827 3.06 0 6.76 0.854 7.83 1.28 12 1.29 12.5 0.0176 1.76-0.13 2.6-0.176 2.88-0.066 0.412-0.315 1.31-0.746 2.7z" fill="#4A4A4A" stroke="#4A4A4A"/>
       </g>
      </g>
     </g>
     <g id="tn_touches" fill="#BD10E0" stroke="#D5D0D0">
      <rect id="tn_touch_7" x=".419" y=".419" width="51.2" height="50.3" rx="8"/>
      <rect id="tn_touch_6" x=".419" y=".419" width="51.2" height="50.3" rx="8"/>
      <rect id="tn_touch_5" x=".419" y=".419" width="51.2" height="50.3" rx="8"/>
      <rect id="tn_touch_4" x=".419" y=".419" width="51.2" height="50.3" rx="8"/>
      <rect id="tn_touch_3" x=".419" y=".419" width="51.2" height="50.3" rx="8"/>
      <rect id="tn_touch_2" x=".419" y=".419" width="51.2" height="50.3" rx="8"/>
      <rect id="tn_touch_1" x=".419" y=".419" width="51.2" height="50.3" rx="8"/>
      <rect id="tn_touch_0" x=".419" y=".419" width="51.2" height="50.3" rx="8"/>
     </g>
    </g>
   </g>
  </g>
  <!-- Generator: Sketch 51.1 (57501) - http://www.bohemiancoding.com/sketch -->
  <g id="Shoes" fill="none" fill-rule="evenodd">
   <g id="iPhone-8-Copy-21" transform="translate(-146 -299)">
    <g id="arrows" transform="translate(146 299)">
     <g id="arrow_back">
      <rect id="touch_arrow" width="69" height="72" fill="#fff"/>
      <polyline id="arrow_left" points="42.9 19 27 35.5 42.9 51" stroke="#6E00FF" stroke-linecap="round" stroke-linejoin="round"/>
     </g>
     <g id="arrow_forward">
      <rect id="touch_arrow" width="69" height="72" fill="#fff"/>
      <polyline id="arroaw_right" transform="translate(34.9 35) scale(-1 1) translate(-34.9 -35)" points="42.9 19 27 35.5 42.9 51" stroke="#6E00FF" stroke-linecap="round" stroke-linejoin="round"/>
     </g>
    </g>
   </g>
  </g>
  <!-- Generator: Sketch 51.1 (57501) - http://www.bohemiancoding.com/sketch -->
  <g id="Shoes" fill="none" fill-rule="evenodd">
   <g id="iPhone-8-Copy-21" transform="translate(-146 -299)">
    <g id="preset_arrows" transform="translate(146 299)">
     <g id="preset_back" transform="translate(5 150) scale(1)">
      <rect id="touch_arrow" width="69" height="72" fill="#fff"/>
      <polyline id="arrow_left" points="42.9 19 27 35.5 42.9 51" stroke="#6E00FF" stroke-linecap="round" stroke-linejoin="round"/>
     </g>
     <g id="preset_forward" transform="translate(345 150) scale(1)">
      <rect id="touch_arrow" width="69" height="72" fill="#fff"/>
      <polyline id="arroaw_right" transform="translate(34.9 35) scale(-1 1) translate(-34.9 -35)" points="42.9 19 27 35.5 42.9 51" stroke="#6E00FF" stroke-linecap="round" stroke-linejoin="round"/>
     </g>
    </g>
   </g>
  </g>
  <!-- Generator: Sketch 50.2 (55047) - http://www.bohemiancoding.com/sketch -->
  <defs>
   <linearGradient id="linearGradient-1" x1="30.5%" y1="8.35%" y2="110%">
    <stop stop-color="#FFC543" offset="0"/>
    <stop stop-color="#E46B60" offset=".246"/>
    <stop stop-color="#7E57CE" offset=".717"/>
    <stop stop-color="#F76B1C" offset="1"/>
   </linearGradient>
  </defs>
  <g id="Color-Palette-&amp;-Filter-Buttons" fill="none" fill-rule="evenodd">
   <g id="iPhone-8-Copy-6" transform="translate(-7 -408)">
    <g id="all-about-filter-buttons-v1" transform="translate(7 408)">
     <g id="filter_button" transform="translate(5 5)">
      <g id="filter_button_0">
       <g id="details_0" transform="translate(194)">
        <g id="Rectangle_14" fill="#fff" stroke="#DBDBDB">
         <rect id="Rectangle-path" x=".5" y=".5" width="91" height="32" rx="16"/>
        </g>
        <g id="details" transform="translate(38 7)" fill="#707070" font-family="CenturyGothic, Century Gothic, Arial" font-size="13">
         <text><tspan x="0" y="13">details</tspan></text>
        </g>
        <path id="details_ellipse" d="m11.9 24.5c-1.28-0.00591-2.31-1.05-2.31-2.33 0.00394-1.28 1.04-2.32 2.32-2.31 1.28 0.00196 2.32 1.04 2.32 2.32 6.6e-6 0.618-0.246 1.21-0.684 1.65-0.438 0.436-1.03 0.679-1.65 0.676zm0-5.79c-1.28-0.00591-2.31-1.05-2.31-2.33s1.04-2.32 2.32-2.31c1.28 0.00196 2.32 1.04 2.32 2.32 6.6e-6 0.618-0.246 1.21-0.684 1.65s-1.03 0.679-1.65 0.676zm0-5.77c-1.28 0-2.32-1.04-2.32-2.32 0-1.28 1.04-2.32 2.32-2.32s2.32 1.04 2.32 2.32c-0.00441 1.28-1.04 2.32-2.32 2.32zm5.73 11.6c-1.28 0-2.32-1.04-2.32-2.32s1.04-2.32 2.32-2.32 2.32 1.04 2.32 2.32-1.04 2.32-2.32 2.32zm0-5.79c-1.28 0-2.32-1.04-2.32-2.32s1.04-2.32 2.32-2.32 2.32 1.04 2.32 2.32-1.04 2.32-2.32 2.32zm0-5.77c-1.28-0.00591-2.31-1.05-2.31-2.33 0.00394-1.28 1.04-2.32 2.32-2.31 1.28 0.00196 2.32 1.04 2.32 2.32 6.5e-6 0.618-0.246 1.21-0.684 1.65-0.438 0.436-1.03 0.679-1.65 0.676zm5.73 11.6c-1.28 0-2.32-1.04-2.32-2.32s1.04-2.32 2.32-2.32 2.32 1.04 2.32 2.32-1.04 2.32-2.32 2.32zm0-5.79c-1.28 0-2.32-1.04-2.32-2.32s1.04-2.32 2.32-2.32 2.32 1.04 2.32 2.32-1.04 2.32-2.32 2.32zm0-5.77c-1.28 0-2.32-1.04-2.32-2.32 0-1.28 1.04-2.32 2.32-2.32s2.32 1.04 2.32 2.32c0 1.28-1.04 2.32-2.32 2.32zm-11.5-4.12c-0.986 0-1.79 0.799-1.79 1.79 0 0.986 0.799 1.79 1.79 1.79 0.986 0 1.79-0.799 1.79-1.79-0.00537-0.984-0.802-1.78-1.79-1.79zm11.5 5.77c-0.986 0-1.79 0.799-1.79 1.79s0.799 1.79 1.79 1.79c0.986 0 1.79-0.799 1.79-1.79 0-0.474-0.188-0.928-0.523-1.26-0.335-0.335-0.789-0.523-1.26-0.523zm-5.73 5.79c-0.986 0-1.79 0.799-1.79 1.79s0.799 1.79 1.79 1.79 1.79-0.799 1.79-1.79-0.799-1.79-1.79-1.79zm-0.0812-16.3c-6.9 0-12.5 5.6-12.5 12.5 0 6.9 5.6 12.5 12.5 12.5s12.5-5.6 12.5-12.5c0-3.32-1.32-6.49-3.66-8.84-2.34-2.34-5.52-3.66-8.84-3.66z" fill="#3D3D3D" fill-rule="nonzero"/>
       </g>
       <g id="patterns_0" transform="translate(97)">
        <g id="Rectangle_14" fill="#fff" stroke="#DBDBDB">
         <rect id="Rectangle-path" x=".5" y=".5" width="91" height="32" rx="16"/>
        </g>
        <g id="patterns" transform="translate(34 7)" fill="#707070" font-family="CenturyGothic, Century Gothic, Arial" font-size="13">
         <text><tspan x="0" y="13">patterns</tspan></text>
        </g>
        <g id="pattern_icon" transform="translate(5 4)" fill="#3D3D3D" fill-rule="nonzero">
         <path id="Path_23" d="m1.61 16.8c0.66-5.4 3.42-7.14 5.88-8.67 2.52-1.57 4.7-2.95 4.43-8.11-1.15 0.0821-2.28 0.328-3.36 0.731 0.11 4.1-1.83 5.31-3.71 6.49-1.99 1.24-3.87 2.41-3.99 7.03 0.155 0.867 0.404 1.72 0.744 2.53z"/>
         <path id="Path_24" d="m4.28 6.33c1.76-1.09 3.18-1.99 3.21-5.1-3.24 1.59-5.6 4.53-6.46 8.03 0.828-1.23 1.95-2.23 3.26-2.93z"/>
         <path id="Path_25" d="m4.6 21.1c0.427-5.76 2.95-7.77 5.41-9.72 2.66-2.11 5.18-4.12 5.04-11.1-0.671-0.124-1.35-0.191-2.03-0.201 0.281 5.78-2.37 7.45-4.94 9.06-2.61 1.62-5.3 3.31-5.51 9.56 0.57 0.9 1.26 1.72 2.04 2.44z"/>
         <path id="Path_26" d="m17.6 14.7c2.43-1.95 4.73-3.81 4.6-10.3-0.656-0.798-1.41-1.51-2.24-2.12-0.0329 7.07-2.78 9.28-5.45 11.4-2.51 2.01-4.88 3.92-5.05 10 1.02 0.294 2.08 0.452 3.14 0.471 0.285-5.74 2.68-7.67 5-9.54z"/>
         <path id="Path_27" d="m21.7 17.3c-1.74 1.06-3.25 1.99-3.43 5.72 3.4-1.71 5.8-4.9 6.5-8.64-0.713 1.25-1.78 2.27-3.07 2.92z"/>
         <path id="Path_28" d="m21.1 16.3c1.87-1.14 3.63-2.21 3.41-7.2h0.0555c-0.283-1.11-0.725-2.18-1.31-3.17-0.26 5.79-2.66 7.73-4.99 9.61-2.22 1.78-4.32 3.48-4.59 8.66 1.18-0.0818 2.35-0.338 3.46-0.759 0.0659-4.76 2.14-6.02 3.97-7.14z"/>
         <path id="Path_29" d="m13.8 12.9c2.67-2.14 5.19-4.17 5.04-11.3-0.859-0.497-1.78-0.885-2.73-1.16 0.078 7.35-2.73 9.58-5.45 11.7-2.48 1.97-4.82 3.84-5.04 9.72 0.846 0.621 1.77 1.13 2.74 1.51 0.268-6.36 2.89-8.48 5.43-10.5z"/>
        </g>
       </g>
       <g id="solid_0">
        <g id="Rectangle_14" fill="#fff" stroke="#DBDBDB">
         <rect id="Rectangle-path" x=".5" y=".5" width="91" height="32" rx="16"/>
        </g>
        <g id="Solid" transform="translate(41 7)" fill="#707070" font-family="CenturyGothic, Century Gothic, Arial" font-size="13">
         <text id="solid"><tspan x="0" y="13">solid</tspan></text>
        </g>
        <circle id="solid_eclipse" cx="17.5" cy="16.5" r="12.5" fill="#3D3D3D" fill-rule="nonzero"/>
       </g>
      </g>
      <g id="filter_button_1">
       <g id="color_palette_closed" transform="translate(293)">
        <rect id="color_pallete_closed_button" width="61" height="32" rx="16" fill="#F3F3F3" fill-rule="nonzero"/>
        <g id="color_palette_arrow_closed" transform="translate(44.5 13.9) scale(1 -1) rotate(90) translate(-4 -6.5)" fill="#000" fill-rule="nonzero" opacity=".72">
         <path id="arrow_point_closed" d="m6.76 6.62-5.18 5.18c-0.33 0.33-0.864 0.33-1.19 0-0.33-0.33-0.33-0.864-3.1e-8 -1.19l4.59-4.59-4.59-4.59c-0.213-0.213-0.297-0.524-0.219-0.816 0.0781-0.291 0.306-0.519 0.597-0.597 0.291-0.0781 0.602 0.00523 0.816 0.219l5.18 5.18c0.158 0.158 0.247 0.373 0.247 0.597s-0.089 0.439-0.247 0.597z"/>
        </g>
        <circle id="color_0" cx="16.5" cy="15.5" r="12" fill="url(#linearGradient-1)" stroke="#3D3D3D"/>
       </g>
       <g id="details_1" transform="translate(193)">
        <g id="Path_464" fill="#6D6D6D" fill-rule="nonzero" stroke="#1D1D1D">
         <path id="Shape" d="m77.5 32.5h-63.1c-3.73 0-7.24-1.66-9.88-4.69-2.64-3.02-4.09-7.04-4.09-11.3s1.45-8.29 4.09-11.3c2.64-3.02 6.15-4.69 9.88-4.69h63.1c3.73 0 7.24 1.66 9.88 4.69 2.64 3.02 4.09 7.04 4.09 11.3s-1.45 8.29-4.09 11.3c-2.64 3.02-6.15 4.69-9.88 4.69z"/>
        </g>
        <g id="Details" transform="translate(37 7)" fill="#fff" font-family="CenturyGothic, Century Gothic, Arial" font-size="13">
         <text id="details"><tspan x="0" y="13">details</tspan></text>
        </g>
        <g id="advanced-filter" transform="translate(4 4)" fill="#fff" fill-rule="nonzero">
         <path id="Path_33" d="m7.39 19.8c-1.24-0.00571-2.23-1.01-2.23-2.25 0.0038-1.24 1.01-2.24 2.24-2.23s2.24 1 2.24 2.24c6.35e-6 0.596-0.238 1.17-0.66 1.59-0.423 0.421-0.995 0.656-1.59 0.653zm0-5.59c-1.24-0.00571-2.23-1.01-2.23-2.25 0.0038-1.24 1.01-2.24 2.24-2.23s2.24 1 2.24 2.24c6.35e-6 0.596-0.238 1.17-0.66 1.59-0.423 0.421-0.995 0.656-1.59 0.653zm0-5.57c-1.24 0-2.24-1-2.24-2.24s1-2.24 2.24-2.24 2.24 1 2.24 2.24c-0.00426 1.24-1.01 2.24-2.24 2.24zm5.53 11.2c-1.24 0-2.24-1-2.24-2.24s1-2.24 2.24-2.24 2.24 1 2.24 2.24-1 2.24-2.24 2.24zm0-5.59c-1.24 0-2.24-1-2.24-2.24s1-2.24 2.24-2.24 2.24 1 2.24 2.24-1 2.24-2.24 2.24zm0-5.57c-1.24-0.00571-2.23-1.01-2.23-2.25 0.0038-1.24 1.01-2.24 2.24-2.23 1.24 0.00189 2.24 1 2.24 2.24 6.4e-6 0.596-0.238 1.17-0.66 1.59s-0.995 0.656-1.59 0.653zm5.53 11.2c-1.24 0-2.24-1-2.24-2.24s1-2.24 2.24-2.24 2.24 1 2.24 2.24-1 2.24-2.24 2.24zm0-5.59c-1.24 0-2.24-1-2.24-2.24s1-2.24 2.24-2.24 2.24 1 2.24 2.24-1 2.24-2.24 2.24zm0-5.57c-1.24 0-2.24-1-2.24-2.24s1-2.24 2.24-2.24 2.24 1 2.24 2.24-1 2.24-2.24 2.24zm-11.1-3.97c-0.952 0-1.72 0.772-1.72 1.72 0 0.952 0.772 1.72 1.72 1.72 0.952 0 1.72-0.772 1.72-1.72-0.00518-0.95-0.774-1.72-1.72-1.72zm11.1 5.57c-0.952 0-1.72 0.772-1.72 1.72s0.772 1.72 1.72 1.72 1.72-0.772 1.72-1.72c0-0.457-0.182-0.896-0.505-1.22s-0.762-0.505-1.22-0.505zm-5.53 5.59c-0.952 0-1.72 0.772-1.72 1.72s0.772 1.72 1.72 1.72c0.952 0 1.72-0.772 1.72-1.72s-0.772-1.72-1.72-1.72zm-0.0784-15.8c-6.67-3.06e-15 -12.1 5.4-12.1 12.1 0 6.67 5.4 12.1 12.1 12.1 6.67 0 12.1-5.4 12.1-12.1 0-3.2-1.27-6.27-3.53-8.53-2.26-2.26-5.33-3.53-8.53-3.53z"/>
        </g>
       </g>
       <g id="patterns_1" transform="translate(96)">
        <g id="Rectangle_14" fill="#6D6D6D" stroke="#1D1D1D">
         <rect id="Rectangle-path" x=".5" y=".5" width="92" height="32" rx="16"/>
        </g>
        <text id="patterns" fill="#FFFFFF" font-family="CenturyGothic, Century Gothic, Arial" font-size="13"><tspan x="34" y="20">patterns</tspan></text>
        <g id="pattern_icon" transform="translate(4 4)" fill="#fff" fill-rule="nonzero">
         <path id="Path_23" d="m1.61 16.8c0.66-5.4 3.42-7.14 5.88-8.67 2.52-1.57 4.7-2.95 4.43-8.11-1.15 0.0821-2.28 0.328-3.36 0.731 0.11 4.1-1.83 5.31-3.71 6.49-1.99 1.24-3.87 2.41-3.99 7.03 0.155 0.867 0.404 1.72 0.744 2.53z"/>
         <path id="Path_24" d="m4.28 6.33c1.76-1.09 3.18-1.99 3.21-5.1-3.24 1.59-5.6 4.53-6.46 8.03 0.828-1.23 1.95-2.23 3.26-2.93z"/>
         <path id="Path_25" d="m4.6 21.1c0.427-5.76 2.95-7.77 5.41-9.72 2.66-2.11 5.18-4.12 5.04-11.1-0.671-0.124-1.35-0.191-2.03-0.201 0.281 5.78-2.37 7.45-4.94 9.06-2.61 1.62-5.3 3.31-5.51 9.56 0.57 0.9 1.26 1.72 2.04 2.44z"/>
         <path id="Path_26" d="m17.6 14.7c2.43-1.95 4.73-3.81 4.6-10.3-0.656-0.798-1.41-1.51-2.24-2.12-0.0329 7.07-2.78 9.28-5.45 11.4-2.51 2.01-4.88 3.92-5.05 10 1.02 0.294 2.08 0.452 3.14 0.471 0.285-5.74 2.68-7.67 5-9.54z"/>
         <path id="Path_27" d="m21.7 17.3c-1.74 1.06-3.25 1.99-3.43 5.72 3.4-1.71 5.8-4.9 6.5-8.64-0.713 1.25-1.78 2.27-3.07 2.92z"/>
         <path id="Path_28" d="m21.1 16.3c1.87-1.14 3.63-2.21 3.41-7.2h0.0555c-0.283-1.11-0.725-2.18-1.31-3.17-0.26 5.79-2.66 7.73-4.99 9.61-2.22 1.78-4.32 3.48-4.59 8.66 1.18-0.0818 2.35-0.338 3.46-0.759 0.0659-4.76 2.14-6.02 3.97-7.14z"/>
         <path id="Path_29" d="m13.8 12.9c2.67-2.14 5.19-4.17 5.04-11.3-0.859-0.497-1.78-0.885-2.73-1.16 0.078 7.35-2.73 9.58-5.45 11.7-2.48 1.97-4.82 3.84-5.04 9.72 0.846 0.621 1.77 1.13 2.74 1.51 0.268-6.36 2.89-8.48 5.43-10.5z"/>
        </g>
       </g>
       <g id="solid_1">
        <g id="Rectangle_14" fill="#6D6D6D" stroke="#1D1D1D">
         <rect id="Rectangle-path" x=".5" y=".5" width="91" height="32" rx="16"/>
        </g>
        <text id="solid" fill="#FFFFFF" font-family="CenturyGothic, Century Gothic, Arial" font-size="13"><tspan x="41" y="21">solid</tspan></text>
        <circle id="solid_eclipse" cx="17.5" cy="16.5" r="12.5" fill="#fff" fill-rule="nonzero"/>
       </g>
      </g>
     </g>
     <g id="filter_button_touch_area" fill="#A6A4A7" fill-opacity=".632" stroke="#000">
      <rect id="filter_button_touch_area_0" x=".5" y=".5" width="98" height="41"/>
      <rect id="filter_button_touch_area_1" x="98.5" y=".5" width="98" height="41"/>
      <rect id="filter_button_touch_area_2" x="196" y=".5" width="98" height="41"/>
      <rect id="filter_button_touch_area_3" x="294" y=".5" width="68" height="41"/>
     </g>
    </g>
   </g>
  </g>
 </g>
</svg>
