<?xml version="1.0" encoding="UTF-8"?>
<svg width="246px" height="225px" viewBox="0 0 246 225" version="1.1" xmlns="http://www.w3.org/2000/svg" xmlns:xlink="http://www.w3.org/1999/xlink">
    <!-- Generator: Sketch 51.1 (57501) - http://www.bohemiancoding.com/sketch -->
    <title>visual filter updated Aug 9.8</title>
    <desc>Created with Sketch.</desc>
    <defs></defs>
    <g id="BodyParts-VisualFilter-Final-Distribution" stroke="none" stroke-width="1" fill="none" fill-rule="evenodd">
        <g id="visual-filter-updated-Aug-9.8">
            <g id="full-body">
                <path d="M77.93,54.45 C77.38,54.66 76.82,54.87 76.25,55.06 C76.82,54.87 77.38,54.66 77.93,54.45 Z" id="Shape"></path>
                <path d="M123.13,28.37 L123.13,28.3 C116.060283,28.0279825 109.343167,25.1415823 104.28,20.2 C109.326942,25.1753169 116.0486,28.0886298 123.13,28.37 Z" id="Shape"></path>
                <path d="M83.19,52 L82,52.62 L83.19,52 Z" id="Shape"></path>
                <path d="M81.39,52.94 L80.39,53.38 L81.39,52.94 Z" id="Shape"></path>
                <path d="M79.65,53.74 C79.34,53.88 79.02,54.01 78.65,54.14 C79,54 79.34,53.88 79.65,53.74 Z" id="Shape"></path>
                <path d="M91.15,46.42 C88.8176093,48.4992361 86.2620174,50.3136393 83.53,51.83 C85.3468646,50.8304504 87.0911693,49.704338 88.75,48.46 C89.58,47.81 90.38,47.12 91.15,46.42 Z" id="Shape"></path>
                <path d="M93.5,44.15 L93.13,44.53 L93.5,44.15 Z" id="Shape"></path>
                <path d="M91.16,46.41 C91.55,46.07 91.92,45.72 92.29,45.41 C91.92,45.72 91.55,46.07 91.16,46.41 Z" id="Shape"></path>
                <path d="M95.36,52.88 C94.5222542,52.2051509 93.6014073,51.6405441 92.62,51.2 C93.53,51.79 94.44,52.35 95.36,52.88 Z" id="Shape"></path>
                <path d="M83.79,62.28 C85.1040178,57.5597703 86.7755153,52.9464373 88.79,48.48 C86.723862,52.9252954 85.0508099,57.5429191 83.79,62.28 Z" id="Shape"></path>
                <path d="M69,199.45 C69.5117586,207.914416 70.6009592,216.334003 72.26,224.65 L119.44,224.65 C119.78,220.9 120.21,217.15 120.55,213.4 C120.55,212.82 120.64,212.24 120.68,211.65 C102.06,211.77 83.66,207.84 69,199.45 Z" id="Shape" fill="#F4F4F4" fill-rule="nonzero"></path>
                <path d="M73.1,120.7 C70.5,131.9 61.9,141.3 53.1,153.2 C48.8121316,159.047093 44.334172,165.60417 40.1895711,172.425583 C36.8914467,177.853818 33.4760742,183.427885 32.9,189.1 C32,197.4 27.7,205.5 23.9,213.3 C22.7,215.7 18.4,217.7 15.1,218.2 C11.3,218.8 7.8,216.7 8.2,212.4 C9,205.5 9.9,198.8 10.8,192.1 C7.8,193.3 4.7,194.7 1.6,196 C1.17940621,195.578346 0.810173485,195.108413 0.5,194.6 C5.4,188.6 19.1,182.7 23.5,176.4 C25.7075978,173.667827 33.3018502,158.996752 34.7498944,156.032285 C40.2407757,144.791238 46.7677895,136.211474 49.3,124.5 C52.4,109.5 56.9,94.5 59.9,79.2 C61.3,72.1 61.5,64.9 61.9,57.7 C66.6980734,57.6588454 71.4585061,56.848559 76,55.3 C76.7,55.1 77.2,54.9 77.8,54.7 C78.1,54.6 78.3,54.5 78.6,54.4 C78.9261832,54.2494432 79.2599661,54.11593 79.6,54 C79.8851908,53.9074755 80.1548659,53.7726379 80.4,53.6 C80.6094418,53.3556552 80.8885863,53.1811898 81.2,53.1 L81.8,52.8 L83,52.2 C83.1,52.1 83.2,52.1 83.3,52 C85.1287047,51.0196976 86.8686051,49.8820703 88.5,48.6 C86.4455251,53.0500991 84.7728432,57.666701 83.5,62.4 C81.0172599,71.839012 79.6743566,81.5414885 79.5,91.3 C77.5,101.2 75.5,111 73.1,120.7 Z" id="sleeves_0-path" stroke="#686868" fill="#F4F4F4"></path>
                <path d="M172.7,120.7 C175.3,131.9 183.9,141.3 192.7,153.2 C197.10081,159.124167 201.620465,165.505681 205.787404,172.425583 C209.005953,177.770523 212.389889,183.521841 213,189.1 C213.9,197.4 218.2,205.5 222,213.3 C223.2,215.7 227.5,217.7 230.8,218.2 C234.6,218.8 238.1,216.7 237.7,212.4 C236.9,205.5 236,198.8 235.1,192.1 C238.1,193.3 241.2,194.7 244.3,196 C244.720594,195.578346 245.089827,195.108413 245.4,194.6 C240.5,188.6 226.8,182.7 222.4,176.4 C220.192402,173.667827 213.982231,160.168587 211.638958,156.032285 C206.021434,146.116338 198.858075,134.943597 196.6,124.5 C193.4,109.3 188.9,94.4 185.9,79 C184.5,71.9 184.3,64.7 183.9,57.5 C179.101927,57.4588454 174.341494,56.648559 169.8,55.1 C169.1,54.9 168.6,54.7 168,54.5 C167.7,54.4 167.5,54.3 167.2,54.2 C166.873816,54.0494448 166.540033,53.9159317 166.2,53.8 C165.914809,53.7074755 165.645134,53.5726379 165.4,53.4 C165.1,53.3 164.8,53.1 164.5,53 L163.9,52.7 L162.7,52.1 C162.6,52 162.5,52 162.4,51.9 C160.571295,50.9196976 158.831395,49.7820703 157.2,48.5 C159.254475,52.9500991 160.927157,57.566701 162.2,62.3 C164.759185,71.7602249 166.136343,81.501097 166.3,91.3 C168.3,101.2 170.3,111 172.7,120.7 Z" id="sleeves_0-path" stroke="#686868" fill="#F4F4F4"></path>
                <path d="M79.73,91.2 C79.73,91.2 79.73,91.2 79.73,91.2 C79.9160955,81.4456838 81.2758797,71.7492469 83.78,62.32 C81.2465811,71.7433012 79.8862915,81.4433413 79.73,91.2 Z" id="Shape" stroke="#686868" fill="#F4F4F4" fill-rule="nonzero"></path>
                <path d="M88.75,48.48 C88.5,49.1 90.66,50.18 92.62,51.2 C91.32,50.35 90.03,49.44 88.76,48.45 L88.75,48.48 Z" id="Shape" stroke="#686868" fill="#F4F4F4" fill-rule="nonzero"></path>
                <polygon id="Shape" stroke="#686868" fill="#F4F4F4" fill-rule="nonzero" points="104.28 20.2 104.17 20.1 104.17 20.1"></polygon>
                <path d="M77.93,54.45 L78.69,54.14 C79.02,54.01 79.34,53.88 79.69,53.74 C80.04,53.6 80.22,53.5 80.48,53.38 L81.48,52.94 L82.13,52.62 L83.19,52 L83.53,51.82 C86.2620174,50.3036393 88.8176093,48.4892361 91.15,46.41 C91.54,46.07 91.91,45.72 92.28,45.41 C92.65,45.1 92.85,44.86 93.12,44.58 L93.49,44.2 C99.777808,37.7257026 103.532211,29.2090976 104.07,20.2 L104.16,20.12 C102.283205,21.7367765 100.114136,22.9791543 97.77,23.78 C91.98,25.99 86.53,29.14 80.57,30.78 C68.06,34.06 63.12,41.56 62.44,52.2 C62.35,53.98 62.27,55.69 62.18,57.48 C66.9426156,57.4079016 71.6653044,56.5982978 76.18,55.08 C76.82,54.87 77.38,54.66 77.93,54.45 Z" id="Shape" stroke="#686868" fill="#F4F4F4" fill-rule="nonzero"></path>
                <path d="M82,52.62 L81.35,52.94 L82,52.62 Z" id="Shape" stroke="#686868" fill="#F4F4F4" fill-rule="nonzero"></path>
                <path d="M83.53,51.83 L83.19,52.01 L83.53,51.83 Z" id="Shape" stroke="#686868" fill="#F4F4F4" fill-rule="nonzero"></path>
                <path d="M80.44,53.38 C80.18,53.5 79.92,53.63 79.65,53.74 C79.92,53.63 80.18,53.5 80.44,53.38 Z" id="Shape" stroke="#686868" fill="#F4F4F4" fill-rule="nonzero"></path>
                <path d="M78.69,54.14 L77.93,54.45 L78.69,54.14 Z" id="Shape" stroke="#686868" fill="#F4F4F4" fill-rule="nonzero"></path>
                <path d="M93.5,44.15 C99.8036141,37.6775193 103.587664,29.1660658 104.17,20.15 L104.08,20.23 C103.523425,29.2110505 99.7703751,37.6962073 93.5,44.15 Z" id="Shape" stroke="#686868" fill="#F4F4F4" fill-rule="nonzero"></path>
                <path d="M93.13,44.53 C92.86,44.81 92.58,45.09 92.29,45.36 C92.58,45.09 92.85,44.81 93.13,44.53 Z" id="Shape" stroke="#686868" fill="#F4F4F4" fill-rule="nonzero"></path>
                <path d="M168.34,54.45 C168.89,54.66 169.45,54.87 170.02,55.06 C169.45,54.87 168.89,54.66 168.34,54.45 Z" id="Shape"></path>
                <path d="M123.13,28.37 L123.13,28.3 C130.206273,28.0309879 136.930698,25.1445096 142,20.2 C136.946922,25.1782479 130.217952,28.0916384 123.13,28.37 Z" id="Shape"></path>
                <path d="M163.08,52 L164.23,52.61 L163.08,52 Z" id="Shape"></path>
                <path d="M164.88,52.94 L165.82,53.38 L164.88,52.94 Z" id="Shape"></path>
                <path d="M166.62,53.74 L167.57,54.14 L166.62,53.74 Z" id="Shape"></path>
                <path d="M155.11,46.42 C157.447707,48.4970992 160.006365,50.3112985 162.74,51.83 C160.923135,50.8304504 159.178831,49.704338 157.52,48.46 C156.69,47.81 155.89,47.12 155.11,46.42 Z" id="Shape"></path>
                <path d="M152.77,44.15 L153.14,44.53 L152.77,44.15 Z" id="Shape"></path>
                <path d="M155.11,46.41 C154.72,46.07 154.34,45.72 153.98,45.41 C154.35,45.72 154.72,46.07 155.11,46.41 Z" id="Shape"></path>
                <path d="M150.91,52.88 C151.747746,52.2051509 152.668593,51.6405441 153.65,51.2 C152.74,51.79 151.83,52.35 150.91,52.88 Z" id="Shape"></path>
                <path d="M162.48,62.28 C161.165982,57.5597703 159.494485,52.9464373 157.48,48.48 C159.541458,52.9272251 161.21436,57.5444351 162.48,62.28 Z" id="Shape"></path>
                <path d="M177.3,199.45 C176.788241,207.914416 175.699041,216.334003 174.04,224.65 L126.86,224.65 C126.52,220.9 126.09,217.15 125.75,213.4 C125.69,212.82 125.66,212.24 125.61,211.65 C144.21,211.77 162.61,207.84 177.3,199.45 Z" id="Shape" fill="#F4F4F4" fill-rule="nonzero"></path>
                <path d="M176.64,167.55 C173.39925,159.100651 169.62842,150.864277 165.35,142.89 C153.05,145.7 137.99,148.99 123.13,149.09 C108.28,148.99 93.22,145.7 80.92,142.89 C76.6489125,150.866472 72.8815394,159.102591 69.64,167.55 C64.24,180.87 64.34,196.02 64.25,196.55 C65.78,197.55 67.36,198.55 68.98,199.47 C83.67,207.86 102.07,211.79 120.66,211.67 C121.49,211.67 122.32,211.67 123.14,211.67 L125.62,211.67 C144.22,211.79 162.62,207.86 177.31,199.47 C178.93,198.54 180.51,197.58 182.03,196.55 C181.94,196 182,180.87 176.64,167.55 Z" id="Shape" stroke="#686868" fill="#F4F4F4" fill-rule="nonzero" stroke-linecap="square"></path>
                <path d="M137.25,6.81 C133.462126,3.06709266 128.445227,0.825121781 123.13,0.5 C117.811263,0.822745606 112.79042,3.0648914 109,6.81 C109.08,12.26 107.81,16.81 104.15,20.1 L104.26,20.2 C109.323167,25.1415823 116.040283,28.0279825 123.11,28.3 C130.193254,28.0358892 136.925641,25.1490531 142,20.2 L142.11,20.1 C138.44,16.77 137.16,12.26 137.25,6.81 Z" id="Shape" stroke="#686868" fill="#F4F4F4" fill-rule="nonzero"></path>
                <path d="M166.54,91.2 C166.54,91.2 166.54,91.2 166.54,91.2 C166.343918,81.446479 164.9843,71.7512293 162.49,62.32 C165.013685,71.7452817 166.373805,81.4441146 166.54,91.2 Z" id="Shape" stroke="#686868" fill="#F4F4F4" fill-rule="nonzero"></path>
                <path d="M157.52,48.48 C157.76,49.1 155.61,50.18 153.65,51.2 C154.95,50.35 156.23,49.44 157.51,48.45 L157.52,48.48 Z" id="Shape" stroke="#686868" fill="#F4F4F4" fill-rule="nonzero"></path>
                <polygon id="Shape" stroke="#686868" fill="#F4F4F4" fill-rule="nonzero" points="142 20.2 142.11 20.1 142.11 20.1"></polygon>
                <path d="M168.34,54.45 L167.57,54.14 L166.62,53.74 C166.35,53.63 166.09,53.5 165.82,53.38 L164.88,52.94 L164.23,52.62 L163.08,52 L162.74,51.82 C160.006365,50.3012985 157.447707,48.4870992 155.11,46.41 C154.72,46.07 154.35,45.72 153.98,45.41 C153.61,45.1 153.41,44.86 153.14,44.58 L152.77,44.2 C146.482192,37.7257026 142.727789,29.2090976 142.19,20.2 L142.1,20.12 C143.973898,21.7408673 146.143801,22.9837226 148.49,23.78 C154.28,25.99 159.73,29.14 165.69,30.78 C178.21,34.1 183.15,41.6 183.83,52.24 C183.92,54.02 184,55.73 184.09,57.52 C179.327384,57.4479016 174.604696,56.6382978 170.09,55.12 C169.45,54.87 168.89,54.66 168.34,54.45 Z" id="Shape" stroke="#686868" fill="#F4F4F4" fill-rule="nonzero"></path>
                <path d="M164.23,52.62 L164.88,52.94 L164.23,52.62 Z" id="Shape" stroke="#686868" fill="#F4F4F4" fill-rule="nonzero"></path>
                <path d="M162.74,51.83 L163.08,52.01 L162.74,51.83 Z" id="Shape" stroke="#686868" fill="#F4F4F4" fill-rule="nonzero"></path>
                <path d="M165.82,53.38 C166.09,53.5 166.35,53.63 166.62,53.74 C166.35,53.63 166.09,53.5 165.82,53.38 Z" id="Shape" stroke="#686868" fill="#F4F4F4" fill-rule="nonzero"></path>
                <path d="M167.57,54.14 L168.34,54.45 L167.57,54.14 Z" id="Shape" stroke="#686868" fill="#F4F4F4" fill-rule="nonzero"></path>
                <path d="M152.77,44.15 C146.462677,37.6800314 142.677986,29.1671361 142.1,20.15 L142.19,20.23 C142.746575,29.2110505 146.499625,37.6962073 152.77,44.15 Z" id="Shape" stroke="#686868" fill="#F4F4F4" fill-rule="nonzero"></path>
                <path d="M153.14,44.53 C153.41,44.81 153.69,45.09 153.98,45.36 C153.69,45.09 153.41,44.81 153.14,44.53 Z" id="Shape" stroke="#686868" fill="#F4F4F4" fill-rule="nonzero"></path>
                <path d="M166.45,90.86 C166.469758,90.9617157 166.496488,91.0619522 166.53,91.16 C166.333918,81.406479 164.9743,71.7112293 162.48,62.28 C161.067232,57.5821212 159.398063,52.9651981 157.48,48.45 C157.48,48.45 155.85,47.11 155.07,46.45 C154.68,46.11 154.3,45.76 153.94,45.45 C153.58,45.14 153.37,44.9 153.1,44.62 L152.73,44.24 C146.422677,37.7700314 142.637986,29.2571361 142.06,20.24 L141.95,20.34 C136.899442,25.3159697 130.174458,28.2291783 123.09,28.51 C116.0086,28.2286298 109.286942,25.3153169 104.24,20.34 L104.13,20.24 C103.547664,29.2560658 99.7636141,37.7675193 93.46,44.24 L93.09,44.62 C92.81,44.9 92.54,45.18 92.25,45.45 C91.96,45.72 91.51,46.16 91.12,46.45 C90.35,47.15 89.55,47.84 88.72,48.45 C88.72,48.45 88.47,49.09 88.72,48.45 C86.7055153,52.9164373 85.0340178,57.5297703 83.72,62.25 C81.2158797,71.6792469 79.8560955,81.3756838 79.67,91.13 C79.67,91.04 79.74,90.9 79.74,90.83 C81.96,96.19 82.74,101.47 84.51,106.67 C88.86,119.18 87.15,130.94 80.85,142.86 C93.15,145.67 108.21,148.96 123.06,149.06 C137.92,148.96 152.98,145.67 165.28,142.86 C158.97,130.94 157.28,119.18 161.61,106.67 C163.47,101.5 164.24,96.22 166.45,90.86 Z" id="Shape" stroke="#686868" fill="#F4F4F4" fill-rule="nonzero" stroke-linecap="square"></path>
                <path d="M157.52,48.45 C156.69,47.81 155.89,47.12 155.11,46.45 C154.72,46.11 154.34,45.76 153.98,45.45 C153.62,45.14 153.41,44.9 153.14,44.62 L152.77,44.24 C146.462677,37.7700314 142.677986,29.2571361 142.1,20.24 L141.99,20.34 C136.939442,25.3159697 130.214458,28.2291783 123.13,28.51 C116.0486,28.2286298 109.326942,25.3153169 104.28,20.34 L104.17,20.24 C103.587664,29.2560658 99.8036141,37.7675193 93.5,44.24 L93.13,44.62 C92.85,44.9 92.58,45.18 92.29,45.45 C92,45.72 91.55,46.16 91.16,46.45 C90.39,47.15 89.59,47.84 88.76,48.45 C90.03,49.45 99.49,82.45 123.13,82.45 C145.49,82.45 156.23,49.45 157.51,48.45 L157.52,48.45 Z" id="Shape" stroke="#686868" fill="#F4F4F4" fill-rule="nonzero" stroke-linejoin="bevel"></path>
            </g>
            <g id="length_all" transform="translate(64.000000, 143.000000)" fill="#3D3D3D" fill-rule="nonzero" stroke="#3D3D3D" stroke-linecap="square" stroke-linejoin="round">
                <path d="M112.9,25.2 C109.667707,16.7325287 105.893223,8.48210674 101.6,0.5 C89.3,3.3 74.2,6.6 59.4,6.7 C44.5,6.6 29.5,3.3 17.2,0.5 C12.9288673,8.4930673 9.15502942,16.7420757 5.9,25.2 C0.5,38.5 0.6,53.7 0.5,54.2 C2,55.2 3.6,56.2 5.2,57.1 C19.9,65.5 38.3,69.4 56.9,69.3 L61.9,69.3 C80.5,69.4 98.9,65.5 113.6,57.1 C115.2,56.2 116.8,55.2 118.3,54.2 C118.2,53.7 118.3,38.6 112.9,25.2 Z" id="length_all_1"></path>
            </g>
            <g id="length_2" transform="translate(64.000000, 143.000000)" fill="#676767" fill-rule="nonzero" stroke="#686868" stroke-linecap="square">
                <path d="M112.956,25.272 C109.723707,16.8045287 105.949223,8.55410674 101.656,0.572 C89.356,3.372 74.256,6.672 59.456,6.772 C44.556,6.672 29.556,3.372 17.256,0.572 C12.9848673,8.5650673 9.21102942,16.8140757 5.956,25.272 C0.556,38.572 0.656,53.772 0.556,54.272 C2.056,55.272 3.656,56.272 5.256,57.172 C19.956,65.572 38.356,69.472 56.956,69.372 L61.956,69.372 C80.556,69.472 98.956,65.572 113.656,57.172 C115.256,56.272 116.856,55.272 118.356,54.272 C118.256,53.772 118.356,38.672 112.956,25.272 Z" id="length_2_1"></path>
            </g>
            <g id="length_1" transform="translate(63.000000, 142.000000)">
                <g id="length_1_1">
                    <path d="M5.26874496,28.6516194 C4.29657579,31.0457807 3.36892433,34.5292339 2.49100322,39.0944237 C1.56970186,43.8851908 0.912277712,49.1007241 0.51901917,54.7408441 C15.7346958,64.5763184 35.8924241,69.5 61,69.5 C86.0994733,69.5 105.587928,64.2507951 119.477137,53.7689858 C118.833926,46.662972 118.177483,41.436925 117.50971,38.0980581 C116.868462,34.8918214 115.941241,31.7482967 114.727896,28.6671678 C96.8236635,36.5548009 78.9131864,40.5 61,40.5 C43.074569,40.5 24.4968259,36.5494306 5.26874496,28.6516194 Z" id="length_1-bottom" stroke="#676767" fill="#F4F4F4"></path>
                    <path d="M60.108,39.972 C81.308,39.972 100.508,35.372 114.608,27.872 C114.318441,26.9891255 113.984686,26.121364 113.608,25.272 C110.375707,16.8045287 106.601223,8.55410674 102.308,0.572 C90.008,3.372 74.908,6.672 60.108,6.772 C45.208,6.672 30.208,3.372 17.908,0.572 C13.6368673,8.5650673 9.86302942,16.8140757 6.608,25.272 C6.308,26.172 5.908,26.972 5.608,27.872 C19.708,35.372 38.908,39.972 60.108,39.972 Z" id="length_1-top" stroke="#686868" fill="#676767" fill-rule="nonzero" stroke-linecap="square"></path>
                </g>
            </g>
            <g id="length_0" transform="translate(63.000000, 142.000000)" fill="#F4F4F4" fill-rule="nonzero" stroke="#686868" stroke-linecap="square" stroke-linejoin="round">
                <path d="M113.6,26.3 C110.367733,17.832518 106.372858,8.27898793 102.108242,0.808895277 C98.0141217,1.85390063 94.9404639,2.57177679 92.8872687,2.96252374 C82.3107538,4.97535768 70.1435971,6.86842376 58.6813173,6.9458716 C43.7813173,6.8458716 30.2583991,3.60889528 17.9583991,0.808895277 C12.089486,12.1643489 8.07001961,20.6613838 5.9,26.3 C0.5,39.6 0.6,54.8 0.5,55.3 C2,56.3 3.6,57.3 5.2,58.2 C19.9,66.6 38.3,70.5 56.9,70.4 L61.9,70.4 C71.8524672,70.4535079 87.8651615,68.1283551 100.116886,64.2063622 C110.762206,60.7986079 118.379434,55.7649211 119.076815,55.3 C119,54.3515663 119,39.7 113.6,26.3 Z" id="length_0_1"></path>
            </g>
            <g id="top_core_all" transform="translate(79.000000, 20.000000)" fill-rule="nonzero">
                <path d="M0.6,71.3 C2.8,76.7 3.6,81.9 5.4,87.1 C9.7,99.6 8,111.4 1.7,123.3 C14,126.1 29.1,129.4 43.9,129.5 C58.8,129.4 73.8,126.1 86.1,123.3 C79.8,111.4 78.1,99.6 82.4,87.1 C84.2,81.9 84.9,76.6 87.2,71.3 C87.2,71.4 87.3,71.5 87.3,71.6 C67.6917012,66.5333333 53.2342938,64 43.9277778,64 C34.6212617,64 20.1786691,66.5333333 0.6,71.6 C0.5,71.5 0.6,71.4 0.6,71.3 Z" stroke="#3D3D3D" fill="#3D3D3D" stroke-linecap="square" stroke-linejoin="round"></path>
                <g id="top_neckline_0">
                    <path d="M82.804,86.6 C84.804,81.4 88,71 88,71 C88,71 86.704,51.5 83.804,42.2 C82.304,37.4 80.304,31.8 78.804,28.4 C78.804,28.4 77.204,27.1 76.404,26.4 C75.9890419,26.0850333 75.6189667,25.7149581 75.304,25.3 L74.504,24.5 L73,24.1 C69.8391183,20.8400185 73,62 44.5,62 C16,62 18.1618745,20.7571521 15,24 L14.304,24.5 L13.504,25.3 L12.404,26.4 C11.604,27.1 10.804,27.8 10.004,28.4 C8.004,32.8 6.804,37.5 5.004,42.2 C2.93733333,47.8 0.361650626,69.8618638 0.361650626,71.6930259 C0.361650626,72.9138006 1.90910042,77.882792 5.004,86.6 L82.804,86.6 Z" id="neckline_bottom_0" fill="#676767"></path>
                    <path d="M73,23 C66.6878773,16.4899798 63.995439,9.04813288 63.4,1.0658141e-14 C58.2416463,5.09258215 51.501594,8.01683763 44.4,8.3 C37.3028657,7.99737849 30.0695173,4.97603155 25,1.0658141e-14 C24,9 22,15 16,23 C19.2,49.6666667 28.7,63 44.5,63 C59.4333333,63 68.9333333,49.6666667 73,23 Z" id="neckline_top_0" stroke="#686868" fill="#F4F4F4"></path>
                </g>
            </g>
            <g id="top_core_3" transform="translate(75.000000, 20.000000)" fill-rule="nonzero">
                <path d="M4,71 C3.6917556,74.0582865 4.17580829,76.0912242 4,78 C1.4,96.7 1.5,113.3 0,134.6 C0,134.6 26.2,142.8 48,142.8 C69.6,142.8 96.5,134.6 96.5,134.6 C94.5,111.9 96.5,97.5 92.4,78.8 C92.4,78.8367172 92.7080661,75.3577851 92.4,71 C72.6111111,66.3333333 57.8944444,64 48.25,64 C38.25,64 23.5,66.3333333 4,71 Z" id="top_core_3_1" fill="#676767"></path>
                <g id="top_neckline_0" transform="translate(5.000000, 0.000000)">
                    <path d="M81.804,86.6 C83.804,81.4 87,71 87,71 C87,71 85.704,51.5 82.804,42.2 C81.304,37.4 79.304,31.8 77.804,28.4 C77.804,28.4 76.204,27.1 75.404,26.4 C74.9890419,26.0850333 74.6189667,25.7149581 74.304,25.3 L73.504,24.5 L72,24.1 C68.8391183,20.8400185 72,62 43.5,62 C15,62 17.1618745,20.7571521 14,24 L13.304,24.5 L12.504,25.3 L11.404,26.4 C10.604,27.1 9.804,27.8 9.004,28.4 C7.004,32.8 5.804,37.5 4.004,42.2 C1.93733333,47.8 0.602666667,57.7333333 0,72 L4.804,86.6 L81.804,86.6 Z" id="neckline_bottom_0" fill="#676767"></path>
                    <path d="M72,23 C65.6878773,16.4899798 62.995439,9.04813288 62.4,1.0658141e-14 C57.2416463,5.09258215 50.501594,8.01683763 43.4,8.3 C36.3028657,7.99737849 29.0695173,4.97603155 24,1.0658141e-14 C23,9 21,15 15,23 C18.2,49.6666667 27.7,63 43.5,63 C58.4333333,63 67.9333333,49.6666667 72,23 Z" id="neckline_top_0" stroke="#686868" fill="#F4F4F4"></path>
                </g>
            </g>
            <g id="top_core_2" transform="translate(75.000000, 20.000000)" fill-rule="nonzero">
                <path d="M5,71.4 C7.2,76.8 7.9,113.3 0,134.6 C0,134.6 26.2,142.8 48,142.8 C69.6,142.8 96.5,134.6 96.5,134.6 C90,113.7 89.8,76.7 92,71.4 C77.3333333,65.8 62.75,63 48.25,63 C33.75,63 19.3333333,65.8 5,71.4 Z" id="top_core_2-1" fill="#676767"></path>
                <g id="top_neckline_0" transform="translate(5.000000, 0.000000)">
                    <path d="M81.804,86.6 C83.804,81.4 87,71 87,71 C87,71 85.704,51.5 82.804,42.2 C81.304,37.4 79.304,31.8 77.804,28.4 C77.804,28.4 76.204,27.1 75.404,26.4 C74.9890419,26.0850333 74.6189667,25.7149581 74.304,25.3 L73.504,24.5 L72,24.1 C68.8391183,20.8400185 72,62 43.5,62 C15,62 17.1618745,20.7571521 14,24 L13.304,24.5 L12.504,25.3 L11.404,26.4 C10.604,27.1 9.804,27.8 9.004,28.4 C7.004,32.8 5.804,37.5 4.004,42.2 C1.93733333,47.8 0.602666667,57.7333333 0,72 L4.804,86.6 L81.804,86.6 Z" id="neckline_bottom_0" fill="#676767"></path>
                    <path d="M72,23 C65.6878773,16.4899798 62.995439,9.04813288 62.4,1.0658141e-14 C57.2416463,5.09258215 50.501594,8.01683763 43.4,8.3 C36.3028657,7.99737849 29.0695173,4.97603155 24,1.0658141e-14 C23,9 21,15 15,23 C18.2,49.6666667 27.7,63 43.5,63 C58.4333333,63 67.9333333,49.6666667 72,23 Z" id="neckline_top_0" stroke="#686868" fill="#F4F4F4"></path>
                </g>
            </g>
            <g id="top_core_1" transform="translate(75.000000, 20.000000)" fill-rule="nonzero">
                <path d="M5,71.4 C7.2,76.8 7.7,81.4 9.5,86.6 C13.8,99.1 13.1,113.6 0,134.6 C0,134.6 26.2,142.8 48,142.8 C69.6,142.8 96.5,134.6 96.5,134.6 C84.6,113.9 80.9,100.6 86.6,86.6 C88.8,81.5 90,76 91,71.4 C76.3333333,65.8 62.0833333,63 48.25,63 C34.4166667,63 20,65.8 5,71.4 Z" id="top_core_1_1" fill="#676767"></path>
                <g id="top_neckline_0" transform="translate(5.000000, 0.000000)">
                    <path d="M81.804,86.6 C83.804,81.4 87,71 87,71 C87,71 85.704,51.5 82.804,42.2 C81.304,37.4 79.304,31.8 77.804,28.4 C77.804,28.4 76.204,27.1 75.404,26.4 C74.9890419,26.0850333 74.6189667,25.7149581 74.304,25.3 L73.504,24.5 L72,24.1 C68.8391183,20.8400185 72,62 43.5,62 C15,62 17.1618745,20.7571521 14,24 L13.304,24.5 L12.504,25.3 L11.404,26.4 C10.604,27.1 9.804,27.8 9.004,28.4 C7.004,32.8 5.804,37.5 4.004,42.2 C1.93733333,47.8 0.602666667,57.7333333 0,72 L4.804,86.6 L81.804,86.6 Z" id="neckline_bottom_0" fill="#676767"></path>
                    <path d="M72,23 C65.6878773,16.4899798 62.995439,9.04813288 62.4,1.0658141e-14 C57.2416463,5.09258215 50.501594,8.01683763 43.4,8.3 C36.3028657,7.99737849 29.0695173,4.97603155 24,1.0658141e-14 C23,9 21,15 15,23 C18.2,49.6666667 27.7,63 43.5,63 C58.4333333,63 67.9333333,49.6666667 72,23 Z" id="neckline_top_0" stroke="#686868" fill="#F4F4F4"></path>
                </g>
            </g>
            <g id="top_core_0" transform="translate(80.000000, 20.000000)" fill-rule="nonzero">
                <path d="M7.10542736e-15,72 L4.804,86.6 C6.268,96.2 7,102.666667 7,106 C7,106 28.504,110.9 43.304,111 C58.204,110.9 80,106 80,106 C79,97 80,94 81.804,86.6 C83.804,81.4 87,71 87,71 C77,65.6666667 62.5,63 43.5,63 C24.5,63 10,66 7.10542736e-15,72 Z" id="top_core_0_1" fill="#676767"></path>
                <g id="top_neckline_0">
                    <path d="M81.804,86.6 C83.804,81.4 87,71 87,71 C87,71 85.704,51.5 82.804,42.2 C81.304,37.4 79.304,31.8 77.804,28.4 C77.804,28.4 76.204,27.1 75.404,26.4 C74.9890419,26.0850333 74.6189667,25.7149581 74.304,25.3 L73.504,24.5 L72,24.1 C68.8391183,20.8400185 72,62 43.5,62 C15,62 17.1618745,20.7571521 14,24 L13.304,24.5 L12.504,25.3 L11.404,26.4 C10.604,27.1 9.804,27.8 9.004,28.4 C7.004,32.8 5.804,37.5 4.004,42.2 C1.93733333,47.8 0.602666667,57.7333333 0,72 L4.804,86.6 L81.804,86.6 Z" id="neckline_bottom_0" fill="#676767"></path>
                    <path d="M72,23 C65.6878773,16.4899798 62.995439,9.04813288 62.4,1.0658141e-14 C57.2416463,5.09258215 50.501594,8.01683763 43.4,8.3 C36.3028657,7.99737849 29.0695173,4.97603155 24,1.0658141e-14 C23,9 21,15 15,23 C18.2,49.6666667 27.7,63 43.5,63 C58.4333333,63 67.9333333,49.6666667 72,23 Z" id="neckline_top_0" stroke="#686868" fill="#F4F4F4"></path>
                </g>
            </g>
            <g id="sleeves_all" transform="translate(26.000000, 49.000000)" fill="#3D3D3D" fill-rule="nonzero" stroke="#3D3D3D">
                <path d="M62.6,-6.66133815e-16 C55.7,5.2 44.9,8.8 36.5,8.8 C36.2,29.3 32.5,39.6 27.6,58.6 C25.8,68.2 23.3,78.1 18.6,87.9 C15.8,93.8 10.7,99.3 8.1,104.5 C4,112.5 1,119.8 0,124.1 C2.8,126.9 1.4,126.1 3.9,127.5 C6.4,128.9 7.3,128.9 10.8,128.1 C10.8,128.1 16.5,118.7 23.8,108.8 C32.5,97 43.4,83.8 46,75.6 C48.5,67.6 53.9,42.1 53.9,42.1 C53.9,42.1 54.4,15 62.6,-6.66133815e-16 Z M148.3,75.6 C150.9,83.8 161.7,97 170.5,108.8 C177.8,118.7 183.5,128.1 183.5,128.1 C187,129 187.9,129 190.4,127.5 C192.9,126.1 191.4,127 194.3,124.1 C193.3,119.7 190.3,112.4 186.2,104.5 C183.5,99.4 178.5,93.8 175.7,87.9 C171,78.1 168.5,68.2 166.7,58.6 C161.8,39.7 158.2,29.3 157.8,8.8 C149.4,8.8 138.6,5.2 131.7,-6.66133815e-16 C139.9,15 140.4,42.1 140.4,42.1 C140.4,42.1 145.7,67.6 148.3,75.6 Z" id="sleeves_all_1"></path>
            </g>
            <g id="sleeves_5" transform="translate(6.000000, 48.000000)" fill="#676767" fill-rule="nonzero">
                <path d="M83.7739731,0 C76.8739731,5.2 64.7,9 56.4,9 C54.8,19.9 51.6,40.5 46.7,59.4 C44.2,69 1.9,120.7 -2.27373675e-13,129.9 C2.8,132.7 14,139 16.5,140.4 C19,141.8 34.5,148.5 38,147.6 L68.4219559,73.8414185 L74,42.3 C74,42.3 75.6739731,15.6 83.7739731,0 Z M165.027442,73.8414185 L196.6,147.6 C200.1,148.5 215.5,141.8 218.1,140.4 C220.7,139 231.8,132.7 234.6,129.9 C232.8,120.7 190.4,69 187.9,59.4 C183,40.5 179.8,19.9 178.2,9 C169.8,9 157.717848,5.2 150.817848,1.42108547e-14 C158.917848,15.6 160.6,42.3 160.6,42.3 L165.027442,73.8414185 Z" id="sleeves_5_1"></path>
            </g>
            <g id="sleeves_4" transform="translate(26.000000, 49.000000)" fill="#676767" fill-rule="nonzero">
                <path d="M62.6,-6.66133815e-16 C55.7,5.2 44.9,8.8 36.5,8.8 C36.4707952,10.7956624 36.04802,12.8241902 35.9054616,14.6523261 C35.5107196,19.7144059 35.0864089,24.0656771 34.4128327,28.2598578 C32.8308577,38.1103978 30.7021493,46.5712579 27.6,58.6 C27.1315071,61.0986287 26.1875505,63.8009086 25.5977708,66.3331301 C23.9215535,73.5299759 22.076713,80.6506835 18.6,87.9 C15.8,93.8 10.7,99.3 8.1,104.5 C4.88992443,110.181317 1,119.8 0,124.1 C2.8,126.9 1.4,126.1 3.9,127.5 C6.4,128.9 7.3,128.9 10.8,128.1 C10.8,128.1 16.8147635,119.15235 24.1147635,109.25235 C28.2490759,103.644892 32.4988525,98.0046043 36.5,92.4516446 C38.4211924,89.7853335 40.4327896,87.5516441 42.0544918,84.975061 C44.1626079,81.6256565 45.7037942,78.0322469 46.4749944,75.6 C48.9749944,67.6 53.9,42.1 53.9,42.1 C53.9,42.1 54.8153404,22.1392677 60.0280923,7.02588945 C60.486921,5.69560342 60.9482097,4.34703535 61.3436296,3.1565538 C61.716572,2.03374522 62.0186875,1.06337648 62.6,-6.66133815e-16 Z M148.3,75.6 C149.566577,79.5945885 152.171467,85.2826749 156.150765,90.9104969 C160.34008,96.8353391 165.49499,103.200661 170.008114,109.25235 C177.308114,119.15235 183.5,128.1 183.5,128.1 C187,129 187.9,129 190.4,127.5 C192.9,126.1 191.4,127 194.3,124.1 C193.3,119.7 190.3,112.4 186.2,104.5 C183.5,99.4 178.5,93.8 175.7,87.9 C171,78.1 168.5,68.2 166.7,58.6 C161.8,39.7 158.2,29.3 157.8,8.8 C149.4,8.8 138.6,5.2 131.7,-6.66133815e-16 C132.99425,2.3675307 133.814969,5.98373298 134.753885,8.8 C139.763671,23.8267985 140.4,42.1 140.4,42.1 C140.4,42.1 145.7,67.6 148.3,75.6 Z" id="sleeves_4_1"></path>
            </g>
            <g id="sleeves_3" transform="translate(33.000000, 49.000000)" fill="#676767" fill-rule="nonzero">
                <path d="M55.6,0 C48.7,5.2 37.4793853,8.8 28.926788,8.8 C28.926788,21.1868716 24.957059,39.6 20.057059,58.6 C18.257059,68.2 15.7716612,78.1 11.0716612,87.9 C8.27166122,93.8 1.0361521,106.178283 0.480835784,107.8 C-0.0961269226,109.484932 0.00939894809,108.922053 4,112 C7.20271087,114.470248 10.136622,116.87619 11.9213911,116.411723 C12.8450628,115.510711 15.4504364,110.986394 17.8,107.8 C26.5,96 36.4,83.8 39,75.6 C41.5,67.6 46.9,42.1 46.9,42.1 C46.9,42.1 47.4,15 55.6,0 Z M140.643189,75.6 C143.243189,83.8 152.7,95 161.5,106.8 C163.803897,109.924463 166.527472,113.949424 166.527472,113.949424 C166.527472,113.949424 170.319752,113.023683 174.162321,110.548073 C176.575447,108.993395 178.081303,107.860646 178.960986,106.958327 C178.960986,105.355353 171.5,93.8 168.7,87.9 C164,78.1 161.5,68.2 159.7,58.6 C155.174171,39.5451598 151.565369,29.3 151.165369,8.8 C142.765369,8.8 131.6,5.2 124.7,0 C132.9,15 133.4,42.1 133.4,42.1 C133.4,42.1 138.043189,67.6 140.643189,75.6 Z" id="sleeves_3_1"></path>
            </g>
            <g id="sleeves_2" transform="translate(54.000000, 48.000000)" fill="#676767" fill-rule="nonzero">
                <path d="M34.7,0 C27.8,5.2 16.3,9.1 8,9.1 C7.48525012,25.254152 4.79433353,41.2651057 -2.27373675e-13,56.7 C2.8,59.5 8.3,62.5 12.9,62.5 C17.5,62.5 20,61.4 22.3,59.6 L25.9,42.4 C25.9,42.4 25.9,17.9 34.7,0 Z M112.5,42.4 L116.1,59.6 C118.796478,61.6387403 122.123587,62.6651887 125.5,62.5 C130,62.5 135.6,59.5 138.4,56.7 C132.3,37.2 130.4,18.4 130.4,9.1 C122,9.1 110.6,5.2 103.7,7.10542736e-15 C112.5,17.9 112.5,42.4 112.5,42.4 Z" id="sleeves_2_1"></path>
            </g>
            <g id="sleeves_1" transform="translate(61.000000, 48.000000)" fill="#676767" fill-rule="nonzero">
                <path d="M22.501,14.4 C20.901,20.8 19.801,28.7 19.801,28.7 C16.501,30 11.101,30.9 8.801,30.6 C5.701,30 -0.099,28.9 0.001,26 C0.101,19.4 0.801,12.9 1.001,9.7 C9.401,9.1 13.479853,8.28141738 27.079853,1.18141738 C26.979853,1.18141738 23.301,11.3 22.501,14.4 Z M96.6176158,0.921121188 C96.9150756,1.83667823 114.401,9.1 122.801,9.7 C123.001,12.9 123.701,19.4 123.801,26 C123.901,28.9 118.001,30 115.001,30.6 C112.801,31 107.301,30.1 104.001,28.7 C104.001,28.7 102.901,20.9 101.301,14.4 C100.401,11.3 96.320156,0.0055641513 96.6176158,0.921121188 Z" id="sleeves_1_1"></path>
            </g>
            <g id="sleeves_0" transform="translate(0.000000, 48.000000)"></g>
            <g id="shoulder_all" transform="translate(62.000000, 20.000000)" fill="#3D3D3D" fill-rule="nonzero" stroke="#3D3D3D" stroke-linecap="square" stroke-linejoin="round">
                <path d="M14.6,35.6 C10.0505678,37.1170659 5.29514545,37.9264995 0.5,38 C0.6,36.2 0.7,34.5 0.8,32.7 C1.5,22.1 6.4,14.6 18.9,11.2 C24.9,9.6 30.3,6.4 36.1,4.2 C38.4573832,3.40282937 40.6328483,2.14513858 42.5,0.5 L42.4,0.6 C41.865243,9.61379244 38.102346,18.1335594 31.8,24.6 L31.4,25 L30.6,25.8 L29.5,26.9 C27.1839094,28.9877124 24.6335438,30.7998143 21.9,32.3 C21.8,32.4 21.7,32.4 21.6,32.5 L20.4,33.1 L19.8,33.4 C19.5200303,33.5744797 19.2171192,33.7091068 18.9,33.8 C18.6148092,33.8925245 18.3451341,34.0273621 18.1,34.2 C17.7738147,34.3505519 17.440032,34.4840649 17.1,34.6 C16.8,34.7 16.6,34.8 16.3,34.9 C15.751746,35.1757589 15.1834662,35.4097564 14.6,35.6 Z M108.4,35.6 C112.949432,37.1170659 117.704855,37.9264995 122.5,38 C122.4,36.2 122.3,34.5 122.2,32.7 C121.5,22.1 116.6,14.6 104.1,11.2 C98.1,9.6 92.7,6.4 86.9,4.2 C84.5426168,3.40282937 82.3671517,2.14513858 80.5,0.5 L80.6,0.6 C81.134757,9.61379244 84.897654,18.1335594 91.2,24.6 L91.6,25 L92.4,25.8 L93.5,26.9 C95.8160906,28.9877124 98.3664562,30.7998143 101.1,32.3 C101.2,32.4 101.3,32.4 101.4,32.5 L102.6,33.1 L103.2,33.4 C103.47997,33.5744797 103.782881,33.7091068 104.1,33.8 C104.385191,33.8925245 104.654866,34.0273621 104.9,34.2 C105.226185,34.3505519 105.559968,34.4840649 105.9,34.6 C106.2,34.7 106.4,34.8 106.7,34.9 C107.240184,35.1930754 107.81007,35.4277344 108.4,35.6 Z" id="shoulder_all_1"></path>
            </g>
            <g id="shoulder_4" transform="translate(62.000000, 20.000000)" fill="#676767" fill-rule="nonzero">
                <path d="M14.1,35.1 C9.55056782,36.6170659 4.79514545,37.4264995 -2.27373675e-13,37.5 C0.1,35.7 0.2,34 0.3,32.2 C1,21.6 5.9,14.1 18.4,10.7 C24.4,9.1 29.8,5.9 35.6,3.7 C37.9573832,2.90282937 40.1328483,1.64513858 42,1.36557432e-14 L41.9,0.1 C41.365243,9.11379244 37.602346,17.6335594 31.3,24.1 L30.9,24.5 L30.1,25.3 L29,26.4 C26.6839094,28.4877124 24.1335438,30.2998143 21.4,31.8 C21.3,31.9 21.2,31.9 21.1,32 L19.9,32.6 L19.3,32.9 C19.0200303,33.0744797 18.7171192,33.2091068 18.4,33.3 C18.1148092,33.3925245 17.8451341,33.5273621 17.6,33.7 C17.2738147,33.8505519 16.940032,33.9840649 16.6,34.1 C16.3,34.2 16.1,34.3 15.8,34.4 C15.2598059,34.6930548 14.689922,34.9277129 14.1,35.1 Z M107.9,35.1 C112.449432,36.6170659 117.204855,37.4264995 122,37.5 C121.9,35.7 121.8,34 121.7,32.2 C121,21.6 116.1,14.1 103.6,10.7 C97.6,9.1 92.2,5.9 86.4,3.7 C84.0426168,2.90282937 81.8671517,1.64513858 80,1.72084569e-14 L80.1,0.1 C80.634757,9.11379244 84.397654,17.6335594 90.7,24.1 L91.1,24.5 L91.9,25.3 L93,26.4 C95.3160906,28.4877124 97.8664562,30.2998143 100.6,31.8 C100.7,31.9 100.8,31.9 100.9,32 L102.1,32.6 L102.7,32.9 C102.97997,33.0744797 103.282881,33.2091068 103.6,33.3 C103.885191,33.3925245 104.154866,33.5273621 104.4,33.7 C104.726185,33.8505519 105.059968,33.9840649 105.4,34.1 C105.7,34.2 105.9,34.3 106.2,34.4 C106.748233,34.6758039 107.316517,34.9098029 107.9,35.1 Z" id="shoulder_4_1"></path>
            </g>
            <g id="shoulder_3" transform="translate(71.000000, 25.000000)" fill="#676767" fill-rule="nonzero">
                <g id="shoulder_3_1">
                    <path d="M0,10 C0,10 1,21 2,31 C9.77970904,28.4664345 18.726401,23.3698672 24.1,17.2 C24.1,17.2 25.3,6.7 23,0 C20.1,1.3 16.2,3.5 13.2,4.5 C12.1396888,4.81185625 7.43170515,6.52711098 4,8 C1.92964261,8.8885981 0.63968876,9.73659875 0,10 Z" id="Path_44_6_"></path>
                    <path d="M90,4 C86.3658184,2.74963104 84.4237966,1.74594255 81,0 C78.7,6.7 80,18 80,18 C85.373599,24.1698672 94.220291,28.4664345 102,31 C101.916813,22.6813369 103,9.83186631 103,9 C103,8.16813369 101.672535,8.16813369 101,8 C100.406624,7.75566878 97.1429938,6.57149688 96,6 C94,5 91.1066242,4.3254777 90,4 Z" id="Path_44_5_"></path>
                </g>
            </g>
            <g id="shoulder_2" transform="translate(78.000000, 26.000000)" fill="#676767" fill-rule="nonzero">
                <g id="shoulder_2_1">
                    <path d="M0.9,5.8 C0.4,11.1 0.1,18.7 0,28.8 C6.7,26.8 11.1,22.7 16,18.1 C16,18.1 17.2,6.7 14.9,0 C12,1.3 9.4,2.9 6.3,3.8 C4.45737051,4.34536996 2.65333381,5.0135317 0.9,5.8 Z" id="Path_44_8_"></path>
                    <path d="M83.6,3.8 C80.5,2.9 77.9,1.3 75,0 C72.7,6.7 73.9,18.1 73.9,18.1 C78.8,22.7 83.1,26.8 89.9,28.8 C89.8,18.8 89.6,11.1 89,5.8 C87.2466481,5.01357604 85.4426144,4.34541542 83.6,3.8 Z" id="Path_44_7_"></path>
                </g>
            </g>
            <g id="shoulder_1" transform="translate(88.000000, 26.000000)" fill="#676767" fill-rule="nonzero">
                <g id="shoulder_1_1">
                    <path d="M-1.13686838e-13,23.2 C0.1,12.9 0.3,2.3 0.3,2.3 C0.3,2.3 1,1.9 5.1,0.1 C4.8,6 5.6,18.4 5.6,18.4 C3.8,20 2.1,21.5 -1.13686838e-13,23.2 Z" id="shoulder_left_1"></path>
                    <path d="M64.1,18.3 C64.1,18.3 64.9,5.9 64.6,0 C68.7,1.8 69.4,2.2 69.4,2.2 C69.4,2.2 69.6,12.8 69.7,23.1 C67.7464939,21.6041865 65.8769872,20.0017522 64.1,18.3 Z" id="shoulder_right_1"></path>
                </g>
            </g>
            <g id="shoulder_0" transform="translate(62.000000, 20.000000)" fill="#F4F4F4" fill-rule="nonzero" stroke="#686868" stroke-linecap="square" stroke-linejoin="round" stroke-width="0.5">
                <path d="M14.6,35.6 C10.0505678,37.1170659 5.29514545,37.9264995 0.5,38 C0.6,36.2 0.7,34.5 0.8,32.7 C1.4,22.1 6.4,14.6 18.9,11.2 C24.9,9.6 30.3,6.4 36.1,4.2 C38.4573832,3.40282937 40.6328483,2.14513858 42.5,0.5 L42.4,0.6 C41.865243,9.61379244 38.102346,18.1335594 31.8,24.6 L31.4,25 L30.6,25.8 L29.5,26.9 C27.1839263,28.9877335 24.6335581,30.7998372 21.9,32.3 C21.8,32.4 21.7,32.4 21.6,32.5 L20.4,33.1 L19.8,33.4 C19.5200303,33.5744797 19.2171192,33.7091068 18.9,33.8 C18.6148092,33.8925245 18.3451341,34.0273621 18.1,34.2 C17.7738161,34.3505552 17.4400333,34.4840683 17.1,34.6 C16.8,34.7 16.6,34.8 16.3,34.9 C15.7,35.2 15.1,35.4 14.6,35.6 Z M108.3,35.6 C112.849432,37.1170659 117.604855,37.9264995 122.4,38 C122.3,36.2 122.2,34.5 122.1,32.7 C121.4,22.1 116.5,14.6 104,11.2 C98,9.6 92.6,6.4 86.8,4.2 C84.4426168,3.40282937 82.2671517,2.14513858 80.4,0.5 L80.5,0.6 C81.034757,9.61379244 84.797654,18.1335594 91.1,24.6 L91.5,25 L92.3,25.8 L93.4,26.9 C95.7160737,28.9877335 98.2664419,30.7998372 101,32.3 C101.1,32.4 101.2,32.4 101.3,32.5 L102.5,33.1 L103.1,33.4 C103.37997,33.5744797 103.682881,33.7091068 104,33.8 C104.285191,33.8925245 104.554866,34.0273621 104.8,34.2 C105.126184,34.3505552 105.459967,34.4840683 105.8,34.6 C106.1,34.7 106.3,34.8 106.6,34.9 C107.2,35.2 107.8,35.4 108.3,35.6 Z" id="shoulder_0_1"></path>
            </g>
            <g id="top_collar_all" transform="translate(104.000000, 6.000000)" fill="#3D3D3D" fill-rule="nonzero" stroke="#3D3D3D" stroke-linecap="square" stroke-linejoin="round">
                <path d="M37.6,13.7 C36.8,12.9 32.2,6.1 33.2,0.5 C30.5,2.8 26.8,6.5 18.8,6.4 C10.8,6.3 7.7,2.7 5.1,0.5 C4.8,7.2 1.9,12.5 0.5,13.8 C5.28784847,18.9735437 12.0229136,21.9064297 19.0719338,21.8874296 C26.120954,21.8684296 32.8401106,18.8992788 37.6,13.7 Z" id="top_collar_all_1"></path>
            </g>
            <g id="top_collar_2" transform="translate(104.000000, 7.000000)" fill="#676767" fill-rule="nonzero">
                <path d="M33.7,-8.8817842e-16 C31,2.3 27.3,6 19.3,5.9 C11.3,5.8 7.6,2.2 5,-8.8817842e-16 C6,4 1.4,11.9 0,13.2 C4.78784847,18.3735437 12.5229136,21.4064297 19.5719338,21.3874296 C26.620954,21.3684296 33.3401106,18.3992788 38.1,13.2 C37.3,12.4 32.7,5.6 33.7,-8.8817842e-16 Z" id="top_collar_2_1"></path>
            </g>
            <g id="top_collar_1" transform="translate(104.000000, 14.000000)" fill="#676767" fill-rule="nonzero">
                <path d="M37.7,6.3 C36.8,5.5 34.6,1.2 33.8,0 C31,2.1 27.1,4.7 19,4.6 C13.6305498,4.68775039 8.33946076,3.30445913 3.7,0.6 C2.77688862,2.68426862 1.52793323,4.60833503 0,6.3 C10.4149235,16.7000459 27.2850765,16.7000459 37.7,6.3 Z" id="top_collar_1_1"></path>
            </g>
            <g id="top_collar_0" transform="translate(104.000000, 0.000000)" fill="#F4F4F4" fill-rule="nonzero" stroke="#686868" stroke-linecap="square" stroke-linejoin="round">
                <path d="M33.6,6.8 C29.8286701,3.04623341 24.8123195,0.804885276 19.5,0.5 C14.1828444,0.784934514 9.15969501,3.02932043 5.4,6.8 C5.5,12.2 4.2,16.8 0.5,20.1 L0.6,20.2 C5.69351865,25.12637 12.4198571,28.0090865 19.5,28.3 C26.5757973,27.9899821 33.295644,25.1100478 38.4,20.2 L38.5,20.1 C34.8,16.8 33.5,12.3 33.6,6.8 Z" id="top_collar_0_1"></path>
            </g>
            <g id="neckline_all" transform="translate(80.000000, 20.000000)" fill="#3D3D3D" fill-rule="nonzero">
                <g id="neclikne_all_1">
                    <path d="M82.804,42.2 C81.304,37.4 79.304,31.8 77.804,28.4 C77.804,28.4 76.204,27.1 75.404,26.4 C74.9890419,26.0850333 74.6189667,25.7149581 74.304,25.3 L73.504,24.5 L72,24.1 C68.8391183,20.8400185 72,62 43.5,62 C15,62 17.1618745,20.7571521 14,24 L13.304,24.5 L12.504,25.3 L11.404,26.4 C10.604,27.1 9.804,27.8 9.004,28.4 C7.004,32.8 5.804,37.5 4.004,42.2 C1.93733333,47.8 0.602666667,57.7333333 0,72 C51.1947119,72.0715611 79.9049753,72.0715611 86.1307903,72 C88.4902155,71.9728802 85.704,51.5 82.804,42.2 Z" id="neckline_bottom_all"></path>
                    <path d="M72,23 C65.6878773,16.4899798 62.995439,9.04813288 62.4,1.0658141e-14 C57.2416463,5.09258215 50.501594,8.01683763 43.4,8.3 C36.3028657,7.99737849 29.0695173,4.97603155 24,1.0658141e-14 C23,9 20.3913009,15 14.3913009,23 C16.2552567,37.3232484 18.5795886,46.689737 21.3642966,51.099466 C26.3512741,58.9966026 34.9017999,63 43.5,63 C51.8524092,63 59.5671425,59.4416303 64.5201197,51.099466 C67.1217776,46.7175646 69.6150711,37.3510759 72,23 Z" id="neckline_top_all"></path>
                </g>
            </g>
            <g id="neckline_2" transform="translate(80.000000, 20.000000)" fill="#676767" fill-rule="nonzero">
                <g id="neckline_2_!">
                    <path d="M82.804,42.2 C81.304,37.4 79.304,31.8 77.804,28.4 C77.804,28.4 76.204,27.1 75.404,26.4 C74.9890419,26.0850333 74.6189667,25.7149581 74.304,25.3 L73.504,24.5 L72,24.1 C68.8391183,20.8400185 72,62 43.5,62 C15,62 17.1618745,20.7571521 14,24 L13.304,24.5 L12.504,25.3 L11.404,26.4 C10.604,27.1 9.804,27.8 9.004,28.4 C7.004,32.8 5.804,37.5 4.004,42.2 C1.93733333,47.8 0.602666667,57.7333333 0,72 C51.1947119,72.0715611 79.9049753,72.0715611 86.1307903,72 C88.4902155,71.9728802 85.704,51.5 82.804,42.2 Z" id="neckline_bottom_2"></path>
                    <path d="M72,23 C65.6878773,16.4899798 62.995439,9.04813288 62.4,1.0658141e-14 C57.2416463,5.09258215 50.501594,8.01683763 43.4,8.3 C36.3028657,7.99737849 29.0695173,4.97603155 24,1.0658141e-14 C23,9 20.3913009,15 14.3913009,23 C16.2552567,37.3232484 18.5795886,46.689737 21.3642966,51.099466 C26.3512741,58.9966026 34.9017999,63 43.5,63 C51.8524092,63 59.5671425,59.4416303 64.5201197,51.099466 C67.1217776,46.7175646 69.6150711,37.3510759 72,23 Z" id="neckline_top_2"></path>
                </g>
            </g>
            <g id="neckline_1" transform="translate(80.000000, 20.000000)" fill-rule="nonzero">
                <g id="neckline_1_1">
                    <path d="M82.804,42.2 C81.304,37.4 79.304,31.8 77.804,28.4 C77.804,28.4 76.204,27.1 75.404,26.4 C74.9890419,26.0850333 74.6189667,25.7149581 74.304,25.3 L73.504,24.5 L72,24.1 C68.8391183,20.8400185 71.804,42.2 43.304,42.2 C14.804,42.2 17.1618745,20.7571521 14,24 L13.304,24.5 L12.504,25.3 L11.404,26.4 C10.604,27.1 9.804,27.8 9.004,28.4 C7.004,32.8 5.804,37.5 4.004,42.2 C1.93733333,47.8 0.602666667,57.7333333 0,72 C52.6206058,72.0549243 81.320115,72.0549243 86.0985275,72 C87.3086365,71.9860907 85.704,51.5 82.804,42.2 Z" id="-neckline_bottom_1" fill="#676767"></path>
                    <path d="M72,23.2 C65.8,16 63,9 62.4,1.0658141e-14 C57.2416463,5.09258215 50.501594,8.01683763 43.4,8.3 C36.3028657,7.99737849 29.0695173,4.97603155 24,1.0658141e-14 C22.5,8.2 21,15 15,23 C18.1333333,35.6666667 27.6,42 43.4,42 C58.3333333,42 67.8666667,35.7333333 72,23.2 Z" id="-neckline_top_1" stroke="#979797" fill="#F4F4F4"></path>
                </g>
            </g>
            <g id="neckline_0" transform="translate(80.000000, 20.000000)" fill-rule="nonzero">
                <g id="necline_0_1">
                    <path d="M87,71 C87,71 85.704,51.5 82.804,42.2 C81.304,37.4 79.304,31.8 77.804,28.4 C77.804,28.4 76.204,27.1 75.404,26.4 C74.9890419,26.0850333 74.6189667,25.7149581 74.304,25.3 L73.504,24.5 L72,24.1 C68.8391183,20.8400185 72,62 43.5,62 C15,62 17.1618745,20.7571521 14,24 L13.304,24.5 L12.504,25.3 L11.404,26.4 C10.604,27.1 9.804,27.8 9.004,28.4 C7.004,32.8 5.804,37.5 4.004,42.2 C1.93733333,47.8 0.602666667,57.7333333 0,72 C58,71.3333333 87,71 87,71 Z" id="neckline_bottom_0" fill="#676767"></path>
                    <path d="M72,23 C65.6878773,16.4899798 62.995439,9.04813288 62.4,1.0658141e-14 C57.2416463,5.09258215 50.501594,8.01683763 43.4,8.3 C36.3028657,7.99737849 29.0695173,4.97603155 24,1.0658141e-14 C23,9 21,15 15,23 C18.2,49.6666667 27.7,63 43.5,63 C58.4333333,63 67.9333333,49.6666667 72,23 Z" id="neckline_top_0" stroke="#686868" fill="#F4F4F4"></path>
                </g>
            </g>
        </g>
    </g>
</svg>