<?xml version="1.0" encoding="UTF-8" standalone="no"?>
<svg width="248px" height="225px" viewBox="0 0 248 225" version="1.1" xmlns="http://www.w3.org/2000/svg" xmlns:xlink="http://www.w3.org/1999/xlink">
    <!-- Generator: Sketch 50.2 (55047) - http://www.bohemiancoding.com/sketch -->
    <title>visual filter updated june 9.5</title>
    <desc>Created with Sketch.</desc>
    <defs></defs>
    <g id="BodyParts-VisualFilter-Final-Distribution" stroke="none" stroke-width="1" fill="none" fill-rule="evenodd">
        <g id="visual-filter-updated-june-9.5" transform="translate(1.000000, 0.000000)">
            <g id="full-body">
                <path d="M77.93,54.45 C77.38,54.66 76.82,54.87 76.25,55.06 C76.82,54.87 77.38,54.66 77.93,54.45 Z" id="Shape"></path>
                <path d="M123.13,28.37 L123.13,28.3 C116.060283,28.0279825 109.343167,25.1415823 104.28,20.2 C109.326942,25.1753169 116.0486,28.0886298 123.13,28.37 Z" id="Shape"></path>
                <path d="M83.19,52 L82,52.62 L83.19,52 Z" id="Shape"></path>
                <path d="M81.39,52.94 L80.39,53.38 L81.39,52.94 Z" id="Shape"></path>
                <path d="M79.65,53.74 C79.34,53.88 79.02,54.01 78.65,54.14 C79,54 79.34,53.88 79.65,53.74 Z" id="Shape"></path>
                <path d="M91.15,46.42 C88.8176093,48.4992361 86.2620174,50.3136393 83.53,51.83 C85.3468646,50.8304504 87.0911693,49.704338 88.75,48.46 C89.58,47.81 90.38,47.12 91.15,46.42 Z" id="Shape"></path>
                <path d="M93.5,44.15 L93.13,44.53 L93.5,44.15 Z" id="Shape"></path>
                <path d="M91.16,46.41 C91.55,46.07 91.92,45.72 92.29,45.41 C91.92,45.72 91.55,46.07 91.16,46.41 Z" id="Shape"></path>
                <path d="M95.36,52.88 C94.5222542,52.2051509 93.6014073,51.6405441 92.62,51.2 C93.53,51.79 94.44,52.35 95.36,52.88 Z" id="Shape"></path>
                <path d="M83.79,62.28 C85.1040178,57.5597703 86.7755153,52.9464373 88.79,48.48 C86.723862,52.9252954 85.0508099,57.5429191 83.79,62.28 Z" id="Shape"></path>
                <path d="M69,199.45 C69.5117586,207.914416 70.6009592,216.334003 72.26,224.65 L119.44,224.65 C119.78,220.9 120.21,217.15 120.55,213.4 C120.55,212.82 120.64,212.24 120.68,211.65 C102.06,211.77 83.66,207.84 69,199.45 Z" id="Shape" fill="#F4F4F4" fill-rule="nonzero"></path>
                <path d="M83.79,62.28 C85.0508099,57.5429191 86.723862,52.9252954 88.79,48.48 C87.1311693,49.724338 85.3868646,50.8504504 83.57,51.85 L83.23,52.03 L82,52.62 L81.35,52.94 L80.35,53.38 C80.09,53.5 79.83,53.63 79.56,53.74 C79.29,53.85 78.92,54.01 78.56,54.14 L77.8,54.45 C77.25,54.66 76.69,54.87 76.12,55.06 C71.576288,56.5998044 66.8172702,57.40985 62.02,57.46 C61.68,64.7 61.42,71.94 60.02,79.01 C57.02,94.33 52.53,109.32 49.29,124.48 C46.06,139.3 31.15,152.24 28.17,167.06 C27.2773246,170.447029 25.6828737,173.608675 23.49,176.34 C19.06,182.64 5.35,188.52 0.49,194.56 C0.845608045,195.083916 1.2581202,195.566857 1.72,196 C4.79,194.63 7.94,193.27 10.92,192.08 C10.07,198.72 9.14,205.45 8.37,212.35 C7.94,216.61 11.44,218.74 15.27,218.14 C18.51,217.63 22.85,215.58 24.04,213.2 C27.87,205.37 32.22,197.28 33.04,189.02 C34.4,176.24 45.56,163.64 53.31,153.16 C62.08,141.24 70.68,131.79 73.31,120.63 C75.69,110.93 77.65,101.13 79.69,91.34 C79.6949577,91.2968085 79.6949577,91.2531915 79.69,91.21 C79.69,91.21 79.69,91.21 79.69,91.21 C79.8584925,81.4344946 81.2356165,71.7173736 83.79,62.28 Z" id="Shape" stroke="#686868" fill="#F4F4F4" fill-rule="nonzero"></path>
                <path d="M79.73,91.2 C79.73,91.2 79.73,91.2 79.73,91.2 C79.9160955,81.4456838 81.2758797,71.7492469 83.78,62.32 C81.2465811,71.7433012 79.8862915,81.4433413 79.73,91.2 Z" id="Shape" stroke="#686868" fill="#F4F4F4" fill-rule="nonzero"></path>
                <path d="M88.75,48.48 C88.5,49.1 90.66,50.18 92.62,51.2 C91.32,50.35 90.03,49.44 88.76,48.45 L88.75,48.48 Z" id="Shape" stroke="#686868" fill="#F4F4F4" fill-rule="nonzero"></path>
                <polygon id="Shape" stroke="#686868" fill="#F4F4F4" fill-rule="nonzero" points="104.28 20.2 104.17 20.1 104.17 20.1"></polygon>
                <path d="M77.93,54.45 L78.69,54.14 C79.02,54.01 79.34,53.88 79.69,53.74 C80.04,53.6 80.22,53.5 80.48,53.38 L81.48,52.94 L82.13,52.62 L83.19,52 L83.53,51.82 C86.2620174,50.3036393 88.8176093,48.4892361 91.15,46.41 C91.54,46.07 91.91,45.72 92.28,45.41 C92.65,45.1 92.85,44.86 93.12,44.58 L93.49,44.2 C99.777808,37.7257026 103.532211,29.2090976 104.07,20.2 L104.16,20.12 C102.283205,21.7367765 100.114136,22.9791543 97.77,23.78 C91.98,25.99 86.53,29.14 80.57,30.78 C68.06,34.06 63.12,41.56 62.44,52.2 C62.35,53.98 62.27,55.69 62.18,57.48 C66.9426156,57.4079016 71.6653044,56.5982978 76.18,55.08 C76.82,54.87 77.38,54.66 77.93,54.45 Z" id="Shape" stroke="#686868" fill="#F4F4F4" fill-rule="nonzero"></path>
                <path d="M82,52.62 L81.35,52.94 L82,52.62 Z" id="Shape" stroke="#686868" fill="#F4F4F4" fill-rule="nonzero"></path>
                <path d="M83.53,51.83 L83.19,52.01 L83.53,51.83 Z" id="Shape" stroke="#686868" fill="#F4F4F4" fill-rule="nonzero"></path>
                <path d="M80.44,53.38 C80.18,53.5 79.92,53.63 79.65,53.74 C79.92,53.63 80.18,53.5 80.44,53.38 Z" id="Shape" stroke="#686868" fill="#F4F4F4" fill-rule="nonzero"></path>
                <path d="M78.69,54.14 L77.93,54.45 L78.69,54.14 Z" id="Shape" stroke="#686868" fill="#F4F4F4" fill-rule="nonzero"></path>
                <path d="M93.5,44.15 C99.8036141,37.6775193 103.587664,29.1660658 104.17,20.15 L104.08,20.23 C103.523425,29.2110505 99.7703751,37.6962073 93.5,44.15 Z" id="Shape" stroke="#686868" fill="#F4F4F4" fill-rule="nonzero"></path>
                <path d="M93.13,44.53 C92.86,44.81 92.58,45.09 92.29,45.36 C92.58,45.09 92.85,44.81 93.13,44.53 Z" id="Shape" stroke="#686868" fill="#F4F4F4" fill-rule="nonzero"></path>
                <path d="M168.34,54.45 C168.89,54.66 169.45,54.87 170.02,55.06 C169.45,54.87 168.89,54.66 168.34,54.45 Z" id="Shape"></path>
                <path d="M123.13,28.37 L123.13,28.3 C130.206273,28.0309879 136.930698,25.1445096 142,20.2 C136.946922,25.1782479 130.217952,28.0916384 123.13,28.37 Z" id="Shape"></path>
                <path d="M163.08,52 L164.23,52.61 L163.08,52 Z" id="Shape"></path>
                <path d="M164.88,52.94 L165.82,53.38 L164.88,52.94 Z" id="Shape"></path>
                <path d="M166.62,53.74 L167.57,54.14 L166.62,53.74 Z" id="Shape"></path>
                <path d="M155.11,46.42 C157.447707,48.4970992 160.006365,50.3112985 162.74,51.83 C160.923135,50.8304504 159.178831,49.704338 157.52,48.46 C156.69,47.81 155.89,47.12 155.11,46.42 Z" id="Shape"></path>
                <path d="M152.77,44.15 L153.14,44.53 L152.77,44.15 Z" id="Shape"></path>
                <path d="M155.11,46.41 C154.72,46.07 154.34,45.72 153.98,45.41 C154.35,45.72 154.72,46.07 155.11,46.41 Z" id="Shape"></path>
                <path d="M150.91,52.88 C151.747746,52.2051509 152.668593,51.6405441 153.65,51.2 C152.74,51.79 151.83,52.35 150.91,52.88 Z" id="Shape"></path>
                <path d="M162.48,62.28 C161.165982,57.5597703 159.494485,52.9464373 157.48,48.48 C159.541458,52.9272251 161.21436,57.5444351 162.48,62.28 Z" id="Shape"></path>
                <path d="M177.3,199.45 C176.788241,207.914416 175.699041,216.334003 174.04,224.65 L126.86,224.65 C126.52,220.9 126.09,217.15 125.75,213.4 C125.69,212.82 125.66,212.24 125.61,211.65 C144.21,211.77 162.61,207.84 177.3,199.45 Z" id="Shape" fill="#F4F4F4" fill-rule="nonzero"></path>
                <path d="M176.64,167.55 C173.39925,159.100651 169.62842,150.864277 165.35,142.89 C153.05,145.7 137.99,148.99 123.13,149.09 C108.28,148.99 93.22,145.7 80.92,142.89 C76.6489125,150.866472 72.8815394,159.102591 69.64,167.55 C64.24,180.87 64.34,196.02 64.25,196.55 C65.78,197.55 67.36,198.55 68.98,199.47 C83.67,207.86 102.07,211.79 120.66,211.67 C121.49,211.67 122.32,211.67 123.14,211.67 L125.62,211.67 C144.22,211.79 162.62,207.86 177.31,199.47 C178.93,198.54 180.51,197.58 182.03,196.55 C181.94,196 182,180.87 176.64,167.55 Z" id="Shape" stroke="#686868" fill="#F4F4F4" fill-rule="nonzero" stroke-linecap="square"></path>
                <path d="M137.25,6.81 C133.462126,3.06709266 128.445227,0.825121781 123.13,0.5 C117.811263,0.822745606 112.79042,3.0648914 109,6.81 C109.08,12.26 107.81,16.81 104.15,20.1 L104.26,20.2 C109.323167,25.1415823 116.040283,28.0279825 123.11,28.3 C130.193254,28.0358892 136.925641,25.1490531 142,20.2 L142.11,20.1 C138.44,16.77 137.16,12.26 137.25,6.81 Z" id="Shape" stroke="#686868" fill="#F4F4F4" fill-rule="nonzero"></path>
                <path d="M162.48,62.28 C161.21436,57.5444351 159.541458,52.9272251 157.48,48.48 C159.138831,49.724338 160.883135,50.8504504 162.7,51.85 L163.04,52.03 L164.19,52.64 L164.84,52.96 L165.78,53.4 C166.05,53.52 166.31,53.65 166.58,53.76 L167.53,54.16 L168.3,54.47 C168.85,54.68 169.41,54.89 169.98,55.08 C174.523505,56.6206246 179.282654,57.4306926 184.08,57.48 C184.42,64.72 184.68,71.96 186.08,79.03 C189.08,94.35 193.57,109.34 196.8,124.5 C200.04,139.32 214.94,152.26 217.92,167.08 C218.821774,170.465521 220.419049,173.626014 222.61,176.36 C227.04,182.66 240.75,188.54 245.61,194.58 C245.290826,195.075604 244.918632,195.534978 244.5,195.95 C241.44,194.58 238.29,193.22 235.3,192.03 C236.16,198.67 237.09,205.4 237.86,212.3 C238.28,216.56 234.79,218.69 230.96,218.09 C227.72,217.58 223.38,215.53 222.19,213.15 C218.36,205.32 214.01,197.23 213.19,188.97 C211.83,176.19 200.67,163.59 192.92,153.11 C184.15,141.19 175.55,131.74 172.92,120.58 C170.54,110.88 168.58,101.08 166.53,91.29 L166.53,91.16 C166.53,91.16 166.53,91.16 166.53,91.16 C166.363805,81.4041146 165.003685,71.7052817 162.48,62.28 Z" id="Shape" stroke="#686868" fill="#F4F4F4" fill-rule="nonzero"></path>
                <path d="M166.54,91.2 C166.54,91.2 166.54,91.2 166.54,91.2 C166.343918,81.446479 164.9843,71.7512293 162.49,62.32 C165.013685,71.7452817 166.373805,81.4441146 166.54,91.2 Z" id="Shape" stroke="#686868" fill="#F4F4F4" fill-rule="nonzero"></path>
                <path d="M157.52,48.48 C157.76,49.1 155.61,50.18 153.65,51.2 C154.95,50.35 156.23,49.44 157.51,48.45 L157.52,48.48 Z" id="Shape" stroke="#686868" fill="#F4F4F4" fill-rule="nonzero"></path>
                <polygon id="Shape" stroke="#686868" fill="#F4F4F4" fill-rule="nonzero" points="142 20.2 142.11 20.1 142.11 20.1"></polygon>
                <path d="M168.34,54.45 L167.57,54.14 L166.62,53.74 C166.35,53.63 166.09,53.5 165.82,53.38 L164.88,52.94 L164.23,52.62 L163.08,52 L162.74,51.82 C160.006365,50.3012985 157.447707,48.4870992 155.11,46.41 C154.72,46.07 154.35,45.72 153.98,45.41 C153.61,45.1 153.41,44.86 153.14,44.58 L152.77,44.2 C146.482192,37.7257026 142.727789,29.2090976 142.19,20.2 L142.1,20.12 C143.973898,21.7408673 146.143801,22.9837226 148.49,23.78 C154.28,25.99 159.73,29.14 165.69,30.78 C178.21,34.1 183.15,41.6 183.83,52.24 C183.92,54.02 184,55.73 184.09,57.52 C179.327384,57.4479016 174.604696,56.6382978 170.09,55.12 C169.45,54.87 168.89,54.66 168.34,54.45 Z" id="Shape" stroke="#686868" fill="#F4F4F4" fill-rule="nonzero"></path>
                <path d="M164.23,52.62 L164.88,52.94 L164.23,52.62 Z" id="Shape" stroke="#686868" fill="#F4F4F4" fill-rule="nonzero"></path>
                <path d="M162.74,51.83 L163.08,52.01 L162.74,51.83 Z" id="Shape" stroke="#686868" fill="#F4F4F4" fill-rule="nonzero"></path>
                <path d="M165.82,53.38 C166.09,53.5 166.35,53.63 166.62,53.74 C166.35,53.63 166.09,53.5 165.82,53.38 Z" id="Shape" stroke="#686868" fill="#F4F4F4" fill-rule="nonzero"></path>
                <path d="M167.57,54.14 L168.34,54.45 L167.57,54.14 Z" id="Shape" stroke="#686868" fill="#F4F4F4" fill-rule="nonzero"></path>
                <path d="M152.77,44.15 C146.462677,37.6800314 142.677986,29.1671361 142.1,20.15 L142.19,20.23 C142.746575,29.2110505 146.499625,37.6962073 152.77,44.15 Z" id="Shape" stroke="#686868" fill="#F4F4F4" fill-rule="nonzero"></path>
                <path d="M153.14,44.53 C153.41,44.81 153.69,45.09 153.98,45.36 C153.69,45.09 153.41,44.81 153.14,44.53 Z" id="Shape" stroke="#686868" fill="#F4F4F4" fill-rule="nonzero"></path>
                <path d="M166.45,90.86 C166.469758,90.9617157 166.496488,91.0619522 166.53,91.16 C166.333918,81.406479 164.9743,71.7112293 162.48,62.28 C161.067232,57.5821212 159.398063,52.9651981 157.48,48.45 C157.48,48.45 155.85,47.11 155.07,46.45 C154.68,46.11 154.3,45.76 153.94,45.45 C153.58,45.14 153.37,44.9 153.1,44.62 L152.73,44.24 C146.422677,37.7700314 142.637986,29.2571361 142.06,20.24 L141.95,20.34 C136.899442,25.3159697 130.174458,28.2291783 123.09,28.51 C116.0086,28.2286298 109.286942,25.3153169 104.24,20.34 L104.13,20.24 C103.547664,29.2560658 99.7636141,37.7675193 93.46,44.24 L93.09,44.62 C92.81,44.9 92.54,45.18 92.25,45.45 C91.96,45.72 91.51,46.16 91.12,46.45 C90.35,47.15 89.55,47.84 88.72,48.45 C88.72,48.45 88.47,49.09 88.72,48.45 C86.7055153,52.9164373 85.0340178,57.5297703 83.72,62.25 C81.2158797,71.6792469 79.8560955,81.3756838 79.67,91.13 C79.67,91.04 79.74,90.9 79.74,90.83 C81.96,96.19 82.74,101.47 84.51,106.67 C88.86,119.18 87.15,130.94 80.85,142.86 C93.15,145.67 108.21,148.96 123.06,149.06 C137.92,148.96 152.98,145.67 165.28,142.86 C158.97,130.94 157.28,119.18 161.61,106.67 C163.47,101.5 164.24,96.22 166.45,90.86 Z" id="Shape" stroke="#686868" fill="#F4F4F4" fill-rule="nonzero" stroke-linecap="square"></path>
                <path d="M152,44 C146,36 142.677986,29.2571361 142.1,20.24 C136.939442,25.3159697 130.214458,28.2291783 123.13,28.51 C116.0486,28.2286298 109.326942,25.3153169 104.28,20.34 C103,29 101,36 95,43 C97.9933333,69.3 107.37,82.45 123.13,82.45 C138.036667,82.45 147.66,69.6333333 152,44 Z" id="Shape" stroke="#686868" fill="#F4F4F4" fill-rule="nonzero" stroke-linejoin="bevel"></path>
            </g>
            <g id="length_all" transform="translate(64.000000, 142.000000)" fill="#3D3D3D" fill-rule="nonzero" stroke="#3D3D3D">
                <path d="M112.9,25.2 C109.667707,16.7325287 105.293223,8.48210674 101,0.5 C88.7,3.3 74.2,6.6 59.4,6.7 C44.5,6.6 29.5,3.3 17.2,0.5 C12.9288673,8.4930673 9.15502942,16.7420757 5.9,25.2 C0.5,38.5 0.6,53.7 0.5,54.2 C2,55.2 3.6,56.2 5.2,57.1 C19.9,65.5 38.3,69.4 56.9,69.3 L61.9,69.3 C80.5,69.4 98.9,65.5 113.6,57.1 C115.2,56.2 116.8,55.2 118.3,54.2 C118.2,53.7 118.3,38.6 112.9,25.2 Z" id="Shape"></path>
            </g>
            <g id="length_2" transform="translate(64.000000, 142.000000)" fill="#676767" fill-rule="nonzero" stroke="#686868" stroke-linecap="square">
                <path d="M112.956,25.272 C110.801138,19.6270191 106.815805,11.3936858 101,0.572 C88.7,3.372 74.256,6.672 59.456,6.772 C44.556,6.672 29.556,3.372 17.256,0.572 C12.9848673,8.5650673 9.21102942,16.8140757 5.956,25.272 C0.556,38.572 0.656,53.772 0.556,54.272 C2.056,55.272 3.656,56.272 5.256,57.172 C19.956,65.572 38.356,69.472 56.956,69.372 L61.956,69.372 C80.556,69.472 98.956,65.572 113.656,57.172 C115.256,56.272 116.856,55.272 118.356,54.272 C118.256,53.772 118.356,38.672 112.956,25.272 Z" id="shape"></path>
            </g>
            <g id="length_1" transform="translate(68.000000, 143.000000)" fill="#676767" fill-rule="nonzero" stroke="#686868" stroke-linecap="square">
                <path d="M55.108,39.972 C76.308,39.972 95.508,35.372 109.608,27.872 C109.318441,26.9891255 108.984686,26.121364 108.608,25.272 C105.375707,16.8045287 101.601223,8.55410674 97.308,0.572 C85.008,3.372 69.908,6.672 55.108,6.772 C40.208,6.672 25.208,3.372 12.908,0.572 C8.63686728,8.5650673 4.86302942,16.8140757 1.608,25.272 C1.308,26.172 0.908,26.972 0.608,27.872 C14.708,35.372 33.908,39.972 55.108,39.972 Z" id="shape"></path>
            </g>
            <g id="length_0" transform="translate(64.000000, 142.000000)" fill="#F4F4F4" fill-rule="nonzero" stroke="#686868">
                <path d="M112.9,25.2 C109.667733,16.732518 105.293247,8.5820944 101,0.6 C88.7,3.5 74.2,6.7 59.4,6.8 C44.5,6.7 29.5,3.4 17.2,0.6 C12.9288673,8.5930673 9.15502942,16.8420757 5.9,25.3 C0.5,38.6 0.6,53.8 0.5,54.3 C2,55.3 3.6,56.3 5.2,57.2 C19.9,65.6 38.3,69.5 56.9,69.4 L61.9,69.4 C80.5,69.5 98.9,65.6 113.6,57.2 C115.2,56.3 116.8,55.3 118.3,54.3 C118.2,53.7 118.3,38.6 112.9,25.2 Z" id="Shape"></path>
            </g>
            <g id="shoulder_all" transform="translate(62.000000, 20.000000)" fill="#3D3D3D" fill-rule="nonzero" stroke="#3D3D3D">
                <path d="M14.6,35.6 C10.0505678,37.1170659 5.29514545,37.9264995 0.5,38 C0.6,36.2 0.7,34.5 0.8,32.7 C1.5,22.1 6.4,14.6 18.9,11.2 C24.9,9.6 30.3,6.4 36.1,4.2 C38.4573832,3.40282937 40.6328483,2.14513858 42.5,0.5 L42.4,0.6 C41.865243,9.61379244 38.102346,18.1335594 31.8,24.6 L31.4,25 L30.6,25.8 L29.5,26.9 C27.1839094,28.9877124 24.6335438,30.7998143 21.9,32.3 C21.8,32.4 21.7,32.4 21.6,32.5 L20.4,33.1 L19.8,33.4 C19.5200303,33.5744797 19.2171192,33.7091068 18.9,33.8 C18.6148092,33.8925245 18.3451341,34.0273621 18.1,34.2 C17.7738147,34.3505519 17.440032,34.4840649 17.1,34.6 C16.8,34.7 16.6,34.8 16.3,34.9 C15.751746,35.1757589 15.1834662,35.4097564 14.6,35.6 Z M108.4,35.6 C112.949432,37.1170659 117.704855,37.9264995 122.5,38 C122.4,36.2 122.3,34.5 122.2,32.7 C121.5,22.1 116.6,14.6 104.1,11.2 C98.1,9.6 92.7,6.4 86.9,4.2 C84.5426168,3.40282937 82.3671517,2.14513858 80.5,0.5 L80.6,0.6 C81.134757,9.61379244 84.897654,18.1335594 91.2,24.6 L91.6,25 L92.4,25.8 L93.5,26.9 C95.8160906,28.9877124 98.3664562,30.7998143 101.1,32.3 C101.2,32.4 101.3,32.4 101.4,32.5 L102.6,33.1 L103.2,33.4 C103.47997,33.5744797 103.782881,33.7091068 104.1,33.8 C104.385191,33.8925245 104.654866,34.0273621 104.9,34.2 C105.226185,34.3505519 105.559968,34.4840649 105.9,34.6 C106.2,34.7 106.4,34.8 106.7,34.9 C107.240184,35.1930754 107.81007,35.4277344 108.4,35.6 Z" id="Shape"></path>
            </g>
            <g id="shoulder_4" transform="translate(62.000000, 20.000000)" fill="#676767" fill-rule="nonzero">
                <path d="M14.1,35.1 C9.55056782,36.6170659 4.79514545,37.4264995 -2.27373675e-13,37.5 C0.1,35.7 0.2,34 0.3,32.2 C1,21.6 5.9,14.1 18.4,10.7 C24.4,9.1 29.8,5.9 35.6,3.7 C37.9573832,2.90282937 40.1328483,1.64513858 42,1.36557432e-14 L41.9,0.1 C41.365243,9.11379244 37.602346,17.6335594 31.3,24.1 L30.9,24.5 L30.1,25.3 L29,26.4 C26.6839094,28.4877124 24.1335438,30.2998143 21.4,31.8 C21.3,31.9 21.2,31.9 21.1,32 L19.9,32.6 L19.3,32.9 C19.0200303,33.0744797 18.7171192,33.2091068 18.4,33.3 C18.1148092,33.3925245 17.8451341,33.5273621 17.6,33.7 C17.2738147,33.8505519 16.940032,33.9840649 16.6,34.1 C16.3,34.2 16.1,34.3 15.8,34.4 C15.2598059,34.6930548 14.689922,34.9277129 14.1,35.1 Z M107.9,35.1 C112.449432,36.6170659 117.204855,37.4264995 122,37.5 C121.9,35.7 121.8,34 121.7,32.2 C121,21.6 116.1,14.1 103.6,10.7 C97.6,9.1 92.2,5.9 86.4,3.7 C84.0426168,2.90282937 81.8671517,1.64513858 80,1.72084569e-14 L80.1,0.1 C80.634757,9.11379244 84.397654,17.6335594 90.7,24.1 L91.1,24.5 L91.9,25.3 L93,26.4 C95.3160906,28.4877124 97.8664562,30.2998143 100.6,31.8 C100.7,31.9 100.8,31.9 100.9,32 L102.1,32.6 L102.7,32.9 C102.97997,33.0744797 103.282881,33.2091068 103.6,33.3 C103.885191,33.3925245 104.154866,33.5273621 104.4,33.7 C104.726185,33.8505519 105.059968,33.9840649 105.4,34.1 C105.7,34.2 105.9,34.3 106.2,34.4 C106.748233,34.6758039 107.316517,34.9098029 107.9,35.1 Z"></path>
            </g>
            <g id="shoulder_3" transform="translate(70.000000, 23.000000)" fill="#676767" fill-rule="nonzero">
                <g id="Group_6" transform="translate(0.802000, 0.783000)">
                    <g id="Group_5">
                        <g id="Group_160_6_" transform="translate(0.998000, 0.717000)">
                            <path d="M0.2,9.5 C0.2,8.5 1.2,21.5 2.2,31.5 C9.97970904,28.9664345 17.826401,23.6698672 23.2,17.5 C23.2,17.5 24.2,7.5 22.2,0.5 C19.3,1.8 16.2,3.5 13.2,4.5 C11.2,5.5 7.2,6.5 4.2,7.5 C2.08619309,8.2046023 2.08619309,8.5 0.2,9.5 Z" id="Path_44_6_"></path>
                        </g>
                    </g>
                </g>
                <g id="Group_8" transform="translate(79.802000, 1.783000)">
                    <g id="Group_7">
                        <g id="Group_160_5_" transform="translate(0.998000, 0.717000)">
                            <path d="M11.2,3.5 C7.56581838,2.24963104 3.2,0.5 2.2,0.5 C-0.1,7.2 1.2,17.5 1.2,17.5 C6.57359899,23.6698672 15.420291,27.9664345 23.2,30.5 C23.1168134,22.1813369 24.2,10.3318663 24.2,9.5 C24.2,8.66813369 23.2,8.5 22.2,7.5 C21.6701208,7.5 19.5774559,6.5 19.5774559,6.63677638 C19.5774559,6.77355276 17.7373452,5.76867259 17.2,5.5 C16.2,5.5 12.3066242,3.8254777 11.2,3.5 Z" id="Path_44_5_"></path>
                        </g>
                    </g>
                </g>
            </g>
            <g id="shoulder_2" transform="translate(76.000000, 24.000000)" fill="#676767" fill-rule="nonzero">
                <g id="Group_2" transform="translate(0.302000, 0.083000)">
                    <g id="Group_160_8_" transform="translate(0.998000, 0.717000)">
                        <path d="M1.6,6 C1.1,11.3 0.8,18.9 0.7,29 C7.4,27 11.8,22.9 16.7,18.3 C16.7,18.3 17.9,6.9 15.6,0.2 C12.7,1.5 10.1,3.1 7,4 C5.15737051,4.54536996 3.35333381,5.2135317 1.6,6 Z" id="Path_44_8_"></path>
                    </g>
                </g>
                <g id="Group_3" transform="translate(74.302000, 0.083000)">
                    <g id="Group_160_7_" transform="translate(0.998000, 0.717000)">
                        <path d="M10.3,4 C7.2,3.1 4.6,1.5 1.7,0.2 C-0.6,6.9 0.6,18.3 0.6,18.3 C5.5,22.9 9.8,27 16.6,29 C16.5,19 16.3,11.3 15.7,6 C13.9466481,5.21357604 12.1426144,4.54541542 10.3,4 Z" id="Path_44_7_"></path>
                    </g>
                </g>
            </g>
            <g id="shoulder_1" transform="translate(87.000000, 23.000000)" fill="#676767" fill-rule="nonzero">
                <g id="Group_159_4_" transform="translate(0.600000, 1.200000)">
                    <path d="M0.4,24 C0.5,13.7 0.7,3.1 0.7,3.1 C0.7,3.1 1.4,2.7 5.5,0.9 C5.2,6.8 6,19.2 6,19.2 C4.2,20.8 2.5,22.3 0.4,24 Z" id="Path_69_4_"></path>
                </g>
                <g id="Group_159_3_" transform="translate(64.600000, 1.200000)">
                    <path d="M0.5,19.1 C0.5,19.1 1.3,6.7 1,0.8 C5.1,2.6 5.8,3 5.8,3 C5.8,3 6,13.6 6.1,23.9 C4.14649391,22.4041865 2.27698724,20.8017522 0.5,19.1 Z" id="Path_69_3_"></path>
                </g>
            </g>
            <g id="shoulder_0" transform="translate(62.000000, 19.000000)" fill="#F4F4F4" fill-rule="nonzero" stroke="#686868" stroke-width="0.5">
                <path d="M14.6,35.6 C10.0505678,37.1170659 5.29514545,37.9264995 0.5,38 C0.6,36.2 0.7,34.5 0.8,32.7 C1.4,22.1 6.4,14.6 18.9,11.2 C24.9,9.6 30.3,6.4 36.1,4.2 C38.4573832,3.40282937 40.6328483,2.14513858 42.5,0.5 L42.4,0.6 C41.865243,9.61379244 38.102346,18.1335594 31.8,24.6 L31.4,25 L30.6,25.8 L29.5,26.9 C27.1839263,28.9877335 24.6335581,30.7998372 21.9,32.3 C21.8,32.4 21.7,32.4 21.6,32.5 L20.4,33.1 L19.8,33.4 C19.5200303,33.5744797 19.2171192,33.7091068 18.9,33.8 C18.6148092,33.8925245 18.3451341,34.0273621 18.1,34.2 C17.7738161,34.3505552 17.4400333,34.4840683 17.1,34.6 C16.8,34.7 16.6,34.8 16.3,34.9 C15.7,35.2 15.1,35.4 14.6,35.6 Z M108.3,35.6 C112.849432,37.1170659 117.604855,37.9264995 122.4,38 C122.3,36.2 122.2,34.5 122.1,32.7 C121.4,22.1 116.5,14.6 104,11.2 C98,9.6 92.6,6.4 86.8,4.2 C84.4426168,3.40282937 82.2671517,2.14513858 80.4,0.5 L80.5,0.6 C81.034757,9.61379244 84.797654,18.1335594 91.1,24.6 L91.5,25 L92.3,25.8 L93.4,26.9 C95.7160737,28.9877335 98.2664419,30.7998372 101,32.3 C101.1,32.4 101.2,32.4 101.3,32.5 L102.5,33.1 L103.1,33.4 C103.37997,33.5744797 103.682881,33.7091068 104,33.8 C104.285191,33.8925245 104.554866,34.0273621 104.8,34.2 C105.126184,34.3505552 105.459967,34.4840683 105.8,34.6 C106.1,34.7 106.3,34.8 106.6,34.9 C107.2,35.2 107.8,35.4 108.3,35.6 Z" id="Shape"></path>
            </g>
            <g id="sleeves_all" transform="translate(26.000000, 48.000000)" fill="#3D3D3D" fill-rule="nonzero" stroke="#3D3D3D">
                <path d="M62.6,0 C55.7,5.2 44.9,8.8 36.5,8.8 C36.2,29.3 32.5,39.6 27.6,58.6 C25.8,68.2 23.3,78.1 18.6,87.9 C15.8,93.8 10.7,99.3 8.1,104.5 C4,112.5 1,119.8 0,124.1 C2.8,126.9 1.4,126.1 3.9,127.5 C6.4,128.9 7.3,128.9 10.8,128.1 C10.8,128.1 16.5,118.7 23.8,108.8 C32.5,97 43.4,83.8 46,75.6 C48.5,67.6 53.9,42.1 53.9,42.1 C53.9,42.1 54.4,15 62.6,0 Z M148.3,75.6 C150.9,83.8 161.7,97 170.5,108.8 C177.8,118.7 183.5,128.1 183.5,128.1 C187,129 187.9,129 190.4,127.5 C192.9,126.1 191.4,127 194.3,124.1 C193.3,119.7 190.3,112.4 186.2,104.5 C183.5,99.4 178.5,93.8 175.7,87.9 C171,78.1 168.5,68.2 166.7,58.6 C161.8,39.7 158.2,29.3 157.8,8.8 C149.4,8.8 138.6,5.2 131.7,0 C139.9,15 140.4,42.1 140.4,42.1 C140.4,42.1 145.7,67.6 148.3,75.6 Z" id="shape"></path>
            </g>
            <g id="sleeves_5" transform="translate(6.000000, 48.000000)" fill="#676767" fill-rule="nonzero">
                <path d="M82.8,0 C75.9,5.2 64.7,9 56.4,9 C54.8,19.9 51.6,40.5 46.7,59.4 C44.2,69 1.9,120.7 -2.27373675e-13,129.9 C2.8,132.7 14,139 16.5,140.4 C19,141.8 34.5,148.5 38,147.6 L67.2,73.1 L74,42.3 C74,42.3 74.7,15.6 82.8,0 Z M167,73.8414185 L196.6,147.6 C200.1,148.5 215.5,141.8 218.1,140.4 C220.7,139 231.8,132.7 234.6,129.9 C232.8,120.7 190.4,69 187.9,59.4 C183,40.5 179.8,19.9 178.2,9 C169.8,9 158.7,5.2 151.8,1.42108547e-14 C159.9,15.6 160.6,42.3 160.6,42.3 L167,73.8414185 Z" id="shape"></path>
            </g>
            <g id="sleeves_4" transform="translate(26.000000, 49.000000)" fill="#676767" fill-rule="nonzero">
                <path d="M62.6,0 C55.7,5.2 44.4,8.8 36,8.8 C35.8561171,18.6319994 34.4653468,26.7754261 33,34 C31.4100568,41.8388694 30.1499123,48.7125848 27.6,58.6 C27.0544989,61.5093394 25.7158318,65.0466882 25,68 C23.3537886,74.7917847 21.8756359,81.0699507 18.6,87.9 C17.6992921,89.7979203 16.2169322,91.1815341 15,93 C12.4338966,96.8345369 9.86362834,100.972743 8.1,104.5 C4,112.5 1,119.8 0,124.1 C2.8,126.9 1.4,126.1 3.9,127.5 C6.4,128.9 7.3,128.9 10.8,128.1 C10.8,128.1 16.5,118.7 23.8,108.8 C32.5,97 43.4,83.8 46,75.6 C48.5,67.6 53.9,42.1 53.9,42.1 C53.9,42.1 54.4,15 62.6,0 Z M148.3,75.6 C150.9,83.8 161.7,97 170.5,108.8 C177.8,118.7 183.5,128.1 183.5,128.1 C187,129 187.9,129 190.4,127.5 C192.9,126.1 191.4,127 194.3,124.1 C193.3,119.7 190.3,112.4 186.2,104.5 C183.5,99.4 178.5,93.8 175.7,87.9 C171,78.1 168.5,68.2 166.7,58.6 C161.8,39.7 158.2,29.3 157.8,8.8 C149.4,8.8 138.6,5.2 131.7,0 C139.9,15 140.4,42.1 140.4,42.1 C140.4,42.1 145.7,67.6 148.3,75.6 Z" id="shape"></path>
            </g>
            <g id="sleeves_3" transform="translate(33.000000, 48.000000)" fill="#676767" fill-rule="nonzero">
                <path d="M55.6,0 C48.7,5.2 37.4,8.8 29,8.8 C28.7,29.3 25.5,39.6 20.6,58.6 C18.8,68.2 16.3,78.1 11.6,87.9 C8.8,93.8 5.7,95.3 3.1,100.5 C1.23267956,104.143552 -2.83148337,105.959583 5,112 C8.68538597,114.842535 11.6,116 13,115 C14,114 15.6954421,110.654126 17.8,107.8 C22.5578097,101.346879 27.914634,94.9727373 32,89 C35.385022,84.051154 37.8218741,79.3156277 39,75.6 C41.5,67.6 46.9,42.1 46.9,42.1 C46.9,42.1 47.4,15 55.6,0 Z M141.3,75.6 C141.866605,77.3869843 142.727655,79.3164425 143.818985,81.3635356 C147.735479,88.710013 154.617739,97.5715141 161.5,106.8 C163.400134,109.376894 164.262974,112.075494 166,113 C168.120919,114.128827 171.159391,112.995535 174.162321,110.548073 C179.624642,106.096146 179.729746,106.332925 178,103 C175.3,97.9 171.5,93.8 168.7,87.9 C164,78.1 161.5,68.2 159.7,58.6 C154.8,39.7 151.2,29.3 150.8,8.8 C142.4,8.8 131.6,5.2 124.7,0 C132.9,15 133.4,42.1 133.4,42.1 C133.4,42.1 138.7,67.6 141.3,75.6 Z" id="shape"></path>
            </g>
            <g id="sleeves_2" transform="translate(54.000000, 48.000000)" fill="#676767" fill-rule="nonzero">
                <path d="M34.7,0 C27.8,5.2 16.3,9.1 8,9.1 C7.48525012,25.254152 4.79433353,41.2651057 -2.27373675e-13,56.7 C2.8,59.5 8.3,62.5 12.9,62.5 C17.5,62.5 20,61.4 22.3,59.6 L25.9,42.4 C25.9,42.4 25.9,17.9 34.7,0 Z M112.5,42.4 L116.1,59.6 C118.796478,61.6387403 122.123587,62.6651887 125.5,62.5 C130,62.5 135.6,59.5 138.4,56.7 C132.3,37.2 130.4,18.4 130.4,9.1 C122,9.1 110.6,5.2 103.7,7.10542736e-15 C112.5,17.9 112.5,42.4 112.5,42.4 Z" id="shape"></path>
            </g>
            <g id="sleeves_1" transform="translate(61.000000, 49.000000)" fill="#676767" fill-rule="nonzero">
                <path d="M22.501,12.4 C20.901,18.8 19.801,26.7 19.801,26.7 C16.501,28 11.101,28.9 8.801,28.6 C5.701,28 -0.099,26.9 0.001,24 C0.101,17.4 0.801,10.9 1.001,7.7 C9.401,7.1 13.4,7.1 27,-5.10702591e-15 C26.9,-1.35669396e-16 23.301,9.3 22.501,12.4 Z M97.201,2.22044605e-16 C110.801,7.1 114.401,7.1 122.801,7.7 C123.001,10.9 123.701,17.4 123.801,24 C123.901,26.9 118.001,28 115.001,28.6 C112.801,29 107.301,28.1 104.001,26.7 C104.001,26.7 102.901,18.9 101.301,12.4 C100.401,9.3 97.201,2.22044605e-16 97.201,2.22044605e-16 Z" id="shape"></path>
            </g>
            <g id="sleeves_0" transform="translate(0.000000, 48.000000)" fill="#F4F4F4" fill-rule="nonzero" stroke="#686868" stroke-width="0.5">
                <path d="M79.5,43.3 C77.5,53.2 75.5,63 73.1,72.7 C70.5,83.9 61.9,93.3 53.1,105.2 C45.4,115.7 34.2,128.3 32.9,141.1 C32,149.4 27.7,157.5 23.9,165.3 C22.7,167.7 18.4,169.7 15.1,170.2 C11.3,170.8 7.8,168.7 8.2,164.4 C9,157.5 9.9,150.8 10.8,144.1 C7.8,145.3 4.7,146.7 1.6,148 C1.17940621,147.578346 0.810173485,147.108413 0.5,146.6 C5.4,140.6 19.1,134.7 23.5,128.4 C25.7075978,125.667827 27.3096218,122.497865 28.2,119.1 C31.2,104.3 46.1,91.3 49.3,76.5 C52.4,61.5 56.9,46.5 59.9,31.2 C61.3,24.1 61.5,16.9 61.9,9.7 C66.6980734,9.6588454 71.4585061,8.84855899 76,7.3 L76.1,7.3 C76.7,7.1 77.2,6.9 77.8,6.7 C78.1,6.6 78.3,6.5 78.6,6.4 C78.9261832,6.24944319 79.2599661,6.11593 79.6,6 C79.8851908,5.90747547 80.1548659,5.77263788 80.4,5.6 C80.6094418,5.35565516 80.8885863,5.1811898 81.2,5.1 L81.8,4.8 L83,4.2 C83.1,4.1 83.2,4.1 83.3,4 C85.1287047,3.01969755 86.8686051,1.88207034 88.5,0.6 C86.4455251,5.05009913 84.7728432,9.66670098 83.5,14.4 C81.0172599,23.839012 79.6743566,33.5414885 79.5,43.3 Z M166.3,43.3 C168.3,53.2 170.3,63 172.7,72.7 C175.3,83.9 183.9,93.3 192.7,105.2 C200.5,115.7 211.6,128.3 213,141.1 C213.9,149.4 218.2,157.5 222,165.3 C223.2,167.7 227.5,169.7 230.8,170.2 C234.6,170.8 238.1,168.7 237.7,164.4 C236.9,157.5 236,150.8 235.1,144.1 C238.1,145.3 241.2,146.7 244.3,148 C244.720594,147.578346 245.089827,147.108413 245.4,146.6 C240.5,140.6 226.8,134.7 222.4,128.4 C220.192402,125.667827 218.590378,122.497865 217.7,119.1 C214.7,104.3 199.8,91.3 196.6,76.5 C193.4,61.3 188.9,46.4 185.9,31 C184.5,23.9 184.3,16.7 183.9,9.5 C179.101927,9.4588454 174.341494,8.64855899 169.8,7.1 L169.7,7.1 C169.1,6.9 168.6,6.7 168,6.5 C167.7,6.4 167.5,6.3 167.2,6.2 C166.873816,6.04944484 166.540033,5.91593169 166.2,5.8 C165.914809,5.70747547 165.645134,5.57263788 165.4,5.4 C165.1,5.3 164.8,5.1 164.5,5 L163.9,4.7 L162.7,4.1 C162.6,4 162.5,4 162.4,3.9 C160.571295,2.91969755 158.831395,1.78207034 157.2,0.5 C159.254475,4.95009913 160.927157,9.56670098 162.2,14.3 C164.759185,23.7602249 166.136343,33.501097 166.3,43.3 Z" id="shape"></path>
            </g>
            <g id="top_collar_all" transform="translate(104.000000, 7.000000)" fill="#3D3D3D" fill-rule="nonzero" stroke="#3D3D3D">
                <path d="M37.6,13.7 C36.8,12.9 32.2,6.1 33.2,0.5 C30.5,2.8 26.8,6.5 18.8,6.4 C10.8,6.3 7.7,2.7 5.1,0.5 C4.8,7.2 1.9,12.5 0.5,13.8 C5.28784847,18.9735437 12.0229136,21.9064297 19.0719338,21.8874296 C26.120954,21.8684296 32.8401106,18.8992788 37.6,13.7 Z" id="Shape"></path>
            </g>
            <g id="top_collar_2" transform="translate(104.000000, 7.000000)" fill="#676767" fill-rule="nonzero">
                <path d="M33.7,-1.77635684e-15 C31,2.3 27.3,6 19.3,5.9 C11.3,5.8 7.6,2.2 5,-1.77635684e-15 C6,4 1.4,11.9 0,13.2 C4.78784847,18.3735437 12.5229136,21.4064297 19.5719338,21.3874296 C26.620954,21.3684296 33.3401106,18.3992788 38.1,13.2 C37.3,12.4 32.7,5.6 33.7,-1.77635684e-15 Z" id="Shape"></path>
            </g>
            <g id="top_collar_1" transform="translate(104.000000, 14.000000)" fill="#676767" fill-rule="nonzero">
                <path d="M37.7,6.3 C36.8,5.5 34.6,1.2 33.8,0 C31,2.1 27.1,4.7 19,4.6 C13.6305498,4.68775039 8.33946076,3.30445913 3.7,0.6 C2.77688862,2.68426862 1.52793323,4.60833503 0,6.3 C10.4149235,16.7000459 27.2850765,16.7000459 37.7,6.3 Z"></path>
            </g>
            <g id="top_collar_0" transform="translate(104.000000, 0.000000)" fill="#F4F4F4" fill-rule="nonzero" stroke="#686868">
                <path d="M33.25,6.81 C29.462126,3.06709266 24.445227,0.825121781 19.13,0.5 C13.811263,0.822745606 8.79042,3.0648914 5,6.81 C5.08,12.26 3.81,16.81 0.15,20.1 L0.26,20.2 C5.323167,25.1415823 12.040283,28.0279825 19.11,28.3 C26.193254,28.0358892 32.925641,25.1490531 38,20.2 L38.11,20.1 C34.44,16.77 33.16,12.26 33.25,6.81 Z" id="Shape"></path>
            </g>
            <g id="top_core_all" transform="translate(80.000000, 83.000000)" fill="#3D3D3D" fill-rule="nonzero" stroke="#3D3D3D">
                <path d="M4.4,23.1 C8.7,35.6 7.3,47.4 1,59.3 C13.3,62.1 28.1,65.4 42.9,65.5 C57.8,65.4 72.7,62.1 85,59.3 C78.7,47.4 77.1,35.6 81.4,23.1 C83.2,17.9 84,14 86,8 C74.8,4.7 64.5644572,0 42.9,0 C21.2355428,0 7.4,5.4 0,8 C2,13.7 2.6,17.9 4.4,23.1 Z" id="Shape"></path>
            </g>
            <g id="top_core_3" transform="translate(75.000000, 83.000000)" fill="#676767" fill-rule="nonzero">
                <path d="M4,7 C3.6917556,10.0582865 4.17580829,12.0912242 4,14 C1.4,32.7 1.5,49.3 0,70.6 C0,70.6 26.2,78.8 48,78.8 C69.6,78.8 96.5,70.6 96.5,70.6 C94.5,47.9 96.5,33.5 92.4,14.8 C92.4,14.8367172 92.7080661,11.3577851 92.4,7 C72.6111111,2.33333333 57.8944444,0 48.25,0 C38.25,0 23.5,2.33333333 4,7 Z" id="top_core_4"></path>
            </g>
            <g id="top_core_2" transform="translate(75.000000, 83.000000)" fill="#676767" fill-rule="nonzero">
                <path d="M5,8.4 C7.2,13.8 7.9,50.3 0,71.6 C0,71.6 26.2,79.8 48,79.8 C69.6,79.8 96.5,71.6 96.5,71.6 C90,50.7 89.8,13.7 92,8.4 C77.3333333,2.8 62.75,0 48.25,0 C33.75,1.468434e-15 19.3333333,2.8 5,8.4 Z" id="top_core_3"></path>
            </g>
            <g id="top_core_1" transform="translate(75.000000, 83.000000)" fill="#676767" fill-rule="nonzero">
                <path d="M5,8.4 C7.2,13.8 7.7,18.4 9.5,23.6 C13.8,36.1 13.1,50.6 0,71.6 C0,71.6 26.2,79.8 48,79.8 C69.6,79.8 96.5,71.6 96.5,71.6 C84.6,50.9 80.9,37.6 86.6,23.6 C88.8,18.5 90,13 91,8.4 C76.3333333,2.8 62.0833333,0 48.25,0 C34.4166667,1.40091979e-15 20,2.8 5,8.4 Z" id="top_core_2"></path>
            </g>
            <g id="top_core_0" transform="translate(80.000000, 83.000000)" fill="#676767" fill-rule="nonzero">
                <path d="M7.10542736e-15,8 L4.804,23.6 C6.268,33.2 7,39.6666667 7,43 C7,43 28.504,47.9 43.304,48 C58.204,47.9 80,43 80,43 C79,34 80,31 81.804,23.6 C83.804,18.4 87,8 87,8 C77,2.66666667 62.5,0 43.5,0 C24.5,1.28376768e-15 10,2 7.10542736e-15,8 Z" id="Shape"></path>
            </g>
            <g id="neckline_all" transform="translate(80.000000, 20.000000)" fill="#3D3D3D" fill-rule="nonzero">
                <path d="M81.804,86.6 C83.804,81.4 87,71 87,71 C87,71 85.704,51.5 82.804,42.2 C81.304,37.4 79.304,31.8 77.804,28.4 C77.804,28.4 76.204,27.1 75.404,26.4 C74.9890419,26.0850333 74.6189667,25.7149581 74.304,25.3 L73.504,24.5 C70.5013333,21.5 68,18 66,14 C64,10 62.6666667,5.66666667 62,1 C61.4022057,0.383463672 60.4541528,2.27292358 59,3 C57.1247833,3.93760833 54.6230729,5.55855863 50,7 C48.1662668,7.57174503 47,8 43.304,8 C40.8492627,8 38,8 35,7 C32,6 32.671679,6.33583948 32,6 C30,5 27.6293831,3.62938309 27,3 C26,2 25.0270466,-0.0533485797 24,1 C23.133729,7.17576994 22.133729,11.5091033 21,14 C19.7568401,16.7313255 17.1915068,20.2313255 13.304,24.5 L12.504,25.3 L11.404,26.4 C10.604,27.1 9.804,27.8 9.004,28.4 C7.004,32.8 5.804,37.5 4.004,42.2 C1.93733333,47.8 0.602666667,57.7333333 7.10542736e-15,72 L4.804,86.6 L81.804,86.6 Z" id="top_core_0"></path>
            </g>
            <g id="neckline_2" transform="translate(80.000000, 20.000000)" fill="#676767" fill-rule="nonzero">
                <path d="M81.804,86.6 C83.804,81.4 87,71 87,71 C87,71 85.704,51.5 82.804,42.2 C81.304,37.4 79.304,31.8 77.804,28.4 C77.804,28.4 76.204,27.1 75.404,26.4 C74.9890419,26.0850333 74.6189667,25.7149581 74.304,25.3 L73.504,24.5 C70.5013333,21.5 68,18 66,14 C64,10 62.6666667,5.66666667 62,1 C61.4022057,0.383463672 60.4541528,2.27292358 59,3 C57.1247833,3.93760833 54.6230729,5.55855863 50,7 C48.1662668,7.57174503 47,8 43.304,8 C40.8492627,8 38,8 35,7 C32,6 32.671679,6.33583948 32,6 C30,5 27.6293831,3.62938309 27,3 C26,2 25.0270466,-0.0533485797 24,1 C23.133729,7.17576994 22.133729,11.5091033 21,14 C19.7568401,16.7313255 17.1915068,20.2313255 13.304,24.5 L12.504,25.3 L11.404,26.4 C10.604,27.1 9.804,27.8 9.004,28.4 C7.004,32.8 5.804,37.5 4.004,42.2 C1.93733333,47.8 0.602666667,57.7333333 7.10542736e-15,72 L4.804,86.6 L81.804,86.6 Z" id="top_core_0"></path>
            </g>
            <g id="neckline_1" transform="translate(80.000000, 20.000000)" fill-rule="nonzero">
                <path d="M81.804,86.6 C83.804,81.4 87,71 87,71 C87,71 85.704,51.5 82.804,42.2 C81.304,37.4 79.304,31.8 77.804,28.4 C77.804,28.4 76.204,27.1 75.404,26.4 C74.9890419,26.0850333 74.6189667,25.7149581 74.304,25.3 L73.504,24.5 L72,24.1 C68.8391183,20.8400185 71.804,42.2 43.304,42.2 C14.804,42.2 17.1618745,20.7571521 14,24 L13.304,24.5 L12.504,25.3 L11.404,26.4 C10.604,27.1 9.804,27.8 9.004,28.4 C7.004,32.8 5.804,37.5 4.004,42.2 C1.93733333,47.8 0.602666667,57.7333333 0,72 L4.804,86.6 L81.804,86.6 Z" id="-neckline_bottom_1" fill="#676767"></path>
                <path d="M72,23.2 C65.8,16 63,9 62.4,1.0658141e-14 C57.2416463,5.09258215 50.501594,8.01683763 43.4,8.3 C36.3028657,7.99737849 29.0695173,4.97603155 24,1.0658141e-14 C22.5,8.2 21,15 15,23 C18.1333333,35.6666667 27.6,42 43.4,42 C58.3333333,42 67.8666667,35.7333333 72,23.2 Z" id="-neckline_top_1" fill="#F4F4F4"></path>
            </g>
            <g id="neckline_0" transform="translate(80.000000, 20.000000)" fill-rule="nonzero">
                <path d="M81.804,86.6 C83.804,81.4 87,71 87,71 C87,71 85.704,51.5 82.804,42.2 C81.304,37.4 79.304,31.8 77.804,28.4 C77.804,28.4 76.204,27.1 75.404,26.4 C74.9890419,26.0850333 74.6189667,25.7149581 74.304,25.3 L73.504,24.5 L72,24.1 C68.8391183,20.8400185 72,62 43.5,62 C15,62 17.1618745,20.7571521 14,24 L13.304,24.5 L12.504,25.3 L11.404,26.4 C10.604,27.1 9.804,27.8 9.004,28.4 C7.004,32.8 5.804,37.5 4.004,42.2 C1.93733333,47.8 0.602666667,57.7333333 0,72 L4.804,86.6 L81.804,86.6 Z" id="neckline_bottom_0" fill="#676767"></path>
                <path d="M72,23 C65.6878773,16.4899798 62.995439,9.04813288 62.4,1.0658141e-14 C57.2416463,5.09258215 50.501594,8.01683763 43.4,8.3 C36.3028657,7.99737849 29.0695173,4.97603155 24,1.0658141e-14 C23,9 21,15 15,23 C18.2,49.6666667 27.7,63 43.5,63 C58.4333333,63 67.9333333,49.6666667 72,23 Z" id="neckline_top_0" stroke="#686868" fill="#F4F4F4"></path>
            </g>
        </g>
    </g>
</svg>