<?xml version="1.0" encoding="UTF-8"?>
<svg width="248px" height="227px" viewBox="0 0 248 227" version="1.1" xmlns="http://www.w3.org/2000/svg" xmlns:xlink="http://www.w3.org/1999/xlink">
    <!-- Generator: Sketch 51.1 (57501) - http://www.bohemiancoding.com/sketch -->
    <title>visual filter updated Aug 10.0</title>
    <desc>Created with Sketch.</desc>
    <defs>
        <path d="M72.6,120.2 C70,131.4 61.4,140.8 52.6,152.7 C44.9,163.2 33.7,175.8 32.4,188.6 C31.5,196.9 27.2,205 23.4,212.8 C22.2,215.2 17.9,217.2 14.6,217.7 C10.8,218.3 7.3,216.2 7.7,211.9 C8.5,205 9.4,198.3 10.3,191.6 C7.3,192.8 4.2,194.2 1.1,195.5 C0.679406206,195.078346 0.310173485,194.608413 0,194.1 C4.9,188.1 18.6,182.2 23,175.9 C25.2075978,173.167827 26.8096218,169.997865 27.7,166.6 C30.7,151.8 45.6,138.8 48.8,124 C51.9,109 56.4,94 59.4,78.7 C60.8,71.6 61,64.4 61.4,57.2 C66.1980734,57.1588454 70.9585061,56.348559 75.5,54.8 C76.2,54.6 76.7,54.4 77.3,54.2 C77.6,54.1 77.8,54 78.1,53.9 C78.4261832,53.7494432 78.7599661,53.61593 79.1,53.5 C79.3851908,53.4074755 79.6548659,53.2726379 79.9,53.1 C80.1094418,52.8556552 80.3885863,52.6811898 80.7,52.6 L81.3,52.3 L82.5,51.7 C82.6,51.6 82.7,51.6 82.8,51.5 C84.6287047,50.5196976 86.3686051,49.3820703 88,48.1 C85.9455251,52.5500991 84.2728432,57.166701 83,61.9 C80.5172599,71.339012 79.1743566,81.0414885 79,90.8 C77,100.7 75,110.5 72.6,120.2 Z M172.2,120.2 C174.8,131.4 183.4,140.8 192.2,152.7 C200,163.2 211.1,175.8 212.5,188.6 C213.4,196.9 217.7,205 221.5,212.8 C222.7,215.2 227,217.2 230.3,217.7 C234.1,218.3 237.6,216.2 237.2,211.9 C236.4,205 235.5,198.3 234.6,191.6 C237.6,192.8 240.7,194.2 243.8,195.5 C244.220594,195.078346 244.589827,194.608413 244.9,194.1 C240,188.1 226.3,182.2 221.9,175.9 C219.692402,173.167827 218.090378,169.997865 217.2,166.6 C214.2,151.8 199.3,138.8 196.1,124 C192.9,108.8 188.4,93.9 185.4,78.5 C184,71.4 183.8,64.2 183.4,57 C178.601927,56.9588454 173.841494,56.148559 169.3,54.6 C168.6,54.4 168.1,54.2 167.5,54 C167.2,53.9 167,53.8 166.7,53.7 C166.373816,53.5494448 166.040033,53.4159317 165.7,53.3 C165.414809,53.2074755 165.145134,53.0726379 164.9,52.9 C164.6,52.8 164.3,52.6 164,52.5 L163.4,52.2 L162.2,51.6 C162.1,51.5 162,51.5 161.9,51.4 C160.071295,50.4196976 158.331395,49.2820703 156.7,48 C158.754475,52.4500991 160.427157,57.066701 161.7,61.8 C164.259185,71.2602249 165.636343,81.001097 165.8,90.8 C167.8,100.7 169.8,110.5 172.2,120.2 Z" id="path-1"></path>
        <filter x="-0.9%" y="-3.2%" width="101.8%" height="105.0%" filterUnits="objectBoundingBox" id="filter-2">
            <feMorphology radius="0.5" operator="dilate" in="SourceAlpha" result="shadowSpreadOuter1"></feMorphology>
            <feOffset dx="0" dy="1" in="shadowSpreadOuter1" result="shadowOffsetOuter1"></feOffset>
            <feColorMatrix values="0 0 0 0 0.984313725   0 0 0 0 0.623529412   0 0 0 0 0.517647059  0 0 0 0.5 0" type="matrix" in="shadowOffsetOuter1"></feColorMatrix>
        </filter>
        <path d="M61.2878205,55.3138136 C61.2241273,59.6661779 60,71.4961955 60,73.0746713 C60,79.4058978 82.1430278,79.9909945 82.7220619,75.3539752 C83.0144806,73.012228 84.263891,59.5860981 85.687854,55.3138136 C86.6371626,52.465624 87.5537471,50.0276861 88.4376074,48 M158.860447,48 L160.887219,53.7286516 C161.385152,55.9020559 162.226927,60.6393733 163.412543,67.9406037 C163.87667,70.798772 164.366411,73.314838 164.654184,75.6054017 C165.31345,80.8529215 187.133721,78.199566 186.745208,73.8276336 C186.486199,70.913012 185.957856,64.7417387 185.160179,55.3138136" id="path-3"></path>
        <filter x="-1.6%" y="-8.3%" width="103.2%" height="118.1%" filterUnits="objectBoundingBox" id="filter-4">
            <feMorphology radius="0.5" operator="dilate" in="SourceAlpha" result="shadowSpreadOuter1"></feMorphology>
            <feOffset dx="0" dy="1" in="shadowSpreadOuter1" result="shadowOffsetOuter1"></feOffset>
            <feColorMatrix values="0 0 0 0 0.984313725   0 0 0 0 0.623529412   0 0 0 0 0.517647059  0 0 0 0.5 0" type="matrix" in="shadowOffsetOuter1"></feColorMatrix>
        </filter>
        <path d="M62.6656235,55.1352311 C62.3656235,75.6352311 59.0142076,84.4336772 54.1142076,103.433677 C52.226963,109.16666 74.3360915,114.050653 75.6165149,108.670068 C77.5851232,100.397597 79.6000131,91.1838819 80.0656235,88.4352311 C80.8340764,83.8988011 81.8392781,73.641287 82.6019104,69.3512451 C83.3645426,65.0612033 84.1437395,59.4075155 85.5677025,55.1352311 C86.5170112,52.2870414 87.5620998,49.5752977 88.7029685,47 M157.946809,47.8214174 L160.767068,53.550069 C161.265,55.7234734 162.106775,60.4607907 163.292392,67.7620211 C165.070817,78.7138667 166.070817,84.8373198 166.760119,90.4562946 C167.150476,93.6383656 168.736068,100.746181 170.51017,107.765815 C171.868818,113.141614 193.104282,107.499938 192.177047,103.913283 C191.305405,100.541668 189.883744,94.1830139 187.912063,84.8373198 C187.856583,83.8964236 187.426096,80.3710996 186.620602,74.2613477 C185.815109,68.1515959 184.952977,61.8722756 184.034207,55.423387" id="path-5"></path>
        <filter x="-2.5%" y="-7.5%" width="105.1%" height="114.5%" filterUnits="objectBoundingBox" id="filter-6">
            <feMorphology radius="1" operator="dilate" in="SourceAlpha" result="shadowSpreadOuter1"></feMorphology>
            <feOffset dx="0" dy="1" in="shadowSpreadOuter1" result="shadowOffsetOuter1"></feOffset>
            <feColorMatrix values="0 0 0 0 0.984313725   0 0 0 0 0.623529412   0 0 0 0 0.517647059  0 0 0 0.5 0" type="matrix" in="shadowOffsetOuter1"></feColorMatrix>
        </filter>
        <path d="M63.7103386,55.1352311 C63.4103386,75.6352311 59.7103386,85.9352311 54.8103386,104.935231 C52.923094,110.668214 48.7271322,123.758146 46.7826899,128.240143 C44.1134027,134.392929 33.7918181,152.280614 33.2838905,153.576249 C32.5994252,155.322201 32.8034145,157.347513 37.9230804,160.82322 C43.0427462,164.298928 45.4764981,164.971359 46.7826899,163.214354 C47.6410329,162.059767 51.7935278,156.667109 52.923094,155.135231 C61.623094,143.335231 70.6103386,130.135231 73.2103386,121.935231 C75.7103386,113.935231 80.3418857,92.971661 81.1103386,88.4352311 C81.8787915,83.8988011 82.8839933,73.641287 83.6466255,69.3512451 C84.4092578,65.0612033 85.1884547,59.4075155 86.6124177,55.1352311 C87.5617263,52.2870414 88.606815,49.5752977 89.7476836,47 M158.991524,47.8214174 L161.811783,53.550069 C162.309716,55.7234734 163.15149,60.4607907 164.337107,67.7620211 C166.115532,78.7138667 167.115532,84.8373198 167.804834,90.4562946 C168.494135,96.0752694 172.910339,113.935231 175.510339,121.935231 C178.110339,130.135231 187.910339,143.335231 196.710339,155.135231 C198.359951,157.372377 200.048456,159.388544 201.496871,161.667373 C202.843219,163.785617 216.274457,156.131421 214.982906,153.944309 C214.436207,153.01853 213.954614,151.883957 213.410339,150.835231 C210.710339,145.735231 206.710339,140.135231 203.910339,134.235231 C199.210339,124.435231 198.767936,120.944223 195.83116,112.709903 C193.873309,107.220355 191.581849,97.9294946 188.956778,84.8373198 C188.901298,83.8964236 188.470811,80.3710996 187.665318,74.2613477 C186.859824,68.1515959 185.997692,61.8722756 185.078922,55.423387" id="path-7"></path>
        <filter x="-1.9%" y="-4.1%" width="103.9%" height="107.9%" filterUnits="objectBoundingBox" id="filter-8">
            <feMorphology radius="1" operator="dilate" in="SourceAlpha" result="shadowSpreadOuter1"></feMorphology>
            <feOffset dx="0" dy="1" in="shadowSpreadOuter1" result="shadowOffsetOuter1"></feOffset>
            <feColorMatrix values="0 0 0 0 0.984313725   0 0 0 0 0.623529412   0 0 0 0 0.517647059  0 0 0 0.5 0" type="matrix" in="shadowOffsetOuter1"></feColorMatrix>
        </filter>
        <path d="M63.5,58.1352311 C63.2,78.6352311 59.5,88.9352311 54.6,107.935231 C52.8,117.535231 50.3,127.435231 45.6,137.235231 C42.8,143.135231 37.7,148.635231 35.1,153.835231 C31,161.835231 28,169.135231 27,173.435231 C29.8,176.235231 28.4,175.435231 30.9,176.835231 C33.4,178.235231 34.3,178.235231 37.8,177.435231 C37.8,177.435231 43.5,168.035231 50.8,158.135231 C59.5,146.335231 70.4,133.135231 73,124.935231 C75.5,116.935231 80.1315471,95.971661 80.9,91.4352311 C81.6684529,86.8988011 82.6736546,76.641287 83.4362869,72.3512451 C84.1989192,68.0612033 84.9781161,62.4075155 86.402079,58.1352311 C87.3513877,55.2870414 88.3964763,52.5752977 89.537345,50 M158.781185,50.8214174 L161.601444,56.550069 C162.099377,58.7234734 162.941152,63.4607907 164.126768,70.7620211 C165.905194,81.7138667 166.905194,87.8373198 167.594495,93.4562946 C168.283797,99.0752694 172.7,116.935231 175.3,124.935231 C177.9,133.135231 187.7,146.335231 196.5,158.135231 C203.8,168.035231 210.5,177.435231 210.5,177.435231 C214,178.335231 214.9,178.335231 217.4,176.835231 C219.9,175.435231 218.4,176.335231 221.3,173.435231 C220.3,169.035231 217.3,161.735231 213.2,153.835231 C210.5,148.735231 206.5,143.135231 203.7,137.235231 C199,127.435231 198.557597,123.944223 195.620821,115.709903 C193.662971,110.220355 191.37151,100.929495 188.74644,87.8373198 C188.69096,86.8964236 188.260473,83.3710996 187.454979,77.2613477 C186.649485,71.1515959 185.787353,64.8722756 184.868583,58.423387" id="path-9"></path>
        <filter x="-2.7%" y="-5.4%" width="105.4%" height="110.2%" filterUnits="objectBoundingBox" id="filter-10">
            <feMorphology radius="1.5" operator="dilate" in="SourceAlpha" result="shadowSpreadOuter1"></feMorphology>
            <feOffset dx="0" dy="1" in="shadowSpreadOuter1" result="shadowOffsetOuter1"></feOffset>
            <feColorMatrix values="0 0 0 0 0.984313725   0 0 0 0 0.623529412   0 0 0 0 0.517647059  0 0 0 0.5 0" type="matrix" in="shadowOffsetOuter1"></feColorMatrix>
        </filter>
        <path d="M62.8837738,56.9194145 C61.2837738,67.8194145 57.6,88.4194145 52.7,107.319415 C50.2,116.919415 7.9,168.619415 6,177.819415 C8.8,180.619415 20,186.919415 22.5,188.319415 C25,189.719415 40.5,196.419415 44,195.519415 L73.2,121.019415 C76.1175755,108.803028 78.2917406,99.4157263 79.7224954,92.8575106 C80.8458411,87.7083796 82.1006899,77.6299426 83.7882975,68.9168314 C85.1292233,61.9936371 87.5393952,51.6673144 87.5393952,50 M159.469984,50 C161.788877,59.7969168 163.122729,67.1122807 163.471539,71.9460917 C163.994754,79.1968082 166.388192,90.7629254 166.388192,96.0497936 C166.388192,101.336662 174.226968,123.129317 174.422254,123.627563 C180.683976,139.60353 190.076557,163.567481 202.6,195.519415 C206.1,196.419415 221.5,189.719415 224.1,188.319415 C226.7,186.919415 237.8,180.619415 240.6,177.819415 C238.8,168.619415 196.4,116.919415 193.9,107.319415 C191.416399,97.7398115 188.532363,88.7749281 186.909215,79.8062881 C185.329987,71.0803226 185.329987,62.5371455 184.2,56.9194145" id="path-11"></path>
        <filter x="-2.2%" y="-4.3%" width="104.3%" height="108.4%" filterUnits="objectBoundingBox" id="filter-12">
            <feMorphology radius="1.5" operator="dilate" in="SourceAlpha" result="shadowSpreadOuter1"></feMorphology>
            <feOffset dx="0" dy="1" in="shadowSpreadOuter1" result="shadowOffsetOuter1"></feOffset>
            <feColorMatrix values="0 0 0 0 0.984313725   0 0 0 0 0.623529412   0 0 0 0 0.517647059  0 0 0 0.5 0" type="matrix" in="shadowOffsetOuter1"></feColorMatrix>
        </filter>
        <path d="M62.5,57.1352311 C62.2,77.6352311 58.5,87.9352311 53.6,106.935231 C51.8,116.535231 49.3,126.435231 44.6,136.235231 C41.8,142.135231 36.7,147.635231 34.1,152.835231 C30,160.835231 27,168.135231 26,172.435231 C28.8,175.235231 27.4,174.435231 29.9,175.835231 C32.4,177.235231 33.3,177.235231 36.8,176.435231 C36.8,176.435231 42.5,167.035231 49.8,157.135231 C58.5,145.335231 69.4,132.135231 72,123.935231 C74.5,115.935231 79.1315471,94.971661 79.9,90.4352311 C80.6684529,85.8988011 81.6736546,75.641287 82.4362869,71.3512451 C83.1989192,67.0612033 83.9781161,61.4075155 85.402079,57.1352311 C86.3513877,54.2870414 87.3964763,51.5752977 88.537345,49 M157.781185,49.8214174 L160.601444,55.550069 C161.099377,57.7234734 161.941152,62.4607907 163.126768,69.7620211 C164.905194,80.7138667 165.905194,86.8373198 166.594495,92.4562946 C167.283797,98.0752694 171.7,115.935231 174.3,123.935231 C176.9,132.135231 186.7,145.335231 195.5,157.135231 C202.8,167.035231 209.5,176.435231 209.5,176.435231 C213,177.335231 213.9,177.335231 216.4,175.835231 C218.9,174.435231 217.4,175.335231 220.3,172.435231 C219.3,168.035231 216.3,160.735231 212.2,152.835231 C209.5,147.735231 205.5,142.135231 202.7,136.235231 C198,126.435231 197.557597,122.944223 194.620821,114.709903 C192.662971,109.220355 190.37151,99.9294946 187.74644,86.8373198 C187.69096,85.8964236 187.260473,82.3710996 186.454979,76.2613477 C185.649485,70.1515959 184.787353,63.8722756 183.868583,57.423387" id="path-13"></path>
        <filter x="-2.7%" y="-5.4%" width="105.4%" height="110.2%" filterUnits="objectBoundingBox" id="filter-14">
            <feMorphology radius="1.5" operator="dilate" in="SourceAlpha" result="shadowSpreadOuter1"></feMorphology>
            <feOffset dx="0" dy="1" in="shadowSpreadOuter1" result="shadowOffsetOuter1"></feOffset>
            <feColorMatrix values="0 0 0 0 0.984313725   0 0 0 0 0.623529412   0 0 0 0 0.517647059  0 0 0 0.5 0" type="matrix" in="shadowOffsetOuter1"></feColorMatrix>
        </filter>
        <path d="M167,91.1816804 C167,91.1816804 165.704,71.6816804 162.804,62.3816804 C161.304,57.5816804 159.304,51.9816804 157.804,48.5816804 C157.804,48.5816804 156.204,47.2816804 155.404,46.5816804 C154.989042,46.2667137 154.618967,45.8966385 154.304,45.4816804 L153.504,44.6816804 L152,44.2816804 C148.839118,41.0216989 152,82.1816804 123.5,82.1816804 C95,82.1816804 97.1618745,40.9388325 94,44.1816804 L93.304,44.6816804 L92.504,45.4816804 L91.404,46.5816804 C90.604,47.2816804 89.804,47.9816804 89.004,48.5816804 C87.004,52.9816804 85.804,57.6816804 84.004,62.3816804 C81.9373333,67.9816804 80.6026667,77.9150138 80,92.1816804 L84.804,106.78168 C86.268,116.38168 87,122.848347 87,126.18168 C87,126.18168 108.504,131.08168 123.304,131.18168 C138.204,131.08168 160,126.18168 160,126.18168 C159,117.18168 160,114.18168 161.804,106.78168 C163.804,101.58168 167,91.1816804 167,91.1816804 Z" id="path-15"></path>
        <filter x="-5.8%" y="-5.7%" width="111.6%" height="112.5%" filterUnits="objectBoundingBox" id="filter-16">
            <feMorphology radius="1.5" operator="dilate" in="SourceAlpha" result="shadowSpreadOuter1"></feMorphology>
            <feOffset dx="0" dy="1" in="shadowSpreadOuter1" result="shadowOffsetOuter1"></feOffset>
            <feColorMatrix values="0 0 0 0 0.984313725   0 0 0 0 0.623529412   0 0 0 0 0.517647059  0 0 0 0.5 0" type="matrix" in="shadowOffsetOuter1"></feColorMatrix>
        </filter>
        <path d="M166,91.4 C167,86.8 167.2,78.6 163.5,64.5 C161.819554,59.0196033 159.816047,53.643527 157.5,48.4 L157.9,48.4 C157.9,48.4 155.9,47.1 155.1,46.4 C154.685025,46.0850521 154.314948,45.7149745 154,45.3 L153.2,44.5 L152.8,44.1 C146.487877,37.5899798 155.1,82 123.25,82 C91.4,82 99.7334221,37.6043833 93.4,44.1 L93,44.5 L92.2,45.3 L91.1,46.4 C90.3,47.1 89.5,47.8 88.7,48.4 C86.7,52.8 85.5,57.5 83.7,62.2 C80.6,70.6 79.9,86.5 80,91.4 C82.2,96.8 82.7,101.4 84.5,106.6 C88.8,119.1 88.1,133.6 75,154.6 C75,154.6 101.2,162.8 123,162.8 C144.6,162.8 171.5,154.6 171.5,154.6 C159.6,133.9 155.9,120.6 161.6,106.6 C163.8,101.5 165,96 166,91.4 Z" id="path-17"></path>
        <filter x="-6.9%" y="-4.2%" width="113.6%" height="109.2%" filterUnits="objectBoundingBox" id="filter-18">
            <feMorphology radius="1.5" operator="dilate" in="SourceAlpha" result="shadowSpreadOuter1"></feMorphology>
            <feOffset dx="0" dy="1" in="shadowSpreadOuter1" result="shadowOffsetOuter1"></feOffset>
            <feColorMatrix values="0 0 0 0 0.984313725   0 0 0 0 0.623529412   0 0 0 0 0.517647059  0 0 0 0.5 0" type="matrix" in="shadowOffsetOuter1"></feColorMatrix>
        </filter>
        <path d="M167,91.9516673 C167,92.0516673 165.4,72.0516673 162.5,62.7516673 C161,57.9516673 159,52.3516673 157.5,48.9516673 C157.5,48.9516673 155.9,47.6516673 155.1,46.9516673 C154.685025,46.6367194 154.314948,46.2666418 154,45.8516673 L153.2,45.0516673 L152.8,44.6516673 C146.487877,38.1416471 154,82.5516673 123.25,82.5516673 C92.5,82.5516673 99.7334221,38.1560506 93.4,44.6516673 L93,45.0516673 L92.2,45.8516673 L91.1,46.9516673 C90.3,47.6516673 89.5,48.3516673 88.7,48.9516673 C86.7,53.3516673 85.5,58.0516673 83.7,62.7516673 C80.6,71.1516673 79.9,87.0516673 80,91.9516673 C82.2,97.3516673 82.9,133.851667 75,155.151667 C75,155.151667 101.2,163.351667 123,163.351667 C144.6,163.351667 171.5,155.151667 171.5,155.151667 C165,134.251667 164.8,97.2516673 167,91.9516673 Z" id="path-19"></path>
        <filter x="-6.2%" y="-4.2%" width="112.2%" height="109.2%" filterUnits="objectBoundingBox" id="filter-20">
            <feMorphology radius="1.5" operator="dilate" in="SourceAlpha" result="shadowSpreadOuter1"></feMorphology>
            <feOffset dx="0" dy="1" in="shadowSpreadOuter1" result="shadowOffsetOuter1"></feOffset>
            <feColorMatrix values="0 0 0 0 0.984313725   0 0 0 0 0.623529412   0 0 0 0 0.517647059  0 0 0 0.5 0" type="matrix" in="shadowOffsetOuter1"></feColorMatrix>
        </filter>
        <path d="M167.4,99.3516673 C167.4,99.4516673 166.9,78.3516673 162.4,62.7516673 C161.004299,58.057958 159.334771,53.4500614 157.4,48.9516673 C157.4,48.9516673 155.8,47.6516673 155,46.9516673 C154.585017,46.6367288 154.214938,46.26665 153.9,45.8516673 L153.1,45.0516673 L152.7,44.6516673 C146.387877,38.1416471 155,82.5516673 123.25,82.5516673 C91.5,82.5516673 99.6333476,38.1560001 93.3,44.6516673 L92.9,45.0516673 L92.1,45.8516673 L91,46.9516673 C90.2,47.6516673 89.4,48.3516673 88.6,48.9516673 C86.6,53.3516673 85.5,57.5516673 84,62.7516673 C81.5,71.3516673 79.7,90.9516673 79,98.5516673 C76.4,117.251667 76.5,133.851667 75,155.151667 C75,155.151667 101.2,163.351667 123,163.351667 C144.6,163.351667 171.5,155.151667 171.5,155.151667 C169.5,132.451667 171.5,118.051667 167.4,99.3516673 Z" id="path-21"></path>
        <filter x="-5.3%" y="-4.2%" width="110.7%" height="109.2%" filterUnits="objectBoundingBox" id="filter-22">
            <feMorphology radius="1.5" operator="dilate" in="SourceAlpha" result="shadowSpreadOuter1"></feMorphology>
            <feOffset dx="0" dy="1" in="shadowSpreadOuter1" result="shadowOffsetOuter1"></feOffset>
            <feColorMatrix values="0 0 0 0 0.984313725   0 0 0 0 0.623529412   0 0 0 0 0.517647059  0 0 0 0.5 0" type="matrix" in="shadowOffsetOuter1"></feColorMatrix>
        </filter>
        <path d="M166.7,92.358413 C166.7,92.458413 166.8,92.558413 166.8,92.658413 C166.56305,82.904876 165.221149,73.2096388 162.8,63.758413 C161.449116,59.0500549 159.77857,54.4393486 157.8,49.958413 C157.8,49.958413 156.2,48.658413 155.4,47.958413 C154.985017,47.6434746 154.614938,47.2733958 154.3,46.858413 L153.5,46.058413 L153.1,45.658413 C146.787877,39.1483928 153.1,83.058413 123.4,83.058413 C93.7,83.058413 100.033348,39.1627458 93.7,45.658413 L93.3,46.058413 L92.5,46.858413 L91.4,47.958413 C90.6,48.658413 89.8,49.358413 89,49.958413 C87.0062126,54.4332258 85.3352765,59.0450094 84,63.758413 C81.4811428,73.1901673 80.1376259,82.8970767 80,92.658413 C80,92.558413 80.1,92.458413 80.1,92.358413 C82.3,97.758413 83.1,102.958413 84.9,108.158413 C89.2,120.658413 87.5,132.458413 81.2,144.358413 C93.5,147.158413 108.6,150.458413 123.4,150.558413 C138.3,150.458413 153.3,147.158413 165.6,144.358413 C159.3,132.458413 157.6,120.658413 161.9,108.158413 C163.7,102.958413 164.4,97.658413 166.7,92.358413 Z" id="path-23"></path>
        <filter x="-6.2%" y="-4.7%" width="112.5%" height="110.4%" filterUnits="objectBoundingBox" id="filter-24">
            <feMorphology radius="1.5" operator="dilate" in="SourceAlpha" result="shadowSpreadOuter1"></feMorphology>
            <feOffset dx="0" dy="1" in="shadowSpreadOuter1" result="shadowOffsetOuter1"></feOffset>
            <feColorMatrix values="0 0 0 0 0.984313725   0 0 0 0 0.623529412   0 0 0 0 0.517647059  0 0 0 0.5 0" type="matrix" in="shadowOffsetOuter1"></feColorMatrix>
        </filter>
        <path d="M77.1,55.1 C72.5505678,56.6170659 67.7951454,57.4264995 63,57.5 C63.1,55.7 63.2,54 63.3,52.2 C63.9,41.6 68.9,34.1 81.4,30.7 C87.4,29.1 92.8,25.9 98.6,23.7 C100.957383,22.9028294 103.132848,21.6451386 105,20 L104.9,20.1 C104.365243,29.1137924 100.602346,37.6335594 94.3,44.1 L93.9,44.5 L93.1,45.3 L92,46.4 C89.6839263,48.4877335 87.1335581,50.2998372 84.4,51.8 C84.3,51.9 84.2,51.9 84.1,52 L82.9,52.6 L82.3,52.9 C82.0200303,53.0744797 81.7171192,53.2091068 81.4,53.3 C81.1148092,53.3925245 80.8451341,53.5273621 80.6,53.7 C80.2738161,53.8505552 79.9400333,53.9840683 79.6,54.1 C79.3,54.2 79.1,54.3 78.8,54.4 C78.2,54.7 77.6,54.9 77.1,55.1 Z M170.8,55.1 C175.349432,56.6170659 180.104855,57.4264995 184.9,57.5 C184.8,55.7 184.7,54 184.6,52.2 C183.9,41.6 179,34.1 166.5,30.7 C160.5,29.1 155.1,25.9 149.3,23.7 C146.942617,22.9028294 144.767152,21.6451386 142.9,20 L143,20.1 C143.534757,29.1137924 147.297654,37.6335594 153.6,44.1 L154,44.5 L154.8,45.3 L155.9,46.4 C158.216074,48.4877335 160.766442,50.2998372 163.5,51.8 C163.6,51.9 163.7,51.9 163.8,52 L165,52.6 L165.6,52.9 C165.87997,53.0744797 166.182881,53.2091068 166.5,53.3 C166.785191,53.3925245 167.054866,53.5273621 167.3,53.7 C167.626184,53.8505552 167.959967,53.9840683 168.3,54.1 C168.6,54.2 168.8,54.3 169.1,54.4 C169.7,54.7 170.3,54.9 170.8,55.1 Z" id="path-25"></path>
        <filter x="-1.7%" y="-9.4%" width="103.4%" height="117.4%" filterUnits="objectBoundingBox" id="filter-26">
            <feMorphology radius="0.5" operator="dilate" in="SourceAlpha" result="shadowSpreadOuter1"></feMorphology>
            <feOffset dx="0" dy="1" in="shadowSpreadOuter1" result="shadowOffsetOuter1"></feOffset>
            <feColorMatrix values="0 0 0 0 0.984313725   0 0 0 0 0.623529412   0 0 0 0 0.517647059  0 0 0 0.5 0" type="matrix" in="shadowOffsetOuter1"></feColorMatrix>
        </filter>
        <path d="M0,23.2 C0.1,12.9 0.3,2.3 0.3,2.3 C0.3,2.3 1,1.9 5.1,0.1 C4.8,6 5.6,18.4 5.6,18.4 C3.8,20 2.1,21.5 0,23.2 Z" id="path-27"></path>
        <filter x="-36.1%" y="-11.1%" width="171.7%" height="128.8%" filterUnits="objectBoundingBox" id="filter-28">
            <feMorphology radius="0.5" operator="dilate" in="SourceAlpha" result="shadowSpreadOuter1"></feMorphology>
            <feOffset dx="0" dy="1" in="shadowSpreadOuter1" result="shadowOffsetOuter1"></feOffset>
            <feColorMatrix values="0 0 0 0 0.984313725   0 0 0 0 0.623529412   0 0 0 0 0.517647059  0 0 0 0.5 0" type="matrix" in="shadowOffsetOuter1"></feColorMatrix>
        </filter>
        <path d="M64.1,18.3 C64.1,18.3 64.9,5.9 64.6,0 C68.7,1.8 69.4,2.2 69.4,2.2 C69.4,2.2 69.6,12.8 69.7,23.1 C67.7464939,21.6041865 65.8769872,20.0017522 64.1,18.3 Z" id="path-29"></path>
        <filter x="-31.5%" y="-11.1%" width="167.5%" height="128.5%" filterUnits="objectBoundingBox" id="filter-30">
            <feMorphology radius="0.5" operator="dilate" in="SourceAlpha" result="shadowSpreadOuter1"></feMorphology>
            <feOffset dx="0" dy="1" in="shadowSpreadOuter1" result="shadowOffsetOuter1"></feOffset>
            <feColorMatrix values="0 0 0 0 0.984313725   0 0 0 0 0.623529412   0 0 0 0 0.517647059  0 0 0 0.5 0" type="matrix" in="shadowOffsetOuter1"></feColorMatrix>
        </filter>
        <path d="M0.9,5.8 C0.4,11.1 0.1,18.7 0,28.8 C6.7,26.8 11.1,22.7 16,18.1 C16,18.1 17.2,6.7 14.9,0 C12,1.3 9.4,2.9 6.3,3.8 C4.45737051,4.34536996 2.65333381,5.0135317 0.9,5.8 Z" id="path-31"></path>
        <filter x="-12.3%" y="-8.1%" width="124.5%" height="119.6%" filterUnits="objectBoundingBox" id="filter-32">
            <feMorphology radius="0.5" operator="dilate" in="SourceAlpha" result="shadowSpreadOuter1"></feMorphology>
            <feOffset dx="0" dy="1" in="shadowSpreadOuter1" result="shadowOffsetOuter1"></feOffset>
            <feColorMatrix values="0 0 0 0 0.984313725   0 0 0 0 0.623529412   0 0 0 0 0.517647059  0 0 0 0.5 0" type="matrix" in="shadowOffsetOuter1"></feColorMatrix>
        </filter>
        <path d="M83.6,3.8 C80.5,2.9 77.9,1.3 75,0 C72.7,6.7 73.9,18.1 73.9,18.1 C78.8,22.7 83.1,26.8 89.9,28.8 C89.8,18.8 89.6,11.1 89,5.8 C87.2466481,5.01357604 85.4426144,4.34541542 83.6,3.8 Z" id="path-33"></path>
        <filter x="-11.6%" y="-8.1%" width="123.9%" height="119.6%" filterUnits="objectBoundingBox" id="filter-34">
            <feMorphology radius="0.5" operator="dilate" in="SourceAlpha" result="shadowSpreadOuter1"></feMorphology>
            <feOffset dx="0" dy="1" in="shadowSpreadOuter1" result="shadowOffsetOuter1"></feOffset>
            <feColorMatrix values="0 0 0 0 0.984313725   0 0 0 0 0.623529412   0 0 0 0 0.517647059  0 0 0 0.5 0" type="matrix" in="shadowOffsetOuter1"></feColorMatrix>
        </filter>
        <path d="M0.198,10.217 C0.198,10.217 1.198,21.217 2.198,31.217 C9.97770904,28.6834345 18.924401,23.5868672 24.298,17.417 C24.298,17.417 25.498,6.917 23.198,0.217 C20.298,1.517 16.398,3.717 13.398,4.717 C12.3376888,5.02885625 7.62970515,6.74411098 4.198,8.217 C2.12764261,9.1055981 0.83768876,9.95359875 0.198,10.217 Z" id="path-35"></path>
        <filter x="-12.6%" y="-10.8%" width="137.1%" height="124.7%" filterUnits="objectBoundingBox" id="filter-36">
            <feMorphology radius="0.5" operator="dilate" in="SourceAlpha" result="shadowSpreadOuter1"></feMorphology>
            <feOffset dx="3" dy="1" in="shadowSpreadOuter1" result="shadowOffsetOuter1"></feOffset>
            <feColorMatrix values="0 0 0 0 0.984313725   0 0 0 0 0.623529412   0 0 0 0 0.517647059  0 0 0 0.5 0" type="matrix" in="shadowOffsetOuter1"></feColorMatrix>
        </filter>
        <path d="M93.198,4.217 C89.5638184,2.96663104 87.6217966,1.96294255 84.198,0.217 C81.898,6.917 83.198,18.217 83.198,18.217 C88.571599,24.3868672 97.418291,28.6834345 105.198,31.217 C105.114813,22.8983369 106.198,10.0488663 106.198,9.217 C106.198,8.38513369 104.870535,8.38513369 104.198,8.217 C103.604624,7.97266878 100.340994,6.78849688 99.198,6.217 C97.198,5.217 94.3046242,4.5424777 93.198,4.217 Z" id="path-37"></path>
        <filter x="-8.4%" y="-7.7%" width="117.0%" height="118.6%" filterUnits="objectBoundingBox" id="filter-38">
            <feMorphology radius="0.5" operator="dilate" in="SourceAlpha" result="shadowSpreadOuter1"></feMorphology>
            <feOffset dx="0" dy="1" in="shadowSpreadOuter1" result="shadowOffsetOuter1"></feOffset>
            <feColorMatrix values="0 0 0 0 0.984313725   0 0 0 0 0.623529412   0 0 0 0 0.517647059  0 0 0 0.5 0" type="matrix" in="shadowOffsetOuter1"></feColorMatrix>
        </filter>
        <path d="M76.1,54.1 C71.5505678,55.6170659 66.7951454,56.4264995 62,56.5 C62.1,54.7 62.2,53 62.3,51.2 C63,40.6 67.9,33.1 80.4,29.7 C86.4,28.1 91.8,24.9 97.6,22.7 C99.9573832,21.9028294 102.132848,20.6451386 104,19 L103.9,19.1 C103.365243,28.1137924 99.602346,36.6335594 93.3,43.1 L92.9,43.5 L92.1,44.3 L91,45.4 C88.6839094,47.4877124 86.1335438,49.2998143 83.4,50.8 C83.3,50.9 83.2,50.9 83.1,51 L81.9,51.6 L81.3,51.9 C81.0200303,52.0744797 80.7171192,52.2091068 80.4,52.3 C80.1148092,52.3925245 79.8451341,52.5273621 79.6,52.7 C79.2738147,52.8505519 78.940032,52.9840649 78.6,53.1 C78.3,53.2 78.1,53.3 77.8,53.4 C77.2598059,53.6930548 76.689922,53.9277129 76.1,54.1 Z M169.9,54.1 C174.449432,55.6170659 179.204855,56.4264995 184,56.5 C183.9,54.7 183.8,53 183.7,51.2 C183,40.6 178.1,33.1 165.6,29.7 C159.6,28.1 154.2,24.9 148.4,22.7 C146.042617,21.9028294 143.867152,20.6451386 142,19 L142.1,19.1 C142.634757,28.1137924 146.397654,36.6335594 152.7,43.1 L153.1,43.5 L153.9,44.3 L155,45.4 C157.316091,47.4877124 159.866456,49.2998143 162.6,50.8 C162.7,50.9 162.8,50.9 162.9,51 L164.1,51.6 L164.7,51.9 C164.97997,52.0744797 165.282881,52.2091068 165.6,52.3 C165.885191,52.3925245 166.154866,52.5273621 166.4,52.7 C166.726185,52.8505519 167.059968,52.9840649 167.4,53.1 C167.7,53.2 167.9,53.3 168.2,53.4 C168.748233,53.6758039 169.316517,53.9098029 169.9,54.1 Z" id="path-39"></path>
        <filter x="-3.0%" y="-18.7%" width="105.9%" height="130.7%" filterUnits="objectBoundingBox" id="filter-40">
            <feMorphology radius="1" operator="dilate" in="SourceAlpha" result="shadowSpreadOuter1"></feMorphology>
            <feOffset dx="0" dy="1" in="shadowSpreadOuter1" result="shadowOffsetOuter1"></feOffset>
            <feColorMatrix values="0 0 0 0 0.984313725   0 0 0 0 0.623529412   0 0 0 0 0.517647059  0 0 0 0.5 0" type="matrix" in="shadowOffsetOuter1"></feColorMatrix>
        </filter>
        <path d="M76.1,55.1 C71.5505678,56.6170659 66.7951454,57.4264995 62,57.5 C62.1,55.7 62.2,54 62.3,52.2 C63,41.6 67.9,34.1 80.4,30.7 C86.4,29.1 91.8,25.9 97.6,23.7 C99.9573832,22.9028294 102.132848,21.6451386 104,20 L103.9,20.1 C103.365243,29.1137924 99.602346,37.6335594 93.3,44.1 L92.9,44.5 L92.1,45.3 L91,46.4 C88.6839094,48.4877124 86.1335438,50.2998143 83.4,51.8 C83.3,51.9 83.2,51.9 83.1,52 L81.9,52.6 L81.3,52.9 C81.0200303,53.0744797 80.7171192,53.2091068 80.4,53.3 C80.1148092,53.3925245 79.8451341,53.5273621 79.6,53.7 C79.2738147,53.8505519 78.940032,53.9840649 78.6,54.1 C78.3,54.2 78.1,54.3 77.8,54.4 C77.2598059,54.6930548 76.689922,54.9277129 76.1,55.1 Z M169.9,55.1 C174.449432,56.6170659 179.204855,57.4264995 184,57.5 C183.9,55.7 183.8,54 183.7,52.2 C183,41.6 178.1,34.1 165.6,30.7 C159.6,29.1 154.2,25.9 148.4,23.7 C146.042617,22.9028294 143.867152,21.6451386 142,20 L142.1,20.1 C142.634757,29.1137924 146.397654,37.6335594 152.7,44.1 L153.1,44.5 L153.9,45.3 L155,46.4 C157.316091,48.4877124 159.866456,50.2998143 162.6,51.8 C162.7,51.9 162.8,51.9 162.9,52 L164.1,52.6 L164.7,52.9 C164.97997,53.0744797 165.282881,53.2091068 165.6,53.3 C165.885191,53.3925245 166.154866,53.5273621 166.4,53.7 C166.726185,53.8505519 167.059968,53.9840649 167.4,54.1 C167.7,54.2 167.9,54.3 168.2,54.4 C168.748233,54.6758039 169.316517,54.9098029 169.9,55.1 Z" id="path-41"></path>
        <filter x="-3.0%" y="-18.7%" width="105.9%" height="130.7%" filterUnits="objectBoundingBox" id="filter-42">
            <feMorphology radius="1" operator="dilate" in="SourceAlpha" result="shadowSpreadOuter1"></feMorphology>
            <feOffset dx="0" dy="1" in="shadowSpreadOuter1" result="shadowOffsetOuter1"></feOffset>
            <feColorMatrix values="0 0 0 0 0.984313725   0 0 0 0 0.623529412   0 0 0 0 0.517647059  0 0 0 0.5 0" type="matrix" in="shadowOffsetOuter1"></feColorMatrix>
        </filter>
        <path d="M137.6,6.8 C133.82867,3.04623341 128.812319,0.804885276 123.5,0.5 C118.182844,0.784934514 113.159695,3.02932043 109.4,6.8 C109.5,12.2 108.2,16.8 104.5,20.1 L104.6,20.2 C109.693519,25.12637 116.419857,28.0090865 123.5,28.3 C130.575797,27.9899821 137.295644,25.1100478 142.4,20.2 L142.5,20.1 C138.8,16.8 137.5,12.3 137.6,6.8 Z" id="path-43"></path>
        <filter x="-16.8%" y="-18.0%" width="134.1%" height="139.5%" filterUnits="objectBoundingBox" id="filter-44">
            <feMorphology radius="1.5" operator="dilate" in="SourceAlpha" result="shadowSpreadOuter1"></feMorphology>
            <feOffset dx="0" dy="1" in="shadowSpreadOuter1" result="shadowOffsetOuter1"></feOffset>
            <feColorMatrix values="0 0 0 0 0.984313725   0 0 0 0 0.623529412   0 0 0 0 0.517647059  0 0 0 0.5 0" type="matrix" in="shadowOffsetOuter1"></feColorMatrix>
        </filter>
        <path d="M141.7,19.3 C140.8,18.5 138.6,14.2 137.8,13 C135,15.1 131.1,17.7 123,17.6 C117.63055,17.6877504 112.339461,16.3044591 107.7,13.6 C106.776889,15.6842686 105.527933,17.608335 104,19.3 C114.414924,29.7000459 131.285076,29.7000459 141.7,19.3 Z" id="path-45"></path>
        <filter x="-11.3%" y="-30.8%" width="123.8%" height="162.7%" filterUnits="objectBoundingBox" id="filter-46">
            <feMorphology radius="1" operator="dilate" in="SourceAlpha" result="shadowSpreadOuter1"></feMorphology>
            <feOffset dx="0" dy="1" in="shadowSpreadOuter1" result="shadowOffsetOuter1"></feOffset>
            <feColorMatrix values="0 0 0 0 0.984313725   0 0 0 0 0.623529412   0 0 0 0 0.517647059  0 0 0 0.5 0" type="matrix" in="shadowOffsetOuter1"></feColorMatrix>
        </filter>
        <path d="M137.7,5.91138438 C137.7,2.27408174 131.571934,10.7050515 123.571934,10.6050515 C115.571934,10.5050515 109.6,2.66401741 109.6,5.91138438 C109.6,9.15875135 106.4,17.9113844 105,19.2113844 C109.787848,24.384928 116.522914,27.3178141 123.571934,27.298814 C130.620954,27.279814 137.340111,24.3106632 142.1,19.1113844 C141.3,18.3113844 137.7,9.54868702 137.7,5.91138438 Z" id="path-47"></path>
        <filter x="-6.8%" y="-8.8%" width="113.6%" height="122.3%" filterUnits="objectBoundingBox" id="filter-48">
            <feMorphology radius="0.5" operator="dilate" in="SourceAlpha" result="shadowSpreadOuter1"></feMorphology>
            <feOffset dx="0" dy="1" in="shadowSpreadOuter1" result="shadowOffsetOuter1"></feOffset>
            <feColorMatrix values="0 0 0 0 0.984313725   0 0 0 0 0.623529412   0 0 0 0 0.517647059  0 0 0 0.5 0" type="matrix" in="shadowOffsetOuter1"></feColorMatrix>
        </filter>
        <path d="M137.7,6.91138438 C137.7,3.27408174 131.571934,11.7050515 123.571934,11.6050515 C115.571934,11.5050515 109.6,3.66401741 109.6,6.91138438 C109.6,10.1587513 106.4,18.9113844 105,20.2113844 C109.787848,25.384928 116.522914,28.3178141 123.571934,28.298814 C130.620954,28.279814 137.340111,25.3106632 142.1,20.1113844 C141.3,19.3113844 137.7,10.548687 137.7,6.91138438 Z" id="path-49"></path>
        <filter x="-6.8%" y="-8.8%" width="113.6%" height="122.3%" filterUnits="objectBoundingBox" id="filter-50">
            <feMorphology radius="0.5" operator="dilate" in="SourceAlpha" result="shadowSpreadOuter1"></feMorphology>
            <feOffset dx="0" dy="1" in="shadowSpreadOuter1" result="shadowOffsetOuter1"></feOffset>
            <feColorMatrix values="0 0 0 0 0.984313725   0 0 0 0 0.623529412   0 0 0 0 0.517647059  0 0 0 0.5 0" type="matrix" in="shadowOffsetOuter1"></feColorMatrix>
        </filter>
        <path d="M176.4,169.7 C173.167733,161.232518 169.393247,152.982094 165.1,145 C152.8,147.9 137.7,151.2 122.9,151.3 C108,151.2 93,147.9 80.7,145.1 C76.4288673,153.093067 72.6550294,161.342076 69.4,169.8 C64,183.1 64.1,198.3 64,198.8 C65.5,199.8 67.1,200.8 68.7,201.7 C83.4,210.1 101.8,214 120.4,213.9 L125.4,213.9 C144,214 162.4,210.1 177.1,201.7 C178.7,200.8 180.3,199.8 181.8,198.8 C181.7,198.2 181.8,183.1 176.4,169.7 Z" id="path-51"></path>
        <filter x="-4.5%" y="-7.9%" width="109.0%" height="116.6%" filterUnits="objectBoundingBox" id="filter-52">
            <feMorphology radius="1.5" operator="dilate" in="SourceAlpha" result="shadowSpreadOuter1"></feMorphology>
            <feOffset dx="0" dy="1" in="shadowSpreadOuter1" result="shadowOffsetOuter1"></feOffset>
            <feColorMatrix values="0 0 0 0 0.984313725   0 0 0 0 0.623529412   0 0 0 0 0.517647059  0 0 0 0.5 0" type="matrix" in="shadowOffsetOuter1"></feColorMatrix>
        </filter>
        <path d="M123.5,185.4 C144.7,185.4 163.9,180.8 178,173.3 C177.710441,172.417126 177.376686,171.549364 177,170.7 C173.767707,162.232529 169.993223,153.982107 165.7,146 C153.4,148.8 138.3,152.1 123.5,152.2 C108.6,152.1 93.6,148.8 81.3,146 C77.0288673,153.993067 73.2550294,162.242076 70,170.7 C69.7,171.6 69.3,172.4 69,173.3 C83.1,180.8 102.3,185.4 123.5,185.4 Z" id="path-53"></path>
        <filter x="-5.2%" y="-13.8%" width="110.3%" height="129.0%" filterUnits="objectBoundingBox" id="filter-54">
            <feMorphology radius="1.5" operator="dilate" in="SourceAlpha" result="shadowSpreadOuter1"></feMorphology>
            <feOffset dx="0" dy="1" in="shadowSpreadOuter1" result="shadowOffsetOuter1"></feOffset>
            <feColorMatrix values="0 0 0 0 0.984313725   0 0 0 0 0.623529412   0 0 0 0 0.517647059  0 0 0 0.5 0" type="matrix" in="shadowOffsetOuter1"></feColorMatrix>
        </filter>
        <path d="M176.4,167.7 C173.167707,159.232529 169.393223,150.982107 165.1,143 C152.8,145.8 137.7,149.1 122.9,149.2 C108,149.1 93,145.8 80.7,143 C76.4288673,150.993067 72.6550294,159.242076 69.4,167.7 C64,181 64.1,196.2 64,196.7 C65.5,197.7 67.1,198.7 68.7,199.6 C83.4,208 101.8,211.9 120.4,211.8 L125.4,211.8 C144,211.9 162.4,208 177.1,199.6 C178.7,198.7 180.3,197.7 181.8,196.7 C181.7,196.2 181.8,181.1 176.4,167.7 Z" id="path-55"></path>
        <filter x="-4.5%" y="-7.9%" width="109.1%" height="116.6%" filterUnits="objectBoundingBox" id="filter-56">
            <feMorphology radius="1.5" operator="dilate" in="SourceAlpha" result="shadowSpreadOuter1"></feMorphology>
            <feOffset dx="0" dy="1" in="shadowSpreadOuter1" result="shadowOffsetOuter1"></feOffset>
            <feColorMatrix values="0 0 0 0 0.984313725   0 0 0 0 0.623529412   0 0 0 0 0.517647059  0 0 0 0.5 0" type="matrix" in="shadowOffsetOuter1"></feColorMatrix>
        </filter>
        <path d="M177.4,167.7 C174.167707,159.232529 170.393223,150.982107 166.1,143 C153.8,145.8 138.7,149.1 123.9,149.2 C109,149.1 94,145.8 81.7,143 C77.4288673,150.993067 73.6550294,159.242076 70.4,167.7 C65,181 65.1,196.2 65,196.7 C66.5,197.7 68.1,198.7 69.7,199.6 C84.4,208 102.8,211.9 121.4,211.8 L126.4,211.8 C145,211.9 163.4,208 178.1,199.6 C179.7,198.7 181.3,197.7 182.8,196.7 C182.7,196.2 182.8,181.1 177.4,167.7 Z" id="path-57"></path>
        <filter x="-4.5%" y="-7.9%" width="109.1%" height="116.6%" filterUnits="objectBoundingBox" id="filter-58">
            <feMorphology radius="1.5" operator="dilate" in="SourceAlpha" result="shadowSpreadOuter1"></feMorphology>
            <feOffset dx="0" dy="1" in="shadowSpreadOuter1" result="shadowOffsetOuter1"></feOffset>
            <feColorMatrix values="0 0 0 0 0.984313725   0 0 0 0 0.623529412   0 0 0 0 0.517647059  0 0 0 0.5 0" type="matrix" in="shadowOffsetOuter1"></feColorMatrix>
        </filter>
        <path d="M152,41.5 C145.687877,34.9899798 142.995439,27.5481329 142.4,18.5 C137.241646,23.5925821 130.501594,26.5168376 123.4,26.8 C116.302866,26.4973785 109.069517,23.4760315 104,18.5 C103,27.5 101,33.5 95,41.5 C98.2,68.1666667 107.7,81.5 123.5,81.5 C138.433333,81.5 147.933333,68.1666667 152,41.5 Z" id="path-59"></path>
        <filter x="-3.5%" y="-5.4%" width="107.0%" height="110.2%" filterUnits="objectBoundingBox" id="filter-60">
            <feMorphology radius="0.5" operator="dilate" in="SourceAlpha" result="shadowSpreadOuter1"></feMorphology>
            <feOffset dx="0" dy="1" in="shadowSpreadOuter1" result="shadowOffsetOuter1"></feOffset>
            <feColorMatrix values="0 0 0 0 0.984313725   0 0 0 0 0.623529412   0 0 0 0 0.517647059  0 0 0 0.5 0" type="matrix" in="shadowOffsetOuter1"></feColorMatrix>
        </filter>
        <path d="M152,42.2 C145.8,35 143,28 142.4,19 C137.241646,24.0925821 130.501594,27.0168376 123.4,27.3 C116.302866,26.9973785 109.069517,23.9760315 104,19 C102.5,27.2 101,34 95,42 C98.1333333,54.6666667 107.6,61 123.4,61 C138.333333,61 147.866667,54.7333333 152,42.2 Z" id="path-61"></path>
        <filter x="-3.5%" y="-8.2%" width="107.2%" height="115.3%" filterUnits="objectBoundingBox" id="filter-62">
            <feMorphology radius="0.5" operator="dilate" in="SourceAlpha" result="shadowSpreadOuter1"></feMorphology>
            <feOffset dx="0" dy="1" in="shadowSpreadOuter1" result="shadowOffsetOuter1"></feOffset>
            <feColorMatrix values="0 0 0 0 0.984313725   0 0 0 0 0.623529412   0 0 0 0 0.517647059  0 0 0 0.5 0" type="matrix" in="shadowOffsetOuter1"></feColorMatrix>
        </filter>
        <path d="M152,41.6445784 C145.687877,35.1345581 142.4,20.7845505 142.4,18.6445784 C142.4,16.5046062 135.610398,26.9445784 123.4,26.9445784 C111.286206,26.9445784 104,17.083999 104,18.6445784 C104,20.2051578 101,33.6445784 95,41.6445784 C98.2,68.311245 107.7,81.6445784 123.5,81.6445784 C138.433333,81.6445784 147.933333,68.311245 152,41.6445784 Z" id="path-63"></path>
        <filter x="-3.5%" y="-3.5%" width="107.0%" height="108.3%" filterUnits="objectBoundingBox" id="filter-64">
            <feMorphology radius="0.5" operator="dilate" in="SourceAlpha" result="shadowSpreadOuter1"></feMorphology>
            <feOffset dx="0" dy="1" in="shadowSpreadOuter1" result="shadowOffsetOuter1"></feOffset>
            <feColorMatrix values="0 0 0 0 0.984313725   0 0 0 0 0.623529412   0 0 0 0 0.517647059  0 0 0 0.5 0" type="matrix" in="shadowOffsetOuter1"></feColorMatrix>
        </filter>
        <path d="M152,42.1470148 C144.454369,36.7720526 142.4,20.5129654 142.4,19.1470148 C142.4,17.7810642 135.572632,27.4470148 123.4,27.4470148 C110.953081,27.4470148 104,17.3915143 104,19.1470148 C104,20.9025153 102.227164,35.1160329 95,42.1470148 C98.200028,69.1453905 107.700028,82.6445784 123.5,82.6445784 C138.404499,82.6445784 147.904499,69.1453905 152,42.1470148 Z" id="path-65"></path>
        <filter x="-2.7%" y="-2.7%" width="105.5%" height="105.1%" filterUnits="objectBoundingBox" id="filter-66">
            <feMorphology radius="0.5" operator="dilate" in="SourceAlpha" result="shadowSpreadOuter1"></feMorphology>
            <feOffset dx="0" dy="0" in="shadowSpreadOuter1" result="shadowOffsetOuter1"></feOffset>
            <feColorMatrix values="0 0 0 0 0.984313725   0 0 0 0 0.623529412   0 0 0 0 0.517647059  0 0 0 0.5 0" type="matrix" in="shadowOffsetOuter1"></feColorMatrix>
        </filter>
    </defs>
    <g id="BodyParts-VisualFilter-Final-Distribution" stroke="none" stroke-width="1" fill="none" fill-rule="evenodd">
        <g id="visual-filter-updated-Aug-10.0" transform="translate(1.000000, 2.000000)">
            <g id="full-body">
                <path d="M77.93,54.45 C77.38,54.66 76.82,54.87 76.25,55.06 C76.82,54.87 77.38,54.66 77.93,54.45 Z" id="Shape"></path>
                <path d="M123.13,28.37 L123.13,28.3 C116.060283,28.0279825 109.343167,25.1415823 104.28,20.2 C109.326942,25.1753169 116.0486,28.0886298 123.13,28.37 Z" id="Shape"></path>
                <path d="M83.19,52 L82,52.62 L83.19,52 Z" id="Shape"></path>
                <path d="M81.39,52.94 L80.39,53.38 L81.39,52.94 Z" id="Shape"></path>
                <path d="M79.65,53.74 C79.34,53.88 79.02,54.01 78.65,54.14 C79,54 79.34,53.88 79.65,53.74 Z" id="Shape"></path>
                <path d="M91.15,46.42 C88.8176093,48.4992361 86.2620174,50.3136393 83.53,51.83 C85.3468646,50.8304504 87.0911693,49.704338 88.75,48.46 C89.58,47.81 90.38,47.12 91.15,46.42 Z" id="Shape"></path>
                <path d="M93.5,44.15 L93.13,44.53 L93.5,44.15 Z" id="Shape"></path>
                <path d="M91.16,46.41 C91.55,46.07 91.92,45.72 92.29,45.41 C91.92,45.72 91.55,46.07 91.16,46.41 Z" id="Shape"></path>
                <path d="M95.36,52.88 C94.5222542,52.2051509 93.6014073,51.6405441 92.62,51.2 C93.53,51.79 94.44,52.35 95.36,52.88 Z" id="Shape"></path>
                <path d="M83.79,62.28 C85.1040178,57.5597703 86.7755153,52.9464373 88.79,48.48 C86.723862,52.9252954 85.0508099,57.5429191 83.79,62.28 Z" id="Shape"></path>
                <path d="M69,199.45 C69.5117586,207.914416 70.6009592,216.334003 72.26,224.65 L119.44,224.65 C119.78,220.9 120.21,217.15 120.55,213.4 C120.55,212.82 120.64,212.24 120.68,211.65 C102.06,211.77 83.66,207.84 69,199.45 Z" id="Shape" fill="#F4F4F4" fill-rule="nonzero"></path>
                <path d="M73.1,120.7 C70.5,131.9 61.9,141.3 53.1,153.2 C48.8121316,159.047093 44.334172,165.60417 40.1895711,172.425583 C36.8914467,177.853818 33.4760742,183.427885 32.9,189.1 C32,197.4 27.7,205.5 23.9,213.3 C22.7,215.7 18.4,217.7 15.1,218.2 C11.3,218.8 7.8,216.7 8.2,212.4 C9,205.5 9.9,198.8 10.8,192.1 C7.8,193.3 4.7,194.7 1.6,196 C1.17940621,195.578346 0.810173485,195.108413 0.5,194.6 C5.4,188.6 19.1,182.7 23.5,176.4 C25.7075978,173.667827 33.3018502,158.996752 34.7498944,156.032285 C40.2407757,144.791238 46.7677895,136.211474 49.3,124.5 C52.4,109.5 56.9,94.5 59.9,79.2 C61.3,72.1 61.5,64.9 61.9,57.7 C66.6980734,57.6588454 71.4585061,56.848559 76,55.3 C76.7,55.1 77.2,54.9 77.8,54.7 C78.1,54.6 78.3,54.5 78.6,54.4 C78.9261832,54.2494432 79.2599661,54.11593 79.6,54 C79.8851908,53.9074755 80.1548659,53.7726379 80.4,53.6 C80.6094418,53.3556552 80.8885863,53.1811898 81.2,53.1 L81.8,52.8 L83,52.2 C83.1,52.1 83.2,52.1 83.3,52 C85.1287047,51.0196976 86.8686051,49.8820703 88.5,48.6 C86.4455251,53.0500991 84.7728432,57.666701 83.5,62.4 C81.0172599,71.839012 79.6743566,81.5414885 79.5,91.3 C77.5,101.2 75.5,111 73.1,120.7 Z" id="sleeves_0-path" stroke="#686868" fill="#F4F4F4"></path>
                <path d="M172.7,120.7 C175.3,131.9 183.9,141.3 192.7,153.2 C197.10081,159.124167 201.620465,165.505681 205.787404,172.425583 C209.005953,177.770523 212.389889,183.521841 213,189.1 C213.9,197.4 218.2,205.5 222,213.3 C223.2,215.7 227.5,217.7 230.8,218.2 C234.6,218.8 238.1,216.7 237.7,212.4 C236.9,205.5 236,198.8 235.1,192.1 C238.1,193.3 241.2,194.7 244.3,196 C244.720594,195.578346 245.089827,195.108413 245.4,194.6 C240.5,188.6 226.8,182.7 222.4,176.4 C220.192402,173.667827 213.982231,160.168587 211.638958,156.032285 C206.021434,146.116338 198.858075,134.943597 196.6,124.5 C193.4,109.3 188.9,94.4 185.9,79 C184.5,71.9 184.3,64.7 183.9,57.5 C179.101927,57.4588454 174.341494,56.648559 169.8,55.1 C169.1,54.9 168.6,54.7 168,54.5 C167.7,54.4 167.5,54.3 167.2,54.2 C166.873816,54.0494448 166.540033,53.9159317 166.2,53.8 C165.914809,53.7074755 165.645134,53.5726379 165.4,53.4 C165.1,53.3 164.8,53.1 164.5,53 L163.9,52.7 L162.7,52.1 C162.6,52 162.5,52 162.4,51.9 C160.571295,50.9196976 158.831395,49.7820703 157.2,48.5 C159.254475,52.9500991 160.927157,57.566701 162.2,62.3 C164.759185,71.7602249 166.136343,81.501097 166.3,91.3 C168.3,101.2 170.3,111 172.7,120.7 Z" id="sleeves_0-path" stroke="#686868" fill="#F4F4F4"></path>
                <path d="M79.73,91.2 C79.73,91.2 79.73,91.2 79.73,91.2 C79.9160955,81.4456838 81.2758797,71.7492469 83.78,62.32 C81.2465811,71.7433012 79.8862915,81.4433413 79.73,91.2 Z" id="Shape" stroke="#686868" fill="#F4F4F4" fill-rule="nonzero"></path>
                <path d="M88.75,48.48 C88.5,49.1 90.66,50.18 92.62,51.2 C91.32,50.35 90.03,49.44 88.76,48.45 L88.75,48.48 Z" id="Shape" stroke="#686868" fill="#F4F4F4" fill-rule="nonzero"></path>
                <polygon id="Shape" stroke="#686868" fill="#F4F4F4" fill-rule="nonzero" points="104.28 20.2 104.17 20.1 104.17 20.1"></polygon>
                <path d="M77.93,54.45 L78.69,54.14 C79.02,54.01 79.34,53.88 79.69,53.74 C80.04,53.6 80.22,53.5 80.48,53.38 L81.48,52.94 L82.13,52.62 L83.19,52 L83.53,51.82 C86.2620174,50.3036393 88.8176093,48.4892361 91.15,46.41 C91.54,46.07 91.91,45.72 92.28,45.41 C92.65,45.1 92.85,44.86 93.12,44.58 L93.49,44.2 C99.777808,37.7257026 103.532211,29.2090976 104.07,20.2 L104.16,20.12 C102.283205,21.7367765 100.114136,22.9791543 97.77,23.78 C91.98,25.99 86.53,29.14 80.57,30.78 C68.06,34.06 63.12,41.56 62.44,52.2 C62.35,53.98 62.27,55.69 62.18,57.48 C66.9426156,57.4079016 71.6653044,56.5982978 76.18,55.08 C76.82,54.87 77.38,54.66 77.93,54.45 Z" id="Shape" stroke="#686868" fill="#F4F4F4" fill-rule="nonzero"></path>
                <path d="M82,52.62 L81.35,52.94 L82,52.62 Z" id="Shape" stroke="#686868" fill="#F4F4F4" fill-rule="nonzero"></path>
                <path d="M83.53,51.83 L83.19,52.01 L83.53,51.83 Z" id="Shape" stroke="#686868" fill="#F4F4F4" fill-rule="nonzero"></path>
                <path d="M80.44,53.38 C80.18,53.5 79.92,53.63 79.65,53.74 C79.92,53.63 80.18,53.5 80.44,53.38 Z" id="Shape" stroke="#686868" fill="#F4F4F4" fill-rule="nonzero"></path>
                <path d="M78.69,54.14 L77.93,54.45 L78.69,54.14 Z" id="Shape" stroke="#686868" fill="#F4F4F4" fill-rule="nonzero"></path>
                <path d="M93.5,44.15 C99.8036141,37.6775193 103.587664,29.1660658 104.17,20.15 L104.08,20.23 C103.523425,29.2110505 99.7703751,37.6962073 93.5,44.15 Z" id="Shape" stroke="#686868" fill="#F4F4F4" fill-rule="nonzero"></path>
                <path d="M93.13,44.53 C92.86,44.81 92.58,45.09 92.29,45.36 C92.58,45.09 92.85,44.81 93.13,44.53 Z" id="Shape" stroke="#686868" fill="#F4F4F4" fill-rule="nonzero"></path>
                <path d="M168.34,54.45 C168.89,54.66 169.45,54.87 170.02,55.06 C169.45,54.87 168.89,54.66 168.34,54.45 Z" id="Shape"></path>
                <path d="M123.13,28.37 L123.13,28.3 C130.206273,28.0309879 136.930698,25.1445096 142,20.2 C136.946922,25.1782479 130.217952,28.0916384 123.13,28.37 Z" id="Shape"></path>
                <path d="M163.08,52 L164.23,52.61 L163.08,52 Z" id="Shape"></path>
                <path d="M164.88,52.94 L165.82,53.38 L164.88,52.94 Z" id="Shape"></path>
                <path d="M166.62,53.74 L167.57,54.14 L166.62,53.74 Z" id="Shape"></path>
                <path d="M155.11,46.42 C157.447707,48.4970992 160.006365,50.3112985 162.74,51.83 C160.923135,50.8304504 159.178831,49.704338 157.52,48.46 C156.69,47.81 155.89,47.12 155.11,46.42 Z" id="Shape"></path>
                <path d="M152.77,44.15 L153.14,44.53 L152.77,44.15 Z" id="Shape"></path>
                <path d="M155.11,46.41 C154.72,46.07 154.34,45.72 153.98,45.41 C154.35,45.72 154.72,46.07 155.11,46.41 Z" id="Shape"></path>
                <path d="M150.91,52.88 C151.747746,52.2051509 152.668593,51.6405441 153.65,51.2 C152.74,51.79 151.83,52.35 150.91,52.88 Z" id="Shape"></path>
                <path d="M162.48,62.28 C161.165982,57.5597703 159.494485,52.9464373 157.48,48.48 C159.541458,52.9272251 161.21436,57.5444351 162.48,62.28 Z" id="Shape"></path>
                <path d="M177.3,199.45 C176.788241,207.914416 175.699041,216.334003 174.04,224.65 L126.86,224.65 C126.52,220.9 126.09,217.15 125.75,213.4 C125.69,212.82 125.66,212.24 125.61,211.65 C144.21,211.77 162.61,207.84 177.3,199.45 Z" id="Shape" fill="#F4F4F4" fill-rule="nonzero"></path>
                <path d="M176.64,167.55 C173.39925,159.100651 169.62842,150.864277 165.35,142.89 C153.05,145.7 137.99,148.99 123.13,149.09 C108.28,148.99 93.22,145.7 80.92,142.89 C76.6489125,150.866472 72.8815394,159.102591 69.64,167.55 C64.24,180.87 64.34,196.02 64.25,196.55 C65.78,197.55 67.36,198.55 68.98,199.47 C83.67,207.86 102.07,211.79 120.66,211.67 C121.49,211.67 122.32,211.67 123.14,211.67 L125.62,211.67 C144.22,211.79 162.62,207.86 177.31,199.47 C178.93,198.54 180.51,197.58 182.03,196.55 C181.94,196 182,180.87 176.64,167.55 Z" id="Shape" stroke="#686868" fill="#F4F4F4" fill-rule="nonzero" stroke-linecap="square"></path>
                <path d="M137.25,6.81 C133.462126,3.06709266 128.445227,0.825121781 123.13,0.5 C117.811263,0.822745606 112.79042,3.0648914 109,6.81 C109.08,12.26 107.81,16.81 104.15,20.1 L104.26,20.2 C109.323167,25.1415823 116.040283,28.0279825 123.11,28.3 C130.193254,28.0358892 136.925641,25.1490531 142,20.2 L142.11,20.1 C138.44,16.77 137.16,12.26 137.25,6.81 Z" id="Shape" stroke="#686868" fill="#F4F4F4" fill-rule="nonzero"></path>
                <path d="M166.54,91.2 C166.54,91.2 166.54,91.2 166.54,91.2 C166.343918,81.446479 164.9843,71.7512293 162.49,62.32 C165.013685,71.7452817 166.373805,81.4441146 166.54,91.2 Z" id="Shape" stroke="#686868" fill="#F4F4F4" fill-rule="nonzero"></path>
                <path d="M157.52,48.48 C157.76,49.1 155.61,50.18 153.65,51.2 C154.95,50.35 156.23,49.44 157.51,48.45 L157.52,48.48 Z" id="Shape" stroke="#686868" fill="#F4F4F4" fill-rule="nonzero"></path>
                <polygon id="Shape" stroke="#686868" fill="#F4F4F4" fill-rule="nonzero" points="142 20.2 142.11 20.1 142.11 20.1"></polygon>
                <path d="M168.34,54.45 L167.57,54.14 L166.62,53.74 C166.35,53.63 166.09,53.5 165.82,53.38 L164.88,52.94 L164.23,52.62 L163.08,52 L162.74,51.82 C160.006365,50.3012985 157.447707,48.4870992 155.11,46.41 C154.72,46.07 154.35,45.72 153.98,45.41 C153.61,45.1 153.41,44.86 153.14,44.58 L152.77,44.2 C146.482192,37.7257026 142.727789,29.2090976 142.19,20.2 L142.1,20.12 C143.973898,21.7408673 146.143801,22.9837226 148.49,23.78 C154.28,25.99 159.73,29.14 165.69,30.78 C178.21,34.1 183.15,41.6 183.83,52.24 C183.92,54.02 184,55.73 184.09,57.52 C179.327384,57.4479016 174.604696,56.6382978 170.09,55.12 C169.45,54.87 168.89,54.66 168.34,54.45 Z" id="Shape" stroke="#686868" fill="#F4F4F4" fill-rule="nonzero"></path>
                <path d="M164.23,52.62 L164.88,52.94 L164.23,52.62 Z" id="Shape" stroke="#686868" fill="#F4F4F4" fill-rule="nonzero"></path>
                <path d="M162.74,51.83 L163.08,52.01 L162.74,51.83 Z" id="Shape" stroke="#686868" fill="#F4F4F4" fill-rule="nonzero"></path>
                <path d="M165.82,53.38 C166.09,53.5 166.35,53.63 166.62,53.74 C166.35,53.63 166.09,53.5 165.82,53.38 Z" id="Shape" stroke="#686868" fill="#F4F4F4" fill-rule="nonzero"></path>
                <path d="M167.57,54.14 L168.34,54.45 L167.57,54.14 Z" id="Shape" stroke="#686868" fill="#F4F4F4" fill-rule="nonzero"></path>
                <path d="M152.77,44.15 C146.462677,37.6800314 142.677986,29.1671361 142.1,20.15 L142.19,20.23 C142.746575,29.2110505 146.499625,37.6962073 152.77,44.15 Z" id="Shape" stroke="#686868" fill="#F4F4F4" fill-rule="nonzero"></path>
                <path d="M153.14,44.53 C153.41,44.81 153.69,45.09 153.98,45.36 C153.69,45.09 153.41,44.81 153.14,44.53 Z" id="Shape" stroke="#686868" fill="#F4F4F4" fill-rule="nonzero"></path>
                <path d="M166.45,90.86 C166.469758,90.9617157 166.496488,91.0619522 166.53,91.16 C166.333918,81.406479 164.9743,71.7112293 162.48,62.28 C161.067232,57.5821212 159.398063,52.9651981 157.48,48.45 C157.48,48.45 155.85,47.11 155.07,46.45 C154.68,46.11 154.3,45.76 153.94,45.45 C153.58,45.14 153.37,44.9 153.1,44.62 L152.73,44.24 C146.422677,37.7700314 142.637986,29.2571361 142.06,20.24 L141.95,20.34 C136.899442,25.3159697 130.174458,28.2291783 123.09,28.51 C116.0086,28.2286298 109.286942,25.3153169 104.24,20.34 L104.13,20.24 C103.547664,29.2560658 99.7636141,37.7675193 93.46,44.24 L93.09,44.62 C92.81,44.9 92.54,45.18 92.25,45.45 C91.96,45.72 91.51,46.16 91.12,46.45 C90.35,47.15 89.55,47.84 88.72,48.45 C88.72,48.45 88.47,49.09 88.72,48.45 C86.7055153,52.9164373 85.0340178,57.5297703 83.72,62.25 C81.2158797,71.6792469 79.8560955,81.3756838 79.67,91.13 C79.67,91.04 79.74,90.9 79.74,90.83 C81.96,96.19 82.74,101.47 84.51,106.67 C88.86,119.18 87.15,130.94 80.85,142.86 C93.15,145.67 108.21,148.96 123.06,149.06 C137.92,148.96 152.98,145.67 165.28,142.86 C158.97,130.94 157.28,119.18 161.61,106.67 C163.47,101.5 164.24,96.22 166.45,90.86 Z" id="Shape" stroke="#686868" fill="#F4F4F4" fill-rule="nonzero" stroke-linecap="square"></path>
                <path d="M157.52,48.45 C156.69,47.81 155.89,47.12 155.11,46.45 C154.72,46.11 154.34,45.76 153.98,45.45 C153.62,45.14 153.41,44.9 153.14,44.62 L152.77,44.24 C146.462677,37.7700314 142.677986,29.2571361 142.1,20.24 L141.99,20.34 C136.939442,25.3159697 130.214458,28.2291783 123.13,28.51 C116.0486,28.2286298 109.326942,25.3153169 104.28,20.34 L104.17,20.24 C103.587664,29.2560658 99.8036141,37.7675193 93.5,44.24 L93.13,44.62 C92.85,44.9 92.58,45.18 92.29,45.45 C92,45.72 91.55,46.16 91.16,46.45 C90.39,47.15 89.59,47.84 88.76,48.45 C90.03,49.45 99.49,82.45 123.13,82.45 C145.49,82.45 156.23,49.45 157.51,48.45 L157.52,48.45 Z" id="Shape" stroke="#686868" fill="#F4F4F4" fill-rule="nonzero" stroke-linejoin="bevel"></path>
            </g>
            <g id="length_all" transform="translate(64.000000, 143.000000)" fill="#3D3D3D" fill-rule="nonzero" stroke="#3D3D3D" stroke-linecap="square" stroke-linejoin="round">
                <path d="M112.9,25.2 C109.667707,16.7325287 105.893223,8.48210674 101.6,0.5 C89.3,3.3 74.2,6.6 59.4,6.7 C44.5,6.6 29.5,3.3 17.2,0.5 C12.9288673,8.4930673 9.15502942,16.7420757 5.9,25.2 C0.5,38.5 0.6,53.7 0.5,54.2 C2,55.2 3.6,56.2 5.2,57.1 C19.9,65.5 38.3,69.4 56.9,69.3 L61.9,69.3 C80.5,69.4 98.9,65.5 113.6,57.1 C115.2,56.2 116.8,55.2 118.3,54.2 C118.2,53.7 118.3,38.6 112.9,25.2 Z" id="length_all_1"></path>
            </g>
            <g id="length_2" transform="translate(64.000000, 143.000000)" fill="#676767" fill-rule="nonzero" stroke="#686868" stroke-linecap="square">
                <path d="M112.956,25.272 C109.723707,16.8045287 105.949223,8.55410674 101.656,0.572 C89.356,3.372 74.256,6.672 59.456,6.772 C44.556,6.672 29.556,3.372 17.256,0.572 C12.9848673,8.5650673 9.21102942,16.8140757 5.956,25.272 C0.556,38.572 0.656,53.772 0.556,54.272 C2.056,55.272 3.656,56.272 5.256,57.172 C19.956,65.572 38.356,69.472 56.956,69.372 L61.956,69.372 C80.556,69.472 98.956,65.572 113.656,57.172 C115.256,56.272 116.856,55.272 118.356,54.272 C118.256,53.772 118.356,38.672 112.956,25.272 Z" id="length_2_1"></path>
            </g>
            <g id="length_1" transform="translate(63.000000, 142.000000)">
                <g id="length_1_1">
                    <path d="M5.26874496,28.6516194 C4.29657579,31.0457807 3.36892433,34.5292339 2.49100322,39.0944237 C1.56970186,43.8851908 0.912277712,49.1007241 0.51901917,54.7408441 C15.7346958,64.5763184 35.8924241,69.5 61,69.5 C86.0994733,69.5 105.587928,64.2507951 119.477137,53.7689858 C118.833926,46.662972 118.177483,41.436925 117.50971,38.0980581 C116.868462,34.8918214 115.941241,31.7482967 114.727896,28.6671678 C96.8236635,36.5548009 78.9131864,40.5 61,40.5 C43.074569,40.5 24.4968259,36.5494306 5.26874496,28.6516194 Z" id="length_1-bottom" stroke="#676767" fill="#F4F4F4"></path>
                    <path d="M60.108,39.972 C81.308,39.972 100.508,35.372 114.608,27.872 C114.318441,26.9891255 113.984686,26.121364 113.608,25.272 C110.375707,16.8045287 106.601223,8.55410674 102.308,0.572 C90.008,3.372 74.908,6.672 60.108,6.772 C45.208,6.672 30.208,3.372 17.908,0.572 C13.6368673,8.5650673 9.86302942,16.8140757 6.608,25.272 C6.308,26.172 5.908,26.972 5.608,27.872 C19.708,35.372 38.908,39.972 60.108,39.972 Z" id="length_1-top" stroke="#686868" fill="#676767" fill-rule="nonzero" stroke-linecap="square"></path>
                </g>
            </g>
            <g id="length_0" transform="translate(63.000000, 142.000000)" fill="#F4F4F4" fill-rule="nonzero" stroke="#686868" stroke-linecap="square" stroke-linejoin="round">
                <path d="M113.6,26.3 C110.367733,17.832518 106.372858,8.27898793 102.108242,0.808895277 C98.0141217,1.85390063 94.9404639,2.57177679 92.8872687,2.96252374 C82.3107538,4.97535768 70.1435971,6.86842376 58.6813173,6.9458716 C43.7813173,6.8458716 30.2583991,3.60889528 17.9583991,0.808895277 C12.089486,12.1643489 8.07001961,20.6613838 5.9,26.3 C0.5,39.6 0.6,54.8 0.5,55.3 C2,56.3 3.6,57.3 5.2,58.2 C19.9,66.6 38.3,70.5 56.9,70.4 L61.9,70.4 C71.8524672,70.4535079 87.8651615,68.1283551 100.116886,64.2063622 C110.762206,60.7986079 118.379434,55.7649211 119.076815,55.3 C119,54.3515663 119,39.7 113.6,26.3 Z" id="length_0_1"></path>
            </g>
            <g id="top_core_all" transform="translate(79.000000, 20.000000)" fill-rule="nonzero">
                <path d="M0.6,71.3 C2.8,76.7 3.6,81.9 5.4,87.1 C9.7,99.6 8,111.4 1.7,123.3 C14,126.1 29.1,129.4 43.9,129.5 C58.8,129.4 73.8,126.1 86.1,123.3 C79.8,111.4 78.1,99.6 82.4,87.1 C84.2,81.9 84.9,76.6 87.2,71.3 C87.2,71.4 87.3,71.5 87.3,71.6 C67.6917012,66.5333333 53.2342938,64 43.9277778,64 C34.6212617,64 20.1786691,66.5333333 0.6,71.6 C0.5,71.5 0.6,71.4 0.6,71.3 Z" stroke="#3D3D3D" fill="#3D3D3D" stroke-linecap="square" stroke-linejoin="round"></path>
                <g id="top_neckline_0">
                    <path d="M82.804,86.6 C84.804,81.4 88,71 88,71 C88,71 86.704,51.5 83.804,42.2 C82.304,37.4 80.304,31.8 78.804,28.4 C78.804,28.4 77.204,27.1 76.404,26.4 C75.9890419,26.0850333 75.6189667,25.7149581 75.304,25.3 L74.504,24.5 L73,24.1 C69.8391183,20.8400185 73,62 44.5,62 C16,62 18.1618745,20.7571521 15,24 L14.304,24.5 L13.504,25.3 L12.404,26.4 C11.604,27.1 10.804,27.8 10.004,28.4 C8.004,32.8 6.804,37.5 5.004,42.2 C2.93733333,47.8 0.361650626,69.8618638 0.361650626,71.6930259 C0.361650626,72.9138006 1.90910042,77.882792 5.004,86.6 L82.804,86.6 Z" id="neckline_bottom_0" fill="#676767"></path>
                    <path d="M73,23 C66.6878773,16.4899798 63.995439,9.04813288 63.4,1.0658141e-14 C58.2416463,5.09258215 51.501594,8.01683763 44.4,8.3 C37.3028657,7.99737849 30.0695173,4.97603155 25,1.0658141e-14 C24,9 22,15 16,23 C19.2,49.6666667 28.7,63 44.5,63 C59.4333333,63 68.9333333,49.6666667 73,23 Z" id="neckline_top_0" stroke="#686868" fill="#F4F4F4"></path>
                </g>
            </g>
            <g id="top_core_3" transform="translate(75.000000, 20.000000)" fill-rule="nonzero">
                <path d="M4,71 C3.6917556,74.0582865 4.17580829,76.0912242 4,78 C1.4,96.7 1.5,113.3 0,134.6 C0,134.6 26.2,142.8 48,142.8 C69.6,142.8 96.5,134.6 96.5,134.6 C94.5,111.9 96.5,97.5 92.4,78.8 C92.4,78.8367172 92.7080661,75.3577851 92.4,71 C72.6111111,66.3333333 57.8944444,64 48.25,64 C38.25,64 23.5,66.3333333 4,71 Z" id="top_core_3_1" fill="#676767"></path>
                <g id="top_neckline_0" transform="translate(5.000000, 0.000000)">
                    <path d="M81.804,86.6 C83.804,81.4 87,71 87,71 C87,71 85.704,51.5 82.804,42.2 C81.304,37.4 79.304,31.8 77.804,28.4 C77.804,28.4 76.204,27.1 75.404,26.4 C74.9890419,26.0850333 74.6189667,25.7149581 74.304,25.3 L73.504,24.5 L72,24.1 C68.8391183,20.8400185 72,62 43.5,62 C15,62 17.1618745,20.7571521 14,24 L13.304,24.5 L12.504,25.3 L11.404,26.4 C10.604,27.1 9.804,27.8 9.004,28.4 C7.004,32.8 5.804,37.5 4.004,42.2 C1.93733333,47.8 0.602666667,57.7333333 0,72 L4.804,86.6 L81.804,86.6 Z" id="neckline_bottom_0" fill="#676767"></path>
                    <path d="M72,23 C65.6878773,16.4899798 62.995439,9.04813288 62.4,1.0658141e-14 C57.2416463,5.09258215 50.501594,8.01683763 43.4,8.3 C36.3028657,7.99737849 29.0695173,4.97603155 24,1.0658141e-14 C23,9 21,15 15,23 C18.2,49.6666667 27.7,63 43.5,63 C58.4333333,63 67.9333333,49.6666667 72,23 Z" id="neckline_top_0" stroke="#686868" fill="#F4F4F4"></path>
                </g>
            </g>
            <g id="top_core_2" transform="translate(75.000000, 20.000000)" fill-rule="nonzero">
                <path d="M5,71.4 C7.2,76.8 7.9,113.3 0,134.6 C0,134.6 26.2,142.8 48,142.8 C69.6,142.8 96.5,134.6 96.5,134.6 C90,113.7 89.8,76.7 92,71.4 C77.3333333,65.8 62.75,63 48.25,63 C33.75,63 19.3333333,65.8 5,71.4 Z" id="top_core_2-1" fill="#676767"></path>
                <g id="top_neckline_0" transform="translate(5.000000, 0.000000)">
                    <path d="M81.804,86.6 C83.804,81.4 87,71 87,71 C87,71 85.704,51.5 82.804,42.2 C81.304,37.4 79.304,31.8 77.804,28.4 C77.804,28.4 76.204,27.1 75.404,26.4 C74.9890419,26.0850333 74.6189667,25.7149581 74.304,25.3 L73.504,24.5 L72,24.1 C68.8391183,20.8400185 72,62 43.5,62 C15,62 17.1618745,20.7571521 14,24 L13.304,24.5 L12.504,25.3 L11.404,26.4 C10.604,27.1 9.804,27.8 9.004,28.4 C7.004,32.8 5.804,37.5 4.004,42.2 C1.93733333,47.8 0.602666667,57.7333333 0,72 L4.804,86.6 L81.804,86.6 Z" id="neckline_bottom_0" fill="#676767"></path>
                    <path d="M72,23 C65.6878773,16.4899798 62.995439,9.04813288 62.4,1.0658141e-14 C57.2416463,5.09258215 50.501594,8.01683763 43.4,8.3 C36.3028657,7.99737849 29.0695173,4.97603155 24,1.0658141e-14 C23,9 21,15 15,23 C18.2,49.6666667 27.7,63 43.5,63 C58.4333333,63 67.9333333,49.6666667 72,23 Z" id="neckline_top_0" stroke="#686868" fill="#F4F4F4"></path>
                </g>
            </g>
            <g id="top_core_1" transform="translate(75.000000, 20.000000)" fill-rule="nonzero">
                <path d="M5,71.4 C7.2,76.8 7.7,81.4 9.5,86.6 C13.8,99.1 13.1,113.6 0,134.6 C0,134.6 26.2,142.8 48,142.8 C69.6,142.8 96.5,134.6 96.5,134.6 C84.6,113.9 80.9,100.6 86.6,86.6 C88.8,81.5 90,76 91,71.4 C76.3333333,65.8 62.0833333,63 48.25,63 C34.4166667,63 20,65.8 5,71.4 Z" id="top_core_1_1" fill="#676767"></path>
                <g id="top_neckline_0" transform="translate(5.000000, 0.000000)">
                    <path d="M81.804,86.6 C83.804,81.4 87,71 87,71 C87,71 85.704,51.5 82.804,42.2 C81.304,37.4 79.304,31.8 77.804,28.4 C77.804,28.4 76.204,27.1 75.404,26.4 C74.9890419,26.0850333 74.6189667,25.7149581 74.304,25.3 L73.504,24.5 L72,24.1 C68.8391183,20.8400185 72,62 43.5,62 C15,62 17.1618745,20.7571521 14,24 L13.304,24.5 L12.504,25.3 L11.404,26.4 C10.604,27.1 9.804,27.8 9.004,28.4 C7.004,32.8 5.804,37.5 4.004,42.2 C1.93733333,47.8 0.602666667,57.7333333 0,72 L4.804,86.6 L81.804,86.6 Z" id="neckline_bottom_0" fill="#676767"></path>
                    <path d="M72,23 C65.6878773,16.4899798 62.995439,9.04813288 62.4,1.0658141e-14 C57.2416463,5.09258215 50.501594,8.01683763 43.4,8.3 C36.3028657,7.99737849 29.0695173,4.97603155 24,1.0658141e-14 C23,9 21,15 15,23 C18.2,49.6666667 27.7,63 43.5,63 C58.4333333,63 67.9333333,49.6666667 72,23 Z" id="neckline_top_0" stroke="#686868" fill="#F4F4F4"></path>
                </g>
            </g>
            <g id="top_core_0" transform="translate(80.000000, 20.000000)" fill-rule="nonzero">
                <path d="M7.10542736e-15,72 L4.804,86.6 C6.268,96.2 7,102.666667 7,106 C7,106 28.504,110.9 43.304,111 C58.204,110.9 80,106 80,106 C79,97 80,94 81.804,86.6 C83.804,81.4 87,71 87,71 C77,65.6666667 62.5,63 43.5,63 C24.5,63 10,66 7.10542736e-15,72 Z" id="top_core_0_1" fill="#676767"></path>
                <g id="top_neckline_0">
                    <path d="M81.804,86.6 C83.804,81.4 87,71 87,71 C87,71 85.704,51.5 82.804,42.2 C81.304,37.4 79.304,31.8 77.804,28.4 C77.804,28.4 76.204,27.1 75.404,26.4 C74.9890419,26.0850333 74.6189667,25.7149581 74.304,25.3 L73.504,24.5 L72,24.1 C68.8391183,20.8400185 72,62 43.5,62 C15,62 17.1618745,20.7571521 14,24 L13.304,24.5 L12.504,25.3 L11.404,26.4 C10.604,27.1 9.804,27.8 9.004,28.4 C7.004,32.8 5.804,37.5 4.004,42.2 C1.93733333,47.8 0.602666667,57.7333333 0,72 L4.804,86.6 L81.804,86.6 Z" id="neckline_bottom_0" fill="#676767"></path>
                    <path d="M72,23 C65.6878773,16.4899798 62.995439,9.04813288 62.4,1.0658141e-14 C57.2416463,5.09258215 50.501594,8.01683763 43.4,8.3 C36.3028657,7.99737849 29.0695173,4.97603155 24,1.0658141e-14 C23,9 21,15 15,23 C18.2,49.6666667 27.7,63 43.5,63 C58.4333333,63 67.9333333,49.6666667 72,23 Z" id="neckline_top_0" stroke="#686868" fill="#F4F4F4"></path>
                </g>
            </g>
            <g id="sleeves_all" transform="translate(26.000000, 49.000000)" fill="#3D3D3D" fill-rule="nonzero" stroke="#3D3D3D">
                <path d="M62.6,-6.66133815e-16 C55.7,5.2 44.9,8.8 36.5,8.8 C36.2,29.3 32.5,39.6 27.6,58.6 C25.8,68.2 23.3,78.1 18.6,87.9 C15.8,93.8 10.7,99.3 8.1,104.5 C4,112.5 1,119.8 0,124.1 C2.8,126.9 1.4,126.1 3.9,127.5 C6.4,128.9 7.3,128.9 10.8,128.1 C10.8,128.1 16.5,118.7 23.8,108.8 C32.5,97 43.4,83.8 46,75.6 C48.5,67.6 53.9,42.1 53.9,42.1 C53.9,42.1 54.4,15 62.6,-6.66133815e-16 Z M148.3,75.6 C150.9,83.8 161.7,97 170.5,108.8 C177.8,118.7 183.5,128.1 183.5,128.1 C187,129 187.9,129 190.4,127.5 C192.9,126.1 191.4,127 194.3,124.1 C193.3,119.7 190.3,112.4 186.2,104.5 C183.5,99.4 178.5,93.8 175.7,87.9 C171,78.1 168.5,68.2 166.7,58.6 C161.8,39.7 158.2,29.3 157.8,8.8 C149.4,8.8 138.6,5.2 131.7,-6.66133815e-16 C139.9,15 140.4,42.1 140.4,42.1 C140.4,42.1 145.7,67.6 148.3,75.6 Z" id="sleeves_all_1"></path>
            </g>
            <g id="sleeves_5" transform="translate(6.000000, 48.000000)" fill="#676767" fill-rule="nonzero">
                <path d="M83.7739731,0 C76.8739731,5.2 64.7,9 56.4,9 C54.8,19.9 51.6,40.5 46.7,59.4 C44.2,69 1.9,120.7 -2.27373675e-13,129.9 C2.8,132.7 14,139 16.5,140.4 C19,141.8 34.5,148.5 38,147.6 L68.4219559,73.8414185 L74,42.3 C74,42.3 75.6739731,15.6 83.7739731,0 Z M165.027442,73.8414185 L196.6,147.6 C200.1,148.5 215.5,141.8 218.1,140.4 C220.7,139 231.8,132.7 234.6,129.9 C232.8,120.7 190.4,69 187.9,59.4 C183,40.5 179.8,19.9 178.2,9 C169.8,9 157.717848,5.2 150.817848,1.42108547e-14 C158.917848,15.6 160.6,42.3 160.6,42.3 L165.027442,73.8414185 Z" id="sleeves_5_1"></path>
            </g>
            <g id="sleeves_4" transform="translate(26.000000, 49.000000)" fill="#676767" fill-rule="nonzero">
                <path d="M62.6,-6.66133815e-16 C55.7,5.2 44.9,8.8 36.5,8.8 C36.4707952,10.7956624 36.04802,12.8241902 35.9054616,14.6523261 C35.5107196,19.7144059 35.0864089,24.0656771 34.4128327,28.2598578 C32.8308577,38.1103978 30.7021493,46.5712579 27.6,58.6 C27.1315071,61.0986287 26.1875505,63.8009086 25.5977708,66.3331301 C23.9215535,73.5299759 22.076713,80.6506835 18.6,87.9 C15.8,93.8 10.7,99.3 8.1,104.5 C4.88992443,110.181317 1,119.8 0,124.1 C2.8,126.9 1.4,126.1 3.9,127.5 C6.4,128.9 7.3,128.9 10.8,128.1 C10.8,128.1 16.8147635,119.15235 24.1147635,109.25235 C28.2490759,103.644892 32.4988525,98.0046043 36.5,92.4516446 C38.4211924,89.7853335 40.4327896,87.5516441 42.0544918,84.975061 C44.1626079,81.6256565 45.7037942,78.0322469 46.4749944,75.6 C48.9749944,67.6 53.9,42.1 53.9,42.1 C53.9,42.1 54.8153404,22.1392677 60.0280923,7.02588945 C60.486921,5.69560342 60.9482097,4.34703535 61.3436296,3.1565538 C61.716572,2.03374522 62.0186875,1.06337648 62.6,-6.66133815e-16 Z M148.3,75.6 C149.566577,79.5945885 152.171467,85.2826749 156.150765,90.9104969 C160.34008,96.8353391 165.49499,103.200661 170.008114,109.25235 C177.308114,119.15235 183.5,128.1 183.5,128.1 C187,129 187.9,129 190.4,127.5 C192.9,126.1 191.4,127 194.3,124.1 C193.3,119.7 190.3,112.4 186.2,104.5 C183.5,99.4 178.5,93.8 175.7,87.9 C171,78.1 168.5,68.2 166.7,58.6 C161.8,39.7 158.2,29.3 157.8,8.8 C149.4,8.8 138.6,5.2 131.7,-6.66133815e-16 C132.99425,2.3675307 133.814969,5.98373298 134.753885,8.8 C139.763671,23.8267985 140.4,42.1 140.4,42.1 C140.4,42.1 145.7,67.6 148.3,75.6 Z" id="sleeves_4_1"></path>
            </g>
            <g id="sleeves_3" transform="translate(33.000000, 49.000000)" fill="#676767" fill-rule="nonzero">
                <path d="M55.6,0 C48.7,5.2 37.4793853,8.8 28.926788,8.8 C28.926788,21.1868716 24.957059,39.6 20.057059,58.6 C18.257059,68.2 15.7716612,78.1 11.0716612,87.9 C8.27166122,93.8 1.0361521,106.178283 0.480835784,107.8 C-0.0961269226,109.484932 0.00939894809,108.922053 4,112 C7.20271087,114.470248 10.136622,116.87619 11.9213911,116.411723 C12.8450628,115.510711 15.4504364,110.986394 17.8,107.8 C26.5,96 36.4,83.8 39,75.6 C41.5,67.6 46.9,42.1 46.9,42.1 C46.9,42.1 47.4,15 55.6,0 Z M140.643189,75.6 C143.243189,83.8 152.7,95 161.5,106.8 C163.803897,109.924463 166.527472,113.949424 166.527472,113.949424 C166.527472,113.949424 170.319752,113.023683 174.162321,110.548073 C176.575447,108.993395 178.081303,107.860646 178.960986,106.958327 C178.960986,105.355353 171.5,93.8 168.7,87.9 C164,78.1 161.5,68.2 159.7,58.6 C155.174171,39.5451598 151.565369,29.3 151.165369,8.8 C142.765369,8.8 131.6,5.2 124.7,0 C132.9,15 133.4,42.1 133.4,42.1 C133.4,42.1 138.043189,67.6 140.643189,75.6 Z" id="sleeves_3_1"></path>
            </g>
            <g id="sleeves_2" transform="translate(54.000000, 48.000000)" fill="#676767" fill-rule="nonzero">
                <path d="M34.7,0 C27.8,5.2 16.3,9.1 8,9.1 C7.48525012,25.254152 4.79433353,41.2651057 -2.27373675e-13,56.7 C2.8,59.5 8.3,62.5 12.9,62.5 C17.5,62.5 20,61.4 22.3,59.6 L25.9,42.4 C25.9,42.4 25.9,17.9 34.7,0 Z M112.5,42.4 L116.1,59.6 C118.796478,61.6387403 122.123587,62.6651887 125.5,62.5 C130,62.5 135.6,59.5 138.4,56.7 C132.3,37.2 130.4,18.4 130.4,9.1 C122,9.1 110.6,5.2 103.7,7.10542736e-15 C112.5,17.9 112.5,42.4 112.5,42.4 Z" id="sleeves_2_1"></path>
            </g>
            <g id="sleeves_1" transform="translate(61.000000, 48.000000)" fill="#676767" fill-rule="nonzero">
                <path d="M22.501,14.4 C20.901,20.8 19.801,28.7 19.801,28.7 C16.501,30 11.101,30.9 8.801,30.6 C5.701,30 -0.099,28.9 0.001,26 C0.101,19.4 0.801,12.9 1.001,9.7 C9.401,9.1 13.479853,8.28141738 27.079853,1.18141738 C26.979853,1.18141738 23.301,11.3 22.501,14.4 Z M96.6176158,0.921121188 C96.9150756,1.83667823 114.401,9.1 122.801,9.7 C123.001,12.9 123.701,19.4 123.801,26 C123.901,28.9 118.001,30 115.001,30.6 C112.801,31 107.301,30.1 104.001,28.7 C104.001,28.7 102.901,20.9 101.301,14.4 C100.401,11.3 96.320156,0.0055641513 96.6176158,0.921121188 Z" id="sleeves_1_1"></path>
            </g>
            <g id="sleeves_0" transform="translate(0.000000, 48.000000)"></g>
            <g id="shoulder_all" transform="translate(62.000000, 20.000000)" fill="#3D3D3D" fill-rule="nonzero" stroke="#3D3D3D" stroke-linecap="square" stroke-linejoin="round">
                <path d="M14.6,35.6 C10.0505678,37.1170659 5.29514545,37.9264995 0.5,38 C0.6,36.2 0.7,34.5 0.8,32.7 C1.5,22.1 6.4,14.6 18.9,11.2 C24.9,9.6 30.3,6.4 36.1,4.2 C38.4573832,3.40282937 40.6328483,2.14513858 42.5,0.5 L42.4,0.6 C41.865243,9.61379244 38.102346,18.1335594 31.8,24.6 L31.4,25 L30.6,25.8 L29.5,26.9 C27.1839094,28.9877124 24.6335438,30.7998143 21.9,32.3 C21.8,32.4 21.7,32.4 21.6,32.5 L20.4,33.1 L19.8,33.4 C19.5200303,33.5744797 19.2171192,33.7091068 18.9,33.8 C18.6148092,33.8925245 18.3451341,34.0273621 18.1,34.2 C17.7738147,34.3505519 17.440032,34.4840649 17.1,34.6 C16.8,34.7 16.6,34.8 16.3,34.9 C15.751746,35.1757589 15.1834662,35.4097564 14.6,35.6 Z M108.4,35.6 C112.949432,37.1170659 117.704855,37.9264995 122.5,38 C122.4,36.2 122.3,34.5 122.2,32.7 C121.5,22.1 116.6,14.6 104.1,11.2 C98.1,9.6 92.7,6.4 86.9,4.2 C84.5426168,3.40282937 82.3671517,2.14513858 80.5,0.5 L80.6,0.6 C81.134757,9.61379244 84.897654,18.1335594 91.2,24.6 L91.6,25 L92.4,25.8 L93.5,26.9 C95.8160906,28.9877124 98.3664562,30.7998143 101.1,32.3 C101.2,32.4 101.3,32.4 101.4,32.5 L102.6,33.1 L103.2,33.4 C103.47997,33.5744797 103.782881,33.7091068 104.1,33.8 C104.385191,33.8925245 104.654866,34.0273621 104.9,34.2 C105.226185,34.3505519 105.559968,34.4840649 105.9,34.6 C106.2,34.7 106.4,34.8 106.7,34.9 C107.240184,35.1930754 107.81007,35.4277344 108.4,35.6 Z" id="shoulder_all_1"></path>
            </g>
            <g id="shoulder_4" transform="translate(62.000000, 20.000000)" fill="#676767" fill-rule="nonzero">
                <path d="M14.1,35.1 C9.55056782,36.6170659 4.79514545,37.4264995 -2.27373675e-13,37.5 C0.1,35.7 0.2,34 0.3,32.2 C1,21.6 5.9,14.1 18.4,10.7 C24.4,9.1 29.8,5.9 35.6,3.7 C37.9573832,2.90282937 40.1328483,1.64513858 42,1.36557432e-14 L41.9,0.1 C41.365243,9.11379244 37.602346,17.6335594 31.3,24.1 L30.9,24.5 L30.1,25.3 L29,26.4 C26.6839094,28.4877124 24.1335438,30.2998143 21.4,31.8 C21.3,31.9 21.2,31.9 21.1,32 L19.9,32.6 L19.3,32.9 C19.0200303,33.0744797 18.7171192,33.2091068 18.4,33.3 C18.1148092,33.3925245 17.8451341,33.5273621 17.6,33.7 C17.2738147,33.8505519 16.940032,33.9840649 16.6,34.1 C16.3,34.2 16.1,34.3 15.8,34.4 C15.2598059,34.6930548 14.689922,34.9277129 14.1,35.1 Z M107.9,35.1 C112.449432,36.6170659 117.204855,37.4264995 122,37.5 C121.9,35.7 121.8,34 121.7,32.2 C121,21.6 116.1,14.1 103.6,10.7 C97.6,9.1 92.2,5.9 86.4,3.7 C84.0426168,2.90282937 81.8671517,1.64513858 80,1.72084569e-14 L80.1,0.1 C80.634757,9.11379244 84.397654,17.6335594 90.7,24.1 L91.1,24.5 L91.9,25.3 L93,26.4 C95.3160906,28.4877124 97.8664562,30.2998143 100.6,31.8 C100.7,31.9 100.8,31.9 100.9,32 L102.1,32.6 L102.7,32.9 C102.97997,33.0744797 103.282881,33.2091068 103.6,33.3 C103.885191,33.3925245 104.154866,33.5273621 104.4,33.7 C104.726185,33.8505519 105.059968,33.9840649 105.4,34.1 C105.7,34.2 105.9,34.3 106.2,34.4 C106.748233,34.6758039 107.316517,34.9098029 107.9,35.1 Z" id="shoulder_4_1"></path>
            </g>
            <g id="shoulder_3" transform="translate(71.000000, 25.000000)" fill="#676767" fill-rule="nonzero">
                <g id="shoulder_3_1">
                    <path d="M0,10 C0,10 1,21 2,31 C9.77970904,28.4664345 18.726401,23.3698672 24.1,17.2 C24.1,17.2 25.3,6.7 23,0 C20.1,1.3 16.2,3.5 13.2,4.5 C12.1396888,4.81185625 7.43170515,6.52711098 4,8 C1.92964261,8.8885981 0.63968876,9.73659875 0,10 Z" id="Path_44_6_"></path>
                    <path d="M90,4 C86.3658184,2.74963104 84.4237966,1.74594255 81,0 C78.7,6.7 80,18 80,18 C85.373599,24.1698672 94.220291,28.4664345 102,31 C101.916813,22.6813369 103,9.83186631 103,9 C103,8.16813369 101.672535,8.16813369 101,8 C100.406624,7.75566878 97.1429938,6.57149688 96,6 C94,5 91.1066242,4.3254777 90,4 Z" id="Path_44_5_"></path>
                </g>
            </g>
            <g id="shoulder_2" transform="translate(78.000000, 26.000000)" fill="#676767" fill-rule="nonzero">
                <g id="shoulder_2_1">
                    <path d="M0.9,5.8 C0.4,11.1 0.1,18.7 0,28.8 C6.7,26.8 11.1,22.7 16,18.1 C16,18.1 17.2,6.7 14.9,0 C12,1.3 9.4,2.9 6.3,3.8 C4.45737051,4.34536996 2.65333381,5.0135317 0.9,5.8 Z" id="Path_44_8_"></path>
                    <path d="M83.6,3.8 C80.5,2.9 77.9,1.3 75,0 C72.7,6.7 73.9,18.1 73.9,18.1 C78.8,22.7 83.1,26.8 89.9,28.8 C89.8,18.8 89.6,11.1 89,5.8 C87.2466481,5.01357604 85.4426144,4.34541542 83.6,3.8 Z" id="Path_44_7_"></path>
                </g>
            </g>
            <g id="shoulder_1" transform="translate(88.000000, 26.000000)" fill="#676767" fill-rule="nonzero">
                <g id="shoulder_1_1">
                    <path d="M-1.13686838e-13,23.2 C0.1,12.9 0.3,2.3 0.3,2.3 C0.3,2.3 1,1.9 5.1,0.1 C4.8,6 5.6,18.4 5.6,18.4 C3.8,20 2.1,21.5 -1.13686838e-13,23.2 Z" id="shoulder_left_1"></path>
                    <path d="M64.1,18.3 C64.1,18.3 64.9,5.9 64.6,0 C68.7,1.8 69.4,2.2 69.4,2.2 C69.4,2.2 69.6,12.8 69.7,23.1 C67.7464939,21.6041865 65.8769872,20.0017522 64.1,18.3 Z" id="shoulder_right_1"></path>
                </g>
            </g>
            <g id="shoulder_0" transform="translate(62.000000, 20.000000)" fill="#F4F4F4" fill-rule="nonzero" stroke="#686868" stroke-linecap="square" stroke-linejoin="round" stroke-width="0.5">
                <path d="M14.6,35.6 C10.0505678,37.1170659 5.29514545,37.9264995 0.5,38 C0.6,36.2 0.7,34.5 0.8,32.7 C1.4,22.1 6.4,14.6 18.9,11.2 C24.9,9.6 30.3,6.4 36.1,4.2 C38.4573832,3.40282937 40.6328483,2.14513858 42.5,0.5 L42.4,0.6 C41.865243,9.61379244 38.102346,18.1335594 31.8,24.6 L31.4,25 L30.6,25.8 L29.5,26.9 C27.1839263,28.9877335 24.6335581,30.7998372 21.9,32.3 C21.8,32.4 21.7,32.4 21.6,32.5 L20.4,33.1 L19.8,33.4 C19.5200303,33.5744797 19.2171192,33.7091068 18.9,33.8 C18.6148092,33.8925245 18.3451341,34.0273621 18.1,34.2 C17.7738161,34.3505552 17.4400333,34.4840683 17.1,34.6 C16.8,34.7 16.6,34.8 16.3,34.9 C15.7,35.2 15.1,35.4 14.6,35.6 Z M108.3,35.6 C112.849432,37.1170659 117.604855,37.9264995 122.4,38 C122.3,36.2 122.2,34.5 122.1,32.7 C121.4,22.1 116.5,14.6 104,11.2 C98,9.6 92.6,6.4 86.8,4.2 C84.4426168,3.40282937 82.2671517,2.14513858 80.4,0.5 L80.5,0.6 C81.034757,9.61379244 84.797654,18.1335594 91.1,24.6 L91.5,25 L92.3,25.8 L93.4,26.9 C95.7160737,28.9877335 98.2664419,30.7998372 101,32.3 C101.1,32.4 101.2,32.4 101.3,32.5 L102.5,33.1 L103.1,33.4 C103.37997,33.5744797 103.682881,33.7091068 104,33.8 C104.285191,33.8925245 104.554866,34.0273621 104.8,34.2 C105.126184,34.3505552 105.459967,34.4840683 105.8,34.6 C106.1,34.7 106.3,34.8 106.6,34.9 C107.2,35.2 107.8,35.4 108.3,35.6 Z" id="shoulder_0_1"></path>
            </g>
            <g id="top_collar_all" transform="translate(104.000000, 6.000000)" fill="#3D3D3D" fill-rule="nonzero" stroke="#3D3D3D" stroke-linecap="square" stroke-linejoin="round">
                <path d="M37.6,13.7 C36.8,12.9 32.2,6.1 33.2,0.5 C30.5,2.8 26.8,6.5 18.8,6.4 C10.8,6.3 7.7,2.7 5.1,0.5 C4.8,7.2 1.9,12.5 0.5,13.8 C5.28784847,18.9735437 12.0229136,21.9064297 19.0719338,21.8874296 C26.120954,21.8684296 32.8401106,18.8992788 37.6,13.7 Z" id="top_collar_all_1"></path>
            </g>
            <g id="top_collar_2" transform="translate(104.000000, 7.000000)" fill="#676767" fill-rule="nonzero">
                <path d="M33.7,-8.8817842e-16 C31,2.3 27.3,6 19.3,5.9 C11.3,5.8 7.6,2.2 5,-8.8817842e-16 C6,4 1.4,11.9 0,13.2 C4.78784847,18.3735437 12.5229136,21.4064297 19.5719338,21.3874296 C26.620954,21.3684296 33.3401106,18.3992788 38.1,13.2 C37.3,12.4 32.7,5.6 33.7,-8.8817842e-16 Z" id="top_collar_2_1"></path>
            </g>
            <g id="top_collar_1" transform="translate(104.000000, 14.000000)" fill="#676767" fill-rule="nonzero">
                <path d="M37.7,6.3 C36.8,5.5 34.6,1.2 33.8,0 C31,2.1 27.1,4.7 19,4.6 C13.6305498,4.68775039 8.33946076,3.30445913 3.7,0.6 C2.77688862,2.68426862 1.52793323,4.60833503 0,6.3 C10.4149235,16.7000459 27.2850765,16.7000459 37.7,6.3 Z" id="top_collar_1_1"></path>
            </g>
            <g id="top_collar_0" transform="translate(104.000000, 0.000000)" fill="#F4F4F4" fill-rule="nonzero" stroke="#686868" stroke-linecap="square" stroke-linejoin="round">
                <path d="M33.6,6.8 C29.8286701,3.04623341 24.8123195,0.804885276 19.5,0.5 C14.1828444,0.784934514 9.15969501,3.02932043 5.4,6.8 C5.5,12.2 4.2,16.8 0.5,20.1 L0.6,20.2 C5.69351865,25.12637 12.4198571,28.0090865 19.5,28.3 C26.5757973,27.9899821 33.295644,25.1100478 38.4,20.2 L38.5,20.1 C34.8,16.8 33.5,12.3 33.6,6.8 Z" id="top_collar_0_1"></path>
            </g>
            <g id="neckline_all" transform="translate(80.000000, 20.000000)" fill="#3D3D3D" fill-rule="nonzero">
                <g id="neclikne_all_1">
                    <path d="M82.804,42.2 C81.304,37.4 79.304,31.8 77.804,28.4 C77.804,28.4 76.204,27.1 75.404,26.4 C74.9890419,26.0850333 74.6189667,25.7149581 74.304,25.3 L73.504,24.5 L72,24.1 C68.8391183,20.8400185 72,62 43.5,62 C15,62 17.1618745,20.7571521 14,24 L13.304,24.5 L12.504,25.3 L11.404,26.4 C10.604,27.1 9.804,27.8 9.004,28.4 C7.004,32.8 5.804,37.5 4.004,42.2 C1.93733333,47.8 0.602666667,57.7333333 0,72 C51.1947119,72.0715611 79.9049753,72.0715611 86.1307903,72 C88.4902155,71.9728802 85.704,51.5 82.804,42.2 Z" id="neckline_bottom_all"></path>
                    <path d="M72,23 C65.6878773,16.4899798 62.995439,9.04813288 62.4,1.0658141e-14 C57.2416463,5.09258215 50.501594,8.01683763 43.4,8.3 C36.3028657,7.99737849 29.0695173,4.97603155 24,1.0658141e-14 C23,9 20.3913009,15 14.3913009,23 C16.2552567,37.3232484 18.5795886,46.689737 21.3642966,51.099466 C26.3512741,58.9966026 34.9017999,63 43.5,63 C51.8524092,63 59.5671425,59.4416303 64.5201197,51.099466 C67.1217776,46.7175646 69.6150711,37.3510759 72,23 Z" id="neckline_top_all"></path>
                </g>
            </g>
            <g id="neckline_2" transform="translate(80.000000, 20.000000)" fill="#676767" fill-rule="nonzero">
                <g id="neckline_2_1">
                    <path d="M82.804,42.2 C81.304,37.4 79.304,31.8 77.804,28.4 C77.804,28.4 76.204,27.1 75.404,26.4 C74.9890419,26.0850333 74.6189667,25.7149581 74.304,25.3 L73.504,24.5 L72,24.1 C68.8391183,20.8400185 72,62 43.5,62 C15,62 17.1618745,20.7571521 14,24 L13.304,24.5 L12.504,25.3 L11.404,26.4 C10.604,27.1 9.804,27.8 9.004,28.4 C7.004,32.8 5.804,37.5 4.004,42.2 C1.93733333,47.8 0.602666667,57.7333333 0,72 C51.1947119,72.0715611 79.9049753,72.0715611 86.1307903,72 C88.4902155,71.9728802 85.704,51.5 82.804,42.2 Z" id="neckline_bottom_2"></path>
                    <path d="M72,23 C65.6878773,16.4899798 62.995439,9.04813288 62.4,1.0658141e-14 C57.2416463,5.09258215 50.501594,8.01683763 43.4,8.3 C36.3028657,7.99737849 29.0695173,4.97603155 24,1.0658141e-14 C23,9 20.3913009,15 14.3913009,23 C16.2552567,37.3232484 18.5795886,46.689737 21.3642966,51.099466 C26.3512741,58.9966026 34.9017999,63 43.5,63 C51.8524092,63 59.5671425,59.4416303 64.5201197,51.099466 C67.1217776,46.7175646 69.6150711,37.3510759 72,23 Z" id="neckline_top_2"></path>
                </g>
            </g>
            <g id="neckline_1" transform="translate(80.000000, 20.000000)" fill-rule="nonzero">
                <g id="neckline_1_1">
                    <path d="M82.804,42.2 C81.304,37.4 79.304,31.8 77.804,28.4 C77.804,28.4 76.204,27.1 75.404,26.4 C74.9890419,26.0850333 74.6189667,25.7149581 74.304,25.3 L73.504,24.5 L72,24.1 C68.8391183,20.8400185 71.804,42.2 43.304,42.2 C14.804,42.2 17.1618745,20.7571521 14,24 L13.304,24.5 L12.504,25.3 L11.404,26.4 C10.604,27.1 9.804,27.8 9.004,28.4 C7.004,32.8 5.804,37.5 4.004,42.2 C1.93733333,47.8 0.602666667,57.7333333 0,72 C52.6206058,72.0549243 81.320115,72.0549243 86.0985275,72 C87.3086365,71.9860907 85.704,51.5 82.804,42.2 Z" id="-neckline_bottom_1" fill="#676767"></path>
                    <path d="M72,23.2 C65.8,16 63,9 62.4,1.0658141e-14 C57.2416463,5.09258215 50.501594,8.01683763 43.4,8.3 C36.3028657,7.99737849 29.0695173,4.97603155 24,1.0658141e-14 C22.5,8.2 21,15 15,23 C18.1333333,35.6666667 27.6,42 43.4,42 C58.3333333,42 67.8666667,35.7333333 72,23.2 Z" id="-neckline_top_1" stroke="#979797" fill="#F4F4F4"></path>
                </g>
            </g>
            <g id="neckline_0" transform="translate(80.000000, 20.000000)" fill-rule="nonzero">
                <g id="necline_0_1">
                    <path d="M87,71 C87,71 85.704,51.5 82.804,42.2 C81.304,37.4 79.304,31.8 77.804,28.4 C77.804,28.4 76.204,27.1 75.404,26.4 C74.9890419,26.0850333 74.6189667,25.7149581 74.304,25.3 L73.504,24.5 L72,24.1 C68.8391183,20.8400185 72,62 43.5,62 C15,62 17.1618745,20.7571521 14,24 L13.304,24.5 L12.504,25.3 L11.404,26.4 C10.604,27.1 9.804,27.8 9.004,28.4 C7.004,32.8 5.804,37.5 4.004,42.2 C1.93733333,47.8 0.602666667,57.7333333 0,72 C58,71.3333333 87,71 87,71 Z" id="neckline_bottom_0" fill="#676767"></path>
                    <path d="M72,23 C65.6878773,16.4899798 62.995439,9.04813288 62.4,1.0658141e-14 C57.2416463,5.09258215 50.501594,8.01683763 43.4,8.3 C36.3028657,7.99737849 29.0695173,4.97603155 24,1.0658141e-14 C23,9 21,15 15,23 C18.2,49.6666667 27.7,63 43.5,63 C58.4333333,63 67.9333333,49.6666667 72,23 Z" id="neckline_top_0" stroke="#686868" fill="#F4F4F4"></path>
                </g>
            </g>
            <g id="sleeves_0_HL" fill-rule="nonzero" fill="black" fill-opacity="1">
                <use filter="url(#filter-2)" xlink:href="#path-1"></use>
            </g>
            <g id="sleeves_1_HL" fill-rule="nonzero" fill="black" fill-opacity="1">
                <use filter="url(#filter-4)" xlink:href="#path-3"></use>
            </g>
            <g id="sleeves_2_HL" fill-rule="nonzero" fill="black" fill-opacity="1">
                <use filter="url(#filter-6)" xlink:href="#path-5"></use>
            </g>
            <g id="sleeves_3_HL" fill-rule="nonzero" fill="black" fill-opacity="1">
                <use filter="url(#filter-8)" xlink:href="#path-7"></use>
            </g>
            <g id="sleeves_4_HL" fill-rule="nonzero" fill="black" fill-opacity="1">
                <use filter="url(#filter-10)" xlink:href="#path-9"></use>
            </g>
            <g id="sleeves_5_HL" fill-rule="nonzero" fill="black" fill-opacity="1">
                <use filter="url(#filter-12)" xlink:href="#path-11"></use>
            </g>
            <g id="sleeves_all_HL" fill-rule="nonzero" fill="black" fill-opacity="1">
                <use filter="url(#filter-14)" xlink:href="#path-13"></use>
            </g>
            <g id="top_core_0_HL" fill-rule="nonzero" fill="black" fill-opacity="1">
                <use filter="url(#filter-16)" xlink:href="#path-15"></use>
            </g>
            <g id="top_core_1_HL" fill-rule="nonzero" fill="black" fill-opacity="1">
                <use filter="url(#filter-18)" xlink:href="#path-17"></use>
            </g>
            <g id="top_core_2_HL" fill-rule="nonzero" fill="black" fill-opacity="1">
                <use filter="url(#filter-20)" xlink:href="#path-19"></use>
            </g>
            <g id="top_core_3_HL" fill-rule="nonzero" fill="black" fill-opacity="1">
                <use filter="url(#filter-22)" xlink:href="#path-21"></use>
            </g>
            <g id="top_core_all_HL" fill-rule="nonzero" fill="black" fill-opacity="1">
                <use filter="url(#filter-24)" xlink:href="#path-23"></use>
            </g>
            <g id="shoulder_0_HL" fill-rule="nonzero" fill="black" fill-opacity="1">
                <use filter="url(#filter-26)" xlink:href="#path-25"></use>
            </g>
            <g id="shoulder_1_HL" transform="translate(88.000000, 24.000000)" fill="black" fill-opacity="1" fill-rule="nonzero">
                <g id="shoulder_left_1_HL">
                    <use filter="url(#filter-28)" xlink:href="#path-27"></use>
                </g>
                <g id="shoulder_right_1_HL">
                    <use filter="url(#filter-30)" xlink:href="#path-29"></use>
                </g>
            </g>
            <g id="shoulder_2_HL" transform="translate(79.000000, 24.000000)" fill="black" fill-opacity="1" fill-rule="nonzero">
                <g id="shoulder_highlight_left_2">
                    <use filter="url(#filter-32)" xlink:href="#path-31"></use>
                </g>
                <g id="shoulder_highlight_right_2">
                    <use filter="url(#filter-34)" xlink:href="#path-33"></use>
                </g>
            </g>
            <g id="shoulder_3_HL" transform="translate(68.000000, 23.000000)" fill="black" fill-opacity="1" fill-rule="nonzero">
                <g id="shoulder_left_highlight_3">
                    <use filter="url(#filter-36)" xlink:href="#path-35"></use>
                </g>
                <g id="shoulder_right_highlight_3">
                    <use filter="url(#filter-38)" xlink:href="#path-37"></use>
                </g>
            </g>
            <g id="shoulder_4_HL" fill-rule="nonzero" fill="black" fill-opacity="1">
                <use filter="url(#filter-40)" xlink:href="#path-39"></use>
            </g>
            <g id="shoulder_all_HL" fill-rule="nonzero" fill="black" fill-opacity="1">
                <use filter="url(#filter-42)" xlink:href="#path-41"></use>
            </g>
            <g id="top_collar_0_HL" fill-rule="nonzero" fill="black" fill-opacity="1">
                <use filter="url(#filter-44)" xlink:href="#path-43"></use>
            </g>
            <g id="top_collar_1_HL" fill-rule="nonzero" fill="black" fill-opacity="1">
                <use filter="url(#filter-46)" xlink:href="#path-45"></use>
            </g>
            <g id="top_collar_2_HL" fill-rule="nonzero" fill="black" fill-opacity="1">
                <use filter="url(#filter-48)" xlink:href="#path-47"></use>
            </g>
            <g id="top_collar_all_HL" fill-rule="nonzero" fill="black" fill-opacity="1">
                <use filter="url(#filter-50)" xlink:href="#path-49"></use>
            </g>
            <g id="length_0_HL" fill-rule="nonzero" fill="black" fill-opacity="1">
                <use filter="url(#filter-52)" xlink:href="#path-51"></use>
            </g>
            <g id="length_1_HL" fill-rule="nonzero" fill="black" fill-opacity="1">
                <use filter="url(#filter-54)" xlink:href="#path-53"></use>
            </g>
            <g id="length_2_HL" fill-rule="nonzero" fill="black" fill-opacity="1">
                <use filter="url(#filter-56)" xlink:href="#path-55"></use>
            </g>
            <g id="length_all_HL" fill-rule="nonzero" fill="black" fill-opacity="1">
                <use filter="url(#filter-58)" xlink:href="#path-57"></use>
            </g>
            <g id="neckline_0_HL" fill-rule="nonzero" fill="black" fill-opacity="1">
                <use filter="url(#filter-60)" xlink:href="#path-59"></use>
            </g>
            <g id="neckline_1_HL" fill-rule="nonzero" fill="black" fill-opacity="1">
                <use filter="url(#filter-62)" xlink:href="#path-61"></use>
            </g>
            <g id="neckline_2_HL" fill-rule="nonzero" fill="black" fill-opacity="1">
                <use filter="url(#filter-64)" xlink:href="#path-63"></use>
            </g>
            <g id="neckline_all_HL" fill-rule="nonzero" fill="black" fill-opacity="1">
                <use filter="url(#filter-66)" xlink:href="#path-65"></use>
            </g>
        </g>
    </g>
</svg>