<?xml version="1.0" encoding="UTF-8"?>
<svg width="42px" height="158px" viewBox="0 0 42 158" version="1.1" xmlns="http://www.w3.org/2000/svg" xmlns:xlink="http://www.w3.org/1999/xlink">
    <!-- Generator: Sketch 50.2 (55047) - http://www.bohemiancoding.com/sketch -->
    <title>neckline_thumbnails</title>
    <desc>Created with Sketch.</desc>
    <defs></defs>
    <g id="Page-1" stroke="none" stroke-width="1" fill="none" fill-rule="evenodd">
        <g id="neckline_thumbnails" transform="translate(0.000000, -4.000000)">
            <g id="ALL" transform="translate(10.000000, 0.000000)" fill="#686868" fill-opacity="0.775334013" font-family="Muli-Bold, Muli" font-size="13" font-weight="bold">
                <text>
                    <tspan x="0" y="14">ALL</tspan>
                </text>
            </g>
            <g id="neckline_thumbnails_0" transform="translate(0.000000, 35.000000)" fill-rule="nonzero">
                <path d="M28.2957326,9.20301188 C28.2447875,9.18603022 28.2118856,9.16904857 28.1609405,9.15206684 C28.1059027,9.12651802 28.0495749,9.10384525 27.992185,9.08414008 C27.9441001,9.06839037 27.8986602,9.04549157 27.8573929,9.01621338 C27.8064478,8.99923166 27.7512573,8.96526834 27.705619,8.94828662 L27.5994835,8.89734158 L27.3967647,8.79120602 C27.3797829,8.77422436 27.3628013,8.77422436 27.3458196,8.7572427 C26.8861008,8.5025397 26.4563968,8.19708308 26.0647638,7.84659985 C25.9946907,7.79342455 25.9322018,7.73093565 25.8790265,7.66086263 L25.7442344,7.52607052 L25.6763077,7.45814376 C24.6135719,6.36777315 23.9790825,4.9311295 23.8889853,3.41119597 L23.8783718,3.40270513 C24.1951066,3.67762569 24.5614833,3.88945406 24.9577701,4.02678205 C25.9036269,4.46921001 26.8714238,4.86313028 27.8573929,5.20700916 C29.631033,5.49410746 30.9282,7.03491625 30.9087894,8.83153752 C30.9257711,9.13508519 30.9427528,9.42165113 30.9597344,9.72519872 C30.156774,9.71290755 29.3605449,9.57650316 28.5992802,9.32082233 L28.5822986,9.32082233 C28.4984514,9.28685895 28.3965614,9.25289564 28.2957326,9.20301188 Z" id="Path_121" fill="#F4F4F4"></path>
                <path d="M29.8134707,33.6502702 C29.7276372,35.076679 29.5417971,36.4953048 29.2573205,37.8956914 L21.2971557,37.8956914 C21.2462106,37.2716144 21.1623635,36.6316172 21.1114185,36.0075403 C21.0978386,35.9126527 21.0921585,35.8168017 21.0944368,35.7209744 C24.1308402,35.7953268 27.1347326,35.0819252 29.8134707,33.6502702 Z" id="Path_113" fill="#F4F4F4"></path>
                <path d="M29.7115806,28.2723828 C29.1649125,26.8445245 28.5267764,25.4533878 27.8011411,24.1076245 C23.1599878,25.5015077 18.2116422,25.5015077 13.570489,24.1076245 C12.8485825,25.4552427 12.2105559,26.8461407 11.6600495,28.2723828 C11.0891415,29.8409569 10.7814465,31.4931147 10.7494066,33.1620467 C11.0020092,33.3308022 11.2715934,33.4995577 11.542239,33.6513315 C14.221485,35.0782495 17.2246376,35.7868955 20.2591502,35.7082381 L21.1018663,35.7082381 C24.1363789,35.7868955 27.1395315,35.0782495 29.8187774,33.6513315 C30.0883617,33.4995577 30.3579459,33.3329249 30.6116099,33.1620467 C30.5817771,31.4938303 30.2777073,29.8418848 29.7115806,28.2723828 Z" id="Path_114" fill="#F4F4F4"></path>
                <path d="M23.0685577,1.17598168 C22.4631466,0.499984036 21.5985883,0.113674273 20.6911218,0.113674273 C19.7836553,0.113674273 18.919097,0.499984036 18.3136859,1.17598168 C18.3932041,2.0101254 18.0894088,2.83521478 17.4879514,3.41862546 L17.5049332,3.43560714 C18.3630479,4.26571472 19.4961191,4.75180225 20.6889991,4.80157143 C21.8811469,4.74859074 23.0131276,4.26297101 23.873065,3.43560714 L23.8900467,3.41862546 C23.2879994,2.83582405 22.9854132,2.00977149 23.0685577,1.17598168 Z" id="Path_115" fill="#F4F4F4"></path>
                <path d="M27.317163,10.5339514 C27.1054253,9.7351172 26.8234203,8.95658453 26.4744469,8.2074606 C26.756222,8.41403288 27.0488684,8.60535134 27.3511264,8.78059248 C27.368108,8.79757421 27.3850898,8.79757421 27.4020714,8.81455586 L27.6047903,8.92069143 L27.7109258,8.97163646 C27.7581106,9.0012293 27.8091946,9.02409207 27.8626996,9.03956316 C27.9107783,9.05532787 27.9562161,9.07822558 27.9974917,9.10748993 C28.0525296,9.13303875 28.1088572,9.15571152 28.1662472,9.17541669 C28.2171923,9.19239835 28.2500943,9.20938 28.3010394,9.22636173 C28.4071749,9.26032511 28.4867765,9.29428849 28.5876053,9.33249722 L28.5971575,9.33249722 C29.3629255,9.59350721 30.165594,9.73003246 30.9745934,9.73687361 C30.9934609,10.9519456 31.1063013,12.1637372 31.3121044,13.361402 C31.8183709,15.9415568 32.5761786,18.4697051 33.1164084,21.0328782 C33.6555769,23.5281245 36.167805,25.7198232 36.6740714,28.2150696 C36.8279307,28.7864967 37.0978128,29.3201189 37.4669038,29.7826914 C38.2098526,30.8440467 40.5183004,31.839598 41.3450962,32.8510696 C41.2884519,32.9336232 41.2264038,33.0123356 41.159359,33.0866905 C40.6371722,32.8510696 40.113924,32.631369 39.6076575,32.4286502 C39.7594313,33.5409505 39.9112051,34.6882756 40.0459972,35.8515211 C40.0810353,36.1561122 39.9606288,36.457918 39.7255484,36.6547444 C39.4904679,36.8515709 39.1721977,36.9170572 38.8785064,36.8290293 C38.2963073,36.7525009 37.7650527,36.4572751 37.392609,36.0032949 C36.6545043,34.7413779 36.1409739,33.3609506 35.8748709,31.923445 C35.63925,29.7657097 33.7670192,27.6408764 32.452,25.8737198 C30.9661026,23.8677583 29.5184139,22.2651117 29.0800742,20.3939423 C28.6756978,18.7583938 28.3551685,17.1037408 28.0006758,15.4533333 L28.0006758,15.4246768 C27.972246,13.7727307 27.7427184,12.1303965 27.317163,10.5339514 Z" id="Path_116" fill="#F4F4F4"></path>
                <path d="M13.053609,9.20301188 C13.1045541,9.18603023 13.137456,9.16904857 13.1884011,9.15206684 C13.2434389,9.12651802 13.2997666,9.10384525 13.3571566,9.08414008 C13.4052353,9.06837544 13.450673,9.04547773 13.4919487,9.01621338 C13.5428938,8.99923166 13.5980843,8.96526834 13.6437226,8.94828662 L13.749858,8.89734158 L13.9525769,8.79120602 C13.9695586,8.77422436 13.9865403,8.77422436 14.003522,8.7572427 C14.4632407,8.5025397 14.8929448,8.19708308 15.2845778,7.84659985 C15.3546509,7.79342455 15.4171397,7.73093565 15.470315,7.66086263 L15.6051071,7.52607053 L15.6730339,7.45814376 C16.7357697,6.36777315 17.3702591,4.9311295 17.4603562,3.41119597 L17.4773379,3.39421429 C17.1606031,3.66913485 16.7942264,3.88096322 16.3979395,4.01829121 C15.4520828,4.46071917 14.4842859,4.85463944 13.4983168,5.19851832 C11.7246768,5.48561661 10.4275097,7.02642542 10.4469203,8.82304669 C10.4299386,9.12659429 10.412957,9.41316023 10.3959753,9.71670789 C11.1989357,9.70441673 11.9951649,9.56801233 12.7564295,9.3123315 L12.7734112,9.3123315 C12.8703286,9.28564634 12.9642272,9.2490117 13.053609,9.20301188 Z" id="Path_94" fill="#F4F4F4"></path>
                <path d="M11.5528526,33.6502702 C11.6387208,35.0766757 11.8245605,36.4952991 12.1090028,37.8956914 L20.0691676,37.8956914 C20.1201126,37.2716144 20.2039597,36.6316172 20.2549047,36.0075403 C20.2684701,35.9126512 20.2741501,35.8168014 20.2718865,35.7209744 C17.235483,35.7953268 14.2315907,35.0819252 11.5528526,33.6502702 Z" id="Path_88" fill="#F4F4F4"></path>
                <path d="M14.0480989,10.5339514 C14.2598366,9.7351172 14.5418416,8.95658453 14.890815,8.2074606 C14.6090446,8.4140396 14.3163977,8.60535833 14.0141356,8.78059248 C13.9971538,8.79757421 13.9801722,8.79757421 13.9631905,8.81455586 L13.7604716,8.92069143 L13.6543361,8.97163646 C13.6071513,9.0012293 13.5560673,9.02409207 13.5025623,9.03956316 C13.4544836,9.05532787 13.4090459,9.07822558 13.3677701,9.10748993 C13.3127324,9.13303875 13.2564046,9.15571152 13.1990147,9.17541669 C13.1480696,9.19239835 13.1151676,9.20938 13.0642226,9.22636173 C12.958087,9.26032511 12.8784853,9.29428849 12.7776566,9.33249722 L12.7606749,9.33249722 C11.9949069,9.59350721 11.1922384,9.73003246 10.383239,9.73687361 C10.3643715,10.9519456 10.2515312,12.1637372 10.045728,13.361402 C9.53946151,15.9415568 8.78165384,18.4697051 8.24142399,21.0328782 C7.70225549,23.5281245 5.19002747,25.7198232 4.68376099,28.2150696 C4.52990173,28.7864967 4.26001968,29.3201189 3.89092857,29.7826914 C3.14797986,30.8440467 0.839532052,31.839598 0.0127362638,32.8510696 C0.0693704325,32.9336305 0.131419051,33.0123437 0.198473443,33.0866905 C0.720660256,32.8510696 1.24390843,32.631369 1.74911356,32.4286502 C1.59733974,33.5409505 1.44556593,34.6882756 1.31077381,35.8515211 C1.27573578,36.1561122 1.39614228,36.457918 1.63122271,36.6547444 C1.86630315,36.8515709 2.18457342,36.9170572 2.47826465,36.8290293 C3.06046373,36.7525009 3.5917184,36.4572751 3.96416209,36.0032949 C4.70226669,34.7413779 5.21579714,33.3609506 5.48190018,31.923445 C5.71752106,29.7657097 7.58975181,27.6408764 8.90477105,25.8737198 C10.3906685,23.8677583 11.8383571,22.2651117 12.2766969,20.3939423 C12.6810732,18.7583938 13.0016026,17.1037408 13.3560953,15.4533333 L13.3560953,15.4246768 C13.387286,13.7723813 13.6196659,12.1300399 14.0480989,10.5339514 Z" id="Path_89" fill="#F4F4F4"></path>
                <path d="M27.992185,15.5255055 C27.992185,15.5424871 28.0091667,15.3907134 28.0091667,15.407695 C27.9693673,13.7632182 27.7432701,12.1285535 27.335206,10.5350129 C27.1075289,9.74125576 26.82597,8.96395442 26.4924899,8.20852196 C26.4924899,8.20852196 26.2229057,7.98882143 26.0881135,7.87101098 C26.0180405,7.81783575 25.9555516,7.75534685 25.9023764,7.68527383 L25.7675843,7.55048166 L25.6996575,7.48255496 C24.6352247,6.38480867 23.9957125,4.94440138 23.8953535,3.41862546 L23.8783718,3.43560714 C23.0534652,4.31605501 21.9008129,4.81563336 20.6943059,4.81563336 C19.4877988,4.81563336 18.3351465,4.31605501 17.5102399,3.43560714 L17.4932583,3.41862546 C17.397133,4.94544218 16.7569985,6.38725098 15.6889542,7.48255496 L15.6210274,7.55048166 L15.4862353,7.68527383 L15.3004982,7.87101098 C15.165706,7.98882143 15.0309139,8.10663188 14.8961218,8.20852196 C14.5600798,8.96292388 14.2784551,9.74040652 14.0534057,10.5350129 C13.6288725,12.1252732 13.4025032,13.7619051 13.379445,15.407695 C13.379445,15.3907134 13.3964268,15.3737317 13.3964268,15.35675 C13.7668398,16.2673929 13.9026932,17.1440723 14.2062408,18.0207518 C14.8978788,20.0490712 14.6699635,22.2782221 13.5821639,24.1246062 C15.9085448,24.7252581 18.2924249,25.075724 20.6932445,25.1700412 C23.0941808,25.0769813 25.4781943,24.7264958 27.8043251,24.1246062 C26.7165255,22.2782221 26.4886103,20.0490712 27.1802482,18.0207518 C27.4901639,17.1440723 27.621772,16.4191667 27.992185,15.5255055 Z" id="Path_130" fill="#676767"></path>
                <path d="M26.4755083,8.1915403 C26.3407161,8.08540474 26.205924,7.97183977 26.0711319,7.85402932 C26.0010675,7.80084405 25.9385799,7.73835644 25.8853947,7.66829211 L25.7506026,7.5335 L25.6826758,7.46557324 C24.618243,6.36782698 23.9787308,4.92741969 23.8783718,3.40164377 L23.8613901,3.41862546 C23.0364836,4.29907333 21.8838313,4.79865168 20.6773242,4.79865168 C19.4708171,4.79865168 18.3181648,4.29907333 17.4932583,3.41862546 L17.4709698,3.40270513 C17.3748445,4.92952185 16.7347101,6.37133065 15.6666657,7.46663459 L15.598739,7.53456135 L15.4639469,7.66935346 L15.2782097,7.85509067 C15.1434176,7.97290112 15.0086255,8.09071151 14.8738333,8.19260165 C15.0935339,8.36135714 16.6781374,13.9239203 20.6741401,13.9239203 C24.4504423,13.9239203 26.2547463,8.34331413 26.4744469,8.19260165 L26.4755083,8.1915403 Z" id="Path_243" stroke="#676767" stroke-width="0.2" fill="#F4F4F4"></path>
            </g>
            <g id="neckline_thumbnails_1" transform="translate(0.000000, 80.000000)" fill-rule="nonzero">
                <path d="M11.7338402,33.7405973 C11.8175279,35.1566322 11.9987219,36.5649408 12.2760866,37.9551427 L20.0372473,37.9551427 C20.0869187,37.3356045 20.1686696,36.7002618 20.2183411,36.0807236 C20.2315673,35.9865247 20.2371053,35.8913719 20.2348982,35.7962418 C17.2744049,35.8700535 14.3456098,35.1618402 11.7338402,33.7405973 Z" id="Path_143" fill="#F4F4F4"></path>
                <path d="M14.1667054,10.7923973 C14.3731497,9.99937272 14.6481045,9.22650205 14.9883536,8.48282636 C14.7136228,8.68789633 14.4282926,8.87782337 14.1335911,9.05179 C14.1170339,9.06864818 14.1004768,9.06864818 14.0839196,9.08550636 L13.8862687,9.19087 L13.7827866,9.24144455 C13.7367814,9.27082214 13.6869746,9.29351864 13.6348071,9.30887727 C13.5879364,9.32454198 13.5436367,9.34727213 13.5033848,9.37631 C13.4497274,9.4016835 13.3948074,9.42419159 13.3388482,9.44374273 C13.2891768,9.46060091 13.2570973,9.47745909 13.2074259,9.49431727 C13.1039437,9.52803364 13.0263321,9.56175 12.9280241,9.59968091 L12.911467,9.59968091 C12.1648432,9.85879261 11.3822414,9.994325 10.593467,10.0011164 C10.5751001,11.2073531 10.4650806,12.4103339 10.2643937,13.5992845 C9.77078393,16.1606745 9.03192143,18.6704364 8.50519732,21.2149682 C7.97950804,23.6920673 5.53008571,25.8678264 5.03647589,28.3449255 C4.88643536,28.9121859 4.62330311,29.4419217 4.26346429,29.9011464 C3.53908929,30.9547827 1.28835268,31.9430936 0.482226786,32.9472091 C0.537454879,33.0291623 0.597951783,33.1073023 0.663320536,33.1811164 C1.17245268,32.9472091 1.68261964,32.7291064 2.17519464,32.5278618 C2.02721518,33.6320727 1.87923571,34.7710536 1.74781339,35.9258391 C1.7136513,36.228215 1.83104765,36.5278258 2.06025107,36.7232208 C2.28945449,36.9186158 2.59976801,36.9836259 2.88611696,36.8962382 C3.45376107,36.8202664 3.97173437,36.5271876 4.33486696,36.0765091 C5.05451895,34.8237697 5.55521114,33.4533818 5.81466161,32.0263309 C6.04439196,29.8842882 7.86981696,27.7749082 9.15196071,26.0206036 C10.6007107,24.0292309 12.0122071,22.43824 12.4395884,20.5806791 C12.8338554,18.9570255 13.1463714,17.3144064 13.4920018,15.6760018 L13.4920018,15.6475536 C13.530574,14.0079493 13.7570077,12.3785352 14.1667054,10.7923973 Z" id="Path_144" fill="#F4F4F4"></path>
                <path d="M13.2136348,9.47113727 C13.2633062,9.45427909 13.2953857,9.43742091 13.3450571,9.42056273 C13.398719,9.39519973 13.4536385,9.37269185 13.5095937,9.35313 C13.5564705,9.33748001 13.6007722,9.31474876 13.6410161,9.28569727 C13.6906875,9.26883909 13.7444982,9.23512273 13.7889955,9.21826455 L13.8924777,9.16769 L14.0901286,9.06232636 C14.1066857,9.04546818 14.1232429,9.04546818 14.1398,9.02861 C14.5880304,8.77576691 15.0069927,8.47253127 15.3888295,8.12459 C15.4571677,8.07182133 15.5180968,8.0097844 15.5699232,7.94020364 L15.7013455,7.80639182 L15.7675741,7.73895909 C16.8037415,6.65651844 17.4223686,5.23032311 17.5102134,3.72144364 L17.5267705,3.70458545 C17.217954,3.97750659 16.8607369,4.18779439 16.4743571,4.32412364 C15.5521425,4.76332389 14.608541,5.15437907 13.647225,5.49576727 C11.9179259,5.78077759 10.653188,7.31038051 10.6721134,9.09393545 C10.6555562,9.39527545 10.6389991,9.67975727 10.622442,9.98109727 C11.4053283,9.96889547 12.1816518,9.83348316 12.9238848,9.57966182 L12.940442,9.57966182 C13.0339853,9.55032347 13.1252936,9.51405164 13.2136348,9.47113727 Z" id="Path_149" fill="#F4F4F4"></path>
                <path d="M29.5534652,33.7405973 C29.4697775,35.1566322 29.2885835,36.5649408 29.0112188,37.9551427 L21.250058,37.9551427 C21.2003866,37.3356045 21.1186357,36.7002618 21.0689643,36.0807236 C21.0557096,35.9865276 21.0501715,35.8913725 21.0524071,35.7962418 C24.0129005,35.8700535 26.9416955,35.1618402 29.5534652,33.7405973 Z" id="Path_168" fill="#F4F4F4"></path>
                <path d="M29.4386,28.4018218 C28.9056013,26.9843468 28.2834185,25.6033273 27.5759214,24.2673527 C23.0507971,25.6510986 18.2261601,25.6510986 13.7010357,24.2673527 C12.9971155,25.605139 12.3750378,26.9859253 11.8383571,28.4018218 C11.2817219,29.9589881 10.9817192,31.5991302 10.9504804,33.2559245 C11.1967679,33.4234527 11.4596125,33.5909809 11.723492,33.7416509 C14.3357735,35.1581461 17.2638354,35.8616355 20.2224804,35.7835982 L21.0441286,35.7835982 C24.0027784,35.8616836 26.9308522,35.1581913 29.543117,33.7416509 C29.8059616,33.5909809 30.0688062,33.42556 30.3161286,33.2559245 C30.2870604,31.5998387 29.9905917,29.9599042 29.4386,28.4018218 Z" id="Path_169" fill="#F4F4F4"></path>
                <path d="M22.9616527,1.50248545 C22.3713768,0.831404149 21.5284325,0.447903914 20.6436527,0.447903914 C19.7588728,0.447903914 18.9159285,0.831404149 18.3256527,1.50248545 C18.4031829,2.33056268 18.1069825,3.1496514 17.5205616,3.72881909 L17.5371188,3.74567727 C18.3737807,4.5697477 19.478525,5.05230005 20.641583,5.10170727 C21.8039271,5.0491119 22.9076083,4.56702395 23.7460473,3.74567727 L23.7626045,3.72881909 C23.1756084,3.15025624 22.8805867,2.33021133 22.9616527,1.50248545 Z" id="Path_170" fill="#F4F4F4"></path>
                <path d="M27.1040429,10.7923973 C26.8975986,9.99937272 26.6226437,9.22650205 26.2823946,8.48282636 C26.5571344,8.687883 26.842464,8.87780963 27.1371571,9.05179 C27.1537143,9.06864818 27.1702714,9.06864818 27.1868286,9.08550636 L27.3844795,9.19087 L27.4879616,9.24144455 C27.5339732,9.27081005 27.5837783,9.29350572 27.6359411,9.30887727 C27.6828238,9.32451248 27.7271277,9.34724477 27.7673634,9.37631 C27.8210208,9.4016835 27.8759409,9.42419159 27.9319,9.44374273 C27.9815714,9.46060091 28.0136509,9.47745909 28.0633223,9.49431727 C28.1668045,9.52803364 28.2444161,9.56175 28.3427241,9.59968091 L28.3592812,9.59968091 C29.105905,9.85879261 29.8885068,9.994325 30.6772812,10.0011164 C30.6956481,11.2073531 30.8056676,12.4103339 31.0063545,13.5992845 C31.4999643,16.1606745 32.2388268,18.6704364 32.7655509,21.2149682 C33.2912402,23.6920673 35.7406625,25.8678264 36.2342723,28.3449255 C36.3843129,28.9121859 36.6474451,29.4419217 37.0072839,29.9011464 C37.7316589,30.9547827 39.9823955,31.9430936 40.7885214,32.9472091 C40.7332909,33.0291604 40.6727941,33.1073003 40.6074277,33.1811164 C40.0982955,32.9472091 39.5881286,32.7291064 39.0955536,32.5278618 C39.243533,33.6320727 39.3915125,34.7710536 39.5229348,35.9258391 C39.5570969,36.228215 39.4397006,36.5278258 39.2104971,36.7232208 C38.9812937,36.9186158 38.6709802,36.9836259 38.3846313,36.8962382 C37.8169871,36.8202664 37.2990139,36.5271876 36.9358813,36.0765091 C36.2162292,34.8237697 35.7155371,33.4533818 35.4560866,32.0263309 C35.2263563,29.8842882 33.4009312,27.7749082 32.1187875,26.0206036 C30.6700375,24.0292309 29.2585411,22.43824 28.8311598,20.5806791 C28.4368929,18.9570255 28.1243768,17.3144064 27.7787464,15.6760018 L27.7787464,15.6475536 C27.7564419,14.0066259 27.5297301,12.3752114 27.1040429,10.7923973 Z" id="Path_171" fill="#F4F4F4"></path>
                <path d="M28.0736705,9.47113727 C28.0239991,9.45427909 27.9919196,9.43742091 27.9422482,9.42056273 C27.8885915,9.3951875 27.8336714,9.37267934 27.7777116,9.35313 C27.7308349,9.33748001 27.6865331,9.31474876 27.6462893,9.28569727 C27.5966179,9.26883909 27.5428071,9.23512273 27.4983098,9.21826455 L27.3948277,9.16769 L27.1971768,9.06232636 C27.1806196,9.04546818 27.1640625,9.04546818 27.1475054,9.02861 C26.6992842,8.77575185 26.2803235,8.47251738 25.8984759,8.12459 C25.8301547,8.07180144 25.7692281,8.00976706 25.7173821,7.94020364 L25.5859598,7.80639182 L25.5207661,7.73895909 C24.4845987,6.65651844 23.8659716,5.23032311 23.7781268,3.72144364 L23.7667438,3.71301455 C24.0755603,3.98593569 24.4327774,4.19622349 24.8191571,4.33255273 C25.7413675,4.77176303 26.6849695,5.16281842 27.6462893,5.50419636 C29.3755884,5.78920668 30.6403262,7.3188096 30.6214009,9.10236455 C30.637958,9.40370455 30.6545152,9.68818636 30.6710723,9.98952636 C29.8881859,9.97732456 29.1118625,9.84191225 28.3696295,9.58809091 L28.3530723,9.58809091 C28.2561262,9.55931171 28.1624646,9.52010628 28.0736705,9.47113727 Z" id="Path_176" fill="#F4F4F4"></path>
                <path d="M27.7621893,15.7476491 C27.7621893,15.7645073 27.7787464,15.6138373 27.7787464,15.6306955 C27.7399154,13.9981806 27.5194711,12.3754075 27.1216348,10.7934509 C26.8996741,10.0054585 26.6251535,9.23380869 26.2999866,8.48388 C26.2999866,8.48388 26.037142,8.26577727 25.9057196,8.14882364 C25.8373814,8.09605497 25.7764523,8.03401804 25.7246259,7.96443727 L25.5932036,7.83062545 L25.526975,7.76319273 C24.489153,6.67343006 23.8656286,5.24349846 23.7677786,3.72881909 C22.9469375,4.61972188 21.8231015,5.11566693 20.6467571,5.11566693 C19.4704128,5.11566693 18.3465768,4.61972188 17.5422929,3.74567727 C17.4320136,5.2445317 16.8078825,6.67585461 15.7665393,7.76319273 L15.7003107,7.83062545 L15.5688884,7.96443727 L15.3877946,8.14882364 C15.2563723,8.26577727 15.12495,8.38273091 14.9935277,8.48388 C14.6658736,9.23278994 14.3912892,10.0046191 14.1718795,10.7934509 C13.75797,12.3721479 13.5372601,13.9968756 13.5147679,15.6306955 C13.8924777,16.4841409 14.0249348,17.3544445 14.3198589,18.2247482 C14.9942059,20.2383162 14.7719886,22.451255 13.7113839,24.2842109 C15.9796053,24.8804944 18.3038883,25.2284115 20.6446875,25.3220427 C22.9856003,25.2296596 25.3100136,24.881723 27.5779911,24.2842109 C26.5173864,22.451255 26.2951691,20.2383162 26.9695161,18.2247482 C27.2727188,17.3544445 27.4010366,16.6348109 27.7621893,15.7476491 Z" id="Path_185" fill="#676767"></path>
                <path d="M26.3155089,8.46702182 C26.1840866,8.36165818 26.0526643,8.24891909 25.921242,8.13196545 C25.8529207,8.07917689 25.7919941,8.01714251 25.7401482,7.94757909 L25.6087259,7.81376727 L25.5424973,7.74633455 C24.5046753,6.65657188 23.8811509,5.22664027 23.7833009,3.71196091 L23.7667437,3.72881909 C22.962304,4.6025785 21.838526,5.09832156 20.6622795,5.09832156 C19.4860329,5.09832156 18.362255,4.6025785 17.5578152,3.72881909 L17.5360839,3.71301455 C17.4423618,5.22872715 16.8182307,6.66005007 15.7768875,7.74738818 L15.7106589,7.81482091 L15.5792366,7.94863273 L15.3981429,8.13301909 C15.2667205,8.24997273 15.1352982,8.36692636 15.0038759,8.46807545 C16.2748784,10.3727642 18.397679,11.5034931 20.659175,11.4804218 C22.9005595,11.421564 24.9888395,10.3092227 26.3144741,8.46807545 L26.3155089,8.46702182 Z" id="Path_356" stroke="#676767" stroke-width="0.2" fill="#F4F4F4"></path>
            </g>
            <g id="neckline_thumbnails_2" transform="translate(0.000000, 124.000000)" fill-rule="nonzero">
                <path d="M29.7066187,33.7405973 C29.6229311,35.1566322 29.441737,36.5649408 29.1643723,37.9551427 L21.4032116,37.9551427 C21.3535402,37.3356045 21.2717893,36.7002618 21.2221179,36.0807236 C21.2088916,35.9865247 21.2033536,35.8913719 21.2055607,35.7962418 C24.166059,35.8701016 27.0948659,35.1618855 29.7066187,33.7405973 Z" id="Path_223" fill="#F4F4F4"></path>
                <path d="M29.6083107,28.4018218 C29.0753093,26.984348 28.4531266,25.6033286 27.7456321,24.2673527 C23.2205078,25.6510986 18.3958708,25.6510986 13.8707464,24.2673527 C13.1668876,25.60517 12.5448116,26.9859524 12.0080679,28.4018218 C11.4514327,29.9589881 11.1514299,31.5991302 11.1201911,33.2559245 C11.3664786,33.4234527 11.630358,33.5909809 11.8932027,33.7416509 C14.5054675,35.1581913 17.4335413,35.8616836 20.3921911,35.7835982 L21.2138393,35.7835982 C24.1724842,35.8616355 27.1005461,35.1581461 29.7128277,33.7416509 C29.9756723,33.5909809 30.238517,33.42556 30.4858393,33.2559245 C30.4567336,31.5998425 30.1602661,29.9599143 29.6083107,28.4018218 Z" id="Path_224" fill="#F4F4F4"></path>
                <path d="M23.1303286,1.50248545 C22.5400527,0.831404149 21.6971084,0.447903914 20.8123286,0.447903914 C19.9275487,0.447903914 19.0846044,0.831404149 18.4943286,1.50248545 C18.5718588,2.33056268 18.2756584,3.1496514 17.6892375,3.72881909 L17.7057946,3.74567727 C18.5424566,4.5697477 19.6472009,5.05230005 20.8102589,5.10170727 C21.972603,5.0491119 23.0762842,4.56702395 23.9147232,3.74567727 L23.9312804,3.72881909 C23.3442842,3.15025624 23.0492626,2.33021133 23.1303286,1.50248545 Z" id="Path_225" fill="#F4F4F4"></path>
                <path d="M27.2727188,10.7923973 C27.0662745,9.99937272 26.7913196,9.22650205 26.4510705,8.48282636 C26.7258103,8.687883 27.0111398,8.87780963 27.305833,9.05179 C27.3223902,9.06864818 27.3389473,9.06864818 27.3555045,9.08550636 L27.5531554,9.19087 L27.6566375,9.24144455 C27.7026491,9.27081005 27.7524542,9.29350572 27.804617,9.30887727 C27.8514937,9.32452726 27.8957955,9.34725852 27.9360393,9.37631 C27.9897011,9.401673 28.0446207,9.42418088 28.1005759,9.44374273 C28.1502473,9.46060091 28.1823268,9.47745909 28.2319982,9.49431727 C28.3354804,9.52803364 28.413092,9.56175 28.5114,9.59968091 L28.5207134,9.59968091 C29.2673372,9.85879261 30.049939,9.994325 30.8387134,10.0011164 C30.8571092,11.2073515 30.9671286,12.41033 31.1677866,13.5992845 C31.6613964,16.1606745 32.4002589,18.6704364 32.926983,21.2149682 C33.4526723,23.6920673 35.9020946,25.8678264 36.3957045,28.3449255 C36.545745,28.9121859 36.8088772,29.4419217 37.1687161,29.9011464 C37.8930911,30.9547827 40.1438277,31.9430936 40.9499536,32.9472091 C40.8947451,33.029177 40.8342472,33.1073182 40.7688598,33.1811164 C40.2597277,32.9472091 39.7495607,32.7291064 39.2569857,32.5278618 C39.4049652,33.6320727 39.5529446,34.7710536 39.684367,35.9258391 C39.718529,36.228215 39.6011327,36.5278258 39.3719293,36.7232208 C39.1427259,36.9186158 38.8324123,36.9836259 38.5460634,36.8962382 C37.9784193,36.8202664 37.460446,36.5271876 37.0973134,36.0765091 C36.3776994,34.8237513 35.8770097,33.4533705 35.6175188,32.0263309 C35.3877884,29.8842882 33.5623634,27.7749082 32.2802196,26.0206036 C30.8314696,24.0292309 29.4199732,22.43824 28.992592,20.5806791 C28.598325,18.9570255 28.2858089,17.3144064 27.9401786,15.6760018 L27.9401786,15.6475536 C27.9121012,14.0075801 27.6879645,12.377192 27.2727188,10.7923973 Z" id="Path_226" fill="#F4F4F4"></path>
                <path d="M28.2268241,9.47113727 C28.1771527,9.45427909 28.1450732,9.43742091 28.0954018,9.42056273 C28.0417399,9.39519973 27.9868204,9.37269185 27.9308652,9.35313 C27.8839884,9.33748001 27.8396867,9.31474876 27.7994429,9.28569727 C27.7497714,9.26883909 27.6959607,9.23512273 27.6514634,9.21826455 L27.5479812,9.16769 L27.3503304,9.06232636 C27.3337732,9.04546818 27.3172161,9.04546818 27.3006589,9.02861 C26.8524331,8.77575938 26.4334716,8.47252429 26.0516295,8.12459 C25.9832912,8.07182133 25.9223621,8.0097844 25.8705357,7.94020364 L25.7391134,7.80639182 L25.6728848,7.73895909 C24.6367174,6.65651844 24.0180903,5.23032311 23.9302455,3.72144364 L23.9198973,3.71301455 C24.2287138,3.98593569 24.585931,4.19622349 24.9723107,4.33255273 C25.8945261,4.77175131 26.8381275,5.16280646 27.7994429,5.50419636 C29.528742,5.78920668 30.7934798,7.3188096 30.7745545,9.10236455 C30.7911116,9.40370455 30.8076687,9.68818636 30.8242259,9.98952636 C30.0413395,9.97732456 29.2650161,9.84191225 28.522783,9.58809091 L28.5062259,9.58809091 C28.424475,9.55437455 28.326167,9.52065818 28.2268241,9.47113727 Z" id="Path_231" fill="#F4F4F4"></path>
                <path d="M13.3657536,9.47113727 C13.415425,9.45427909 13.4475045,9.43742091 13.4971759,9.42056273 C13.5508318,9.39518571 13.6057521,9.37267755 13.6617125,9.35313 C13.7085953,9.3374948 13.7528991,9.31476251 13.7931348,9.28569727 C13.8428062,9.26883909 13.896617,9.23512273 13.9411143,9.21826455 L14.0445964,9.16769 L14.2422473,9.06232636 C14.2588045,9.04546818 14.2753616,9.04546818 14.2919187,9.02861 C14.7401539,8.77577444 15.1591169,8.47253817 15.5409482,8.12459 C15.6092865,8.07182133 15.6702156,8.0097844 15.722042,7.94020364 L15.8534643,7.80639182 L15.9196929,7.73895909 C16.9558602,6.65651844 17.5744873,5.23032311 17.6623321,3.72144364 L17.6788893,3.70458545 C17.3700728,3.97750659 17.0128556,4.18779439 16.6264759,4.32412364 C15.7042655,4.76333394 14.7606635,5.15438933 13.7993437,5.49576727 C12.0700446,5.78077759 10.8053068,7.31038051 10.8242321,9.09393545 C10.807675,9.39527545 10.7911179,9.67975727 10.7745607,9.98109727 C11.5574471,9.96889547 12.3337705,9.83348316 13.0760036,9.57966182 L13.0925607,9.57966182 C13.1870576,9.55317789 13.2786093,9.5168094 13.3657536,9.47113727 Z" id="Path_204" fill="#F4F4F4"></path>
                <path d="M11.9025161,33.7405973 C11.9862377,35.1566289 12.1674313,36.5649351 12.4447625,37.9551427 L20.2059232,37.9551427 C20.2555946,37.3356045 20.3373455,36.7002618 20.387017,36.0807236 C20.4002716,35.9865276 20.4058098,35.8913725 20.4035741,35.7962418 C17.4430808,35.8700535 14.5142857,35.1618402 11.9025161,33.7405973 Z" id="Path_198" fill="#F4F4F4"></path>
                <path d="M14.3353812,10.7923973 C14.5418255,9.99937272 14.8167804,9.22650205 15.1570295,8.48282636 C14.8822987,8.68789633 14.5969685,8.87782337 14.302267,9.05179 C14.2857098,9.06864818 14.2691527,9.06864818 14.2525955,9.08550636 L14.0549446,9.19087 L13.9514625,9.24144455 C13.9054573,9.27082214 13.8556505,9.29351864 13.803483,9.30887727 C13.7566123,9.32454198 13.7123126,9.34727213 13.6720607,9.37631 C13.6183996,9.40167472 13.56348,9.42418268 13.5075241,9.44374273 C13.4578527,9.46060091 13.4257732,9.47745909 13.3761018,9.49431727 C13.2726196,9.52803364 13.195008,9.56175 13.0967,9.59968091 L13.0801429,9.59968091 C12.3335191,9.85879261 11.5509173,9.994325 10.7621429,10.0011164 C10.743776,11.2073531 10.6337565,12.4103339 10.4330696,13.5992845 C9.93945982,16.1606745 9.20059732,18.6704364 8.67387321,21.2149682 C8.14818393,23.6920673 5.69876161,25.8678264 5.20515179,28.3449255 C5.05511126,28.9121859 4.791979,29.4419217 4.43214018,29.9011464 C3.70776518,30.9547827 1.45702857,31.9430936 0.650902679,32.9472091 C0.706130772,33.0291623 0.766627675,33.1073023 0.831996429,33.1811164 C1.34112857,32.9472091 1.85129554,32.7291064 2.34490536,32.5278618 C2.19692589,33.6320727 2.04894643,34.7710536 1.91752411,35.9258391 C1.88336202,36.228215 2.00075836,36.5278258 2.22996178,36.7232208 C2.45916521,36.9186158 2.76947873,36.9836259 3.05582768,36.8962382 C3.62347178,36.8202664 4.14144508,36.5271876 4.50457768,36.0765091 C5.22417272,34.8237422 5.72486111,33.4533647 5.98437232,32.0263309 C6.21410268,29.8842882 8.03952768,27.7749082 9.32167143,26.0206036 C10.7704214,24.0292309 12.1819179,22.43824 12.6092991,20.5806791 C13.0035661,18.9570255 13.3160821,17.3144064 13.6617125,15.6760018 L13.6617125,15.6475536 C13.6917858,14.0073181 13.9180085,12.3769218 14.3353812,10.7923973 Z" id="Path_199" fill="#F4F4F4"></path>
                <path d="M27.81885,15.4116871 C27.81885,15.4285453 27.8354071,15.2778753 27.8354071,15.2947335 C27.7966028,13.6622164 27.576158,12.0394403 27.1782955,10.457489 C26.9562981,9.66950873 26.6817784,8.89786132 26.3566473,8.14791805 C26.3566473,8.14791805 26.0938027,7.92981532 25.9623804,7.81286169 C25.8940591,7.76007312 25.8331325,7.69803875 25.7812866,7.62847532 L25.6498643,7.49466351 L25.5836357,7.42723078 C24.5458137,6.33746811 23.9222893,4.90753651 23.8244393,3.39285714 L23.8078821,3.40971532 C23.0034424,4.28347473 21.8796644,4.77921779 20.7034179,4.77921779 C19.5271713,4.77921779 18.4033933,4.28347473 17.5989536,3.40971532 L17.5823964,3.39285714 C17.4886743,4.90856975 16.8645432,6.33989266 15.8232,7.42723078 L15.7569714,7.49466351 L15.6255491,7.62847532 L15.4444554,7.81286169 C15.313033,7.92981532 15.1816107,8.04676896 15.0501884,8.14791805 C14.7225606,8.89683877 14.4479769,9.66866603 14.2285402,10.457489 C13.8145995,12.0361795 13.5938891,13.6609113 13.5714286,15.2947335 C13.5714286,15.2778753 13.5879857,15.2610171 13.5879857,15.244159 C13.9501732,16.148179 14.0815955,17.0184826 14.3775545,17.8887862 C15.0519014,19.9023542 14.8296841,22.1152931 13.7690795,23.948249 C16.0373008,24.5445325 18.3615838,24.8924495 20.702383,24.9860808 C23.0432959,24.8936977 25.3677091,24.5457611 27.6356866,23.948249 C26.575082,22.1152931 26.3528646,19.9023542 27.0272116,17.8887862 C27.3293795,17.0184826 27.4576973,16.298849 27.81885,15.4116871 Z" id="Path_240" fill="#676767"></path>
                <path d="M25.0375045,6.94346364 C24.3775971,5.99319502 23.9906081,4.87460146 23.9198973,3.71301455 L23.9033402,3.72987273 C23.0989004,4.60363213 21.9751225,5.09937519 20.7988759,5.09937519 C19.6226293,5.09937519 18.4988514,4.60363213 17.6944116,3.72987273 L17.6706107,3.71301455 C17.6075464,4.87616833 17.2198338,5.99685353 16.5530036,6.94346364 C16.3553527,7.22794545 16.8986339,7.94757909 20.7781795,7.94757909 C24.4787009,7.96443727 25.2351554,7.22794545 25.0375045,6.94346364 Z" id="Path_357" stroke="#676767" stroke-width="0.2" fill="#F4F4F4"></path>
            </g>
        </g>
    </g>
</svg>