<?xml version="1.0" encoding="UTF-8"?>
<svg width="42px" height="158px" viewBox="0 0 42 158" version="1.1" xmlns="http://www.w3.org/2000/svg" xmlns:xlink="http://www.w3.org/1999/xlink">
    <!-- Generator: Sketch 50.2 (55047) - http://www.bohemiancoding.com/sketch -->
    <title>top_collar_thumbnails</title>
    <desc>Created with Sketch.</desc>
    <defs></defs>
    <g id="Page-1" stroke="none" stroke-width="1" fill="none" fill-rule="evenodd">
        <g id="top_collar_thumbnails" transform="translate(0.000000, -4.000000)">
            <g id="ALL" transform="translate(10.000000, 0.000000)" fill="#686868" fill-opacity="0.775334013" font-family="Muli-Bold, Muli" font-size="13" font-weight="bold">
                <text>
                    <tspan x="0" y="14">ALL</tspan>
                </text>
            </g>
            <g id="top_collar_thumbnails_0" transform="translate(0.000000, 35.000000)" fill-rule="nonzero">
                <path d="M14.313263,10.5229964 C14.5208197,9.72384062 14.7973182,8.94499367 15.1395217,8.19557365 C14.863076,8.40237218 14.5759534,8.59389457 14.2793915,8.76931524 C14.262969,8.78606684 14.2465465,8.78606684 14.2301239,8.80281843 L14.0320271,8.90751582 L13.9293863,8.95777054 C13.8830654,8.98704264 13.8329749,9.00959452 13.7805571,9.02477686 C13.7333811,9.04022322 13.6887476,9.0628107 13.6481505,9.09178317 C13.5942403,9.11702017 13.5390822,9.1393857 13.4828987,9.15878956 C13.4336311,9.17554108 13.3997597,9.19229268 13.350492,9.20904427 C13.2478513,9.2425474 13.1688178,9.27605059 13.0692562,9.31374166 L13.0528336,9.31374166 C12.302067,9.57501369 11.5150879,9.71180947 10.7218606,9.71892053 C10.6952976,10.9338944 10.5848564,12.1454502 10.3913571,13.3445908 C9.89560188,15.9253812 9.15145593,18.4548699 8.62182929,21.0189088 C8.09322905,23.5148943 5.62882282,25.7072575 5.13204123,28.203243 C4.98160587,28.7756352 4.71710417,29.3102482 4.35505019,29.7737037 C3.63861723,30.8290533 1.3692286,31.8247254 0.559392495,32.8361021 C0.61475204,32.918987 0.675443502,32.9980327 0.741066752,33.0727182 C1.25427088,32.8361021 1.767475,32.6172845 2.26220377,32.4152186 C2.11337458,33.5281518 1.96454539,34.675635 1.83213872,35.838823 C1.79818426,36.1426864 1.91581858,36.4436792 2.14540309,36.6403774 C2.37498759,36.8370756 2.68594914,36.9032854 2.97350469,36.8166965 C3.54385865,36.7397632 4.06418042,36.4444462 4.42895158,35.9906342 C5.15295562,34.7276731 5.65652868,33.3460971 5.91724354,31.9074363 C6.1492118,29.7485763 7.98442972,27.6232195 9.27359852,25.8527868 C10.7290454,23.845738 12.1475416,22.2438681 12.5806859,20.371879 C12.9779059,18.7354589 13.2919868,17.0833343 13.6389128,15.4301626 L13.6389128,15.413411 C13.6600758,13.7607457 13.8866676,12.117493 14.313263,10.5229964 Z" id="Path_704" fill="#F4F4F4"></path>
                <path d="M11.8683585,33.6464598 C11.9526368,35.0743062 12.1351019,36.4943539 12.4144077,37.8961264 L20.2151104,37.8961264 C20.264378,37.2679422 20.3475171,36.6313821 20.3967846,36.0115736 C20.4100268,35.9165778 20.4155198,35.8206251 20.4132072,35.7247028 C17.4363817,35.8000455 14.4915817,35.0838233 11.8683585,33.6464598 Z" id="Path_703" fill="#F4F4F4"></path>
                <path d="M13.340228,9.19019874 C13.3894955,9.17344714 13.423367,9.15669554 13.4726346,9.13994402 C13.5265463,9.11471047 13.5817042,9.09234501 13.6378864,9.0729377 C13.6850623,9.05749134 13.7296959,9.03490386 13.770293,9.00593132 C13.8195606,8.98917979 13.8729338,8.9556766 13.9191223,8.938925 L14.021763,8.88867029 L14.2198599,8.7839729 C14.2362824,8.7672213 14.2527049,8.7672213 14.2691274,8.7504697 C14.7199725,8.49571658 15.1413815,8.19018412 15.5254511,7.83960253 C15.593978,7.78653264 15.655098,7.72418801 15.7071254,7.65428814 L15.8395321,7.51922854 L15.9052222,7.45222222 C16.9473937,6.36171349 17.569727,4.92485937 17.6583275,3.4046215 L17.6726972,3.38891689 C17.3625318,3.66534029 17.0033127,3.87857983 16.6144703,4.01710118 C15.6867039,4.45981278 14.7374126,4.85398659 13.770293,5.19808763 C12.0395237,5.50079 10.77505,7.03254903 10.7772866,8.82375791 C10.760864,9.1273803 10.7444415,9.4142511 10.728019,9.71787356 C11.5154003,9.70533511 12.2961443,9.56866016 13.0425696,9.31269469 L13.0589921,9.31269469 C13.156761,9.28223551 13.2510453,9.2411687 13.340228,9.19019874 Z" id="Path_709" fill="#F4F4F4"></path>
                <path d="M29.7750768,33.6464598 C29.6908019,35.0743065 29.5083368,36.4943545 29.2290276,37.8961264 L21.4283249,37.8961264 C21.3790574,37.2679422 21.2959183,36.6313821 21.2466507,36.0115736 C21.2334038,35.9165783 21.2279108,35.8206252 21.2302282,35.7247028 C24.2066372,35.7960133 27.1504417,35.0800333 29.7750768,33.6464598 Z" id="Path_728" fill="#F4F4F4"></path>
                <path d="M29.6590927,28.2660614 C29.1247625,26.8379432 28.5007824,25.4464247 27.7910297,24.1001527 C25.5077259,24.7018384 23.1679069,25.0528237 20.8114536,25.1471264 C18.4548859,25.0540822 16.1149357,24.7030772 13.8318775,24.1001527 C13.1257762,25.4482724 12.5019029,26.8395526 11.9638145,28.2660614 C11.4039092,29.8352067 11.1021825,31.4879791 11.0708393,33.1575231 C11.3192301,33.3260859 11.5840435,33.4946486 11.8478304,33.6464598 C14.4751693,35.0736515 17.4200896,35.7824308 20.3957582,35.7037633 L21.2220169,35.7037633 C24.1976855,35.7824308 27.1426058,35.0736515 29.7699448,33.6464598 C30.0347581,33.4946486 30.298545,33.3260859 30.5469358,33.1575231 C30.516042,31.4883965 30.2160869,29.8358312 29.6590927,28.2660614 Z" id="Path_729" fill="#F4F4F4"></path>
                <path d="M23.145506,1.16305059 C22.5518448,0.486748601 21.7039779,0.100251917 20.8140196,0.100251917 C19.9240613,0.100251917 19.0761945,0.486748601 18.4825333,1.16305059 C18.5597476,1.99715157 18.2618999,2.82195883 17.6726972,3.40566848 L17.6891197,3.42242005 C18.5321472,4.25154912 19.6443904,4.73591275 20.8145328,4.783486 C21.983951,4.7326457 23.0951061,4.24875595 23.939946,3.42242005 L23.9563685,3.40566848 C23.3643333,2.82378544 23.0656469,1.99770285 23.145506,1.16305059 Z" id="Path_730" fill="#D6D4D4"></path>
                <path d="M27.3281196,10.5229964 C27.1205629,9.72384062 26.8440643,8.94499367 26.501861,8.19557365 C26.7783078,8.40237049 27.0654302,8.59389289 27.361991,8.76931524 C27.3784135,8.78606684 27.3948361,8.78606684 27.4112586,8.80281843 L27.6093554,8.90751582 L27.7119962,8.95777054 C27.7583234,8.98703061 27.8084122,9.00958178 27.8608254,9.02477686 C27.9080014,9.04022322 27.952635,9.0628107 27.9932321,9.09178317 C28.0471423,9.11702017 28.1023004,9.1393857 28.1584838,9.15878956 C28.2077515,9.17554108 28.2416229,9.19229268 28.2908905,9.20904427 C28.3935313,9.2425474 28.4725647,9.27605059 28.5721264,9.31374166 L28.5885489,9.31374166 C29.3393156,9.57501369 30.1262947,9.71180947 30.919522,9.71892053 C30.9378612,10.9343628 31.0483587,12.1465364 31.2500255,13.3445908 C31.7457807,15.9253812 32.4899266,18.4548699 33.0195533,21.0189088 C33.5481535,23.5148943 36.0125598,25.7072575 36.5093413,28.203243 C36.6597767,28.7756352 36.9242783,29.3102482 37.2863324,29.7737037 C38.0140558,30.8363821 40.2793388,31.8310072 41.0891749,32.8434309 C41.0338178,32.9263176 40.9731262,33.0053635 40.9075006,33.080047 C40.3942965,32.8434309 39.8810924,32.6246134 39.3863636,32.4225474 C39.5351928,33.5354806 39.684022,34.6829639 39.8164287,35.8461518 C39.8503832,36.1500152 39.7327488,36.451008 39.5031644,36.6477062 C39.2735798,36.8444044 38.9626183,36.9106142 38.6750627,36.8240253 C38.1047087,36.747092 37.584387,36.451775 37.2196158,35.997963 C36.4956118,34.7350019 35.9920387,33.3534259 35.7313239,31.9147651 C35.4993556,29.7559051 33.6641377,27.6305483 32.3749689,25.8601157 C30.919522,23.8530668 29.5010258,22.251197 29.0678815,20.3792077 C28.6706616,18.7427877 28.3565806,17.090663 28.0096546,15.4374914 L28.0096546,15.4207398 C27.9703444,13.7666477 27.7416139,12.1229124 27.3281196,10.5229964 Z" id="Path_731" fill="#F4F4F4"></path>
                <path d="M28.2867848,9.19019874 C28.2375173,9.17344714 28.2036458,9.15669554 28.1543782,9.13994402 C28.1004665,9.11471047 28.0453086,9.09234501 27.9891265,9.0729377 C27.9419505,9.05749134 27.897317,9.03490386 27.8567198,9.00593132 C27.8074522,8.98917979 27.754079,8.9556766 27.7078906,8.938925 L27.6052498,8.88867029 L27.407153,8.7839729 C27.3907305,8.7672213 27.3743079,8.7672213 27.3578854,8.7504697 C26.9070449,8.49570912 26.4856367,8.19017723 26.1015617,7.83960253 C26.0330348,7.78653264 25.9719148,7.72418801 25.9198875,7.65428814 L25.7874808,7.51922854 L25.7217906,7.45222222 C24.6796191,6.36171349 24.0572858,4.92485937 23.9686854,3.4046215 L23.955342,3.38891689 C24.2655075,3.66534029 24.6247266,3.87857983 25.013569,4.01710118 C25.9413339,4.45981611 26.8906254,4.85398999 27.8577462,5.19808763 C29.5973584,5.48496237 30.8697849,7.02635524 30.8507526,8.82375791 C30.8671752,9.1273803 30.8835977,9.4142511 30.9000203,9.71787356 C30.112639,9.70533511 29.3318949,9.56866016 28.5854697,9.31269469 L28.5690471,9.31269469 C28.4720491,9.2792269 28.3776891,9.23827662 28.2867848,9.19019874 Z" id="Path_736" fill="#F4F4F4"></path>
                <path d="M27.9727039,15.5149675 C27.9727039,15.531719 27.9891265,15.3799078 27.9891265,15.3966594 C27.9500415,13.7518464 27.7282901,12.1168538 27.3281196,10.5229964 C27.1049107,9.72892446 26.8288502,8.95131124 26.501861,8.19557365 C26.501861,8.19557365 26.2370476,7.97675607 26.104641,7.85844806 C26.0361141,7.80537818 25.9749941,7.74303355 25.9229667,7.67313367 L25.79056,7.53807407 L25.7248699,7.47106776 C24.68091,6.37296191 24.0537152,4.93201401 23.955342,3.40566848 L23.9389195,3.42242005 C23.1298031,4.30466655 21.9983972,4.80538482 20.8140196,4.80538482 C19.6296421,4.80538482 18.4982362,4.30466655 17.6891197,3.42242005 L17.6726972,3.40566848 C17.5781781,4.93267354 16.9503989,6.37459275 15.9031694,7.47002079 L15.8374793,7.5370271 L15.7050725,7.6720867 L15.5233983,7.85740109 C15.3909916,7.9757091 15.258585,8.09401717 15.1261783,8.19452668 C14.7966733,8.94923229 14.5205483,9.72702713 14.2999197,10.5219494 C13.8836071,12.1125267 13.661589,13.7494861 13.6389128,15.3956125 C13.6389128,15.3788609 13.6553353,15.3621093 13.6553353,15.3453577 C14.0186838,16.2562249 14.1510905,17.133589 14.4487489,18.0099061 C15.125507,20.0391765 14.9006054,22.2686383 13.8329039,24.1148103 C16.1162077,24.7164959 18.4560267,25.0674813 20.81248,25.1617841 C23.1690477,25.0687398 25.5089979,24.7177348 27.7920561,24.1148103 C26.7243546,22.2686383 26.499453,20.0391765 27.1762112,18.0099061 C27.4943977,17.1346359 27.6093554,16.4090831 27.9727039,15.5149675 Z" id="Path_745" fill="#F4F4F4"></path>
                <path d="M26.501861,8.17882205 C26.3694542,8.07412466 26.2370476,7.96000454 26.104641,7.84169647 C26.0361141,7.78862665 25.9749941,7.72628202 25.9229667,7.65638215 L25.79056,7.52132248 L25.7248699,7.45431616 C24.6801588,6.35651981 24.0522211,4.91553701 23.9532892,3.38891689 L23.9368667,3.40566848 C23.1277503,4.28791498 21.9963444,4.78863323 20.8119668,4.78863323 C19.6275893,4.78863323 18.4961833,4.28791498 17.6870669,3.40566848 L17.6726972,3.38891689 C17.5781781,4.91592196 16.9503989,6.35784115 15.9031694,7.45326919 L15.8374793,7.52027551 L15.7050725,7.65533511 L15.5233983,7.8406495 C15.3909916,7.95895757 15.258585,8.07726557 15.1261783,8.17777508 C15.3406976,8.34633787 16.8957061,13.9120506 20.8135064,13.9120506 C24.5167874,13.9120506 26.2863152,8.32958628 26.5008345,8.17777508 L26.501861,8.17882205 Z" id="Path_748" fill="#F4F4F4"></path>
            </g>
            <g id="top_collar_thumbnails_1" transform="translate(0.000000, 80.000000)" fill-rule="nonzero">
                <path d="M11.8642277,33.1567134 C11.9492002,34.5679862 12.1331608,35.971551 12.4147527,37.3570536 L20.2793955,37.3570536 C20.329067,36.7361607 20.4128875,36.1069893 20.4625589,35.494375 C20.4759144,35.4004823 20.4814524,35.305643 20.4791161,35.2108339 C17.4783102,35.2813167 14.5103762,34.5736471 11.8642277,33.1567134 Z" id="Path_759" fill="#F4F4F4"></path>
                <path d="M14.3291723,10.3016473 C14.5384251,9.51176589 14.8171902,8.7419587 15.1622036,8.00123929 C14.883493,8.20563911 14.5940169,8.39493856 14.2950232,8.56832143 C14.2784661,8.58487857 14.2619089,8.58487857 14.2453518,8.60143571 L14.0456312,8.70491786 L13.9421491,8.75458929 C13.8954485,8.7835216 13.8449474,8.80581173 13.7921,8.82081786 C13.7445374,8.8360849 13.699538,8.85841024 13.658608,8.88704643 C13.604256,8.91199044 13.5486457,8.9340964 13.4920018,8.953275 C13.4423304,8.96983214 13.4081812,8.98638929 13.3585098,9.00294643 C13.2550277,9.03606071 13.1753464,9.069175 13.0749687,9.10642857 L13.0584116,9.10642857 C12.3014911,9.36466802 11.5080613,9.49987596 10.7083321,9.50690446 C10.6898509,10.7082394 10.5784476,11.9063438 10.3751196,13.0904911 C9.87530089,15.6413259 9.12505536,18.1414545 8.5910875,20.6757321 C8.05815446,23.1427464 5.57354821,25.3096625 5.07269464,27.7766768 C4.9210262,28.3424251 4.65435646,28.8708328 4.28933482,29.3289089 C3.55564643,30.3792527 1.27179554,31.362333 0.455321429,32.3630054 C0.511132283,32.44493 0.572321341,32.5230584 0.638484821,32.596875 C1.15589554,32.3630054 1.67330625,32.1467277 2.17209018,31.9470071 C2.02204107,33.0470223 1.87199196,34.1811866 1.7385,35.3308732 C1.70426722,35.6312097 1.82286577,35.9287088 2.05433211,36.1231239 C2.28579845,36.317539 2.59930887,36.3829803 2.88922143,36.2973964 C3.46425042,36.2213561 3.98883712,35.9294669 4.35659821,35.4809223 C5.08651771,34.2326117 5.59421715,32.8670752 5.85708929,31.4451187 C6.09095893,29.311317 7.94121964,27.2106295 9.24095536,25.4607464 C10.7083321,23.4769937 12.1384554,21.893717 12.57515,20.0434562 C12.9756259,18.4260304 13.2922812,16.7930821 13.6420509,15.1590991 L13.6420509,15.142542 C13.6734033,13.506974 13.9041478,11.8813371 14.3291723,10.3016473 Z" id="Path_760" fill="#F4F4F4"></path>
                <path d="M13.3647187,8.98431964 C13.4143902,8.9677625 13.4485393,8.95120536 13.4982107,8.93464821 C13.5525657,8.90971099 13.6081756,8.88760523 13.664817,8.86841964 C13.7123796,8.8531526 13.757379,8.83082726 13.7983089,8.80219107 C13.8479804,8.78563393 13.9017911,8.75251964 13.948358,8.7359625 L14.0518402,8.68629107 L14.2515607,8.58280893 C14.2681179,8.56625179 14.284675,8.56625179 14.3012321,8.54969464 C14.7557727,8.29789843 15.1806358,7.99591236 15.5678536,7.6494 C15.6369506,7.59695586 15.6985728,7.53533364 15.751017,7.46623661 L15.8845089,7.33274464 L15.9507375,7.26651607 C17.0014515,6.18866504 17.6288858,4.76848868 17.7182125,3.26589643 L17.7347696,3.24933929 C17.4220619,3.5225542 17.0598983,3.73331863 16.6678687,3.87023214 C15.7325013,4.30781336 14.7754285,4.69741211 13.8003786,5.03751071 C12.0465072,5.32105567 10.763651,6.84455735 10.7828393,8.62109732 C10.7662821,8.92119554 10.749725,9.20473661 10.7331679,9.50483482 C11.5270031,9.49244194 12.3141467,9.35735343 13.0666902,9.10435893 L13.0832473,9.10435893 C13.1799529,9.07147217 13.2740431,9.03134552 13.3647187,8.98431964 Z" id="Path_765" fill="#F4F4F4"></path>
                <path d="M29.9177223,33.1567134 C29.8327498,34.5679862 29.6487892,35.971551 29.3671973,37.3570536 L21.5025545,37.3570536 C21.452883,36.7361607 21.3690625,36.1069893 21.3193911,35.494375 C21.3060499,35.4004809 21.3005119,35.3056427 21.3028339,35.2108339 C24.3036398,35.2813167 27.2715738,34.5736471 29.9177223,33.1567134 Z" id="Path_784" fill="#F4F4F4"></path>
                <path d="M29.8173446,27.8387661 C29.2786294,26.4272264 28.6495348,25.0518598 27.9339696,23.7212116 C23.3441068,25.1001201 18.4502611,25.1001201 13.8603982,23.7212116 C13.1485068,25.0536824 12.5195198,26.4288139 11.9770232,27.8387661 C11.4125469,29.389703 11.1083476,31.0232884 11.0767286,32.6734518 C11.3271554,32.840058 11.5941393,33.0066643 11.8600884,33.1567134 C14.5089629,34.5673394 17.4780219,35.2678919 20.4780812,35.1901375 L21.3111125,35.1901375 C24.3111719,35.2678919 27.2802309,34.5673394 29.9291054,33.1567134 C30.1960893,33.0066643 30.4620384,32.840058 30.7124652,32.6734518 C30.6813181,31.023699 30.3789044,29.3903153 29.8173446,27.8387661 Z" id="Path_785" fill="#F4F4F4"></path>
                <path d="M23.2503679,1.05034375 C22.6518406,0.381891696 21.7970241,-0.000118862823 20.899771,-0.000118862823 C20.0025179,-0.000118862823 19.1477014,0.381891696 18.5491741,1.05034375 C18.6268685,1.8747433 18.3266029,2.68991279 17.7327,3.26693125 L17.7492571,3.28348839 C18.5991947,4.10299364 19.7205546,4.58173519 20.9002884,4.62875625 C22.079292,4.57850607 23.1995549,4.10023288 24.0513196,3.28348839 L24.0678768,3.26693125 C23.4709889,2.69180221 23.1698543,1.87530808 23.2503679,1.05034375 Z" id="Path_786" fill="#D6D4D4"></path>
                <path d="M27.450708,10.3016473 C27.2414397,9.5117707 26.9626751,8.74196487 26.6176768,8.00123929 C26.8963816,8.20564733 27.1858582,8.39494704 27.4848571,8.56832143 C27.5014143,8.58487857 27.5179714,8.58487857 27.5345286,8.60143571 L27.7342491,8.70491786 L27.8377312,8.75458929 C27.8844319,8.7835216 27.9349329,8.80581173 27.9877804,8.82081786 C28.035343,8.8360849 28.0803424,8.85841024 28.1212723,8.88704643 C28.1756266,8.91198535 28.2312366,8.93409118 28.2878786,8.953275 C28.33755,8.96983214 28.3716991,8.98638929 28.4213705,9.00294643 C28.5248527,9.03606071 28.6045339,9.069175 28.7049116,9.10642857 L28.7214687,9.10642857 C29.4783893,9.36466802 30.271819,9.49987596 31.0715482,9.50690446 C31.0900294,10.7082394 31.2014328,11.9063438 31.4047607,13.0904911 C31.9045795,15.6413259 32.654825,18.1414545 33.1887929,20.6757321 C33.7217259,23.1427464 36.2063321,25.3096625 36.7071857,27.7766768 C36.8588542,28.3424251 37.1255239,28.8708328 37.4905455,29.3289089 C38.2242339,30.3792527 40.5080848,31.362333 41.3245589,32.3630054 C41.2687481,32.44493 41.207559,32.5230584 41.1413955,32.596875 C40.6239848,32.3630054 40.1065741,32.1467277 39.6077902,31.9470071 C39.7578393,33.0470223 39.9078884,34.1811866 40.0413804,35.3308732 C40.0756131,35.6312097 39.9570146,35.9287088 39.7255482,36.1231239 C39.4940819,36.317539 39.1805715,36.3829803 38.8906589,36.2973964 C38.3156299,36.2213561 37.7910432,35.9294669 37.4232821,35.4809223 C36.6933627,34.2326117 36.1856632,32.8670752 35.9227911,31.4451187 C35.6889214,29.311317 33.8386607,27.2106295 32.538925,25.4607464 C31.0715482,23.4769937 29.641425,21.893717 29.2047304,20.0434562 C28.8042545,18.4260304 28.4875991,16.7930821 28.1378295,15.1590991 L28.1378295,15.142542 C28.1064771,13.506974 27.8757325,11.8813371 27.450708,10.3016473 Z" id="Path_787" fill="#F4F4F4"></path>
                <path d="M28.4348232,8.98431964 C28.3851518,8.9677625 28.3510027,8.95120536 28.3013313,8.93464821 C28.2469784,8.9097059 28.1913683,8.88760001 28.134725,8.86841964 C28.0871683,8.85313808 28.0421709,8.83081383 28.001233,8.80219107 C27.9515616,8.78563393 27.8977509,8.75251964 27.8511839,8.7359625 L27.7477018,8.68629107 L27.5479813,8.58280893 C27.5314241,8.56625179 27.514867,8.56625179 27.4983098,8.54969464 C27.0437647,8.29790583 26.6189007,7.99591915 26.2316884,7.6494 C26.1625914,7.59695586 26.1009691,7.53533364 26.048525,7.46623661 L25.915033,7.33274464 L25.8488045,7.26651607 C24.7980905,6.18866504 24.1706561,4.76848868 24.0813295,3.26589643 L24.066842,3.25037411 C24.3795497,3.52358902 24.7417133,3.73435345 25.1337429,3.87126696 C26.0691146,4.30883831 27.0261869,4.69843686 28.001233,5.03854554 C29.7551044,5.32209049 31.0379606,6.84559218 31.0187723,8.62213214 C31.0353295,8.92223036 31.0518866,9.20577143 31.0684438,9.50586964 C30.2746086,9.49347676 29.4874649,9.35838825 28.7349214,9.10539375 L28.7183643,9.10539375 C28.6197941,9.07528811 28.5247368,9.03469801 28.4348232,8.98431964 Z" id="Path_792" fill="#F4F4F4"></path>
                <path d="M28.117133,15.2356759 C28.117133,15.252233 28.1336902,15.1021839 28.1336902,15.1187411 C28.0942937,13.4930189 27.8707245,11.8770029 27.4672652,10.3016473 C27.2422298,9.51679132 26.9639064,8.74820379 26.6342339,8.00123929 C26.6342339,8.00123929 26.36725,7.78496161 26.233758,7.66802679 C26.164678,7.61556324 26.1030582,7.55394346 26.0505946,7.48486339 L25.9171027,7.35137143 L25.8508741,7.28514286 C24.7985806,6.20004896 24.166262,4.77623201 24.066842,3.26796607 L24.0502848,3.28452321 C23.2345362,4.15652935 22.0938566,4.65143571 20.899771,4.65143571 C19.7056854,4.65143571 18.5650057,4.15652935 17.7492571,3.28452321 L17.7327,3.26796607 C17.6374062,4.77724698 17.0044812,6.20242961 15.9486679,7.28514286 L15.8824393,7.35137143 L15.7489473,7.48486339 L15.5657839,7.66802679 C15.432292,7.78496161 15.2988,7.90189643 15.165308,8.00123929 C14.8331055,8.74718627 14.5547172,9.51595287 14.3322768,10.3016473 C13.9125519,11.8737626 13.6887139,13.4917215 13.6658518,15.1187411 C13.6658518,15.1021839 13.6824089,15.0856268 13.6824089,15.0690696 C14.0487357,15.9693643 14.1822277,16.8365446 14.4823259,17.7026902 C15.1646312,19.7084066 14.9378862,21.9119908 13.861433,23.7367339 C16.1634525,24.3314358 18.5224503,24.6783472 20.8982188,24.7715554 C23.2741026,24.6795911 25.6332326,24.3326602 27.9350045,23.7367339 C26.8584166,21.9120351 26.6316654,19.7083906 27.3141116,17.7026902 C27.6173143,16.8365446 27.7508063,16.1194134 28.117133,15.2356759 Z" id="Path_801" fill="#F4F4F4"></path>
                <path d="M26.6176768,7.98468214 C26.4841848,7.8812 26.3506929,7.76840446 26.2172009,7.65146964 C26.1481208,7.5990061 26.086501,7.53738631 26.0340375,7.46830625 L25.9005455,7.33481429 L25.834317,7.26858571 C24.7810427,6.18353167 24.147958,4.75927452 24.0482152,3.25037411 L24.031658,3.26693125 C23.2159095,4.13893739 22.0752298,4.63384374 20.8811442,4.63384374 C19.6870586,4.63384374 18.5463789,4.13893739 17.7306304,3.26693125 L17.7161429,3.25037411 C17.620849,4.75965501 16.987924,6.18483764 15.9321107,7.26755089 L15.8658821,7.33377946 L15.7323902,7.46727143 L15.5492268,7.65043482 C15.4157348,7.76736964 15.2822429,7.88430446 15.1487509,7.98364732 C15.3650286,8.15025357 16.932783,13.6513643 20.8826964,13.6513643 C24.6163321,13.6513643 26.4169214,8.13369643 26.616642,7.98364732 L26.6176768,7.98468214 Z" id="Path_804" fill="#F4F4F4"></path>
                <path d="M24.0171705,3.33419464 C23.7797849,2.99736019 23.5627742,2.64661839 23.3673027,2.28385089 C22.6684792,2.83648364 21.7892558,3.10976575 20.9002884,3.05065357 C20.0068164,3.06565182 19.1262218,2.83628932 18.3535929,2.38733304 C18.1984321,2.73497471 17.9888371,3.05565504 17.7327,3.33729911 C19.4703187,5.06857675 22.2812631,5.06718817 24.0171705,3.33419464 Z" id="Path_46_1_" fill="#676767"></path>
            </g>
            <g id="top_collar_thumbnails_2" transform="translate(0.000000, 124.000000)" fill-rule="nonzero">
                <path d="M13.1411973,8.98431964 C13.1908687,8.9677625 13.2250179,8.95120536 13.2746893,8.93464821 C13.3290429,8.90970759 13.3846529,8.88760177 13.4412955,8.86841964 C13.4888523,8.85313808 13.5338496,8.83081382 13.5747875,8.80219107 C13.6244589,8.78563393 13.6782696,8.75251964 13.7248366,8.7359625 L13.8283187,8.68629107 L14.0280393,8.58280893 C14.0445964,8.56625179 14.0611536,8.56625179 14.0777107,8.54969464 C14.5322559,8.29790583 14.9571198,7.99591915 15.3443321,7.6494 C15.4134377,7.59696563 15.4750612,7.53534212 15.5274955,7.46623661 L15.6609875,7.33274464 L15.7272161,7.26651607 C16.77793,6.18866504 17.4053644,4.76848868 17.4946911,3.26589643 L17.5112482,3.24933929 C17.1985404,3.5225542 16.8363769,3.73331863 16.4443473,3.87023214 C15.5089785,4.30781007 14.5519059,4.69740875 13.5768571,5.03751071 C11.8229858,5.32105567 10.5401296,6.84455735 10.5593179,8.62109732 C10.5427607,8.92119554 10.5262036,9.20473661 10.5096464,9.50483482 C11.3034816,9.49244194 12.0906252,9.35735343 12.8431687,9.10435893 L12.8597259,9.10435893 C12.9564315,9.07147217 13.0505217,9.03134552 13.1411973,8.98431964 Z" id="Path_821" fill="#F4F4F4"></path>
                <path d="M29.6942009,33.1567134 C29.6092284,34.5679862 29.4252678,35.971551 29.1436759,37.3570536 L21.279033,37.3570536 C21.2293616,36.7361607 21.1455411,36.1069893 21.0958696,35.494375 C21.0825142,35.4004823 21.0769762,35.305643 21.0793125,35.2108339 C24.080328,35.2833041 27.0487619,34.5755153 29.6942009,33.1567134 Z" id="Path_840" fill="#F4F4F4"></path>
                <path d="M29.5938232,27.8387661 C29.0551079,26.4272264 28.4260134,25.0518598 27.7104482,23.7212116 C23.1205854,25.1001201 18.2267396,25.1001201 13.6368768,23.7212116 C12.9249971,25.0536883 12.2960105,26.428819 11.7535018,27.8387661 C11.1890254,29.389703 10.8848261,31.0232884 10.8532071,32.6734518 C11.1036339,32.840058 11.3706179,33.0066643 11.636567,33.1567134 C14.2854414,34.5673394 17.2545005,35.2678919 20.2545598,35.1901375 L21.0875911,35.1901375 C24.0876504,35.2678919 27.0567094,34.5673394 29.7055839,33.1567134 C29.9725679,33.0066643 30.2395518,32.840058 30.4889438,32.6734518 C30.4577967,31.023699 30.155383,29.3903153 29.5938232,27.8387661 Z" id="Path_841" fill="#F4F4F4"></path>
                <path d="M23.0268464,1.05034375 C22.4283191,0.381891696 21.5735026,-0.000118862823 20.6762496,-0.000118862823 C19.7789965,-0.000118862823 18.92418,0.381891696 18.3256527,1.05034375 C18.4033471,1.8747433 18.1030815,2.68991279 17.5091786,3.26693125 L17.5257357,3.28348839 C18.3756732,4.10299364 19.4970332,4.58173519 20.676767,4.62875625 C21.8557706,4.57850607 22.9760335,4.10023288 23.8277982,3.28348839 L23.8443554,3.26693125 C23.2474674,2.69180221 22.9463328,1.87530808 23.0268464,1.05034375 Z" id="Path_842" fill="#D6D4D4"></path>
                <path d="M27.2271866,10.3016473 C27.0179338,9.51176589 26.7391688,8.7419587 26.3941554,8.00123929 C26.6728749,8.20562609 26.9623504,8.39492505 27.2613357,8.56832143 C27.2778929,8.58487857 27.29445,8.58487857 27.3110071,8.60143571 L27.5107277,8.70491786 L27.6142098,8.75458929 C27.6609105,8.7835216 27.7114115,8.80581173 27.7642589,8.82081786 C27.8118216,8.8360849 27.856821,8.85841024 27.8977509,8.88704643 C27.9520978,8.91200245 28.0077087,8.93410868 28.0643571,8.953275 C28.1140286,8.96983214 28.1481777,8.98638929 28.1978491,9.00294643 C28.3013312,9.03606071 28.3810125,9.069175 28.4813902,9.10642857 L28.4979473,9.10642857 C29.253839,9.36247325 30.045829,9.49592721 30.8438875,9.50173036 C30.8623853,10.7030644 30.9737885,11.9011675 31.1771,13.085317 C31.6769188,15.6361518 32.4271643,18.1362804 32.9611321,20.670558 C33.4940652,23.1375723 35.9786714,25.3044884 36.479525,27.7715027 C36.6312213,28.3372404 36.8978882,28.8656427 37.2628848,29.3237348 C37.9965732,30.3740786 40.2804241,31.3571589 41.0968982,32.3578313 C41.0411071,32.4397703 40.979917,32.5179 40.9137348,32.5917009 C40.3963241,32.3578313 39.8789134,32.1415536 39.3801295,31.941833 C39.5301786,33.0418482 39.6802277,34.1760125 39.8137196,35.3256991 C39.8479524,35.6260356 39.7293539,35.9235347 39.4978875,36.1179498 C39.2664212,36.3123649 38.9529108,36.3778062 38.6629982,36.2922223 C38.0879692,36.216182 37.5633825,35.9242928 37.1956214,35.4757482 C36.465683,34.2274466 35.9579822,32.8619067 35.6951304,31.4399446 C35.4612607,29.3061429 33.611,27.2054554 32.3112643,25.4555723 C30.8438875,23.4718196 29.4137643,21.8885429 28.9770696,20.0382821 C28.5765937,18.4208563 28.2599384,16.787908 27.9101687,15.153925 L27.9101687,15.1373679 C27.8797578,13.5037042 27.6504071,11.8798318 27.2271866,10.3016473 Z" id="Path_843" fill="#F4F4F4"></path>
                <path d="M28.2113018,8.98431964 C28.1616304,8.9677625 28.1274813,8.95120536 28.0778098,8.93464821 C28.0234527,8.90971614 27.967843,8.88761046 27.9112036,8.86841964 C27.8636409,8.8531526 27.8186415,8.83082726 27.7777116,8.80219107 C27.7280402,8.78563393 27.6742295,8.75251964 27.6276625,8.7359625 L27.5241804,8.68629107 L27.3244598,8.58280893 C27.3079027,8.56625179 27.2913455,8.56625179 27.2747884,8.54969464 C26.8202433,8.29790583 26.3953793,7.99591915 26.008167,7.6494 C25.9390615,7.59696563 25.8774379,7.53534212 25.8250036,7.46623661 L25.6915116,7.33274464 L25.625283,7.26651607 C24.5745691,6.18866504 23.9471347,4.76848868 23.857808,3.26589643 L23.8433205,3.25037411 C24.1560283,3.52358902 24.5181919,3.73435345 24.9102214,3.87126696 C25.8455953,4.30883338 26.8026674,4.69843182 27.7777116,5.03854554 C29.5315829,5.32209049 30.8144391,6.84559218 30.7952509,8.62213214 C30.811808,8.92223036 30.8283652,9.20577143 30.8449223,9.50586964 C30.0510871,9.49347676 29.2639435,9.35838825 28.5114,9.10539375 L28.4948429,9.10539375 C28.3962917,9.075236 28.3012399,9.0346482 28.2113018,8.98431964 Z" id="Path_848" fill="#F4F4F4"></path>
                <path d="M27.8936116,15.2356759 C27.8936116,15.252233 27.9101687,15.1021839 27.9101687,15.1187411 C27.8707988,13.4930167 27.6472293,11.8769978 27.2437437,10.3016473 C27.0187084,9.51679132 26.740385,8.74820379 26.4107125,8.00123929 C26.4107125,8.00123929 26.1437286,7.78496161 26.0102366,7.66802679 C25.9411311,7.61559242 25.8795076,7.5539689 25.8270732,7.48486339 L25.6935812,7.35137143 L25.6273527,7.28514286 C24.5750591,6.20004896 23.9427406,4.77623201 23.8433205,3.26796607 L23.8267634,3.28452321 C23.0110148,4.15652935 21.8703352,4.65143571 20.6762496,4.65143571 C19.482164,4.65143571 18.3414843,4.15652935 17.5257357,3.28452321 L17.5091786,3.26796607 C17.4138848,4.77724698 16.7809597,6.20242961 15.7251464,7.28514286 L15.6589179,7.35137143 L15.5254259,7.48486339 L15.3422625,7.66802679 C15.2087705,7.78496161 15.0752786,7.90189643 14.9417866,8.00123929 C14.6095971,8.74719157 14.3312092,9.51595722 14.1087554,10.3016473 C13.6887018,11.8737229 13.4645165,13.49168 13.4412955,15.1187411 C13.4412955,15.1021839 13.4578527,15.0856268 13.4578527,15.0690696 C13.8241795,15.9693643 13.9576714,16.8365446 14.2577696,17.7026902 C14.940075,19.7084066 14.7133299,21.9119908 13.6368768,23.7367339 C15.9388962,24.3314358 18.297894,24.6783472 20.6736625,24.7715554 C23.0495463,24.6795911 25.4086764,24.3326602 27.7104482,23.7367339 C26.6339951,21.9119908 26.40725,19.7084066 27.0895554,17.7026902 C27.3937929,16.8365446 27.5272848,16.1194134 27.8936116,15.2356759 Z" id="Path_857" fill="#F4F4F4"></path>
                <path d="M26.4107125,7.98468214 C26.2772205,7.8812 26.1437286,7.76840446 26.0102366,7.65146964 C25.9411311,7.59903528 25.8795076,7.53741176 25.8270732,7.46830625 L25.6935813,7.33481429 L25.6273527,7.26858571 C24.5740784,6.18353167 23.9409937,4.75927452 23.8412509,3.25037411 L23.8246938,3.26693125 C23.0089452,4.13893739 21.8682655,4.63384374 20.6741799,4.63384374 C19.4800943,4.63384374 18.3394147,4.13893739 17.5236661,3.26693125 L17.5091786,3.25037411 C17.4138848,4.75965501 16.7809597,6.18483764 15.7251464,7.26755089 L15.6589179,7.33377946 L15.5254259,7.46727143 L15.3422625,7.65043482 C15.2087705,7.76736964 15.0752786,7.88430446 14.9417866,7.98364732 C15.1580643,8.15025357 16.7258188,13.6513643 20.676767,13.6513643 C24.3938455,13.6513643 26.1944348,8.13369643 26.4107125,7.98364732 L26.4107125,7.98468214 Z" id="Path_860" fill="#F4F4F4"></path>
                <path d="M14.1056509,10.3016473 C14.3149347,9.51177559 14.5936988,8.74197105 14.9386821,8.00123929 C14.6599626,8.20562609 14.3704871,8.39492505 14.0715018,8.56832143 C14.0549446,8.58487857 14.0383875,8.58487857 14.0218304,8.60143571 L13.8221098,8.70491786 L13.7186277,8.75458929 C13.6719208,8.78350973 13.6214214,8.8057991 13.5685786,8.82081786 C13.52101,8.83607038 13.4760085,8.85839667 13.4350866,8.88704643 C13.3807338,8.91198875 13.3251236,8.93409464 13.2684804,8.953275 C13.2188089,8.96983214 13.1846598,8.98638929 13.1349884,9.00294643 C13.0315062,9.03606071 12.951825,9.069175 12.8514473,9.10642857 L12.8348902,9.10642857 C12.0779697,9.36466802 11.2845399,9.49987596 10.4848107,9.50690446 C10.4663129,10.7082385 10.3549097,11.9063416 10.1515982,13.0904911 C9.65177946,15.6413259 8.90153393,18.1414545 8.36756607,20.6757321 C7.83359821,23.1427464 5.35002679,25.3096625 4.84917321,27.7766768 C4.69753262,28.3424358 4.43086012,28.8708489 4.06581339,29.3289089 C3.332125,30.3792527 1.04827411,31.362333 0.2318,32.3630054 C0.287630458,32.4449156 0.348818523,32.5230428 0.414963393,32.596875 C0.932374107,32.3630054 1.44978482,32.1467277 1.94856875,31.9470071 C1.79851964,33.0470223 1.64847054,34.1811866 1.51497857,35.3308732 C1.48074579,35.6312097 1.59934434,35.9287088 1.83081068,36.1231239 C2.06227702,36.317539 2.37578744,36.3829803 2.6657,36.2973964 C3.24072899,36.2213561 3.76531569,35.9294669 4.13307679,35.4809223 C4.86297728,34.2326026 5.37067546,32.8670697 5.63356786,31.4451187 C5.8674375,29.311317 7.71769821,27.2106295 9.01743393,25.4607464 C10.4848107,23.4769937 11.9149339,21.893717 12.3516286,20.0434562 C12.7521045,18.4260304 13.0687598,16.7930821 13.4185295,15.1590991 L13.4185295,15.142542 C13.4498715,13.5069732 13.6806163,11.881335 14.1056509,10.3016473 Z" id="Path_816" fill="#F4F4F4"></path>
                <path d="M11.6407062,33.1567134 C11.7256787,34.5679862 11.9096394,35.971551 12.1912312,37.3570536 L20.0558741,37.3570536 C20.1055455,36.7361607 20.1893661,36.1069893 20.2390375,35.494375 C20.2523929,35.4004823 20.257931,35.305643 20.2555946,35.2108339 C17.2547888,35.2813167 14.2868548,34.5736471 11.6407062,33.1567134 Z" id="Path_815" fill="#F4F4F4"></path>
                <path d="M23.7760571,3.23381696 C23.2727076,2.61375851 23.0119495,1.83185168 23.0423687,1.03378661 C22.4162132,1.68488279 21.5445642,2.04180799 20.641583,2.01686696 C19.7751853,2.02862539 18.9447158,1.67115099 18.3577321,1.03378661 C18.3441847,1.83536311 18.075594,2.61177512 17.5909295,3.25037411 C18.3889935,4.11312186 19.5118685,4.60225931 20.687126,4.59911323 C21.8623833,4.59596716 22.9826236,4.10082505 23.7760571,3.23381696 Z" id="Path_46_5_" fill="#676767"></path>
            </g>
        </g>
    </g>
</svg>