<?xml version="1.0" encoding="UTF-8"?>
<svg width="248px" height="227px" viewBox="0 0 248 227" version="1.1" xmlns="http://www.w3.org/2000/svg" xmlns:xlink="http://www.w3.org/1999/xlink">
    <!-- Generator: Sketch 51.1 (57501) - http://www.bohemiancoding.com/sketch -->
    <title>visual filter updated Aug 10.0</title>
    <desc>Created with Sketch.</desc>
    
    <defs>
        <path d="M72.6,120.2 C70,131.4 61.4,140.8 52.6,152.7 C44.9,163.2 33.7,175.8 32.4,188.6 C31.5,196.9 27.2,205 23.4,212.8 C22.2,215.2 17.9,217.2 14.6,217.7 C10.8,218.3 7.3,216.2 7.7,211.9 C8.5,205 9.4,198.3 10.3,191.6 C7.3,192.8 4.2,194.2 1.1,195.5 C0.679406206,195.078346 0.310173485,194.608413 0,194.1 C4.9,188.1 18.6,182.2 23,175.9 C25.2075978,173.167827 26.8096218,169.997865 27.7,166.6 C30.7,151.8 45.6,138.8 48.8,124 C51.9,109 56.4,94 59.4,78.7 C60.8,71.6 61,64.4 61.4,57.2 C66.1980734,57.1588454 70.9585061,56.348559 75.5,54.8 C76.2,54.6 76.7,54.4 77.3,54.2 C77.6,54.1 77.8,54 78.1,53.9 C78.4261832,53.7494432 78.7599661,53.61593 79.1,53.5 C79.3851908,53.4074755 79.6548659,53.2726379 79.9,53.1 C80.1094418,52.8556552 80.3885863,52.6811898 80.7,52.6 L81.3,52.3 L82.5,51.7 C82.6,51.6 82.7,51.6 82.8,51.5 C84.6287047,50.5196976 86.3686051,49.3820703 88,48.1 C85.9455251,52.5500991 84.2728432,57.166701 83,61.9 C80.5172599,71.339012 79.1743566,81.0414885 79,90.8 C77,100.7 75,110.5 72.6,120.2 Z M172.2,120.2 C174.8,131.4 183.4,140.8 192.2,152.7 C200,163.2 211.1,175.8 212.5,188.6 C213.4,196.9 217.7,205 221.5,212.8 C222.7,215.2 227,217.2 230.3,217.7 C234.1,218.3 237.6,216.2 237.2,211.9 C236.4,205 235.5,198.3 234.6,191.6 C237.6,192.8 240.7,194.2 243.8,195.5 C244.220594,195.078346 244.589827,194.608413 244.9,194.1 C240,188.1 226.3,182.2 221.9,175.9 C219.692402,173.167827 218.090378,169.997865 217.2,166.6 C214.2,151.8 199.3,138.8 196.1,124 C192.9,108.8 188.4,93.9 185.4,78.5 C184,71.4 183.8,64.2 183.4,57 C178.601927,56.9588454 173.841494,56.148559 169.3,54.6 C168.6,54.4 168.1,54.2 167.5,54 C167.2,53.9 167,53.8 166.7,53.7 C166.373816,53.5494448 166.040033,53.4159317 165.7,53.3 C165.414809,53.2074755 165.145134,53.0726379 164.9,52.9 C164.6,52.8 164.3,52.6 164,52.5 L163.4,52.2 L162.2,51.6 C162.1,51.5 162,51.5 161.9,51.4 C160.071295,50.4196976 158.331395,49.2820703 156.7,48 C158.754475,52.4500991 160.427157,57.066701 161.7,61.8 C164.259185,71.2602249 165.636343,81.001097 165.8,90.8 C167.8,100.7 169.8,110.5 172.2,120.2 Z" id="path-1"></path>
        <filter x="-0.9%" y="-3.2%" width="101.8%" height="105.0%" filterUnits="objectBoundingBox" id="filter-2">
            <feMorphology radius="0.5" operator="dilate" in="SourceAlpha" result="shadowSpreadOuter1"></feMorphology>
            <feOffset dx="0" dy="1" in="shadowSpreadOuter1" result="shadowOffsetOuter1"></feOffset>
            <feColorMatrix values="0 0 0 0 0.992   0 0 0 0 0.49   0 0 0 0 0.341  0 0 0 0.8 0" type="matrix" in="shadowOffsetOuter1"></feColorMatrix>
        </filter>
        <path d="M61.2878205,55.3138136 C61.2241273,59.6661779 60,71.4961955 60,73.0746713 C60,79.4058978 82.1430278,79.9909945 82.7220619,75.3539752 C83.0144806,73.012228 84.263891,59.5860981 85.687854,55.3138136 C86.6371626,52.465624 87.5537471,50.0276861 88.4376074,48 M158.860447,48 L160.887219,53.7286516 C161.385152,55.9020559 162.226927,60.6393733 163.412543,67.9406037 C163.87667,70.798772 164.366411,73.314838 164.654184,75.6054017 C165.31345,80.8529215 187.133721,78.199566 186.745208,73.8276336 C186.486199,70.913012 185.957856,64.7417387 185.160179,55.3138136" id="path-3"></path>
        <filter x="-1.6%" y="-8.3%" width="103.2%" height="118.1%" filterUnits="objectBoundingBox" id="filter-4">
            <feMorphology radius="0.5" operator="dilate" in="SourceAlpha" result="shadowSpreadOuter1"></feMorphology>
            <feOffset dx="0" dy="1" in="shadowSpreadOuter1" result="shadowOffsetOuter1"></feOffset>
            <feColorMatrix values="0 0 0 0 0.992   0 0 0 0 0.49   0 0 0 0 0.341  0 0 0 0.8 0" type="matrix" in="shadowOffsetOuter1"></feColorMatrix>
        </filter>
        <path d="M62.6656235,55.1352311 C62.3656235,75.6352311 59.0142076,84.4336772 54.1142076,103.433677 C52.226963,109.16666 74.3360915,114.050653 75.6165149,108.670068 C77.5851232,100.397597 79.6000131,91.1838819 80.0656235,88.4352311 C80.8340764,83.8988011 81.8392781,73.641287 82.6019104,69.3512451 C83.3645426,65.0612033 84.1437395,59.4075155 85.5677025,55.1352311 C86.5170112,52.2870414 87.5620998,49.5752977 88.7029685,47 M157.946809,47.8214174 L160.767068,53.550069 C161.265,55.7234734 162.106775,60.4607907 163.292392,67.7620211 C165.070817,78.7138667 166.070817,84.8373198 166.760119,90.4562946 C167.150476,93.6383656 168.736068,100.746181 170.51017,107.765815 C171.868818,113.141614 193.104282,107.499938 192.177047,103.913283 C191.305405,100.541668 189.883744,94.1830139 187.912063,84.8373198 C187.856583,83.8964236 187.426096,80.3710996 186.620602,74.2613477 C185.815109,68.1515959 184.952977,61.8722756 184.034207,55.423387" id="path-5"></path>
        <filter x="-2.5%" y="-7.5%" width="105.1%" height="114.5%" filterUnits="objectBoundingBox" id="filter-6">
            <feMorphology radius="1" operator="dilate" in="SourceAlpha" result="shadowSpreadOuter1"></feMorphology>
            <feOffset dx="0" dy="1" in="shadowSpreadOuter1" result="shadowOffsetOuter1"></feOffset>
            <feColorMatrix values="0 0 0 0 0.992   0 0 0 0 0.49   0 0 0 0 0.341  0 0 0 0.8 0" type="matrix" in="shadowOffsetOuter1"></feColorMatrix>
        </filter>
        <path d="M63.7103386,55.1352311 C63.4103386,75.6352311 59.7103386,85.9352311 54.8103386,104.935231 C52.923094,110.668214 48.7271322,123.758146 46.7826899,128.240143 C44.1134027,134.392929 33.7918181,152.280614 33.2838905,153.576249 C32.5994252,155.322201 32.8034145,157.347513 37.9230804,160.82322 C43.0427462,164.298928 45.4764981,164.971359 46.7826899,163.214354 C47.6410329,162.059767 51.7935278,156.667109 52.923094,155.135231 C61.623094,143.335231 70.6103386,130.135231 73.2103386,121.935231 C75.7103386,113.935231 80.3418857,92.971661 81.1103386,88.4352311 C81.8787915,83.8988011 82.8839933,73.641287 83.6466255,69.3512451 C84.4092578,65.0612033 85.1884547,59.4075155 86.6124177,55.1352311 C87.5617263,52.2870414 88.606815,49.5752977 89.7476836,47 M158.991524,47.8214174 L161.811783,53.550069 C162.309716,55.7234734 163.15149,60.4607907 164.337107,67.7620211 C166.115532,78.7138667 167.115532,84.8373198 167.804834,90.4562946 C168.494135,96.0752694 172.910339,113.935231 175.510339,121.935231 C178.110339,130.135231 187.910339,143.335231 196.710339,155.135231 C198.359951,157.372377 200.048456,159.388544 201.496871,161.667373 C202.843219,163.785617 216.274457,156.131421 214.982906,153.944309 C214.436207,153.01853 213.954614,151.883957 213.410339,150.835231 C210.710339,145.735231 206.710339,140.135231 203.910339,134.235231 C199.210339,124.435231 198.767936,120.944223 195.83116,112.709903 C193.873309,107.220355 191.581849,97.9294946 188.956778,84.8373198 C188.901298,83.8964236 188.470811,80.3710996 187.665318,74.2613477 C186.859824,68.1515959 185.997692,61.8722756 185.078922,55.423387" id="path-7"></path>
        <filter x="-1.9%" y="-4.1%" width="103.9%" height="107.9%" filterUnits="objectBoundingBox" id="filter-8">
            <feMorphology radius="1" operator="dilate" in="SourceAlpha" result="shadowSpreadOuter1"></feMorphology>
            <feOffset dx="0" dy="1" in="shadowSpreadOuter1" result="shadowOffsetOuter1"></feOffset>
            <feColorMatrix values="0 0 0 0 0.992   0 0 0 0 0.49   0 0 0 0 0.341  0 0 0 0.8 0" type="matrix" in="shadowOffsetOuter1"></feColorMatrix>
        </filter>
        <path d="M63.5,58.1352311 C63.2,78.6352311 59.5,88.9352311 54.6,107.935231 C52.8,117.535231 50.3,127.435231 45.6,137.235231 C42.8,143.135231 37.7,148.635231 35.1,153.835231 C31,161.835231 28,169.135231 27,173.435231 C29.8,176.235231 28.4,175.435231 30.9,176.835231 C33.4,178.235231 34.3,178.235231 37.8,177.435231 C37.8,177.435231 43.5,168.035231 50.8,158.135231 C59.5,146.335231 70.4,133.135231 73,124.935231 C75.5,116.935231 80.1315471,95.971661 80.9,91.4352311 C81.6684529,86.8988011 82.6736546,76.641287 83.4362869,72.3512451 C84.1989192,68.0612033 84.9781161,62.4075155 86.402079,58.1352311 C87.3513877,55.2870414 88.3964763,52.5752977 89.537345,50 M158.781185,50.8214174 L161.601444,56.550069 C162.099377,58.7234734 162.941152,63.4607907 164.126768,70.7620211 C165.905194,81.7138667 166.905194,87.8373198 167.594495,93.4562946 C168.283797,99.0752694 172.7,116.935231 175.3,124.935231 C177.9,133.135231 187.7,146.335231 196.5,158.135231 C203.8,168.035231 210.5,177.435231 210.5,177.435231 C214,178.335231 214.9,178.335231 217.4,176.835231 C219.9,175.435231 218.4,176.335231 221.3,173.435231 C220.3,169.035231 217.3,161.735231 213.2,153.835231 C210.5,148.735231 206.5,143.135231 203.7,137.235231 C199,127.435231 198.557597,123.944223 195.620821,115.709903 C193.662971,110.220355 191.37151,100.929495 188.74644,87.8373198 C188.69096,86.8964236 188.260473,83.3710996 187.454979,77.2613477 C186.649485,71.1515959 185.787353,64.8722756 184.868583,58.423387" id="path-9"></path>
        <filter x="-2.7%" y="-5.4%" width="105.4%" height="110.2%" filterUnits="objectBoundingBox" id="filter-10">
            <feMorphology radius="1.5" operator="dilate" in="SourceAlpha" result="shadowSpreadOuter1"></feMorphology>
            <feOffset dx="0" dy="1" in="shadowSpreadOuter1" result="shadowOffsetOuter1"></feOffset>
            <feColorMatrix values="0 0 0 0 0.992   0 0 0 0 0.49   0 0 0 0 0.341  0 0 0 0.8 0" type="matrix" in="shadowOffsetOuter1"></feColorMatrix>
        </filter>
        <path d="M62.8837738,56.9194145 C61.2837738,67.8194145 57.6,88.4194145 52.7,107.319415 C50.2,116.919415 7.9,168.619415 6,177.819415 C8.8,180.619415 20,186.919415 22.5,188.319415 C25,189.719415 40.5,196.419415 44,195.519415 L73.2,121.019415 C76.1175755,108.803028 78.2917406,99.4157263 79.7224954,92.8575106 C80.8458411,87.7083796 82.1006899,77.6299426 83.7882975,68.9168314 C85.1292233,61.9936371 87.5393952,51.6673144 87.5393952,50 M159.469984,50 C161.788877,59.7969168 163.122729,67.1122807 163.471539,71.9460917 C163.994754,79.1968082 166.388192,90.7629254 166.388192,96.0497936 C166.388192,101.336662 174.226968,123.129317 174.422254,123.627563 C180.683976,139.60353 190.076557,163.567481 202.6,195.519415 C206.1,196.419415 221.5,189.719415 224.1,188.319415 C226.7,186.919415 237.8,180.619415 240.6,177.819415 C238.8,168.619415 196.4,116.919415 193.9,107.319415 C191.416399,97.7398115 188.532363,88.7749281 186.909215,79.8062881 C185.329987,71.0803226 185.329987,62.5371455 184.2,56.9194145" id="path-11"></path>
        <filter x="-2.2%" y="-4.3%" width="104.3%" height="108.4%" filterUnits="objectBoundingBox" id="filter-12">
            <feMorphology radius="1.5" operator="dilate" in="SourceAlpha" result="shadowSpreadOuter1"></feMorphology>
            <feOffset dx="0" dy="1" in="shadowSpreadOuter1" result="shadowOffsetOuter1"></feOffset>
            <feColorMatrix values="0 0 0 0 0.992   0 0 0 0 0.49   0 0 0 0 0.341  0 0 0 0.8 0" type="matrix" in="shadowOffsetOuter1"></feColorMatrix>
        </filter>
        <path d="M62.5,57.1352311 C62.2,77.6352311 58.5,87.9352311 53.6,106.935231 C51.8,116.535231 49.3,126.435231 44.6,136.235231 C41.8,142.135231 36.7,147.635231 34.1,152.835231 C30,160.835231 27,168.135231 26,172.435231 C28.8,175.235231 27.4,174.435231 29.9,175.835231 C32.4,177.235231 33.3,177.235231 36.8,176.435231 C36.8,176.435231 42.5,167.035231 49.8,157.135231 C58.5,145.335231 69.4,132.135231 72,123.935231 C74.5,115.935231 79.1315471,94.971661 79.9,90.4352311 C80.6684529,85.8988011 81.6736546,75.641287 82.4362869,71.3512451 C83.1989192,67.0612033 83.9781161,61.4075155 85.402079,57.1352311 C86.3513877,54.2870414 87.3964763,51.5752977 88.537345,49 M157.781185,49.8214174 L160.601444,55.550069 C161.099377,57.7234734 161.941152,62.4607907 163.126768,69.7620211 C164.905194,80.7138667 165.905194,86.8373198 166.594495,92.4562946 C167.283797,98.0752694 171.7,115.935231 174.3,123.935231 C176.9,132.135231 186.7,145.335231 195.5,157.135231 C202.8,167.035231 209.5,176.435231 209.5,176.435231 C213,177.335231 213.9,177.335231 216.4,175.835231 C218.9,174.435231 217.4,175.335231 220.3,172.435231 C219.3,168.035231 216.3,160.735231 212.2,152.835231 C209.5,147.735231 205.5,142.135231 202.7,136.235231 C198,126.435231 197.557597,122.944223 194.620821,114.709903 C192.662971,109.220355 190.37151,99.9294946 187.74644,86.8373198 C187.69096,85.8964236 187.260473,82.3710996 186.454979,76.2613477 C185.649485,70.1515959 184.787353,63.8722756 183.868583,57.423387" id="path-13"></path>
        <filter x="-2.7%" y="-5.4%" width="105.4%" height="110.2%" filterUnits="objectBoundingBox" id="filter-14">
            <feMorphology radius="1.5" operator="dilate" in="SourceAlpha" result="shadowSpreadOuter1"></feMorphology>
            <feOffset dx="0" dy="1" in="shadowSpreadOuter1" result="shadowOffsetOuter1"></feOffset>
            <feColorMatrix values="0 0 0 0 0.992   0 0 0 0 0.49   0 0 0 0 0.341  0 0 0 0.8 0" type="matrix" in="shadowOffsetOuter1"></feColorMatrix>
        </filter>
        <path d="M167,91.1816804 C167,91.1816804 165.704,71.6816804 162.804,62.3816804 C161.304,57.5816804 159.304,51.9816804 157.804,48.5816804 C157.804,48.5816804 156.204,47.2816804 155.404,46.5816804 C154.989042,46.2667137 154.618967,45.8966385 154.304,45.4816804 L153.504,44.6816804 L152,44.2816804 C148.839118,41.0216989 152,82.1816804 123.5,82.1816804 C95,82.1816804 97.1618745,40.9388325 94,44.1816804 L93.304,44.6816804 L92.504,45.4816804 L91.404,46.5816804 C90.604,47.2816804 89.804,47.9816804 89.004,48.5816804 C87.004,52.9816804 85.804,57.6816804 84.004,62.3816804 C81.9373333,67.9816804 80.6026667,77.9150138 80,92.1816804 L84.804,106.78168 C86.268,116.38168 87,122.848347 87,126.18168 C87,126.18168 108.504,131.08168 123.304,131.18168 C138.204,131.08168 160,126.18168 160,126.18168 C159,117.18168 160,114.18168 161.804,106.78168 C163.804,101.58168 167,91.1816804 167,91.1816804 Z" id="path-15"></path>
        <filter x="-5.8%" y="-5.7%" width="111.6%" height="112.5%" filterUnits="objectBoundingBox" id="filter-16">
            <feMorphology radius="1.5" operator="dilate" in="SourceAlpha" result="shadowSpreadOuter1"></feMorphology>
            <feOffset dx="0" dy="1" in="shadowSpreadOuter1" result="shadowOffsetOuter1"></feOffset>
            <feColorMatrix values="0 0 0 0 0.992   0 0 0 0 0.49   0 0 0 0 0.341  0 0 0 0.8 0" type="matrix" in="shadowOffsetOuter1"></feColorMatrix>
        </filter>
        <path d="M166,91.4 C167,86.8 167.2,78.6 163.5,64.5 C161.819554,59.0196033 159.816047,53.643527 157.5,48.4 L157.9,48.4 C157.9,48.4 155.9,47.1 155.1,46.4 C154.685025,46.0850521 154.314948,45.7149745 154,45.3 L153.2,44.5 L152.8,44.1 C146.487877,37.5899798 155.1,82 123.25,82 C91.4,82 99.7334221,37.6043833 93.4,44.1 L93,44.5 L92.2,45.3 L91.1,46.4 C90.3,47.1 89.5,47.8 88.7,48.4 C86.7,52.8 85.5,57.5 83.7,62.2 C80.6,70.6 79.9,86.5 80,91.4 C82.2,96.8 82.7,101.4 84.5,106.6 C88.8,119.1 88.1,133.6 75,154.6 C75,154.6 101.2,162.8 123,162.8 C144.6,162.8 171.5,154.6 171.5,154.6 C159.6,133.9 155.9,120.6 161.6,106.6 C163.8,101.5 165,96 166,91.4 Z" id="path-17"></path>
        <filter x="-6.9%" y="-4.2%" width="113.6%" height="109.2%" filterUnits="objectBoundingBox" id="filter-18">
            <feMorphology radius="1.5" operator="dilate" in="SourceAlpha" result="shadowSpreadOuter1"></feMorphology>
            <feOffset dx="0" dy="1" in="shadowSpreadOuter1" result="shadowOffsetOuter1"></feOffset>
            <feColorMatrix values="0 0 0 0 0.992   0 0 0 0 0.49   0 0 0 0 0.341  0 0 0 0.8 0" type="matrix" in="shadowOffsetOuter1"></feColorMatrix>
        </filter>
        <path d="M167,91.9516673 C167,92.0516673 165.4,72.0516673 162.5,62.7516673 C161,57.9516673 159,52.3516673 157.5,48.9516673 C157.5,48.9516673 155.9,47.6516673 155.1,46.9516673 C154.685025,46.6367194 154.314948,46.2666418 154,45.8516673 L153.2,45.0516673 L152.8,44.6516673 C146.487877,38.1416471 154,82.5516673 123.25,82.5516673 C92.5,82.5516673 99.7334221,38.1560506 93.4,44.6516673 L93,45.0516673 L92.2,45.8516673 L91.1,46.9516673 C90.3,47.6516673 89.5,48.3516673 88.7,48.9516673 C86.7,53.3516673 85.5,58.0516673 83.7,62.7516673 C80.6,71.1516673 79.9,87.0516673 80,91.9516673 C82.2,97.3516673 82.9,133.851667 75,155.151667 C75,155.151667 101.2,163.351667 123,163.351667 C144.6,163.351667 171.5,155.151667 171.5,155.151667 C165,134.251667 164.8,97.2516673 167,91.9516673 Z" id="path-19"></path>
        <filter x="-6.2%" y="-4.2%" width="112.2%" height="109.2%" filterUnits="objectBoundingBox" id="filter-20">
            <feMorphology radius="1.5" operator="dilate" in="SourceAlpha" result="shadowSpreadOuter1"></feMorphology>
            <feOffset dx="0" dy="1" in="shadowSpreadOuter1" result="shadowOffsetOuter1"></feOffset>
            <feColorMatrix values="0 0 0 0 0.992   0 0 0 0 0.49   0 0 0 0 0.341  0 0 0 0.8 0" type="matrix" in="shadowOffsetOuter1"></feColorMatrix>
        </filter>
        <path d="M167.4,99.3516673 C167.4,99.4516673 166.9,78.3516673 162.4,62.7516673 C161.004299,58.057958 159.334771,53.4500614 157.4,48.9516673 C157.4,48.9516673 155.8,47.6516673 155,46.9516673 C154.585017,46.6367288 154.214938,46.26665 153.9,45.8516673 L153.1,45.0516673 L152.7,44.6516673 C146.387877,38.1416471 155,82.5516673 123.25,82.5516673 C91.5,82.5516673 99.6333476,38.1560001 93.3,44.6516673 L92.9,45.0516673 L92.1,45.8516673 L91,46.9516673 C90.2,47.6516673 89.4,48.3516673 88.6,48.9516673 C86.6,53.3516673 85.5,57.5516673 84,62.7516673 C81.5,71.3516673 79.7,90.9516673 79,98.5516673 C76.4,117.251667 76.5,133.851667 75,155.151667 C75,155.151667 101.2,163.351667 123,163.351667 C144.6,163.351667 171.5,155.151667 171.5,155.151667 C169.5,132.451667 171.5,118.051667 167.4,99.3516673 Z" id="path-21"></path>
        <filter x="-5.3%" y="-4.2%" width="110.7%" height="109.2%" filterUnits="objectBoundingBox" id="filter-22">
            <feMorphology radius="1.5" operator="dilate" in="SourceAlpha" result="shadowSpreadOuter1"></feMorphology>
            <feOffset dx="0" dy="1" in="shadowSpreadOuter1" result="shadowOffsetOuter1"></feOffset>
            <feColorMatrix values="0 0 0 0 0.992   0 0 0 0 0.49   0 0 0 0 0.341  0 0 0 0.8 0" type="matrix" in="shadowOffsetOuter1"></feColorMatrix>
        </filter>
        <path d="M166.7,92.358413 C166.7,92.458413 166.8,92.558413 166.8,92.658413 C166.56305,82.904876 165.221149,73.2096388 162.8,63.758413 C161.449116,59.0500549 159.77857,54.4393486 157.8,49.958413 C157.8,49.958413 156.2,48.658413 155.4,47.958413 C154.985017,47.6434746 154.614938,47.2733958 154.3,46.858413 L153.5,46.058413 L153.1,45.658413 C146.787877,39.1483928 153.1,83.058413 123.4,83.058413 C93.7,83.058413 100.033348,39.1627458 93.7,45.658413 L93.3,46.058413 L92.5,46.858413 L91.4,47.958413 C90.6,48.658413 89.8,49.358413 89,49.958413 C87.0062126,54.4332258 85.3352765,59.0450094 84,63.758413 C81.4811428,73.1901673 80.1376259,82.8970767 80,92.658413 C80,92.558413 80.1,92.458413 80.1,92.358413 C82.3,97.758413 83.1,102.958413 84.9,108.158413 C89.2,120.658413 87.5,132.458413 81.2,144.358413 C93.5,147.158413 108.6,150.458413 123.4,150.558413 C138.3,150.458413 153.3,147.158413 165.6,144.358413 C159.3,132.458413 157.6,120.658413 161.9,108.158413 C163.7,102.958413 164.4,97.658413 166.7,92.358413 Z" id="path-23"></path>
        <filter x="-6.2%" y="-4.7%" width="112.5%" height="110.4%" filterUnits="objectBoundingBox" id="filter-24">
            <feMorphology radius="1.5" operator="dilate" in="SourceAlpha" result="shadowSpreadOuter1"></feMorphology>
            <feOffset dx="0" dy="1" in="shadowSpreadOuter1" result="shadowOffsetOuter1"></feOffset>
            <feColorMatrix values="0 0 0 0 0.992   0 0 0 0 0.49   0 0 0 0 0.341  0 0 0 0.8 0" type="matrix" in="shadowOffsetOuter1"></feColorMatrix>
        </filter>
        <path d="M77.1,55.1 C72.5505678,56.6170659 67.7951454,57.4264995 63,57.5 C63.1,55.7 63.2,54 63.3,52.2 C63.9,41.6 68.9,34.1 81.4,30.7 C87.4,29.1 92.8,25.9 98.6,23.7 C100.957383,22.9028294 103.132848,21.6451386 105,20 L104.9,20.1 C104.365243,29.1137924 100.602346,37.6335594 94.3,44.1 L93.9,44.5 L93.1,45.3 L92,46.4 C89.6839263,48.4877335 87.1335581,50.2998372 84.4,51.8 C84.3,51.9 84.2,51.9 84.1,52 L82.9,52.6 L82.3,52.9 C82.0200303,53.0744797 81.7171192,53.2091068 81.4,53.3 C81.1148092,53.3925245 80.8451341,53.5273621 80.6,53.7 C80.2738161,53.8505552 79.9400333,53.9840683 79.6,54.1 C79.3,54.2 79.1,54.3 78.8,54.4 C78.2,54.7 77.6,54.9 77.1,55.1 Z M170.8,55.1 C175.349432,56.6170659 180.104855,57.4264995 184.9,57.5 C184.8,55.7 184.7,54 184.6,52.2 C183.9,41.6 179,34.1 166.5,30.7 C160.5,29.1 155.1,25.9 149.3,23.7 C146.942617,22.9028294 144.767152,21.6451386 142.9,20 L143,20.1 C143.534757,29.1137924 147.297654,37.6335594 153.6,44.1 L154,44.5 L154.8,45.3 L155.9,46.4 C158.216074,48.4877335 160.766442,50.2998372 163.5,51.8 C163.6,51.9 163.7,51.9 163.8,52 L165,52.6 L165.6,52.9 C165.87997,53.0744797 166.182881,53.2091068 166.5,53.3 C166.785191,53.3925245 167.054866,53.5273621 167.3,53.7 C167.626184,53.8505552 167.959967,53.9840683 168.3,54.1 C168.6,54.2 168.8,54.3 169.1,54.4 C169.7,54.7 170.3,54.9 170.8,55.1 Z" id="path-25"></path>
        <filter x="-1.7%" y="-9.4%" width="103.4%" height="117.4%" filterUnits="objectBoundingBox" id="filter-26">
            <feMorphology radius="0.5" operator="dilate" in="SourceAlpha" result="shadowSpreadOuter1"></feMorphology>
            <feOffset dx="0" dy="1" in="shadowSpreadOuter1" result="shadowOffsetOuter1"></feOffset>
            <feColorMatrix values="0 0 0 0 0.992   0 0 0 0 0.49   0 0 0 0 0.341  0 0 0 0.8 0" type="matrix" in="shadowOffsetOuter1"></feColorMatrix>
        </filter>
        <path d="M0,23.2 C0.1,12.9 0.3,2.3 0.3,2.3 C0.3,2.3 1,1.9 5.1,0.1 C4.8,6 5.6,18.4 5.6,18.4 C3.8,20 2.1,21.5 0,23.2 Z" id="path-27"></path>
        <filter x="-36.1%" y="-11.1%" width="171.7%" height="128.8%" filterUnits="objectBoundingBox" id="filter-28">
            <feMorphology radius="0.5" operator="dilate" in="SourceAlpha" result="shadowSpreadOuter1"></feMorphology>
            <feOffset dx="0" dy="1" in="shadowSpreadOuter1" result="shadowOffsetOuter1"></feOffset>
            <feColorMatrix values="0 0 0 0 0.992   0 0 0 0 0.49   0 0 0 0 0.341  0 0 0 0.8 0" type="matrix" in="shadowOffsetOuter1"></feColorMatrix>
        </filter>
        <path d="M64.1,18.3 C64.1,18.3 64.9,5.9 64.6,0 C68.7,1.8 69.4,2.2 69.4,2.2 C69.4,2.2 69.6,12.8 69.7,23.1 C67.7464939,21.6041865 65.8769872,20.0017522 64.1,18.3 Z" id="path-29"></path>
        <filter x="-31.5%" y="-11.1%" width="167.5%" height="128.5%" filterUnits="objectBoundingBox" id="filter-30">
            <feMorphology radius="0.5" operator="dilate" in="SourceAlpha" result="shadowSpreadOuter1"></feMorphology>
            <feOffset dx="0" dy="1" in="shadowSpreadOuter1" result="shadowOffsetOuter1"></feOffset>
            <feColorMatrix values="0 0 0 0 0.992   0 0 0 0 0.49   0 0 0 0 0.341  0 0 0 0.8 0" type="matrix" in="shadowOffsetOuter1"></feColorMatrix>
        </filter>
        <path d="M0.9,5.8 C0.4,11.1 0.1,18.7 0,28.8 C6.7,26.8 11.1,22.7 16,18.1 C16,18.1 17.2,6.7 14.9,0 C12,1.3 9.4,2.9 6.3,3.8 C4.45737051,4.34536996 2.65333381,5.0135317 0.9,5.8 Z" id="path-31"></path>
        <filter x="-12.3%" y="-8.1%" width="124.5%" height="119.6%" filterUnits="objectBoundingBox" id="filter-32">
            <feMorphology radius="0.5" operator="dilate" in="SourceAlpha" result="shadowSpreadOuter1"></feMorphology>
            <feOffset dx="0" dy="1" in="shadowSpreadOuter1" result="shadowOffsetOuter1"></feOffset>
            <feColorMatrix values="0 0 0 0 0.992   0 0 0 0 0.49   0 0 0 0 0.341  0 0 0 0.8 0" type="matrix" in="shadowOffsetOuter1"></feColorMatrix>
        </filter>
        <path d="M83.6,3.8 C80.5,2.9 77.9,1.3 75,0 C72.7,6.7 73.9,18.1 73.9,18.1 C78.8,22.7 83.1,26.8 89.9,28.8 C89.8,18.8 89.6,11.1 89,5.8 C87.2466481,5.01357604 85.4426144,4.34541542 83.6,3.8 Z" id="path-33"></path>
        <filter x="-11.6%" y="-8.1%" width="123.9%" height="119.6%" filterUnits="objectBoundingBox" id="filter-34">
            <feMorphology radius="0.5" operator="dilate" in="SourceAlpha" result="shadowSpreadOuter1"></feMorphology>
            <feOffset dx="0" dy="1" in="shadowSpreadOuter1" result="shadowOffsetOuter1"></feOffset>
            <feColorMatrix values="0 0 0 0 0.992   0 0 0 0 0.49   0 0 0 0 0.341  0 0 0 0.8 0" type="matrix" in="shadowOffsetOuter1"></feColorMatrix>
        </filter>
        <path d="M0.198,10.217 C0.198,10.217 1.198,21.217 2.198,31.217 C9.97770904,28.6834345 18.924401,23.5868672 24.298,17.417 C24.298,17.417 25.498,6.917 23.198,0.217 C20.298,1.517 16.398,3.717 13.398,4.717 C12.3376888,5.02885625 7.62970515,6.74411098 4.198,8.217 C2.12764261,9.1055981 0.83768876,9.95359875 0.198,10.217 Z" id="path-35"></path>
        <filter x="-12.6%" y="-10.8%" width="137.1%" height="124.7%" filterUnits="objectBoundingBox" id="filter-36">
            <feMorphology radius="0.5" operator="dilate" in="SourceAlpha" result="shadowSpreadOuter1"></feMorphology>
            <feOffset dx="3" dy="1" in="shadowSpreadOuter1" result="shadowOffsetOuter1"></feOffset>
            <feColorMatrix values="0 0 0 0 0.992   0 0 0 0 0.49   0 0 0 0 0.341  0 0 0 0.8 0" type="matrix" in="shadowOffsetOuter1"></feColorMatrix>
        </filter>
        <path d="M93.198,4.217 C89.5638184,2.96663104 87.6217966,1.96294255 84.198,0.217 C81.898,6.917 83.198,18.217 83.198,18.217 C88.571599,24.3868672 97.418291,28.6834345 105.198,31.217 C105.114813,22.8983369 106.198,10.0488663 106.198,9.217 C106.198,8.38513369 104.870535,8.38513369 104.198,8.217 C103.604624,7.97266878 100.340994,6.78849688 99.198,6.217 C97.198,5.217 94.3046242,4.5424777 93.198,4.217 Z" id="path-37"></path>
        <filter x="-8.4%" y="-7.7%" width="117.0%" height="118.6%" filterUnits="objectBoundingBox" id="filter-38">
            <feMorphology radius="0.5" operator="dilate" in="SourceAlpha" result="shadowSpreadOuter1"></feMorphology>
            <feOffset dx="0" dy="1" in="shadowSpreadOuter1" result="shadowOffsetOuter1"></feOffset>
            <feColorMatrix values="0 0 0 0 0.992   0 0 0 0 0.49   0 0 0 0 0.341  0 0 0 0.8 0" type="matrix" in="shadowOffsetOuter1"></feColorMatrix>
        </filter>
        <path d="M76.1,54.1 C71.5505678,55.6170659 66.7951454,56.4264995 62,56.5 C62.1,54.7 62.2,53 62.3,51.2 C63,40.6 67.9,33.1 80.4,29.7 C86.4,28.1 91.8,24.9 97.6,22.7 C99.9573832,21.9028294 102.132848,20.6451386 104,19 L103.9,19.1 C103.365243,28.1137924 99.602346,36.6335594 93.3,43.1 L92.9,43.5 L92.1,44.3 L91,45.4 C88.6839094,47.4877124 86.1335438,49.2998143 83.4,50.8 C83.3,50.9 83.2,50.9 83.1,51 L81.9,51.6 L81.3,51.9 C81.0200303,52.0744797 80.7171192,52.2091068 80.4,52.3 C80.1148092,52.3925245 79.8451341,52.5273621 79.6,52.7 C79.2738147,52.8505519 78.940032,52.9840649 78.6,53.1 C78.3,53.2 78.1,53.3 77.8,53.4 C77.2598059,53.6930548 76.689922,53.9277129 76.1,54.1 Z M169.9,54.1 C174.449432,55.6170659 179.204855,56.4264995 184,56.5 C183.9,54.7 183.8,53 183.7,51.2 C183,40.6 178.1,33.1 165.6,29.7 C159.6,28.1 154.2,24.9 148.4,22.7 C146.042617,21.9028294 143.867152,20.6451386 142,19 L142.1,19.1 C142.634757,28.1137924 146.397654,36.6335594 152.7,43.1 L153.1,43.5 L153.9,44.3 L155,45.4 C157.316091,47.4877124 159.866456,49.2998143 162.6,50.8 C162.7,50.9 162.8,50.9 162.9,51 L164.1,51.6 L164.7,51.9 C164.97997,52.0744797 165.282881,52.2091068 165.6,52.3 C165.885191,52.3925245 166.154866,52.5273621 166.4,52.7 C166.726185,52.8505519 167.059968,52.9840649 167.4,53.1 C167.7,53.2 167.9,53.3 168.2,53.4 C168.748233,53.6758039 169.316517,53.9098029 169.9,54.1 Z" id="path-39"></path>
        <filter x="-3.0%" y="-18.7%" width="105.9%" height="130.7%" filterUnits="objectBoundingBox" id="filter-40">
            <feMorphology radius="1" operator="dilate" in="SourceAlpha" result="shadowSpreadOuter1"></feMorphology>
            <feOffset dx="0" dy="1" in="shadowSpreadOuter1" result="shadowOffsetOuter1"></feOffset>
            <feColorMatrix values="0 0 0 0 0.992   0 0 0 0 0.49   0 0 0 0 0.341  0 0 0 0.8 0" type="matrix" in="shadowOffsetOuter1"></feColorMatrix>
        </filter>
        <path d="M76.1,55.1 C71.5505678,56.6170659 66.7951454,57.4264995 62,57.5 C62.1,55.7 62.2,54 62.3,52.2 C63,41.6 67.9,34.1 80.4,30.7 C86.4,29.1 91.8,25.9 97.6,23.7 C99.9573832,22.9028294 102.132848,21.6451386 104,20 L103.9,20.1 C103.365243,29.1137924 99.602346,37.6335594 93.3,44.1 L92.9,44.5 L92.1,45.3 L91,46.4 C88.6839094,48.4877124 86.1335438,50.2998143 83.4,51.8 C83.3,51.9 83.2,51.9 83.1,52 L81.9,52.6 L81.3,52.9 C81.0200303,53.0744797 80.7171192,53.2091068 80.4,53.3 C80.1148092,53.3925245 79.8451341,53.5273621 79.6,53.7 C79.2738147,53.8505519 78.940032,53.9840649 78.6,54.1 C78.3,54.2 78.1,54.3 77.8,54.4 C77.2598059,54.6930548 76.689922,54.9277129 76.1,55.1 Z M169.9,55.1 C174.449432,56.6170659 179.204855,57.4264995 184,57.5 C183.9,55.7 183.8,54 183.7,52.2 C183,41.6 178.1,34.1 165.6,30.7 C159.6,29.1 154.2,25.9 148.4,23.7 C146.042617,22.9028294 143.867152,21.6451386 142,20 L142.1,20.1 C142.634757,29.1137924 146.397654,37.6335594 152.7,44.1 L153.1,44.5 L153.9,45.3 L155,46.4 C157.316091,48.4877124 159.866456,50.2998143 162.6,51.8 C162.7,51.9 162.8,51.9 162.9,52 L164.1,52.6 L164.7,52.9 C164.97997,53.0744797 165.282881,53.2091068 165.6,53.3 C165.885191,53.3925245 166.154866,53.5273621 166.4,53.7 C166.726185,53.8505519 167.059968,53.9840649 167.4,54.1 C167.7,54.2 167.9,54.3 168.2,54.4 C168.748233,54.6758039 169.316517,54.9098029 169.9,55.1 Z" id="path-41"></path>
        <filter x="-3.0%" y="-18.7%" width="105.9%" height="130.7%" filterUnits="objectBoundingBox" id="filter-42">
            <feMorphology radius="1" operator="dilate" in="SourceAlpha" result="shadowSpreadOuter1"></feMorphology>
            <feOffset dx="0" dy="1" in="shadowSpreadOuter1" result="shadowOffsetOuter1"></feOffset>
            <feColorMatrix values="0 0 0 0 0.992   0 0 0 0 0.49   0 0 0 0 0.341  0 0 0 0.8 0" type="matrix" in="shadowOffsetOuter1"></feColorMatrix>
        </filter>
        <path d="M137.6,6.8 C133.82867,3.04623341 128.812319,0.804885276 123.5,0.5 C118.182844,0.784934514 113.159695,3.02932043 109.4,6.8 C109.5,12.2 108.2,16.8 104.5,20.1 L104.6,20.2 C109.693519,25.12637 116.419857,28.0090865 123.5,28.3 C130.575797,27.9899821 137.295644,25.1100478 142.4,20.2 L142.5,20.1 C138.8,16.8 137.5,12.3 137.6,6.8 Z" id="path-43"></path>
        <filter x="-16.8%" y="-18.0%" width="134.1%" height="139.5%" filterUnits="objectBoundingBox" id="filter-44">
            <feMorphology radius="1.5" operator="dilate" in="SourceAlpha" result="shadowSpreadOuter1"></feMorphology>
            <feOffset dx="0" dy="1" in="shadowSpreadOuter1" result="shadowOffsetOuter1"></feOffset>
            <feColorMatrix values="0 0 0 0 0.992   0 0 0 0 0.49   0 0 0 0 0.341  0 0 0 0.8 0" type="matrix" in="shadowOffsetOuter1"></feColorMatrix>
        </filter>
        <path d="M141.7,19.3 C140.8,18.5 138.6,14.2 137.8,13 C135,15.1 131.1,17.7 123,17.6 C117.63055,17.6877504 112.339461,16.3044591 107.7,13.6 C106.776889,15.6842686 105.527933,17.608335 104,19.3 C114.414924,29.7000459 131.285076,29.7000459 141.7,19.3 Z" id="path-45"></path>
        <filter x="-11.3%" y="-30.8%" width="123.8%" height="162.7%" filterUnits="objectBoundingBox" id="filter-46">
            <feMorphology radius="1" operator="dilate" in="SourceAlpha" result="shadowSpreadOuter1"></feMorphology>
            <feOffset dx="0" dy="1" in="shadowSpreadOuter1" result="shadowOffsetOuter1"></feOffset>
            <feColorMatrix values="0 0 0 0 0.992   0 0 0 0 0.49   0 0 0 0 0.341  0 0 0 0.8 0" type="matrix" in="shadowOffsetOuter1"></feColorMatrix>
        </filter>
        <path d="M137.7,5.91138438 C137.7,2.27408174 131.571934,10.7050515 123.571934,10.6050515 C115.571934,10.5050515 109.6,2.66401741 109.6,5.91138438 C109.6,9.15875135 106.4,17.9113844 105,19.2113844 C109.787848,24.384928 116.522914,27.3178141 123.571934,27.298814 C130.620954,27.279814 137.340111,24.3106632 142.1,19.1113844 C141.3,18.3113844 137.7,9.54868702 137.7,5.91138438 Z" id="path-47"></path>
        <filter x="-6.8%" y="-8.8%" width="113.6%" height="122.3%" filterUnits="objectBoundingBox" id="filter-48">
            <feMorphology radius="0.5" operator="dilate" in="SourceAlpha" result="shadowSpreadOuter1"></feMorphology>
            <feOffset dx="0" dy="1" in="shadowSpreadOuter1" result="shadowOffsetOuter1"></feOffset>
            <feColorMatrix values="0 0 0 0 0.992   0 0 0 0 0.49   0 0 0 0 0.341  0 0 0 0.8 0" type="matrix" in="shadowOffsetOuter1"></feColorMatrix>
        </filter>
        <path d="M137.7,6.91138438 C137.7,3.27408174 131.571934,11.7050515 123.571934,11.6050515 C115.571934,11.5050515 109.6,3.66401741 109.6,6.91138438 C109.6,10.1587513 106.4,18.9113844 105,20.2113844 C109.787848,25.384928 116.522914,28.3178141 123.571934,28.298814 C130.620954,28.279814 137.340111,25.3106632 142.1,20.1113844 C141.3,19.3113844 137.7,10.548687 137.7,6.91138438 Z" id="path-49"></path>
        <filter x="-6.8%" y="-8.8%" width="113.6%" height="122.3%" filterUnits="objectBoundingBox" id="filter-50">
            <feMorphology radius="0.5" operator="dilate" in="SourceAlpha" result="shadowSpreadOuter1"></feMorphology>
            <feOffset dx="0" dy="1" in="shadowSpreadOuter1" result="shadowOffsetOuter1"></feOffset>
            <feColorMatrix values="0 0 0 0 0.992   0 0 0 0 0.49   0 0 0 0 0.341  0 0 0 0.8 0" type="matrix" in="shadowOffsetOuter1"></feColorMatrix>
        </filter>
        <path d="M176.4,169.7 C173.167733,161.232518 169.393247,152.982094 165.1,145 C152.8,147.9 137.7,151.2 122.9,151.3 C108,151.2 93,147.9 80.7,145.1 C76.4288673,153.093067 72.6550294,161.342076 69.4,169.8 C64,183.1 64.1,198.3 64,198.8 C65.5,199.8 67.1,200.8 68.7,201.7 C83.4,210.1 101.8,214 120.4,213.9 L125.4,213.9 C144,214 162.4,210.1 177.1,201.7 C178.7,200.8 180.3,199.8 181.8,198.8 C181.7,198.2 181.8,183.1 176.4,169.7 Z" id="path-51"></path>
        <filter x="-4.5%" y="-7.9%" width="109.0%" height="116.6%" filterUnits="objectBoundingBox" id="filter-52">
            <feMorphology radius="1.5" operator="dilate" in="SourceAlpha" result="shadowSpreadOuter1"></feMorphology>
            <feOffset dx="0" dy="1" in="shadowSpreadOuter1" result="shadowOffsetOuter1"></feOffset>
            <feColorMatrix values="0 0 0 0 0.992   0 0 0 0 0.49   0 0 0 0 0.341  0 0 0 0.8 0" type="matrix" in="shadowOffsetOuter1"></feColorMatrix>
        </filter>
        <path d="M123.5,185.4 C144.7,185.4 163.9,180.8 178,173.3 C177.710441,172.417126 177.376686,171.549364 177,170.7 C173.767707,162.232529 169.993223,153.982107 165.7,146 C153.4,148.8 138.3,152.1 123.5,152.2 C108.6,152.1 93.6,148.8 81.3,146 C77.0288673,153.993067 73.2550294,162.242076 70,170.7 C69.7,171.6 69.3,172.4 69,173.3 C83.1,180.8 102.3,185.4 123.5,185.4 Z" id="path-53"></path>
        <filter x="-5.2%" y="-13.8%" width="110.3%" height="129.0%" filterUnits="objectBoundingBox" id="filter-54">
            <feMorphology radius="1.5" operator="dilate" in="SourceAlpha" result="shadowSpreadOuter1"></feMorphology>
            <feOffset dx="0" dy="1" in="shadowSpreadOuter1" result="shadowOffsetOuter1"></feOffset>
            <feColorMatrix values="0 0 0 0 0.992   0 0 0 0 0.49   0 0 0 0 0.341  0 0 0 0.8 0" type="matrix" in="shadowOffsetOuter1"></feColorMatrix>
        </filter>
        <path d="M176.4,167.7 C173.167707,159.232529 169.393223,150.982107 165.1,143 C152.8,145.8 137.7,149.1 122.9,149.2 C108,149.1 93,145.8 80.7,143 C76.4288673,150.993067 72.6550294,159.242076 69.4,167.7 C64,181 64.1,196.2 64,196.7 C65.5,197.7 67.1,198.7 68.7,199.6 C83.4,208 101.8,211.9 120.4,211.8 L125.4,211.8 C144,211.9 162.4,208 177.1,199.6 C178.7,198.7 180.3,197.7 181.8,196.7 C181.7,196.2 181.8,181.1 176.4,167.7 Z" id="path-55"></path>
        <filter x="-4.5%" y="-7.9%" width="109.1%" height="116.6%" filterUnits="objectBoundingBox" id="filter-56">
            <feMorphology radius="1.5" operator="dilate" in="SourceAlpha" result="shadowSpreadOuter1"></feMorphology>
            <feOffset dx="0" dy="1" in="shadowSpreadOuter1" result="shadowOffsetOuter1"></feOffset>
            <feColorMatrix values="0 0 0 0 0.992   0 0 0 0 0.49   0 0 0 0 0.341  0 0 0 0.8 0" type="matrix" in="shadowOffsetOuter1"></feColorMatrix>
        </filter>
        <path d="M177.4,167.7 C174.167707,159.232529 170.393223,150.982107 166.1,143 C153.8,145.8 138.7,149.1 123.9,149.2 C109,149.1 94,145.8 81.7,143 C77.4288673,150.993067 73.6550294,159.242076 70.4,167.7 C65,181 65.1,196.2 65,196.7 C66.5,197.7 68.1,198.7 69.7,199.6 C84.4,208 102.8,211.9 121.4,211.8 L126.4,211.8 C145,211.9 163.4,208 178.1,199.6 C179.7,198.7 181.3,197.7 182.8,196.7 C182.7,196.2 182.8,181.1 177.4,167.7 Z" id="path-57"></path>
        <filter x="-4.5%" y="-7.9%" width="109.1%" height="116.6%" filterUnits="objectBoundingBox" id="filter-58">
            <feMorphology radius="1.5" operator="dilate" in="SourceAlpha" result="shadowSpreadOuter1"></feMorphology>
            <feOffset dx="0" dy="1" in="shadowSpreadOuter1" result="shadowOffsetOuter1"></feOffset>
            <feColorMatrix values="0 0 0 0 0.992   0 0 0 0 0.49   0 0 0 0 0.341  0 0 0 0.8 0" type="matrix" in="shadowOffsetOuter1"></feColorMatrix>
        </filter>
        <path d="M152,41.5 C145.687877,34.9899798 142.995439,27.5481329 142.4,18.5 C137.241646,23.5925821 130.501594,26.5168376 123.4,26.8 C116.302866,26.4973785 109.069517,23.4760315 104,18.5 C103,27.5 101,33.5 95,41.5 C98.2,68.1666667 107.7,81.5 123.5,81.5 C138.433333,81.5 147.933333,68.1666667 152,41.5 Z" id="path-59"></path>
        <filter x="-3.5%" y="-5.4%" width="107.0%" height="110.2%" filterUnits="objectBoundingBox" id="filter-60">
            <feMorphology radius="0.5" operator="dilate" in="SourceAlpha" result="shadowSpreadOuter1"></feMorphology>
            <feOffset dx="0" dy="1" in="shadowSpreadOuter1" result="shadowOffsetOuter1"></feOffset>
            <feColorMatrix values="0 0 0 0 0.992   0 0 0 0 0.49   0 0 0 0 0.341  0 0 0 0.8 0" type="matrix" in="shadowOffsetOuter1"></feColorMatrix>
        </filter>
        <path d="M152,42.2 C145.8,35 143,28 142.4,19 C137.241646,24.0925821 130.501594,27.0168376 123.4,27.3 C116.302866,26.9973785 109.069517,23.9760315 104,19 C102.5,27.2 101,34 95,42 C98.1333333,54.6666667 107.6,61 123.4,61 C138.333333,61 147.866667,54.7333333 152,42.2 Z" id="path-61"></path>
        <filter x="-3.5%" y="-8.2%" width="107.2%" height="115.3%" filterUnits="objectBoundingBox" id="filter-62">
            <feMorphology radius="0.5" operator="dilate" in="SourceAlpha" result="shadowSpreadOuter1"></feMorphology>
            <feOffset dx="0" dy="1" in="shadowSpreadOuter1" result="shadowOffsetOuter1"></feOffset>
            <feColorMatrix values="0 0 0 0 0.992   0 0 0 0 0.49   0 0 0 0 0.341  0 0 0 0.8 0" type="matrix" in="shadowOffsetOuter1"></feColorMatrix>
        </filter>
        <path d="M152,41.6445784 C145.687877,35.1345581 142.4,20.7845505 142.4,18.6445784 C142.4,16.5046062 135.610398,26.9445784 123.4,26.9445784 C111.286206,26.9445784 104,17.083999 104,18.6445784 C104,20.2051578 101,33.6445784 95,41.6445784 C98.2,68.311245 107.7,81.6445784 123.5,81.6445784 C138.433333,81.6445784 147.933333,68.311245 152,41.6445784 Z" id="path-63"></path>
        <filter x="-3.5%" y="-3.5%" width="107.0%" height="108.3%" filterUnits="objectBoundingBox" id="filter-64">
            <feMorphology radius="0.5" operator="dilate" in="SourceAlpha" result="shadowSpreadOuter1"></feMorphology>
            <feOffset dx="0" dy="1" in="shadowSpreadOuter1" result="shadowOffsetOuter1"></feOffset>
            <feColorMatrix values="0 0 0 0 0.992   0 0 0 0 0.49   0 0 0 0 0.341  0 0 0 0.8 0" type="matrix" in="shadowOffsetOuter1"></feColorMatrix>
        </filter>
        <path d="M152,42.1470148 C144.454369,36.7720526 142.4,20.5129654 142.4,19.1470148 C142.4,17.7810642 135.572632,27.4470148 123.4,27.4470148 C110.953081,27.4470148 104,17.3915143 104,19.1470148 C104,20.9025153 102.227164,35.1160329 95,42.1470148 C98.200028,69.1453905 107.700028,82.6445784 123.5,82.6445784 C138.404499,82.6445784 147.904499,69.1453905 152,42.1470148 Z" id="path-65"></path>
        <filter x="-2.7%" y="-2.7%" width="105.5%" height="105.1%" filterUnits="objectBoundingBox" id="filter-66">
            <feMorphology radius="0.5" operator="dilate" in="SourceAlpha" result="shadowSpreadOuter1"></feMorphology>
            <feOffset dx="0" dy="0" in="shadowSpreadOuter1" result="shadowOffsetOuter1"></feOffset>
            <feColorMatrix values="0 0 0 0 0.992   0 0 0 0 0.49   0 0 0 0 0.341  0 0 0 0.8 0" type="matrix" in="shadowOffsetOuter1"></feColorMatrix>
        </filter>
    </defs>
</svg>
