<?xml version="1.0" encoding="UTF-8"?>
<svg width="42px" height="158px" viewBox="0 0 42 158" version="1.1" xmlns="http://www.w3.org/2000/svg" xmlns:xlink="http://www.w3.org/1999/xlink">
    <!-- Generator: Sketch 50.2 (55047) - http://www.bohemiancoding.com/sketch -->
    <title>length_thumbnails</title>
    <desc>Created with Sketch.</desc>
    <defs></defs>
    <g id="Page-1" stroke="none" stroke-width="1" fill="none" fill-rule="evenodd">
        <g id="length_thumbnails" transform="translate(1.000000, 0.000000)">
            <text id="ALL" fill-opacity="0.775334013" fill="#686868" font-family="Muli-Bold, Muli" font-size="14" font-weight="bold">
                <tspan x="7" y="14">ALL</tspan>
            </text>
            <g id="length_thumbnails_0" transform="translate(0.000000, 32.000000)" fill-rule="nonzero">
                <path d="M27.8658596,15.7291108 C27.8658596,15.7453942 27.8818523,15.5950116 27.8818523,15.6122529 C27.8426703,13.9790749 27.6217518,12.3556855 27.2233295,10.7731884 C27.0015282,9.98463217 26.7271335,9.21240653 26.4020577,8.46189341 C26.4020577,8.46189341 26.1386485,8.24446114 26.006944,8.12664545 C25.9388041,8.07398948 25.8780363,8.01211677 25.8263206,7.94273803 L25.6946161,7.80863886 L25.6287638,7.74158924 C24.5910389,6.6517213 23.967533,5.2217983 23.8695673,3.70711983 L23.8535747,3.7234033 C23.0225862,4.55837136 21.9156415,5.0477934 20.7491104,5.09600413 C19.583316,5.04452828 18.4774748,4.55559417 17.6446461,3.7234033 L17.6201867,3.70711983 C17.5265181,5.22315483 16.9023973,6.6548278 15.8609903,7.74254712 L15.795138,7.80959667 L15.6634334,7.94369584 L15.48281,8.12760333 C15.3511055,8.24446114 15.219401,8.36227689 15.0876964,8.46285121 C14.7601649,9.21203165 14.4857067,9.98411585 14.2664245,10.7731884 C13.8519466,12.3524251 13.6307623,13.9777675 13.6079018,15.6122529 C13.6079018,15.5959694 13.6238945,15.5787281 13.6238945,15.5624446 C13.986082,16.4666562 14.1168458,17.337343 14.413181,18.2080298 C15.0875865,20.2222198 14.8653067,22.4357613 13.8045179,24.2693124 C16.0748812,24.8661456 18.4013879,25.2142257 20.7444066,25.3076231 C23.0875388,25.2154717 25.4141756,24.8673721 27.6842955,24.2693124 C26.6235067,22.4357613 26.4012268,20.2222198 27.0756323,18.2080298 C27.388901,17.3536264 27.5036721,16.6333223 27.8658596,15.7291108 Z" id="Path_1246" fill="#F4F4F4"></path>
                <path d="M28.1772467,9.47051076 C28.1283279,9.45422727 28.0954018,9.43698598 28.0455422,9.4207025 C27.9918449,9.39545979 27.9368937,9.37307965 27.8809115,9.35365288 C27.8339552,9.33815634 27.7895566,9.31555346 27.749207,9.28660333 C27.7002882,9.27031985 27.6551323,9.23679507 27.6015097,9.21955371 L27.507435,9.16974545 L27.3098783,9.07396031 C27.2938856,9.05767689 27.2769521,9.05767689 27.2609594,9.04043553 C26.8123052,8.7875921 26.3929309,8.48429095 26.010707,8.13622394 C25.9425671,8.08356803 25.8817993,8.02169533 25.8300836,7.95231652 L25.6983791,7.81821735 L25.6325268,7.7511678 C24.5951272,6.66731438 23.9762295,5.23901897 23.8893231,3.72819256 L23.8686266,3.72819256 C24.1774845,4.00125217 24.5348088,4.21161166 24.9213222,4.34792231 C25.8440812,4.78742345 26.7882487,5.17873474 27.7501477,5.52033223 C29.4801637,5.80546818 30.745467,7.33564029 30.7266705,9.1199372 C30.7426632,9.42166031 30.7595966,9.70614212 30.7755893,10.0069074 C29.9924733,9.99443762 29.2159613,9.85873485 28.473582,9.60460992 L28.4575893,9.60460992 C28.3674454,9.55307481 28.2737526,9.50825775 28.1772467,9.47051076 Z" id="Path_1237" fill="#F4F4F4"></path>
                <path d="M29.6570414,33.7453347 C29.5733357,35.1629834 29.3919526,36.5728965 29.1142305,37.9646694 L21.3530698,37.9646694 C21.304151,37.3449397 21.2213653,36.7089264 21.1724464,36.0891967 C21.159259,35.9940328 21.1539095,35.8979129 21.1564537,35.8018413 C24.1168356,35.8750343 27.0453959,35.1665417 29.6570414,33.7453347 Z" id="Path_1230" fill="#F4F4F4"></path>
                <path d="M29.5422703,28.4043562 C29.0108349,26.9864888 28.3902242,25.6049597 27.6842955,24.2683545 C25.4139335,24.8651949 23.0874261,25.2132751 20.7444066,25.3066653 C18.4012745,25.2145138 16.0746377,24.8664142 13.8045179,24.2683545 C13.1022268,25.6067971 12.4817227,26.9880892 11.946543,28.4043562 C11.389743,29.9619144 11.0896756,31.6024833 11.0584781,33.2597042 C11.3049537,33.4273281 11.5683628,33.594952 11.8317719,33.7453347 C14.4447931,35.1624175 17.3737268,35.8663021 20.3333003,35.7884314 L21.155513,35.7884314 C24.1150866,35.8663021 27.0440202,35.1624175 29.6570414,33.7453347 C29.9204505,33.594952 30.1829188,33.4273281 30.4303352,33.2597042 C30.39792,31.60261 30.0978895,29.9622425 29.5422703,28.4043562 Z" id="Path_1231" fill="#D6D4D4"></path>
                <path d="M27.2233295,10.7894719 C27.0167452,9.99616731 26.7416006,9.22303804 26.4011169,8.4791347 C26.6759717,8.68421337 26.9614276,8.87414048 27.2562557,9.04809833 C27.2722484,9.06438182 27.2891818,9.06438182 27.3051745,9.08162311 L27.5027313,9.17740826 L27.596806,9.22721652 C27.6427476,9.25642974 27.6924561,9.27899573 27.7445033,9.29426613 C27.7914595,9.30976267 27.8358582,9.33236556 27.8762078,9.36131568 C27.9299071,9.38655363 27.9848581,9.40893362 28.0408385,9.4283653 C28.0897573,9.44464879 28.1226834,9.46189008 28.172543,9.47817356 C28.2666177,9.51169833 28.3531664,9.54522311 28.454767,9.57395871 L28.4707597,9.57395871 C29.2176476,9.83341621 30.0005684,9.96923989 30.7897005,9.97625621 C30.8081196,11.1829746 30.9182019,12.3864338 31.1189618,13.5758611 C31.6119132,16.1381133 32.3522809,18.6524727 32.8781583,21.1946099 C33.4040357,23.6725711 35.854681,25.849767 36.3476323,28.3277281 C36.4975966,28.8954522 36.7608334,29.4256288 37.1209261,29.8851942 C37.8443604,30.9388306 40.0974489,31.9282909 40.9036688,32.932119 C40.8486231,33.0143236 40.7882829,33.0927202 40.7230455,33.1667926 C40.2131607,32.932119 39.703276,32.7146867 39.2103247,32.513538 C39.3580219,33.6188983 39.5066599,34.7568256 39.6374237,35.912952 C39.6713559,36.2145649 39.5545287,36.5134126 39.3263126,36.7087847 C39.0980964,36.9041567 38.7888856,36.9700329 38.5028831,36.8842133 C37.9358747,36.8070928 37.4187553,36.5137059 37.0560146,36.0633347 C36.3362591,34.8100962 35.8355658,33.4391869 35.5762199,32.0116239 C35.345737,29.8689108 33.5206883,27.7587645 32.2375097,26.0011074 C30.7906412,24.0087769 29.3757581,22.417786 28.9448961,20.5595545 C28.5497824,18.9312074 28.2374545,17.2942397 27.8922005,15.6534405 L27.8922005,15.637157 C27.8549648,14.0002918 27.6304936,12.3734224 27.2233295,10.7894719 Z" id="Path_1232" fill="#F4F4F4"></path>
                <path d="M13.3115666,9.46667932 C13.3604854,9.45039584 13.3934115,9.43315455 13.4432711,9.41687106 C13.4969691,9.39163001 13.5519203,9.36924988 13.6079018,9.34982151 C13.654858,9.33432497 13.6992567,9.31172202 13.7396063,9.28277189 C13.7885251,9.26648841 13.833681,9.23296364 13.8873036,9.21572235 L13.9813783,9.16591402 L14.178935,9.07012894 C14.1949278,9.05384545 14.2118612,9.05384545 14.2278539,9.03660416 C14.6765123,8.78376757 15.0958873,8.48046587 15.4781063,8.13239257 C15.5462462,8.0797366 15.6070141,8.01786389 15.6587297,7.94848515 L15.7904342,7.81438598 L15.8562865,7.74733636 C16.8936861,6.66348298 17.5125838,5.23518757 17.5994903,3.72436116 L17.615483,3.70807769 C17.3066251,3.98113729 16.9493008,4.19149678 16.5627873,4.32780744 C15.6415288,4.7665087 14.6989353,5.15717891 13.7386656,5.49830165 C12.0120022,5.78944593 10.7497323,7.31594959 10.7621429,9.09790659 C10.7461501,9.39962977 10.7292167,9.68411159 10.713224,9.98487689 C11.49634,9.97240709 12.2728521,9.83670425 13.0152313,9.58257932 L13.031224,9.58257932 C13.1309432,9.55001242 13.2297216,9.50020416 13.3115666,9.46667932 Z" id="Path_1212" fill="#F4F4F4"></path>
                <path d="M11.8477646,33.7453347 C11.9314734,35.1629831 12.1128565,36.572896 12.3905755,37.9646694 L20.1526769,37.9646694 C20.2015958,37.3449397 20.2843815,36.7089264 20.3333003,36.0891967 C20.3464878,35.9940328 20.3518373,35.8979129 20.349293,35.8018413 C17.3881839,35.8791981 14.4582898,35.1704613 11.8477646,33.7453347 Z" id="Path_1206" fill="#F4F4F4"></path>
                <path d="M14.2814765,10.7894719 C14.4880655,9.99616883 14.76321,9.22303997 15.1036891,8.4791347 C14.823195,8.67903978 14.5324027,8.86352985 14.2325577,9.03181485 C14.216565,9.04809833 14.1996315,9.04809833 14.1836388,9.06533969 L13.986082,9.16112477 L13.8920073,9.21093303 C13.8460657,9.24014626 13.7963572,9.26271225 13.74431,9.27798265 C13.6973538,9.29347919 13.6529551,9.31608214 13.6126055,9.3450322 C13.5589068,9.37027173 13.5039558,9.3926518 13.4479748,9.41208182 C13.399056,9.4283653 13.3661298,9.44560659 13.3162703,9.46189008 C13.2221956,9.49541485 13.1356469,9.52893969 13.0340463,9.55767523 L13.0180536,9.55767523 C12.2711657,9.81713273 11.4882449,9.95295641 10.6991128,9.95997273 C10.6806975,11.1666913 10.5706152,12.3701508 10.3698515,13.5595777 C9.87690015,16.1218298 9.13653244,18.6361892 8.61065506,21.1783264 C8.0847776,23.6562876 5.63413231,25.8334835 5.141181,28.3114446 C4.99121666,28.8791687 4.7279799,29.4093453 4.36788717,29.8689108 C3.64445292,30.9225471 1.39136445,31.9120074 0.585144481,32.9158355 C0.640192402,32.9980384 0.700532524,33.0764349 0.765767857,33.1505091 C1.2756526,32.9158355 1.78553734,32.6984033 2.27848864,32.4972545 C2.1307914,33.6026149 1.98215341,34.7405421 1.85138961,35.8966686 C1.81745744,36.1982814 1.93428459,36.4971292 2.16250072,36.6925012 C2.39071684,36.8878732 2.69992767,36.9537494 2.98593019,36.8679298 C3.55101395,36.7925681 4.06720184,36.502408 4.43091721,36.0556719 C5.15067272,34.8024334 5.65136601,33.431524 5.91071185,32.0039611 C6.14119481,29.861248 7.96624353,27.7511017 9.2494221,25.9934446 C10.6962906,24.001114 12.1111737,22.4101231 12.5420357,20.5518917 C12.9371493,18.9235446 13.2494773,17.2865769 13.5947313,15.6457777 L13.5947313,15.6294942 C13.6298752,13.9937545 13.8604869,12.3684556 14.2814765,10.7894719 Z" id="Path_1207" fill="#F4F4F4"></path>
                <path d="M20.4753879,0.680545455 C19.5998597,0.680545455 18.7657405,1.06008401 18.1817052,1.72421048 C18.2576675,2.54329507 17.9646492,3.35325327 17.385,3.92645434 L17.4011562,3.94290435 C18.2305145,4.75710655 19.3247235,5.23275013 20.4758927,5.27946691 C21.6263496,5.2295419 22.719488,4.75436365 23.5506292,3.94290435 L23.5667855,3.92645434 C22.9908733,3.35073033 22.6982205,2.54280661 22.7690706,1.72421048 C22.1850353,1.06008401 21.3509161,0.680545455 20.4753879,0.680545455 Z" id="Path_396" stroke="#F4F4F4" stroke-width="0.2" fill="#F4F4F4"></path>
            </g>
            <g id="length_thumbnails_1" transform="translate(0.000000, 73.000000)" fill-rule="nonzero">
                <path d="M23.1188076,1.07831854 C22.5103048,0.398725616 21.6412414,0.0103482143 20.7290341,0.0103482143 C19.8168268,0.0103482143 18.9477633,0.398725616 18.3392605,1.07831854 C18.4184052,1.91647831 18.1131113,2.74529915 17.5091786,3.33184916 L17.5260117,3.34868226 C18.3901148,4.18184593 19.5301641,4.6685665 20.7295601,4.71637125 C21.9282138,4.66528356 23.0671478,4.17903916 23.9331086,3.34868226 L23.9499416,3.33184916 C23.3499023,2.74271744 23.0449893,1.91597848 23.1188076,1.07831854 Z" id="Path_670-path" stroke="#F4F4F4" stroke-width="0.2" fill="#F4F4F4"></path>
                <path d="M27.9678052,15.4149509 C27.9678052,15.4312101 27.9840644,15.2810512 27.9840644,15.2982669 C27.9442294,13.6675192 27.7196289,12.0465456 27.3145663,10.4664034 C27.0887185,9.67932044 26.8094312,8.90856413 26.4786501,8.15950426 C26.4786501,8.15950426 26.2108508,7.94239561 26.0769512,7.82475521 C26.0076757,7.77217759 25.9458951,7.71039699 25.8933175,7.64112143 L25.7594178,7.50722178 L25.6924681,7.44027202 C24.6372412,6.35177992 24.0033277,4.92360987 23.9039516,3.41084982 L23.8876925,3.42710907 C23.0428541,4.26083461 21.9174604,4.74952834 20.7314871,4.79766733 C19.5462628,4.74626808 18.421991,4.25806155 17.5752817,3.42710907 L17.5590225,3.41084982 C17.4637927,4.92462882 16.82927,6.35417132 15.7705061,7.44027202 L15.7035563,7.50722178 L15.5696567,7.64112143 L15.3860229,7.82475521 C15.2521233,7.94143916 15.1182237,8.05907956 14.984324,8.15950426 C14.6510019,8.90754166 14.3716494,9.67847786 14.1484078,10.4664034 C13.7270219,12.0432901 13.5021512,13.6662138 13.4789097,15.2982669 C13.4789097,15.2820077 13.495169,15.264792 13.495169,15.2485328 C13.863393,16.1513988 13.9963361,17.0207899 14.2976103,17.890181 C14.9832559,19.9013737 14.7572713,22.1116212 13.6788027,23.9424439 C15.9870054,24.5383889 18.3522872,24.885951 20.7343564,24.9792095 C23.1165407,24.8871951 25.4819547,24.5396136 27.7899099,23.9424439 C26.7114414,22.1116212 26.4854568,19.9013737 27.1711024,17.890181 C27.4656816,17.0370491 27.5995812,16.3178169 27.9678052,15.4149509 Z" id="Path_1299" fill="#F4F4F4"></path>
                <path d="M28.2853385,9.16183854 C28.2356044,9.14557929 28.2021295,9.12836366 28.151439,9.11210441 C28.096846,9.08690085 28.040979,9.06455406 27.9840644,9.04515459 C27.9363255,9.02968113 27.8911869,9.00711184 27.8501648,8.97820476 C27.8004307,8.96194558 27.7545222,8.92847064 27.7000059,8.91125501 L27.6043633,8.86152081 L27.4035139,8.76587827 C27.3872547,8.74961902 27.370039,8.74961902 27.3537797,8.73240333 C26.8976522,8.47992936 26.4712892,8.17708001 26.0826898,7.8295373 C26.0134143,7.77695976 25.9516336,7.71517909 25.899056,7.64590353 L25.7651564,7.51200394 L25.6982066,7.44505412 C24.643517,6.36281362 24.0143044,4.93664364 23.9259494,3.42806549 L23.9049081,3.41084982 C24.2189136,3.68350309 24.5821933,3.89354955 24.9751486,4.02965736 C25.9132856,4.46850752 26.8731894,4.85923656 27.8511212,5.20032262 C29.6099707,5.48503426 30.8963624,7.01292931 30.8772527,8.79457105 C30.8935119,9.09584516 30.9107275,9.37990365 30.9269868,9.68022138 C30.1308189,9.66777014 29.341365,9.53226926 28.5866127,9.2785225 L28.5703535,9.2785225 C28.4689723,9.24504762 28.3685476,9.19531349 28.2853385,9.16183854 Z" id="Path_1290" fill="#F4F4F4"></path>
                <path d="M29.7897965,33.404365 C29.7046956,34.819904 29.5202894,36.2277192 29.2379387,37.6174209 L21.3474253,37.6174209 C21.2976912,36.9986133 21.2135257,36.3635466 21.1637916,35.7447391 C21.1503843,35.6497168 21.1449456,35.5537399 21.1475323,35.4578113 C24.1572539,35.5308953 27.1346235,34.823457 29.7897965,33.404365 Z" id="Path_1283" fill="#F4F4F4"></path>
                <path d="M29.6731125,28.0713343 C29.1328198,26.6555769 28.5018657,25.2761036 27.7841714,23.9414874 C23.1820041,25.3236467 18.2752314,25.3236467 13.6730642,23.9414874 C12.9590683,25.2779383 12.3282224,26.6571749 11.7841231,28.0713343 C11.218043,29.6265747 10.9129745,31.2647023 10.881257,32.9194571 C11.1318406,33.0868316 11.3996399,33.2542061 11.6674391,33.404365 C14.3240106,34.819339 17.3017599,35.5221761 20.3106597,35.4444214 L21.1465759,35.4444214 C24.1554757,35.5221761 27.133225,34.819339 29.7897965,33.404365 C30.0575957,33.2542061 30.3244385,33.0868316 30.5759785,32.9194571 C30.543023,31.2648288 30.237992,29.6269023 29.6731125,28.0713343 Z" id="Path_1284" fill="#D6D4D4"></path>
                <path d="M27.2983071,10.4826627 C27.0882844,9.69053716 26.8085539,8.91855786 26.4623909,8.17576351 C26.7418245,8.38053995 27.0320382,8.57018458 27.3317819,8.74388048 C27.3480412,8.76013966 27.3652569,8.76013966 27.3815161,8.77735536 L27.5823656,8.87299796 L27.6780082,8.92273209 C27.7247154,8.95190184 27.7752524,8.97443428 27.828167,8.98968192 C27.8759059,9.00515538 27.9210445,9.02772467 27.9620666,9.05663174 C28.0166616,9.08183049 28.0725284,9.10417721 28.1294412,9.1235815 C28.1791753,9.13984075 28.2126502,9.15705645 28.2633408,9.1733157 C28.3589834,9.20679057 28.4469745,9.24026545 28.5502685,9.26895824 L28.5665278,9.26895824 C29.3258638,9.52802968 30.1218332,9.66365121 30.9241175,9.67065712 C30.9428512,10.8755794 31.0547682,12.0772471 31.2588666,13.2649055 C31.7600337,15.8233447 32.5127409,18.3339626 33.0473829,20.8723169 C33.582025,23.3465906 36.0735144,25.5205466 36.5746815,27.9948203 C36.727171,28.5616897 36.9947924,29.0910724 37.3608636,29.5499687 C38.0963551,30.6020372 40.386995,31.5900251 41.206652,32.5923594 C41.150698,32.6744483 41.0893516,32.7527289 41.0230182,32.8266837 C40.5046354,32.5923594 39.9862526,32.3752507 39.4850855,32.1744013 C39.6352443,33.2781167 39.7863596,34.4143507 39.9193028,35.5687567 C39.9538005,35.8699207 39.8350262,36.1683238 39.6030065,36.363405 C39.3709868,36.5584863 39.0566224,36.6242645 38.7658532,36.5385725 C38.1893946,36.4615669 37.6636565,36.1686165 37.2948702,35.7189156 C36.5631188,34.467542 36.0540806,33.0986727 35.7904123,31.6732342 C35.556088,29.5337095 33.7006218,27.4267033 32.3960569,25.6716618 C30.925074,23.6822961 29.4866095,22.0936727 29.0485664,20.2382065 C28.6468676,18.6122825 28.3293341,16.9777507 27.9783258,15.3393932 L27.9783258,15.323134 C27.9569246,13.6874045 27.7284334,12.0609719 27.2983071,10.4826627 Z" id="Path_1285" fill="#F4F4F4"></path>
                <path d="M13.171897,9.16183854 C13.2216312,9.14557929 13.2551061,9.12836366 13.3057966,9.11210441 C13.3603896,9.08690085 13.4162566,9.06455406 13.4731712,9.04515459 C13.5209101,9.02968112 13.5660487,9.00711184 13.6070708,8.97820476 C13.6568049,8.96194558 13.7027133,8.92847064 13.7572296,8.91125501 L13.8528722,8.86152081 L14.0537217,8.76587827 C14.0699809,8.74961902 14.0871966,8.74961902 14.1034559,8.73240332 C14.5595834,8.47992936 14.9859464,8.17708001 15.3745458,7.8295373 C15.4438213,7.77695976 15.505602,7.71517909 15.5581796,7.64590352 L15.6920792,7.51200394 L15.759029,7.44505412 C16.8137186,6.36281362 17.4429312,4.93664364 17.5312861,3.42806549 L17.5475453,3.41180625 C17.2335399,3.68445952 16.8702601,3.89450597 16.4773048,4.03061378 C15.5391652,4.46945786 14.5792617,4.86018677 13.6013323,5.20127904 C11.8424827,5.48599069 10.556091,7.01388576 10.5752008,8.79552743 C10.5589416,9.09680161 10.5417259,9.38086009 10.5254666,9.68117782 C11.3216346,9.66872658 12.1110885,9.53322571 12.8658408,9.27947894 L12.8821,9.27947894 C12.9882633,9.24504762 13.0714723,9.19531349 13.171897,9.16183854 Z" id="Path_1265" fill="#F4F4F4"></path>
                <path d="M11.6664827,33.404365 C11.7515835,34.819904 11.9359897,36.2277192 12.2183404,37.6174209 L20.1098102,37.6174209 C20.1595444,36.9986133 20.2437099,36.3635466 20.293444,35.7447391 C20.3068513,35.6497168 20.31229,35.5537399 20.3097032,35.4578113 C17.2996595,35.5310612 14.3219394,34.8236179 11.6664827,33.404365 Z" id="Path_1259" fill="#F4F4F4"></path>
                <path d="M14.1417128,10.4826627 C14.3517355,9.69053716 14.631466,8.91855786 14.9776291,8.17576351 C14.6981954,8.38053995 14.4079817,8.57018458 14.1082379,8.74388048 C14.0919787,8.76013966 14.0747631,8.76013966 14.0585038,8.77735536 L13.8576543,8.87299796 L13.7620118,8.92273209 C13.7153103,8.95191284 13.6647718,8.97444595 13.6118529,8.98968192 C13.564114,9.00515538 13.5189754,9.02772467 13.4779533,9.05663174 C13.4233583,9.08183049 13.3674915,9.10417721 13.3105788,9.1235815 C13.2608446,9.13984075 13.2273697,9.15705645 13.1766791,9.1733157 C13.0810365,9.20679057 12.9930454,9.24026545 12.8897514,9.26895824 L12.8734921,9.26895824 C12.1141562,9.52802968 11.3181867,9.66365121 10.5159024,9.67065712 C10.4971839,10.8755803 10.3852669,12.0772491 10.1811533,13.2649055 C9.67998619,15.8233447 8.92727906,18.3339626 8.39263698,20.8723169 C7.85799489,23.3465906 5.36650553,25.5205466 4.86533838,27.9948203 C4.71287463,28.5616995 4.44525058,29.0910872 4.07915632,29.5499687 C3.34366483,30.6020372 1.05302488,31.5900251 0.233367911,32.5923594 C0.28933103,32.6744417 0.350676936,32.7527216 0.417001678,32.8266837 C0.935384494,32.5923594 1.45376732,32.3752507 1.95493447,32.1744013 C1.80477561,33.2781167 1.65366032,34.4143507 1.52071713,35.5687567 C1.48621942,35.8699207 1.60499369,36.1683238 1.83701342,36.363405 C2.06903315,36.5584863 2.38339749,36.6242645 2.67416672,36.5385725 C3.25062527,36.4615669 3.77636338,36.1686165 4.1451497,35.7189156 C4.87690114,34.467542 5.38593931,33.0986727 5.64960759,31.6732342 C5.88393193,29.5337095 7.73939811,27.4267033 9.04396302,25.6716618 C10.5149459,23.6822961 11.9534105,22.0936727 12.3914535,20.2382065 C12.7931524,18.6122825 13.1106858,16.9777507 13.4616941,15.3393932 L13.4616941,15.323134 C13.4996023,13.6887089 13.7278139,12.0642663 14.1417128,10.4826627 Z" id="Path_1260" fill="#F4F4F4"></path>
                <path d="M20.7620927,30.5283924 C23.9172463,30.5904965 27.041479,29.8969149 29.8739619,28.5055517 C29.825487,28.3580975 29.7696249,28.2131752 29.7065874,28.0713343 C29.1650525,26.6554814 28.5328195,25.2760062 27.8138206,23.9414874 C23.2116533,25.3236467 18.3048807,25.3236467 13.7027133,23.9414874 C12.9887174,25.2779383 12.3578716,26.6571749 11.8137723,28.0713343 C11.7640382,28.2214932 11.6970883,28.3582621 11.6463978,28.5055517 C14.4800354,29.8975114 17.6056515,30.5911089 20.7620927,30.5283924 Z" id="Path_1346" fill="#676767"></path>
            </g>
            <g id="length_thumbnails_2" transform="translate(0.000000, 114.000000)" fill-rule="nonzero">
                <path d="M23.1188076,1.07831854 C22.5103048,0.398725616 21.6412414,0.0103482143 20.7290341,0.0103482143 C19.8168268,0.0103482143 18.9477633,0.398725616 18.3392605,1.07831854 C18.4184052,1.91647831 18.1131113,2.74529915 17.5091786,3.33184916 L17.5260117,3.34868226 C18.3901148,4.18184593 19.5301641,4.6685665 20.7295601,4.71637125 C21.9282138,4.66528356 23.0671478,4.17903916 23.9331086,3.34868226 L23.9499416,3.33184916 C23.3499023,2.74271744 23.0449893,1.91597848 23.1188076,1.07831854 Z" id="Path_670-path" stroke="#F4F4F4" stroke-width="0.2" fill="#F4F4F4"></path>
                <path d="M29.9236961,33.404365 C29.838567,34.8199013 29.6541611,36.2277145 29.3718383,37.6174209 L21.4813249,37.6174209 C21.4315908,36.9986133 21.3474253,36.3635466 21.2976912,35.7447391 C21.284284,35.6497168 21.2788453,35.5537399 21.2814319,35.4578113 C24.2911536,35.5308953 27.2685231,34.823457 29.9236961,33.404365 Z" id="Path_1332" fill="#F4F4F4"></path>
                <path d="M29.8079686,28.0713343 C29.2676881,26.6555717 28.6367336,25.2760977 27.9190274,23.9414874 C23.3171577,25.3234552 18.4107464,25.3234552 13.8088767,23.9414874 C13.0948829,25.2779394 12.4640371,26.6571758 11.9199355,28.0713343 C11.3538555,29.6265747 11.048787,31.2647023 11.0170695,32.9194571 C11.2676531,33.0868316 11.5354524,33.2542061 11.8032516,33.404365 C14.4598231,34.819339 17.4375724,35.5221761 20.4464722,35.4444214 L21.2823884,35.4444214 C24.2912882,35.5221761 27.2690374,34.819339 29.9256089,33.404365 C30.1934082,33.2542061 30.460251,33.0868316 30.711791,32.9194571 C30.678546,31.2647735 30.3731909,29.6268428 29.8079686,28.0713343 Z" id="Path_1333" fill="#676767"></path>
                <path d="M27.4503788,10.4826627 C27.2403704,9.69053261 26.9606395,8.91855216 26.6144626,8.17576351 C26.8939014,8.38053242 27.1841148,8.57017678 27.4838537,8.74388048 C27.5010694,8.76013966 27.5173286,8.76013966 27.5335878,8.77735536 L27.7344373,8.87299796 L27.8300798,8.92273209 C27.8767871,8.95190184 27.9273241,8.97443428 27.9802387,8.98968192 C28.0279776,9.00515538 28.0731162,9.02772467 28.1141383,9.05663174 C28.1687381,9.0818195 28.2246042,9.10416594 28.2815128,9.1235815 C28.331247,9.13984075 28.3647219,9.15705645 28.4154125,9.1733157 C28.5110551,9.20679057 28.5990463,9.24026545 28.7023402,9.26895824 L28.7195559,9.26895824 C29.4788919,9.52802968 30.2748614,9.66365121 31.0771457,9.67065712 C31.0958794,10.8755794 31.2077963,12.0772471 31.4118947,13.2649055 C31.9130619,15.8233447 32.665769,18.3339626 33.2004111,20.8723169 C33.7350532,23.3465906 36.2265425,25.5205466 36.7277096,27.9948203 C36.8801239,28.5653662 37.1491151,29.0981383 37.5177174,29.559533 C38.2532089,30.6116014 40.5438489,31.5995894 41.3635059,32.6019237 C41.3075336,32.6839993 41.2461882,32.7622787 41.1798721,32.836248 C40.6614893,32.6019237 40.1431064,32.384815 39.6419393,32.1839656 C39.7920981,33.287681 39.9432135,34.4239149 40.0761566,35.5783209 C40.1106544,35.879485 39.9918801,36.1778881 39.7598603,36.3729693 C39.5278406,36.5680505 39.2134763,36.6338287 38.922707,36.5481368 C38.3462485,36.4711311 37.8205104,36.1781808 37.4517241,35.7284798 C36.7199726,34.4771062 36.2109344,33.1082369 35.9472662,31.6827984 C35.7129418,29.5432738 33.8574757,27.4362676 32.5529108,25.6812261 C31.0819278,23.6918603 29.6434633,22.103237 29.2054203,20.2477708 C28.8046778,18.6218468 28.486188,16.987315 28.1351797,15.3489575 L28.1351797,15.3326982 C28.0964508,13.6948775 27.8666279,12.0671794 27.4503788,10.4826627 Z" id="Path_1334" fill="#F4F4F4"></path>
                <path d="M28.4201946,9.16183854 C28.3704604,9.14557929 28.3369856,9.12836366 28.286295,9.11210441 C28.2317,9.0869056 28.1758333,9.06455895 28.1189205,9.04515459 C28.0711815,9.02968113 28.026043,9.00711184 27.9850208,8.97820476 C27.9352867,8.96194558 27.8893783,8.92847064 27.834862,8.91125501 L27.7392194,8.86152081 L27.53837,8.76587827 C27.5211543,8.74961902 27.504895,8.74961902 27.4886358,8.73240333 C27.0324954,8.47994985 26.6061301,8.17709894 26.2175458,7.8295373 C26.1482703,7.77695976 26.0864896,7.71517909 26.0339121,7.64590353 L25.9000124,7.51200394 L25.8330626,7.44505412 C24.778373,6.36281362 24.1491604,4.93664364 24.0608055,3.42806549 L24.0397641,3.41084982 C24.3537696,3.68350309 24.7170493,3.89354955 25.1100047,4.02965736 C26.0481416,4.46850752 27.0080454,4.85923656 27.9859773,5.20032262 C29.7448268,5.48503426 31.0312185,7.01292931 31.0121087,8.79457105 C31.0283679,9.09584516 31.0455836,9.37990365 31.0618428,9.68022138 C30.2656749,9.66777014 29.476221,9.53226926 28.7214687,9.2785225 L28.7052095,9.2785225 C28.6038283,9.24504762 28.5206193,9.19531349 28.4201946,9.16183854 Z" id="Path_1338" fill="#F4F4F4"></path>
                <path d="M13.3067531,9.16183854 C13.3564872,9.14557929 13.3899622,9.12836366 13.4406527,9.11210441 C13.4952436,9.0868961 13.5511109,9.06454925 13.6080272,9.04515459 C13.6557661,9.02968112 13.7009048,9.00711184 13.7419268,8.97820476 C13.791661,8.96194558 13.8375694,8.92847064 13.8920857,8.91125501 L13.9877283,8.86152081 L14.1885778,8.76587827 C14.2048369,8.74961902 14.2220526,8.74961902 14.2383119,8.73240332 C14.6941145,8.4798824 15.1201556,8.17703394 15.5084454,7.8295373 C15.577721,7.77695976 15.6395016,7.71517909 15.6920792,7.64590352 L15.8259788,7.51200394 L15.8929286,7.44505412 C16.9476182,6.36281362 17.5768308,4.93664364 17.6651857,3.42806549 L17.681445,3.41180625 C17.3674395,3.68445952 17.0041598,3.89450597 16.6112044,4.03061378 C15.6730628,4.4694533 14.7131596,4.86018212 13.7352318,5.20127904 C11.9763824,5.48599069 10.6899906,7.01388576 10.7091004,8.79552743 C10.6928412,9.09680161 10.6756255,9.38086009 10.6593663,9.68117782 C11.4555356,9.66874185 12.2449919,9.53324064 12.9997404,9.27947894 L13.0169561,9.27947894 C13.1231193,9.24504762 13.2225876,9.19531349 13.3067531,9.16183854 Z" id="Path_1318" fill="#F4F4F4"></path>
                <path d="M11.8185544,33.404365 C11.9036553,34.819904 12.0880615,36.2277192 12.3704122,37.6174209 L20.2618819,37.6174209 C20.3116161,36.9986133 20.3957816,36.3635466 20.4455157,35.7447391 C20.4592696,35.6497463 20.4650283,35.553767 20.4627314,35.4578113 C17.4519483,35.5352198 14.4728719,34.8275326 11.8185544,33.404365 Z" id="Path_1312" fill="#F4F4F4"></path>
                <path d="M14.2928282,10.4826627 C14.5028652,9.69054164 14.7825952,8.91856363 15.1287444,8.17576351 C14.8493055,8.38053242 14.5590922,8.57017678 14.2593532,8.74388048 C14.243094,8.76013966 14.2258783,8.76013966 14.2096191,8.77735536 L14.0087697,8.87299796 L13.9131271,8.92273209 C13.866414,8.95189085 13.8158786,8.97442261 13.7629682,8.98968192 C13.7152293,9.00515538 13.6700907,9.02772467 13.6290686,9.05663174 C13.5744736,9.08183049 13.5186069,9.10417721 13.4616941,9.1235815 C13.4119599,9.13984075 13.378485,9.15705645 13.3277944,9.1733157 C13.2321519,9.20679057 13.1441606,9.24026545 13.0408667,9.26895824 L13.023651,9.26895824 C12.264315,9.52802968 11.4683455,9.66365121 10.6660613,9.67065712 C10.6473543,10.8755809 10.5354372,12.0772506 10.3313122,13.2649055 C9.83014502,15.8233447 9.0774379,18.3339626 8.54279581,20.8723169 C8.00815379,23.3465906 5.51666439,25.5205466 5.01549724,27.9948203 C4.86300781,28.5616897 4.5953863,29.0910724 4.22931518,29.5499687 C3.49382369,30.6020372 1.20318374,31.5900251 0.383526772,32.5923594 C0.439498947,32.674435 0.500844394,32.7527144 0.567160538,32.8266837 C1.08554336,32.5923594 1.60392618,32.3752507 2.10509333,32.1744013 C1.95493447,33.2781167 1.80381918,34.4143507 1.67087599,35.5687567 C1.63637828,35.8699207 1.75515255,36.1683238 1.98717228,36.363405 C2.21919201,36.5584863 2.53355635,36.6242645 2.82432558,36.5385725 C3.40078413,36.4615669 3.92652224,36.1686165 4.29530856,35.7189156 C5.02706,34.467542 5.53609817,33.0986727 5.79976645,31.6732342 C6.03409079,29.5337095 7.88955695,27.4267033 9.19412185,25.6716618 C10.6651048,23.6822961 12.1035693,22.0936727 12.5416124,20.2382065 C12.9433112,18.6122825 13.2608446,16.9777507 13.6118529,15.3393932 L13.6118529,15.323134 C13.6335661,13.6873637 13.8623787,12.0609304 14.2928282,10.4826627 Z" id="Path_1313" fill="#F4F4F4"></path>
                <path d="M28.1026612,15.4149509 C28.1026612,15.4312101 28.1198769,15.2810512 28.1198769,15.2982669 C28.0800008,13.6675226 27.855401,12.0465535 27.4503788,10.4664034 C27.2245055,9.67932872 26.9452188,8.90857411 26.6144626,8.15950426 C26.6144626,8.15950426 26.3466633,7.94239561 26.2127637,7.82475521 C26.1434882,7.77217759 26.0817076,7.71039699 26.0291299,7.64112143 L25.8952303,7.50722178 L25.8282805,7.44027202 C24.7730537,6.35177992 24.1391402,4.92360987 24.0397641,3.41084982 L24.0235049,3.42710907 C23.1786666,4.26083461 22.0532729,4.74952834 20.8672995,4.79766733 C19.6820752,4.74626808 18.5578034,4.25806155 17.7110942,3.42710907 L17.694835,3.41084982 C17.5996052,4.92462882 16.9650824,6.35417132 15.9063186,7.44027202 L15.8393688,7.50722178 L15.7054691,7.64112143 L15.5218354,7.82475521 C15.3879358,7.94143916 15.2540361,8.05907956 15.1201365,8.15950426 C14.7868296,8.90754777 14.5074775,9.67848288 14.2842203,10.4664034 C13.8628344,12.0432901 13.6379637,13.6662138 13.6147222,15.2982669 C13.6147222,15.2820077 13.6309814,15.264792 13.6309814,15.2485328 C13.9992054,16.1513988 14.1321486,17.0207899 14.4334227,17.890181 C15.1190683,19.9013737 14.8930838,22.1116212 13.8146152,23.9424439 C16.1228165,24.5383961 18.488099,24.8859583 20.8701688,24.9792095 C23.2523532,24.8871951 25.6177672,24.5396136 27.9257224,23.9424439 C26.8471293,22.1116621 26.6211391,19.9013589 27.3069149,17.890181 C27.6177533,17.0370491 27.7344373,16.3178169 28.1026612,15.4149509 Z" id="Path_1342" fill="#F4F4F4"></path>
            </g>
        </g>
    </g>
</svg>