<?xml version="1.0" encoding="UTF-8"?>
<svg width="40px" height="296px" viewBox="0 0 40 296" version="1.1" xmlns="http://www.w3.org/2000/svg" xmlns:xlink="http://www.w3.org/1999/xlink">
    <!-- Generator: Sketch 50.2 (55047) - http://www.bohemiancoding.com/sketch -->
    <title>sleeves_thumbnails</title>
    <desc>Created with Sketch.</desc>
    <defs></defs>
    <g id="Page-1" stroke="none" stroke-width="1" fill="none" fill-rule="evenodd">
        <g id="sleeves_thumbnails" transform="translate(-1.000000, -4.000000)">
            <g id="ALL" fill="#686868" fill-opacity="0.775334013" font-family="Muli-Bold, Muli" font-size="13" font-weight="bold">
                <text>
                    <tspan x="8.845" y="14">ALL</tspan>
                </text>
            </g>
            <g id="sleeves_thumbnails_0" transform="translate(1.000000, 35.000000)" fill-rule="nonzero">
                <path d="M11.6533365,28.2937683 C11.1754036,31.2940796 11.2668456,34.3575655 11.9228809,37.324029 L19.776376,37.324029 C19.8330117,36.6999866 19.9043309,36.076993 19.9609666,35.4529506 C20.0742382,34.3045028 19.9892845,33.1455669 19.9892845,32.008656 C20.1504412,31.9511027 20.316483,31.9082759 20.4853721,31.8807011 C20.6552794,32.1953444 20.9531417,32.4764256 20.9814596,32.8026058 C21.123049,34.3191862 21.1796848,35.822132 21.3212742,37.3387124 L29.2030872,37.3387124 C29.8687129,34.3737475 29.9648106,31.3092964 29.4862661,28.3084516 C24.0948641,31.9396442 17.0387515,31.9338342 11.6533365,28.2937683 Z" id="Path_3" fill="#F4F4F4"></path>
                <path d="M29.4579482,28.2937683 C29.1017129,26.4340153 28.4047821,24.6561305 27.4022791,23.0497144 C25.7157914,20.3563683 27.3739612,17.8182463 27.7567772,15.2098538 C27.7356661,12.9630007 27.3232605,10.7370044 26.538059,8.63171268 C22.9368458,11.317118 17.9881624,11.2763899 14.4316363,8.53207566 C13.6263222,10.6330848 13.2001929,12.8603203 13.1730634,15.1102168 C13.1730634,15.0955335 13.1877466,15.0672156 13.1877466,15.053581 C13.5558793,15.9471678 13.6838342,16.8260712 13.9816965,17.6902913 C14.6702652,19.6907931 14.4475582,21.8925642 13.3723374,23.7146605 C12.6099615,25.0705908 12.0408929,26.5264463 11.6816544,28.039956 L11.6386532,28.2948171 C17.0199319,31.9378786 24.0770984,31.9374632 29.4579482,28.2937683 Z" id="Path_15" fill="#F4F4F4"></path>
                <path d="M30.4102684,32.1984908 C30.057131,29.2314532 29.1687423,26.3530736 27.7882415,23.7031235 C25.4623638,24.2744625 23.0878726,24.6256147 20.696183,24.7519343 C18.2230729,24.6922343 15.7652899,24.3451952 13.3723374,23.7178069 C12.6607505,25.0452104 12.0330312,26.4158944 11.4928685,27.8218034 C10.9281394,29.3690306 10.6250811,30.99952 10.5961353,32.646333 C15.9649976,36.2867552 25.0497966,35.8420594 30.4102684,32.1984908 Z" id="Path_49" fill="#F4F4F4"></path>
                <path d="M23.9433012,3.25970388 C23.3307997,2.67357894 23.0313656,1.83244143 23.1357169,0.991126179 C21.6955818,-0.355674556 19.4487135,-0.324185059 18.046887,1.06244532 C18.124317,1.88372604 17.8276829,2.69619509 17.2393027,3.27438724 C19.101237,5.10543448 22.0894056,5.09888968 23.9433012,3.25970388 Z" id="Path_4" fill="#F4F4F4"></path>
                <path d="M10.2353444,9.49698157 C10.212408,10.6988806 10.1034024,11.8975928 9.90916419,13.0839144 C9.41307668,15.6356711 8.66212817,18.1307919 8.12618585,20.6542306 C7.58709715,23.1210335 5.10665966,25.2752908 4.61057216,27.7420938 C4.45946271,28.3052151 4.19263421,28.8306565 3.82711051,29.2848945 C3.09294297,30.3337053 0.807584295,31.3122457 0,32.3180552 C0.0536419513,32.3996682 0.115494323,32.4755779 0.184590696,32.5445983 C0.695361541,32.3180552 1.21976693,32.0904632 1.71585443,31.892238 C1.57426497,32.9976846 1.41799217,34.1178145 1.29108607,35.2662623 C1.21976693,35.9752584 1.80185691,36.3297564 2.43953386,36.2301194 C3.0153262,36.158526 3.53978937,35.8631387 3.89947846,35.4078517 C4.62581066,34.16145 5.13375693,32.8000688 5.40137549,31.382516 C5.62791862,29.2565766 7.48536253,27.1579062 8.77539972,25.4147827 C10.2353444,23.4304327 11.6669711,21.8561677 12.1064228,19.9997727 C12.5028732,18.3835552 12.8290534,16.7484593 13.1699169,15.1228026 C13.182738,12.6682469 13.6940595,10.2418784 14.6728628,7.99088929 C13.3917575,8.95255265 11.8371386,9.48018982 10.2353444,9.49698157 Z" id="Path_7" fill="#D6D4D4"></path>
                <path d="M37.4530328,32.0789263 C37.9494698,32.2635171 38.4598911,32.4477581 38.9842965,32.6316496 C38.3424082,31.541314 37.6224413,30.4988693 36.8300392,29.5124864 C36.517757,29.1554601 36.2770535,28.7417065 36.1210431,28.2937683 C35.1855039,24.2390658 32.6054294,20.4276874 31.8209189,16.3436183 C31.3961505,14.089724 31.1685586,11.7928283 30.9566988,9.51061609 C29.1708858,9.50934551 27.4474339,8.85376963 26.1122418,7.66785554 C27.2136518,10.0290602 27.779865,12.6044169 27.7704117,15.2098538 C27.7704117,15.1668526 27.7850951,15.1385347 27.7850951,15.0965823 C27.9805748,15.5624174 28.1278271,16.0470497 28.2245467,16.5428924 C29.2911785,20.4839451 30.9105375,24.2540925 33.034393,27.741045 C33.3813826,28.5944048 33.5315878,29.5149942 33.4738447,30.434391 C33.555451,32.3066512 34.1812659,34.1144797 35.2746528,35.6364925 C35.7416632,36.0749561 36.3638949,36.3096608 37.0041417,36.2888528 C37.8683618,36.2741695 37.8683618,35.5546853 37.7980915,34.9558143 C37.7078938,33.9500048 37.5663043,32.9725132 37.4530328,32.0789263 Z" id="Path_8" fill="#D6D4D4"></path>
                <path d="M17.2382539,3.27333843 C16.9266568,3.54354544 16.5654414,3.75051407 16.1747598,3.88269749 C15.2109027,4.25083007 14.3036813,4.77628427 13.3115064,5.04477983 C11.5622429,5.33256311 10.2818762,6.84952419 10.2919802,8.62227336 C10.2772968,8.92013567 10.2636623,9.20331454 10.2489789,9.50117678 C13.8486869,9.57186235 16.8950862,6.85734873 17.2382539,3.27333843 Z" id="Path_11" fill="#F4F4F4"></path>
                <path d="M30.9598453,9.49698157 C30.9315274,9.17080144 30.9032094,8.85930462 30.8602083,8.53312449 C30.8138184,6.81449972 29.5736925,5.36156852 27.8836832,5.04582864 C26.848507,4.76264973 25.9412857,4.22356099 24.9207928,3.84074505 C24.5692799,3.70842034 24.243217,3.51647255 23.9569357,3.27333843 C24.2897349,6.86749609 27.351474,9.58853244 30.9598453,9.49698157 Z" id="Path_12" fill="#F4F4F4"></path>
                <path d="M26.5516936,8.63171268 C26.4101041,8.27721461 26.2538313,7.95103448 26.1122418,7.66785554 C24.8422175,6.55055974 24.0674359,4.97496948 23.9579845,3.28697297 L23.9433012,3.27228962 C22.088073,5.1149305 19.093482,5.1149305 17.2382539,3.27228962 L17.2235706,3.28697297 C17.0994731,5.15231617 16.168045,6.87078575 14.6728628,7.9929869 C14.5813729,8.17219091 14.5008167,8.35676964 14.4316363,8.54571019 C17.9988226,11.2786567 22.9460831,11.3137619 26.5516936,8.63171268 Z" id="Path_9" fill="#F4F4F4"></path>
            </g>
            <g id="sleeves_thumbnails_1" transform="translate(1.000000, 81.000000)" fill-rule="nonzero">
                <path d="M11.6533365,28.2937683 C11.1754036,31.2940796 11.2668456,34.3575655 11.9228809,37.324029 L19.776376,37.324029 C19.8330117,36.6999866 19.9043309,36.076993 19.9609666,35.4529506 C20.0742382,34.3045028 19.9892845,33.1455669 19.9892845,32.008656 C20.1504412,31.9511027 20.316483,31.9082759 20.4853721,31.8807011 C20.6552794,32.1953444 20.9531417,32.4764256 20.9814596,32.8026058 C21.123049,34.3191862 21.1796848,35.822132 21.3212742,37.3387124 L29.2030872,37.3387124 C29.8687129,34.3737475 29.9648106,31.3092964 29.4862661,28.3084516 C24.0948641,31.9396442 17.0387515,31.9338342 11.6533365,28.2937683 Z" id="Path_3-3" fill="#F4F4F4"></path>
                <path d="M29.4579482,28.2937683 C29.1017129,26.4340153 28.4047821,24.6561305 27.4022791,23.0497144 C25.7157914,20.3563683 27.3739612,17.8182463 27.7567772,15.2098538 C27.7356661,12.9630007 27.3232605,10.7370044 26.538059,8.63171268 C22.9368458,11.317118 17.9881624,11.2763899 14.4316363,8.53207566 C13.6263222,10.6330848 13.2001929,12.8603203 13.1730634,15.1102168 C13.1730634,15.0955335 13.1877466,15.0672156 13.1877466,15.053581 C13.5558793,15.9471678 13.6838342,16.8260712 13.9816965,17.6902913 C14.6702652,19.6907931 14.4475582,21.8925642 13.3723374,23.7146605 C12.6099615,25.0705908 12.0408929,26.5264463 11.6816544,28.039956 L11.6386532,28.2948171 C17.0199319,31.9378786 24.0770984,31.9374632 29.4579482,28.2937683 Z" id="Path_15-3" fill="#F4F4F4"></path>
                <path d="M30.4102684,32.1984908 C30.057131,29.2314532 29.1687423,26.3530736 27.7882415,23.7031235 C25.4623638,24.2744625 23.0878726,24.6256147 20.696183,24.7519343 C18.2230729,24.6922343 15.7652899,24.3451952 13.3723374,23.7178069 C12.6607505,25.0452104 12.0330312,26.4158944 11.4928685,27.8218034 C10.9281394,29.3690306 10.6250811,30.99952 10.5961353,32.646333 C15.9649976,36.2867552 25.0497966,35.8420594 30.4102684,32.1984908 Z" id="Path_49-3" fill="#F4F4F4"></path>
                <path d="M23.9433012,3.25970388 C23.3307997,2.67357894 23.0313656,1.83244143 23.1357169,0.991126179 C21.6955818,-0.355674556 19.4487135,-0.324185059 18.046887,1.06244532 C18.124317,1.88372604 17.8276829,2.69619509 17.2393027,3.27438724 C19.101237,5.10543448 22.0894056,5.09888968 23.9433012,3.25970388 Z" id="Path_4-3" fill="#F4F4F4"></path>
                <path d="M10.2353444,9.49698157 C10.212408,10.6988806 10.1034024,11.8975928 9.90916419,13.0839144 C9.41307668,15.6356711 8.66212817,18.1307919 8.12618585,20.6542306 C7.58709715,23.1210335 5.10665966,25.2752908 4.61057216,27.7420938 C4.45946271,28.3052151 4.19263421,28.8306565 3.82711051,29.2848945 C3.09294297,30.3337053 0.807584295,31.3122457 0,32.3180552 C0.0536419513,32.3996682 0.115494323,32.4755779 0.184590696,32.5445983 C0.695361541,32.3180552 1.21976693,32.0904632 1.71585443,31.892238 C1.57426497,32.9976846 1.41799217,34.1178145 1.29108607,35.2662623 C1.21976693,35.9752584 1.80185691,36.3297564 2.43953386,36.2301194 C3.0153262,36.158526 3.53978937,35.8631387 3.89947846,35.4078517 C4.62581066,34.16145 5.13375693,32.8000688 5.40137549,31.382516 C5.62791862,29.2565766 7.48536253,27.1579062 8.77539972,25.4147827 C10.2353444,23.4304327 11.6669711,21.8561677 12.1064228,19.9997727 C12.5028732,18.3835552 12.8290534,16.7484593 13.1699169,15.1228026 C13.182738,12.6682469 13.6940595,10.2418784 14.6728628,7.99088929 C13.3917575,8.95255265 11.8371386,9.48018982 10.2353444,9.49698157 Z" id="Path_7-3" fill="#D6D4D4"></path>
                <path d="M37.4530328,32.0789263 C37.9494698,32.2635171 38.4598911,32.4477581 38.9842965,32.6316496 C38.3424082,31.541314 37.6224413,30.4988693 36.8300392,29.5124864 C36.517757,29.1554601 36.2770535,28.7417065 36.1210431,28.2937683 C35.1855039,24.2390658 32.6054294,20.4276874 31.8209189,16.3436183 C31.3961505,14.089724 31.1685586,11.7928283 30.9566988,9.51061609 C29.1708858,9.50934551 27.4474339,8.85376963 26.1122418,7.66785554 C27.2136518,10.0290602 27.779865,12.6044169 27.7704117,15.2098538 C27.7704117,15.1668526 27.7850951,15.1385347 27.7850951,15.0965823 C27.9805748,15.5624174 28.1278271,16.0470497 28.2245467,16.5428924 C29.2911785,20.4839451 30.9105375,24.2540925 33.034393,27.741045 C33.3813826,28.5944048 33.5315878,29.5149942 33.4738447,30.434391 C33.555451,32.3066512 34.1812659,34.1144797 35.2746528,35.6364925 C35.7416632,36.0749561 36.3638949,36.3096608 37.0041417,36.2888528 C37.8683618,36.2741695 37.8683618,35.5546853 37.7980915,34.9558143 C37.7078938,33.9500048 37.5663043,32.9725132 37.4530328,32.0789263 Z" id="Path_8-3" fill="#D6D4D4"></path>
                <path d="M17.2382539,3.27333843 C16.9266568,3.54354544 16.5654414,3.75051407 16.1747598,3.88269749 C15.2109027,4.25083007 14.3036813,4.77628427 13.3115064,5.04477983 C11.5622429,5.33256311 10.2818762,6.84952419 10.2919802,8.62227336 C10.2772968,8.92013567 10.2636623,9.20331454 10.2489789,9.50117678 C13.8486869,9.57186235 16.8950862,6.85734873 17.2382539,3.27333843 Z" id="Path_11-3" fill="#F4F4F4"></path>
                <path d="M30.9598453,9.49698157 C30.9315274,9.17080144 30.9032094,8.85930462 30.8602083,8.53312449 C30.8138184,6.81449972 29.5736925,5.36156852 27.8836832,5.04582864 C26.848507,4.76264973 25.9412857,4.22356099 24.9207928,3.84074505 C24.5692799,3.70842034 24.243217,3.51647255 23.9569357,3.27333843 C24.2897349,6.86749609 27.351474,9.58853244 30.9598453,9.49698157 Z" id="Path_12-3" fill="#F4F4F4"></path>
                <path d="M26.5516936,8.63171268 C26.4101041,8.27721461 26.2538313,7.95103448 26.1122418,7.66785554 C24.8422175,6.55055974 24.0674359,4.97496948 23.9579845,3.28697297 L23.9433012,3.27228962 C22.088073,5.1149305 19.093482,5.1149305 17.2382539,3.27228962 L17.2235706,3.28697297 C17.0994731,5.15231617 16.168045,6.87078575 14.6728628,7.9929869 C14.5813729,8.17219091 14.5008167,8.35676964 14.4316363,8.54571019 C17.9988226,11.2786567 22.9460831,11.3137619 26.5516936,8.63171268 Z" id="Path_9-3" fill="#F4F4F4"></path>
                <path d="M13.895694,10.2626134 L13.4058993,12.659146 C12.8242518,12.8871591 12.202231,12.9942195 11.5778221,12.9737893 C11.0670513,12.8804451 10.0906084,12.6948056 10.1094871,12.2144503 C10.1252192,11.1142478 10.237442,10.0308262 10.2689063,9.50432322 C11.7779716,9.46971519 13.2491939,9.02523058 14.5249804,8.21848123 L13.895694,10.2626134 Z" id="Path-4-Copy_1_" fill="#676767"></path>
                <path d="M27.1306371,10.3528111 L27.6424568,12.8563225 C28.2501196,13.0928759 28.8996065,13.203146 29.5512924,13.180405 C30.0851371,13.0828656 31.2293896,12.8982749 31.2147063,12.3958946 C31.1989741,11.2422027 30.9546012,10.1073895 30.9220881,9.55676378 C29.4642411,9.44558984 28.7132926,9.17919193 26.3503219,7.94683921 L27.1306371,10.3528111 Z" id="Path-4-Copy_1_2" fill="#676767"></path>
            </g>
            <g id="sleeves_thumbnails_2" transform="translate(1.000000, 124.000000)" fill-rule="nonzero">
                <path d="M10.4438421,9.6904386 C10.4204385,10.9168208 10.3092124,12.1399511 10.1110175,13.3504386 C9.60482453,15.9541755 8.83857893,18.5001228 8.29171927,21.0749649 C7.74164913,23.5920175 5.21068421,25.7901579 4.70449123,28.3072105 C4.55030361,28.8818028 4.27803972,29.4179477 3.90507017,29.8814386 C3.15594737,30.9516141 0.824035087,31.9500877 0,32.9763859 C0.0547346577,33.0596614 0.117846985,33.1371175 0.188350877,33.2075439 C0.709526313,32.9763859 1.24461403,32.7441579 1.75080702,32.5418947 C1.60633333,33.6698597 1.44687719,34.812807 1.31738597,35.9846491 C1.24461403,36.7080877 1.83856141,37.069807 2.48922807,36.9681403 C3.07674951,36.8950885 3.61189619,36.5936841 3.97891228,36.1291228 C4.72004013,34.8573314 5.23833346,33.4682184 5.51140351,32.0217895 C5.74256141,29.8525439 7.63784213,27.7111228 8.95415787,25.9324912 C10.4438421,23.9077193 11.9046316,22.3013859 12.3530351,20.4071755 C12.7575614,18.7580351 13.0903859,17.0896316 13.438193,15.4308597 C13.4512753,12.9263038 13.9730125,10.4505093 14.9717544,8.15366667 C13.6645526,9.13491947 12.0782655,9.6733048 10.4438421,9.6904386 Z" id="Path_7-4" fill="#D6D4D4"></path>
                <path d="M38.2159649,32.7323859 C38.7225146,32.9207369 39.2433333,33.108731 39.7784211,33.2963684 C39.1234573,32.1838222 38.3888244,31.1201425 37.5802807,30.1136667 C37.2616373,29.7493677 37.0160305,29.3271857 36.8568421,28.8701228 C35.9022456,24.7328245 33.2696141,20.843807 32.4691228,16.6765439 C32.0357017,14.3767369 31.8034737,12.0330526 31.5872983,9.70435087 C29.7651075,9.7030544 28.0065483,9.0341242 26.6441579,7.8240526 C27.768004,10.2333559 28.3457511,12.8611735 28.3361053,15.5196842 C28.3361053,15.475807 28.3510877,15.4469123 28.3510877,15.4041053 C28.5505495,15.8794296 28.7008014,16.373934 28.7994912,16.8798772 C29.8878507,20.9012106 31.5401966,24.7481573 33.7073158,28.3061403 C34.0613737,29.1768834 34.2146387,30.1162256 34.1557193,31.0543509 C34.238988,32.9647497 34.8775509,34.8094043 35.9932105,36.3624211 C36.4697341,36.8098163 37.1046409,37.049302 37.7579298,37.0280702 C38.6397544,37.0130877 38.6397544,36.2789474 38.5680526,35.6678772 C38.4760175,34.6415789 38.3315439,33.6441755 38.2159649,32.7323859 Z" id="Path_8-4" fill="#D6D4D4"></path>
                <path d="M17.5894035,3.34001755 C17.2714591,3.61572877 16.9028855,3.82691343 16.5042456,3.96178947 C15.5207544,4.33742105 14.5950526,4.87357895 13.5826667,5.14754386 C11.7977701,5.4411894 10.4913218,6.98905153 10.5016316,8.79791227 C10.4866491,9.10184213 10.4727369,9.39078947 10.4577544,9.69471927 C14.1307897,9.76684473 17.2392453,6.99703547 17.5894035,3.34001755 Z" id="Path_11-4" fill="#F4F4F4"></path>
                <path d="M31.5905088,9.6904386 C31.5616141,9.35761407 31.5327193,9.03977193 31.4888421,8.7069474 C31.4415073,6.9533136 30.1761196,5.47078566 28.4516842,5.14861403 C27.3954211,4.85966667 26.4697193,4.30959649 25.4284386,3.91898245 C25.0697652,3.78396223 24.7370603,3.58810439 24.4449474,3.34001755 C24.7845258,7.00738953 27.9086337,9.7838544 31.5905088,9.6904386 Z" id="Path_12-4" fill="#F4F4F4"></path>
                <path d="M11.8907193,28.8701228 C11.4030507,31.9315516 11.4963555,35.0574419 12.1657544,38.0843333 L20.1792281,38.0843333 C20.2370175,37.4475789 20.3097895,36.8118947 20.3675789,36.1751403 C20.4831579,35.0032983 20.3964737,33.8207544 20.3964737,32.6606842 C20.5609131,32.6019585 20.7303373,32.5582593 20.9026667,32.5301228 C21.0760351,32.8511755 21.3799649,33.1379825 21.4088597,33.470807 C21.5533333,35.0182807 21.6111228,36.5518421 21.7555965,38.0993158 L29.7979649,38.0993158 C30.4771497,35.0739535 30.5752049,31.9470784 30.0869123,28.8851053 C24.5856854,32.5902665 17.3858372,32.5843383 11.8907193,28.8701228 Z" id="Path_3-4" fill="#F4F4F4"></path>
                <path d="M30.0580175,28.8701228 C29.6945255,26.9724859 28.983398,25.158385 27.9604737,23.5192456 C26.2396316,20.7710351 27.9315789,18.1812105 28.322193,15.5196842 C28.3006519,13.2270619 27.8798455,10.9557211 27.0786491,8.80754387 C23.4040778,11.5476519 18.3545879,11.5060941 14.7256141,8.7058772 C13.9038954,10.8496847 13.4690857,13.1222898 13.4414035,15.4180175 C13.4414035,15.4030351 13.4563859,15.3741403 13.4563859,15.3602281 C13.8320175,16.2720175 13.9625789,17.1688245 14.2665088,18.0506491 C14.9691039,20.0919019 14.7418603,22.3385239 13.6447369,24.1977369 C12.8668311,25.581288 12.2861703,27.0667999 11.9196141,28.6111403 L11.8757369,28.871193 C17.3666342,32.588465 24.5675578,32.5880412 30.0580175,28.8701228 Z" id="Path_15-4" fill="#F4F4F4"></path>
                <path d="M31.0297369,32.8543859 C30.6694059,29.8269087 29.7629204,26.8898955 28.3542983,24.1859649 C25.9810415,24.7689423 23.5581811,25.1272476 21.1177719,25.2561403 C18.5942836,25.1952243 16.0864347,24.8411159 13.6447369,24.2009474 C12.9186547,25.5553906 12.2781485,26.9539959 11.7269825,28.3885439 C11.1507497,29.9672887 10.8415179,31.6309917 10.8119825,33.3113509 C16.2902105,37.0259298 25.5600702,36.5721755 31.0297369,32.8543859 Z" id="Path_49-4" fill="#F4F4F4"></path>
                <path d="M24.4310351,3.32610526 C23.8060567,2.72804073 23.5005231,1.86976894 23.607,1.01131579 C22.1375288,-0.362919779 19.844891,-0.330788829 18.4145088,1.08408772 C18.493516,1.92209823 18.1908394,2.75111759 17.5904737,3.34108772 C19.4903363,5.20943407 22.5393749,5.20275595 24.4310351,3.32610526 Z" id="Path_4-4" fill="#F4F4F4"></path>
                <path d="M27.0925614,8.80754387 C26.9480877,8.44582453 26.7886316,8.113 26.6441579,7.8240526 C25.3482627,6.68399707 24.5576985,5.07631145 24.4460175,3.35392983 L24.4310351,3.33894737 C22.5380153,5.21912353 19.4824233,5.21912353 17.5894035,3.33894737 L17.5744211,3.35392983 C17.4477957,5.25727076 16.4973941,7.0107462 14.9717544,8.155807 C14.8784009,8.33866147 14.7962037,8.52700013 14.7256141,8.71978947 C18.3654653,11.5084071 23.4135033,11.5442274 27.0925614,8.80754387 Z" id="Path_9-4" fill="#F4F4F4"></path>
                <path d="M14.8326316,8.35271927 C13.5591747,9.23540233 12.0499493,9.71523753 10.5005614,9.73003507 C10.2658935,12.4466459 9.79647413,15.1378401 9.0975614,17.7734737 C9.70175187,18.3603628 10.488975,18.7222437 11.327807,18.7987017 C11.8730757,18.8384487 12.4132187,18.6706336 12.8399649,18.3288947 L13.3985965,15.4008947 C13.5803348,13.0008269 14.0620993,10.63299 14.8326316,8.35271927 Z" id="Path-25_3_3" fill="#676767"></path>
                <path d="M26.8710351,8.11835087 C28.2514935,9.08374353 29.8708479,9.6509248 31.5519825,9.75785967 C31.9650702,12.5991755 31.8024035,13.2626842 32.7077719,17.7724035 C32.1035815,18.3592927 31.3163583,18.7211735 30.4775263,18.7976316 C29.9821175,18.8528723 29.4862779,18.6975584 29.1109123,18.3695614 L28.4067369,15.4008947 C28.1798567,12.9219083 27.6644707,10.4778653 26.8710351,8.11835087 Z" id="Path-25_3_4" fill="#676767"></path>
            </g>
            <g id="sleeves_thumbnails_3" transform="translate(1.000000, 169.000000)" fill-rule="nonzero">
                <path d="M11.6533365,28.2937683 C11.1754036,31.2940796 11.2668456,34.3575655 11.9228809,37.324029 L19.776376,37.324029 C19.8330117,36.6999866 19.9043309,36.076993 19.9609666,35.4529506 C20.0742382,34.3045028 19.9892845,33.1455669 19.9892845,32.008656 C20.1504412,31.9511027 20.316483,31.9082759 20.4853721,31.8807011 C20.6552794,32.1953444 20.9531417,32.4764256 20.9814596,32.8026058 C21.123049,34.3191862 21.1796848,35.822132 21.3212742,37.3387124 L29.2030872,37.3387124 C29.8687129,34.3737475 29.9648106,31.3092964 29.4862661,28.3084516 C24.0948641,31.9396442 17.0387515,31.9338342 11.6533365,28.2937683 Z" id="Path_3-2" fill="#F4F4F4"></path>
                <path d="M29.4579482,28.2937683 C29.1017129,26.4340153 28.4047821,24.6561305 27.4022791,23.0497144 C25.7157914,20.3563683 27.3739612,17.8182463 27.7567772,15.2098538 C27.7356661,12.9630007 27.3232605,10.7370044 26.538059,8.63171268 C22.9368458,11.317118 17.9881624,11.2763899 14.4316363,8.53207566 C13.6263222,10.6330848 13.2001929,12.8603203 13.1730634,15.1102168 C13.1730634,15.0955335 13.1877466,15.0672156 13.1877466,15.053581 C13.5558793,15.9471678 13.6838342,16.8260712 13.9816965,17.6902913 C14.6702652,19.6907931 14.4475582,21.8925642 13.3723374,23.7146605 C12.6099615,25.0705908 12.0408929,26.5264463 11.6816544,28.039956 L11.6386532,28.2948171 C17.0199319,31.9378786 24.0770984,31.9374632 29.4579482,28.2937683 Z" id="Path_15-2" fill="#F4F4F4"></path>
                <path d="M30.4102684,32.1984908 C30.057131,29.2314532 29.1687423,26.3530736 27.7882415,23.7031235 C25.4623638,24.2744625 23.0878726,24.6256147 20.696183,24.7519343 C18.2230729,24.6922343 15.7652899,24.3451952 13.3723374,23.7178069 C12.6607505,25.0452104 12.0330312,26.4158944 11.4928685,27.8218034 C10.9281394,29.3690306 10.6250811,30.99952 10.5961353,32.646333 C15.9649976,36.2867552 25.0497966,35.8420594 30.4102684,32.1984908 Z" id="Path_49-2" fill="#F4F4F4"></path>
                <path d="M23.9433012,3.25970388 C23.3307997,2.67357894 23.0313656,1.83244143 23.1357169,0.991126179 C21.6955818,-0.355674556 19.4487135,-0.324185059 18.046887,1.06244532 C18.124317,1.88372604 17.8276829,2.69619509 17.2393027,3.27438724 C19.101237,5.10543448 22.0894056,5.09888968 23.9433012,3.25970388 Z" id="Path_4-2" fill="#F4F4F4"></path>
                <path d="M10.2353444,9.49698157 C10.212408,10.6988806 10.1034024,11.8975928 9.90916419,13.0839144 C9.41307668,15.6356711 8.66212817,18.1307919 8.12618585,20.6542306 C7.58709715,23.1210335 5.10665966,25.2752908 4.61057216,27.7420938 C4.45946271,28.3052151 4.19263421,28.8306565 3.82711051,29.2848945 C3.09294297,30.3337053 0.807584295,31.3122457 0,32.3180552 C0.0536419513,32.3996682 0.115494323,32.4755779 0.184590696,32.5445983 C0.695361541,32.3180552 1.21976693,32.0904632 1.71585443,31.892238 C1.57426497,32.9976846 1.41799217,34.1178145 1.29108607,35.2662623 C1.21976693,35.9752584 1.80185691,36.3297564 2.43953386,36.2301194 C3.0153262,36.158526 3.53978937,35.8631387 3.89947846,35.4078517 C4.62581066,34.16145 5.13375693,32.8000688 5.40137549,31.382516 C5.62791862,29.2565766 7.48536253,27.1579062 8.77539972,25.4147827 C10.2353444,23.4304327 11.6669711,21.8561677 12.1064228,19.9997727 C12.5028732,18.3835552 12.8290534,16.7484593 13.1699169,15.1228026 C13.182738,12.6682469 13.6940595,10.2418784 14.6728628,7.99088929 C13.3917575,8.95255265 11.8371386,9.48018982 10.2353444,9.49698157 Z" id="Path_7-2" fill="#D6D4D4"></path>
                <path d="M37.4530328,32.0789263 C37.9494698,32.2635171 38.4598911,32.4477581 38.9842965,32.6316496 C38.3424082,31.541314 37.6224413,30.4988693 36.8300392,29.5124864 C36.517757,29.1554601 36.2770535,28.7417065 36.1210431,28.2937683 C35.1855039,24.2390658 32.6054294,20.4276874 31.8209189,16.3436183 C31.3961505,14.089724 31.1685586,11.7928283 30.9566988,9.51061609 C29.1708858,9.50934551 27.4474339,8.85376963 26.1122418,7.66785554 C27.2136518,10.0290602 27.779865,12.6044169 27.7704117,15.2098538 C27.7704117,15.1668526 27.7850951,15.1385347 27.7850951,15.0965823 C27.9805748,15.5624174 28.1278271,16.0470497 28.2245467,16.5428924 C29.2911785,20.4839451 30.9105375,24.2540925 33.034393,27.741045 C33.3813826,28.5944048 33.5315878,29.5149942 33.4738447,30.434391 C33.555451,32.3066512 34.1812659,34.1144797 35.2746528,35.6364925 C35.7416632,36.0749561 36.3638949,36.3096608 37.0041417,36.2888528 C37.8683618,36.2741695 37.8683618,35.5546853 37.7980915,34.9558143 C37.7078938,33.9500048 37.5663043,32.9725132 37.4530328,32.0789263 Z" id="Path_8-2" fill="#D6D4D4"></path>
                <path d="M17.2382539,3.27333843 C16.9266568,3.54354544 16.5654414,3.75051407 16.1747598,3.88269749 C15.2109027,4.25083007 14.3036813,4.77628427 13.3115064,5.04477983 C11.5622429,5.33256311 10.2818762,6.84952419 10.2919802,8.62227336 C10.2772968,8.92013567 10.2636623,9.20331454 10.2489789,9.50117678 C13.8486869,9.57186235 16.8950862,6.85734873 17.2382539,3.27333843 Z" id="Path_11-2" fill="#F4F4F4"></path>
                <path d="M30.9598453,9.49698157 C30.9315274,9.17080144 30.9032094,8.85930462 30.8602083,8.53312449 C30.8138184,6.81449972 29.5736925,5.36156852 27.8836832,5.04582864 C26.848507,4.76264973 25.9412857,4.22356099 24.9207928,3.84074505 C24.5692799,3.70842034 24.243217,3.51647255 23.9569357,3.27333843 C24.2897349,6.86749609 27.351474,9.58853244 30.9598453,9.49698157 Z" id="Path_12-2" fill="#F4F4F4"></path>
                <path d="M26.5516936,8.63171268 C26.4101041,8.27721461 26.2538313,7.95103448 26.1122418,7.66785554 C24.8422175,6.55055974 24.0674359,4.97496948 23.9579845,3.28697297 L23.9433012,3.27228962 C22.088073,5.1149305 19.093482,5.1149305 17.2382539,3.27228962 L17.2235706,3.28697297 C17.0994731,5.15231617 16.168045,6.87078575 14.6728628,7.9929869 C14.5813729,8.17219091 14.5008167,8.35676964 14.4316363,8.54571019 C17.9988226,11.2786567 22.9460831,11.3137619 26.5516936,8.63171268 Z" id="Path_9-2" fill="#F4F4F4"></path>
                <path d="M26.3345897,7.95627853 C27.6874891,8.90239838 29.2745152,9.45825661 30.9220881,9.56305666 C31.2283369,12.4070494 31.6951031,15.2314572 32.3201528,18.0227643 C32.7302379,19.6232496 33.6500449,20.8220403 33.9583952,22.3554017 C33.5231911,22.8349482 32.9514132,23.1695225 32.3201528,23.3140147 C31.7688929,23.4486861 31.1933155,23.4486861 30.6420556,23.3140147 L29.0027643,19.3086063 L27.8396332,15.0934359 C27.6172824,12.6639392 27.1121854,10.2686883 26.3345897,7.95627853 Z" id="Path-25_3_" fill="#676767"></path>
                <path d="M14.6078365,8.10625845 C13.3314499,9.00485791 11.8206047,9.51151048 10.2605158,9.56410543 C9.92018267,12.350689 9.42826038,15.1166576 8.78693665,17.8497106 C8.37685163,19.4501958 7.72344255,20.9416048 7.41509216,22.4749661 C7.78570981,22.9139543 8.29732959,23.2105455 8.86245106,23.3140147 C9.41371102,23.4486861 9.9892883,23.4486861 10.5405483,23.3140147 L12.0382501,20.4822256 L13.15838,15.1070704 C13.3566753,12.7234421 13.8433822,10.3726686 14.6078365,8.10625845 Z" id="Path-25_3_2" fill="#676767"></path>
            </g>
            <g id="sleeves_thumbnails_4" transform="translate(1.000000, 215.000000)" fill-rule="nonzero">
                <path d="M10.2353444,9.49698157 C10.212408,10.6988806 10.1034024,11.8975928 9.90916419,13.0839144 C9.41307668,15.6356711 8.66212817,18.1307919 8.12618585,20.6542306 C7.58709715,23.1210335 5.10665966,25.2752908 4.61057216,27.7420938 C4.45946271,28.3052151 4.19263421,28.8306565 3.82711051,29.2848945 C3.09294297,30.3337053 0.807584295,31.3122457 0,32.3180552 C0.0536419513,32.3996682 0.115494323,32.4755779 0.184590696,32.5445983 C0.695361541,32.3180552 1.21976693,32.0904632 1.71585443,31.892238 C1.57426497,32.9976846 1.41799217,34.1178145 1.29108607,35.2662623 C1.21976693,35.9752584 1.80185691,36.3297564 2.43953386,36.2301194 C3.0153262,36.158526 3.53978937,35.8631387 3.89947846,35.4078517 C4.62581066,34.16145 5.13375693,32.8000688 5.40137549,31.382516 C5.62791862,29.2565766 7.48536253,27.1579062 8.77539972,25.4147827 C10.2353444,23.4304327 11.6669711,21.8561677 12.1064228,19.9997727 C12.5028732,18.3835552 12.8290534,16.7484593 13.1699169,15.1228026 C13.182738,12.6682469 13.6940595,10.2418784 14.6728628,7.99088929 C13.3917575,8.95255265 11.8371386,9.48018982 10.2353444,9.49698157 Z" id="Path_7-5" fill="#D6D4D4"></path>
                <path d="M37.4530328,32.0789263 C37.9494698,32.2635171 38.4598911,32.4477581 38.9842965,32.6316496 C38.3424082,31.541314 37.6224413,30.4988693 36.8300392,29.5124864 C36.517757,29.1554601 36.2770535,28.7417065 36.1210431,28.2937683 C35.1855039,24.2390658 32.6054294,20.4276874 31.8209189,16.3436183 C31.3961505,14.089724 31.1685586,11.7928283 30.9566988,9.51061609 C29.1708858,9.50934551 27.4474339,8.85376963 26.1122418,7.66785554 C27.2136518,10.0290602 27.779865,12.6044169 27.7704117,15.2098538 C27.7704117,15.1668526 27.7850951,15.1385347 27.7850951,15.0965823 C27.9805748,15.5624174 28.1278271,16.0470497 28.2245467,16.5428924 C29.2911785,20.4839451 30.9105375,24.2540925 33.034393,27.741045 C33.3813826,28.5944048 33.5315878,29.5149942 33.4738447,30.434391 C33.555451,32.3066512 34.1812659,34.1144797 35.2746528,35.6364925 C35.7416632,36.0749561 36.3638949,36.3096608 37.0041417,36.2888528 C37.8683618,36.2741695 37.8683618,35.5546853 37.7980915,34.9558143 C37.7078938,33.9500048 37.5663043,32.9725132 37.4530328,32.0789263 Z" id="Path_8-5" fill="#D6D4D4"></path>
                <path d="M17.2382539,3.27333843 C16.9266568,3.54354544 16.5654414,3.75051407 16.1747598,3.88269749 C15.2109027,4.25083007 14.3036813,4.77628427 13.3115064,5.04477983 C11.5622429,5.33256311 10.2818762,6.84952419 10.2919802,8.62227336 C10.2772968,8.92013567 10.2636623,9.20331454 10.2489789,9.50117678 C13.8486869,9.57186235 16.8950862,6.85734873 17.2382539,3.27333843 Z" id="Path_11-5" fill="#F4F4F4"></path>
                <path d="M30.9598453,9.49698157 C30.9315274,9.17080144 30.9032094,8.85930462 30.8602083,8.53312449 C30.8138184,6.81449972 29.5736925,5.36156852 27.8836832,5.04582864 C26.848507,4.76264973 25.9412857,4.22356099 24.9207928,3.84074505 C24.5692799,3.70842034 24.243217,3.51647255 23.9569357,3.27333843 C24.2897349,6.86749609 27.351474,9.58853244 30.9598453,9.49698157 Z" id="Path_12-5" fill="#F4F4F4"></path>
                <path d="M11.6533365,28.2937683 C11.1754036,31.2940796 11.2668456,34.3575655 11.9228809,37.324029 L19.776376,37.324029 C19.8330117,36.6999866 19.9043309,36.076993 19.9609666,35.4529506 C20.0742382,34.3045028 19.9892845,33.1455669 19.9892845,32.008656 C20.1504412,31.9511027 20.316483,31.9082759 20.4853721,31.8807011 C20.6552794,32.1953444 20.9531417,32.4764256 20.9814596,32.8026058 C21.123049,34.3191862 21.1796848,35.822132 21.3212742,37.3387124 L29.2030872,37.3387124 C29.8687129,34.3737475 29.9648106,31.3092964 29.4862661,28.3084516 C24.0948641,31.9396442 17.0387515,31.9338342 11.6533365,28.2937683 Z" id="Path_3-5" fill="#F4F4F4"></path>
                <path d="M29.4579482,28.2937683 C29.1017129,26.4340153 28.4047821,24.6561305 27.4022791,23.0497144 C25.7157914,20.3563683 27.3739612,17.8182463 27.7567772,15.2098538 C27.7356661,12.9630007 27.3232605,10.7370044 26.538059,8.63171268 C22.9368458,11.317118 17.9881624,11.2763899 14.4316363,8.53207566 C13.6263222,10.6330848 13.2001929,12.8603203 13.1730634,15.1102168 C13.1730634,15.0955335 13.1877466,15.0672156 13.1877466,15.053581 C13.5558793,15.9471678 13.6838342,16.8260712 13.9816965,17.6902913 C14.6702652,19.6907931 14.4475582,21.8925642 13.3723374,23.7146605 C12.6099615,25.0705908 12.0408929,26.5264463 11.6816544,28.039956 L11.6386532,28.2948171 C17.0199319,31.9378786 24.0770984,31.9374632 29.4579482,28.2937683 Z" id="Path_15-5" fill="#F4F4F4"></path>
                <path d="M30.4102684,32.1984908 C30.057131,29.2314532 29.1687423,26.3530736 27.7882415,23.7031235 C25.4623638,24.2744625 23.0878726,24.6256147 20.696183,24.7519343 C18.2230729,24.6922343 15.7652899,24.3451952 13.3723374,23.7178069 C12.6607505,25.0452104 12.0330312,26.4158944 11.4928685,27.8218034 C10.9281394,29.3690306 10.6250811,30.99952 10.5961353,32.646333 C15.9649976,36.2867552 25.0497966,35.8420594 30.4102684,32.1984908 Z" id="Path_49-5" fill="#F4F4F4"></path>
                <path d="M23.9433012,3.25970388 C23.3307997,2.67357894 23.0313656,1.83244143 23.1357169,0.991126179 C21.6955818,-0.355674556 19.4487135,-0.324185059 18.046887,1.06244532 C18.124317,1.88372604 17.8276829,2.69619509 17.2393027,3.27438724 C19.101237,5.10543448 22.0894056,5.09888968 23.9433012,3.25970388 Z" id="Path_4-5" fill="#F4F4F4"></path>
                <path d="M26.5516936,8.63171268 C26.4101041,8.27721461 26.2538313,7.95103448 26.1122418,7.66785554 C24.8422175,6.55055974 24.0674359,4.97496948 23.9579845,3.28697297 L23.9433012,3.27228962 C22.088073,5.1149305 19.093482,5.1149305 17.2382539,3.27228962 L17.2235706,3.28697297 C17.0994731,5.15231617 16.168045,6.87078575 14.6728628,7.9929869 C14.5813729,8.17219091 14.5008167,8.35676964 14.4316363,8.54571019 C17.9988226,11.2786567 22.9460831,11.3137619 26.5516936,8.63171268 Z" id="Path_9-5" fill="#F4F4F4"></path>
                <path d="M26.3345897,7.95627853 C27.6874891,8.90239838 29.2745152,9.45825661 30.9220881,9.56305666 C31.2283369,12.4070494 31.6951031,15.2314572 32.3201528,18.0227643 C32.7302379,19.6232496 35.78857,26.5181316 36.0958716,28.0556882 C35.6218092,28.5297507 35.5777591,28.6986092 34.9348381,28.8223689 C34.3627225,28.8497156 33.7926352,28.7362744 33.2745706,28.4919935 L29.3583112,20.302879 L27.8396332,15.0934359 C27.6172824,12.6639392 27.1121854,10.2686883 26.3345897,7.95627853 Z" id="Path-25_3_5" fill="#676767"></path>
                <path d="M14.6067877,8.10625845 C13.3304011,9.00485791 11.8195559,9.51151048 10.259467,9.56410543 C9.91913593,12.3506893 9.42721363,15.1166581 8.78588788,17.8497106 C8.37580286,19.4501958 4.4973006,27.2229325 4.18895023,28.7573426 C4.6630127,29.2314051 4.41444455,29.0845716 4.83606648,29.3184564 C5.1800489,29.5430123 5.61445044,29.5777644 5.98975833,29.4107518 L11.7466807,21.3569338 L13.1541847,15.1060216 C13.3535831,12.7226167 13.8413462,10.3721972 14.6067877,8.10625845 Z" id="Path-25_3_6" fill="#676767"></path>
            </g>
            <g id="sleeves_thumbnails_5" transform="translate(1.000000, 261.000000)" fill-rule="nonzero">
                <path d="M17.5894035,3.34001755 C17.2714591,3.61572877 16.9028855,3.82691343 16.5042456,3.96178947 C15.5207544,4.33742105 14.5950526,4.87357895 13.5826667,5.14754386 C11.7977701,5.4411894 10.4913218,6.98905153 10.5016316,8.79791227 C10.4866491,9.10184213 10.4727369,9.39078947 10.4577544,9.69471927 C14.1307897,9.76684473 17.2392453,6.99703547 17.5894035,3.34001755 Z" id="Path_11-6" fill="#F4F4F4"></path>
                <path d="M31.5905088,9.6904386 C31.5616141,9.35761407 31.5327193,9.03977193 31.4888421,8.7069474 C31.4415073,6.9533136 30.1761196,5.47078566 28.4516842,5.14861403 C27.3954211,4.85966667 26.4697193,4.30959649 25.4284386,3.91898245 C25.0697652,3.78396223 24.7370603,3.58810439 24.4449474,3.34001755 C24.7845258,7.00738953 27.9086337,9.7838544 31.5905088,9.6904386 Z" id="Path_12-6" fill="#F4F4F4"></path>
                <path d="M11.8907193,28.8701228 C11.4030507,31.9315516 11.4963555,35.0574419 12.1657544,38.0843333 L20.1792281,38.0843333 C20.2370175,37.4475789 20.3097895,36.8118947 20.3675789,36.1751403 C20.4831579,35.0032983 20.3964737,33.8207544 20.3964737,32.6606842 C20.5609131,32.6019585 20.7303373,32.5582593 20.9026667,32.5301228 C21.0760351,32.8511755 21.3799649,33.1379825 21.4088597,33.470807 C21.5533333,35.0182807 21.6111228,36.5518421 21.7555965,38.0993158 L29.7979649,38.0993158 C30.4771497,35.0739535 30.5752049,31.9470784 30.0869123,28.8851053 C24.5856854,32.5902665 17.3858372,32.5843383 11.8907193,28.8701228 Z" id="Path_3-6" fill="#F4F4F4"></path>
                <path d="M30.0580175,28.8701228 C29.6945255,26.9724859 28.983398,25.158385 27.9604737,23.5192456 C26.2396316,20.7710351 27.9315789,18.1812105 28.322193,15.5196842 C28.3006519,13.2270619 27.8798455,10.9557211 27.0786491,8.80754387 C23.4040778,11.5476519 18.3545879,11.5060941 14.7256141,8.7058772 C13.9038954,10.8496847 13.4690857,13.1222898 13.4414035,15.4180175 C13.4414035,15.4030351 13.4563859,15.3741403 13.4563859,15.3602281 C13.8320175,16.2720175 13.9625789,17.1688245 14.2665088,18.0506491 C14.9691039,20.0919019 14.7418603,22.3385239 13.6447369,24.1977369 C12.8668311,25.581288 12.2861703,27.0667999 11.9196141,28.6111403 L11.8757369,28.871193 C17.3666342,32.588465 24.5675578,32.5880412 30.0580175,28.8701228 Z" id="Path_15-6" fill="#F4F4F4"></path>
                <path d="M31.0297369,32.8543859 C30.6694059,29.8269087 29.7629204,26.8898955 28.3542983,24.1859649 C25.9810415,24.7689423 23.5581811,25.1272476 21.1177719,25.2561403 C18.5942836,25.1952243 16.0864347,24.8411159 13.6447369,24.2009474 C12.9186547,25.5553906 12.2781485,26.9539959 11.7269825,28.3885439 C11.1507497,29.9672887 10.8415179,31.6309917 10.8119825,33.3113509 C16.2902105,37.0259298 25.5600702,36.5721755 31.0297369,32.8543859 Z" id="Path_49-6" fill="#F4F4F4"></path>
                <path d="M24.4310351,3.32610526 C23.8060567,2.72804073 23.5005231,1.86976894 23.607,1.01131579 C22.1375288,-0.362919779 19.844891,-0.330788829 18.4145088,1.08408772 C18.493516,1.92209823 18.1908394,2.75111759 17.5904737,3.34108772 C19.4903363,5.20943407 22.5393749,5.20275595 24.4310351,3.32610526 Z" id="Path_4-6" fill="#F4F4F4"></path>
                <path d="M10.4438421,9.6904386 C10.4204385,10.9168208 10.3092124,12.1399511 10.1110175,13.3504386 C9.60482453,15.9541755 8.83857893,18.5001228 8.29171927,21.0749649 C7.74164913,23.5920175 5.21068421,25.7901579 4.70449123,28.3072105 C4.55030361,28.8818028 4.27803972,29.4179477 3.90507017,29.8814386 C3.15594737,30.9516141 0.824035087,31.9500877 -5.10702591e-15,32.9763859 C0.0547346577,33.0596614 0.117846985,33.1371175 0.188350877,33.2075439 C0.709526313,32.9763859 1.24461403,32.7441579 1.75080702,32.5418947 C1.60633333,33.6698597 1.44687719,34.812807 1.31738597,35.9846491 C1.24461403,36.7080877 1.83856141,37.069807 2.48922807,36.9681403 C3.07674951,36.8950885 3.61189619,36.5936841 3.97891228,36.1291228 C4.72004013,34.8573314 5.23833346,33.4682184 5.51140351,32.0217895 C5.74256141,29.8525439 7.63784213,27.7111228 8.95415787,25.9324912 C10.4438421,23.9077193 11.9046316,22.3013859 12.3530351,20.4071755 C12.7575614,18.7580351 13.0903859,17.0896316 13.438193,15.4308597 C13.4512753,12.9263038 13.9730125,10.4505093 14.9717544,8.15366667 C13.6645526,9.13491947 12.0782655,9.6733048 10.4438421,9.6904386 Z" id="Path_7-6" fill="#D6D4D4"></path>
                <path d="M38.2159649,32.7323859 C38.7225146,32.9207369 39.2433333,33.108731 39.7784211,33.2963684 C39.1234573,32.1838222 38.3888244,31.1201425 37.5802807,30.1136667 C37.2616373,29.7493677 37.0160305,29.3271857 36.8568421,28.8701228 C35.9022456,24.7328245 33.2696141,20.843807 32.4691228,16.6765439 C32.0357017,14.3767369 31.8034737,12.0330526 31.5872983,9.70435087 C29.7651075,9.7030544 28.0065483,9.0341242 26.6441579,7.8240526 C27.768004,10.2333559 28.3457511,12.8611735 28.3361053,15.5196842 C28.3361053,15.475807 28.3510877,15.4469123 28.3510877,15.4041053 C28.5505495,15.8794296 28.7008014,16.373934 28.7994912,16.8798772 C29.8878507,20.9012106 31.5401966,24.7481573 33.7073158,28.3061403 C34.0613737,29.1768834 34.2146387,30.1162256 34.1557193,31.0543509 C34.238988,32.9647497 34.8775509,34.8094043 35.9932105,36.3624211 C36.4697341,36.8098163 37.1046409,37.049302 37.7579298,37.0280702 C38.6397544,37.0130877 38.6397544,36.2789474 38.5680526,35.6678772 C38.4760175,34.6415789 38.3315439,33.6441755 38.2159649,32.7323859 Z" id="Path_8-6" fill="#D6D4D4"></path>
                <path d="M27.0925614,8.80754387 C26.9480877,8.44582453 26.7886316,8.113 26.6441579,7.8240526 C25.3482627,6.68399707 24.5576985,5.07631145 24.4460175,3.35392983 L24.4310351,3.33894737 C22.5380153,5.21912353 19.4824233,5.21912353 17.5894035,3.33894737 L17.5744211,3.35392983 C17.4477957,5.25727076 16.4973941,7.0107462 14.9717544,8.155807 C14.8784009,8.33866147 14.7962037,8.52700013 14.7256141,8.71978947 C18.3654653,11.5084071 23.4135033,11.5442274 27.0925614,8.80754387 Z" id="Path_9-6" fill="#F4F4F4"></path>
                <path d="M26.8710351,8.11835087 C28.2514935,9.08374353 29.8708479,9.6509248 31.5519825,9.75785967 C31.8644697,12.6597856 32.3407441,15.5417276 32.9785263,18.3898947 C33.3969649,20.0229825 39.5301403,28.0161228 39.8437017,29.5807193 C38.7346022,30.4108711 37.5121365,31.077605 36.2136667,31.5605439 C35.5576491,31.6878947 33.1208597,32.5333333 32.5290526,32.3856491 L29.9606316,20.7207369 L28.4067369,15.4008947 C28.1798567,12.9219083 27.6644707,10.4778653 26.8710351,8.11835087 Z" id="Path-25_3_7" fill="#676767"></path>
                <path d="M14.9043333,8.27138593 C13.6019463,9.1882902 12.0603246,9.70526347 10.4684561,9.7589298 C10.1211903,12.6022771 9.6192474,15.4245895 8.96485967,18.2133158 C8.54642107,19.8464035 1.35484211,28.6218421 1.04556141,30.1864386 C1.93125801,30.8561952 2.8692414,31.453842 3.85049123,31.9736316 C5.03593834,32.5024827 6.29889922,32.8367427 7.5907544,32.9635439 L11.9934561,21.7919825 L13.4296316,15.4137369 C13.6306652,12.9820928 14.1258473,10.5838017 14.9043333,8.27138593 Z" id="Path-25_3_8" fill="#676767"></path>
            </g>
        </g>
    </g>
</svg>