<?xml version="1.0" encoding="UTF-8" standalone="no"?>
<svg width="453px" height="58px" viewBox="0 0 453 58" version="1.1" xmlns="http://www.w3.org/2000/svg" xmlns:xlink="http://www.w3.org/1999/xlink">
    <!-- Generator: Sketch 50.2 (55047) - http://www.bohemiancoding.com/sketch -->
    <title>sleeve_thumbnails</title>
    <desc>Created with Sketch.</desc>
    <defs></defs>
    <g id="BodyParts-Thumbnail-Final" stroke="none" stroke-width="1" fill="none" fill-rule="evenodd">
        <g id="sleeves_thumbnails">
            <text id="ALL" fill-opacity="0.775334013" fill="#686868" font-family="CenturyGothic-Bold, Century Gothic, Arial" font-size="20" font-weight="bold">
                <tspan x="421" y="37">ALL</tspan>
            </text>
            <g id="sleeve_thumbnails_0" fill-rule="nonzero">
                <path d="M17.8360789,43.3051842 C17.1045761,47.8973274 17.2445332,52.5861628 18.2486316,57.1265 L30.2688421,57.1265 C30.3555263,56.1713684 30.4646842,55.2178421 30.5513684,54.2627105 C30.7247368,52.5049474 30.5947105,50.7311316 30.5947105,48.9910263 C30.8413697,48.9029377 31.095506,48.8373889 31.354,48.7951842 C31.6140526,49.2767632 32.0699474,49.7069737 32.1132895,50.2062105 C32.33,52.5274211 32.4166842,54.8277632 32.6333947,57.1489737 L44.6969474,57.1489737 C45.7157245,52.6109302 45.8628074,47.9206176 45.1303684,43.3276579 C36.8785281,48.8853998 26.0787558,48.8765074 17.8360789,43.3051842 Z" id="Path_3" fill="#F4F4F4"></path>
                <path d="M45.0870263,43.3051842 C44.5417883,40.4587289 43.475097,37.7375775 41.9407105,35.2788684 C39.3594474,31.1565526 41.8973684,27.2718158 42.4832895,23.2795263 C42.4509779,19.8405928 41.8197682,16.4335817 40.6179737,13.2113158 C35.1061167,17.3214778 27.5318819,17.2591412 22.0884211,13.0588158 C20.8558431,16.274527 20.2036286,19.6834347 20.1621053,23.1270263 C20.1621053,23.1045526 20.1845789,23.0612105 20.1845789,23.0403421 C20.7480263,24.4080263 20.9438684,25.7532368 21.3997632,27.0759737 C22.4536559,30.1378528 22.1127904,33.5077858 20.4671053,36.2966053 C19.3002467,38.371932 18.4292555,40.6001998 17.8794211,42.9167105 L17.8136053,43.3067895 C26.0499513,48.8826975 36.8513367,48.8820618 45.0870263,43.3051842 Z" id="Path_15" fill="#F4F4F4"></path>
                <path d="M46.5446053,49.2815789 C46.0041089,44.7403631 44.6443806,40.3348432 42.5314474,36.2789474 C38.9715623,37.1534134 35.3372716,37.6908714 31.6766579,37.8842105 C27.8914254,37.7928364 24.129652,37.2616738 20.4671053,36.3014211 C19.377982,38.3330859 18.4172227,40.4309939 17.5904737,42.5828158 C16.7261245,44.950933 16.2622769,47.4464875 16.2179737,49.9670263 C24.4353158,55.5388947 38.3401053,54.8582632 46.5446053,49.2815789 Z" id="Path_49" fill="#F4F4F4"></path>
                <path d="M36.6465526,4.98915789 C35.7090851,4.0920611 35.2507846,2.80465341 35.4105,1.51697368 C33.2062932,-0.544379668 29.7673365,-0.496183243 27.6217632,1.62613158 C27.740274,2.88314735 27.2862591,4.12667638 26.3857105,5.01163158 C29.2355044,7.8141511 33.8090624,7.80413392 36.6465526,4.98915789 Z" id="Path_4" fill="#F4F4F4"></path>
                <path d="M15.6657632,14.5356579 C15.6306578,16.3752312 15.4638186,18.2099267 15.1665263,20.0256579 C14.4072368,23.9312632 13.2578684,27.7501842 12.4375789,31.6124474 C11.6124737,35.3880263 7.81602632,38.6852368 7.05673684,42.4608158 C6.82545542,43.3227042 6.41705958,44.1269215 5.85760526,44.8221579 C4.73392105,46.4274211 1.23605263,47.9251316 0,49.4645789 C0.0821019865,49.5894921 0.176770478,49.7056762 0.282526316,49.8113158 C1.06428947,49.4645789 1.86692105,49.1162368 2.62621053,48.8128421 C2.4095,50.5047895 2.17031579,52.2192105 1.97607895,53.9769737 C1.86692105,55.0621316 2.75784211,55.6047105 3.73384211,55.4522105 C4.61512426,55.3426328 5.41784429,54.8905262 5.96836842,54.1936842 C7.0800602,52.2859971 7.85750019,50.2023276 8.26710526,48.0326842 C8.61384211,44.7788158 11.4567632,41.5666842 13.4312368,38.8987368 C15.6657632,35.8615789 17.8569474,33.4520789 18.5295526,30.6107632 C19.1363421,28.1370526 19.6355789,25.6344474 20.1572895,23.1462895 C20.1769129,19.3894557 20.9595188,15.6757639 22.4576316,12.2305 C20.4968289,13.7023792 18.1173983,14.5099572 15.6657632,14.5356579 Z" id="Path_7" fill="#D6D4D4"></path>
                <path d="M57.3239474,49.0985789 C58.0837719,49.3811053 58.865,49.6630965 59.6676316,49.9445526 C58.6851859,48.2757333 57.5832366,46.6802138 56.3704211,45.1705 C55.8924559,44.6240515 55.5240458,43.9907785 55.2852632,43.3051842 C53.8533684,37.0992368 49.9044211,31.2657105 48.7036842,25.0148158 C48.0535526,21.5651053 47.7052105,18.0495789 47.3809474,14.5565263 C44.6476613,14.5545816 42.0098224,13.5511863 39.9662368,11.7360789 C41.652006,15.3500338 42.5186267,19.2917603 42.5041579,23.2795263 C42.5041579,23.2137105 42.5266316,23.1703684 42.5266316,23.1061579 C42.8258242,23.8191444 43.0512021,24.560901 43.1992368,25.3198158 C44.831776,31.3518159 47.3102949,37.122236 50.5609737,42.4592105 C51.0920606,43.7653251 51.321958,45.1743384 51.2335789,46.5815263 C51.358482,49.4471245 52.3163264,52.2141065 53.9898158,54.5436316 C54.7046012,55.2147244 55.6569614,55.573953 56.6368947,55.5421053 C57.9596316,55.5196316 57.9596316,54.4184211 57.8520789,53.5018158 C57.7140263,51.9623684 57.4973158,50.4662632 57.3239474,49.0985789 Z" id="Path_8" fill="#D6D4D4"></path>
                <path d="M26.3841053,5.01002632 C25.9071886,5.42359316 25.3543283,5.74037014 24.7563684,5.94268421 C23.2811316,6.50613158 21.8925789,7.31036842 20.374,7.72131579 C17.6966551,8.1617841 15.7369827,10.4835773 15.7524474,13.1968684 C15.7299737,13.6527632 15.7091053,14.0861842 15.6866316,14.5420789 C21.1961846,14.6502671 25.858868,10.4955532 26.3841053,5.01002632 Z" id="Path_11" fill="#F4F4F4"></path>
                <path d="M47.3857632,14.5356579 C47.3424211,14.0364211 47.2990789,13.5596579 47.2332632,13.0604211 C47.162261,10.4299704 45.2641794,8.20617849 42.6775263,7.72292105 C41.0931316,7.2895 39.7045789,6.46439474 38.1426579,5.87847368 C37.6046478,5.67594335 37.1055905,5.38215659 36.6674211,5.01002632 C37.1767887,10.5110843 41.8629505,14.6757816 47.3857632,14.5356579 Z" id="Path_12" fill="#F4F4F4"></path>
                <path d="M40.6388421,13.2113158 C40.4221316,12.6687368 40.1829474,12.1695 39.9662368,11.7360789 C38.022394,10.0259956 36.8365478,7.61446717 36.6690263,5.03089474 L36.6465526,5.00842105 C33.8070229,7.8286853 29.223635,7.8286853 26.3841053,5.00842105 L26.3616316,5.03089474 C26.1716935,7.88590614 24.7460911,10.5161193 22.4576316,12.2337105 C22.3176013,12.5079922 22.1943056,12.7905002 22.0884211,13.0796842 C27.548198,17.2626106 35.1202549,17.3163411 40.6388421,13.2113158 Z" id="Path_9" fill="#F4F4F4"></path>
            </g>
            <g id="sleeve_thumbnails_1" transform="translate(68.000000, 0.000000)" fill-rule="nonzero">
                <path d="M17.8360789,43.3051842 C17.1045761,47.8973274 17.2445332,52.5861628 18.2486316,57.1265 L30.2688421,57.1265 C30.3555263,56.1713684 30.4646842,55.2178421 30.5513684,54.2627105 C30.7247368,52.5049474 30.5947105,50.7311316 30.5947105,48.9910263 C30.8413697,48.9029377 31.095506,48.8373889 31.354,48.7951842 C31.6140526,49.2767632 32.0699474,49.7069737 32.1132895,50.2062105 C32.33,52.5274211 32.4166842,54.8277632 32.6333947,57.1489737 L44.6969474,57.1489737 C45.7157245,52.6109302 45.8628074,47.9206176 45.1303684,43.3276579 C36.8785281,48.8853998 26.0787558,48.8765074 17.8360789,43.3051842 Z" id="Path_3-3" fill="#F4F4F4"></path>
                <path d="M45.0870263,43.3051842 C44.5417883,40.4587289 43.475097,37.7375775 41.9407105,35.2788684 C39.3594474,31.1565526 41.8973684,27.2718158 42.4832895,23.2795263 C42.4509779,19.8405928 41.8197682,16.4335817 40.6179737,13.2113158 C35.1061167,17.3214778 27.5318819,17.2591412 22.0884211,13.0588158 C20.8558431,16.274527 20.2036286,19.6834347 20.1621053,23.1270263 C20.1621053,23.1045526 20.1845789,23.0612105 20.1845789,23.0403421 C20.7480263,24.4080263 20.9438684,25.7532368 21.3997632,27.0759737 C22.4536559,30.1378528 22.1127904,33.5077858 20.4671053,36.2966053 C19.3002467,38.371932 18.4292555,40.6001998 17.8794211,42.9167105 L17.8136053,43.3067895 C26.0499513,48.8826975 36.8513367,48.8820618 45.0870263,43.3051842 Z" id="Path_15-3" fill="#F4F4F4"></path>
                <path d="M46.5446053,49.2815789 C46.0041089,44.7403631 44.6443806,40.3348432 42.5314474,36.2789474 C38.9715623,37.1534134 35.3372716,37.6908714 31.6766579,37.8842105 C27.8914254,37.7928364 24.129652,37.2616738 20.4671053,36.3014211 C19.377982,38.3330859 18.4172227,40.4309939 17.5904737,42.5828158 C16.7261245,44.950933 16.2622769,47.4464875 16.2179737,49.9670263 C24.4353158,55.5388947 38.3401053,54.8582632 46.5446053,49.2815789 Z" id="Path_49-3" fill="#F4F4F4"></path>
                <path d="M36.6465526,4.98915789 C35.7090851,4.0920611 35.2507846,2.80465341 35.4105,1.51697368 C33.2062932,-0.544379668 29.7673365,-0.496183243 27.6217632,1.62613158 C27.740274,2.88314735 27.2862591,4.12667638 26.3857105,5.01163158 C29.2355044,7.8141511 33.8090624,7.80413392 36.6465526,4.98915789 Z" id="Path_4-3" fill="#F4F4F4"></path>
                <path d="M15.6657632,14.5356579 C15.6306578,16.3752312 15.4638186,18.2099267 15.1665263,20.0256579 C14.4072368,23.9312632 13.2578684,27.7501842 12.4375789,31.6124474 C11.6124737,35.3880263 7.81602632,38.6852368 7.05673684,42.4608158 C6.82545542,43.3227042 6.41705958,44.1269215 5.85760526,44.8221579 C4.73392105,46.4274211 1.23605263,47.9251316 0,49.4645789 C0.0821019865,49.5894921 0.176770478,49.7056762 0.282526316,49.8113158 C1.06428947,49.4645789 1.86692105,49.1162368 2.62621053,48.8128421 C2.4095,50.5047895 2.17031579,52.2192105 1.97607895,53.9769737 C1.86692105,55.0621316 2.75784211,55.6047105 3.73384211,55.4522105 C4.61512426,55.3426328 5.41784429,54.8905262 5.96836842,54.1936842 C7.0800602,52.2859971 7.85750019,50.2023276 8.26710526,48.0326842 C8.61384211,44.7788158 11.4567632,41.5666842 13.4312368,38.8987368 C15.6657632,35.8615789 17.8569474,33.4520789 18.5295526,30.6107632 C19.1363421,28.1370526 19.6355789,25.6344474 20.1572895,23.1462895 C20.1769129,19.3894557 20.9595188,15.6757639 22.4576316,12.2305 C20.4968289,13.7023792 18.1173983,14.5099572 15.6657632,14.5356579 Z" id="Path_7-3" fill="#D6D4D4"></path>
                <path d="M57.3239474,49.0985789 C58.0837719,49.3811053 58.865,49.6630965 59.6676316,49.9445526 C58.6851859,48.2757333 57.5832366,46.6802138 56.3704211,45.1705 C55.8924559,44.6240515 55.5240458,43.9907785 55.2852632,43.3051842 C53.8533684,37.0992368 49.9044211,31.2657105 48.7036842,25.0148158 C48.0535526,21.5651053 47.7052105,18.0495789 47.3809474,14.5565263 C44.6476613,14.5545816 42.0098224,13.5511863 39.9662368,11.7360789 C41.652006,15.3500338 42.5186267,19.2917603 42.5041579,23.2795263 C42.5041579,23.2137105 42.5266316,23.1703684 42.5266316,23.1061579 C42.8258242,23.8191444 43.0512021,24.560901 43.1992368,25.3198158 C44.831776,31.3518159 47.3102949,37.122236 50.5609737,42.4592105 C51.0920606,43.7653251 51.321958,45.1743384 51.2335789,46.5815263 C51.358482,49.4471245 52.3163264,52.2141065 53.9898158,54.5436316 C54.7046012,55.2147244 55.6569614,55.573953 56.6368947,55.5421053 C57.9596316,55.5196316 57.9596316,54.4184211 57.8520789,53.5018158 C57.7140263,51.9623684 57.4973158,50.4662632 57.3239474,49.0985789 Z" id="Path_8-3" fill="#D6D4D4"></path>
                <path d="M26.3841053,5.01002632 C25.9071886,5.42359316 25.3543283,5.74037014 24.7563684,5.94268421 C23.2811316,6.50613158 21.8925789,7.31036842 20.374,7.72131579 C17.6966551,8.1617841 15.7369827,10.4835773 15.7524474,13.1968684 C15.7299737,13.6527632 15.7091053,14.0861842 15.6866316,14.5420789 C21.1961846,14.6502671 25.858868,10.4955532 26.3841053,5.01002632 Z" id="Path_11-3" fill="#F4F4F4"></path>
                <path d="M47.3857632,14.5356579 C47.3424211,14.0364211 47.2990789,13.5596579 47.2332632,13.0604211 C47.162261,10.4299704 45.2641794,8.20617849 42.6775263,7.72292105 C41.0931316,7.2895 39.7045789,6.46439474 38.1426579,5.87847368 C37.6046478,5.67594335 37.1055905,5.38215659 36.6674211,5.01002632 C37.1767887,10.5110843 41.8629505,14.6757816 47.3857632,14.5356579 Z" id="Path_12-3" fill="#F4F4F4"></path>
                <path d="M40.6388421,13.2113158 C40.4221316,12.6687368 40.1829474,12.1695 39.9662368,11.7360789 C38.022394,10.0259956 36.8365478,7.61446717 36.6690263,5.03089474 L36.6465526,5.00842105 C33.8070229,7.8286853 29.223635,7.8286853 26.3841053,5.00842105 L26.3616316,5.03089474 C26.1716935,7.88590614 24.7460911,10.5161193 22.4576316,12.2337105 C22.3176013,12.5079922 22.1943056,12.7905002 22.0884211,13.0796842 C27.548198,17.2626106 35.1202549,17.3163411 40.6388421,13.2113158 Z" id="Path_9-3" fill="#F4F4F4"></path>
                <path d="M21.2681316,15.7075 L20.5184737,19.3755263 C19.6282298,19.724513 18.6761925,19.8883749 17.7205,19.8571053 C16.9387368,19.7142368 15.4442368,19.4301053 15.4731316,18.6948947 C15.4972105,17.0109737 15.6689737,15.3527368 15.7171316,14.5468947 C18.0268398,14.4939252 20.2786274,13.8136168 22.2312895,12.5788421 L21.2681316,15.7075 Z" id="Path-4-Copy_1_" fill="#676767"></path>
                <path d="M41.5249474,15.8455526 L42.3083158,19.6773158 C43.2383775,20.0393739 44.2324533,20.2081484 45.2298947,20.1733421 C46.0469737,20.0240526 47.7983158,19.7415263 47.7758421,18.9726053 C47.7517632,17.2068158 47.3777368,15.4699211 47.3279737,14.6271579 C45.0966579,14.457 43.9472895,14.0492632 40.3306316,12.1630789 L41.5249474,15.8455526 Z" id="Path-4-Copy_1_2" fill="#676767"></path>
            </g>
            <g id="sleeve_thumbnails_2" transform="translate(135.000000, 0.000000)" fill-rule="nonzero">
                <path d="M15.6657632,14.5356579 C15.6306578,16.3752312 15.4638186,18.2099267 15.1665263,20.0256579 C14.4072368,23.9312632 13.2578684,27.7501842 12.4375789,31.6124474 C11.6124737,35.3880263 7.81602632,38.6852368 7.05673684,42.4608158 C6.82545542,43.3227042 6.41705958,44.1269215 5.85760526,44.8221579 C4.73392105,46.4274211 1.23605263,47.9251316 0,49.4645789 C0.0821019865,49.5894921 0.176770478,49.7056762 0.282526316,49.8113158 C1.06428947,49.4645789 1.86692105,49.1162368 2.62621053,48.8128421 C2.4095,50.5047895 2.17031579,52.2192105 1.97607895,53.9769737 C1.86692105,55.0621316 2.75784211,55.6047105 3.73384211,55.4522105 C4.61512426,55.3426328 5.41784429,54.8905262 5.96836842,54.1936842 C7.0800602,52.2859971 7.85750019,50.2023276 8.26710526,48.0326842 C8.61384211,44.7788158 11.4567632,41.5666842 13.4312368,38.8987368 C15.6657632,35.8615789 17.8569474,33.4520789 18.5295526,30.6107632 C19.1363421,28.1370526 19.6355789,25.6344474 20.1572895,23.1462895 C20.1769129,19.3894557 20.9595188,15.6757639 22.4576316,12.2305 C20.4968289,13.7023792 18.1173983,14.5099572 15.6657632,14.5356579 Z" id="Path_7-4" fill="#D6D4D4"></path>
                <path d="M57.3239474,49.0985789 C58.0837719,49.3811053 58.865,49.6630965 59.6676316,49.9445526 C58.6851859,48.2757333 57.5832366,46.6802138 56.3704211,45.1705 C55.8924559,44.6240515 55.5240458,43.9907785 55.2852632,43.3051842 C53.8533684,37.0992368 49.9044211,31.2657105 48.7036842,25.0148158 C48.0535526,21.5651053 47.7052105,18.0495789 47.3809474,14.5565263 C44.6476613,14.5545816 42.0098224,13.5511863 39.9662368,11.7360789 C41.652006,15.3500338 42.5186267,19.2917603 42.5041579,23.2795263 C42.5041579,23.2137105 42.5266316,23.1703684 42.5266316,23.1061579 C42.8258242,23.8191444 43.0512021,24.560901 43.1992368,25.3198158 C44.831776,31.3518159 47.3102949,37.122236 50.5609737,42.4592105 C51.0920606,43.7653251 51.321958,45.1743384 51.2335789,46.5815263 C51.358482,49.4471245 52.3163264,52.2141065 53.9898158,54.5436316 C54.7046012,55.2147244 55.6569614,55.573953 56.6368947,55.5421053 C57.9596316,55.5196316 57.9596316,54.4184211 57.8520789,53.5018158 C57.7140263,51.9623684 57.4973158,50.4662632 57.3239474,49.0985789 Z" id="Path_8-4" fill="#D6D4D4"></path>
                <path d="M26.3841053,5.01002632 C25.9071886,5.42359316 25.3543283,5.74037014 24.7563684,5.94268421 C23.2811316,6.50613158 21.8925789,7.31036842 20.374,7.72131579 C17.6966551,8.1617841 15.7369827,10.4835773 15.7524474,13.1968684 C15.7299737,13.6527632 15.7091053,14.0861842 15.6866316,14.5420789 C21.1961846,14.6502671 25.858868,10.4955532 26.3841053,5.01002632 Z" id="Path_11-4" fill="#F4F4F4"></path>
                <path d="M47.3857632,14.5356579 C47.3424211,14.0364211 47.2990789,13.5596579 47.2332632,13.0604211 C47.162261,10.4299704 45.2641794,8.20617849 42.6775263,7.72292105 C41.0931316,7.2895 39.7045789,6.46439474 38.1426579,5.87847368 C37.6046478,5.67594335 37.1055905,5.38215659 36.6674211,5.01002632 C37.1767887,10.5110843 41.8629505,14.6757816 47.3857632,14.5356579 Z" id="Path_12-4" fill="#F4F4F4"></path>
                <path d="M17.8360789,43.3051842 C17.1045761,47.8973274 17.2445332,52.5861628 18.2486316,57.1265 L30.2688421,57.1265 C30.3555263,56.1713684 30.4646842,55.2178421 30.5513684,54.2627105 C30.7247368,52.5049474 30.5947105,50.7311316 30.5947105,48.9910263 C30.8413697,48.9029377 31.095506,48.8373889 31.354,48.7951842 C31.6140526,49.2767632 32.0699474,49.7069737 32.1132895,50.2062105 C32.33,52.5274211 32.4166842,54.8277632 32.6333947,57.1489737 L44.6969474,57.1489737 C45.7157245,52.6109302 45.8628074,47.9206176 45.1303684,43.3276579 C36.8785281,48.8853998 26.0787558,48.8765074 17.8360789,43.3051842 Z" id="Path_3-4" fill="#F4F4F4"></path>
                <path d="M45.0870263,43.3051842 C44.5417883,40.4587289 43.475097,37.7375775 41.9407105,35.2788684 C39.3594474,31.1565526 41.8973684,27.2718158 42.4832895,23.2795263 C42.4509779,19.8405928 41.8197682,16.4335817 40.6179737,13.2113158 C35.1061167,17.3214778 27.5318819,17.2591412 22.0884211,13.0588158 C20.8558431,16.274527 20.2036286,19.6834347 20.1621053,23.1270263 C20.1621053,23.1045526 20.1845789,23.0612105 20.1845789,23.0403421 C20.7480263,24.4080263 20.9438684,25.7532368 21.3997632,27.0759737 C22.4536559,30.1378528 22.1127904,33.5077858 20.4671053,36.2966053 C19.3002467,38.371932 18.4292555,40.6001998 17.8794211,42.9167105 L17.8136053,43.3067895 C26.0499513,48.8826975 36.8513367,48.8820618 45.0870263,43.3051842 Z" id="Path_15-4" fill="#F4F4F4"></path>
                <path d="M46.5446053,49.2815789 C46.0041089,44.7403631 44.6443806,40.3348432 42.5314474,36.2789474 C38.9715623,37.1534134 35.3372716,37.6908714 31.6766579,37.8842105 C27.8914254,37.7928364 24.129652,37.2616738 20.4671053,36.3014211 C19.377982,38.3330859 18.4172227,40.4309939 17.5904737,42.5828158 C16.7261245,44.950933 16.2622769,47.4464875 16.2179737,49.9670263 C24.4353158,55.5388947 38.3401053,54.8582632 46.5446053,49.2815789 Z" id="Path_49-4" fill="#F4F4F4"></path>
                <path d="M36.6465526,4.98915789 C35.7090851,4.0920611 35.2507846,2.80465341 35.4105,1.51697368 C33.2062932,-0.544379668 29.7673365,-0.496183243 27.6217632,1.62613158 C27.740274,2.88314735 27.2862591,4.12667638 26.3857105,5.01163158 C29.2355044,7.8141511 33.8090624,7.80413392 36.6465526,4.98915789 Z" id="Path_4-4" fill="#F4F4F4"></path>
                <path d="M40.6388421,13.2113158 C40.4221316,12.6687368 40.1829474,12.1695 39.9662368,11.7360789 C38.022394,10.0259956 36.8365478,7.61446717 36.6690263,5.03089474 L36.6465526,5.00842105 C33.8070229,7.8286853 29.223635,7.8286853 26.3841053,5.00842105 L26.3616316,5.03089474 C26.1716935,7.88590614 24.7460911,10.5161193 22.4576316,12.2337105 C22.3176013,12.5079922 22.1943056,12.7905002 22.0884211,13.0796842 C27.548198,17.2626106 35.1202549,17.3163411 40.6388421,13.2113158 Z" id="Path_9-4" fill="#F4F4F4"></path>
                <path d="M22.2489474,12.5290789 C20.338762,13.8531035 18.074924,14.5728563 15.7508421,14.5950526 C15.3988402,18.6699688 14.6947112,22.7067602 13.6463421,26.6602105 C14.5526278,27.5405442 15.7334625,28.0833656 16.9917105,28.1980526 C17.8096136,28.2576731 18.6198281,28.0059504 19.2599474,27.4933421 L20.0978947,23.1013421 C20.3705022,19.5012404 21.093149,15.949485 22.2489474,12.5290789 Z" id="Path-25_3_3" fill="#676767"></path>
                <path d="M40.3065526,12.1775263 C42.3772403,13.6256153 44.8062718,14.4763872 47.3279737,14.6367895 C47.9476053,18.8987632 47.7036053,19.8940263 49.0616579,26.6586053 C48.1553722,27.538939 46.9745375,28.0817603 45.7162895,28.1964474 C44.9731763,28.2793084 44.2294169,28.0463376 43.6663684,27.5543421 L42.6101053,23.1013421 C42.269785,19.3828625 41.496706,15.7167979 40.3065526,12.1775263 Z" id="Path-25_3_4" fill="#676767"></path>
            </g>
            <g id="sleeve_thumbnails_3" transform="translate(203.000000, 0.000000)" fill-rule="nonzero">
                <path d="M17.8360789,43.3051842 C17.1045761,47.8973274 17.2445332,52.5861628 18.2486316,57.1265 L30.2688421,57.1265 C30.3555263,56.1713684 30.4646842,55.2178421 30.5513684,54.2627105 C30.7247368,52.5049474 30.5947105,50.7311316 30.5947105,48.9910263 C30.8413697,48.9029377 31.095506,48.8373889 31.354,48.7951842 C31.6140526,49.2767632 32.0699474,49.7069737 32.1132895,50.2062105 C32.33,52.5274211 32.4166842,54.8277632 32.6333947,57.1489737 L44.6969474,57.1489737 C45.7157245,52.6109302 45.8628074,47.9206176 45.1303684,43.3276579 C36.8785281,48.8853998 26.0787558,48.8765074 17.8360789,43.3051842 Z" id="Path_3-2" fill="#F4F4F4"></path>
                <path d="M45.0870263,43.3051842 C44.5417883,40.4587289 43.475097,37.7375775 41.9407105,35.2788684 C39.3594474,31.1565526 41.8973684,27.2718158 42.4832895,23.2795263 C42.4509779,19.8405928 41.8197682,16.4335817 40.6179737,13.2113158 C35.1061167,17.3214778 27.5318819,17.2591412 22.0884211,13.0588158 C20.8558431,16.274527 20.2036286,19.6834347 20.1621053,23.1270263 C20.1621053,23.1045526 20.1845789,23.0612105 20.1845789,23.0403421 C20.7480263,24.4080263 20.9438684,25.7532368 21.3997632,27.0759737 C22.4536559,30.1378528 22.1127904,33.5077858 20.4671053,36.2966053 C19.3002467,38.371932 18.4292555,40.6001998 17.8794211,42.9167105 L17.8136053,43.3067895 C26.0499513,48.8826975 36.8513367,48.8820618 45.0870263,43.3051842 Z" id="Path_15-2" fill="#F4F4F4"></path>
                <path d="M46.5446053,49.2815789 C46.0041089,44.7403631 44.6443806,40.3348432 42.5314474,36.2789474 C38.9715623,37.1534134 35.3372716,37.6908714 31.6766579,37.8842105 C27.8914254,37.7928364 24.129652,37.2616738 20.4671053,36.3014211 C19.377982,38.3330859 18.4172227,40.4309939 17.5904737,42.5828158 C16.7261245,44.950933 16.2622769,47.4464875 16.2179737,49.9670263 C24.4353158,55.5388947 38.3401053,54.8582632 46.5446053,49.2815789 Z" id="Path_49-2" fill="#F4F4F4"></path>
                <path d="M36.6465526,4.98915789 C35.7090851,4.0920611 35.2507846,2.80465341 35.4105,1.51697368 C33.2062932,-0.544379668 29.7673365,-0.496183243 27.6217632,1.62613158 C27.740274,2.88314735 27.2862591,4.12667638 26.3857105,5.01163158 C29.2355044,7.8141511 33.8090624,7.80413392 36.6465526,4.98915789 Z" id="Path_4-2" fill="#F4F4F4"></path>
                <path d="M15.6657632,14.5356579 C15.6306578,16.3752312 15.4638186,18.2099267 15.1665263,20.0256579 C14.4072368,23.9312632 13.2578684,27.7501842 12.4375789,31.6124474 C11.6124737,35.3880263 7.81602632,38.6852368 7.05673684,42.4608158 C6.82545542,43.3227042 6.41705958,44.1269215 5.85760526,44.8221579 C4.73392105,46.4274211 1.23605263,47.9251316 0,49.4645789 C0.0821019865,49.5894921 0.176770478,49.7056762 0.282526316,49.8113158 C1.06428947,49.4645789 1.86692105,49.1162368 2.62621053,48.8128421 C2.4095,50.5047895 2.17031579,52.2192105 1.97607895,53.9769737 C1.86692105,55.0621316 2.75784211,55.6047105 3.73384211,55.4522105 C4.61512426,55.3426328 5.41784429,54.8905262 5.96836842,54.1936842 C7.0800602,52.2859971 7.85750019,50.2023276 8.26710526,48.0326842 C8.61384211,44.7788158 11.4567632,41.5666842 13.4312368,38.8987368 C15.6657632,35.8615789 17.8569474,33.4520789 18.5295526,30.6107632 C19.1363421,28.1370526 19.6355789,25.6344474 20.1572895,23.1462895 C20.1769129,19.3894557 20.9595188,15.6757639 22.4576316,12.2305 C20.4968289,13.7023792 18.1173983,14.5099572 15.6657632,14.5356579 Z" id="Path_7-2" fill="#D6D4D4"></path>
                <path d="M57.3239474,49.0985789 C58.0837719,49.3811053 58.865,49.6630965 59.6676316,49.9445526 C58.6851859,48.2757333 57.5832366,46.6802138 56.3704211,45.1705 C55.8924559,44.6240515 55.5240458,43.9907785 55.2852632,43.3051842 C53.8533684,37.0992368 49.9044211,31.2657105 48.7036842,25.0148158 C48.0535526,21.5651053 47.7052105,18.0495789 47.3809474,14.5565263 C44.6476613,14.5545816 42.0098224,13.5511863 39.9662368,11.7360789 C41.652006,15.3500338 42.5186267,19.2917603 42.5041579,23.2795263 C42.5041579,23.2137105 42.5266316,23.1703684 42.5266316,23.1061579 C42.8258242,23.8191444 43.0512021,24.560901 43.1992368,25.3198158 C44.831776,31.3518159 47.3102949,37.122236 50.5609737,42.4592105 C51.0920606,43.7653251 51.321958,45.1743384 51.2335789,46.5815263 C51.358482,49.4471245 52.3163264,52.2141065 53.9898158,54.5436316 C54.7046012,55.2147244 55.6569614,55.573953 56.6368947,55.5421053 C57.9596316,55.5196316 57.9596316,54.4184211 57.8520789,53.5018158 C57.7140263,51.9623684 57.4973158,50.4662632 57.3239474,49.0985789 Z" id="Path_8-2" fill="#D6D4D4"></path>
                <path d="M26.3841053,5.01002632 C25.9071886,5.42359316 25.3543283,5.74037014 24.7563684,5.94268421 C23.2811316,6.50613158 21.8925789,7.31036842 20.374,7.72131579 C17.6966551,8.1617841 15.7369827,10.4835773 15.7524474,13.1968684 C15.7299737,13.6527632 15.7091053,14.0861842 15.6866316,14.5420789 C21.1961846,14.6502671 25.858868,10.4955532 26.3841053,5.01002632 Z" id="Path_11-2" fill="#F4F4F4"></path>
                <path d="M47.3857632,14.5356579 C47.3424211,14.0364211 47.2990789,13.5596579 47.2332632,13.0604211 C47.162261,10.4299704 45.2641794,8.20617849 42.6775263,7.72292105 C41.0931316,7.2895 39.7045789,6.46439474 38.1426579,5.87847368 C37.6046478,5.67594335 37.1055905,5.38215659 36.6674211,5.01002632 C37.1767887,10.5110843 41.8629505,14.6757816 47.3857632,14.5356579 Z" id="Path_12-2" fill="#F4F4F4"></path>
                <path d="M40.6388421,13.2113158 C40.4221316,12.6687368 40.1829474,12.1695 39.9662368,11.7360789 C38.022394,10.0259956 36.8365478,7.61446717 36.6690263,5.03089474 L36.6465526,5.00842105 C33.8070229,7.8286853 29.223635,7.8286853 26.3841053,5.00842105 L26.3616316,5.03089474 C26.1716935,7.88590614 24.7460911,10.5161193 22.4576316,12.2337105 C22.3176013,12.5079922 22.1943056,12.7905002 22.0884211,13.0796842 C27.548198,17.2626106 35.1202549,17.3163411 40.6388421,13.2113158 Z" id="Path_9-2" fill="#F4F4F4"></path>
                <path d="M40.3065526,12.1775263 C42.3772403,13.6256153 44.8062718,14.4763872 47.3279737,14.6367895 C47.7967046,18.9896784 48.5111161,23.3125914 49.4677895,27.5848421 C50.0954474,30.0344737 51.5032632,31.8692895 51.9752105,34.2161842 C51.3091064,34.9501569 50.4339685,35.4622414 49.4677895,35.6833947 C48.6240555,35.8895168 47.7431024,35.8895168 46.8993684,35.6833947 L44.3903421,29.5528947 L42.6101053,23.1013421 C42.269785,19.3828625 41.496706,15.7167979 40.3065526,12.1775263 Z" id="Path-25_3_" fill="#676767"></path>
                <path d="M22.3581053,12.4070789 C20.4045247,13.7824353 18.0920922,14.5578952 15.7042895,14.6383947 C15.1833907,18.9034157 14.4304763,23.1368843 13.4488947,27.3199737 C12.8212368,29.7696053 11.8211579,32.0522895 11.3492105,34.3991842 C11.9164614,35.0710801 12.6995239,35.5250294 13.5644737,35.6833947 C14.4082077,35.8895168 15.2891607,35.8895168 16.1328947,35.6833947 L18.4252105,31.3491842 L20.1396316,23.1222105 C20.4431336,19.473935 21.1880656,15.8759455 22.3581053,12.4070789 Z" id="Path-25_3_2" fill="#676767"></path>
            </g>
            <g id="sleeve_thumbnails_4" transform="translate(270.000000, 0.000000)" fill-rule="nonzero">
                <path d="M15.6657632,14.5356579 C15.6306578,16.3752312 15.4638186,18.2099267 15.1665263,20.0256579 C14.4072368,23.9312632 13.2578684,27.7501842 12.4375789,31.6124474 C11.6124737,35.3880263 7.81602632,38.6852368 7.05673684,42.4608158 C6.82545542,43.3227042 6.41705958,44.1269215 5.85760526,44.8221579 C4.73392105,46.4274211 1.23605263,47.9251316 0,49.4645789 C0.0821019865,49.5894921 0.176770478,49.7056762 0.282526316,49.8113158 C1.06428947,49.4645789 1.86692105,49.1162368 2.62621053,48.8128421 C2.4095,50.5047895 2.17031579,52.2192105 1.97607895,53.9769737 C1.86692105,55.0621316 2.75784211,55.6047105 3.73384211,55.4522105 C4.61512426,55.3426328 5.41784429,54.8905262 5.96836842,54.1936842 C7.0800602,52.2859971 7.85750019,50.2023276 8.26710526,48.0326842 C8.61384211,44.7788158 11.4567632,41.5666842 13.4312368,38.8987368 C15.6657632,35.8615789 17.8569474,33.4520789 18.5295526,30.6107632 C19.1363421,28.1370526 19.6355789,25.6344474 20.1572895,23.1462895 C20.1769129,19.3894557 20.9595188,15.6757639 22.4576316,12.2305 C20.4968289,13.7023792 18.1173983,14.5099572 15.6657632,14.5356579 Z" id="Path_7-5" fill="#D6D4D4"></path>
                <path d="M57.3239474,49.0985789 C58.0837719,49.3811053 58.865,49.6630965 59.6676316,49.9445526 C58.6851859,48.2757333 57.5832366,46.6802138 56.3704211,45.1705 C55.8924559,44.6240515 55.5240458,43.9907785 55.2852632,43.3051842 C53.8533684,37.0992368 49.9044211,31.2657105 48.7036842,25.0148158 C48.0535526,21.5651053 47.7052105,18.0495789 47.3809474,14.5565263 C44.6476613,14.5545816 42.0098224,13.5511863 39.9662368,11.7360789 C41.652006,15.3500338 42.5186267,19.2917603 42.5041579,23.2795263 C42.5041579,23.2137105 42.5266316,23.1703684 42.5266316,23.1061579 C42.8258242,23.8191444 43.0512021,24.560901 43.1992368,25.3198158 C44.831776,31.3518159 47.3102949,37.122236 50.5609737,42.4592105 C51.0920606,43.7653251 51.321958,45.1743384 51.2335789,46.5815263 C51.358482,49.4471245 52.3163264,52.2141065 53.9898158,54.5436316 C54.7046012,55.2147244 55.6569614,55.573953 56.6368947,55.5421053 C57.9596316,55.5196316 57.9596316,54.4184211 57.8520789,53.5018158 C57.7140263,51.9623684 57.4973158,50.4662632 57.3239474,49.0985789 Z" id="Path_8-5" fill="#D6D4D4"></path>
                <path d="M26.3841053,5.01002632 C25.9071886,5.42359316 25.3543283,5.74037014 24.7563684,5.94268421 C23.2811316,6.50613158 21.8925789,7.31036842 20.374,7.72131579 C17.6966551,8.1617841 15.7369827,10.4835773 15.7524474,13.1968684 C15.7299737,13.6527632 15.7091053,14.0861842 15.6866316,14.5420789 C21.1961846,14.6502671 25.858868,10.4955532 26.3841053,5.01002632 Z" id="Path_11-5" fill="#F4F4F4"></path>
                <path d="M47.3857632,14.5356579 C47.3424211,14.0364211 47.2990789,13.5596579 47.2332632,13.0604211 C47.162261,10.4299704 45.2641794,8.20617849 42.6775263,7.72292105 C41.0931316,7.2895 39.7045789,6.46439474 38.1426579,5.87847368 C37.6046478,5.67594335 37.1055905,5.38215659 36.6674211,5.01002632 C37.1767887,10.5110843 41.8629505,14.6757816 47.3857632,14.5356579 Z" id="Path_12-5" fill="#F4F4F4"></path>
                <path d="M17.8360789,43.3051842 C17.1045761,47.8973274 17.2445332,52.5861628 18.2486316,57.1265 L30.2688421,57.1265 C30.3555263,56.1713684 30.4646842,55.2178421 30.5513684,54.2627105 C30.7247368,52.5049474 30.5947105,50.7311316 30.5947105,48.9910263 C30.8413697,48.9029377 31.095506,48.8373889 31.354,48.7951842 C31.6140526,49.2767632 32.0699474,49.7069737 32.1132895,50.2062105 C32.33,52.5274211 32.4166842,54.8277632 32.6333947,57.1489737 L44.6969474,57.1489737 C45.7157245,52.6109302 45.8628074,47.9206176 45.1303684,43.3276579 C36.8785281,48.8853998 26.0787558,48.8765074 17.8360789,43.3051842 Z" id="Path_3-5" fill="#F4F4F4"></path>
                <path d="M45.0870263,43.3051842 C44.5417883,40.4587289 43.475097,37.7375775 41.9407105,35.2788684 C39.3594474,31.1565526 41.8973684,27.2718158 42.4832895,23.2795263 C42.4509779,19.8405928 41.8197682,16.4335817 40.6179737,13.2113158 C35.1061167,17.3214778 27.5318819,17.2591412 22.0884211,13.0588158 C20.8558431,16.274527 20.2036286,19.6834347 20.1621053,23.1270263 C20.1621053,23.1045526 20.1845789,23.0612105 20.1845789,23.0403421 C20.7480263,24.4080263 20.9438684,25.7532368 21.3997632,27.0759737 C22.4536559,30.1378528 22.1127904,33.5077858 20.4671053,36.2966053 C19.3002467,38.371932 18.4292555,40.6001998 17.8794211,42.9167105 L17.8136053,43.3067895 C26.0499513,48.8826975 36.8513367,48.8820618 45.0870263,43.3051842 Z" id="Path_15-5" fill="#F4F4F4"></path>
                <path d="M46.5446053,49.2815789 C46.0041089,44.7403631 44.6443806,40.3348432 42.5314474,36.2789474 C38.9715623,37.1534134 35.3372716,37.6908714 31.6766579,37.8842105 C27.8914254,37.7928364 24.129652,37.2616738 20.4671053,36.3014211 C19.377982,38.3330859 18.4172227,40.4309939 17.5904737,42.5828158 C16.7261245,44.950933 16.2622769,47.4464875 16.2179737,49.9670263 C24.4353158,55.5388947 38.3401053,54.8582632 46.5446053,49.2815789 Z" id="Path_49-5" fill="#F4F4F4"></path>
                <path d="M36.6465526,4.98915789 C35.7090851,4.0920611 35.2507846,2.80465341 35.4105,1.51697368 C33.2062932,-0.544379668 29.7673365,-0.496183243 27.6217632,1.62613158 C27.740274,2.88314735 27.2862591,4.12667638 26.3857105,5.01163158 C29.2355044,7.8141511 33.8090624,7.80413392 36.6465526,4.98915789 Z" id="Path_4-5" fill="#F4F4F4"></path>
                <path d="M40.6388421,13.2113158 C40.4221316,12.6687368 40.1829474,12.1695 39.9662368,11.7360789 C38.022394,10.0259956 36.8365478,7.61446717 36.6690263,5.03089474 L36.6465526,5.00842105 C33.8070229,7.8286853 29.223635,7.8286853 26.3841053,5.00842105 L26.3616316,5.03089474 C26.1716935,7.88590614 24.7460911,10.5161193 22.4576316,12.2337105 C22.3176013,12.5079922 22.1943056,12.7905002 22.0884211,13.0796842 C27.548198,17.2626106 35.1202549,17.3163411 40.6388421,13.2113158 Z" id="Path_9-5" fill="#F4F4F4"></path>
                <path d="M40.3065526,12.1775263 C42.3772403,13.6256153 44.8062718,14.4763872 47.3279737,14.6367895 C47.7967046,18.9896784 48.5111161,23.3125914 49.4677895,27.5848421 C50.0954474,30.0344737 54.7763947,40.5874737 55.2467368,42.9407895 C54.5211579,43.6663684 54.4537368,43.9248158 53.4697105,44.1142368 C52.5940559,44.1560925 51.7215056,43.9824644 50.9285789,43.6085789 L44.9345263,31.0746842 L42.6101053,23.1013421 C42.269785,19.3828625 41.496706,15.7167979 40.3065526,12.1775263 Z" id="Path-25_3_5" fill="#676767"></path>
                <path d="M22.3565,12.4070789 C20.4029195,13.7824353 18.0904869,14.5578952 15.7026842,14.6383947 C15.1817886,18.9034161 14.4288742,23.136885 13.4472895,27.3199737 C12.8196316,29.7696053 6.88336842,41.6662105 6.41142105,44.0147105 C7.137,44.7402895 6.75655263,44.5155526 7.40186842,44.8735263 C7.92835262,45.2172216 8.59322831,45.2704116 9.16765789,45.0147895 L17.9789474,32.6879737 L20.1332105,23.1206053 C20.4384008,19.4726716 21.1849493,15.875224 22.3565,12.4070789 Z" id="Path-25_3_6" fill="#676767"></path>
            </g>
            <g id="sleeve_thumbnails_5" transform="translate(338.000000, 0.000000)" fill-rule="nonzero">
                <path d="M26.3841053,5.01002632 C25.9071886,5.42359316 25.3543283,5.74037014 24.7563684,5.94268421 C23.2811316,6.50613158 21.8925789,7.31036842 20.374,7.72131579 C17.6966551,8.1617841 15.7369827,10.4835773 15.7524474,13.1968684 C15.7299737,13.6527632 15.7091053,14.0861842 15.6866316,14.5420789 C21.1961846,14.6502671 25.858868,10.4955532 26.3841053,5.01002632 Z" id="Path_11-6" fill="#F4F4F4"></path>
                <path d="M47.3857632,14.5356579 C47.3424211,14.0364211 47.2990789,13.5596579 47.2332632,13.0604211 C47.162261,10.4299704 45.2641794,8.20617849 42.6775263,7.72292105 C41.0931316,7.2895 39.7045789,6.46439474 38.1426579,5.87847368 C37.6046478,5.67594335 37.1055905,5.38215659 36.6674211,5.01002632 C37.1767887,10.5110843 41.8629505,14.6757816 47.3857632,14.5356579 Z" id="Path_12-6" fill="#F4F4F4"></path>
                <path d="M17.8360789,43.3051842 C17.1045761,47.8973274 17.2445332,52.5861628 18.2486316,57.1265 L30.2688421,57.1265 C30.3555263,56.1713684 30.4646842,55.2178421 30.5513684,54.2627105 C30.7247368,52.5049474 30.5947105,50.7311316 30.5947105,48.9910263 C30.8413697,48.9029377 31.095506,48.8373889 31.354,48.7951842 C31.6140526,49.2767632 32.0699474,49.7069737 32.1132895,50.2062105 C32.33,52.5274211 32.4166842,54.8277632 32.6333947,57.1489737 L44.6969474,57.1489737 C45.7157245,52.6109302 45.8628074,47.9206176 45.1303684,43.3276579 C36.8785281,48.8853998 26.0787558,48.8765074 17.8360789,43.3051842 Z" id="Path_3-6" fill="#F4F4F4"></path>
                <path d="M45.0870263,43.3051842 C44.5417883,40.4587289 43.475097,37.7375775 41.9407105,35.2788684 C39.3594474,31.1565526 41.8973684,27.2718158 42.4832895,23.2795263 C42.4509779,19.8405928 41.8197682,16.4335817 40.6179737,13.2113158 C35.1061167,17.3214778 27.5318819,17.2591412 22.0884211,13.0588158 C20.8558431,16.274527 20.2036286,19.6834347 20.1621053,23.1270263 C20.1621053,23.1045526 20.1845789,23.0612105 20.1845789,23.0403421 C20.7480263,24.4080263 20.9438684,25.7532368 21.3997632,27.0759737 C22.4536559,30.1378528 22.1127904,33.5077858 20.4671053,36.2966053 C19.3002467,38.371932 18.4292555,40.6001998 17.8794211,42.9167105 L17.8136053,43.3067895 C26.0499513,48.8826975 36.8513367,48.8820618 45.0870263,43.3051842 Z" id="Path_15-6" fill="#F4F4F4"></path>
                <path d="M46.5446053,49.2815789 C46.0041089,44.7403631 44.6443806,40.3348432 42.5314474,36.2789474 C38.9715623,37.1534134 35.3372716,37.6908714 31.6766579,37.8842105 C27.8914254,37.7928364 24.129652,37.2616738 20.4671053,36.3014211 C19.377982,38.3330859 18.4172227,40.4309939 17.5904737,42.5828158 C16.7261245,44.950933 16.2622769,47.4464875 16.2179737,49.9670263 C24.4353158,55.5388947 38.3401053,54.8582632 46.5446053,49.2815789 Z" id="Path_49-6" fill="#F4F4F4"></path>
                <path d="M36.6465526,4.98915789 C35.7090851,4.0920611 35.2507846,2.80465341 35.4105,1.51697368 C33.2062932,-0.544379668 29.7673365,-0.496183243 27.6217632,1.62613158 C27.740274,2.88314735 27.2862591,4.12667638 26.3857105,5.01163158 C29.2355044,7.8141511 33.8090624,7.80413392 36.6465526,4.98915789 Z" id="Path_4-6" fill="#F4F4F4"></path>
                <path d="M15.6657632,14.5356579 C15.6306578,16.3752312 15.4638186,18.2099267 15.1665263,20.0256579 C14.4072368,23.9312632 13.2578684,27.7501842 12.4375789,31.6124474 C11.6124737,35.3880263 7.81602632,38.6852368 7.05673684,42.4608158 C6.82545542,43.3227042 6.41705958,44.1269215 5.85760526,44.8221579 C4.73392105,46.4274211 1.23605263,47.9251316 -5.10702591e-15,49.4645789 C0.0821019865,49.5894921 0.176770478,49.7056762 0.282526316,49.8113158 C1.06428947,49.4645789 1.86692105,49.1162368 2.62621053,48.8128421 C2.4095,50.5047895 2.17031579,52.2192105 1.97607895,53.9769737 C1.86692105,55.0621316 2.75784211,55.6047105 3.73384211,55.4522105 C4.61512426,55.3426328 5.41784429,54.8905262 5.96836842,54.1936842 C7.0800602,52.2859971 7.85750019,50.2023276 8.26710526,48.0326842 C8.61384211,44.7788158 11.4567632,41.5666842 13.4312368,38.8987368 C15.6657632,35.8615789 17.8569474,33.4520789 18.5295526,30.6107632 C19.1363421,28.1370526 19.6355789,25.6344474 20.1572895,23.1462895 C20.1769129,19.3894557 20.9595188,15.6757639 22.4576316,12.2305 C20.4968289,13.7023792 18.1173983,14.5099572 15.6657632,14.5356579 Z" id="Path_7-6" fill="#D6D4D4"></path>
                <path d="M57.3239474,49.0985789 C58.0837719,49.3811053 58.865,49.6630965 59.6676316,49.9445526 C58.6851859,48.2757333 57.5832366,46.6802138 56.3704211,45.1705 C55.8924559,44.6240515 55.5240458,43.9907785 55.2852632,43.3051842 C53.8533684,37.0992368 49.9044211,31.2657105 48.7036842,25.0148158 C48.0535526,21.5651053 47.7052105,18.0495789 47.3809474,14.5565263 C44.6476613,14.5545816 42.0098224,13.5511863 39.9662368,11.7360789 C41.652006,15.3500338 42.5186267,19.2917603 42.5041579,23.2795263 C42.5041579,23.2137105 42.5266316,23.1703684 42.5266316,23.1061579 C42.8258242,23.8191444 43.0512021,24.560901 43.1992368,25.3198158 C44.831776,31.3518159 47.3102949,37.122236 50.5609737,42.4592105 C51.0920606,43.7653251 51.321958,45.1743384 51.2335789,46.5815263 C51.358482,49.4471245 52.3163264,52.2141065 53.9898158,54.5436316 C54.7046012,55.2147244 55.6569614,55.573953 56.6368947,55.5421053 C57.9596316,55.5196316 57.9596316,54.4184211 57.8520789,53.5018158 C57.7140263,51.9623684 57.4973158,50.4662632 57.3239474,49.0985789 Z" id="Path_8-6" fill="#D6D4D4"></path>
                <path d="M40.6388421,13.2113158 C40.4221316,12.6687368 40.1829474,12.1695 39.9662368,11.7360789 C38.022394,10.0259956 36.8365478,7.61446717 36.6690263,5.03089474 L36.6465526,5.00842105 C33.8070229,7.8286853 29.223635,7.8286853 26.3841053,5.00842105 L26.3616316,5.03089474 C26.1716935,7.88590614 24.7460911,10.5161193 22.4576316,12.2337105 C22.3176013,12.5079922 22.1943056,12.7905002 22.0884211,13.0796842 C27.548198,17.2626106 35.1202549,17.3163411 40.6388421,13.2113158 Z" id="Path_9-6" fill="#F4F4F4"></path>
                <path d="M40.3065526,12.1775263 C42.3772403,13.6256153 44.8062718,14.4763872 47.3279737,14.6367895 C47.7967046,18.9896784 48.5111161,23.3125914 49.4677895,27.5848421 C50.0954474,30.0344737 59.2952105,42.0241842 59.7655526,44.3710789 C58.1019033,45.6163066 56.2682047,46.6164075 54.3205,47.3408158 C53.3364737,47.5318421 49.6812895,48.8 48.7935789,48.5784737 L44.9409474,31.0811053 L42.6101053,23.1013421 C42.269785,19.3828625 41.496706,15.7167979 40.3065526,12.1775263 Z" id="Path-25_3_7" fill="#676767"></path>
                <path d="M22.3565,12.4070789 C20.4029195,13.7824353 18.0904869,14.5578952 15.7026842,14.6383947 C15.1817854,18.9034157 14.4288711,23.1368843 13.4472895,27.3199737 C12.8196316,29.7696053 2.03226316,42.9327632 1.56834211,45.2796579 C2.89688702,46.2842928 4.3038621,47.180763 5.77573684,47.9604474 C7.55390751,48.753724 9.44834883,49.255114 11.3861316,49.4453158 L17.9901842,32.6879737 L20.1444474,23.1206053 C20.4459978,19.4731392 21.1887709,15.8757026 22.3565,12.4070789 Z" id="Path-25_3_8" fill="#676767"></path>
            </g>
        </g>
    </g>
</svg>
