<?xml version="1.0" encoding="UTF-8" standalone="no"?>
<svg width="252px" height="56px" viewBox="0 0 252 56" version="1.1" xmlns="http://www.w3.org/2000/svg" xmlns:xlink="http://www.w3.org/1999/xlink">
    <!-- Generator: Sketch 50.2 (55047) - http://www.bohemiancoding.com/sketch -->
    <title>top_collar_thumbnails</title>
    <desc>Created with Sketch.</desc>
    <defs></defs>
    <g id="BodyParts-Thumbnail-Final" stroke="none" stroke-width="1" fill="none" fill-rule="evenodd">
        <g id="top_collar_thumbnails">
            <text id="ALL" fill-opacity="0.775334013" fill="#686868" font-family="CenturyGothic-Bold, Century Gothic, Arial" font-size="20" font-weight="bold">
                <tspan x="220" y="36">ALL</tspan>
            </text>
            <g id="top_collar_thumbnails_0" fill-rule="nonzero">
                <path d="M21.0932296,15.5075736 C21.3991027,14.3298704 21.8065742,13.1820959 22.310874,12.0776875 C21.9034803,12.3824432 21.4803523,12.6646867 21.0433139,12.9232014 C21.0191122,12.947888 20.9949106,12.947888 20.9707089,12.9725745 L20.6787768,13.1268654 L20.5275167,13.200925 C20.4592542,13.2440628 20.3854367,13.2772972 20.3081894,13.2996712 C20.2386669,13.3224342 20.1728912,13.355721 20.1130639,13.3984173 C20.0336173,13.4356087 19.9523316,13.4685684 19.869535,13.4971636 C19.79693,13.52185 19.7470142,13.5465366 19.6744093,13.5712231 C19.5231492,13.6205962 19.4066789,13.6699693 19.2599565,13.725514 L19.2357548,13.725514 C18.1293619,14.1105465 16.9696032,14.3121403 15.8006366,14.3226197 C15.7614912,16.1131075 15.5987358,17.8985581 15.3135789,19.6657128 C14.5829922,23.4689829 13.4863561,27.1966504 12.7058537,30.975234 C11.9268639,34.6535284 8.29510732,37.8843795 7.56300813,41.5626739 C7.34131391,42.4061992 6.95152194,43.1940499 6.4179687,43.877037 C5.36217276,45.4322891 2.01781057,46.8995953 0.824367887,48.3900452 C0.905950374,48.5121914 0.995390424,48.6286798 1.09209837,48.7387426 C1.84839919,48.3900452 2.6047,48.0675772 3.33377398,47.7697958 C3.11444674,49.4099079 2.89511952,51.1009358 2.69999391,52.8151075 C2.64995575,53.2629063 2.8233116,53.7064747 3.16164665,53.9963456 C3.49998171,54.2862167 3.95824084,54.383789 4.38200691,54.2561843 C5.22252854,54.1428089 5.98931851,53.7076049 6.52687602,53.0388293 C7.59382934,51.1776236 8.335937,49.1416168 8.72014837,47.0214851 C9.06199634,43.8400072 11.766528,40.7079025 13.6663557,38.0988437 C15.8112248,35.1410876 17.9016402,32.7804372 18.5399581,30.0217164 C19.125335,27.61015 19.5881911,25.17544 20.0994504,22.739187 L20.0994504,22.7145005 C20.1306381,20.2789937 20.4645628,17.8573581 21.0932296,15.5075736 Z" id="Path_704" fill="#F4F4F4"></path>
                <path d="M17.4902126,49.5842565 C17.6144122,51.6884512 17.8833081,53.7811532 18.2949167,55.8469232 L29.7906891,55.8469232 C29.8632939,54.9211779 29.9858146,53.9830895 30.0584195,53.0696875 C30.0779343,52.9296936 30.0860292,52.7882897 30.0826211,52.6469304 C25.6957204,52.7579618 21.3560151,51.7024764 17.4902126,49.5842565 Z" id="Path_703" fill="#F4F4F4"></path>
                <path d="M19.6592833,13.5434508 C19.7318882,13.5187642 19.7818041,13.4940776 19.8544089,13.4693912 C19.9338577,13.4322049 20.0151431,13.3992453 20.0979378,13.370645 C20.1674603,13.347882 20.2332361,13.3145952 20.2930634,13.2718988 C20.3656683,13.2472123 20.4443235,13.1978392 20.5123907,13.1731526 L20.6636508,13.0990931 L20.9555829,12.9448022 C20.9797846,12.9201156 21.0039861,12.9201156 21.0281878,12.895429 C21.692591,12.5200034 22.3136149,12.069745 22.8796122,11.5530985 C22.9805991,11.4748902 23.0706707,11.3830139 23.1473426,11.2800036 L23.3424683,11.0809684 L23.4392748,10.9822222 C24.9751066,9.37515673 25.8922293,7.25768749 26.0227984,5.01733695 L26.0439748,4.99419332 C25.5868889,5.40155412 25.0575134,5.71580185 24.4844826,5.91993858 C23.1172479,6.57235568 21.7182923,7.1532434 20.2930634,7.66033966 C17.742456,8.10642736 15.8790211,10.3637565 15.8823171,13.0034327 C15.8581154,13.4508762 15.8339139,13.8736332 15.8097122,14.3210768 C16.9700636,14.3025991 18.1206338,14.1011834 19.2206289,13.7239711 L19.2448305,13.7239711 C19.3889109,13.6790839 19.5278563,13.6185644 19.6592833,13.5434508 Z" id="Path_709" fill="#F4F4F4"></path>
                <path d="M43.8790606,49.5842565 C43.754866,51.6884516 43.48597,53.781154 43.0743565,55.8469232 L31.5785841,55.8469232 C31.5059793,54.9211779 31.3834585,53.9830895 31.3108537,53.0696875 C31.291332,52.9296943 31.2832369,52.7882898 31.286652,52.6469304 C35.672939,52.7520196 40.0111772,51.6968911 43.8790606,49.5842565 Z" id="Path_728" fill="#F4F4F4"></path>
                <path d="M43.7081366,41.6552484 C42.9207026,39.5506531 42.001153,37.4999943 40.9552016,35.5160145 C37.5903329,36.4027092 34.1421785,36.9199508 30.6695106,37.0589232 C27.1966739,36.9218054 23.7483263,36.4045348 20.3838195,35.5160145 C19.3432491,37.5027173 18.4238569,39.5530248 17.6308846,41.6552484 C16.8057609,43.967673 16.361111,46.4033376 16.3149211,48.8637182 C16.6809707,49.1121265 17.071222,49.3605347 17.4599606,49.5842565 C21.3318285,51.6874864 25.671711,52.7320033 30.0569069,52.6160722 L31.2745513,52.6160722 C35.6597471,52.7320033 39.9996296,51.6874864 43.8714976,49.5842565 C44.2617487,49.3605347 44.6504874,49.1121265 45.016537,48.8637182 C44.9710093,46.4039527 44.5289702,43.9685933 43.7081366,41.6552484 Z" id="Path_729" fill="#F4F4F4"></path>
                <path d="M34.1091667,1.71396929 C33.2342975,0.717313727 31.9848095,0.147739667 30.6732921,0.147739667 C29.3617746,0.147739667 28.1122867,0.717313727 27.2374174,1.71396929 C27.351207,2.94317073 26.9122735,4.15867617 26.0439748,5.01887986 L26.0681765,5.04356639 C27.3105326,6.26544081 28.949628,6.97923985 30.6740484,7.04934779 C32.3974015,6.97442525 34.0348933,6.26132455 35.2799203,5.04356639 L35.304122,5.01887986 C34.4316491,4.16136802 33.9914797,2.94398315 34.1091667,1.71396929 Z" id="Path_730" fill="#D6D4D4"></path>
                <path d="M40.2730183,15.5075736 C39.9671453,14.3298704 39.5596737,13.1820959 39.055374,12.0776875 C39.4627693,12.3824407 39.8858972,12.6646843 40.3229341,12.9232014 C40.3471358,12.947888 40.3713374,12.947888 40.3955391,12.9725745 L40.6874711,13.1268654 L40.8387313,13.200925 C40.9070029,13.2440451 40.980818,13.2772784 41.0580585,13.2996712 C41.127581,13.3224342 41.1933568,13.355721 41.2531841,13.3984173 C41.3326308,13.4356087 41.4139164,13.4685684 41.496713,13.4971636 C41.5693179,13.52185 41.6192337,13.5465366 41.6918387,13.5712231 C41.8430987,13.6205962 41.9595691,13.6699693 42.1062915,13.725514 L42.1304931,13.725514 C43.2368861,14.1105465 44.3966447,14.3121403 45.5656113,14.3226197 C45.5926376,16.1137978 45.755476,17.9001589 46.0526691,19.6657128 C46.7832557,23.4689829 47.8798919,27.1966504 48.6603943,30.975234 C49.4393841,34.6535284 53.0711407,37.8843795 53.8032398,41.5626739 C54.0249341,42.4061992 54.414726,43.1940499 54.9482793,43.877037 C56.0207139,45.4430895 59.3590256,46.9088528 60.5524683,48.4008455 C60.4708894,48.5229944 60.3814491,48.6394831 60.2847378,48.7495429 C59.528437,48.4008455 58.7721361,48.0783776 58.0430622,47.7805962 C58.2623894,49.4207082 58.4817167,51.1117363 58.6768422,52.8259079 C58.7268804,53.2737067 58.5535245,53.717275 58.2151896,54.007146 C57.8768545,54.297017 57.4185953,54.3945894 56.9948293,54.2669846 C56.1543076,54.1536093 55.3875177,53.7184053 54.8499602,53.0496296 C53.7830068,51.1884239 53.0408991,49.1524172 52.6566878,47.0322855 C52.3148398,43.8508076 49.6103081,40.7187028 47.7104805,38.1096441 C45.5656113,35.151888 43.4751959,32.7912376 42.836878,30.0325167 C42.2515013,27.6209503 41.7886452,25.1862403 41.2773858,22.7499873 L41.2773858,22.7253008 C41.2194549,20.2876913 40.8823783,17.8653445 40.2730183,15.5075736 Z" id="Path_731" fill="#F4F4F4"></path>
                <path d="M41.6857882,13.5434508 C41.6131833,13.5187642 41.5632674,13.4940776 41.4906626,13.4693912 C41.4112139,13.4322049 41.3299285,13.3992453 41.2471337,13.370645 C41.1776113,13.347882 41.1118355,13.3145952 41.0520081,13.2718988 C40.9794033,13.2472123 40.900748,13.1978392 40.8326809,13.1731526 L40.6814207,13.0990931 L40.3894887,12.9448022 C40.365287,12.9201156 40.3410854,12.9201156 40.3168837,12.895429 C39.6524873,12.5199924 39.0314647,12.0697349 38.4654593,11.5530985 C38.3644724,11.4748902 38.2744008,11.3830139 38.1977289,11.2800036 L38.0026033,11.0809684 L37.9057967,10.9822222 C36.3699649,9.37515673 35.4528422,7.25768749 35.3222732,5.01733695 L35.3026093,4.99419332 C35.7596952,5.40155412 36.2890708,5.71580185 36.8621016,5.91993858 C38.2293342,6.57236058 39.62829,7.15324841 41.0535207,7.66033966 C43.6171598,8.08310244 45.4923145,10.3546288 45.4642671,13.0034327 C45.4884687,13.4508762 45.5126703,13.8736332 45.536872,14.3210768 C44.3765206,14.3025991 43.2259503,14.1011834 42.1259553,13.7239711 L42.1017537,13.7239711 C41.9588091,13.6746502 41.8197523,13.6143024 41.6857882,13.5434508 Z" id="Path_736" fill="#F4F4F4"></path>
                <path d="M41.2229321,22.8641626 C41.2229321,22.8888491 41.2471337,22.6651273 41.2471337,22.6898139 C41.1895348,20.2658789 40.8627432,17.8564161 40.2730183,15.5075736 C39.944079,14.3373624 39.5372529,13.191406 39.055374,12.0776875 C39.055374,12.0776875 38.6651228,11.7552195 38.4699972,11.5808708 C38.3690103,11.5026626 38.2789387,11.4107863 38.2022667,11.3077759 L38.0071411,11.1087407 L37.9103346,11.0099946 C36.3718674,9.39173335 35.4475803,7.26823117 35.3026093,5.01887986 L35.2784078,5.04356639 C34.0860256,6.34371913 32.4186906,7.08161973 30.6732921,7.08161973 C28.9278936,7.08161973 27.2605586,6.34371913 26.0681765,5.04356639 L26.0439748,5.01887986 C25.9046835,7.26920312 24.9795352,9.39413668 23.4362496,11.0084517 L23.3394431,11.1071978 L23.1443174,11.306233 L22.876587,11.5793279 C22.6814613,11.7536766 22.4863358,11.9280253 22.2912102,12.0761446 C21.8056238,13.1883423 21.3987027,14.3345663 21.0735659,15.5060307 C20.4600526,17.8500394 20.132868,20.2624006 20.0994504,22.688271 C20.0994504,22.6635844 20.123652,22.638898 20.123652,22.6142114 C20.659113,23.956542 20.8542387,25.2494995 21.2928931,26.5409142 C22.2902209,29.531418 21.9587869,32.8169407 20.3853321,35.5376151 C23.7502009,36.4243098 27.1983552,36.9415514 30.6710232,37.0805239 C34.1438598,36.9434061 37.5922074,36.4261355 40.9567142,35.5376151 C39.3832594,32.8169407 39.0518255,29.531418 40.0491533,26.5409142 C40.5180598,25.2510424 40.6874711,24.1818067 41.2229321,22.8641626 Z" id="Path_745" fill="#F4F4F4"></path>
                <path d="M39.055374,12.0530009 C38.8602484,11.89871 38.6651228,11.730533 38.4699972,11.5561843 C38.3690103,11.4779761 38.2789387,11.3860998 38.2022667,11.2830895 L38.0071411,11.0840542 L37.9103346,10.985308 C36.3707603,9.36750287 35.4453785,7.24394927 35.2995841,4.99419332 L35.2753826,5.01887986 C34.0830004,6.3190326 32.4156655,7.05693319 30.6702669,7.05693319 C28.9248684,7.05693319 27.2575333,6.3190326 26.0651513,5.01887986 L26.0439748,4.99419332 C25.9046835,7.24451657 24.9795352,9.36945012 23.4362496,10.9837651 L23.3394431,11.0825113 L23.1443174,11.2815465 L22.876587,11.5546414 C22.6814613,11.7289901 22.4863358,11.9033387 22.2912102,12.051458 C22.6073439,12.2998663 24.8989354,20.5019693 30.6725358,20.5019693 C36.1300024,20.5019693 38.7377276,12.2751798 39.0538613,12.051458 L39.055374,12.0530009 Z" id="Path_748" fill="#F4F4F4"></path>
            </g>
            <g id="top_collar_thumbnails_1" transform="translate(68.000000, 0.000000)" fill-rule="nonzero">
                <path d="M17.484125,48.862525 C17.6093476,50.9422955 17.8804475,53.0107068 18.295425,55.0525 L29.885425,55.0525 C29.958625,54.1375 30.08215,53.2103 30.15535,52.3075 C30.1750317,52.1691318 30.183193,52.0293686 30.17975,51.88965 C25.7575098,51.9935194 21.3837123,50.9506379 17.484125,48.862525 Z" id="Path_759" fill="#F4F4F4"></path>
                <path d="M21.116675,15.181375 C21.4250475,14.0173392 21.8358592,12.8828865 22.3443,11.7913 C21.9335687,12.0925208 21.5069723,12.3714884 21.06635,12.627 C21.04195,12.6514 21.01755,12.6514 20.99315,12.6758 L20.698825,12.8283 L20.546325,12.9015 C20.477503,12.9441371 20.4030804,12.9769857 20.3252,12.9991 C20.2551077,13.0215988 20.1887928,13.0544993 20.128475,13.0967 C20.0483772,13.1334596 19.9664253,13.1660368 19.88295,13.1943 C19.80975,13.2187 19.759425,13.2431 19.686225,13.2675 C19.533725,13.3163 19.4163,13.3651 19.268375,13.42 L19.243975,13.42 C18.1285132,13.8005634 16.9592483,13.9998172 15.7807,14.010175 C15.7534645,15.7805633 15.5892912,17.5461908 15.28965,19.29125 C14.553075,23.050375 13.44745,26.734775 12.66055,30.4695 C11.875175,34.1051 8.21365,37.29845 7.47555,40.93405 C7.25203861,41.7677844 6.85905162,42.5464905 6.321125,43.22155 C5.2399,44.769425 1.874225,46.218175 0.671,47.69285 C0.753247575,47.813581 0.843420923,47.9287176 0.940925,48.0375 C1.703425,47.69285 2.465925,47.374125 3.200975,47.0798 C2.97985,48.700875 2.758725,50.372275 2.562,52.06655 C2.51155169,52.5091511 2.6863285,52.9475709 3.02743679,53.2340773 C3.36854508,53.5205838 3.83056044,53.6170236 4.2578,53.4909 C5.10521115,53.3788406 5.87828628,52.9486881 6.42025,52.287675 C7.49592084,50.4480593 8.24410948,48.4356898 8.6315,46.340175 C8.97615,43.195625 11.70285,40.099875 13.61825,37.5211 C15.7807,34.597675 17.88825,32.264425 18.5318,29.537725 C19.121975,27.15415 19.588625,24.7477 20.104075,22.339725 L20.104075,22.315325 C20.1502785,19.9050143 20.4903231,17.5093389 21.116675,15.181375 Z" id="Path_760" fill="#F4F4F4"></path>
                <path d="M19.695375,13.24005 C19.768575,13.21565 19.8189,13.19125 19.8921,13.16685 C19.9722021,13.1301004 20.0541535,13.0975235 20.137625,13.06925 C20.2077173,13.0467512 20.2740322,13.0138507 20.33435,12.97165 C20.40755,12.94725 20.48685,12.89845 20.555475,12.87405 L20.707975,12.80085 L21.0023,12.64835 C21.0267,12.62395 21.0511,12.62395 21.0755,12.59955 C21.7453492,12.2284819 22.3714633,11.7834498 22.9421,11.2728 C23.0439272,11.1955139 23.1347389,11.1047022 23.212025,11.002875 L23.40875,10.80615 L23.50635,10.70855 C25.0547706,9.12013795 25.9794107,7.02724647 26.11105,4.8129 L26.13545,4.7885 C25.6746175,5.1911325 25.1409028,5.50173272 24.563175,5.7035 C23.1847388,6.34835653 21.7743157,6.92250206 20.3374,7.4237 C17.7527475,7.84155572 15.8622226,10.0867161 15.8905,12.704775 C15.8661,13.147025 15.8417,13.564875 15.8173,14.007125 C16.9871624,13.9888618 18.1471635,13.789784 19.256175,13.41695 L19.280575,13.41695 C19.4230885,13.3684853 19.5617477,13.3093513 19.695375,13.24005 Z" id="Path_765" fill="#F4F4F4"></path>
                <path d="M44.089275,48.862525 C43.9640524,50.9422955 43.6929525,53.0107068 43.277975,55.0525 L31.687975,55.0525 C31.614775,54.1375 31.49125,53.2103 31.41805,52.3075 C31.3983893,52.1691297 31.390228,52.0293682 31.39365,51.88965 C35.8158902,51.9935194 40.1896877,50.9506379 44.089275,48.862525 Z" id="Path_784" fill="#F4F4F4"></path>
                <path d="M43.94135,41.02555 C43.1474538,38.9453863 42.2203671,36.9185303 41.16585,34.957575 C34.4018416,36.9896507 27.1898584,36.9896507 20.42585,34.957575 C19.3767469,36.9212161 18.4498186,38.9477257 17.65035,41.02555 C16.8184901,43.3111413 16.3701964,45.7185302 16.3236,48.15035 C16.69265,48.395875 17.0861,48.6414 17.478025,48.862525 C21.3816295,50.9413423 25.7570849,51.9737354 30.178225,51.85915 L31.40585,51.85915 C35.8269901,51.9737354 40.2024455,50.9413423 44.10605,48.862525 C44.4995,48.6414 44.891425,48.395875 45.260475,48.15035 C45.2145741,45.7191354 44.7689118,43.3120436 43.94135,41.02555 Z" id="Path_785" fill="#F4F4F4"></path>
                <path d="M34.2637,1.547875 C33.3816598,0.562787763 32.1219302,-0.000175166266 30.7996625,-0.000175166266 C29.4773948,-0.000175166266 28.2176652,0.562787763 27.335625,1.547875 C27.450122,2.7627796 27.0076254,3.96408201 26.1324,4.814425 L26.1568,4.838825 C27.4093395,6.04651695 29.06187,6.75203081 30.800425,6.821325 C32.537904,6.7472721 34.1888178,6.04244846 35.44405,4.838825 L35.46845,4.814425 C34.5888257,3.96686642 34.1450484,2.76361191 34.2637,1.547875 Z" id="Path_786" fill="#D6D4D4"></path>
                <path d="M40.453675,15.181375 C40.1452796,14.0173463 39.7344686,12.8828956 39.22605,11.7913 C39.6367729,12.0925329 40.06337,12.3715009 40.504,12.627 C40.5284,12.6514 40.5528,12.6514 40.5772,12.6758 L40.871525,12.8283 L41.024025,12.9015 C41.092847,12.9441371 41.1672696,12.9769857 41.24515,12.9991 C41.3152423,13.0215988 41.3815572,13.0544993 41.441875,13.0967 C41.521976,13.1334521 41.6039276,13.1660291 41.6874,13.1943 C41.7606,13.2187 41.810925,13.2431 41.884125,13.2675 C42.036625,13.3163 42.15405,13.3651 42.301975,13.42 L42.326375,13.42 C43.4418368,13.8005634 44.6111017,13.9998172 45.78965,14.010175 C45.8168855,15.7805633 45.9810588,17.5461908 46.2807,19.29125 C47.017275,23.050375 48.1229,26.734775 48.9098,30.4695 C49.695175,34.1051 53.3567,37.29845 54.0948,40.93405 C54.3183114,41.7677844 54.7112984,42.5464905 55.249225,43.22155 C56.33045,44.769425 59.696125,46.218175 60.89935,47.69285 C60.8171024,47.813581 60.7269291,47.9287176 60.629425,48.0375 C59.866925,47.69285 59.104425,47.374125 58.369375,47.0798 C58.5905,48.700875 58.811625,50.372275 59.00835,52.06655 C59.0587983,52.5091511 58.8840215,52.9475709 58.5429132,53.2340773 C58.2018049,53.5205838 57.7397896,53.6170236 57.31255,53.4909 C56.4651388,53.3788406 55.6920637,52.9486881 55.1501,52.287675 C54.0744292,50.4480593 53.3262405,48.4356898 52.93885,46.340175 C52.5942,43.195625 49.8675,40.099875 47.9521,37.5211 C45.78965,34.597675 43.6821,32.264425 43.03855,29.537725 C42.448375,27.15415 41.981725,24.7477 41.466275,22.339725 L41.466275,22.315325 C41.4200715,19.9050143 41.0800269,17.5093389 40.453675,15.181375 Z" id="Path_787" fill="#F4F4F4"></path>
                <path d="M41.90395,13.24005 C41.83075,13.21565 41.780425,13.19125 41.707225,13.16685 C41.6271261,13.1300929 41.5451743,13.0975158 41.4617,13.06925 C41.3916164,13.0467298 41.3253045,13.0138309 41.264975,12.97165 C41.191775,12.94725 41.112475,12.89845 41.04385,12.87405 L40.89135,12.80085 L40.597025,12.64835 C40.572625,12.62395 40.548225,12.62395 40.523825,12.59955 C39.853969,12.2284928 39.2278537,11.7834598 38.657225,11.2728 C38.5553978,11.1955139 38.4645861,11.1047022 38.3873,11.002875 L38.190575,10.80615 L38.092975,10.70855 C36.5445544,9.12013795 35.6199143,7.02724647 35.488275,4.8129 L35.466925,4.790025 C35.9277575,5.1926575 36.4614722,5.50325772 37.0392,5.705025 C38.4176425,6.34986699 39.8280649,6.92401221 41.264975,7.425225 C43.8496275,7.84308072 45.7401524,10.0882411 45.711875,12.7063 C45.736275,13.14855 45.760675,13.5664 45.785075,14.00865 C44.6152126,13.9903868 43.4552115,13.791309 42.3462,13.418475 L42.3218,13.418475 C42.1765386,13.3741088 42.0364543,13.3142918 41.90395,13.24005 Z" id="Path_792" fill="#F4F4F4"></path>
                <path d="M41.435775,22.452575 C41.435775,22.476975 41.460175,22.25585 41.460175,22.28025 C41.402117,19.8844489 41.0726467,17.5029516 40.478075,15.181375 C40.1464439,14.0247451 39.7362831,12.8920898 39.25045,11.7913 C39.25045,11.7913 38.857,11.472575 38.660275,11.30025 C38.5584728,11.2229353 38.4676647,11.1321272 38.39035,11.030325 L38.193625,10.8336 L38.096025,10.736 C36.5452766,9.13691426 35.6134388,7.0386577 35.466925,4.81595 L35.442525,4.84035 C34.2403692,6.12541168 32.5593676,6.85474736 30.7996625,6.85474736 C29.0399574,6.85474736 27.3589558,6.12541168 26.1568,4.84035 L26.1324,4.81595 C25.991967,7.04015344 25.0592354,9.14042258 23.5033,10.736 L23.4057,10.8336 L23.208975,11.030325 L22.93905,11.30025 C22.742325,11.472575 22.5456,11.6449 22.348875,11.7913 C21.8593133,12.8905903 21.4490569,14.0235095 21.12125,15.181375 C20.502708,17.4981764 20.1728416,19.882537 20.13915,22.28025 C20.13915,22.25585 20.16355,22.23145 20.16355,22.20705 C20.7034,23.5338 20.900125,24.81175 21.342375,26.088175 C22.3478776,29.0439676 22.013727,32.2913548 20.427375,34.98045 C23.8198247,35.8568527 27.2962425,36.3680906 30.797375,36.50545 C34.2986775,36.3699237 37.7752902,35.8586571 41.167375,34.98045 C39.5808245,32.2914201 39.2466648,29.0439441 40.252375,26.088175 C40.6992,24.81175 40.895925,23.754925 41.435775,22.452575 Z" id="Path_801" fill="#F4F4F4"></path>
                <path d="M39.22605,11.7669 C39.029325,11.6144 38.8326,11.448175 38.635875,11.27585 C38.5340728,11.1985353 38.4432647,11.1077272 38.36595,11.005925 L38.169225,10.8092 L38.071625,10.7116 C36.5194313,9.11257298 35.5864644,7.01366772 35.439475,4.790025 L35.415075,4.814425 C34.2129192,6.09948668 32.5319176,6.82882236 30.7722125,6.82882236 C29.0125074,6.82882236 27.3315058,6.09948668 26.12935,4.814425 L26.108,4.790025 C25.967567,7.01422844 25.0348354,9.11449758 23.4789,10.710075 L23.3813,10.807675 L23.184575,11.0044 L22.91465,11.274325 C22.717925,11.44665 22.5212,11.618975 22.324475,11.765375 C22.6432,12.0109 24.953575,20.1178 30.7745,20.1178 C36.2767,20.1178 38.9302,11.9865 39.224525,11.765375 L39.22605,11.7669 Z" id="Path_804" fill="#F4F4F4"></path>
                <path d="M35.393725,4.91355 C35.0438936,4.41716239 34.7240883,3.90027973 34.436025,3.365675 C33.4061799,4.18008115 32.1104822,4.58281269 30.800425,4.4957 C29.4837294,4.51780268 28.1860111,4.17979478 27.0474,3.518175 C26.818742,4.03048905 26.5098652,4.50307058 26.1324,4.918125 C28.6931013,7.46948153 32.8355456,7.4674352 35.393725,4.91355 Z" id="Path_46_1_" fill="#676767"></path>
            </g>
            <g id="top_collar_thumbnails_2" transform="translate(136.000000, 0.000000)" fill-rule="nonzero">
                <path d="M19.365975,13.24005 C19.439175,13.21565 19.4895,13.19125 19.5627,13.16685 C19.6428,13.1300954 19.7247516,13.0975184 19.808225,13.06925 C19.8783086,13.0467298 19.9446205,13.0138309 20.00495,12.97165 C20.07815,12.94725 20.15745,12.89845 20.226075,12.87405 L20.378575,12.80085 L20.6729,12.64835 C20.6973,12.62395 20.7217,12.62395 20.7461,12.59955 C21.415956,12.2284928 22.0420713,11.7834598 22.6127,11.2728 C22.7145397,11.1955283 22.8053533,11.1047147 22.882625,11.002875 L23.07935,10.80615 L23.17695,10.70855 C24.7253706,9.12013795 25.6500107,7.02724647 25.78165,4.8129 L25.80605,4.7885 C25.3452175,5.1911325 24.8115028,5.50173272 24.233775,5.7035 C22.8553367,6.34835168 21.4449139,6.9224971 20.008,7.4237 C17.4233475,7.84155572 15.5328226,10.0867161 15.5611,12.704775 C15.5367,13.147025 15.5123,13.564875 15.4879,14.007125 C16.6577624,13.9888618 17.8177635,13.789784 18.926775,13.41695 L18.951175,13.41695 C19.0936885,13.3684853 19.2323477,13.3093513 19.365975,13.24005 Z" id="Path_821" fill="#F4F4F4"></path>
                <path d="M43.759875,48.862525 C43.6346524,50.9422955 43.3635525,53.0107068 42.948575,55.0525 L31.358575,55.0525 C31.285375,54.1375 31.16185,53.2103 31.08865,52.3075 C31.0689683,52.1691318 31.060807,52.0293686 31.06425,51.88965 C35.4867992,51.9964481 39.8613334,50.953391 43.759875,48.862525 Z" id="Path_840" fill="#F4F4F4"></path>
                <path d="M43.61195,41.02555 C42.8180538,38.9453863 41.8909671,36.9185303 40.83645,34.957575 C34.0724416,36.9896507 26.8604584,36.9896507 20.09645,34.957575 C19.0473642,36.9212248 18.1204365,38.9477332 17.32095,41.02555 C16.4890901,43.3111413 16.0407964,45.7185302 15.9942,48.15035 C16.36325,48.395875 16.7567,48.6414 17.148625,48.862525 C21.0522295,50.9413423 25.4276849,51.9737354 29.848825,51.85915 L31.07645,51.85915 C35.4975901,51.9737354 39.8730455,50.9413423 43.77665,48.862525 C44.1701,48.6414 44.56355,48.395875 44.931075,48.15035 C44.8851741,45.7191354 44.4395118,43.3120436 43.61195,41.02555 Z" id="Path_841" fill="#F4F4F4"></path>
                <path d="M33.9343,1.547875 C33.0522598,0.562787763 31.7925302,-0.000175166266 30.4702625,-0.000175166266 C29.1479948,-0.000175166266 27.8882652,0.562787763 27.006225,1.547875 C27.120722,2.7627796 26.6782254,3.96408201 25.803,4.814425 L25.8274,4.838825 C27.0799395,6.04651695 28.73247,6.75203081 30.471025,6.821325 C32.208504,6.7472721 33.8594178,6.04244846 35.11465,4.838825 L35.13905,4.814425 C34.2594257,3.96686642 33.8156484,2.76361191 33.9343,1.547875 Z" id="Path_842" fill="#D6D4D4"></path>
                <path d="M40.124275,15.181375 C39.8159025,14.0173392 39.4050908,12.8828865 38.89665,11.7913 C39.3073946,12.0925016 39.73399,12.3714685 40.1746,12.627 C40.199,12.6514 40.2234,12.6514 40.2478,12.6758 L40.542125,12.8283 L40.694625,12.9015 C40.763447,12.9441371 40.8378696,12.9769857 40.91575,12.9991 C40.9858423,13.0215988 41.0521572,13.0544993 41.112475,13.0967 C41.1925652,13.1334773 41.2745181,13.1660549 41.358,13.1943 C41.4312,13.2187 41.481525,13.2431 41.554725,13.2675 C41.707225,13.3163 41.82465,13.3651 41.972575,13.42 L41.996975,13.42 C43.1109206,13.797329 44.2780638,13.993998 45.45415,14.00255 C45.4814099,15.772937 45.645583,17.5385626 45.9452,19.283625 C46.681775,23.04275 47.7874,26.72715 48.5743,30.461875 C49.359675,34.097475 53.0212,37.290825 53.7593,40.926425 C53.9828524,41.7601438 54.3758353,42.5388418 54.913725,43.213925 C55.99495,44.7618 59.360625,46.21055 60.56385,47.685225 C60.4816315,47.8059773 60.3914567,47.9211158 60.293925,48.029875 C59.531425,47.685225 58.768925,47.3665 58.033875,47.072175 C58.255,48.69325 58.476125,50.36465 58.67285,52.058925 C58.7232983,52.5015261 58.5485215,52.9399459 58.2074132,53.2264523 C57.8663049,53.5129588 57.4042896,53.6093986 56.97705,53.483275 C56.1296388,53.3712156 55.3565637,52.9410631 54.8146,52.28005 C53.7389012,50.4404476 52.9907106,48.4280731 52.60335,46.33255 C52.2587,43.188 49.532,40.09225 47.6166,37.513475 C45.45415,34.59005 43.3466,32.2568 42.70305,29.5301 C42.112875,27.146525 41.646225,24.740075 41.130775,22.3321 L41.130775,22.3077 C41.0859589,19.9001957 40.7479684,17.5071205 40.124275,15.181375 Z" id="Path_843" fill="#F4F4F4"></path>
                <path d="M41.57455,13.24005 C41.50135,13.21565 41.451025,13.19125 41.377825,13.16685 C41.2977197,13.130108 41.2157687,13.0975312 41.1323,13.06925 C41.0622077,13.0467512 40.9958928,13.0138507 40.935575,12.97165 C40.862375,12.94725 40.783075,12.89845 40.71445,12.87405 L40.56195,12.80085 L40.267625,12.64835 C40.243225,12.62395 40.218825,12.62395 40.194425,12.59955 C39.524569,12.2284928 38.8984537,11.7834598 38.327825,11.2728 C38.2259853,11.1955283 38.1351717,11.1047147 38.0579,11.002875 L37.861175,10.80615 L37.763575,10.70855 C36.2151544,9.12013795 35.2905143,7.02724647 35.158875,4.8129 L35.137525,4.790025 C35.5983575,5.1926575 36.1320722,5.50325772 36.7098,5.705025 C38.0882457,6.34985972 39.4986677,6.92400478 40.935575,7.425225 C43.5202275,7.84308072 45.4107524,10.0882411 45.382475,12.7063 C45.406875,13.14855 45.431275,13.5664 45.455675,14.00865 C44.2858126,13.9903868 43.1258115,13.791309 42.0168,13.418475 L41.9924,13.418475 C41.8471667,13.374032 41.7070904,13.3142184 41.57455,13.24005 Z" id="Path_848" fill="#F4F4F4"></path>
                <path d="M41.106375,22.452575 C41.106375,22.476975 41.130775,22.25585 41.130775,22.28025 C41.0727562,19.8844457 40.7432853,17.5029441 40.148675,15.181375 C39.8170439,14.0247451 39.4068831,12.8920898 38.92105,11.7913 C38.92105,11.7913 38.5276,11.472575 38.330875,11.30025 C38.2290353,11.2229783 38.1382217,11.1321647 38.06095,11.030325 L37.864225,10.8336 L37.766625,10.736 C36.2158766,9.13691426 35.2840388,7.0386577 35.137525,4.81595 L35.113125,4.84035 C33.9109692,6.12541168 32.2299676,6.85474736 30.4702625,6.85474736 C28.7105574,6.85474736 27.0295558,6.12541168 25.8274,4.84035 L25.803,4.81595 C25.662567,7.04015344 24.7298354,9.14042258 23.1739,10.736 L23.0763,10.8336 L22.879575,11.030325 L22.60965,11.30025 C22.412925,11.472575 22.2162,11.6449 22.019475,11.7913 C21.5299326,12.8905981 21.1196767,14.0235159 20.79185,15.181375 C20.1728237,17.498118 19.8424454,19.8824758 19.808225,22.28025 C19.808225,22.25585 19.832625,22.23145 19.832625,22.20705 C20.372475,23.5338 20.5692,24.81175 21.01145,26.088175 C22.0169526,29.0439676 21.682802,32.2913548 20.09645,34.98045 C23.4888997,35.8568527 26.9653175,36.3680906 30.46645,36.50545 C33.9677525,36.3699237 37.4443652,35.8586571 40.83645,34.98045 C39.250098,32.2913548 38.9159474,29.0439676 39.92145,26.088175 C40.3698,24.81175 40.566525,23.754925 41.106375,22.452575 Z" id="Path_857" fill="#F4F4F4"></path>
                <path d="M38.92105,11.7669 C38.724325,11.6144 38.5276,11.448175 38.330875,11.27585 C38.2290353,11.1985783 38.1382217,11.1077647 38.06095,11.005925 L37.864225,10.8092 L37.766625,10.7116 C36.2144313,9.11257298 35.2814644,7.01366772 35.134475,4.790025 L35.110075,4.814425 C33.9079192,6.09948668 32.2269176,6.82882236 30.4672125,6.82882236 C28.7075074,6.82882236 27.0265058,6.09948668 25.82435,4.814425 L25.803,4.790025 C25.662567,7.01422844 24.7298354,9.11449758 23.1739,10.710075 L23.0763,10.807675 L22.879575,11.0044 L22.60965,11.274325 C22.412925,11.44665 22.2162,11.618975 22.019475,11.765375 C22.3382,12.0109 24.648575,20.1178 30.471025,20.1178 C35.948825,20.1178 38.602325,11.9865 38.92105,11.765375 L38.92105,11.7669 Z" id="Path_860" fill="#F4F4F4"></path>
                <path d="M20.787275,15.181375 C21.0956932,14.0173535 21.5065035,12.8829047 22.0149,11.7913 C21.6041554,12.0925016 21.17756,12.3714685 20.73695,12.627 C20.71255,12.6514 20.68815,12.6514 20.66375,12.6758 L20.369425,12.8283 L20.216925,12.9015 C20.1480938,12.9441196 20.0736737,12.9769671 19.9958,12.9991 C19.925699,13.0215774 19.8593809,13.0544793 19.799075,13.0967 C19.7189761,13.1334571 19.6370243,13.1660342 19.55355,13.1943 C19.48035,13.2187 19.430025,13.2431 19.356825,13.2675 C19.204325,13.3163 19.0869,13.3651 18.938975,13.42 L18.914575,13.42 C17.7991132,13.8005634 16.6298483,13.9998172 15.4513,14.010175 C15.4240401,15.780562 15.259867,17.5461876 14.96025,19.29125 C14.223675,23.050375 13.11805,26.734775 12.33115,30.4695 C11.54425,34.1051 7.88425,37.29845 7.14615,40.93405 C6.92267965,41.7678001 6.5296886,42.5465142 5.991725,43.22155 C4.9105,44.769425 1.544825,46.218175 0.3416,47.69285 C0.423876464,47.8135599 0.51404835,47.9286946 0.611525,48.0375 C1.374025,47.69285 2.136525,47.374125 2.871575,47.0798 C2.65045,48.700875 2.429325,50.372275 2.2326,52.06655 C2.18215169,52.5091511 2.3569285,52.9475709 2.69803679,53.2340773 C3.03914508,53.5205838 3.50116044,53.6170236 3.9284,53.4909 C4.77581115,53.3788406 5.54888628,52.9486881 6.09085,52.287675 C7.16649284,50.448046 7.91467962,48.4356816 8.3021,46.340175 C8.64675,43.195625 11.37345,40.099875 13.28885,37.5211 C15.4513,34.597675 17.55885,32.264425 18.2024,29.537725 C18.792575,27.15415 19.259225,24.7477 19.774675,22.339725 L19.774675,22.315325 C19.8208633,19.9050131 20.1609082,17.5093358 20.787275,15.181375 Z" id="Path_816" fill="#F4F4F4"></path>
                <path d="M17.154725,48.862525 C17.2799476,50.9422955 17.5510475,53.0107068 17.966025,55.0525 L29.556025,55.0525 C29.629225,54.1375 29.75275,53.2103 29.82595,52.3075 C29.8456317,52.1691318 29.853793,52.0293686 29.85035,51.88965 C25.4281098,51.9935194 21.0543123,50.9506379 17.154725,48.862525 Z" id="Path_815" fill="#F4F4F4"></path>
                <path d="M35.0384,4.765625 C34.2966218,3.85185464 33.9123466,2.69957089 33.957175,1.523475 C33.0344194,2.48298517 31.7498841,3.00898019 30.419175,2.972225 C29.1423784,2.98955321 27.9185286,2.46274883 27.0535,1.523475 C27.0335354,2.70474563 26.6377175,3.84893175 25.923475,4.790025 C27.0995693,6.06144274 28.7543326,6.78227688 30.4862909,6.77764055 C32.2182491,6.77300423 33.8691295,6.04332112 35.0384,4.765625 Z" id="Path_46_5_" fill="#676767"></path>
            </g>
        </g>
    </g>
</svg>
