<?xml version="1.0" encoding="UTF-8" standalone="no"?>
<svg width="321px" height="56px" viewBox="0 0 321 56" version="1.1" xmlns="http://www.w3.org/2000/svg" xmlns:xlink="http://www.w3.org/1999/xlink">
    <!-- Generator: Sketch 50.2 (55047) - http://www.bohemiancoding.com/sketch -->
    <title>top_core_thumbnails</title>
    <desc>Created with Sketch.</desc>
    <defs></defs>
    <g id="BodyParts-Thumbnail-Final" stroke="none" stroke-width="1" fill="none" fill-rule="evenodd">
        <g id="top_core_thumbnails">
            <text id="ALL" fill-opacity="0.775334013" fill="#686868" font-family="Muli-Bold, Muli" font-size="20" font-weight="bold">
                <tspan x="289" y="36">ALL</tspan>
            </text>
            <g id="top_core_thumbnails_1" fill-rule="nonzero">
                <path d="M17.444475,49.033725 C17.5696976,51.1134955 17.8407975,53.1819068 18.255775,55.2237 L29.845775,55.2237 C29.918975,54.3087 30.0425,53.3815 30.1157,52.4787 C30.1353817,52.3403318 30.143543,52.2005686 30.1401,52.06085 C25.7178598,52.1647194 21.3440623,51.1218379 17.444475,49.033725 Z" id="Path_477" fill="#F4F4F4"></path>
                <path d="M21.077025,15.352575 C21.3853975,14.1885392 21.7962092,13.0540865 22.30465,11.9625 C21.8939187,12.2637208 21.4673223,12.5426884 21.0267,12.7982 C21.0023,12.8226 20.9779,12.8226 20.9535,12.847 L20.659175,12.9995 L20.506675,13.0727 C20.437853,13.1153371 20.3634304,13.1481857 20.28555,13.1703 C20.2154577,13.1927988 20.1491428,13.2256993 20.088825,13.2679 C20.0087272,13.3046596 19.9267753,13.3372368 19.8433,13.3655 C19.7701,13.3899 19.719775,13.4143 19.646575,13.4387 C19.494075,13.4875 19.37665,13.5363 19.228725,13.5912 L19.204325,13.5912 C18.0888632,13.9717634 16.9195983,14.1710172 15.74105,14.181375 C15.7138145,15.9517633 15.5496412,17.7173908 15.25,19.46245 C14.513425,23.221575 13.4078,26.905975 12.6209,30.6407 C11.834,34.2763 8.174,37.46965 7.4359,41.10525 C7.21238861,41.9389844 6.81940162,42.7176905 6.281475,43.39275 C5.20025,44.940625 1.834575,46.389375 0.63135,47.86405 C0.713597575,47.984781 0.803770923,48.0999176 0.901275,48.2087 C1.663775,47.86405 2.426275,47.545325 3.161325,47.251 C2.9402,48.872075 2.719075,50.543475 2.52235,52.23775 C2.47190169,52.6803511 2.6466785,53.1187709 2.98778679,53.4052773 C3.32889508,53.6917838 3.79091044,53.7882236 4.21815,53.6621 C5.06556115,53.5500406 5.83863628,53.1198881 6.3806,52.458875 C7.45629884,50.6192726 8.20448935,48.6068981 8.59185,46.511375 C8.9365,43.366825 11.6632,40.271075 13.5786,37.6923 C15.74105,34.768875 17.8486,32.435625 18.49215,29.708925 C19.082325,27.32535 19.548975,24.9189 20.064425,22.510925 L20.064425,22.486525 C20.1106437,20.0762155 20.450688,17.6805419 21.077025,15.352575 Z" id="Path_478" fill="#F4F4F4"></path>
                <path d="M19.655725,13.41125 C19.728925,13.38685 19.77925,13.36245 19.85245,13.33805 C19.9325489,13.3012929 20.0145007,13.2687158 20.097975,13.24045 C20.1680586,13.2179298 20.2343705,13.1850309 20.2947,13.14285 C20.3679,13.11845 20.4472,13.06965 20.515825,13.04525 L20.668325,12.97205 L20.96265,12.81955 C20.98705,12.79515 21.01145,12.79515 21.03585,12.77075 C21.7056992,12.3996819 22.3318133,11.9546498 22.90245,11.444 C23.0042647,11.3666996 23.0950746,11.2758897 23.172375,11.174075 L23.3691,10.97735 L23.4667,10.87975 C25.0151206,9.2913379 25.9397607,7.19844647 26.0714,4.9841 L26.0958,4.9597 C25.6349675,5.3623325 25.1012528,5.67293272 24.523525,5.8747 C23.1450825,6.51954199 21.7346601,7.09368721 20.29775,7.5949 C17.7130975,8.01275572 15.8225726,10.2579161 15.85085,12.875975 C15.82645,13.318225 15.80205,13.736075 15.77765,14.178325 C16.9475124,14.1600618 18.1075135,13.960984 19.216525,13.58815 L19.240925,13.58815 C19.3834385,13.5396853 19.5220977,13.4805513 19.655725,13.41125 Z" id="Path_484" fill="#F4F4F4"></path>
                <path d="M44.049625,49.033725 C43.9244024,51.1134955 43.6533025,53.1819068 43.238325,55.2237 L31.648325,55.2237 C31.575125,54.3087 31.4516,53.3815 31.3784,52.4787 C31.3587183,52.3403318 31.350557,52.2005686 31.354,52.06085 C35.7762402,52.1647194 40.1500377,51.1218379 44.049625,49.033725 Z" id="Path_503" fill="#F4F4F4"></path>
                <path d="M43.9017,41.19675 C43.1078077,39.1165847 42.1807209,37.0897284 41.1262,35.128775 C34.3621916,37.1608507 27.1502084,37.1608507 20.3862,35.128775 C19.3370969,37.0924161 18.4101686,39.1189257 17.6107,41.19675 C16.7788131,43.4823339 16.3305185,45.8897274 16.28395,48.32155 C16.653,48.567075 17.04645,48.8126 17.438375,49.033725 C21.3419795,51.1125423 25.7174349,52.1449354 30.138575,52.03035 L31.3662,52.03035 C35.7873401,52.1449354 40.1627955,51.1125423 44.0664,49.033725 C44.45985,48.8126 44.8533,48.567075 45.220825,48.32155 C45.1748964,45.8903382 44.7292349,43.4832509 43.9017,41.19675 Z" id="Path_504" fill="#F4F4F4"></path>
                <path d="M34.222525,1.719075 C33.3404848,0.73398776 32.0807552,0.17102483 30.7584875,0.17102483 C29.4362198,0.17102483 28.1764902,0.73398776 27.29445,1.719075 C27.408947,2.9339796 26.9664504,4.13528201 26.091225,4.985625 L26.115625,5.010025 C27.3681645,6.21771695 29.020695,6.92323081 30.75925,6.992525 C32.496729,6.9184721 34.1476428,6.21364846 35.402875,5.010025 L35.427275,4.985625 C34.5476507,4.13806642 34.1038734,2.93481191 34.222525,1.719075 Z" id="Path_505" fill="#F4F4F4"></path>
                <path d="M40.4125,15.352575 C40.1041275,14.1885392 39.6933158,13.0540865 39.184875,11.9625 C39.5956063,12.2637208 40.0222027,12.5426884 40.462825,12.7982 C40.487225,12.8226 40.511625,12.8226 40.536025,12.847 L40.83035,12.9995 L40.98285,13.0727 C41.051672,13.1153371 41.1260946,13.1481857 41.203975,13.1703 C41.2740673,13.1927988 41.3403822,13.2256993 41.4007,13.2679 C41.4807967,13.3046621 41.5627488,13.3372393 41.646225,13.3655 C41.719425,13.3899 41.76975,13.4143 41.84295,13.4387 C41.99545,13.4875 42.112875,13.5363 42.2608,13.5912 L42.2852,13.5912 C43.4006618,13.9717634 44.5699267,14.1710172 45.748475,14.181375 C45.7757349,15.951762 45.939908,17.7173876 46.239525,19.46245 C46.9761,23.221575 48.081725,26.905975 48.868625,30.6407 C49.654,34.2763 53.315525,37.46965 54.053625,41.10525 C54.2758698,41.9327621 54.6651043,42.7060412 55.197375,43.3775 C56.2786,44.925375 59.644275,46.374125 60.8475,47.8488 C60.7652488,47.9695284 60.6750756,48.0846648 60.577575,48.19345 C59.815075,47.8488 59.052575,47.530075 58.317525,47.23575 C58.53865,48.856825 58.759775,50.528225 58.9565,52.2225 C59.0069483,52.6651011 58.8321715,53.1035209 58.4910632,53.3900273 C58.1499549,53.6765338 57.6879396,53.7729736 57.2607,53.64685 C56.4132888,53.5347906 55.6402137,53.1046381 55.09825,52.443625 C54.0225512,50.6040226 53.2743606,48.5916481 52.887,46.496125 C52.54235,43.351575 49.81565,40.255825 47.90025,37.67705 C45.7378,34.753625 43.63025,32.420375 42.9867,29.693675 C42.396525,27.3101 41.929875,24.90365 41.414425,22.495675 L41.414425,22.471275 C41.3704692,20.0665164 41.0340209,17.6760439 40.4125,15.352575 Z" id="Path_506" fill="#F4F4F4"></path>
                <path d="M41.8643,13.41125 C41.7911,13.38685 41.740775,13.36245 41.667575,13.33805 C41.5874772,13.3012904 41.5055253,13.2687132 41.42205,13.24045 C41.3519577,13.2179512 41.2856428,13.1850507 41.225325,13.14285 C41.152125,13.11845 41.072825,13.06965 41.0042,13.04525 L40.8517,12.97205 L40.557375,12.81955 C40.532975,12.79515 40.508575,12.79515 40.484175,12.77075 C39.8143258,12.3996819 39.1882117,11.9546498 38.617575,11.444 C38.5157603,11.3666996 38.4249504,11.2758897 38.34765,11.174075 L38.150925,10.97735 L38.053325,10.87975 C36.5049044,9.2913379 35.5802643,7.19844647 35.448625,4.9841 L35.427275,4.961225 C35.8881075,5.3638575 36.4218222,5.67445772 36.99955,5.876225 C38.3771118,6.51891056 39.7865124,7.09101828 41.222275,7.590325 C43.8069275,8.00818072 45.6974524,10.2533411 45.669175,12.8714 C45.693575,13.31365 45.717975,13.7315 45.742375,14.17375 C44.5725126,14.1554868 43.4125115,13.956409 42.3035,13.583575 L42.2791,13.583575 C42.135132,13.5409535 41.9960883,13.483189 41.8643,13.41125 Z" id="Path_512" fill="#F4F4F4"></path>
                <path d="M41.396125,22.623775 C41.396125,22.648175 41.420525,22.42705 41.420525,22.45145 C41.3623754,20.0556563 41.0329065,17.6741694 40.438425,15.352575 C40.1067534,14.1959582 39.6965935,13.0633057 39.2108,11.9625 C39.2108,11.9625 38.81735,11.643775 38.620625,11.47145 C38.5188103,11.3941496 38.4280004,11.3033397 38.3507,11.201525 L38.153975,11.0048 L38.056375,10.9072 C36.5056266,9.3081143 35.5737888,7.2098577 35.427275,4.98715 L35.402875,5.01155 C34.2007192,6.29661168 32.5197176,7.02594736 30.7600125,7.02594736 C29.0003074,7.02594736 27.3193058,6.29661168 26.11715,5.01155 L26.09275,4.98715 C25.952317,7.21135344 25.0195854,9.3116226 23.46365,10.9072 L23.36605,11.0048 L23.169325,11.201525 L22.8994,11.47145 C22.702675,11.643775 22.50595,11.8161 22.309225,11.9625 C21.8196633,13.0617903 21.4094069,14.1947095 21.0816,15.352575 C20.463058,17.6693764 20.1331916,20.053737 20.0995,22.45145 C20.0995,22.42705 20.1239,22.40265 20.1239,22.37825 C20.66375,23.705 20.860475,24.98295 21.302725,26.259375 C22.3082276,29.2151676 21.974077,32.4625548 20.387725,35.15165 C23.7801747,36.0280527 27.2565925,36.5392906 30.757725,36.67665 C34.2590275,36.5411237 37.7356402,36.0298571 41.127725,35.15165 C39.5411745,32.4626201 39.2070148,29.2151441 40.212725,26.259375 C40.65955,24.98295 40.856275,23.926125 41.396125,22.623775 Z" id="Path_521" fill="#F4F4F4"></path>
                <path d="M41.640125,24.343975 C41.4343721,21.3205473 41.0242265,18.3145114 40.4125,15.346475 C40.04345,14.16765 39.5524,12.7921 39.184875,11.9564 C39.184875,11.9564 38.791425,11.637675 38.5947,11.46535 C38.4928853,11.3880496 38.4020754,11.2972397 38.324775,11.195425 L38.12805,10.9987 L38.03045,10.9011 C36.4812465,9.3029656 35.5500367,7.20652758 35.402875,4.985625 L35.378475,5.010025 C34.1763192,6.29508668 32.4953176,7.02442236 30.7356125,7.02442236 C28.9759074,7.02442236 27.2949058,6.29508668 26.09275,5.010025 L26.06835,4.985625 C25.927917,7.20982844 24.9951854,9.3100976 23.43925,10.905675 L23.34165,11.003275 L23.144925,11.2 L22.875,11.469925 C22.678275,11.64225 22.48155,11.814575 22.284825,11.960975 C21.793775,13.0422 21.49945,14.196625 21.0572,15.35105 C20.3208564,18.2109904 19.9090512,21.1447826 19.829575,24.096925 C20.369425,25.423675 20.811675,24.981425 21.253925,26.259375 C22.0036031,28.0678514 22.1159976,30.0775083 21.57265,31.9583 C24.5597094,32.7742652 27.6218157,33.2852124 30.711975,33.4833 C33.8019175,33.287685 36.8637678,32.7766953 39.849775,31.9583 C39.57985,29.477125 39.1132,29.3292 40.1685,26.259375 C40.65955,24.98295 41.1018,25.646325 41.640125,24.343975 Z" id="Path_522" fill="#676767"></path>
                <path d="M39.1864,11.9625 C38.989675,11.81 38.79295,11.643775 38.596225,11.47145 C38.4944228,11.3941353 38.4036147,11.3033272 38.3263,11.201525 L38.129575,11.0048 L38.031975,10.9072 C36.4797813,9.308173 35.5468144,7.20926772 35.399825,4.985625 L35.375425,5.010025 C34.1732692,6.29508668 32.4922676,7.02442236 30.7325625,7.02442236 C28.9728574,7.02442236 27.2918558,6.29508668 26.0897,5.010025 L26.0653,4.985625 C25.924867,7.20982844 24.9921354,9.3100976 23.4362,10.905675 L23.3386,11.003275 L23.141875,11.2 L22.87195,11.469925 C22.675225,11.64225 22.4785,11.814575 22.281775,11.960975 C22.6005,12.2065 24.910875,20.3134 30.7318,20.3134 C36.234,20.3134 38.8875,12.1821 39.181825,11.960975 L39.1864,11.9625 Z" id="Path_688" stroke="#F4F4F4" stroke-width="0.3" fill="#F4F4F4"></path>
            </g>
            <g id="top_core_thumbnails_2" transform="translate(69.000000, 0.000000)" fill-rule="nonzero">
                <path d="M17.5461789,49.5842565 C17.6704478,51.6884444 17.9393431,53.7811415 18.3508829,55.8469232 L29.8466553,55.8469232 C29.9192602,54.9211779 30.0417809,53.9830895 30.1143858,53.0696875 C30.1339074,52.9296943 30.1420024,52.7882898 30.1385874,52.6469304 C25.7523004,52.7520196 21.4140622,51.6968911 17.5461789,49.5842565 Z" id="Path_533" fill="#F4F4F4"></path>
                <path d="M21.1476833,15.5075736 C21.4535487,14.329868 21.8610205,13.1820929 22.3653276,12.0776875 C21.9579224,12.3824261 21.5347952,12.6646691 21.0977674,12.9232014 C21.0735659,12.947888 21.0493642,12.947888 21.0251626,12.9725745 L20.7332305,13.1268654 L20.5819703,13.200925 C20.5137079,13.2440628 20.4398903,13.2772972 20.3626431,13.2996712 C20.293112,13.3224125 20.2273331,13.3557008 20.1675174,13.3984173 C20.0880698,13.4356061 20.0067843,13.4685658 19.9239887,13.4971636 C19.8513837,13.52185 19.8014679,13.5465366 19.728863,13.5712231 C19.5776028,13.6205962 19.4611326,13.6699693 19.3144102,13.725514 L19.2902085,13.725514 C18.1838155,14.1105465 17.0240569,14.3121403 15.8550902,14.3226197 C15.8281004,16.1137997 15.6652617,17.9001638 15.3680326,19.6657128 C14.6374459,23.4689829 13.5408098,27.1966504 12.7603074,30.975234 C11.9798048,34.6535284 8.34956098,37.8843795 7.61746179,41.5626739 C7.39576756,42.4061992 7.00597559,43.1940499 6.47242235,43.877037 C5.3999878,45.4430895 2.06167602,46.9088528 0.868233333,48.4008455 C0.949783358,48.5230159 1.03922506,48.6395065 1.13596382,48.7495429 C1.89226463,48.4008455 2.64856545,48.0783776 3.37763943,47.7805962 C3.1583122,49.4207082 2.93898496,51.1117363 2.74385935,52.8259079 C2.69382119,53.2737067 2.86717704,53.717275 3.2055121,54.007146 C3.54384715,54.297017 4.00210629,54.3945894 4.42587235,54.2669846 C5.26639399,54.1536093 6.03318396,53.7184053 6.57074146,53.0496296 C7.63763924,51.188397 8.3797432,49.1524005 8.76401382,47.0322855 C9.10434919,43.8508076 11.8103935,40.7187028 13.7102211,38.1096441 C15.8550902,35.151888 17.9455057,32.7912376 18.5838235,30.0325167 C19.1692004,27.6209503 19.6320565,25.1862403 20.1433159,22.7499873 L20.1433159,22.7253008 C20.1890836,20.2866798 20.5263646,17.8628635 21.1476833,15.5075736 Z" id="Path_534" fill="#F4F4F4"></path>
                <path d="M19.713737,13.5434508 C19.7863419,13.5187642 19.8362578,13.4940776 19.9088626,13.4693912 C19.9883113,13.4322049 20.0695968,13.3992453 20.1523915,13.370645 C20.2219053,13.3478603 20.287678,13.314575 20.3475171,13.2718988 C20.420122,13.2472123 20.4987772,13.1978392 20.5668443,13.1731526 L20.7181045,13.0990931 L21.0100366,12.9448022 C21.0342382,12.9201156 21.0584398,12.9201156 21.0826415,12.895429 C21.7470515,12.5200144 22.3680765,12.0697552 22.9340659,11.5530985 C23.0350528,11.4748902 23.1251244,11.3830139 23.2017963,11.2800036 L23.396922,11.0809684 L23.4937285,10.9822222 C25.0295603,9.37515673 25.946683,7.25768749 26.077252,5.01733695 L26.1014537,4.9926504 C25.6443678,5.4000112 25.1149923,5.71425894 24.5419613,5.91839566 C23.1747299,6.57082013 21.7757739,7.151708 20.3505422,7.65879675 C17.7869032,8.08155954 15.9117484,10.3530859 15.9397959,13.0018898 C15.9155943,13.4493333 15.8913926,13.8720903 15.8671911,14.3195339 C17.0275423,14.3010562 18.1781126,14.0996405 19.2781078,13.7224282 L19.3023093,13.7224282 C19.4452888,13.6778279 19.5832082,13.6178308 19.713737,13.5434508 Z" id="Path_539" fill="#F4F4F4"></path>
                <path d="M43.9335142,49.5842565 C43.8093097,51.6884507 43.5404138,53.7811523 43.1288102,55.8469232 L31.6330378,55.8469232 C31.5604329,54.9211779 31.4379122,53.9830895 31.3653074,53.0696875 C31.3457856,52.9296943 31.3376906,52.7882898 31.3411057,52.6469304 C35.7273927,52.7520196 40.0656308,51.6968911 43.9335142,49.5842565 Z" id="Path_558" fill="#F4F4F4"></path>
                <path d="M43.7641028,41.6552484 C42.9766611,39.5506564 42.0571117,37.4999981 41.0111679,35.5160145 C34.3021513,37.5719537 27.1488022,37.5719537 20.4397858,35.5160145 C19.3992292,37.5027242 18.4798375,39.5530308 17.6868508,41.6552484 C16.861754,43.9676805 16.417105,46.4033405 16.3708874,48.8637182 C16.736937,49.1121265 17.1271882,49.3605347 17.5159268,49.5842565 C21.3877948,51.6874864 25.7276773,52.7320033 30.1128732,52.6160722 L31.3305174,52.6160722 C35.7157134,52.7320033 40.0555959,51.6874864 43.9274639,49.5842565 C44.317715,49.3605347 44.7064537,49.1121265 45.0725033,48.8637182 C45.0269755,46.4039527 44.5849365,43.9685933 43.7641028,41.6552484 Z" id="Path_559" fill="#F4F4F4"></path>
                <path d="M34.1636204,1.71396929 C33.2887512,0.717313727 32.0392632,0.147739667 30.7277457,0.147739667 C29.4162282,0.147739667 28.1667402,0.717313727 27.2918711,1.71396929 C27.4056607,2.94317073 26.9667272,4.15867617 26.0984285,5.01887986 L26.12263,5.04356639 C27.3649863,6.26544081 29.0040816,6.97923985 30.728502,7.04934779 C32.4518552,6.97442525 34.089347,6.26132455 35.334374,5.04356639 L35.3585756,5.01887986 C34.4958747,4.15488998 34.0574888,2.9424377 34.1636204,1.71396929 Z" id="Path_560" fill="#F4F4F4"></path>
                <path d="M40.327472,15.5075736 C40.0216065,14.329868 39.6141347,13.1820929 39.1098276,12.0776875 C39.5172329,12.3824261 39.94036,12.6646691 40.3773878,12.9232014 C40.4015894,12.947888 40.4257911,12.947888 40.4499926,12.9725745 L40.7419248,13.1268654 L40.893185,13.200925 C40.9614383,13.2440807 41.0352583,13.2773162 41.1125122,13.2996712 C41.1820346,13.3224342 41.2478104,13.355721 41.3076378,13.3984173 C41.3870769,13.4356266 41.4683634,13.4685867 41.5511667,13.4971636 C41.6237715,13.52185 41.6736874,13.5465366 41.7462922,13.5712231 C41.8975524,13.6205962 42.0140228,13.6699693 42.1607452,13.725514 L42.1849467,13.725514 C43.2913397,14.1105465 44.4510984,14.3121403 45.620065,14.3226197 C45.6471033,16.1137972 45.8099416,17.9001572 46.1071228,19.6657128 C46.8377093,23.4689829 47.9343455,27.1966504 48.714848,30.975234 C49.4953504,34.6535284 53.1255943,37.8843795 53.8576935,41.5626739 C54.0781314,42.3999038 54.4642015,43.1822639 54.9921447,43.861608 C56.0645793,45.4276603 59.4028911,46.8934236 60.5963337,48.3854165 C60.5147549,48.5075652 60.4253146,48.624054 60.3286033,48.7341139 C59.5723024,48.3854165 58.8160016,48.0629485 58.0869276,47.7651671 C58.3062548,49.4052792 58.5255821,51.0963071 58.7207078,52.8104787 C58.7707458,53.2582775 58.5973901,53.7018459 58.259055,53.9917169 C57.9207199,54.2815879 57.4624608,54.3791603 57.0386947,54.2515556 C56.1981731,54.1381802 55.4313831,53.7029762 54.8938256,53.0342006 C53.8268722,51.1729949 53.0847646,49.1369881 52.7005533,47.0168563 C52.3587053,43.8353785 49.6541735,40.7032737 47.7543459,38.094215 C45.6094768,35.1364589 43.5190613,32.7758085 42.8807435,30.0170876 C42.2953667,27.6055213 41.8325106,25.1708112 41.3212513,22.7345583 L41.3212513,22.7098717 C41.2777127,20.2768681 40.9439988,17.8583159 40.327472,15.5075736 Z" id="Path_561" fill="#F4F4F4"></path>
                <path d="M41.7417545,13.5434508 C41.6691496,13.5187642 41.6192337,13.4940776 41.5466289,13.4693912 C41.4671801,13.4322049 41.3858947,13.3992453 41.3031,13.370645 C41.2335861,13.3478603 41.1678135,13.314575 41.1079744,13.2718988 C41.0353695,13.2472123 40.9567142,13.1978392 40.8886472,13.1731526 L40.737387,13.0990931 L40.4454548,12.9448022 C40.4212533,12.9201156 40.3970516,12.9201156 40.37285,12.895429 C39.7084399,12.5200144 39.087415,12.0697552 38.5214256,11.5530985 C38.4204139,11.4749192 38.3303386,11.3830393 38.2536952,11.2800036 L38.0585695,11.0809684 L37.961763,10.9822222 C36.4259312,9.37515673 35.5088085,7.25768749 35.3782394,5.01733695 L35.357063,4.99419332 C35.8141489,5.40155412 36.3435244,5.71580185 36.9165553,5.91993858 C38.2837941,6.57234588 39.6827493,7.15323338 41.1079744,7.66033966 C43.6716135,8.08310244 45.5467682,10.3546288 45.5187207,13.0034327 C45.5429224,13.4508762 45.567124,13.8736332 45.5913256,14.3210768 C44.4309743,14.3025991 43.280404,14.1011834 42.1804089,13.7239711 L42.1562074,13.7239711 C42.0336866,13.6684264 41.8869642,13.6190533 41.7417545,13.5434508 Z" id="Path_566" fill="#F4F4F4"></path>
                <path d="M41.4483098,24.6045637 C41.3971681,21.7374187 41.0709061,18.8822714 40.4741943,16.0799928 C40.0650247,14.7176366 39.5771127,13.381195 39.0130211,12.0776875 L39.1098276,12.0776875 C39.1098276,12.0776875 38.62277,11.7552195 38.4276443,11.5808708 C38.3266821,11.5026337 38.2366141,11.4107611 38.1599139,11.3077759 L37.9647882,11.1087407 L37.8679817,11.0099946 C36.3298411,9.39213001 35.4055791,7.26923272 35.2602565,5.02042276 L35.2360548,5.04510931 C34.0436727,6.34526204 32.3763377,7.08316264 30.6309392,7.08316264 C28.8855407,7.08316264 27.2182057,6.34526204 26.0258235,5.04510931 L26.001622,5.02042276 C25.862463,7.27077911 24.937295,9.39575747 23.3938967,11.0099946 L23.2970902,11.1087407 L23.1019646,11.3077759 L22.8342341,11.5808708 C22.6391085,11.7552195 22.4439829,11.9295682 22.2488574,12.0776875 C21.7617996,13.1716097 21.4698674,14.3395917 21.031213,15.5075736 C20.3008307,18.4010945 19.8923731,21.3693425 19.8135687,24.3561554 C20.3490296,25.698486 20.7876841,25.2510424 21.2263387,26.544 C22.2745715,29.6514182 22.1036476,33.2541102 18.9120581,38.4737705 C22.7102908,39.6551851 26.6401752,40.3400524 30.6074939,40.5119531 C34.6137136,40.3281895 38.5826903,39.6436803 42.4254504,38.4737705 C39.5257931,33.3281698 38.6242826,30.0232593 40.0128508,26.544 C40.5407487,25.275729 40.9128487,25.9222077 41.4483098,24.6045637 Z" id="Path_576" fill="#676767"></path>
                <path d="M39.085626,12.0776875 C38.8905004,11.9233966 38.6953748,11.7552195 38.5002492,11.5808708 C38.3992374,11.5026916 38.3091623,11.4108117 38.2325187,11.3077759 L38.0373931,11.1087407 L37.9405866,11.0099946 C36.4010123,9.39218944 35.4756305,7.26863582 35.3298361,5.01887986 L35.3056346,5.04356639 C34.1132524,6.34371913 32.4459175,7.08161973 30.7005189,7.08161973 C28.9551204,7.08161973 27.2877853,6.34371913 26.0954033,5.04356639 L26.0712016,5.01887986 C25.9319104,7.26920312 25.006762,9.39413668 23.4634765,11.0084517 L23.36667,11.1071978 L23.1715443,11.306233 L22.9038139,11.5793279 C22.7086882,11.7536766 22.5135626,11.9280253 22.318437,12.0761446 C22.6345707,12.3245528 24.9261622,20.5266559 30.6997626,20.5266559 C36.1330276,20.5266559 38.7649545,12.2998663 39.0810882,12.0761446 L39.085626,12.0776875 Z" id="Path_689" stroke="#F4F4F4" stroke-width="0.3" fill="#F4F4F4" stroke-linejoin="bevel"></path>
            </g>
            <g id="top_core_thumbnails_3" transform="translate(138.000000, 0.000000)" fill-rule="nonzero">
                <path d="M17.5461789,49.5842565 C17.6703833,51.6884507 17.9392792,53.7811523 18.3508829,55.8469232 L29.8466553,55.8469232 C29.9192602,54.9211779 30.0417809,53.9830895 30.1143858,53.0696875 C30.1339074,52.9296943 30.1420024,52.7882898 30.1385874,52.6469304 C25.7523004,52.7520196 21.4140622,51.6968911 17.5461789,49.5842565 Z" id="Path_588" fill="#F4F4F4"></path>
                <path d="M21.1476833,15.5075736 C21.4535487,14.329868 21.8610205,13.1820929 22.3653276,12.0776875 C21.9579339,12.3824432 21.5348059,12.6646867 21.0977674,12.9232014 C21.0735659,12.947888 21.0493642,12.947888 21.0251626,12.9725745 L20.7332305,13.1268654 L20.5819703,13.200925 C20.5136986,13.2440451 20.4398837,13.2772784 20.3626431,13.2996712 C20.2931206,13.3224342 20.2273448,13.355721 20.1675174,13.3984173 C20.0880784,13.4356266 20.0067918,13.4685867 19.9239887,13.4971636 C19.8513837,13.52185 19.8014679,13.5465366 19.728863,13.5712231 C19.5776028,13.6205962 19.4611326,13.6699693 19.3144102,13.725514 L19.2902085,13.725514 C18.1838155,14.1105465 17.0240569,14.3121403 15.8550902,14.3226197 C15.828052,16.1137972 15.6652137,17.9001572 15.3680326,19.6657128 C14.6374459,23.4689829 13.5408098,27.1966504 12.7603074,30.975234 C11.9813174,34.6535284 8.34956098,37.8843795 7.61746179,41.5626739 C7.39572688,42.4061833 7.00593894,43.194026 6.47242235,43.877037 C5.3999878,45.4430895 2.06167602,46.9088528 0.868233333,48.4008455 C0.949815822,48.5229917 1.03925587,48.6394802 1.13596382,48.7495429 C1.89226463,48.4008455 2.64856545,48.0783776 3.37763943,47.7805962 C3.1583122,49.4207082 2.93898496,51.1117363 2.74385935,52.8259079 C2.69382119,53.2737067 2.86717704,53.717275 3.2055121,54.007146 C3.54384715,54.297017 4.00210629,54.3945894 4.42587235,54.2669846 C5.26634548,54.1534598 6.033085,53.7182845 6.57074146,53.0496296 C7.63769478,51.1884239 8.37980245,49.1524172 8.76401382,47.0322855 C9.10586179,43.8508076 11.8103935,40.7187028 13.7102211,38.1096441 C15.8550902,35.151888 17.9455057,32.7912376 18.5838235,30.0325167 C19.1692004,27.6209503 19.6320565,25.1862403 20.1433159,22.7499873 L20.1433159,22.7253008 C20.1891287,20.2866835 20.5264089,17.8628727 21.1476833,15.5075736 Z" id="Path_589" fill="#F4F4F4"></path>
                <path d="M19.713737,13.5434508 C19.7863419,13.5187642 19.8362578,13.4940776 19.9088626,13.4693912 C19.9883167,13.4322177 20.0696014,13.3992582 20.1523915,13.370645 C20.2219139,13.347882 20.2876897,13.3145952 20.3475171,13.2718988 C20.420122,13.2472123 20.4987772,13.1978392 20.5668443,13.1731526 L20.7181045,13.0990931 L21.0100366,12.9448022 C21.0342382,12.9201156 21.0584398,12.9201156 21.0826415,12.895429 C21.7470515,12.5200144 22.3680765,12.0697552 22.9340659,11.5530985 C23.0350776,11.4749192 23.1251529,11.3830393 23.2017963,11.2800036 L23.396922,11.0809684 L23.4937285,10.9822222 C25.0295603,9.37515673 25.946683,7.25768749 26.077252,5.01733695 L26.1014537,4.9926504 C25.6443897,5.40004232 25.1150079,5.71429374 24.5419613,5.91839566 C23.1747226,6.57080296 21.7757674,7.15169048 20.3505422,7.65879675 C17.7869032,8.08155954 15.9117484,10.3530859 15.9397959,13.0018898 C15.9155943,13.4493333 15.8913926,13.8720903 15.8671911,14.3195339 C17.0275423,14.3010562 18.1781126,14.0996405 19.2781078,13.7224282 L19.3023093,13.7224282 C19.4452614,13.6777513 19.583173,13.6177576 19.713737,13.5434508 Z" id="Path_594" fill="#F4F4F4"></path>
                <path d="M43.9335142,49.5842565 C43.8093097,51.6884507 43.5404138,53.7811523 43.1288102,55.8469232 L31.6330378,55.8469232 C31.5604329,54.9211779 31.4379122,53.9830895 31.3653074,53.0696875 C31.3458271,52.9296901 31.3377323,52.788289 31.3411057,52.6469304 C35.7273927,52.7520196 40.0656308,51.6968911 43.9335142,49.5842565 Z" id="Path_613" fill="#F4F4F4"></path>
                <path d="M43.7625902,41.6552484 C42.9751215,39.550668 42.0555728,37.5000114 41.0096553,35.5160145 C34.3006257,37.5718628 27.1473027,37.5718628 20.4382732,35.5160145 C19.3977166,37.5027242 18.4783249,39.5530308 17.6853382,41.6552484 C16.8602146,43.967673 16.4155646,46.4033376 16.3693748,48.8637182 C16.7354244,49.1121265 17.1256756,49.3605347 17.5144142,49.5842565 C21.3862822,51.6874864 25.7261647,52.7320033 30.1113606,52.6160722 L31.3290048,52.6160722 C35.7142008,52.7320033 40.0540833,51.6874864 43.9259513,49.5842565 C44.3162024,49.3605347 44.7064537,49.1121265 45.0709907,48.8637182 C45.0254629,46.4039527 44.5834239,43.9685933 43.7625902,41.6552484 Z" id="Path_614" fill="#F4F4F4"></path>
                <path d="M34.1636203,1.71396929 C33.2452037,0.780509364 32.0229069,0.223270641 30.728502,0.147916896 C29.4354399,0.22887367 28.2149973,0.78526701 27.2933837,1.71396929 C27.4069499,2.94314106 26.9680508,4.15855091 26.0999411,5.01887986 L26.1241426,5.04356639 C27.3664989,6.26544081 29.0055942,6.97923985 30.7300146,7.04934779 C32.4533678,6.97442525 34.0908595,6.26132455 35.3358866,5.04356639 L35.3600882,5.01887986 C34.496834,4.15516985 34.0578797,2.9426804 34.1636203,1.71396929 Z" id="Path_615" fill="#F4F4F4"></path>
                <path d="M40.327472,15.5075736 C40.0216065,14.329868 39.6141347,13.1820929 39.1098276,12.0776875 C39.5172329,12.3824261 39.94036,12.6646691 40.3773878,12.9232014 C40.4015894,12.947888 40.4257911,12.947888 40.4499926,12.9725745 L40.7419248,13.1268654 L40.893185,13.200925 C40.9614474,13.2440628 41.035265,13.2772972 41.1125122,13.2996712 C41.1820346,13.3224342 41.2478104,13.355721 41.3076378,13.3984173 C41.3870834,13.4356112 41.4683691,13.468571 41.5511667,13.4971636 C41.6237715,13.52185 41.6736874,13.5465366 41.7462922,13.5712231 C41.8975524,13.6205962 42.0140228,13.6699693 42.1607452,13.725514 L42.1849467,13.725514 C43.2913397,14.1105465 44.4510984,14.3121403 45.620065,14.3226197 C45.6470247,16.1138015 45.8098637,17.9001678 46.1071228,19.6657128 C46.8377093,23.4689829 47.9343455,27.1966504 48.714848,30.975234 C49.4953504,34.6535284 53.1255943,37.8843795 53.8576935,41.5626739 C54.0781715,42.3998882 54.4642376,43.1822404 54.9921447,43.861608 C56.0645793,45.4276603 59.4028911,46.8934236 60.5963337,48.3854165 C60.5147549,48.5075652 60.4253146,48.624054 60.3286033,48.7341139 C59.5723024,48.3854165 58.8160016,48.0629485 58.0869276,47.7651671 C58.3062548,49.4052792 58.5255821,51.0963071 58.7207078,52.8104787 C58.7707458,53.2582775 58.5973901,53.7018459 58.259055,53.9917169 C57.9207199,54.2815879 57.4624608,54.3791603 57.0386947,54.2515556 C56.1981731,54.1381802 55.4313831,53.7029762 54.8938256,53.0342006 C53.8268445,51.1730082 53.084735,49.1369964 52.7005533,47.0168563 C52.3587053,43.8353785 49.6541735,40.7032737 47.7543459,38.094215 C45.6094768,35.1364589 43.5190613,32.7758085 42.8807435,30.0170876 C42.2953667,27.6055213 41.8325106,25.1708112 41.3212513,22.7345583 L41.3212513,22.7098717 C41.2776228,20.2768753 40.9439104,17.8583341 40.327472,15.5075736 Z" id="Path_616" fill="#F4F4F4"></path>
                <path d="M41.7417545,13.5434508 C41.6691496,13.5187642 41.6192337,13.4940776 41.5466289,13.4693912 C41.4671823,13.4321998 41.3858966,13.3992401 41.3031,13.370645 C41.2335775,13.347882 41.1678018,13.3145952 41.1079744,13.2718988 C41.0353695,13.2472123 40.9567142,13.1978392 40.8886472,13.1731526 L40.737387,13.0990931 L40.4454548,12.9448022 C40.4212533,12.9201156 40.3970516,12.9201156 40.37285,12.895429 C39.7084399,12.5200144 39.087415,12.0697552 38.5214256,11.5530985 C38.4204387,11.4748902 38.3303671,11.3830139 38.2536952,11.2800036 L38.0585695,11.0809684 L37.961763,10.9822222 C36.4258171,9.37523533 35.5086747,7.25772055 35.3782394,5.01733695 L35.357063,4.99419332 C35.8141489,5.40155412 36.3435244,5.71580185 36.9165553,5.91993858 C38.2837878,6.57236058 39.6827437,7.15324841 41.1079744,7.66033966 C43.6716135,8.08310244 45.5467682,10.3546288 45.5187207,13.0034327 C45.5429224,13.4508762 45.567124,13.8736332 45.5913256,14.3210768 C44.4309743,14.3025991 43.280404,14.1011834 42.1804089,13.7239711 L42.1562074,13.7239711 C42.0336866,13.6684264 41.8869642,13.6190533 41.7417545,13.5434508 Z" id="Path_621" fill="#F4F4F4"></path>
                <path d="M41.4483098,24.6045637 C41.2442342,21.54563 40.8374232,18.5042926 40.2306654,15.501402 C39.8646159,14.3087335 39.3775581,12.9170298 39.0130211,12.0715158 C39.0130211,12.0715158 38.62277,11.7490479 38.4276443,11.5746992 C38.3266821,11.496462 38.2366141,11.4045895 38.1599139,11.3016043 L37.9647882,11.1025691 L37.8679817,11.003823 C36.3298411,9.3859584 35.4055791,7.26306109 35.2602565,5.01425113 L35.2360548,5.03893767 C34.0436727,6.33909041 32.3763377,7.07699101 30.6309392,7.07699101 C28.8855407,7.07699101 27.2182057,6.33909041 26.0258235,5.03893767 L26.001622,5.01425113 C25.8623307,7.2645744 24.9371823,9.38950797 23.3938967,11.003823 L23.2970902,11.1025691 L23.1019646,11.3016043 L22.8342341,11.5746992 C22.6391085,11.7490479 22.4439829,11.9233966 22.2488574,12.0715158 C21.7617996,13.1654381 21.4683548,14.3334201 21.031213,15.501402 C20.3008307,18.3949229 19.8923731,21.3631708 19.8135687,24.3499838 C20.6693822,29.0594567 20.3574041,33.9124497 18.9060078,38.4675989 C22.7042405,39.6490135 26.6341248,40.3338807 30.6014435,40.5057813 C34.6076632,40.3220178 38.5766399,39.6375087 42.4194,38.4675989 C40.8432691,33.2787968 40.9128487,25.9222077 41.4483098,24.6045637 Z" id="Path_631" fill="#676767"></path>
                <path d="M39.1098276,12.0776875 C38.914702,11.9233966 38.7195765,11.7552195 38.5244508,11.5808708 C38.423439,11.5026916 38.3333638,11.4108117 38.2567203,11.3077759 L38.0615947,11.1087407 L37.9647882,11.0099946 C36.425214,9.39218944 35.4998322,7.26863582 35.3540378,5.01887986 L35.3298361,5.04356639 C34.137454,6.34371913 32.470119,7.08161973 30.7247205,7.08161973 C28.979322,7.08161973 27.311987,6.34371913 26.1196048,5.04356639 L26.0954033,5.01887986 C25.956112,7.26920312 25.0309636,9.39413668 23.487678,11.0084517 L23.3908715,11.1071978 L23.1957459,11.306233 L22.9280154,11.5793279 C22.7328898,11.7536766 22.5377642,11.9280253 22.3426387,12.0761446 C22.6587724,12.3245528 24.9503639,20.5266559 30.7239642,20.5266559 C36.1814309,20.5266559 38.7891561,12.2998663 39.1052898,12.0761446 L39.1098276,12.0776875 Z" id="Path_690" stroke="#F4F4F4" stroke-width="0.3" fill="#F4F4F4" stroke-linejoin="bevel"></path>
            </g>
            <g id="top_core_thumbnails_4" transform="translate(207.000000, 0.000000)" fill-rule="nonzero">
                <path d="M16.868025,48.862525 C16.9933125,50.9422893 17.2644119,53.010696 17.679325,55.0525 L29.269325,55.0525 C29.342525,54.1375 29.46605,53.2103 29.53925,52.3075 C29.5589317,52.1691318 29.567093,52.0293686 29.56365,51.88965 C25.1414098,51.9935194 20.7676123,50.9506379 16.868025,48.862525 Z" id="Path_643" fill="#F4F4F4"></path>
                <path d="M20.500575,15.181375 C20.8089475,14.0173392 21.2197592,12.8828865 21.7282,11.7913 C21.3174687,12.0925208 20.8908723,12.3714884 20.45025,12.627 C20.42585,12.6514 20.40145,12.6514 20.37705,12.6758 L20.082725,12.8283 L19.930225,12.9015 C19.8613938,12.9441196 19.7869737,12.9769671 19.7091,12.9991 C19.6390077,13.0215988 19.5726928,13.0544993 19.512375,13.0967 C19.4322793,13.1334647 19.3503272,13.1660419 19.26685,13.1943 C19.19365,13.2187 19.143325,13.2431 19.070125,13.2675 C18.917625,13.3163 18.8002,13.3651 18.652275,13.42 L18.627875,13.42 C17.5124067,13.8005378 16.343146,13.999791 15.1646,14.010175 C15.1372914,15.7805593 14.9731187,17.5461812 14.67355,19.29125 C13.936975,23.050375 12.83135,26.734775 12.04445,30.4695 C11.25755,34.1051 7.59755,37.29845 6.85945,40.93405 C6.6358976,41.7677688 6.24291466,42.5464668 5.705025,43.22155 C4.6238,44.769425 1.258125,46.218175 0.0549,47.69285 C0.137151198,47.8135784 0.227324362,47.9287148 0.324825,48.0375 C1.087325,47.69285 1.849825,47.374125 2.584875,47.0798 C2.36375,48.700875 2.142625,50.372275 1.9459,52.06655 C1.89545169,52.5091511 2.0702285,52.9475709 2.41133679,53.2340773 C2.75244508,53.5205838 3.21446044,53.6170236 3.6417,53.4909 C4.48906225,53.3786929 5.26208652,52.9485686 5.80415,52.287675 C6.87984884,50.4480726 7.62803935,48.4356981 8.0154,46.340175 C8.358525,43.195625 11.08675,40.099875 13.00215,37.5211 C15.1646,34.597675 17.27215,32.264425 17.9157,29.537725 C18.505875,27.15415 18.972525,24.7477 19.487975,22.339725 L19.487975,22.315325 C19.5341178,19.9050094 19.8741635,17.5093267 20.500575,15.181375 Z" id="Path_644" fill="#F4F4F4"></path>
                <path d="M19.054875,13.24005 C19.128075,13.21565 19.1784,13.19125 19.2516,13.16685 C19.3317,13.1300954 19.4136516,13.0975184 19.497125,13.06925 C19.5672,13.0467085 19.6335087,13.0138111 19.69385,12.97165 C19.76705,12.94725 19.84635,12.89845 19.914975,12.87405 L20.067475,12.80085 L20.3618,12.64835 C20.3862,12.62395 20.4106,12.62395 20.435,12.59955 C21.104856,12.2284928 21.7309713,11.7834598 22.3016,11.2728 C22.4034147,11.1954996 22.4942246,11.1046897 22.571525,11.002875 L22.76825,10.80615 L22.86585,10.70855 C24.4142706,9.12013795 25.3389107,7.02724647 25.47055,4.8129 L25.49495,4.7885 C25.0340955,5.19110176 24.500387,5.50169835 23.922675,5.7035 C22.5442356,6.34834926 21.1338129,6.92249463 19.6969,7.4237 C17.1122475,7.84155572 15.2217226,10.0867161 15.25,12.704775 C15.2256,13.147025 15.2012,13.564875 15.1768,14.007125 C16.3466601,13.9888374 17.5066575,13.7897602 18.615675,13.41695 L18.640075,13.41695 C18.7841988,13.3727917 18.9232408,13.3134943 19.054875,13.24005 Z" id="Path_649" fill="#F4F4F4"></path>
                <path d="M43.473175,48.862525 C43.3479974,50.9422998 43.076897,53.0107142 42.661875,55.0525 L31.071875,55.0525 C30.998675,54.1375 30.87515,53.2103 30.80195,52.3075 C30.7822683,52.1691318 30.774107,52.0293686 30.77755,51.88965 C35.1997902,51.9935194 39.5735877,50.9506379 43.473175,48.862525 Z" id="Path_668" fill="#F4F4F4"></path>
                <path d="M43.30085,41.02555 C42.5070709,38.9453373 41.5799808,36.9184738 40.52535,34.957575 C33.7613416,36.9896507 26.5493584,36.9896507 19.78535,34.957575 C18.7362955,36.9212402 17.8093687,38.9477467 17.00985,41.02555 C16.1779901,43.3111413 15.7296964,45.7185302 15.6831,48.15035 C16.05215,48.395875 16.4456,48.6414 16.837525,48.862525 C20.7411295,50.9413423 25.1165849,51.9737354 29.537725,51.85915 L30.766875,51.85915 C35.1880151,51.9737354 39.5634705,50.9413423 43.467075,48.862525 C43.860525,48.6414 44.253975,48.395875 44.6215,48.15035 C44.5753034,45.7190305 44.1291196,43.3119048 43.30085,41.02555 Z" id="Path_669" fill="#F4F4F4"></path>
                <path d="M33.6232,1.547875 C32.7411598,0.562787763 31.4814302,-0.000175166266 30.1591625,-0.000175166266 C28.8368948,-0.000175166266 27.5771652,0.562787763 26.695125,1.547875 C26.8098472,2.76280892 26.3673159,3.96420583 25.4919,4.814425 L25.5163,4.838825 C26.7688395,6.04651695 28.42137,6.75203081 30.159925,6.821325 C31.897404,6.7472721 33.5483178,6.04244846 34.80355,4.838825 L34.82795,4.814425 C33.9581778,3.96046358 33.5161986,2.7620844 33.6232,1.547875 Z" id="Path_670" fill="#F4F4F4"></path>
                <path d="M39.837575,15.181375 C39.5291187,14.0173654 39.1183096,12.88292 38.60995,11.7913 C39.0206813,12.0925208 39.4472777,12.3714884 39.8879,12.627 C39.9123,12.6514 39.9367,12.6514 39.9611,12.6758 L40.255425,12.8283 L40.407925,12.9015 C40.4767562,12.9441196 40.5511763,12.9769671 40.62905,12.9991 C40.6991598,13.0215558 40.765481,13.0544593 40.825775,13.0967 C40.9058739,13.1334571 40.9878257,13.1660342 41.0713,13.1943 C41.1445,13.2187 41.194825,13.2431 41.268025,13.2675 C41.420525,13.3163 41.53795,13.3651 41.685875,13.42 L41.710275,13.42 C42.8257433,13.8005378 43.995004,13.999791 45.17355,14.010175 C45.2008586,15.7805593 45.3650313,17.5461812 45.6646,19.29125 C46.401175,23.050375 47.5068,26.734775 48.2937,30.4695 C49.079075,34.1051 52.7406,37.29845 53.4787,40.93405 C53.7022524,41.7677688 54.0952353,42.5464668 54.633125,43.22155 C55.71435,44.769425 59.080025,46.218175 60.28325,47.69285 C60.2009988,47.8135784 60.1108256,47.9287148 60.013325,48.0375 C59.250825,47.69285 58.488325,47.374125 57.753275,47.0798 C57.9744,48.700875 58.195525,50.372275 58.39225,52.06655 C58.4426983,52.5091511 58.2679215,52.9475709 57.9268132,53.2340773 C57.5857049,53.5205838 57.1236896,53.6170236 56.69645,53.4909 C55.8490878,53.3786929 55.0760635,52.9485686 54.534,52.287675 C53.4583852,50.4480328 52.7102002,48.4356733 52.32275,46.340175 C51.979625,43.195625 49.2514,40.099875 47.336,37.5211 C45.17355,34.597675 43.066,32.264425 42.42245,29.537725 C41.832275,27.15415 41.365625,24.7477 40.850175,22.339725 L40.850175,22.315325 C40.8040322,19.9050094 40.4639865,17.5093267 39.837575,15.181375 Z" id="Path_671" fill="#F4F4F4"></path>
                <path d="M41.26345,13.24005 C41.19025,13.21565 41.139925,13.19125 41.066725,13.16685 C40.986625,13.1300954 40.9046734,13.0975184 40.8212,13.06925 C40.7511077,13.0467512 40.6847928,13.0138507 40.624475,12.97165 C40.551275,12.94725 40.471975,12.89845 40.40335,12.87405 L40.25085,12.80085 L39.956525,12.64835 C39.932125,12.62395 39.907725,12.62395 39.883325,12.59955 C39.213469,12.2284928 38.5873537,11.7834598 38.016725,11.2728 C37.9149103,11.1954996 37.8241004,11.1046897 37.7468,11.002875 L37.550075,10.80615 L37.452475,10.70855 C35.9040544,9.12013795 34.9794143,7.02724647 34.847775,4.8129 L34.826425,4.790025 C35.2872354,5.19268826 35.8209563,5.50329211 36.3987,5.705025 C37.7771394,6.34987426 39.1875621,6.92401963 40.624475,7.425225 C43.2091275,7.84308072 45.0996524,10.0882411 45.071375,12.7063 C45.095775,13.14855 45.120175,13.5664 45.144575,14.00865 C43.9747103,13.9904112 42.8147055,13.7913328 41.7057,13.418475 L41.6813,13.418475 C41.557775,13.363575 41.40985,13.314775 41.26345,13.24005 Z" id="Path_676" fill="#F4F4F4"></path>
                <path d="M40.969125,24.099575 C40.879653,21.065401 40.4681361,18.0493139 39.7415,15.102075 C39.3983617,13.9490084 38.9879414,12.8170427 38.51235,11.712 C38.51235,11.712 38.1189,11.393275 37.922175,11.22095 C37.8203603,11.1436496 37.7295504,11.0528397 37.65225,10.951025 L37.455525,10.7543 L37.357925,10.6567 C35.8071766,9.05761426 34.8753388,6.9593577 34.728825,4.73665 L34.704425,4.76105 C33.5022692,6.04611168 31.8212676,6.77544736 30.0615625,6.77544736 C28.3018574,6.77544736 26.6208558,6.04611168 25.4187,4.76105 L25.3943,4.73665 C25.253867,6.96085344 24.3211354,9.06112258 22.7652,10.6567 L22.6676,10.7543 L22.470875,10.951025 L22.20095,11.22095 C22.004225,11.393275 21.8075,11.5656 21.610775,11.712 C21.1927442,12.8491378 20.85639,14.014656 20.604275,15.199675 C19.9343156,18.0463614 19.4584375,20.9352569 19.179925,23.846425 C18.54095,28.439725 18.640075,32.5679 18.264925,37.800175 C22.0942946,38.9678607 26.056389,39.6447782 30.056225,39.8147 C34.0952826,39.6330694 38.0967919,38.9565055 41.97105,37.800175 C41.484575,32.230875 41.975625,28.692875 40.969125,24.099575 Z" id="Path_686" fill="#676767"></path>
                <path d="M38.60995,11.7913 C38.413225,11.6388 38.2165,11.472575 38.019775,11.30025 C37.9179603,11.2229496 37.8271504,11.1321397 37.74985,11.030325 L37.553125,10.8336 L37.455525,10.736 C35.9033313,9.13697298 34.9703644,7.03806772 34.823375,4.814425 L34.798975,4.838825 C33.5968192,6.12388668 31.9158176,6.85322236 30.1561125,6.85322236 C28.3964074,6.85322236 26.7154058,6.12388668 25.51325,4.838825 L25.48885,4.814425 C25.3485504,7.03866114 24.4157991,9.13897459 22.85975,10.734475 L22.76215,10.832075 L22.565425,11.0288 L22.2955,11.298725 C22.098775,11.47105 21.90205,11.643375 21.705325,11.789775 C22.02405,12.0353 24.334425,20.1422 30.156875,20.1422 C35.659075,20.1422 38.288175,12.0109 38.6069,11.789775 L38.60995,11.7913 Z" id="Path_691" stroke="#F4F4F4" stroke-width="0.3" fill="#F4F4F4" stroke-linejoin="bevel"></path>
            </g>
        </g>
    </g>
</svg>
