<?xml version="1.0" encoding="UTF-8"?>
<svg width="42px" height="203px" viewBox="0 0 42 203" version="1.1" xmlns="http://www.w3.org/2000/svg" xmlns:xlink="http://www.w3.org/1999/xlink">
    <!-- Generator: Sketch 50.2 (55047) - http://www.bohemiancoding.com/sketch -->
    <title>top_core_thumbnails</title>
    <desc>Created with Sketch.</desc>
    <defs></defs>
    <g id="Page-1" stroke="none" stroke-width="1" fill="none" fill-rule="evenodd">
        <g id="top_core_thumbnails" transform="translate(1.000000, 0.000000)">
            <text id="ALL" fill-opacity="0.775334013" fill="#686868" font-family="Muli-Bold, Muli" font-size="14" font-weight="bold">
                <tspan x="7" y="14">ALL</tspan>
            </text>
            <g id="top_core_thumbnails_0" transform="translate(0.000000, 32.000000)" fill-rule="nonzero">
                <path d="M11.7960309,33.2728848 C11.880707,34.6841577 12.0640259,36.0877225 12.3446355,37.473225 L20.1818446,37.473225 C20.2313428,36.8523321 20.3148709,36.2231607 20.3643691,35.6105464 C20.3776779,35.5166537 20.3831966,35.4218144 20.3808685,35.3270054 C17.3905301,35.3974882 14.432949,34.6898186 11.7960309,33.2728848 Z" id="Path_477" fill="#F4F4F4"></path>
                <path d="M14.2523772,10.4178188 C14.4609,9.62793731 14.7386927,8.85813012 15.0825026,8.11741071 C14.8047643,8.32181054 14.516298,8.51110999 14.2183472,8.68449286 C14.2018478,8.70105 14.1853484,8.70105 14.168849,8.71760714 L13.9698252,8.82108929 L13.866704,8.87076071 C13.8201663,8.89969303 13.7698414,8.92198315 13.7171783,8.93698929 C13.6697816,8.95225633 13.6249392,8.97458167 13.584152,9.00321786 C13.5299895,9.02816187 13.4745733,9.05026783 13.4181269,9.06944643 C13.3686288,9.08600357 13.3345988,9.10256071 13.2851006,9.11911786 C13.1819794,9.15223214 13.1025761,9.18534643 13.0025486,9.2226 L12.9860492,9.2226 C12.231769,9.48083945 11.4411069,9.61604739 10.6441674,9.62307589 C10.6257506,10.8244108 10.5147359,12.0225152 10.3121172,13.2066625 C9.81404195,15.7574973 9.06641345,18.2576259 8.5343082,20.7919036 C8.00220296,23.2589179 5.52729483,25.4258339 5.02818835,27.8928482 C4.87704897,28.4585966 4.61130943,28.9870043 4.24756108,29.4450804 C3.51643197,30.4954241 1.2405477,31.4785045 0.426921653,32.4791768 C0.482537825,32.5611014 0.543513441,32.6392298 0.609446127,32.7130464 C1.12505199,32.4791768 1.64065785,32.2628991 2.1377019,32.0631786 C1.9881762,33.1631938 1.8386505,34.297358 1.70562419,35.4470446 C1.67151082,35.7473811 1.78969567,36.0448803 2.0203546,36.2392953 C2.25101352,36.4337104 2.56343035,36.4991517 2.85233162,36.4135679 C3.42535478,36.3375276 3.94811159,36.0456384 4.31458984,35.5970938 C5.04198214,34.3487921 5.54791186,32.9832523 5.80984684,31.5612902 C6.04290069,29.4274884 7.88670724,27.3268009 9.18190916,25.5769179 C10.6441674,23.5931652 12.069302,22.0098884 12.5044733,20.1596277 C12.9035523,18.5422018 13.2191031,16.9092536 13.5676526,15.2752705 L13.5676526,15.2587134 C13.5989059,13.6231462 13.8288454,11.9975106 14.2523772,10.4178188 Z" id="Path_478" fill="#F4F4F4"></path>
                <path d="M13.2912879,9.10049107 C13.340786,9.08393393 13.374816,9.06737679 13.4243142,9.05081964 C13.4784774,9.02587732 13.5338936,9.00377144 13.5903393,8.98459107 C13.6377301,8.96930951 13.6825705,8.94698525 13.7233656,8.9183625 C13.7728637,8.90180536 13.8264868,8.86869107 13.8728913,8.85213393 L13.9760125,8.8024625 L14.1750363,8.69898036 C14.1915357,8.68242321 14.2080351,8.68242321 14.2245345,8.66586607 C14.6774895,8.41406986 15.1008706,8.11208379 15.4867376,7.76557143 C15.5555852,7.71311759 15.6169912,7.65149658 15.6692621,7.58240804 L15.8022884,7.44891607 L15.868286,7.3826875 C16.9153348,6.30483643 17.5405805,4.8846601 17.6295956,3.38206786 L17.646095,3.36551071 C17.334478,3.63872562 16.9735778,3.84949006 16.5829157,3.98640357 C15.6508068,4.42397492 14.697073,4.81357346 13.725428,5.15368214 C11.9776746,5.4372271 10.6992933,6.96072878 10.7184146,8.73726875 C10.7019152,9.03736696 10.6854159,9.32090804 10.6689165,9.62100625 C11.4599826,9.60861336 12.2443804,9.47352486 12.9942989,9.22053036 L13.0107983,9.22053036 C13.1071665,9.1876436 13.2009285,9.14751695 13.2912879,9.10049107 Z" id="Path_484" fill="#F4F4F4"></path>
                <path d="M29.7865506,33.2728848 C29.7018745,34.6841577 29.5185555,36.0877225 29.2379459,37.473225 L21.4007368,37.473225 C21.3512387,36.8523321 21.2677105,36.2231607 21.2182124,35.6105464 C21.2049035,35.5166537 21.1993848,35.4218144 21.201713,35.3270054 C24.1920513,35.3974882 27.1496324,34.6898186 29.7865506,33.2728848 Z" id="Path_503" fill="#F4F4F4"></path>
                <path d="M29.686523,27.9549375 C29.1496896,26.5433968 28.5227894,25.16803 27.8097177,23.837383 C23.2358654,25.2162915 18.3590906,25.2162915 13.7852383,23.837383 C13.0758301,25.1698538 12.4490371,26.5449853 11.908433,27.9549375 C11.3459074,29.5058694 11.0427686,31.1394579 11.0112788,32.7896232 C11.260832,32.9562295 11.5268846,33.1228357 11.791906,33.2728848 C14.4315406,34.6835108 17.3902428,35.3840633 20.3798372,35.3063089 L21.2099627,35.3063089 C24.1995571,35.3840633 27.1582593,34.6835108 29.7978939,33.2728848 C30.0639465,33.1228357 30.3299991,32.9562295 30.5785212,32.7896232 C30.547464,31.1398723 30.2461058,29.5064917 29.686523,27.9549375 Z" id="Path_504" fill="#F4F4F4"></path>
                <path d="M23.1414222,1.16651518 C22.5449828,0.498063123 21.6931481,0.116052563 20.7990248,0.116052563 C19.9049016,0.116052563 19.0530669,0.498063123 18.4566274,1.16651518 C18.5340508,1.99091473 18.2348326,2.80608422 17.6430013,3.38310268 L17.6595007,3.39965982 C18.5064735,4.21916507 19.6239219,4.69790662 20.7995404,4.74492768 C21.9744314,4.6946775 23.0907866,4.21640431 23.9395801,3.39965982 L23.9560795,3.38310268 C23.3612737,2.80797364 23.0611895,1.99147951 23.1414222,1.16651518 Z" id="Path_505" fill="#F4F4F4"></path>
                <path d="M27.3271106,10.4178187 C27.1185878,9.62793731 26.8407951,8.85813012 26.4969852,8.11741071 C26.7747235,8.32181054 27.0631899,8.51110999 27.3611406,8.68449286 C27.37764,8.70105 27.3941394,8.70105 27.4106388,8.71760714 L27.6096626,8.82108929 L27.7127838,8.87076071 C27.7593215,8.89969303 27.8096464,8.92198315 27.8623095,8.93698929 C27.9097062,8.95225633 27.9545486,8.97458167 27.9953358,9.00321786 C28.0494975,9.02816357 28.1049139,9.05026952 28.1613609,9.06944643 C28.2108591,9.08600357 28.244889,9.10256071 28.2943872,9.11911786 C28.3975084,9.15223214 28.4769117,9.18534643 28.5769392,9.2226 L28.5934386,9.2226 C29.3477188,9.48083945 30.1383809,9.61604739 30.9353204,9.62307589 C30.9537537,10.8244099 31.0647683,12.022513 31.2673706,13.2066625 C31.7654459,15.7574973 32.5130744,18.2576259 33.0451796,20.7919036 C33.5762536,23.2589179 36.052193,25.4258339 36.5512995,27.8928482 C36.7015824,28.4543743 36.9647845,28.9790994 37.3247082,29.4347321 C38.0558374,30.4850759 40.3317216,31.4681562 41.1453477,32.4688286 C41.089729,32.5507514 41.0287535,32.6288797 40.9628232,32.7026982 C40.4472173,32.4688286 39.9316115,32.2525509 39.4345674,32.0528304 C39.5840931,33.1528455 39.7336188,34.2870098 39.8666451,35.4366964 C39.9007585,35.7370329 39.7825737,36.034532 39.5519147,36.2289471 C39.3212558,36.4233622 39.008839,36.4888035 38.7199377,36.4032196 C38.1469145,36.3271793 37.6241577,36.0352901 37.2576795,35.5867455 C36.5302872,34.3384439 36.0243574,32.9729041 35.7624225,31.550942 C35.5293686,29.4171402 33.6855621,27.3164527 32.3903602,25.5665696 C30.9281019,23.582817 29.5029673,21.9995402 29.067796,20.1492795 C28.6687171,18.5318536 28.3531663,16.8989054 28.0046167,15.2649223 L28.0046167,15.2483652 C27.9748936,13.6165647 27.7473858,11.9944584 27.3271106,10.4178187 Z" id="Path_506" fill="#F4F4F4"></path>
                <path d="M28.3088242,9.10049107 C28.259326,9.08393393 28.225296,9.06737679 28.1757979,9.05081964 C28.1216354,9.02587563 28.0662191,9.00376967 28.0097728,8.98459107 C27.962376,8.96932403 27.9175336,8.94699869 27.8767465,8.9183625 C27.8272483,8.90180536 27.7736253,8.86869107 27.7272208,8.85213393 L27.6240996,8.8024625 L27.4250757,8.69898036 C27.4085763,8.68242321 27.3920769,8.68242321 27.3755776,8.66586607 C26.9226226,8.41406986 26.4992415,8.11208379 26.1133744,7.76557143 C26.0445269,7.71311759 25.9831208,7.65149658 25.9308499,7.58240804 L25.7978236,7.44891607 L25.7318261,7.3826875 C24.6847772,6.30483643 24.0595315,4.8846601 23.9705165,3.38206786 L23.9560795,3.36654554 C24.2676965,3.63976045 24.6285967,3.85052488 25.0192588,3.98743839 C25.9507721,4.42354645 26.903815,4.8117624 27.874684,5.15057768 C29.6224374,5.43412263 30.9008187,6.95762432 30.8816974,8.73416429 C30.8981968,9.0342625 30.9146962,9.31780357 30.9311956,9.61790179 C30.1401295,9.6055089 29.3557316,9.47042039 28.6058131,9.21742589 L28.5893138,9.21742589 C28.491962,9.18850416 28.39794,9.14930682 28.3088242,9.10049107 Z" id="Path_512" fill="#F4F4F4"></path>
                <path d="M27.9922422,15.3518473 C27.9922422,15.3684045 28.0087416,15.2183554 28.0087416,15.2349125 C27.9694205,13.6091953 27.7466322,11.9931864 27.3446412,10.4178187 C27.1203634,9.63297164 26.8430115,8.86438601 26.5145158,8.11741071 C26.5145158,8.11741071 26.2484631,7.90113304 26.1154368,7.78419821 C26.0465893,7.73174437 25.9851832,7.67012337 25.9329124,7.60103482 L25.7998861,7.46754286 L25.7338885,7.40131429 C24.6852656,6.31622042 24.0551528,4.89240344 23.9560795,3.3841375 L23.9395801,3.40069464 C23.1266771,4.27270078 21.9899764,4.76760714 20.800056,4.76760714 C19.6101357,4.76760714 18.473435,4.27270078 17.6605319,3.40069464 L17.6440325,3.3841375 C17.5490711,4.89341841 16.9183539,6.31860105 15.8662235,7.40131429 L15.800226,7.46754286 L15.6671997,7.60103482 L15.4846752,7.78419821 C15.3516489,7.90113304 15.2186226,8.01806786 15.0855963,8.11741071 C14.7545525,8.8633577 14.4771353,9.6321243 14.2554708,10.4178187 C13.83721,11.989934 13.6141529,13.607893 13.5913705,15.2349125 C13.5913705,15.2183554 13.6078699,15.2017982 13.6078699,15.1852411 C13.9729188,16.0855357 14.1059451,16.9527161 14.4049965,17.8188616 C15.0849218,19.824578 14.8589677,22.0281622 13.7862695,23.8529054 C16.0802589,24.4476072 18.431028,24.7945186 20.7985092,24.8877268 C23.1661054,24.7957625 25.5170062,24.4488316 27.8107489,23.8529054 C26.7379165,22.0282065 26.5119562,19.8245621 27.1920219,17.8188616 C27.4941669,16.9527161 27.6271932,16.2355848 27.9922422,15.3518473 Z" id="Path_521" fill="#F4F4F4"></path>
                <path d="M28.157236,16.5191259 C28.018105,14.4675142 27.7407628,12.4277042 27.3271106,10.4136795 C27.0775574,9.6137625 26.7455072,8.68035357 26.4969852,8.11327143 C26.4969852,8.11327143 26.2309326,7.89699375 26.0979062,7.78005893 C26.0290587,7.72760509 25.9676526,7.66598408 25.9153818,7.59689554 L25.7823555,7.46340357 L25.7163579,7.397175 C24.6687797,6.31272666 24.0390915,4.89014371 23.9395801,3.38310268 L23.9230807,3.39965982 C23.1101777,4.27166596 21.973477,4.76657232 20.7835566,4.76657232 C19.5936363,4.76657232 18.4569356,4.27166596 17.6440325,3.39965982 L17.6275332,3.38310268 C17.5325717,4.89238358 16.9018545,6.31756623 15.8497242,7.40027946 L15.7837266,7.46650804 L15.6507003,7.6 L15.4681758,7.78316339 C15.3351495,7.90009821 15.2021232,8.01703304 15.0690969,8.11637589 C14.7370467,8.85006429 14.5380228,9.63342411 14.2389714,10.4167839 C13.7410527,12.3574578 13.4625882,14.3482453 13.408846,16.3514848 C13.773895,17.2517795 14.0729464,16.9516813 14.3719978,17.8188616 C14.8789334,19.046042 14.954935,20.4097378 14.587521,21.6859893 C16.6073837,22.23968 18.6779935,22.5863941 20.7675729,22.7208107 C22.8570056,22.588072 24.9274423,22.241329 26.9465935,21.6859893 C26.764069,20.0023348 26.4485182,19.9019571 27.1621167,17.8188616 C27.4941669,16.9527161 27.7932183,17.4028634 28.157236,16.5191259 Z" id="Path_522" fill="#676767"></path>
                <path d="M26.0989374,7.78419821 C26.0300984,7.73173467 25.9686935,7.67011489 25.916413,7.60103482 L25.7833867,7.46754286 L25.7173891,7.40131429 C24.6677889,6.31626025 24.0369126,4.8920031 23.9375177,3.38310268 C23.1081152,4.27166596 21.9714146,4.76657232 20.7814942,4.76657232 C19.5915739,4.76657232 18.4548732,4.27166596 17.6419701,3.39965982 C17.5305093,4.89238358 16.8997921,6.31756623 15.8476617,7.40027946 L15.7816642,7.46650804 L15.6486379,7.6 L15.4661134,7.78316339 C15.3330871,7.90009821 15.2000608,8.01703304 15.0670345,8.11637589 C15.2825577,8.28298214 16.8448435,13.7840929 20.7809786,13.7840929 C24.5015905,13.7840929 26.2958989,8.266425 26.4949228,8.11637589 C26.3649901,8.01392857 26.2319638,7.90113304 26.0989374,7.78419821 Z" id="Path_688" stroke="#F4F4F4" stroke-width="0.3" fill="#F4F4F4"></path>
            </g>
            <g id="top_core_thumbnails_1" transform="translate(0.000000, 73.000000)" fill-rule="nonzero">
                <path d="M11.9063357,33.6464598 C11.990661,35.0743015 12.1731257,36.494346 12.4523849,37.8961264 L20.2530875,37.8961264 C20.3023551,37.2679422 20.3854942,36.6313821 20.4347618,36.0115736 C20.4480086,35.9165783 20.4535016,35.8206252 20.4511843,35.7247028 C17.4747752,35.7960133 14.5309708,35.0800333 11.9063357,33.6464598 Z" id="Path_533" fill="#F4F4F4"></path>
                <path d="M14.3502137,10.5229964 C14.5577652,9.723839 14.8342639,8.94499163 15.1764723,8.19557365 C14.9000188,8.40236057 14.6128968,8.59388261 14.3163422,8.76931524 C14.2999197,8.78606684 14.2834972,8.78606684 14.2670746,8.80281843 L14.0689779,8.90751582 L13.966337,8.95777054 C13.9200161,8.98704264 13.8699255,9.00959452 13.8175078,9.02477686 C13.770326,9.04020851 13.7256903,9.06279698 13.6851011,9.09178317 C13.6311902,9.11701841 13.5760322,9.13938394 13.5198495,9.15878956 C13.4705818,9.17554108 13.4367104,9.19229268 13.3874427,9.20904427 C13.2848019,9.2425474 13.2057685,9.27605059 13.1062069,9.31374166 L13.0897844,9.31374166 C12.3390177,9.57501369 11.5520386,9.71180947 10.7588112,9.71892053 C10.7404967,10.9343641 10.629999,12.1465397 10.4283078,13.3445908 C9.9325526,15.9253812 9.18840664,18.4548699 8.65878,21.0189088 C8.12915329,23.5148943 5.66577352,25.7072575 5.16899193,28.203243 C5.01855656,28.7756352 4.75405486,29.3102482 4.39200088,29.7737037 C3.66427744,30.8363821 1.39899444,31.8310072 0.589158333,32.8434309 C0.64449585,32.9263322 0.705188431,33.0053794 0.770832591,33.080047 C1.28403671,32.8434309 1.79724084,32.6246134 2.29196961,32.4225474 C2.14314042,33.5354806 1.99431122,34.6829639 1.86190456,35.8461518 C1.8279501,36.1500152 1.94558442,36.451008 2.17516892,36.6477062 C2.40475343,36.8444044 2.71571498,36.9106142 3.00327053,36.8240253 C3.57362449,36.747092 4.09394626,36.451775 4.45871742,35.997963 C5.18268377,34.7349837 5.68625431,33.3534146 5.94700938,31.9147651 C6.17795123,29.7559051 8.01419559,27.6305483 9.30336433,25.8601157 C10.7588112,23.8530668 12.1773075,22.251197 12.6104517,20.3792077 C13.0076717,18.7427877 13.3217526,17.090663 13.6686786,15.4374914 L13.6686786,15.4207398 C13.6997353,13.7659613 13.9286045,12.1212288 14.3502137,10.5229964 Z" id="Path_534" fill="#F4F4F4"></path>
                <path d="M13.3771787,9.19019874 C13.4264463,9.17344714 13.4603178,9.15669554 13.5095853,9.13994402 C13.563497,9.11471047 13.618655,9.09234501 13.6748371,9.0729377 C13.7220072,9.05747663 13.7666386,9.0348902 13.8072437,9.00593132 C13.8565114,8.98917979 13.9098845,8.9556766 13.9560729,8.938925 L14.0587137,8.88867029 L14.2568106,8.7839729 C14.273233,8.7672213 14.2896556,8.7672213 14.3060781,8.7504697 C14.7569278,8.49572404 15.1783376,8.19019102 15.5624019,7.83960253 C15.6309287,7.78653264 15.6920487,7.72418801 15.7440761,7.65428814 L15.8764828,7.51922854 L15.9421729,7.45222222 C16.9843445,6.36171349 17.6066777,4.92485937 17.6952782,3.4046215 L17.7117007,3.38786992 C17.4015353,3.66429332 17.0423162,3.87753285 16.6534738,4.0160542 C15.7257096,4.4587708 14.776418,4.85294472 13.8092965,5.19704065 C12.0696843,5.4839154 10.7972579,7.02530827 10.8162901,8.82271094 C10.7998675,9.12633333 10.783445,9.41320413 10.7670225,9.71682659 C11.5544037,9.70428814 12.3351479,9.56761319 13.0815731,9.31164772 L13.0979956,9.31164772 C13.1950174,9.28138319 13.2886056,9.2406709 13.3771787,9.19019874 Z" id="Path_539" fill="#F4F4F4"></path>
                <path d="M29.8120275,33.6464598 C29.7277459,35.0743058 29.5452808,36.4943534 29.2659783,37.8961264 L21.4652756,37.8961264 C21.4160081,37.2679422 21.332869,36.6313821 21.2836014,36.0115736 C21.2703545,35.9165783 21.2648615,35.8206252 21.2671789,35.7247028 C24.2435879,35.7960133 27.1873923,35.0800333 29.8120275,33.6464598 Z" id="Path_558" fill="#F4F4F4"></path>
                <path d="M29.6970698,28.2660614 C29.1627343,26.8379454 28.5387544,25.4464273 27.8290068,24.1001527 C23.2764598,25.4952543 18.4224015,25.4952543 13.8698546,24.1001527 C13.1637626,25.4482771 12.5398897,26.8395566 12.0017916,28.2660614 C11.4419045,29.8352118 11.1401784,31.487981 11.1088165,33.1575231 C11.3572073,33.3260859 11.6220205,33.4946486 11.8858075,33.6464598 C14.5131465,35.0736515 17.4580667,35.7824308 20.4337354,35.7037633 L21.259994,35.7037633 C24.2356627,35.7824308 27.1805829,35.0736515 29.8079219,33.6464598 C30.0727352,33.4946486 30.3365221,33.3260859 30.584913,33.1575231 C30.5540191,31.4883965 30.2540641,29.8358312 29.6970698,28.2660614 Z" id="Path_559" fill="#F4F4F4"></path>
                <path d="M23.1824567,1.16305059 C22.5887955,0.486748601 21.7409286,0.100251917 20.8509703,0.100251917 C19.961012,0.100251917 19.1131452,0.486748601 18.519484,1.16305059 C18.5966984,1.99715157 18.2988506,2.82195883 17.7096479,3.40566848 L17.7260704,3.42242005 C18.5690979,4.25154912 19.6813411,4.73591275 20.8514835,4.783486 C22.0209018,4.7326457 23.1320569,4.24875595 23.9768967,3.42242005 L23.9933191,3.40566848 C23.407915,2.81938963 23.1104388,1.99665415 23.1824567,1.16305059 Z" id="Path_560" fill="#F4F4F4"></path>
                <path d="M27.3650703,10.5229964 C27.1575187,9.723839 26.88102,8.94499163 26.5388116,8.19557365 C26.8152652,8.40236057 27.1023871,8.59388261 27.3989417,8.76931524 C27.4153643,8.78606684 27.4317868,8.78606684 27.4482093,8.80281843 L27.6463061,8.90751582 L27.748947,8.95777054 C27.7952617,8.98705475 27.8453538,9.0096074 27.8977761,9.02477686 C27.9449521,9.04022322 27.9895856,9.0628107 28.0301828,9.09178317 C28.0840879,9.11703234 28.1392466,9.13939809 28.1954345,9.15878956 C28.2447021,9.17554108 28.2785736,9.19229268 28.3278412,9.20904427 C28.430482,9.2425474 28.5095155,9.27605059 28.6090771,9.31374166 L28.6254995,9.31374166 C29.3762662,9.57501369 30.1632454,9.71180947 30.9564727,9.71892053 C30.9748201,10.9343624 31.0853175,12.1465353 31.2869762,13.3445908 C31.7827313,15.9253812 32.5268773,18.4548699 33.056504,21.0189088 C33.5861306,23.5148943 36.0495104,25.7072575 36.546292,28.203243 C36.6958749,28.7713633 36.957851,29.3022505 37.3160982,29.763234 C38.0438216,30.8259124 40.3091047,31.8205375 41.1189407,32.8329612 C41.0635837,32.9158478 41.0028921,32.9948938 40.9372665,33.0695773 C40.4240624,32.8329612 39.9108583,32.6141436 39.4161295,32.4120777 C39.5649586,33.5250109 39.7137878,34.6724941 39.8461945,35.835682 C39.880149,36.1395455 39.7625147,36.4405383 39.5329302,36.6372365 C39.3033456,36.8339347 38.9923841,36.9001445 38.7048285,36.8135556 C38.1344746,36.7366223 37.6141528,36.4413053 37.2493816,35.9874933 C36.5253776,34.7245322 36.0218046,33.3429562 35.7610897,31.9042954 C35.5291215,29.7454354 33.6939035,27.6200786 32.4047347,25.8496459 C30.9492879,23.8425971 29.5307916,22.2407272 29.0976474,20.368738 C28.7004274,18.732318 28.3863465,17.0801933 28.0394205,15.4270217 L28.0394205,15.4102701 C28.0098765,13.7593033 27.7834278,12.1181429 27.3650703,10.5229964 Z" id="Path_561" fill="#F4F4F4"></path>
                <path d="M28.324762,9.19019874 C28.2754944,9.17344714 28.2416229,9.15669554 28.1923553,9.13994402 C28.1384437,9.11471047 28.0832857,9.09234501 28.0271036,9.0729377 C27.9799334,9.05747663 27.935302,9.0348902 27.8946969,9.00593132 C27.8454293,8.98917979 27.7920561,8.9556766 27.7458677,8.938925 L27.6432269,8.88867029 L27.4451301,8.7839729 C27.4287076,8.7672213 27.412285,8.7672213 27.3958625,8.7504697 C26.9450128,8.49572404 26.523603,8.19019102 26.1395388,7.83960253 C26.0709951,7.78655234 26.0098726,7.72420525 25.9578646,7.65428814 L25.8254579,7.51922854 L25.7597677,7.45222222 C24.7175962,6.36171349 24.0952629,4.92485937 24.0066625,3.4046215 L23.9922927,3.38891689 C24.3024582,3.66534029 24.6616773,3.87857983 25.0505197,4.01710118 C25.9782888,4.45980613 26.9275799,4.85397979 27.8946969,5.19808763 C29.6343092,5.48496237 30.9067356,7.02635524 30.8877034,8.82375791 C30.9041259,9.1273803 30.9205485,9.4142511 30.9369709,9.71787356 C30.1495897,9.70533511 29.3688456,9.56866016 28.6224203,9.31269469 L28.6059979,9.31269469 C28.5228588,9.27500362 28.4232972,9.24150043 28.324762,9.19019874 Z" id="Path_566" fill="#F4F4F4"></path>
                <path d="M28.1256388,16.695954 C28.0909355,14.7503912 27.8695435,12.8129699 27.4646318,10.9114237 C27.186981,9.98696768 26.8558979,9.08009662 26.4731215,8.19557365 L26.5388116,8.19557365 C26.5388116,8.19557365 26.2083082,7.97675607 26.0759015,7.85844806 C26.0073914,7.80535861 25.9462739,7.74301645 25.8942273,7.67313367 L25.7618205,7.53807407 L25.6961304,7.47106776 C24.6523922,6.37323108 24.0252144,4.93269363 23.9266026,3.40671545 C23.1010636,4.30571353 21.9696577,4.80643179 20.7852802,4.80643179 C19.6009026,4.80643179 18.4694967,4.30571353 17.6603803,3.42346703 C17.5495285,4.93374297 16.9217359,6.37569257 15.8744299,7.47106776 L15.8087398,7.53807407 L15.6763331,7.67313367 L15.4946589,7.85844806 C15.3622522,7.97675607 15.2298456,8.09506414 15.0974389,8.19557365 C14.7669355,8.93787803 14.5688386,9.73043721 14.2711802,10.5229964 C13.7755637,12.486457 13.498396,14.5006253 13.4449216,16.5273912 C13.8082701,17.4382583 14.1059285,17.1346359 14.403587,18.012 C14.85995,19.3648586 14.9511577,20.8797004 14.403587,22.7102647 C14.0976978,23.7328718 13.6094,24.8377422 12.8331823,26.1072014 C15.4105545,26.9088756 18.0772617,27.373607 20.7693709,27.4902539 C23.4878771,27.3655571 26.1811113,26.9010688 28.7886985,26.1072014 C26.8210739,22.6155438 26.2093346,20.3729259 27.1515773,18.012 C27.5097938,17.1513875 27.7622902,17.5900695 28.1256388,16.695954 Z" id="Path_576" fill="#676767"></path>
                <path d="M26.522389,8.19557365 C26.3899824,8.09087626 26.2575758,7.97675607 26.1251691,7.85844806 C26.0566254,7.80539788 25.995503,7.74305079 25.9434948,7.67313367 L25.8110882,7.53807407 L25.7453981,7.47106776 C24.7006869,6.3732714 24.0727493,4.93228859 23.9738174,3.40566848 L23.9573949,3.42242005 C23.1482784,4.30466655 22.0168726,4.80538482 20.832495,4.80538482 C19.6481174,4.80538482 18.5167115,4.30466655 17.7075951,3.42242005 L17.6911725,3.40566848 C17.5966535,4.93267354 16.9688742,6.37459275 15.9216447,7.47002079 L15.8559546,7.5370271 L15.7235479,7.6720867 L15.5418737,7.85740109 C15.409467,7.9757091 15.2770603,8.09401717 15.1446537,8.19452668 C15.359173,8.3630894 16.9141815,13.9288022 20.8319818,13.9288022 C24.5188402,13.9288022 26.3047905,8.34633787 26.5193098,8.19452668 L26.522389,8.19557365 Z" id="Path_689" stroke="#F4F4F4" stroke-width="0.3" fill="#F4F4F4" stroke-linejoin="bevel"></path>
            </g>
            <g id="top_core_thumbnails_2" transform="translate(0.000000, 114.000000)" fill-rule="nonzero">
                <path d="M11.7334103,33.6464598 C11.8164678,35.0743058 11.9962828,36.4943534 12.2715288,37.8961264 L19.9589356,37.8961264 C20.0074876,37.2679422 20.0894192,36.6313821 20.1379712,36.0115736 C20.1510256,35.9165783 20.1564389,35.8206252 20.1541552,35.7247028 C17.2209749,35.7960133 14.3199257,35.0800333 11.7334103,33.6464598 Z" id="Path_588" fill="#F4F4F4"></path>
                <path d="M14.1417939,10.5229964 C14.346331,9.723839 14.6188139,8.94499163 14.9560521,8.19557365 C14.6836214,8.40237218 14.400669,8.59389457 14.1084144,8.76931524 C14.0922304,8.78606684 14.0760464,8.78606684 14.0598623,8.80281843 L13.8646427,8.90751582 L13.7634926,8.95777054 C13.7178382,8.98703061 13.668477,9.00958178 13.616825,9.02477686 C13.5703342,9.04022322 13.5263488,9.0628107 13.4863413,9.09178317 C13.4332191,9.11703234 13.3788615,9.13939809 13.3234897,9.15878956 C13.2749376,9.17554108 13.2415582,9.19229268 13.1930061,9.20904427 C13.091856,9.2425474 13.0139705,9.27605059 12.9158549,9.31374166 L12.8996708,9.31374166 C12.1598081,9.57501369 11.384259,9.71180947 10.6025523,9.71892053 C10.5844714,10.9343624 10.4755788,12.1465353 10.2768491,13.3445908 C9.78829409,15.9253812 9.05495597,18.4548699 8.53302153,21.0189088 C8.01209851,23.5148943 5.58348491,25.7072575 5.09391848,28.203243 C4.9456408,28.7756244 4.68498337,29.3102319 4.3282123,29.7737037 C3.61105817,30.8363821 1.37867571,31.8310072 0.58060151,32.8434309 C0.635157024,32.9263158 0.694967015,33.0053616 0.759637165,33.080047 C1.26538761,32.8434309 1.77113805,32.6246134 2.25868148,32.4225474 C2.11201386,33.5354806 1.96534623,34.6829639 1.83486261,35.8461518 C1.8014013,36.1500152 1.91732712,36.451008 2.14357718,36.6477062 C2.36982725,36.8444044 2.67627246,36.9106142 2.9596516,36.8240253 C3.52168941,36.7469906 4.03442039,36.451693 4.39395986,35.997963 C5.1074486,34.7350019 5.60370786,33.3534259 5.86063614,31.9147651 C6.08923535,29.7559051 7.89779894,27.6305483 9.16824404,25.8601157 C10.6025523,23.8530668 12.0004466,22.251197 12.4272999,20.3792077 C12.8187507,18.7427877 13.12827,17.090663 13.4701574,15.4374914 L13.4701574,15.4207398 C13.5007931,13.7659638 13.7263378,12.1212351 14.1417939,10.5229964 Z" id="Path_589" fill="#F4F4F4"></path>
                <path d="M13.1828911,9.19019874 C13.2314431,9.17344714 13.2648227,9.15669554 13.3133747,9.13994402 C13.3665069,9.11471913 13.4208633,9.0923538 13.4762263,9.0729377 C13.5227171,9.05749134 13.5667024,9.03490386 13.6067099,9.00593132 C13.655262,8.98917979 13.70786,8.9556766 13.7533776,8.938925 L13.8545277,8.88867029 L14.0497474,8.7839729 C14.0659313,8.7672213 14.0821154,8.7672213 14.0982994,8.7504697 C14.542601,8.49572404 14.9578903,8.19019102 15.3363765,7.83960253 C15.4039247,7.78655234 15.4641594,7.72420525 15.5154121,7.65428814 L15.6458958,7.51922854 L15.7106318,7.45222222 C16.7376671,6.36171349 17.3509617,4.92485937 17.4382753,3.4046215 L17.4544593,3.38786992 C17.1488134,3.66431443 16.7948073,3.87755647 16.4116019,4.0160542 C15.4973075,4.45875915 14.5618038,4.85293282 13.6087329,5.19704065 C11.8943865,5.4839154 10.6404405,7.02530827 10.6591964,8.82271094 C10.6430123,9.12633333 10.6268283,9.41320413 10.6106443,9.71682659 C11.3865898,9.70428814 12.1559945,9.56761319 12.8915788,9.31164772 L12.9077628,9.31164772 C13.0033571,9.28133125 13.0955809,9.24062122 13.1828911,9.19019874 Z" id="Path_594" fill="#F4F4F4"></path>
                <path d="M29.3790433,33.6464598 C29.2959858,35.0743058 29.1161707,36.4943534 28.8409248,37.8961264 L21.1535181,37.8961264 C21.104966,37.2679422 21.0230345,36.6313821 20.9744825,36.0115736 C20.9614557,35.9165754 20.9560426,35.8206247 20.9582984,35.7247028 C23.8914786,35.7960133 26.7925278,35.0800333 29.3790433,33.6464598 Z" id="Path_613" fill="#F4F4F4"></path>
                <path d="M29.2647437,28.2660614 C28.7381508,26.8379533 28.1232339,25.4464363 27.4238121,24.1001527 C22.9373768,25.4951926 18.1538353,25.4951926 13.6674,24.1001527 C12.9715632,25.4482771 12.3567512,26.8395566 11.8264684,28.2660614 C11.274695,29.8352067 10.9773505,31.4879791 10.9464626,33.1575231 C11.1912458,33.3260859 11.452213,33.4946486 11.7121688,33.6464598 C14.3013488,35.0736515 17.2034976,35.7824308 20.1359482,35.7037633 L20.9502064,35.7037633 C23.882657,35.7824308 26.7848058,35.0736515 29.3739858,33.6464598 C29.634953,33.4946486 29.8959203,33.3260859 30.139692,33.1575231 C30.1092469,31.4883965 29.8136483,29.8358312 29.2647437,28.2660614 Z" id="Path_614" fill="#F4F4F4"></path>
                <path d="M22.8457591,1.16305059 C22.2315992,0.529631354 21.4142298,0.151505078 20.5486405,0.10037218 C19.6839492,0.155307133 18.8678198,0.532859757 18.251522,1.16305059 C18.3274655,1.99713143 18.0339667,2.82187383 17.4534478,3.40566848 L17.4696318,3.42242005 C18.3004153,4.25154912 19.3965046,4.73591275 20.549652,4.783486 C21.7020859,4.7326457 22.7971028,4.24875595 23.6296723,3.42242005 L23.6458562,3.40566848 C23.0685844,2.81957954 22.7750486,1.99681884 22.8457591,1.16305059 Z" id="Path_615" fill="#F4F4F4"></path>
                <path d="M26.9676252,10.5229964 C26.7630881,9.723839 26.4906052,8.94499163 26.153367,8.19557365 C26.4258054,8.40236057 26.7087572,8.59388261 27.0010047,8.76931524 C27.0171887,8.78606684 27.0333728,8.78606684 27.0495567,8.80281843 L27.2447764,8.90751582 L27.3459265,8.95777054 C27.3915747,8.98704264 27.4409377,9.00959452 27.4925942,9.02477686 C27.5390849,9.04022322 27.5830702,9.0628107 27.6230778,9.09178317 C27.6762043,9.11702186 27.7305614,9.13938746 27.7859294,9.15878956 C27.8344814,9.17554108 27.867861,9.19229268 27.916413,9.20904427 C28.0175631,9.2425474 28.0954487,9.27605059 28.1935643,9.31374166 L28.2097482,9.31374166 C28.9496109,9.57501369 29.7251601,9.71180947 30.5068668,9.71892053 C30.5248951,10.9343653 30.6337882,12.1465424 30.8325701,13.3445908 C31.321125,15.9253812 32.0544632,18.4548699 32.5763976,21.0189088 C33.0983321,23.5148943 35.5259342,25.7072575 36.0155006,28.203243 C36.1629378,28.7713527 36.4211063,29.3022345 36.7741263,29.763234 C37.4912804,30.8259124 39.7236629,31.8205375 40.5217371,32.8329612 C40.467184,32.9158478 40.4073739,32.9948938 40.3427015,33.0695773 C39.836951,32.8329612 39.3312006,32.6141436 38.8436571,32.4120777 C38.9903247,33.5250109 39.1369923,34.6724941 39.267476,35.835682 C39.3009373,36.1395455 39.1850115,36.4405383 38.9587614,36.6372365 C38.7325113,36.8339347 38.4260661,36.9001445 38.142687,36.8135556 C37.5806168,36.7366223 37.067852,36.4413053 36.7083787,35.9874933 C35.9948714,34.7245413 35.4986109,33.3429619 35.2417025,31.9042954 C35.0131033,29.7454354 33.2045396,27.6200786 31.9340945,25.8496459 C30.4997863,23.8425971 29.101892,22.2407272 28.6750387,20.368738 C28.2835878,18.732318 27.9740686,17.0801933 27.6321813,15.4270217 L27.6321813,15.4102701 C27.6030063,13.7593083 27.3798475,12.1181553 26.9676252,10.5229964 Z" id="Path_616" fill="#F4F4F4"></path>
                <path d="M27.9133785,9.19019874 C27.8648265,9.17344714 27.8314469,9.15669554 27.7828949,9.13994402 C27.7297677,9.11470702 27.6754107,9.09234149 27.6200433,9.0729377 C27.5735524,9.05749134 27.5295672,9.03490386 27.4895597,9.00593132 C27.4410076,8.98917979 27.3884096,8.9556766 27.342892,8.938925 L27.2417419,8.88867029 L27.0465222,8.7839729 C27.0303383,8.7672213 27.0141542,8.7672213 26.9979702,8.7504697 C26.5536686,8.49572404 26.1383793,8.19019102 25.7598931,7.83960253 C25.6923615,7.78653264 25.6321292,7.72418801 25.5808575,7.65428814 L25.4503738,7.51922854 L25.3856378,7.45222222 C24.3585262,6.36176683 23.7452184,4.9248818 23.6579943,3.4046215 L23.6438332,3.38891689 C23.9494939,3.66534029 24.3034958,3.87857983 24.6866907,4.01710118 C25.6009809,4.45981611 26.5364851,4.85398999 27.4895597,5.19808763 C29.2039061,5.48496237 30.457852,7.02635524 30.4390962,8.82375791 C30.4552803,9.1273803 30.4714643,9.4142511 30.4876483,9.71787356 C29.7117028,9.70533511 28.9422981,9.56866016 28.2067138,9.31269469 L28.1905298,9.31269469 C28.1085982,9.27500362 28.0104826,9.24150043 27.9133785,9.19019874 Z" id="Path_621" fill="#F4F4F4"></path>
                <path d="M27.7171474,16.695954 C27.5806787,14.6202489 27.3086377,12.5564843 26.9028891,10.5188085 C26.6581059,9.70949773 26.3324026,8.76512736 26.0886309,8.1913857 C26.0886309,8.1913857 25.8276637,7.97256819 25.6971801,7.85426018 C25.629665,7.80117066 25.5694351,7.73882857 25.5181444,7.66894579 L25.3876608,7.53388619 L25.3229247,7.46687988 C24.2943455,6.3690432 23.6762768,4.92850574 23.5790972,3.40252755 C22.7655482,4.30152563 21.6505746,4.8022439 20.4833988,4.8022439 C19.3162228,4.8022439 18.2012493,4.30152563 17.4038843,3.41927913 C17.294554,4.92953263 16.6758924,6.37145184 15.6438727,7.46687988 L15.5791367,7.53388619 L15.4486531,7.66894579 L15.2696174,7.85426018 C15.1391338,7.97256819 15.0086502,8.09087626 14.8781666,8.1913857 C14.5524633,8.93369015 14.3562321,9.72624933 14.0639083,10.5188085 C13.57549,12.4822691 13.3023479,14.4964373 13.2496501,16.5232033 C13.5324527,18.1023788 13.7581715,19.7053356 13.6618799,21.2959341 C13.5633101,22.9241656 13.1337093,24.5394473 12.6427496,26.1030136 C15.1826886,26.9046877 17.810665,27.3694191 20.4636745,27.4860659 C23.1426977,27.3613692 25.7968158,26.8968809 28.3665309,26.1030136 C27.9120041,24.5846067 27.3096961,22.9233527 27.3096961,21.2959341 C27.3096961,18.9317525 27.513493,17.2044854 27.7171474,16.695954 Z" id="Path_631" fill="#676767"></path>
                <path d="M26.153367,8.19557365 C26.0228834,8.09087626 25.8923998,7.97675607 25.7619161,7.85844806 C25.6943679,7.80539788 25.6341332,7.74305079 25.5828805,7.67313367 L25.4523968,7.53807407 L25.3876608,7.47106776 C24.3581229,6.3732714 23.7393053,4.93228859 23.6418103,3.40566848 L23.6256262,3.42242005 C22.8282612,4.30466655 21.7132877,4.80538482 20.5461118,4.80538482 C19.3789359,4.80538482 18.2639623,4.30466655 17.4665973,3.42242005 L17.4504134,3.40566848 C17.3572671,4.93267354 16.7386055,6.37459275 15.7065858,7.47002079 L15.6418497,7.5370271 L15.5113661,7.6720867 L15.3323304,7.85740109 C15.2018468,7.9757091 15.0713632,8.09401717 14.9408797,8.19452668 C15.1522833,8.3630894 16.6847072,13.9288022 20.5456061,13.9288022 C24.1951013,13.9288022 25.9389288,8.34633787 26.1503325,8.19452668 L26.153367,8.19557365 Z" id="Path_690" stroke="#F4F4F4" stroke-width="0.3" fill="#F4F4F4" stroke-linejoin="bevel"></path>
            </g>
            <g id="top_core_thumbnails_3" transform="translate(0.000000, 155.000000)" fill-rule="nonzero">
                <path d="M11.4461598,33.1567134 C11.5311763,34.567982 11.7151366,35.9715437 11.9966848,37.3570536 L19.8613277,37.3570536 C19.9109991,36.7361607 19.9948196,36.1069893 20.0444911,35.494375 C20.0578465,35.4004823 20.0633845,35.305643 20.0610482,35.2108339 C17.0602424,35.2813167 14.0923083,34.5736471 11.4461598,33.1567134 Z" id="Path_643" fill="#F4F4F4"></path>
                <path d="M13.9111045,10.3016473 C14.1203572,9.51176589 14.3991223,8.7419587 14.7441357,8.00123929 C14.4654252,8.20563911 14.1759491,8.39493856 13.8769554,8.56832143 C13.8603982,8.58487857 13.8438411,8.58487857 13.8272839,8.60143571 L13.6275634,8.70491786 L13.5240812,8.75458929 C13.4773744,8.78350973 13.426875,8.8057991 13.3740321,8.82081786 C13.3264695,8.8360849 13.2814701,8.85841024 13.2405402,8.88704643 C13.1861895,8.9119939 13.1305792,8.93409986 13.0739339,8.953275 C13.0242625,8.96983214 12.9901134,8.98638929 12.940442,9.00294643 C12.8369598,9.03606071 12.7572786,9.069175 12.6569009,9.10642857 L12.6403437,9.10642857 C11.8834188,9.36465065 11.0899919,9.49985818 10.2902643,9.50690446 C10.2717334,10.7082367 10.1603305,11.9063372 9.95705179,13.0904911 C9.45723304,15.6413259 8.7069875,18.1414545 8.17301964,20.6757321 C7.63905179,23.1427464 5.15548036,25.3096625 4.65462679,27.7766768 C4.50293051,28.3424145 4.23626352,28.8708168 3.87126696,29.3289089 C3.13757857,30.3792527 0.853727679,31.362333 0.0372535714,32.3630054 C0.0930668844,32.4449282 0.154255817,32.5230565 0.220416964,32.596875 C0.737827679,32.3630054 1.25523839,32.1467277 1.75402232,31.9470071 C1.60397321,33.0470223 1.45392411,34.1811866 1.32043214,35.3308732 C1.28619936,35.6312097 1.40479791,35.9287088 1.63626425,36.1231239 C1.86773059,36.317539 2.18124101,36.3829803 2.47115357,36.2973964 C3.04614938,36.2212559 3.57070157,35.9293858 3.93853036,35.4809223 C4.66846886,34.2326207 5.17616956,32.8670809 5.43902143,31.4451187 C5.67185625,29.311317 7.52315179,27.2106295 8.8228875,25.4607464 C10.2902643,23.4769937 11.7203875,21.893717 12.1570821,20.0434562 C12.557558,18.4260304 12.8742134,16.7930821 13.223983,15.1590991 L13.223983,15.142542 C13.2552942,13.5069707 13.4860395,11.8813288 13.9111045,10.3016473 Z" id="Path_644" fill="#F4F4F4"></path>
                <path d="M12.9300937,8.98431964 C12.9797652,8.9677625 13.0139143,8.95120536 13.0635857,8.93464821 C13.1179393,8.90970759 13.1735493,8.88760177 13.230192,8.86841964 C13.2777429,8.85312362 13.322738,8.83080039 13.3636839,8.80219107 C13.4133554,8.78563393 13.4671661,8.75251964 13.513733,8.7359625 L13.6172152,8.68629107 L13.8169357,8.58280893 C13.8334929,8.56625179 13.85005,8.56625179 13.8666071,8.54969464 C14.3211523,8.29790583 14.7460162,7.99591915 15.1332286,7.6494 C15.2023171,7.59694616 15.2639381,7.53532515 15.316392,7.46623661 L15.4498839,7.33274464 L15.5161125,7.26651607 C16.5668265,6.18866504 17.1942608,4.76848868 17.2835875,3.26589643 L17.3001446,3.24933929 C16.9874219,3.52253334 16.6252626,3.73329531 16.2332437,3.87023214 C15.2978742,4.30780843 14.3408016,4.69740707 13.3657536,5.03751071 C11.6118822,5.32105567 10.3290261,6.84455735 10.3482143,8.62109732 C10.3316571,8.92119554 10.3151,9.20473661 10.2985429,9.50483482 C11.0923765,9.49242538 11.8795176,9.35733728 12.6320652,9.10435893 L12.6486223,9.10435893 C12.7464206,9.07439437 12.8407705,9.03415685 12.9300937,8.98431964 Z" id="Path_649" fill="#F4F4F4"></path>
                <path d="M29.4996545,33.1567134 C29.4147125,34.5679891 29.2307515,35.9715561 28.9491295,37.3570536 L21.0844866,37.3570536 C21.0348152,36.7361607 20.9509946,36.1069893 20.9013232,35.494375 C20.8879678,35.4004823 20.8824298,35.305643 20.8847661,35.2108339 C23.8855719,35.2813167 26.8535059,34.5736471 29.4996545,33.1567134 Z" id="Path_668" fill="#F4F4F4"></path>
                <path d="M29.3827196,27.8387661 C28.8440838,26.4271932 28.214987,25.0518215 27.4993446,23.7212116 C22.9094818,25.1001201 18.0156361,25.1001201 13.4257732,23.7212116 C12.7139148,25.0536987 12.0849288,26.4288281 11.5423982,27.8387661 C10.9779219,29.389703 10.6737226,31.0232884 10.6421036,32.6734518 C10.8925304,32.840058 11.1595143,33.0066643 11.4254634,33.1567134 C14.0743379,34.5673394 17.0433969,35.2678919 20.0434562,35.1901375 L20.8775223,35.1901375 C23.8775817,35.2678919 26.8466407,34.5673394 29.4955152,33.1567134 C29.7624991,33.0066643 30.029483,32.840058 30.278875,32.6734518 C30.2475273,31.0236278 29.9447597,29.3902211 29.3827196,27.8387661 Z" id="Path_669" fill="#F4F4F4"></path>
                <path d="M22.8157429,1.05034375 C22.2172156,0.381891696 21.3623991,-0.000118862823 20.465146,-0.000118862823 C19.5678929,-0.000118862823 18.7130764,0.381891696 18.1145491,1.05034375 C18.1923963,1.8747632 17.8921072,2.68999681 17.298075,3.26693125 L17.3146321,3.28348839 C18.1645697,4.10299364 19.2859296,4.58173519 20.4656634,4.62875625 C21.644667,4.57850607 22.7649299,4.10023288 23.6166946,3.28348839 L23.6332518,3.26693125 C23.0430492,2.68745743 22.7431348,1.87427156 22.8157429,1.05034375 Z" id="Path_670" fill="#F4F4F4"></path>
                <path d="M27.0326402,10.3016473 C26.8233305,9.51178366 26.5445672,8.74198143 26.1996089,8.00123929 C26.4783195,8.20563911 26.7677956,8.39493856 27.0667893,8.56832143 C27.0833464,8.58487857 27.0999036,8.58487857 27.1164607,8.60143571 L27.3161813,8.70491786 L27.4196634,8.75458929 C27.4663703,8.78350973 27.5168696,8.8057991 27.5697125,8.82081786 C27.617287,8.83605572 27.6622907,8.8583831 27.7032045,8.88704643 C27.7575573,8.91198875 27.8131674,8.93409464 27.8698107,8.953275 C27.9194821,8.96983214 27.9536313,8.98638929 28.0033027,9.00294643 C28.1067848,9.03606071 28.1864661,9.069175 28.2868438,9.10642857 L28.3034009,9.10642857 C29.0603258,9.36465065 29.8537527,9.49985818 30.6534804,9.50690446 C30.6720112,10.7082367 30.7834141,11.9063372 30.9866929,13.0904911 C31.4865116,15.6413259 32.2367571,18.1414545 32.770725,20.6757321 C33.303658,23.1427464 35.7882643,25.3096625 36.2891179,27.7766768 C36.4408141,28.3424145 36.7074811,28.8708168 37.0724777,29.3289089 C37.8061661,30.3792527 40.090017,31.362333 40.9064911,32.3630054 C40.8506778,32.4449282 40.7894888,32.5230565 40.7233277,32.596875 C40.205917,32.3630054 39.6885063,32.1467277 39.1897223,31.9470071 C39.3397714,33.0470223 39.4898205,34.1811866 39.6233125,35.3308732 C39.6575453,35.6312097 39.5389467,35.9287088 39.3074804,36.1231239 C39.076014,36.317539 38.7625037,36.3829803 38.4725911,36.2973964 C37.8975953,36.2212559 37.3730431,35.9293858 37.0052143,35.4809223 C36.2753328,34.2325937 35.7676359,32.867064 35.5047232,31.4451187 C35.2718884,29.311317 33.4205929,27.2106295 32.1208571,25.4607464 C30.6534804,23.4769937 29.2233571,21.893717 28.7866625,20.0434562 C28.3861866,18.4260304 28.0695313,16.7930821 27.7197616,15.1590991 L27.7197616,15.142542 C27.6884504,13.5069707 27.4577051,11.8813288 27.0326402,10.3016473 Z" id="Path_671" fill="#F4F4F4"></path>
                <path d="M28.0001982,8.98431964 C27.9505268,8.9677625 27.9163777,8.95120536 27.8667062,8.93464821 C27.8123527,8.90970759 27.7567427,8.88760177 27.7001,8.86841964 C27.6525374,8.8531526 27.607538,8.83082726 27.566608,8.80219107 C27.5169366,8.78563393 27.4631259,8.75251964 27.4165589,8.7359625 L27.3130768,8.68629107 L27.1133562,8.58280893 C27.0967991,8.56625179 27.080242,8.56625179 27.0636848,8.54969464 C26.6091397,8.29790583 26.1842757,7.99591915 25.7970634,7.6494 C25.7279748,7.59694616 25.6663538,7.53532515 25.6139,7.46623661 L25.480408,7.33274464 L25.4141795,7.26651607 C24.3634655,6.18866504 23.7360311,4.76848868 23.6467045,3.26589643 L23.632217,3.25037411 C23.9449097,3.52360989 24.3070775,3.73437679 24.6991179,3.87126696 C25.6344874,4.30884325 26.59156,4.69844189 27.566608,5.03854554 C29.3204794,5.32209049 30.6033356,6.84559218 30.5841473,8.62213214 C30.6007045,8.92223036 30.6172616,9.20577143 30.6338187,9.50586964 C29.839982,9.49349331 29.0528359,9.3584044 28.3002964,9.10539375 L28.2837393,9.10539375 C28.1999187,9.06814018 28.0995411,9.03502589 28.0001982,8.98431964 Z" id="Path_676" fill="#F4F4F4"></path>
                <path d="M27.8004777,16.353283 C27.7397645,14.2943792 27.4605209,12.2477487 26.9674464,10.2478366 C26.7346026,9.46539856 26.4561031,8.69727897 26.1333804,7.94742857 C26.1333804,7.94742857 25.8663964,7.73115089 25.7329045,7.61421607 C25.6638159,7.56176223 25.6021949,7.50014122 25.5497411,7.43105268 L25.4162491,7.29756071 L25.3500205,7.23133214 C24.297727,6.14623825 23.6654085,4.7224213 23.5659884,3.21415536 L23.5494313,3.2307125 C22.7336827,4.10271864 21.593003,4.59762499 20.3989174,4.59762499 C19.2048318,4.59762499 18.0641522,4.10271864 17.2484036,3.2307125 L17.2318464,3.21415536 C17.1365526,4.72343626 16.5036276,6.14861889 15.4478143,7.23133214 L15.3815857,7.29756071 L15.2480937,7.43105268 L15.0649304,7.61421607 C14.9314384,7.73115089 14.7979464,7.84808571 14.6644545,7.94742857 C14.3807907,8.71905779 14.1525504,9.50994514 13.9814723,10.3140652 C13.526857,12.2457452 13.2039397,14.2060672 13.0149491,16.1815027 C12.5813589,19.2983848 12.6486223,22.0996464 12.3940563,25.6501187 C14.9925571,26.4424769 17.6811211,26.9018138 20.3952955,27.0171179 C23.1360846,26.8938685 25.8513945,26.4347716 28.4803554,25.6501187 C28.1502473,21.8709509 28.4834598,19.4701652 27.8004777,16.353283 Z" id="Path_686" fill="#676767"></path>
                <path d="M26.1996089,8.00123929 C26.066117,7.89775714 25.932625,7.78496161 25.799133,7.66802679 C25.7300445,7.61557294 25.6684235,7.55395194 25.6159696,7.48486339 L25.4824777,7.35137143 L25.4162491,7.28514286 C24.3629748,6.20008881 23.7298901,4.77583167 23.6301473,3.26693125 L23.6135902,3.28348839 C22.7978416,4.15549453 21.6571619,4.65040089 20.4630763,4.65040089 C19.2689907,4.65040089 18.1283111,4.15549453 17.3125625,3.28348839 L17.2960054,3.26693125 C17.2008021,4.77623434 16.5678637,6.20144704 15.5119732,7.28410804 L15.4457446,7.35033661 L15.3122527,7.48382857 L15.1290893,7.66699196 C14.9955973,7.78392679 14.8621054,7.90086161 14.7286134,8.00020446 C14.9448911,8.16681071 16.5126455,13.6679214 20.4635938,13.6679214 C24.1972295,13.6679214 25.9812616,8.15025357 26.1975393,8.00020446 L26.1996089,8.00123929 Z" id="Path_691" stroke="#F4F4F4" stroke-width="0.3" fill="#F4F4F4" stroke-linejoin="bevel"></path>
            </g>
        </g>
</svg>