<?xml version="1.0" encoding="UTF-8"?>
<svg width="27px" height="27px" viewBox="0 0 27 27" version="1.1" xmlns="http://www.w3.org/2000/svg" xmlns:xlink="http://www.w3.org/1999/xlink">
    <!-- Generator: Sketch 50.2 (55047) - http://www.bohemiancoding.com/sketch -->
    <title>detail_0</title>
    <desc>Created with Sketch.</desc>
    <defs></defs>
    <g id="YesPlz-Mobile-Frontend" stroke="none" stroke-width="1" fill="none" fill-rule="evenodd">
        <g id="YesPlz_Mobile_6" transform="translate(-266.000000, -446.000000)" fill="#FFFFFF" fill-rule="nonzero" stroke="#3D3D3D">
            <g id="presets_filter_off" transform="translate(262.000000, 365.000000)">
                <path d="M11.8535714,102.458036 C10.5728932,102.452125 9.53893206,101.410183 9.54286811,100.129497 C9.54680416,98.8488114 10.5871503,97.8132448 11.8678407,97.815206 C13.148531,97.8171672 14.1857006,98.8559153 14.1857143,100.136607 C14.1857209,100.754149 13.9396723,101.346243 13.5019999,101.781905 C13.0643275,102.217566 12.4711069,102.460886 11.8535714,102.458036 Z M11.8535714,96.6696429 C10.5728932,96.663732 9.53893206,95.6217902 9.54286811,94.3411044 C9.54680416,93.0604186 10.5871503,92.024852 11.8678407,92.0268132 C13.148531,92.0287744 14.1857006,93.0675224 14.1857143,94.3482143 C14.1857209,94.9657563 13.9396723,95.5578503 13.5019999,95.9935119 C13.0643275,96.4291735 12.4711069,96.6724931 11.8535714,96.6696429 Z M11.8535714,90.9008929 C10.5714818,90.9008929 9.53214286,89.8615539 9.53214286,88.5794643 C9.53214286,87.2973747 10.5714818,86.2580357 11.8535714,86.2580357 C13.135661,86.2580357 14.175,87.2973747 14.175,88.5794643 C14.1705912,89.8597232 13.1338304,90.896484 11.8535714,90.9008929 Z M17.58125,102.458036 C16.2991604,102.458036 15.2598214,101.418697 15.2598214,100.136607 C15.2598214,98.8545175 16.2991604,97.8151786 17.58125,97.8151786 C18.8633396,97.8151786 19.9026786,98.8545175 19.9026786,100.136607 C19.9026786,101.418697 18.8633396,102.458036 17.58125,102.458036 Z M17.58125,96.6696429 C16.2991604,96.6696429 15.2598214,95.6303039 15.2598214,94.3482143 C15.2598214,93.0661247 16.2991604,92.0267857 17.58125,92.0267857 C18.8633396,92.0267857 19.9026786,93.0661247 19.9026786,94.3482143 C19.9026786,95.6303039 18.8633396,96.6696429 17.58125,96.6696429 Z M17.58125,90.9008929 C16.3005718,90.894982 15.2666106,89.8530402 15.2705467,88.5723544 C15.2744827,87.2916686 16.3148289,86.256102 17.5955192,86.2580632 C18.8762096,86.2600244 19.9133792,87.2987724 19.9133929,88.5794643 C19.9133994,89.1970063 19.6673508,89.7891003 19.2296785,90.2247619 C18.7920061,90.6604235 18.1987854,90.9037431 17.58125,90.9008929 Z M23.3089286,102.458036 C22.026839,102.458036 20.9875,101.418697 20.9875,100.136607 C20.9875,98.8545175 22.026839,97.8151786 23.3089286,97.8151786 C24.5910182,97.8151786 25.6303571,98.8545175 25.6303571,100.136607 C25.6303571,101.418697 24.5910182,102.458036 23.3089286,102.458036 Z M23.3089286,96.6696429 C22.026839,96.6696429 20.9875,95.6303039 20.9875,94.3482143 C20.9875,93.0661247 22.026839,92.0267857 23.3089286,92.0267857 C24.5910182,92.0267857 25.6303571,93.0661247 25.6303571,94.3482143 C25.6303571,95.6303039 24.5910182,96.6696429 23.3089286,96.6696429 Z M23.3089286,90.9008929 C22.026839,90.9008929 20.9875,89.8615539 20.9875,88.5794643 C20.9875,87.2973747 22.026839,86.2580357 23.3089286,86.2580357 C24.5910182,86.2580357 25.6303571,87.2973747 25.6303571,88.5794643 C25.6303571,89.8615539 24.5910182,90.9008929 23.3089286,90.9008929 Z M11.8535714,86.7848214 C10.8673487,86.7848214 10.0678571,87.5843129 10.0678571,88.5705357 C10.0678571,89.5567585 10.8673487,90.35625 11.8535714,90.35625 C12.8397942,90.35625 13.6392857,89.5567585 13.6392857,88.5705357 C13.6339179,87.5865449 12.8375622,86.7901892 11.8535714,86.7848214 Z M23.3089286,92.5535714 C22.3227058,92.5535714 21.5232143,93.3530629 21.5232143,94.3392857 C21.5232143,95.3255085 22.3227058,96.125 23.3089286,96.125 C24.2951513,96.125 25.0946429,95.3255085 25.0946429,94.3392857 C25.0946429,93.8656848 24.9065056,93.4114814 24.5716193,93.076595 C24.2367329,92.7417086 23.7825294,92.5535714 23.3089286,92.5535714 Z M17.58125,98.3392857 C16.5950272,98.3392857 15.7955357,99.1387772 15.7955357,100.125 C15.7955357,101.111223 16.5950272,101.910714 17.58125,101.910714 C18.5674728,101.910714 19.3669643,101.111223 19.3669643,100.125 C19.3669643,99.1387772 18.5674728,98.3392857 17.58125,98.3392857 Z M17.5,82 C10.5964406,82 5,87.5964406 5,94.5 C5,101.403559 10.5964406,107 17.5,107 C24.4035594,107 30,101.403559 30,94.5 C30,91.1847939 28.6830395,88.00537 26.3388348,85.6611652 C23.99463,83.3169605 20.8152061,82 17.5,82 Z" id="detail_0"></path>
            </g>
        </g>
    </g>
</svg>