<?xml version="1.0" encoding="UTF-8"?>
<svg width="28px" height="27px" viewBox="0 0 28 27" version="1.1" xmlns="http://www.w3.org/2000/svg" xmlns:xlink="http://www.w3.org/1999/xlink">
    <!-- Generator: Sketch 50.2 (55047) - http://www.bohemiancoding.com/sketch -->
    <title>details_ellipse</title>
    <desc>Created with Sketch.</desc>
    <defs></defs>
    <g id="YesPlz-Mobile-Frontend" stroke="none" stroke-width="1" fill="none" fill-rule="evenodd">
        <g id="YesPlz_Mobile_6" transform="translate(-266.000000, -208.000000)" fill="#3D3D3D" fill-rule="nonzero" stroke="#979797">
            <g id="Preset_box" transform="translate(0.000000, 68.000000)">
                <g id="details_0" transform="translate(262.000000, 137.000000)">
                    <path d="M12.1112577,24.4580357 C10.8027387,24.4521248 9.74630015,23.4101831 9.75032176,22.1294972 C9.75434338,20.8488114 10.8173057,19.8132448 12.1258372,19.815206 C13.4343686,19.8171672 14.4940854,20.8559153 14.4940994,22.1366071 C14.4941061,22.7541492 14.2427087,23.3462431 13.7955216,23.7819047 C13.3483346,24.2175664 12.7422179,24.4608859 12.1112577,24.4580357 Z M12.1112577,18.6696429 C10.8027387,18.663732 9.74630015,17.6217902 9.75032176,16.3411044 C9.75434338,15.0604186 10.8173057,14.024852 12.1258372,14.0268132 C13.4343686,14.0287744 14.4940854,15.0675224 14.4940994,16.3482143 C14.4941061,16.9657563 14.2427087,17.5578503 13.7955216,17.9935119 C13.3483346,18.4291735 12.7422179,18.6724931 12.1112577,18.6696429 Z M12.1112577,12.9008929 C10.8012966,12.9008929 9.73936336,11.8615539 9.73936336,10.5794643 C9.73936336,9.29737469 10.8012966,8.25803571 12.1112577,8.25803571 C13.4212188,8.25803571 14.4831522,9.29737469 14.4831522,10.5794643 C14.4786475,11.8597232 13.4193485,12.896484 12.1112577,12.9008929 Z M17.9634511,24.4580357 C16.65349,24.4580357 15.5915566,23.4186967 15.5915566,22.1366071 C15.5915566,20.8545175 16.65349,19.8151786 17.9634511,19.8151786 C19.2734122,19.8151786 20.3353455,20.8545175 20.3353455,22.1366071 C20.3353455,23.4186967 19.2734122,24.4580357 17.9634511,24.4580357 Z M17.9634511,18.6696429 C16.65349,18.6696429 15.5915566,17.6303039 15.5915566,16.3482143 C15.5915566,15.0661247 16.65349,14.0267857 17.9634511,14.0267857 C19.2734122,14.0267857 20.3353455,15.0661247 20.3353455,16.3482143 C20.3353455,17.6303039 19.2734122,18.6696429 17.9634511,18.6696429 Z M17.9634511,12.9008929 C16.6549321,12.894982 15.5984934,11.8530402 15.6025151,10.5723544 C15.6065367,9.29166856 16.6694991,8.25610195 17.9780305,8.25806316 C19.286562,8.26002437 20.3462787,9.29877242 20.3462927,10.5794643 C20.3462994,11.1970063 20.0949019,11.7891003 19.647715,12.2247619 C19.200528,12.6604235 18.5944112,12.9037431 17.9634511,12.9008929 Z M23.8156444,24.4580357 C22.5056833,24.4580357 21.44375,23.4186967 21.44375,22.1366071 C21.44375,20.8545175 22.5056833,19.8151786 23.8156444,19.8151786 C25.1256056,19.8151786 26.1875388,20.8545175 26.1875388,22.1366071 C26.1875388,23.4186967 25.1256056,24.4580357 23.8156444,24.4580357 Z M23.8156444,18.6696429 C22.5056833,18.6696429 21.44375,17.6303039 21.44375,16.3482143 C21.44375,15.0661247 22.5056833,14.0267857 23.8156444,14.0267857 C25.1256056,14.0267857 26.1875388,15.0661247 26.1875388,16.3482143 C26.1875388,17.6303039 25.1256056,18.6696429 23.8156444,18.6696429 Z M23.8156444,12.9008929 C22.5056833,12.9008929 21.44375,11.8615539 21.44375,10.5794643 C21.44375,9.29737469 22.5056833,8.25803571 23.8156444,8.25803571 C25.1256056,8.25803571 26.1875388,9.29737469 26.1875388,10.5794643 C26.1875388,11.8615539 25.1256056,12.9008929 23.8156444,12.9008929 Z M12.1112577,8.78482143 C11.1035954,8.78482143 10.2867236,9.58431295 10.2867236,10.5705357 C10.2867236,11.5567585 11.1035954,12.35625 12.1112577,12.35625 C13.1189202,12.35625 13.9357919,11.5567585 13.9357919,10.5705357 C13.9303074,9.58654493 13.1166396,8.79018921 12.1112577,8.78482143 Z M23.8156444,14.5535714 C22.807982,14.5535714 21.9911103,15.3530629 21.9911103,16.3392857 C21.9911103,17.3255085 22.807982,18.125 23.8156444,18.125 C24.8233068,18.125 25.6401786,17.3255085 25.6401786,16.3392857 C25.6401786,15.8656848 25.4479514,15.4114814 25.1057849,15.076595 C24.7636184,14.7417086 24.2995409,14.5535714 23.8156444,14.5535714 Z M17.9634511,20.3392857 C16.9557887,20.3392857 16.1389169,21.1387772 16.1389169,22.125 C16.1389169,23.1112228 16.9557887,23.9107143 17.9634511,23.9107143 C18.9711135,23.9107143 19.7879853,23.1112228 19.7879853,22.125 C19.7879853,21.1387772 18.9711135,20.3392857 17.9634511,20.3392857 Z M17.8804348,4 C10.826798,4 5.10869565,9.59644063 5.10869565,16.5 C5.10869565,23.4035594 10.826798,29 17.8804348,29 C24.9340716,29 30.6521739,23.4035594 30.6521739,16.5 C30.6521739,13.1847939 29.3065838,10.00537 26.9114182,7.66116524 C24.5162524,5.3169605 21.2677106,4 17.8804348,4 Z" id="details_ellipse"></path>
                </g>
            </g>
        </g>
    </g>
</svg>