<?xml version="1.0" encoding="UTF-8"?>
<svg width="22px" height="22px" viewBox="0 0 22 22" version="1.1" xmlns="http://www.w3.org/2000/svg" xmlns:xlink="http://www.w3.org/1999/xlink">
    <!-- Generator: Sketch 50.2 (55047) - http://www.bohemiancoding.com/sketch -->
    <title>Shape</title>
    <desc>Created with Sketch.</desc>
    <defs></defs>
    <g id="YesPlz-Mobile-Frontend" stroke="none" stroke-width="1" fill="none" fill-rule="evenodd">
        <g id="Group" transform="translate(-244.000000, 0.000000)" fill="#FFFFFF" fill-rule="nonzero">
            <g id="favorite_off" transform="translate(244.000000, 0.000000)">
                <path d="M10.9998256,21.2413793 C16.6558283,21.2413793 21.2413793,16.6556923 21.2413793,10.9998256 C21.2413793,5.34396698 16.6558283,0.75862069 10.9998256,0.75862069 C5.34383024,0.75862069 0.75862069,5.34396698 0.75862069,10.9998256 C0.75862069,16.6556923 5.34383024,21.2413793 10.9998256,21.2413793 Z M10.9998256,16.4281963 C10.996146,16.4284018 10.9921785,16.4284018 10.9882869,16.4284018 C10.8705114,16.4284018 10.7520521,16.3894165 10.6535985,16.3093884 C10.5085731,16.1916136 7.09035742,13.4091208 5.93135186,12.1212108 C4.66058609,10.708629 4.66891585,8.67698242 5.95067376,7.39521691 C6.60480193,6.740986 7.4641375,6.41387055 8.32348067,6.41387055 C9.18282456,6.41387055 10.0421771,6.740986 10.6963393,7.39521691 L11.0000304,7.69890726 L11.3039334,7.39501144 C11.957982,6.74096321 12.8173838,6.41387055 13.6766134,6.41387055 C14.5360535,6.41387055 15.3953229,6.74087205 16.0497354,7.39501144 C17.3312202,8.67704247 17.3395575,10.708697 16.06899,12.1210747 C14.9096426,13.4091902 11.4910854,16.1916816 11.3459921,16.3093884 C11.25059,16.3869784 11.1366583,16.4287375 11.0223251,16.4287375 C11.0148212,16.4287375 11.0073274,16.4285581 10.9998256,16.4281963 Z M10.9998256,22 C8.06172522,22 5.29942828,20.855727 3.22178627,18.777963 C1.14418206,16.7002454 0,13.9379174 0,10.9998256 C0,8.06174837 1.14418965,5.29948146 3.22179387,3.22185446 C5.29942069,1.1442124 8.06171003,0 10.9998256,0 C13.9379564,0 16.7003062,1.14420485 18.7780166,3.22183926 C20.8557414,5.29948905 22,8.06176357 22,10.9998256 C22,13.9379029 20.8557501,16.7002382 18.7780311,18.777979 C16.700299,20.855727 13.9379405,22 10.9998256,22 Z M8.32347995,7.17249305 C7.62874301,7.17249305 6.97658703,7.44208448 6.48713996,7.93159919 C5.49544824,8.92329887 5.49899111,10.506305 6.49534058,11.6138457 C7.49763739,12.7276198 10.3513522,15.0816464 10.9998575,15.6127161 C11.6487318,15.0818287 14.4952118,12.7356555 15.5051221,11.6135722 C16.5011836,10.5063427 16.5047113,8.92326052 15.5131932,7.93132644 C15.023732,7.44206133 14.3714089,7.17249305 13.6766105,7.17249305 C12.981896,7.17249305 12.3297711,7.4420237 11.840362,7.93144002 L11.536451,8.2353438 L11.0000224,8.77174923 L10.4636018,8.23533584 L10.1599107,7.93164477 C9.67041121,7.44208448 9.01822485,7.17249305 8.32347995,7.17249305 Z" id="Shape"></path>
            </g>
        </g>
    </g>
</svg>