<?xml version="1.0" encoding="UTF-8"?>
<svg width="26px" height="26px" viewBox="0 0 26 26" version="1.1" xmlns="http://www.w3.org/2000/svg" xmlns:xlink="http://www.w3.org/1999/xlink">
    <!-- Generator: Sketch 50.2 (55047) - http://www.bohemiancoding.com/sketch -->
    <title>pattern_0</title>
    <desc>Created with Sketch.</desc>
    <defs></defs>
    <g id="YesPlz-Mobile-Frontend" stroke="none" stroke-width="1" fill="none" fill-rule="evenodd">
        <g id="YesPlz_Mobile_6" transform="translate(-267.000000, -407.000000)" fill="#FFFFFF" fill-rule="nonzero" stroke="#3D3D3D">
            <g id="presets_filter_off" transform="translate(262.000000, 365.000000)">
                <g id="pattern_0" transform="translate(5.000000, 43.000000)">
                    <path d="M1.61113333,16.8098667 C2.27153333,11.4062 5.02666667,9.67286667 7.49233333,8.13626667 C10.0108667,6.5676 12.1888,5.1896 11.9270667,0.0303333333 C10.7781402,0.112433729 9.64690836,0.358759762 8.56786667,0.7618 C8.67793333,4.8594 6.7366,6.07446667 4.85333333,7.24793333 C2.86346667,8.48726667 0.988,9.65813333 0.866666667,14.2818 C1.02141774,15.149227 1.2710733,15.9970096 1.61113333,16.8098667 Z" id="Path_23"></path>
                    <path d="M4.27613333,6.32753333 C6.032,5.23293333 7.4516,4.3342 7.4828,1.22806667 C4.24744717,2.81631232 1.88117976,5.75534528 1.02006667,9.25513333 C1.84760133,8.02587008 2.96612014,7.02018562 4.27613333,6.32753333 Z" id="Path_24"></path>
                    <path d="M4.60026667,21.06 C5.02753333,15.301 7.55473333,13.2903333 10.0056667,11.3446667 C12.6680667,9.23086667 15.1831333,7.228 15.0418667,0.201066667 C14.3712604,0.0771631996 13.691418,0.00990373677 13.0095333,0 C13.2903333,5.78413333 10.6400667,7.45333333 8.06953333,9.05753333 C5.46086667,10.6825333 2.769,12.3690667 2.56186667,18.6168667 C3.13195343,19.5166013 3.81722762,20.3379397 4.60026667,21.06 Z" id="Path_25"></path>
                    <path d="M17.5933333,14.729 C20.0252,12.7772667 22.3184,10.92 22.1962,4.44426667 C21.5403783,3.6465638 20.7861532,2.93514609 19.9515333,2.327 C19.9186,9.4016 17.1686667,11.609 14.5028,13.7514 C11.9938,15.7646667 9.62606667,17.6696 9.45273333,23.7960667 C10.4742598,24.0897294 11.5299325,24.2479492 12.5926667,24.2666667 C12.8778,18.5302 15.2715333,16.5940667 17.5933333,14.729 Z" id="Path_26"></path>
                    <path d="M21.6692667,17.2605333 C19.9281333,18.3213333 18.4175333,19.2538667 18.2416,22.9805333 C21.637942,21.2742028 24.0422739,18.0793266 24.7416,14.3433333 C24.0281803,15.5979065 22.9590892,16.6130153 21.6692667,17.2605333 Z" id="Path_27"></path>
                    <path d="M21.1042,16.3349333 C22.9692667,15.1978667 24.7320667,14.1249333 24.5171333,9.13553333 L24.5726,9.13553333 C24.2891898,8.02197793 23.8479191,6.95469802 23.2622,5.96613333 C23.0022,11.7546 20.6067333,13.6994 18.2736667,15.5722667 C16.0532667,17.3524 13.9585333,19.0493333 13.6803333,24.232 C14.8640415,24.1502138 16.0292304,23.8943979 17.1383333,23.4728 C17.2042,18.7113333 19.2755333,17.4486 21.1042,16.3349333 Z" id="Path_28"></path>
                    <path d="M13.8216,12.9055333 C16.4909333,10.7666 19.0103333,8.7386 18.863,1.61806667 C18.0039874,1.12149453 17.0870852,0.732611566 16.133,0.4602 C16.211,7.80606667 13.4004,10.0368667 10.6799333,12.1966 C8.203,14.1630667 5.86473333,16.0316 5.642,21.9197333 C6.48753164,22.5408499 7.41016151,23.0495053 8.38673333,23.4329333 C8.65453333,17.0716 11.2796667,14.9482667 13.8216,12.9055333 Z" id="Path_29"></path>
                </g>
            </g>
        </g>
    </g>
</svg>