<?xml version="1.0" encoding="UTF-8"?>
<svg width="25px" height="25px" viewBox="0 0 25 25" version="1.1" xmlns="http://www.w3.org/2000/svg" xmlns:xlink="http://www.w3.org/1999/xlink">
    <!-- Generator: Sketch 50.2 (55047) - http://www.bohemiancoding.com/sketch -->
    <title>pattern_icon</title>
    <desc>Created with Sketch.</desc>
    <defs></defs>
    <g id="YesPlz-Mobile-Frontend" stroke="none" stroke-width="1" fill="none" fill-rule="evenodd">
        <g id="YesPlz_Mobile_6" transform="translate(-268.000000, -170.000000)" fill="#3D3D3D" fill-rule="nonzero">
            <g id="Preset_box" transform="translate(0.000000, 68.000000)">
                <g id="patterns_0" transform="translate(262.000000, 98.000000)">
                    <g id="pattern_icon" transform="translate(5.108696, 4.000000)">
                        <path d="M1.64615797,16.8098667 C2.32091449,11.4062 5.13594203,9.67286667 7.65521014,8.13626667 C10.2284942,6.5676 12.4537739,5.1896 12.1863508,0.0303333333 C11.0124476,0.112433729 9.85662376,0.358759762 8.75412464,0.7618 C8.86658405,4.8594 6.88304783,6.07446667 4.95884058,7.24793333 C2.92571595,8.48726667 1.00947826,9.65813333 0.885507247,14.2818 C1.04362247,15.149227 1.29870533,15.9970096 1.64615797,16.8098667 Z" id="Path_23"></path>
                        <path d="M4.36909275,6.32753333 C6.16313043,5.23293333 7.6135913,4.3342 7.64546957,1.22806667 C4.33978298,2.81631232 1.92207497,5.75534528 1.04224203,9.25513333 C1.88776658,8.02587008 3.03060101,7.02018562 4.36909275,6.32753333 Z" id="Path_24"></path>
                        <path d="M4.70027247,21.06 C5.13682753,15.301 7.71896666,13.2903333 10.2231812,11.3446667 C12.9434595,9.23086667 15.5132014,7.228 15.3688638,0.201066667 C14.6836791,0.0771631996 13.9890575,0.00990373677 13.2923492,0 C13.5792536,5.78413333 10.8713725,7.45333333 8.24495797,9.05753333 C5.57958116,10.6825333 2.82919565,12.3690667 2.61755942,18.6168667 C3.20003937,19.5166013 3.90021083,20.3379397 4.70027247,21.06 Z" id="Path_25"></path>
                        <path d="M17.9757971,14.729 C20.4605304,12.7772667 22.8035826,10.92 22.6787261,4.44426667 C22.0086474,3.6465638 21.2380261,2.93514609 20.3852623,2.327 C20.351613,9.4016 17.5418986,11.609 14.8180783,13.7514 C12.2545348,15.7646667 9.83532899,17.6696 9.65822753,23.7960667 C10.7019611,24.0897294 11.7805832,24.2479492 12.8664203,24.2666667 C13.1577522,18.5302 15.6035232,16.5940667 17.9757971,14.729 Z" id="Path_26"></path>
                        <path d="M22.1403377,17.2605333 C20.3613536,18.3213333 18.8179145,19.2538667 18.6381565,22.9805333 C22.108332,21.2742028 24.564932,18.0793266 25.2794609,14.3433333 C24.550532,15.5979065 23.4581998,16.6130153 22.1403377,17.2605333 Z" id="Path_27"></path>
                        <path d="M21.562987,16.3349333 C23.4685986,15.1978667 25.2697203,14.1249333 25.0501145,9.13553333 L25.106787,9.13553333 C24.8172157,8.02197793 24.3663521,6.95469802 23.7679,5.96613333 C23.5022478,11.7546 21.0547058,13.6994 18.6709203,15.5722667 C16.4022508,17.3524 14.2619797,19.0493333 13.9777318,24.232 C15.1871728,24.1502138 16.3776919,23.8943979 17.5109058,23.4728 C17.5782043,18.7113333 19.6945666,17.4486 21.562987,16.3349333 Z" id="Path_28"></path>
                        <path d="M14.1220696,12.9055333 C16.8494318,10.7666 19.4236014,8.7386 19.2730652,1.61806667 C18.3953784,1.12149453 17.4585436,0.732611566 16.4837174,0.4602 C16.563413,7.80606667 13.691713,10.0368667 10.9121058,12.1966 C8.38132609,14.1630667 5.99222753,16.0316 5.76465217,21.9197333 C6.62856494,22.5408499 7.57125198,23.0495053 8.56905362,23.4329333 C8.84267536,17.0716 11.5248768,14.9482667 14.1220696,12.9055333 Z" id="Path_29"></path>
                    </g>
                </g>
            </g>
        </g>
    </g>
</svg>