<?xml version="1.0" encoding="UTF-8"?>
<svg width="45px" height="287px" viewBox="0 0 45 287" version="1.1" xmlns="http://www.w3.org/2000/svg" xmlns:xlink="http://www.w3.org/1999/xlink">
    <!-- Generator: Sketch 51.1 (57501) - http://www.bohemiancoding.com/sketch -->
    <title>Shoes-Thumbnail-Vertical</title>
    <desc>Created with Sketch.</desc>
    <defs></defs>
    <g id="Shoes" stroke="none" stroke-width="1" fill="none" fill-rule="evenodd">
        <g id="iPhone-8-Copy-21" transform="translate(-142.000000, -118.000000)">
            <g id="Shoes-Thumbnail-Vertical" transform="translate(143.000000, 118.000000)">
                <g id="Thum_Vert_Toes" transform="translate(0.000000, 9.000000)">
                    <g id="Thum_Vert_Toes_1" transform="translate(0.000000, 42.000000)">
                        <g id="right-toe_0" transform="translate(26.982143, 4.000000)" stroke="#8F8F8F" stroke-width="0.6">
                            <path d="M0.3193754,2.72203586 C0.646024793,5.19077433 1.10781131,8.53030785 1.70473494,12.7406364 C1.35947807,14.8626569 1.18684963,16.2772046 1.18684963,16.9842795 C1.18684963,17.6913544 1.83403683,18.7685003 3.12841123,20.215717 C4.49772715,20.9341721 5.94961247,21.2933997 7.4840672,21.2933997 C9.93295148,21.2032957 11.0400956,21.2032957 11.9507074,20.215717 C12.8613192,19.2281382 14.5360563,15.7887727 14.3330328,14.7053735 C14.1300093,13.6219744 13.3915775,11.8565794 12.9800536,10.9407855 C12.6574716,10.2229205 12.0438931,8.63909178 11.9507074,6.92080512 C11.9507074,4.35344662 12.2935635,2.87181759 12.2935635,1.68077499 C12.2935635,0.489732389 -0.17059869,-0.981071836 0.3193754,2.72203586 Z" id="right-toe-0"></path>
                        </g>
                        <g id="left-toe_0" transform="translate(2.000000, 0.642857)" stroke="#8F8F8F" stroke-width="0.6">
                            <path d="M19.210398,0.80931136 C19.2875826,3.18678187 19.4259101,5.24116026 19.9380166,6.54025088 C20.7115716,8.5025732 21.5643372,8.95411001 22.2177074,9.66895168 C22.8710775,10.3837934 22.7029672,11.3910414 22.7029672,11.8154856 C22.7029672,11.9265181 22.1351936,12.9515479 20.4716035,14.1196111 C19.1990122,15.0131407 17.1242551,15.7947356 15.134117,17.4847123 C10.5423788,21.3839042 9.41234012,23.3811176 8.19856454,23.9346467 C7.38938082,24.3036661 6.12781596,24.3036661 4.41386997,23.9346467 C3.01052695,23.5315172 2.07089498,23.2209374 1.59497406,23.0029074 C0.881092689,22.6758625 0.34413151,22.4931394 0.0557766202,21.938107 C-0.136459973,21.5680854 0.168217387,21.245834 0.9698087,20.9713527 L4.90002698,18.9019516 L8.19856454,5.59165184 C14.381769,0.445686758 18.0523802,-1.14842674 19.210398,0.80931136 Z" id="left-toe-0"></path>
                        </g>
                        <g id="Toes_1" transform="translate(0.000000, 18.394737)" fill="#4A4A4A" stroke="#4A4A4A">
                            <g id="right-toe" transform="translate(27.671053, 0.000000)">
                                <path d="M0.760692609,0.158503326 C1.17228018,1.44463828 0.627896057,2.2624214 1.95506116,3.03134381 C3.28222625,3.80026622 11.6660827,3.74007815 12.8245438,3.03134381 C13.821413,1.97889449 13.6900516,0.895854846 13.9386374,0.158503326 C13.8560053,-0.0683162757 15.5615231,4.26902998 14.1087248,6.81107114 C12.6559266,9.3531123 12.4170338,10.5947845 7.45902508,10.5947845 C2.50101639,10.5947845 0.349234023,6.4021452 0.205787274,5.08948974 C0.0424009838,3.59437111 0.760692609,0.424711492 0.760692609,0.158503326 Z" id="right-toe-1"></path>
                            </g>
                            <g id="left-toe" transform="translate(0.000000, 0.342105)">
                                <path d="M11.6057207,4.74330676 C11.3057175,5.11235476 10.5363137,5.78225962 8.5729347,6.26764293 C6.60955565,6.75302624 4.27296219,6.77101674 2.1852313,6.26764293 C0.0975004043,5.76426912 -0.168966571,5.17442383 0.0746158169,4.07499518 C0.237004076,3.34204274 0.940542569,2.75303082 2.1852313,2.30795942 C4.08418167,1.32035451 5.53902634,0.551034708 6.54976528,-2.84217094e-14 C8.6962574,2.10450045 9.79493583,3.14106738 11.6057207,4.74330676 Z" id="left-toe-1"></path>
                            </g>
                        </g>
                    </g>
                    <g id="Thum_Vert_Toes_0" transform="translate(4.000000, 0.000000)" stroke="#8F8F8F" stroke-width="0.6">
                        <g id="right-toe_0" transform="translate(24.982143, 4.000000)">
                            <path d="M0.3193754,2.72203586 C0.646024793,5.19077433 1.10781131,8.53030785 1.70473494,12.7406364 C1.35947807,14.8626569 1.18684963,16.2772046 1.18684963,16.9842795 C1.18684963,17.6913544 1.83403683,18.7685003 3.12841123,20.215717 C4.49772715,20.9341721 5.94961247,21.2933997 7.4840672,21.2933997 C9.93295148,21.2032957 11.0400956,21.2032957 11.9507074,20.215717 C12.8613192,19.2281382 14.5360563,15.7887727 14.3330328,14.7053735 C14.1300093,13.6219744 13.3915775,11.8565794 12.9800536,10.9407855 C12.6574716,10.2229205 12.0438931,8.63909178 11.9507074,6.92080512 C11.9507074,4.35344662 12.2935635,2.87181759 12.2935635,1.68077499 C12.2935635,0.489732389 -0.17059869,-0.981071836 0.3193754,2.72203586 Z" id="right-toe-0"></path>
                        </g>
                        <g id="left-toe_0" transform="translate(0.000000, 0.642857)">
                            <path d="M19.210398,0.80931136 C19.2875826,3.18678187 19.4259101,5.24116026 19.9380166,6.54025088 C20.7115716,8.5025732 21.5643372,8.95411001 22.2177074,9.66895168 C22.8710775,10.3837934 22.7029672,11.3910414 22.7029672,11.8154856 C22.7029672,11.9265181 22.1351936,12.9515479 20.4716035,14.1196111 C19.1990122,15.0131407 17.1242551,15.7947356 15.134117,17.4847123 C10.5423788,21.3839042 9.41234012,23.3811176 8.19856454,23.9346467 C7.38938082,24.3036661 6.12781596,24.3036661 4.41386997,23.9346467 C3.01052695,23.5315172 2.07089498,23.2209374 1.59497406,23.0029074 C0.881092689,22.6758625 0.34413151,22.4931394 0.0557766202,21.938107 C-0.136459973,21.5680854 0.168217387,21.245834 0.9698087,20.9713527 L4.90002698,18.9019516 L8.19856454,5.59165184 C14.381769,0.445686758 18.0523802,-1.14842674 19.210398,0.80931136 Z" id="left-toe-0"></path>
                        </g>
                    </g>
                    <g id="Thum_Vert_Toes_2" transform="translate(2.000000, 85.000000)">
                        <g id="right-toe_0" transform="translate(25.982143, 4.000000)" stroke="#8F8F8F" stroke-width="0.6">
                            <path d="M0.3193754,2.72203586 C0.646024793,5.19077433 1.10781131,8.53030785 1.70473494,12.7406364 C1.35947807,14.8626569 1.18684963,16.2772046 1.18684963,16.9842795 C1.18684963,17.6913544 1.83403683,18.7685003 3.12841123,20.215717 C4.49772715,20.9341721 5.94961247,21.2933997 7.4840672,21.2933997 C9.93295148,21.2032957 11.0400956,21.2032957 11.9507074,20.215717 C12.8613192,19.2281382 14.5360563,15.7887727 14.3330328,14.7053735 C14.1300093,13.6219744 13.3915775,11.8565794 12.9800536,10.9407855 C12.6574716,10.2229205 12.0438931,8.63909178 11.9507074,6.92080512 C11.9507074,4.35344662 12.2935635,2.87181759 12.2935635,1.68077499 C12.2935635,0.489732389 -0.17059869,-0.981071836 0.3193754,2.72203586 Z" id="right-toe-0"></path>
                        </g>
                        <g id="left-toe_0" transform="translate(1.000000, 0.642857)" stroke="#8F8F8F" stroke-width="0.6">
                            <path d="M19.210398,0.80931136 C19.2875826,3.18678187 19.4259101,5.24116026 19.9380166,6.54025088 C20.7115716,8.5025732 21.5643372,8.95411001 22.2177074,9.66895168 C22.8710775,10.3837934 22.7029672,11.3910414 22.7029672,11.8154856 C22.7029672,11.9265181 22.1351936,12.9515479 20.4716035,14.1196111 C19.1990122,15.0131407 17.1242551,15.7947356 15.134117,17.4847123 C10.5423788,21.3839042 9.41234012,23.3811176 8.19856454,23.9346467 C7.38938082,24.3036661 6.12781596,24.3036661 4.41386997,23.9346467 C3.01052695,23.5315172 2.07089498,23.2209374 1.59497406,23.0029074 C0.881092689,22.6758625 0.34413151,22.4931394 0.0557766202,21.938107 C-0.136459973,21.5680854 0.168217387,21.245834 0.9698087,20.9713527 L4.90002698,18.9019516 L8.19856454,5.59165184 C14.381769,0.445686758 18.0523802,-1.14842674 19.210398,0.80931136 Z" id="left-toe-0"></path>
                        </g>
                        <g id="Toes_2" transform="translate(0.000000, 18.000000)" fill="#4A4A4A" stroke="#4A4A4A">
                            <g id="right-toe_2" transform="translate(27.193371, 0.000000)">
                                <path d="M0.510904647,0.150798546 C0.902485124,1.37441502 1.06896289,2.57989525 1.40833263,2.81308282 C2.6709848,3.54462824 10.8916547,3.48736588 11.9938035,2.81308282 C12.9422153,1.81179262 12.8372319,0.973036234 13.0737341,0.271527061 C12.9951187,0.0557330643 14.592273,2.42361818 13.2100947,4.84209179 C11.8279163,7.2605654 8.21551964,12.2229093 6.91274093,12.2229093 C5.60996222,12.2229093 0.179557575,6.09093963 0.0430837123,4.84209179 C-0.112360439,3.41965025 0.510904647,0.404066445 0.510904647,0.150798546 Z" id="right-toe-2"></path>
                            </g>
                            <g id="left-toe_2" transform="translate(0.000000, 1.184558)">
                                <path d="M10.6465798,4.21838638 C10.3817933,4.54411262 9.64095777,5.33514556 7.91703435,5.33514556 C6.55832193,5.28049437 5.18857021,5.22826071 3.39037759,4.90564141 C3.3431626,4.89717042 3.27039548,4.88687969 3.17207625,4.87476922 C1.18646365,4.41615367 0.130642152,3.96365874 0.00461176159,3.51728444 C0.00461176159,3.23961748 0.780388344,2.75682909 2.33194151,2.06891926 C4.00797816,1.19724718 5.29204171,0.518236181 6.18413217,0.0318862596 C8.07865217,1.8893439 9.04835909,2.80423045 10.6465798,4.21838638 Z" id="left-toe-2"></path>
                            </g>
                        </g>
                    </g>
                </g>
                <g id="Thum_Vert_Covers" transform="translate(7.000000, 1.000000)">
                    <g id="Thum_Vert_Cover_0" transform="translate(2.000000, 0.000000)" stroke="#8F8F8F" stroke-width="0.6">
                        <g id="Thum_Vert_left-cover" transform="translate(0.000000, 1.142857)">
                            <path d="M15.3959138,0 C14.3394078,6.59652182 13.8580655,11.339746 13.951887,14.2296726 C14.0079437,15.9563521 14.1084064,17.4483803 14.4803327,18.3918675 C15.0421406,19.8170384 15.6614765,20.1449749 16.1359979,20.6641411 C16.6105194,21.1833074 16.4884264,21.9148389 16.4884264,22.2230988 C16.4884264,22.3037382 16.0760709,23.048184 14.8678596,23.8965102 C13.9436179,24.5454517 12.4367893,25.1130987 10.9914168,26.3404737 C7.65658671,29.17233 6.83587638,30.6228411 5.95435066,31.0248513 C5.36666685,31.292858 4.45043335,31.292858 3.20565014,31.0248513 C2.18644777,30.7320714 1.50402364,30.5065074 1.15837777,30.3481593 C0.639908951,30.1106372 0.249931518,29.9779314 0.0405087444,29.5748294 C-0.0991064383,29.3060948 0.122170815,29.072054 0.704340503,28.8727072 L3.55873016,27.3697685 L5.95435066,17.7029309 C6.25844706,14.6356729 6.352132,11.6356671 6.23540549,8.7029135 C6.11867897,5.7701599 5.87207098,2.86918873 5.49558151,0 L15.3959138,0 Z" id="Thum_Vert_left-cover-0-copy"></path>
                        </g>
                        <g id="Thum_Vert_right-cover" transform="translate(20.857143, 0.000000)">
                            <path d="M0.454468721,0 C1.27107772,5.65468699 1.67938221,9.85531854 1.67938221,12.6018947 C1.67938221,15.3484708 1.27107772,17.1227943 0.454468721,17.9248652 C-1.41553436e-14,18.0054006 -0.11361718,18.9043599 0.11361718,20.6217432 C0.340851541,22.3391264 0.662094333,24.6622802 1.07734556,27.5912044 C0.837166864,29.0673926 0.717077516,30.0514258 0.717077516,30.543304 C0.717077516,31.0351822 1.1672947,31.784501 2.06772906,32.7912604 C3.02029666,33.2910554 4.03030384,33.5409528 5.0977506,33.5409528 C6.80132228,33.4782718 7.57150949,33.4782718 8.20497856,32.7912604 C8.83844763,32.1042491 10.0034821,29.711647 9.86224841,28.9579781 C9.72101469,28.2043091 9.20732301,26.9762082 8.9210455,26.3391342 C8.69664065,25.8397499 8.26980341,24.737956 8.20497856,23.5426261 C8.20497856,21.7566376 8.44348716,20.7259391 8.44348716,19.8973878 C8.44348716,19.3450202 8.27289084,18.6875127 7.93169821,17.9248652 C7.80666667,17.0958592 7.97726299,15.3215357 8.44348716,12.6018947 C8.90971133,9.88225366 9.76339302,5.68162211 11.0045322,0 L0.454468721,0 Z" id="Thum_Vert_right-cover-0"></path>
                        </g>
                    </g>
                    <g id="Thum_Vert_Cover_1" transform="translate(1.571429, 42.571429)">
                        <path d="M15.8244852,1.57180613 C14.7679792,8.16832795 14.2866369,12.9115522 14.3804584,15.8014788 C14.4365151,17.5281582 14.5369778,19.0201864 14.9089041,19.9636737 C15.470712,21.3888445 16.0900479,21.716781 16.5645694,22.2359472 C17.0390908,22.7551135 16.9169978,23.486645 16.9169978,23.794905 C16.9169978,23.8755443 16.5046423,24.6199901 15.296431,25.4683164 C14.3721893,26.1172579 12.8653607,26.6849048 11.4199882,27.9122798 C8.08515814,30.7441361 7.2644478,32.1946472 6.38292209,32.5966574 C5.79523828,32.8646642 4.87900478,32.8646642 3.63422157,32.5966574 C2.6150192,32.3038775 1.93259507,32.0783135 1.58694919,31.9199655 C1.06848038,31.6824433 0.678502947,31.5497375 0.469080173,31.1466355 C0.32946499,30.8779009 0.550742243,30.6438602 1.13291193,30.4445133 L3.98730159,28.9415746 L6.38292209,19.274737 C6.68701848,16.207479 6.78070343,13.2074732 6.66397691,10.2747196 C6.5472504,7.34196603 6.30064241,4.44099486 5.92415294,1.57180613 L15.8244852,1.57180613 Z M21.7171482,0.428571429 L32.2672117,0.428571429 C31.0260725,6.11019354 30.1723908,10.3108251 29.7061666,13.0304661 C29.2399424,15.7501071 29.0693461,17.5244306 29.1943776,18.3534366 C29.5355703,19.1160841 29.7061666,19.7735916 29.7061666,20.3259592 C29.7061666,21.1545106 29.467658,22.185209 29.467658,23.9711975 C29.5324828,25.1665274 29.9593201,26.2683213 30.1837249,26.7677056 C30.4700024,27.4047796 30.9836941,28.6328805 31.1249278,29.3865495 C31.2661616,30.1402185 30.1011271,32.5328206 29.467658,33.2198319 C28.8341889,33.9068432 28.0640017,33.9068432 26.36043,33.9695242 C25.2929833,33.9695242 24.2829761,33.7196268 23.3304085,33.2198319 C22.4299741,32.2130724 21.9797569,31.4637536 21.9797569,30.9718754 C21.9797569,30.4799972 22.0998463,29.495964 22.340025,28.0197758 C21.9247738,25.0908516 21.603531,22.7676979 21.3762966,21.0503146 C21.1490623,19.3329313 21.2626794,18.433972 21.7171482,18.3534366 C22.5337571,17.5513657 22.9420616,15.7770422 22.9420616,13.0304661 C22.9420616,10.28389 22.5337571,6.08325842 21.7171482,0.428571429 Z" id="Combined-Shape-Copy" stroke="#8F8F8F" stroke-width="0.6"></path>
                        <g id="Thum_Vert_left_cover_1" transform="translate(4.000000, 26.000000)" fill="#4A4A4A" stroke="#4A4A4A">
                            <path d="M0.0831001461,3.03163921 L3.26576318,6.07499124 L5.07365617,4.20812054 L0.869543098,0.06400202 C0.640297142,1.03225279 0.48071668,1.6811166 0.390801712,2.01059345 C0.300886744,2.3400703 0.198319555,2.68041889 0.0831001461,3.03163921 Z" id="left-cover-1"></path>
                        </g>
                        <g id="Thum_Vert_right_cover_1" transform="translate(22.142857, 27.857143)" fill="#4A4A4A" stroke="#4A4A4A">
                            <path d="M0,2.79882256 C0.706729723,2.82150565 1.56716709,2.50900159 4.69596655,2.50900159 C7.82476601,2.50900159 8.34998607,2.81521511 9.0141322,2.79882256 C9.15368772,2.62508751 9.17215767,1.99137811 9.10603526,1.51424523 C9.07205231,1.26902754 8.75358108,0.345353411 8.69686255,0.285714286 C7.48315456,0.326586553 7.01149306,0.0874402518 4.57142857,0.0874402518 C2.13136408,0.0874402518 1.6188984,0.328142982 0.358225249,0.285714286 C0.358225249,0.510337261 0,2.79882256 0,2.79882256 Z" id="right-cover-1"></path>
                        </g>
                    </g>
                    <g id="Thum_Vert_Cover_2" transform="translate(2.000000, 85.000000)">
                        <path d="M15.3959138,1.1432347 C14.3394078,7.73975652 13.8580655,12.4829807 13.951887,15.3729073 C14.0079437,17.0995868 14.1084064,18.591615 14.4803327,19.5351022 C15.0421406,20.9602731 15.6614765,21.2882096 16.1359979,21.8073758 C16.6105194,22.3265421 16.4884264,23.0580736 16.4884264,23.3663335 C16.4884264,23.4469729 16.0760709,24.1914187 14.8678596,25.0397449 C13.9436179,25.6886864 12.4367893,26.2563334 10.9914168,27.4837084 C7.65658671,30.3155647 6.83587638,31.7660758 5.95435066,32.168086 C5.36666685,32.4360927 4.45043335,32.4360927 3.20565014,32.168086 C2.18644777,31.8753061 1.50402364,31.6497421 1.15837777,31.491394 C0.639908951,31.2538719 0.249931518,31.1211661 0.0405087444,30.7180641 C-0.0991064383,30.4493295 0.122170815,30.2152887 0.704340503,30.0159419 L3.55873016,28.5130032 L5.95435066,18.8461656 C6.25844706,15.7789076 6.352132,12.7789018 6.23540549,9.8461482 C6.11867897,6.9133946 5.87207098,4.01242343 5.49558151,1.1432347 L15.3959138,1.1432347 Z M21.2885767,0 L31.8386402,0 C30.597501,5.68162211 29.7438193,9.88225366 29.2775952,12.6018947 C28.811371,15.3215357 28.6407747,17.0958592 28.7658062,17.9248652 C29.1069988,18.6875127 29.2775952,19.3450202 29.2775952,19.8973878 C29.2775952,20.7259391 29.0390866,21.7566376 29.0390866,23.5426261 C29.1039114,24.737956 29.5307487,25.8397499 29.7551535,26.3391342 C30.041431,26.9762082 30.5551227,28.2043091 30.6963564,28.9579781 C30.8375901,29.711647 29.6725556,32.1042491 29.0390866,32.7912604 C28.4056175,33.4782718 27.6354303,33.4782718 25.9318586,33.5409528 C24.8644118,33.5409528 23.8544047,33.2910554 22.9018371,32.7912604 C22.0014027,31.784501 21.5511855,31.0351822 21.5511855,30.543304 C21.5511855,30.0514258 21.6712749,29.0673926 21.9114536,27.5912044 C21.4962023,24.6622802 21.1749595,22.3391264 20.9477252,20.6217432 C20.7204908,18.9043599 20.834108,18.0054006 21.2885767,17.9248652 C22.1051857,17.1227943 22.5134902,15.3484708 22.5134902,12.6018947 C22.5134902,9.85531854 22.1051857,5.65468699 21.2885767,0 Z" id="Combined-Shape-Copy-2" stroke="#8F8F8F" stroke-width="0.6"></path>
                        <g id="left_cover_2" transform="translate(4.000000, 22.000000)" fill="#4A4A4A" stroke="#4A4A4A">
                            <path d="M0,5.67830669 L3.24967193,8.71428571 C3.81735522,8.02971668 4.57741817,7.24849135 5.52986078,6.37060971 C6.4823034,5.49272808 7.09178401,4.95006041 7.35830263,4.74260672 L1.45884473,0.0110404653 C0.745572008,2.8374052 0.3432596,4.41459395 0.251907507,4.74260672 C0.160555413,5.07061949 0.0765862444,5.38251948 0,5.67830669 Z" id="left-cover-2"></path>
                        </g>
                        <g id="right_cover_2" transform="translate(21.714286, 22.142857)" fill="#4A4A4A" stroke="#4A4A4A">
                            <path d="M0.309045215,7.07752663 C2.737371,7.22881592 6.18335755,7.22881592 9.27989296,7.07752663 C9.44857492,6.65587659 9.74306411,6.06744561 9.54063595,5.37260229 C9.44109685,5.03093007 8.38671722,3.11992985 8.22973378,2.62762568 C8.07275033,2.1353215 7.90872379,1.29948531 7.82335361,1.12523851 C6.84131927,1.12523851 6.84131927,0.0181207101 4.19660891,0.0181207101 C1.55189856,0.0181207101 1.38803096,1.20722623 0.133043584,1.12523851 C0.108951034,1.21795436 0.360842462,2.16240172 0.438743109,3.04659211 C0.531374606,4.09798108 0.450963719,5.07264438 0.438743109,5.37260229 C0.403861512,6.22877975 0.309045215,6.80793686 0.309045215,7.07752663 Z" id="right-cover-2"></path>
                        </g>
                    </g>
                    <g id="Thum_Vert_Cover_3" transform="translate(0.714286, 127.428571)">
                        <path d="M15.81322,1.76911897 C14.7567139,8.3656408 14.2753717,13.108865 14.3691932,15.9987916 C14.4252498,17.7254711 14.5257125,19.2174993 14.8976389,20.1609865 C15.4594467,21.5861574 16.0787826,21.9140938 16.5533041,22.4332601 C17.0278256,22.9524263 16.9057325,23.6839578 16.9057325,23.9922178 C16.9057325,24.0728572 16.493377,24.8173029 15.2851657,25.6656292 C14.3609241,26.3145707 12.8540954,26.8822177 11.4087229,28.1095927 C8.07389286,30.941449 7.25318253,32.3919601 6.37165681,32.7939702 C5.783973,33.061977 4.8677395,33.061977 3.6229563,32.7939702 C2.60375392,32.5011904 1.92132979,32.2756264 1.57568392,32.1172783 C1.0572151,31.8797562 0.667237669,31.7470504 0.457814895,31.3439484 C0.318199712,31.0752137 0.539476965,30.841173 1.12164665,30.6418262 L3.97603631,29.1388875 L6.37165681,19.4720499 C6.67575321,16.4047919 6.76943815,13.4047861 6.65271164,10.4720325 C6.53598512,7.53927887 6.28937713,4.63830771 5.91288766,1.76911897 L15.81322,1.76911897 Z M21.7058829,0.625884274 L32.2559464,0.625884274 C31.0148072,6.30750638 30.1611255,10.5081379 29.6949013,13.2277789 C29.2286771,15.9474199 29.0580808,17.7217434 29.1831124,18.5507495 C29.524305,19.3133969 29.6949013,19.9709045 29.6949013,20.523272 C29.6949013,21.3518234 29.4563927,22.3825219 29.4563927,24.1685104 C29.5212176,25.3638402 29.9480548,26.4656341 30.1724596,26.9650185 C30.4587372,27.6020925 30.9724288,28.8301934 31.1136626,29.5838623 C31.2548963,30.3375313 30.0898618,32.7301334 29.4563927,33.4171447 C28.8229236,34.104156 28.0527364,34.104156 26.3491648,34.1668371 C25.281718,34.1668371 24.2717108,33.9169396 23.3191432,33.4171447 C22.4187089,32.4103853 21.9684917,31.6610664 21.9684917,31.1691882 C21.9684917,30.67731 22.088581,29.6932769 22.3287597,28.2170887 C21.9135085,25.2881645 21.5922657,22.9650107 21.3650313,21.2476274 C21.137797,19.5302442 21.2514142,18.6312848 21.7058829,18.5507495 C22.5224919,17.7486786 22.9307964,15.974355 22.9307964,13.2277789 C22.9307964,10.4812028 22.5224919,6.28057126 21.7058829,0.625884274 Z" id="Combined-Shape-Copy-3" stroke="#8F8F8F" stroke-width="0.6"></path>
                        <g id="Thum_Vert_left_cover_3" transform="translate(4.000000, 19.000000)" fill="#4A4A4A" stroke="#4A4A4A">
                            <path d="M0,10.0829919 L3.24967193,13.1428571 C3.81735522,12.4529021 4.57741817,11.6655303 5.52986078,10.7807418 C6.4823034,9.89595322 7.44854028,9.07964799 8.42857143,8.33182608 L2.33491373,0 C1.86075034,2.04683486 1.53280681,3.47180601 1.35108315,4.27491345 C0.671644883,7.27761505 0.317103472,8.90399288 0.251907507,9.13993012 C0.160555413,9.4705236 0.0765862444,9.78487753 0,10.0829919 Z" id="left-cover-3"></path>
                        </g>
                        <g id="Thum_Vert_right_cover_3" transform="translate(21.428571, 20.857143)" fill="#4A4A4A" stroke="#4A4A4A">
                            <path d="M0.594759501,9.79181234 C3.02308528,9.94310163 6.46907184,9.94310163 9.56560725,9.79181234 C9.7342892,9.3701623 10.0287784,8.78173133 9.82635024,8.086888 C9.72681114,7.74521578 8.67243151,5.83421557 8.51544806,5.34191139 C8.35846461,4.84960721 7.81420874,3.50851301 8.11882446,1.2921967 C7.13679012,1.2921967 7.03503837,0.0356906866 4.39032801,0.0356906866 C1.74561766,0.0356906866 1.31936596,1.37418443 0.0643785858,1.2921967 C0.0402860364,1.38491255 0.646556748,4.88782771 0.724457395,5.77201811 C0.817088892,6.82340707 0.736678005,7.78693009 0.724457395,8.086888 C0.689575798,8.94306546 0.594759501,9.52222257 0.594759501,9.79181234 Z" id="right-cover-3"></path>
                        </g>
                    </g>
                    <g id="Thum_Vert_Cover_4" transform="translate(1.714286, 170.571429)">
                        <path d="M15.81322,1.62626183 C14.7567139,8.22278365 14.2753717,12.9660079 14.3691932,15.8559345 C14.4252498,17.5826139 14.5257125,19.0746421 14.8976389,20.0181294 C15.4594467,21.4433002 16.0787826,21.7712367 16.5533041,22.290403 C17.0278256,22.8095692 16.9057325,23.5411007 16.9057325,23.8493607 C16.9057325,23.93 16.493377,24.6744458 15.2851657,25.5227721 C14.3609241,26.1717136 12.8540954,26.7393605 11.4087229,27.9667356 C8.07389286,30.7985918 7.25318253,32.2491029 6.37165681,32.6511131 C5.783973,32.9191199 4.8677395,32.9191199 3.6229563,32.6511131 C2.60375392,32.3583332 1.92132979,32.1327692 1.57568392,31.9744212 C1.0572151,31.736899 0.667237669,31.6041932 0.457814895,31.2010913 C0.318199712,30.9323566 0.539476965,30.6983159 1.12164665,30.4989691 L3.97603631,28.9960303 L6.37165681,19.3291927 C6.67575321,16.2619347 6.76943815,13.2619289 6.65271164,10.3291753 C6.53598512,7.39642173 6.28937713,4.49545056 5.91288766,1.62626183 L15.81322,1.62626183 Z M21.7058829,0.483027131 L32.2559464,0.483027131 C31.0148072,6.16464924 30.1611255,10.3652808 29.6949013,13.0849218 C29.2286771,15.8045628 29.0580808,17.5788863 29.1831124,18.4078923 C29.524305,19.1705398 29.6949013,19.8280473 29.6949013,20.3804149 C29.6949013,21.2089663 29.4563927,22.2396647 29.4563927,24.0256533 C29.5212176,25.2209831 29.9480548,26.322777 30.1724596,26.8221613 C30.4587372,27.4592353 30.9724288,28.6873362 31.1136626,29.4410052 C31.2548963,30.1946742 30.0898618,32.5872763 29.4563927,33.2742876 C28.8229236,33.9612989 28.0527364,33.9612989 26.3491648,34.0239799 C25.281718,34.0239799 24.2717108,33.7740825 23.3191432,33.2742876 C22.4187089,32.2675281 21.9684917,31.5182093 21.9684917,31.0263311 C21.9684917,30.5344529 22.088581,29.5504197 22.3287597,28.0742316 C21.9135085,25.1453073 21.5922657,22.8221536 21.3650313,21.1047703 C21.137797,19.387387 21.2514142,18.4884277 21.7058829,18.4078923 C22.5224919,17.6058214 22.9307964,15.8314979 22.9307964,13.0849218 C22.9307964,10.3383457 22.5224919,6.13771412 21.7058829,0.483027131 Z" id="Combined-Shape-Copy-4" stroke="#8F8F8F" stroke-width="0.6"></path>
                        <g id="Thum_Vert_left_cover_4-copy" transform="translate(4.000000, 18.857143)" fill="#4A4A4A" stroke="#4A4A4A">
                            <path d="M0,10.0829919 L3.22765776,13.1428571 C3.7914954,12.4529021 4.54640948,11.6655303 5.49239998,10.7807418 C6.43839049,9.89595322 7.39808181,9.07964799 8.37147396,8.33182608 C9.89958221,4.17252717 10.7757576,1.8362113 11,1.32287847 C10.7825214,0.657741953 10.6470691,0.460664466 10.6470691,-8.4112957e-14 C9.2076032,-8.77912316e-14 6.4316123,-8.26624145e-14 2.31909638,-6.87265056e-14 C1.8481451,2.04683486 1.52242316,3.47180601 1.34193054,4.27491345 C0.667094975,7.27761505 0.314955326,8.90399288 0.250201016,9.13993012 C0.159467767,9.4705236 0.0760674281,9.78487753 0,10.0829919 Z" id="left-cover-4"></path>
                        </g>
                        <g id="Thum_Vert_right_cover_4-copy" transform="translate(21.142857, 18.000000)" fill="#4A4A4A" stroke="#4A4A4A">
                            <path d="M1.01017168,12.5060981 C3.43849746,12.6573873 7.04781112,12.6573873 9.9167698,12.5060981 C10.1120645,11.8332136 10.2628544,11.6042933 10.1289829,11.0967218 C9.99511134,10.5891503 9.20483401,8.87079987 8.86638253,7.63909822 C8.7614475,7.25721584 8.57756622,6.5918054 8.51331451,5.64560907 C8.45675713,4.81272241 8.51331451,3.70805623 8.51331451,3.14351026 C8.51331451,1.81480334 8.49453126,0.791502389 8.12742801,0.460259171 C6.90235029,0.540340352 6.84574937,0.00125052013 4.44840017,0.00125052013 C2.05105098,0.00125052013 1.13978919,0.514258132 0.313226294,0.460259171 C-0.323158111,0.819875032 0.886466835,7.07108488 1.01017168,8.47516354 C1.10280318,9.52655251 1.02239229,10.5012158 1.01017168,10.8011737 C0.975290084,11.6573512 1.01017168,12.5060981 1.01017168,12.5060981 Z" id="right-cover-4"></path>
                        </g>
                    </g>
                </g>
                <g id="Thum_Vert__Counters" transform="translate(7.000000, 1.000000)">
                    <g id="Thum_Vert_Counter_0" transform="translate(2.000000, 0.000000)" stroke="#8F8F8F" stroke-width="0.6">
                        <path d="M15.9673424,1.1432347 C14.9108364,7.73975652 14.4294941,12.4829807 14.5233156,15.3729073 C14.5793723,17.0995868 14.679835,18.591615 15.0517613,19.5351022 C15.6135691,20.9602731 16.2329051,21.2882096 16.7074265,21.8073758 C17.181948,22.3265421 17.0598549,23.0580736 17.0598549,23.3663335 C17.0598549,23.4469729 16.6474994,24.1914187 15.4392881,25.0397449 C14.5150465,25.6886864 13.0082179,26.2563334 11.5628453,27.4837084 C8.22801528,30.3155647 7.40730495,31.7660758 6.52577923,32.168086 C5.93809542,32.4360927 5.02186192,32.4360927 3.77707872,32.168086 C2.75787634,31.8753061 2.07545221,31.6497421 1.72980634,31.491394 C1.21133752,31.2538719 0.82136009,31.1211661 0.611937316,30.7180641 C0.472322133,30.4493295 0.693599386,30.2152887 1.27576907,30.0159419 L4.13015873,28.5130032 L6.52577923,18.8461656 C6.82987563,15.7789076 6.92356057,12.7789018 6.80683406,9.8461482 C6.69010755,6.9133946 6.44349955,4.01242343 6.06701008,1.1432347 L15.9673424,1.1432347 Z M21.8600053,0 L32.4100688,0 C31.1689296,5.68162211 30.3152479,9.88225366 29.8490237,12.6018947 C29.3827996,15.3215357 29.2122032,17.0958592 29.3372348,17.9248652 C29.6784274,18.6875127 29.8490237,19.3450202 29.8490237,19.8973878 C29.8490237,20.7259391 29.6105151,21.7566376 29.6105151,23.5426261 C29.67534,24.737956 30.1021772,25.8397499 30.3265821,26.3391342 C30.6128596,26.9762082 31.1265513,28.2043091 31.267785,28.9579781 C31.4090187,29.711647 30.2439842,32.1042491 29.6105151,32.7912604 C28.9770461,33.4782718 28.2068589,33.4782718 26.5032872,33.5409528 C25.4358404,33.5409528 24.4258332,33.2910554 23.4732656,32.7912604 C22.5728313,31.784501 22.1226141,31.0351822 22.1226141,30.543304 C22.1226141,30.0514258 22.2427034,29.0673926 22.4828821,27.5912044 C22.0676309,24.6622802 21.7463881,22.3391264 21.5191538,20.6217432 C21.2919194,18.9043599 21.4055366,18.0054006 21.8600053,17.9248652 C22.6766143,17.1227943 23.0849188,15.3484708 23.0849188,12.6018947 C23.0849188,9.85531854 22.6766143,5.65468699 21.8600053,0 Z"></path>
                    </g>
                    <g id="Thum_Vert_Counter_1" transform="translate(1.428571, 43.000000)">
                        <path d="M15.9673424,1.1432347 C14.9108364,7.73975652 14.4294941,12.4829807 14.5233156,15.3729073 C14.5793723,17.0995868 14.679835,18.591615 15.0517613,19.5351022 C15.6135691,20.9602731 16.2329051,21.2882096 16.7074265,21.8073758 C17.181948,22.3265421 17.0598549,23.0580736 17.0598549,23.3663335 C17.0598549,23.4469729 16.6474994,24.1914187 15.4392881,25.0397449 C14.5150465,25.6886864 13.0082179,26.2563334 11.5628453,27.4837084 C8.22801528,30.3155647 7.40730495,31.7660758 6.52577923,32.168086 C5.93809542,32.4360927 5.02186192,32.4360927 3.77707872,32.168086 C2.75787634,31.8753061 2.07545221,31.6497421 1.72980634,31.491394 C1.21133752,31.2538719 0.82136009,31.1211661 0.611937316,30.7180641 C0.472322133,30.4493295 0.693599386,30.2152887 1.27576907,30.0159419 L4.13015873,28.5130032 L6.52577923,18.8461656 C6.82987563,15.7789076 6.92356057,12.7789018 6.80683406,9.8461482 C6.69010755,6.9133946 6.44349955,4.01242343 6.06701008,1.1432347 L15.9673424,1.1432347 Z M21.8600053,0 L32.4100688,0 C31.1689296,5.68162211 30.3152479,9.88225366 29.8490237,12.6018947 C29.3827996,15.3215357 29.2122032,17.0958592 29.3372348,17.9248652 C29.6784274,18.6875127 29.8490237,19.3450202 29.8490237,19.8973878 C29.8490237,20.7259391 29.6105151,21.7566376 29.6105151,23.5426261 C29.67534,24.737956 30.1021772,25.8397499 30.3265821,26.3391342 C30.6128596,26.9762082 31.1265513,28.2043091 31.267785,28.9579781 C31.4090187,29.711647 30.2439842,32.1042491 29.6105151,32.7912604 C28.9770461,33.4782718 28.2068589,33.4782718 26.5032872,33.5409528 C25.4358404,33.5409528 24.4258332,33.2910554 23.4732656,32.7912604 C22.5728313,31.784501 22.1226141,31.0351822 22.1226141,30.543304 C22.1226141,30.0514258 22.2427034,29.0673926 22.4828821,27.5912044 C22.0676309,24.6622802 21.7463881,22.3391264 21.5191538,20.6217432 C21.2919194,18.9043599 21.4055366,18.0054006 21.8600053,17.9248652 C22.6766143,17.1227943 23.0849188,15.3484708 23.0849188,12.6018947 C23.0849188,9.85531854 22.6766143,5.65468699 21.8600053,0 Z" id="Combined-Shape" stroke="#8F8F8F" stroke-width="0.6"></path>
                        <g id="Thum_Vert_left_counter_1" transform="translate(13.000000, 19.285714)" fill="#4A4A4A" stroke="#4A4A4A">
                            <path d="M2.02503506,0.121134152 C2.54572064,1.19109617 3.03375825,1.92377583 3.48914791,2.31917312 C3.86647856,2.64679477 4.12336739,2.86371666 4.24531245,3.32101063 C4.31923751,3.5982296 4.27650304,3.88210141 4.24531245,3.99266345 C4.17562956,4.23967002 4.13828646,4.40699079 2.89225565,5.49214691 C2.01067691,6.14405825 1.06970324,6.69541659 0.0693346341,7.14622193 C0.449681887,6.10693848 0.639855513,5.00623224 0.639855513,3.84410318 C0.639855513,2.68197413 1.10158203,1.44098445 2.02503506,0.121134152 Z" id="left-heel-1"></path>
                        </g>
                        <g id="Thum_Vert_right_counter_1" transform="translate(21.571429, 17.000000)" fill="#4A4A4A" stroke="#4A4A4A">
                            <path d="M1.01302183,0.0921054714 C1.14481501,-0.0487588515 1.3823404,0.494278513 1.22956598,1.35775598 C1.17214921,1.68227423 0.967143908,2.71110899 0.814100443,3.48182067 C0.745290605,3.82834017 0.438934852,6.25785977 0.437075018,6.24492811 C0.395492695,5.95580102 -0.082222137,2.40303707 0.0341119351,1.53735807 C0.09407179,1.23822439 0.228392818,1.05042228 0.437075018,0.973951749 C0.562610099,0.84305993 0.688285241,0.685481979 0.814100443,0.501217893 C0.927439374,0.321957338 0.881228653,0.232969794 1.01302183,0.0921054714 Z M7.82577763,0.30701498 L7.91597493,0.973951749 C8.18512182,1.4987143 8.33722667,2.06930742 8.37228948,2.68573111 C8.4073523,3.30215479 8.32603717,4.42844995 8.1283441,6.06461658 C8.03537672,4.60482105 7.93452123,3.64522078 7.82577763,3.18581578 C7.69891485,2.64986334 7.31482329,1.72690593 7.31482329,1.47661547 C7.31482329,0.904510941 7.4851414,0.514644112 7.82577763,0.30701498 Z" id="right-counter-1"></path>
                        </g>
                    </g>
                    <g id="Thum_Vert_Counter_2" transform="translate(1.857143, 85.000000)">
                        <path d="M15.6703628,1.1976904 C14.6138568,7.79421222 14.1325145,12.5374364 14.226336,15.427363 C14.2823927,17.1540425 14.3828554,18.6460707 14.7547817,19.5895579 C15.3165896,21.0147288 15.9359255,21.3426653 16.410447,21.8618315 C16.8849684,22.3809978 16.7628754,23.1125293 16.7628754,23.4207892 C16.7628754,23.5014286 16.3505199,24.2458744 15.1423086,25.0942006 C14.2180669,25.7431421 12.7112383,26.3107891 11.2658658,27.5381641 C7.93103572,30.3700204 7.11032538,31.8205315 6.22879967,32.2225417 C5.64111586,32.4905484 4.72488235,32.4905484 3.48009915,32.2225417 C2.46089678,31.9297618 1.77847265,31.7041978 1.43282677,31.5458497 C0.914357958,31.3083276 0.524380526,31.1756218 0.314957752,30.7725198 C0.175342569,30.5037852 0.396619822,30.2697444 0.978789511,30.0703976 L3.83317917,28.5674589 L6.22879967,18.9006213 C6.53289606,15.8333633 6.626581,12.8333575 6.50985449,9.9006039 C6.39312798,6.9678503 6.14651999,4.06687913 5.77003051,1.1976904 L15.6703628,1.1976904 Z M21.5630257,0.0544557023 L32.1130893,0.0544557023 C30.87195,5.73607781 30.0182683,9.93670936 29.5520442,12.6563504 C29.08582,15.3759914 28.9152237,17.1503149 29.0402552,17.9793209 C29.3814479,18.7419684 29.5520442,19.3994759 29.5520442,19.9518435 C29.5520442,20.7803948 29.3135356,21.8110933 29.3135356,23.5970818 C29.3783604,24.7924117 29.8051977,25.8942056 30.0296025,26.3935899 C30.31588,27.0306639 30.8295717,28.2587648 30.9708054,29.0124338 C31.1120391,29.7661027 29.9470046,32.1587048 29.3135356,32.8457161 C28.6800665,33.5327275 27.9098793,33.5327275 26.2063076,33.5954085 C25.1388608,33.5954085 24.1288537,33.3455111 23.1762861,32.8457161 C22.2758517,31.8389567 21.8256345,31.0896379 21.8256345,30.5977597 C21.8256345,30.1058815 21.9457239,29.1218483 22.1859026,27.6456601 C21.7706513,24.7167359 21.4494086,22.3935821 21.2221742,20.6761989 C20.9949398,18.9588156 21.108557,18.0598563 21.5630257,17.9793209 C22.3796347,17.17725 22.7879392,15.4029265 22.7879392,12.6563504 C22.7879392,9.90977424 22.3796347,5.70914269 21.5630257,0.0544557023 Z" id="Combined-Shape" stroke="#8F8F8F" stroke-width="0.6"></path>
                        <g id="Thum_Vert_left_counter_2" transform="translate(6.000000, 19.571429)" fill="#4A4A4A" stroke="#4A4A4A">
                            <path d="M8.68862653,0.00134096526 C9.14787017,0.960688921 9.60518682,1.63806154 10.0605765,2.03345883 C10.5159661,2.42885612 10.7036149,3.03798582 10.6235228,3.86084793 C10.6235228,3.9957924 10.2081792,4.42498335 9.37749199,5.14842076 C8.49591325,5.8003321 7.42517985,6.47006791 6.16529179,7.15762816 C5.70834778,7.5106126 5.38727067,7.76291157 5.20206044,7.91452508 C4.61458742,8.39543181 4.21187214,8.81180957 3.95239407,9.04068969 C2.75828627,10.0939869 1.05401926,11.9961197 0.975246037,12.075778 C0.704461894,11.8089558 0.282292467,11.4215642 0.1070749,11.1715312 C0.75097063,10.4850248 5.95819567,2.85687889 6.52065048,2.19290232 C6.89562036,1.75025128 7.61827904,1.01973082 8.68862653,0.00134096526 Z" id="left_counter_2"></path>
                        </g>
                        <g id="Thum_Vert_right_counter_2" transform="translate(21.000000, 17.000000)" fill="#4A4A4A" stroke="#4A4A4A">
                            <path d="M1.15587898,0.0921054714 C1.28767216,-0.0487588515 1.52519754,0.494278513 1.37242312,1.35775598 C1.31500635,1.68227423 1.11000105,2.71110899 0.956957586,3.48182067 C0.905251679,3.74220647 1.35656941,8.3001952 1.37242312,10.5360941 C1.22368841,11.2172337 1.15587898,11.6362494 1.01915284,11.8327991 C1.01915284,11.5272639 1.15587898,11.1740724 1.15587898,10.5360941 C1.06703853,9.5933534 0.751158464,7.79841156 0.579932161,6.41446285 C0.490141776,5.51928596 0.267878134,4.23385033 0.176969078,3.1754417 C0.110331525,2.39961403 0.152530268,1.71921506 0.176969078,1.53735807 C0.236928933,1.23822439 0.371249961,1.05042228 0.579932161,0.973951749 C0.705467242,0.84305993 0.831142384,0.685481979 0.956957586,0.501217893 C1.07029652,0.321957338 1.0240858,0.232969794 1.15587898,0.0921054714 Z M7.96863477,0.30701498 L8.05883208,0.973951749 C8.32797897,1.4987143 8.48008382,2.06930742 8.51514663,2.68573111 C8.53839813,3.09450542 8.20359847,5.57704951 8.37157959,7.25686076 C8.48790115,7.94489351 9.0120042,9.32730519 9.62407206,10.91962 C9.64910457,10.9847429 9.61881538,11.0533563 9.5332045,11.1254603 C8.66176516,9.42645969 8.14024191,8.17491898 7.96863477,7.37083817 C7.73603951,6.28099198 8.0386055,4.88079697 7.96863477,3.68273598 C7.90273184,2.55432502 7.45768043,1.59801409 7.45768043,1.47661547 C7.45768043,0.904510941 7.62799854,0.514644112 7.96863477,0.30701498 Z" id="right-counter-2"></path>
                        </g>
                    </g>
                    <g id="Thum_Vert_Counter_3" transform="translate(0.714286, 128.000000)">
                        <path d="M15.81322,1.1976904 C14.7567139,7.79421222 14.2753717,12.5374364 14.3691932,15.427363 C14.4252498,17.1540425 14.5257125,18.6460707 14.8976389,19.5895579 C15.4594467,21.0147288 16.0787826,21.3426653 16.5533041,21.8618315 C17.0278256,22.3809978 16.9057325,23.1125293 16.9057325,23.4207892 C16.9057325,23.5014286 16.493377,24.2458744 15.2851657,25.0942006 C14.3609241,25.7431421 12.8540954,26.3107891 11.4087229,27.5381641 C8.07389286,30.3700204 7.25318253,31.8205315 6.37165681,32.2225417 C5.783973,32.4905484 4.8677395,32.4905484 3.6229563,32.2225417 C2.60375392,31.9297618 1.92132979,31.7041978 1.57568392,31.5458497 C1.0572151,31.3083276 0.667237669,31.1756218 0.457814895,30.7725198 C0.318199712,30.5037852 0.539476965,30.2697444 1.12164665,30.0703976 L3.97603631,28.5674589 L6.37165681,18.9006213 C6.67575321,15.8333633 6.76943815,12.8333575 6.65271164,9.9006039 C6.53598512,6.9678503 6.28937713,4.06687913 5.91288766,1.1976904 L15.81322,1.1976904 Z M21.7058829,0.0544557023 L32.2559464,0.0544557023 C31.0148072,5.73607781 30.1611255,9.93670936 29.6949013,12.6563504 C29.2286771,15.3759914 29.0580808,17.1503149 29.1831124,17.9793209 C29.524305,18.7419684 29.6949013,19.3994759 29.6949013,19.9518435 C29.6949013,20.7803948 29.4563927,21.8110933 29.4563927,23.5970818 C29.5212176,24.7924117 29.9480548,25.8942056 30.1724596,26.3935899 C30.4587372,27.0306639 30.9724288,28.2587648 31.1136626,29.0124338 C31.2548963,29.7661027 30.0898618,32.1587048 29.4563927,32.8457161 C28.8229236,33.5327275 28.0527364,33.5327275 26.3491648,33.5954085 C25.281718,33.5954085 24.2717108,33.3455111 23.3191432,32.8457161 C22.4187089,31.8389567 21.9684917,31.0896379 21.9684917,30.5977597 C21.9684917,30.1058815 22.088581,29.1218483 22.3287597,27.6456601 C21.9135085,24.7167359 21.5922657,22.3935821 21.3650313,20.6761989 C21.137797,18.9588156 21.2514142,18.0598563 21.7058829,17.9793209 C22.5224919,17.17725 22.9307964,15.4029265 22.9307964,12.6563504 C22.9307964,9.90977424 22.5224919,5.70914269 21.7058829,0.0544557023 Z" id="Combined-Shape" stroke="#8F8F8F" stroke-width="0.6"></path>
                        <g id="Thum_Vert_left_counter_3" transform="translate(6.000000, 18.428571)" fill="#4A4A4A" stroke="#4A4A4A">
                            <path d="M8.51079092,0.140476173 C8.56316956,0.696049402 8.74515562,1.24592027 9.05674911,1.79008877 C9.40890507,2.40509578 9.94564798,2.95249064 10.2034336,3.17631597 C10.6588233,3.57171326 10.8464721,4.18084296 10.7663799,5.00370507 C10.7689067,5.20241949 10.3548265,5.66349541 9.52413935,6.38693282 C8.6425606,7.03884417 7.5705638,7.676695 6.30814894,8.30048531 C3.95778926,5.02082916 2.38108866,2.89079173 1.57804713,1.91037302 C1.44317214,1.74570662 0.404344226,0.239814341 0.316358992,0.140476173 C1.25113946,0.140476173 3.98261677,0.140476173 8.51079092,0.140476173 Z" id="left-counter-3"></path>
                            <path d="M8.87199242,1.3991273 C9.30423023,2.18852246 9.74804397,2.78091869 10.2034336,3.17631597 C10.6588233,3.57171326 10.8464721,4.18084296 10.7663799,5.00370507 C10.7663799,5.13864954 10.3510363,5.56784049 9.52034914,6.2912779 C8.6387704,6.94318925 7.568037,7.61292505 6.30814894,8.30048531 C5.85120493,8.65346974 5.53012781,8.90576872 5.34491758,9.05738222 C4.75744456,9.53828895 4.39820201,9.96223748 4.13872394,10.1911176 C2.94461614,11.2444148 1.1897678,13.1349231 1.11099457,13.2145814 C0.919963455,13.2145814 0.255022891,12.4971842 0.140796029,12.4151169 C0.784691759,11.7286104 6.10105281,3.99973603 6.66350763,3.33575946 C7.0384775,2.89310842 7.7746391,2.24756436 8.87199242,1.3991273 Z" id="left-heel-4"></path>
                        </g>
                        <g id="Thum_Vert_right_counter_3" transform="translate(21.142857, 17.000000)" fill="#4A4A4A" stroke="#4A4A4A">
                            <path d="M1.15587898,0.0921054714 C1.28767216,-0.0487588515 2.93437722,3.1768128 2.78133376,3.94752448 C2.72962785,4.20791028 1.35656941,8.3001952 1.37242312,10.5360941 C1.22368841,11.2172337 1.15587898,11.6362494 1.01915284,11.8327991 C1.01915284,11.5272639 1.15587898,11.1740724 1.15587898,10.5360941 C1.06703853,9.5933534 0.751158464,7.79841156 0.579932161,6.41446285 C0.490141776,5.51928596 0.267878134,4.23385033 0.176969078,3.1754417 C0.110331525,2.39961403 0.152530268,1.71921506 0.176969078,1.53735807 C0.236928933,1.23822439 0.371249961,1.05042228 0.579932161,0.973951749 C0.705467242,0.84305993 0.831142384,0.685481979 0.956957586,0.501217893 C1.07029652,0.321957338 1.0240858,0.232969794 1.15587898,0.0921054714 Z M7.96863477,0.30701498 L8.05883208,0.973951749 C8.32797897,1.4987143 8.48008382,2.06930742 8.51514663,2.68573111 C8.53839813,3.09450542 8.20359847,5.57704951 8.37157959,7.25686076 C8.48790115,7.94489351 9.0120042,9.32730519 9.62407206,10.91962 C9.64910457,10.9847429 9.64910457,11.013719 9.62407206,11.0065484 C7.735175,7.32952526 6.7195605,4.9765173 6.57722857,3.94752448 C6.57722857,3.31439125 7.04103064,2.10088808 7.96863477,0.30701498 Z" id="right-counter-3"></path>
                        </g>
                    </g>
                </g>
                <g id="Thum_Vert_Bottoms" transform="translate(8.000000, 0.000000)">
                    <g id="Thum_Vert_left_bottom_0" transform="translate(1.000000, 0.428571)">
                        <path d="M15.3959138,1.71466327 C14.3394078,8.31118509 13.8580655,13.0544093 13.951887,15.9443359 C14.0079437,17.6710154 14.1084064,19.1630436 14.4803327,20.1065308 C15.0421406,21.5317016 15.6614765,21.8596381 16.1359979,22.3788044 C16.6105194,22.8979706 16.4884264,23.6295021 16.4884264,23.9377621 C16.4884264,24.0184015 16.0760709,24.7628472 14.8678596,25.6111735 C13.9436179,26.260115 12.4367893,26.827762 10.9914168,28.055137 C7.65658671,30.8869933 6.83587638,32.3375044 5.95435066,32.7395145 C5.36666685,33.0075213 4.45043335,33.0075213 3.20565014,32.7395145 C2.18644777,32.4467347 1.50402364,32.2211707 1.15837777,32.0628226 C0.639908951,31.8253005 0.249931518,31.6925947 0.0405087444,31.2894927 C-0.0991064383,31.020758 0.122170815,30.7867173 0.704340503,30.5873705 L3.55873016,29.0844318 L5.95435066,19.4175942 C6.25844706,16.3503362 6.352132,13.3503304 6.23540549,10.4175768 C6.11867897,7.48482317 5.87207098,4.583852 5.49558151,1.71466327 L15.3959138,1.71466327 Z M21.2885767,0.571428571 L31.8386402,0.571428571 C30.597501,6.25305068 29.7438193,10.4536822 29.2775952,13.1733232 C28.811371,15.8929642 28.6407747,17.6672877 28.7658062,18.4962938 C29.1069988,19.2589412 29.2775952,19.9164488 29.2775952,20.4688163 C29.2775952,21.2973677 29.0390866,22.3280662 29.0390866,24.1140547 C29.1039114,25.3093845 29.5307487,26.4111784 29.7551535,26.9105628 C30.041431,27.5476368 30.5551227,28.7757377 30.6963564,29.5294066 C30.8375901,30.2830756 29.6725556,32.6756777 29.0390866,33.362689 C28.4056175,34.0497003 27.6354303,34.0497003 25.9318586,34.1123814 C24.8644118,34.1123814 23.8544047,33.8624839 22.9018371,33.362689 C22.0014027,32.3559296 21.5511855,31.6066107 21.5511855,31.1147325 C21.5511855,30.6228543 21.6712749,29.6388212 21.9114536,28.162633 C21.4962023,25.2337088 21.1749595,22.910555 20.9477252,21.1931717 C20.7204908,19.4757885 20.834108,18.5768291 21.2885767,18.4962938 C22.1051857,17.6942229 22.5134902,15.9198993 22.5134902,13.1733232 C22.5134902,10.4267471 22.1051857,6.22611556 21.2885767,0.571428571 Z" id="bottom" stroke="#8F8F8F" stroke-width="0.6"></path>
                        <path d="M12.1428571,27.3846396 C11.2251584,28.0737596 10.527208,28.6873349 10.0490059,29.2253653 C10.8906415,28.9709353 11.5885919,28.7676995 12.1428571,28.6156577 L16.3899652,26.3381407 L16.613473,24.1254927 C15.9464115,24.8994818 15.2691816,25.5312843 14.5817834,26.0209001 C13.8223126,26.2707258 13.0093372,26.7253057 12.1428571,27.3846396 Z" id="Thum_Vert_left-bottom-0" stroke="#4A4A4A" fill="#4A4A4A"></path>
                    </g>
                    <g id="Thum_Vert_left_bottom_1" transform="translate(1.000000, 43.571429)">
                        <path d="M15.5275057,1.62626183 C14.4709997,8.22278365 13.9896574,12.9660079 14.0834789,15.8559345 C14.1395355,17.5826139 14.2399983,19.0746421 14.6119246,20.0181294 C15.1737324,21.4433002 15.7930684,21.7712367 16.2675898,22.290403 C16.7421113,22.8095692 16.6200182,23.5411007 16.6200182,23.8493607 C16.6200182,23.93 16.2076627,24.6744458 14.9994514,25.5227721 C14.0752098,26.1717136 12.5683811,26.7393605 11.1230086,27.9667356 C7.78817857,30.7985918 6.96746824,32.2491029 6.08594253,32.6511131 C5.49825872,32.9191199 4.58202521,32.9191199 3.33724201,32.6511131 C2.31803963,32.3583332 1.63561551,32.1327692 1.28996963,31.9744212 C0.771500816,31.736899 0.381523383,31.6041932 0.172100609,31.2010913 C0.0324854264,30.9323566 0.253762679,30.6983159 0.835932368,30.4989691 L3.69032202,28.9960303 L6.08594253,19.3291927 C6.39003892,16.2619347 6.48372386,13.2619289 6.36699735,10.3291753 C6.25027084,7.39642173 6.00366285,4.49545056 5.62717337,1.62626183 L15.5275057,1.62626183 Z M21.4201686,0.483027131 L31.9702321,0.483027131 C30.7290929,6.16464924 29.8754112,10.3652808 29.409187,13.0849218 C28.9429629,15.8045628 28.7723665,17.5788863 28.8973981,18.4078923 C29.2385907,19.1705398 29.409187,19.8280473 29.409187,20.3804149 C29.409187,21.2089663 29.1706784,22.2396647 29.1706784,24.0256533 C29.2355033,25.2209831 29.6623405,26.322777 29.8867454,26.8221613 C30.1730229,27.4592353 30.6867146,28.6873362 30.8279483,29.4410052 C30.969182,30.1946742 29.8041475,32.5872763 29.1706784,33.2742876 C28.5372094,33.9612989 27.7670221,33.9612989 26.0634505,34.0239799 C24.9960037,34.0239799 23.9859965,33.7740825 23.0334289,33.2742876 C22.1329946,32.2675281 21.6827774,31.5182093 21.6827774,31.0263311 C21.6827774,30.5344529 21.8028667,29.5504197 22.0430454,28.0742316 C21.6277942,25.1453073 21.3065514,22.8221536 21.079317,21.1047703 C20.8520827,19.387387 20.9656999,18.4884277 21.4201686,18.4078923 C22.2367776,17.6058214 22.6450821,15.8314979 22.6450821,13.0849218 C22.6450821,10.3383457 22.2367776,6.13771412 21.4201686,0.483027131 Z" id="bottom" stroke="#8F8F8F" stroke-width="0.6"></path>
                        <path d="M0.0878506025,31.1486976 C0.238851727,31.1486976 1.71399624,32.1246578 2.75537729,32.403373 C3.79675833,32.6820882 5.41234723,32.9033621 5.97324078,32.6246469 C7.20425987,32.0129378 8.85935395,29.7070226 10.9123623,28.1821432 C11.6506388,27.2680448 13.7895224,26.3471723 15.227647,25.4112432 C15.5748967,25.1852536 15.9752939,24.7899002 16.2385327,24.1043825 C16.5017714,23.4188649 16.5359823,22.8162582 16.662856,23.0814602 C16.8191223,23.6303982 16.7410766,26.9521151 16.662856,27.3741491 C16.6160851,27.626498 14.8654087,27.9414463 13.3475658,28.8235773 C11.829723,29.7057083 7.81982437,33.0157216 6.6575769,33.4819462 C4.22732278,34.4568197 0.478861684,32.5337704 0.306190355,32.2852595 C0.133519026,32.0367487 -0.0631505225,31.1486976 0.0878506025,31.1486976 Z" id="left-bottom-1" stroke="#4A4A4A" fill="#4A4A4A"></path>
                    </g>
                    <g id="Thum_Vert_left_bottom_2" transform="translate(1.000000, 85.428571)">
                        <path d="M15.5275057,1.76911897 C14.4709997,8.3656408 13.9896574,13.108865 14.0834789,15.9987916 C14.1395355,17.7254711 14.2399983,19.2174993 14.6119246,20.1609865 C15.1737324,21.5861574 15.7930684,21.9140938 16.2675898,22.4332601 C16.7421113,22.9524263 16.6200182,23.6839578 16.6200182,23.9922178 C16.6200182,24.0728572 16.2076627,24.8173029 14.9994514,25.6656292 C14.0752098,26.3145707 12.5683811,26.8822177 11.1230086,28.1095927 C7.78817857,30.941449 6.96746824,32.3919601 6.08594253,32.7939702 C5.49825872,33.061977 4.58202521,33.061977 3.33724201,32.7939702 C2.31803963,32.5011904 1.63561551,32.2756264 1.28996963,32.1172783 C0.771500816,31.8797562 0.381523383,31.7470504 0.172100609,31.3439484 C0.0324854264,31.0752137 0.253762679,30.841173 0.835932368,30.6418262 L3.69032202,29.1388875 L6.08594253,19.4720499 C6.39003892,16.4047919 6.48372386,13.4047861 6.36699735,10.4720325 C6.25027084,7.53927887 6.00366285,4.63830771 5.62717337,1.76911897 L15.5275057,1.76911897 Z M21.4201686,0.625884274 L31.9702321,0.625884274 C30.7290929,6.30750638 29.8754112,10.5081379 29.409187,13.2277789 C28.9429629,15.9474199 28.7723665,17.7217434 28.8973981,18.5507495 C29.2385907,19.3133969 29.409187,19.9709045 29.409187,20.523272 C29.409187,21.3518234 29.1706784,22.3825219 29.1706784,24.1685104 C29.2355033,25.3638402 29.6623405,26.4656341 29.8867454,26.9650185 C30.1730229,27.6020925 30.6867146,28.8301934 30.8279483,29.5838623 C30.969182,30.3375313 29.8041475,32.7301334 29.1706784,33.4171447 C28.5372094,34.104156 27.7670221,34.104156 26.0634505,34.1668371 C24.9960037,34.1668371 23.9859965,33.9169396 23.0334289,33.4171447 C22.1329946,32.4103853 21.6827774,31.6610664 21.6827774,31.1691882 C21.6827774,30.67731 21.8028667,29.6932769 22.0430454,28.2170887 C21.6277942,25.2881645 21.3065514,22.9650107 21.079317,21.2476274 C20.8520827,19.5302442 20.9656999,18.6312848 21.4201686,18.5507495 C22.2367776,17.7486786 22.6450821,15.974355 22.6450821,13.2277789 C22.6450821,10.4812028 22.2367776,6.28057126 21.4201686,0.625884274 Z" id="bottom" stroke="#8F8F8F" stroke-width="0.6"></path>
                        <path d="M7.21199316,31.7533367 L6,32.9771833 C12.0671468,32.9771833 15.6071529,32.9771833 16.6200182,32.9771833 C16.6200182,32.1489175 15.974249,32.1489175 15.974249,29.5105972 C15.974249,26.872277 16.6200182,25.3369566 16.6200182,24.1254927 C16.6200182,23.9141023 15.9019695,25.5456793 13.4525815,26.6009809 C12.687822,26.7531487 10.8838479,28.2330707 10.2185968,28.8437204 C9.61584024,29.3970047 8.61363905,30.3668768 7.21199316,31.7533367 Z" id="left-bottom-2" stroke="#4A4A4A" fill="#4A4A4A"></path>
                    </g>
                    <g id="Thum_Vert_left_bottom_3" transform="translate(0.000000, 128.571429)">
                        <path d="M15.6785986,1.86792289 C14.6267882,8.43512684 14.1475852,13.15727 14.2409897,16.0343525 C14.2967973,17.7533579 14.3968135,19.2387548 14.7670868,20.1780488 C15.3263977,21.5968855 15.942981,21.9233645 16.4153935,22.4402234 C16.887806,22.9570822 16.7662556,23.6853625 16.7662556,23.9922524 C16.7662556,24.0725333 16.3557328,24.8136705 15.1528913,25.6582264 C14.2327574,26.3042837 12.7326258,26.8694078 11.2936771,28.0913278 C7.97366855,30.9105981 7.15660581,32.3546625 6.27899799,32.7548859 C5.69392611,33.0217016 4.78176475,33.0217016 3.54251392,32.7548859 C2.52784133,32.4634073 1.8484502,32.2388458 1.50434053,32.0812015 C0.988176022,31.844735 0.599931823,31.712619 0.391439817,31.3113086 C0.252445146,31.0437683 0.472738944,30.8107678 1.05232121,30.612307 L3.89402469,29.116048 L6.27899799,19.4921741 C6.58174285,16.4385484 6.67501141,13.4518759 6.55880368,10.5321568 C6.44259596,7.61243763 6.197084,4.72435967 5.82226781,1.86792289 L15.6785986,1.86792289 Z M21.5792196,0.675555556 L32.082394,0.675555556 C30.8467709,6.33192601 29.9968834,10.5138881 29.5327313,13.2214418 C29.0685793,15.9289955 28.8987411,17.6954331 29.023217,18.5207547 C29.3628932,19.2800126 29.5327313,19.9345979 29.5327313,20.4845105 C29.5327313,21.3093794 29.2952828,22.335497 29.2952828,24.1135478 C29.3598195,25.3035651 29.7847597,26.4004621 30.0081672,26.8976269 C30.2931723,27.5318695 30.8753401,28.8799495 30.9469903,29.5684385 C31.0186406,30.2569276 29.9259364,32.6371191 29.2952828,33.3210771 C28.6646291,34.005035 27.8978649,34.005035 26.2018647,34.0674375 C25.1391621,34.0674375 24.1336439,33.8186507 23.1853099,33.3210771 C22.2888775,32.3187921 21.8406613,31.5728036 21.8406613,31.0831115 C21.8406613,30.5934194 21.9602169,29.6137597 22.1993281,28.1441324 C21.7859225,25.2282256 21.4661074,22.915397 21.239883,21.2056465 C21.0136586,19.4958961 21.1267708,18.6009321 21.5792196,18.5207547 C22.3921992,17.7222485 22.7986891,15.9558109 22.7986891,13.2214418 C22.7986891,10.4870727 22.3921992,6.3051106 21.5792196,0.675555556 Z" id="Combined-Shape" stroke="#8F8F8F" stroke-width="0.6"></path>
                        <path d="M15,25.8556865 L15,29.5848462 L16.8907464,29.5848462 L16.8907464,24.124935 C16.5757108,24.5773953 16.2605864,24.9404331 15.9453732,25.2140485 C15.63016,25.4876639 15.3150356,25.7015432 15,25.8556865 Z" id="left-bottom-3" stroke="#4A4A4A" fill="#4A4A4A"></path>
                    </g>
                    <g id="Thum_Vert_left_bottom_4" transform="translate(1.000000, 171.571429)">
                        <path d="M15.3696057,1.86792289 C14.3177952,8.43512684 13.8385922,13.15727 13.9319967,16.0343525 C13.9878043,17.7533579 14.0878205,19.2387548 14.4580938,20.1780488 C15.0174047,21.5968855 15.633988,21.9233645 16.1064005,22.4402234 C16.578813,22.9570822 16.4572626,23.6853625 16.4572626,23.9922524 C16.4572626,24.0725333 16.0467398,24.8136705 14.8438983,25.6582264 C13.9237644,26.3042837 12.4236328,26.8694078 10.9846842,28.0913278 C7.66467556,30.9105981 6.84761283,32.3546625 5.970005,32.7548859 C5.38493312,33.0217016 4.47277177,33.0217016 3.23352093,32.7548859 C2.21884835,32.4634073 1.53945721,32.2388458 1.19534754,32.0812015 C0.679183034,31.844735 0.290938835,31.712619 0.0824468286,31.3113086 C-0.0565478422,31.0437683 0.163745956,30.8107678 0.743328224,30.612307 L3.5850317,29.116048 L5.970005,19.4921741 C6.27274986,16.4385484 6.36601842,13.4518759 6.24981069,10.5321568 C6.13360297,7.61243763 5.88809101,4.72435967 5.51327482,1.86792289 L15.3696057,1.86792289 Z M21.2702266,0.675555556 L31.773401,0.675555556 C30.5377779,6.33192601 29.6878904,10.5138881 29.2237383,13.2214418 C28.7595863,15.9289955 28.5897482,17.6954331 28.714224,18.5207547 C29.0539002,19.2800126 29.2237383,19.9345979 29.2237383,20.4845105 C29.2237383,21.3093794 28.9862898,22.335497 28.9862898,24.1135478 C29.0508265,25.3035651 29.4757667,26.4004621 29.6991742,26.8976269 C29.9841794,27.5318695 30.5663471,28.8799495 30.6379973,29.5684385 C30.7096476,30.2569276 29.6169434,32.6371191 28.9862898,33.3210771 C28.3556361,34.005035 27.588872,34.005035 25.8928717,34.0674375 C24.8301692,34.0674375 23.8246509,33.8186507 22.8763169,33.3210771 C21.9798845,32.3187921 21.5316683,31.5728036 21.5316683,31.0831115 C21.5316683,30.5934194 21.6512239,29.6137597 21.8903351,28.1441324 C21.4769295,25.2282256 21.1571144,22.915397 20.93089,21.2056465 C20.7046656,19.4958961 20.8177778,18.6009321 21.2702266,18.5207547 C22.0832063,17.7222485 22.4896961,15.9558109 22.4896961,13.2214418 C22.4896961,10.4870727 22.0832063,6.3051106 21.2702266,0.675555556 Z" id="Combined-Shape" stroke="#8F8F8F" stroke-width="0.6"></path>
                        <path d="M12,27.3695967 L12.1778182,30.2577778 L16.1498035,30.2577778 L16.4507464,24.124935 C15.7866496,24.8954841 15.1124297,25.5244786 14.4280865,26.0119183 C13.6719912,26.2606337 12.862629,26.7131932 12,27.3695967 Z" id="left-bottom-4" stroke="#4A4A4A" fill="#4A4A4A"></path>
                    </g>
                    <g id="Thum_Vert_left_bottom_5" transform="translate(0.000000, 213.571429)">
                        <path d="M15.8096057,1.86792289 C14.7577952,8.43512684 14.2785922,13.15727 14.3719967,16.0343525 C14.4278043,17.7533579 14.5278205,19.2387548 14.8980938,20.1780488 C15.4574047,21.5968855 16.073988,21.9233645 16.5464005,22.4402234 C17.018813,22.9570822 16.8972626,23.6853625 16.8972626,23.9922524 C16.8972626,24.0725333 16.4867398,24.8136705 15.2838983,25.6582264 C14.3637644,26.3042837 12.8636328,26.8694078 11.4246842,28.0913278 C8.10467556,30.9105981 7.28761283,32.3546625 6.410005,32.7548859 C5.82493312,33.0217016 4.91277177,33.0217016 3.67352093,32.7548859 C2.65884835,32.4634073 1.97945721,32.2388458 1.63534754,32.0812015 C1.11918303,31.844735 0.730938835,31.712619 0.522446829,31.3113086 C0.383452158,31.0437683 0.603745956,30.8107678 1.18332822,30.612307 L4.0250317,29.116048 L6.410005,19.4921741 C6.71274986,16.4385484 6.80601842,13.4518759 6.68981069,10.5321568 C6.57360297,7.61243763 6.32809101,4.72435967 5.95327482,1.86792289 L15.8096057,1.86792289 Z M21.7102266,0.675555556 L32.213401,0.675555556 C30.9777779,6.33192601 30.1278904,10.5138881 29.6637383,13.2214418 C29.1995863,15.9289955 29.0297482,17.6954331 29.154224,18.5207547 C29.4939002,19.2800126 29.6637383,19.9345979 29.6637383,20.4845105 C29.6637383,21.3093794 29.4262898,22.335497 29.4262898,24.1135478 C29.4908265,25.3035651 29.9157667,26.4004621 30.1391742,26.8976269 C30.4241794,27.5318695 31.0063471,28.8799495 31.0779973,29.5684385 C31.1496476,30.2569276 30.0569434,32.6371191 29.4262898,33.3210771 C28.7956361,34.005035 28.028872,34.005035 26.3328717,34.0674375 C25.2701692,34.0674375 24.2646509,33.8186507 23.3163169,33.3210771 C22.4198845,32.3187921 21.9716683,31.5728036 21.9716683,31.0831115 C21.9716683,30.5934194 22.0912239,29.6137597 22.3303351,28.1441324 C21.9169295,25.2282256 21.5971144,22.915397 21.37089,21.2056465 C21.1446656,19.4958961 21.2577778,18.6009321 21.7102266,18.5207547 C22.5232063,17.7222485 22.9296961,15.9558109 22.9296961,13.2214418 C22.9296961,10.4870727 22.5232063,6.3051106 21.7102266,0.675555556 Z" id="Combined-Shape" stroke="#8F8F8F" stroke-width="0.6"></path>
                        <path d="M15,25.8556865 L15,32.9372847 L16.8907464,32.9372847 L16.8907464,24.124935 C16.5757108,24.5773953 16.2605864,24.9404331 15.9453732,25.2140485 C15.63016,25.4876639 15.3150356,25.7015432 15,25.8556865 Z" id="left-bottom-5" stroke="#4A4A4A" fill="#4A4A4A"></path>
                    </g>
                    <g id="Thum_Vert_left_bottom_6" transform="translate(1.000000, 252.571429)">
                        <path d="M15.3696057,1.86792289 C14.3177952,8.43512684 13.8385922,13.15727 13.9319967,16.0343525 C13.9878043,17.7533579 14.0878205,19.2387548 14.4580938,20.1780488 C15.0174047,21.5968855 15.633988,21.9233645 16.1064005,22.4402234 C16.578813,22.9570822 16.4572626,23.6853625 16.4572626,23.9922524 C16.4572626,24.0725333 16.0467398,24.8136705 14.8438983,25.6582264 C13.9237644,26.3042837 12.4236328,26.8694078 10.9846842,28.0913278 C7.66467556,30.9105981 6.84761283,32.3546625 5.970005,32.7548859 C5.38493312,33.0217016 4.47277177,33.0217016 3.23352093,32.7548859 C2.21884835,32.4634073 1.53945721,32.2388458 1.19534754,32.0812015 C0.679183034,31.844735 0.290938835,31.712619 0.0824468286,31.3113086 C-0.0565478422,31.0437683 0.163745956,30.8107678 0.743328224,30.612307 L3.5850317,29.116048 L5.970005,19.4921741 C6.27274986,16.4385484 6.36601842,13.4518759 6.24981069,10.5321568 C6.13360297,7.61243763 5.88809101,4.72435967 5.51327482,1.86792289 L15.3696057,1.86792289 Z M21.2702266,0.675555556 L31.773401,0.675555556 C30.5377779,6.33192601 29.6878904,10.5138881 29.2237383,13.2214418 C28.7595863,15.9289955 28.5897482,17.6954331 28.714224,18.5207547 C29.0539002,19.2800126 29.2237383,19.9345979 29.2237383,20.4845105 C29.2237383,21.3093794 28.9862898,22.335497 28.9862898,24.1135478 C29.0508265,25.3035651 29.4757667,26.4004621 29.6991742,26.8976269 C29.9841794,27.5318695 30.5663471,28.8799495 30.6379973,29.5684385 C30.7096476,30.2569276 29.6169434,32.6371191 28.9862898,33.3210771 C28.3556361,34.005035 27.588872,34.005035 25.8928717,34.0674375 C24.8301692,34.0674375 23.8246509,33.8186507 22.8763169,33.3210771 C21.9798845,32.3187921 21.5316683,31.5728036 21.5316683,31.0831115 C21.5316683,30.5934194 21.6512239,29.6137597 21.8903351,28.1441324 C21.4769295,25.2282256 21.1571144,22.915397 20.93089,21.2056465 C20.7046656,19.4958961 20.8177778,18.6009321 21.2702266,18.5207547 C22.0832063,17.7222485 22.4896961,15.9558109 22.4896961,13.2214418 C22.4896961,10.4870727 22.0832063,6.3051106 21.2702266,0.675555556 Z" id="Combined-Shape" stroke="#8F8F8F" stroke-width="0.6"></path>
                        <path d="M12,27.3695967 L12.4981411,33.0610212 L15.7126281,33.0610212 L16.4507464,24.124935 C15.7866496,24.8954841 15.1124297,25.5244786 14.4280865,26.0119183 C13.6719912,26.2606337 12.862629,26.7131932 12,27.3695967 Z" id="left-bottom-6" stroke="#4A4A4A" fill="#4A4A4A"></path>
                    </g>
                </g>
            </g>
        </g>
    </g>
</svg>