<?xml version="1.0" encoding="UTF-8"?>
<svg width="375px" height="667px" viewBox="0 0 375 667" version="1.1" xmlns="http://www.w3.org/2000/svg" xmlns:xlink="http://www.w3.org/1999/xlink">
    <!-- Generator: Sketch 51.1 (57501) - http://www.bohemiancoding.com/sketch -->
    <title>ShoesParts-VisualFilter</title>
    <desc>Created with Sketch.</desc>
    <defs></defs>
    <g id="ShoesParts-VisualFilter" stroke="none" stroke-width="1" fill="none" fill-rule="evenodd">
        <g id="bare-feet" transform="translate(78.000000, 99.000000)" fill="#FFFFFF" stroke="#4A4A4A">
            <path d="M149.94118,0.381189916 L223.791625,0.381189916 C215.10365,40.1525447 209.127878,69.5569655 205.864309,88.5944525 C202.60074,107.631939 201.406566,120.052204 202.281787,125.855246 C204.670135,131.193779 205.864309,135.796331 205.864309,139.662904 C205.864309,145.462764 204.194749,152.677653 204.194749,165.179573 C204.648523,173.546882 207.636384,181.259439 209.207218,184.755129 C211.21116,189.214647 214.807002,197.811353 215.795638,203.087036 C216.784274,208.362719 208.629033,225.110934 204.194749,229.920013 C199.760466,234.729092 194.369155,234.729092 182.444153,235.16786 C174.972026,235.16786 167.901976,233.418577 161.234003,229.920013 C154.930962,222.872697 151.779442,217.627465 151.779442,214.184318 C151.779442,210.74117 152.620067,203.852938 154.301318,193.519621 C151.394559,173.017151 149.14586,156.755075 147.555219,144.733392 C145.964579,132.711709 146.759899,126.418994 149.94118,125.855246 C155.657443,120.24075 158.515575,107.820485 158.515575,88.5944525 C158.515575,69.3684197 155.657443,39.9639988 149.94118,0.381189916 Z M108.69254,8.38383281 C101.296998,54.5594856 97.9276017,87.762055 98.5843521,107.991541 C98.9767488,120.078298 99.6799878,130.522495 102.283472,137.126906 C106.216127,147.103101 110.551478,149.398657 113.873129,153.032821 C117.194779,156.666984 116.340128,161.787705 116.340128,163.945525 C116.340128,164.51 113.453639,169.721121 104.99616,175.659404 C98.5264684,180.201995 87.978668,184.175524 77.8610605,192.767149 C54.51725,212.590143 48.7722777,222.74372 42.6015977,225.557792 C38.487811,227.433839 32.0741765,227.433839 23.3606941,225.557792 C16.2262774,223.508333 11.4493085,221.929385 9.02978741,220.820948 C5.40050571,219.158293 2.67066368,218.229353 1.20470426,215.407639 C0.227397985,213.526496 1.77633876,211.888211 5.85152658,210.492783 L25.8322542,199.972212 L42.6015977,132.304349 C44.7302724,110.833543 45.386067,89.8335025 44.5689814,69.3042273 C43.7518959,48.7749521 42.0256399,28.4681539 39.3902136,8.38383281 L108.69254,8.38383281 Z"></path>
        </g>
        <g id="Toes_0" transform="translate(78.000000, 99.000000)" stroke="#4A4A4A">
            <g id="right-toe_0" transform="translate(146.000000, 0.000000)">
                <path d="M3.94118012,0.381189916 C9.65744309,39.9639988 12.5155746,69.3684197 12.5155746,88.5944525 C12.5155746,107.820485 9.65744309,120.24075 3.94118012,125.855246 C0.759899077,126.418994 -0.0354211845,132.711709 1.55521934,144.733392 C3.14585986,156.755075 5.39455941,173.017151 8.30131799,193.519621 C6.62006712,203.852938 5.77944169,210.74117 5.77944169,214.184318 C5.77944169,217.627465 8.93096197,222.872697 15.2340025,229.920013 C21.9019757,233.418577 28.9720259,235.16786 36.4441533,235.16786 C48.369155,234.729092 53.7604655,234.729092 58.194749,229.920013 C62.6290325,225.110934 70.784274,208.362719 69.795638,203.087036 C68.8070019,197.811353 65.2111602,189.214647 63.2072175,184.755129 C61.6363836,181.259439 58.648523,173.546882 58.194749,165.179573 C58.194749,152.677653 59.8643092,145.462764 59.8643092,139.662904 C59.8643092,135.796331 58.670135,131.193779 56.2817865,125.855246 C55.4065658,120.052204 56.60074,107.631939 59.8643092,88.5944525 C63.1278784,69.5569655 69.1036503,40.1525447 77.7916248,0.381189916 L3.94118012,0.381189916 Z" id="right-toe-0"></path>
            </g>
            <g id="left-toe_0" transform="translate(0.000000, 8.000000)">
                <path d="M108.69254,0.383832806 C101.296998,46.5594856 97.9276017,79.762055 98.5843521,99.9915412 C98.9767488,112.078298 99.6799878,122.522495 102.283472,129.126906 C106.216127,139.103101 110.551478,141.398657 113.873129,145.032821 C117.194779,148.666984 116.340128,153.787705 116.340128,155.945525 C116.340128,156.51 113.453639,161.721121 104.99616,167.659404 C98.5264684,172.201995 87.978668,176.175524 77.8610605,184.767149 C54.51725,204.590143 48.7722777,214.74372 42.6015977,217.557792 C38.487811,219.433839 32.0741765,219.433839 23.3606941,217.557792 C16.2262774,215.508333 11.4493085,213.929385 9.02978741,212.820948 C5.40050571,211.158293 2.67066368,210.229353 1.20470426,207.407639 C0.227397985,205.526496 1.77633876,203.888211 5.85152658,202.492783 L25.8322542,191.972212 L42.6015977,124.304349 C44.7302724,102.833543 45.386067,81.8335025 44.5689814,61.3042273 C43.7518959,40.7749521 42.0256399,20.4681539 39.3902136,0.383832806 L108.69254,0.383832806 Z" id="left-toe-0"></path>
            </g>
        </g>
        <g id="Toes_1" transform="translate(74.000000, 293.000000)" fill="#4A4A4A" stroke="#4A4A4A">
            <g id="right-toe" transform="translate(155.000000, 0.000000)">
                <path d="M3.40074343,0.708603104 C5.240782,6.4583829 2.80706473,10.1143545 8.7402734,13.55189 C14.6734821,16.9894255 52.1542521,16.7203494 57.3332548,13.55189 C61.7898464,8.84682243 61.2025835,4.00499813 62.3139083,0.708603104 C61.9444942,-0.305413938 69.5691621,19.0850752 63.0742993,30.4494945 C56.5794365,41.8139138 55.5114451,47.3649191 33.3462298,47.3649191 C11.1810145,47.3649191 1.56128151,28.621355 0.919990166,22.753013 C0.189557339,16.0689532 3.40074343,1.8987102 3.40074343,0.708603104 Z" id="right-toe-1"></path>
            </g>
            <g id="left-toe" transform="translate(0.000000, 6.000000)">
                <path d="M51.9268295,21.366881 C50.5856387,23.0167426 47.1459515,26.0116114 38.3684922,28.1815604 C29.5910329,30.3515093 19.1450857,30.4319374 9.81170056,28.1815604 C0.478315389,25.9311833 -0.712948738,23.2942279 0.376007822,18.3791351 C1.10197886,15.1024066 4.24720977,12.4691768 9.81170056,10.4794458 C18.3011258,6.06427096 24.8051372,2.62495889 29.3237348,0.161509604 C38.9198173,9.56986457 43.8315561,14.2039285 51.9268295,21.366881 Z" id="left-toe-1"></path>
            </g>
        </g>
        <g id="Toes_2" transform="translate(72.000000, 293.000000)" fill="#4A4A4A" stroke="#4A4A4A">
            <g id="right-toe_2" transform="translate(158.000000, 0.000000)">
                <path d="M2.40074343,0.708603104 C4.240782,6.4583829 5.02306182,12.1229404 6.61776191,13.2186899 C12.5509706,16.6562254 51.1799385,16.3871493 56.3589412,13.2186899 C60.8155327,8.51362238 60.3222155,4.57230201 61.4335403,1.27590698 C61.0641262,0.261889941 68.5691621,11.3885937 62.0742993,22.753013 C55.5794365,34.1174322 38.6047669,57.4355103 32.4830034,57.4355103 C26.3612399,57.4355103 0.843741922,28.621355 0.202450575,22.753013 C-0.527982252,16.0689532 2.40074343,1.8987102 2.40074343,0.708603104 Z" id="right-toe-2"></path>
            </g>
            <g id="left-toe_2" transform="translate(0.000000, 6.000000)">
                <path d="M53.9268295,21.366881 C52.5856387,23.0167426 48.8331743,27.0234659 40.1011941,27.0234659 C33.2190728,26.7466478 26.2810355,26.482075 17.1728685,24.8479506 C16.9337161,24.8050435 16.5651377,24.7529191 16.0671332,24.6915774 C6.00965044,22.3686077 0.66172585,20.07664 0.0233593968,17.8156744 C0.0233593968,16.4092416 3.95280645,13.9638321 11.8117006,10.4794458 C20.3011258,6.06427096 26.8051372,2.62495889 31.3237348,0.161509604 C40.9198173,9.56986457 45.8315561,14.2039285 53.9268295,21.366881 Z" id="left-toe-2"></path>
            </g>
        </g>
        <g id="Cover_0" transform="translate(78.000000, 99.000000)" stroke="#4A4A4A">
            <g id="left-cover" transform="translate(0.000000, 8.000000)">
                <path d="M108.69254,0.383832806 C101.296998,46.5594856 97.9276017,79.762055 98.5843521,99.9915412 C98.9767488,112.078298 99.6799878,122.522495 102.283472,129.126906 C106.216127,139.103101 110.551478,141.398657 113.873129,145.032821 C117.194779,148.666984 116.340128,153.787705 116.340128,155.945525 C116.340128,156.51 113.453639,161.721121 104.99616,167.659404 C98.5264684,172.201995 87.978668,176.175524 77.8610605,184.767149 C54.51725,204.590143 48.7722777,214.74372 42.6015977,217.557792 C38.487811,219.433839 32.0741765,219.433839 23.3606941,217.557792 C16.2262774,215.508333 11.4493085,213.929385 9.02978741,212.820948 C5.40050571,211.158293 2.67066368,210.229353 1.20470426,207.407639 C0.227397985,205.526496 1.77633876,203.888211 5.85152658,202.492783 L25.8322542,191.972212 L42.6015977,124.304349 C44.7302724,102.833543 45.386067,81.8335025 44.5689814,61.3042273 C43.7518959,40.7749521 42.0256399,20.4681539 39.3902136,0.383832806 L108.69254,0.383832806 Z" id="left-cover-0"></path>
            </g>
            <g id="right-cover" transform="translate(146.000000, 0.000000)">
                <path d="M3.94118012,0.381189916 C9.65744309,39.9639988 12.5155746,69.3684197 12.5155746,88.5944525 C12.5155746,107.820485 9.65744309,120.24075 3.94118012,125.855246 C0.759899077,126.418994 -0.0354211845,132.711709 1.55521934,144.733392 C3.14585986,156.755075 5.39455941,173.017151 8.30131799,193.519621 C6.62006712,203.852938 5.77944169,210.74117 5.77944169,214.184318 C5.77944169,217.627465 8.93096197,222.872697 15.2340025,229.920013 C21.9019757,233.418577 28.9720259,235.16786 36.4441533,235.16786 C48.369155,234.729092 53.7604655,234.729092 58.194749,229.920013 C62.6290325,225.110934 70.784274,208.362719 69.795638,203.087036 C68.8070019,197.811353 65.2111602,189.214647 63.2072175,184.755129 C61.6363836,181.259439 58.648523,173.546882 58.194749,165.179573 C58.194749,152.677653 59.8643092,145.462764 59.8643092,139.662904 C59.8643092,135.796331 58.670135,131.193779 56.2817865,125.855246 C55.4065658,120.052204 56.60074,107.631939 59.8643092,88.5944525 C63.1278784,69.5569655 69.1036503,40.1525447 77.7916248,0.381189916 L3.94118012,0.381189916 Z" id="right-cover-0"></path>
            </g>
        </g>
        <g id="Cover_1" transform="translate(103.000000, 278.000000)" fill="#4A4A4A" stroke="#4A4A4A">
            <g id="left_cover_1">
                <path d="M0.581701022,21.2214745 L22.8603423,42.5249387 L35.5155932,29.4568438 L6.08680169,0.44801414 C4.48208,7.2257695 3.36501676,11.7678162 2.73561198,14.0741541 C2.10620721,16.3804921 1.38823689,18.7629322 0.581701022,21.2214745 Z" id="left-cover-1"></path>
            </g>
            <g id="right_cover_1" transform="translate(127.000000, 13.000000)">
                <path d="M0,19.5917579 C4.94710806,19.7505395 10.9701696,17.5630111 32.8717658,17.5630111 C54.7733621,17.5630111 58.4499025,19.7065057 63.0989254,19.5917579 C64.0758141,18.3756126 64.2051037,13.9396467 63.7422468,10.5997166 C63.5043662,8.88319277 61.2750675,2.41747388 60.8780379,2 C52.3820819,2.28610587 49.0804514,0.612081763 32,0.612081763 C14.9195486,0.612081763 11.3322888,2.29700087 2.50757674,2 C2.50757674,3.57236083 0,19.5917579 0,19.5917579 Z" id="right-cover-1"></path>
            </g>
        </g>
        <g id="Cover_2" transform="translate(104.000000, 259.000000)" fill="#4A4A4A" stroke="#4A4A4A">
            <g id="left_cover_2">
                <path d="M0,39.7481468 L22.7477035,61 C26.7214865,56.2080168 32.0419272,50.7394394 38.7090255,44.594268 C45.3761238,38.4490965 49.6424881,34.6504229 51.5081184,33.198247 L10.2119131,0.0772832569 C5.21900405,19.8618364 2.4028172,30.9021577 1.76335255,33.198247 C1.12388789,35.4943364 0.536103711,37.6776364 0,39.7481468 Z" id="left-cover-2"></path>
            </g>
            <g id="right_cover_2" transform="translate(124.000000, 1.000000)">
                <path d="M2.16331651,49.5426864 C19.161597,50.6017114 43.2835028,50.6017114 64.9592507,49.5426864 C66.1400244,46.5911361 68.2014488,42.4721193 66.7844516,37.608216 C66.087678,35.2165105 58.7070206,21.839509 57.6081364,18.3933797 C56.5092523,14.9472505 55.3610665,9.0963972 54.7634753,7.87666954 C47.8892349,7.87666954 47.8892349,0.126844971 29.3762624,0.126844971 C10.8632899,0.126844971 9.7162167,8.45058364 0.931305087,7.87666954 C0.762657241,8.5256805 2.52589724,15.136812 3.07120176,21.3261448 C3.71962224,28.6858676 3.15674603,35.5085107 3.07120176,37.608216 C2.82703059,43.6014582 2.16331651,47.655558 2.16331651,49.5426864 Z" id="right-cover-2"></path>
            </g>
        </g>
        <g id="Cover_3" transform="translate(104.000000, 228.000000)" fill="#4A4A4A" stroke="#4A4A4A">
            <g id="left_cover_3">
                <path d="M0,70.5809433 L22.7477035,92 C26.7214865,87.1703148 32.0419272,81.6587123 38.7090255,75.4651924 C45.3761238,69.2716725 52.139782,63.5575359 59,58.3227826 L16.3443961,0 C13.0252524,14.327844 10.7296477,24.3026421 9.45758205,29.9243942 C4.70151418,50.9433054 2.21972431,62.3279501 1.76335255,63.9795108 C1.12388789,66.2936652 0.536103711,68.4941427 0,70.5809433 Z" id="left-cover-3"></path>
            </g>
            <g id="right_cover_3" transform="translate(122.000000, 13.000000)">
                <path d="M4.16331651,68.5426864 C21.161597,69.6017114 45.2835028,69.6017114 66.9592507,68.5426864 C68.1400244,65.5911361 70.2014488,61.4721193 68.7844516,56.608216 C68.087678,54.2165105 60.7070206,40.839509 59.6081364,37.3933797 C58.5092523,33.9472505 54.6994612,24.5595911 56.8317712,9.04537689 C49.9575308,9.04537689 49.2452686,0.249834806 30.7322961,0.249834806 C12.2193236,0.249834806 9.23556171,9.61929099 0.4506501,9.04537689 C0.282002255,9.69438785 4.52589724,34.214794 5.07120176,40.4041267 C5.71962224,47.7638495 5.15674603,54.5085107 5.07120176,56.608216 C4.82703059,62.6014582 4.16331651,66.655558 4.16331651,68.5426864 Z" id="right-cover-3"></path>
            </g>
        </g>
        <g id="Cover_4" transform="translate(104.000000, 222.000000)" fill="#4A4A4A" stroke="#4A4A4A">
            <g id="left_cover_4" transform="translate(0.000000, 6.000000)">
                <path d="M0,70.5809433 L22.5936043,92 C26.5404678,87.1703148 31.8248663,81.6587123 38.4467999,75.4651924 C45.0687334,69.2716725 51.7865727,63.5575359 58.6003177,58.3227826 C69.2970755,29.2076902 75.4303029,12.8534791 77,9.26014932 C75.47765,4.60419367 74.5294835,3.22465126 74.5294835,-7.71999294e-14 C64.4532224,-1.02947852e-13 45.0212861,-6.70461317e-14 16.2336746,3.05052305e-14 C12.9370157,14.327844 10.6569621,24.3026421 9.39351378,29.9243942 C4.66966483,50.9433054 2.20468728,62.3279501 1.75140711,63.9795108 C1.11627437,66.2936652 0.532471996,68.4941427 0,70.5809433 Z" id="left-cover-4"></path>
            </g>
            <g id="right_cover_4" transform="translate(120.000000, 0.000000)">
                <path d="M7.07120176,87.5426864 C24.0694822,88.6017114 49.3346779,88.6017114 69.4173886,87.5426864 C70.7844516,82.8324953 71.839981,81.2300529 70.9028802,77.6770525 C69.9657794,74.1240521 64.4338381,62.0955991 62.0646777,53.4736875 C61.3301325,50.8005109 60.0429635,46.1426378 59.5932016,39.5192635 C59.1972999,33.6890569 59.5932016,25.9563936 59.5932016,22.0045718 C59.5932016,12.7036234 59.4617188,5.54051672 56.891996,3.2218142 C48.316452,3.78238247 47.9202456,0.00875364091 31.1388012,0.00875364091 C14.3573569,0.00875364091 7.97852433,3.59980692 2.19258406,3.2218142 C-2.26210678,5.73912522 6.20526785,49.4975942 7.07120176,59.3261448 C7.71962224,66.6858676 7.15674603,73.5085107 7.07120176,75.608216 C6.82703059,81.6014582 7.07120176,87.5426864 7.07120176,87.5426864 Z" id="right-cover-4"></path>
            </g>
        </g>
        <g id="Counter_0" transform="translate(78.000000, 99.000000)" stroke="#4A4A4A">
            <path d="M108.69254,8.38383281 C101.296998,54.5594856 97.9276017,87.762055 98.5843521,107.991541 C98.9767488,120.078298 99.6799878,130.522495 102.283472,137.126906 C106.216127,147.103101 110.551478,149.398657 113.873129,153.032821 C117.194779,156.666984 116.340128,161.787705 116.340128,163.945525 C116.340128,164.51 113.453639,169.721121 104.99616,175.659404 C98.5264684,180.201995 87.978668,184.175524 77.8610605,192.767149 C54.51725,212.590143 48.7722777,222.74372 42.6015977,225.557792 C38.487811,227.433839 32.0741765,227.433839 23.3606941,225.557792 C16.2262774,223.508333 11.4493085,221.929385 9.02978741,220.820948 C5.40050571,219.158293 2.67066368,218.229353 1.20470426,215.407639 C0.227397985,213.526496 1.77633876,211.888211 5.85152658,210.492783 L25.8322542,199.972212 L42.6015977,132.304349 C44.7302724,110.833543 45.386067,89.8335025 44.5689814,69.3042273 C43.7518959,48.7749521 42.0256399,28.4681539 39.3902136,8.38383281 L108.69254,8.38383281 Z M149.94118,0.381189916 L223.791625,0.381189916 C215.10365,40.1525447 209.127878,69.5569655 205.864309,88.5944525 C202.60074,107.631939 201.406566,120.052204 202.281787,125.855246 C204.670135,131.193779 205.864309,135.796331 205.864309,139.662904 C205.864309,145.462764 204.194749,152.677653 204.194749,165.179573 C204.648523,173.546882 207.636384,181.259439 209.207218,184.755129 C211.21116,189.214647 214.807002,197.811353 215.795638,203.087036 C216.784274,208.362719 208.629033,225.110934 204.194749,229.920013 C199.760466,234.729092 194.369155,234.729092 182.444153,235.16786 C174.972026,235.16786 167.901976,233.418577 161.234003,229.920013 C154.930962,222.872697 151.779442,217.627465 151.779442,214.184318 C151.779442,210.74117 152.620067,203.852938 154.301318,193.519621 C151.394559,173.017151 149.14586,156.755075 147.555219,144.733392 C145.964579,132.711709 146.759899,126.418994 149.94118,125.855246 C155.657443,120.24075 158.515575,107.820485 158.515575,88.5944525 C158.515575,69.3684197 155.657443,39.9639988 149.94118,0.381189916 Z" id="Combined-Shape"></path>
        </g>
        <g id="Counter_1" transform="translate(165.000000, 218.000000)" fill="#4A4A4A" stroke="#4A4A4A">
            <g id="left_counter_1" transform="translate(0.000000, 16.000000)">
                <path d="M14.1752455,0.847939063 C17.8200445,8.33767322 21.2363078,13.4664308 24.4240354,16.2342118 C27.0653499,18.5275634 28.8635717,20.0460166 29.7171871,23.2470744 C30.2346625,25.1876072 29.9355213,27.1747099 29.7171871,27.9486441 C29.2294069,29.6776901 28.9680052,30.8489355 20.2457896,38.4450284 C14.0747384,43.0084078 7.48792268,46.8679161 0.485342439,50.0235535 C3.14777321,42.7485694 4.47898859,35.0436256 4.47898859,26.9087223 C4.47898859,18.7738189 7.71107421,10.0868912 14.1752455,0.847939063 Z" id="left-heel-1"></path>
            </g>
            <g id="right_counter_1" transform="translate(60.000000, 0.000000)">
                <path d="M7.09115283,0.6447383 C8.01370509,-0.34131196 9.67638279,3.45994959 8.60696187,9.50429185 C8.20504447,11.7759196 6.77000735,18.9777629 5.6987031,24.3727447 C5.21703424,26.7983812 3.07254397,43.8050184 3.05952513,43.7144968 C2.76844887,41.6906072 -0.575554959,16.8212595 0.238783545,10.7615065 C0.65850253,8.66757075 1.59874972,7.35295599 3.05952513,6.81766224 C3.9382707,5.90141951 4.81799669,4.79837385 5.6987031,3.50852525 C6.49207562,2.25370137 6.16860057,1.63078856 7.09115283,0.6447383 Z M54.7804434,2.14910486 L55.4118245,6.81766224 C57.2958528,10.4910001 58.3605867,14.4851519 58.6060264,18.8001177 C58.8514661,23.1150835 58.2822602,30.9991496 56.8984087,42.452316 C56.2476371,32.2337473 55.5416486,25.5165455 54.7804434,22.3007105 C53.8924039,18.5490434 51.203763,12.0883415 51.203763,10.3363083 C51.203763,6.33157659 52.3959898,3.60250878 54.7804434,2.14910486 Z" id="right-counter-1"></path>
            </g>
        </g>
        <g id="Counter_2" transform="translate(119.000000, 218.000000)" fill="#4A4A4A" stroke="#4A4A4A">
            <g id="left_counter_2" transform="translate(0.000000, 16.000000)">
                <path d="M60.7713995,2.05599934 C60.7877167,2.0404714 60.8040454,2.02493387 60.8203857,2.00938676 C61.5259418,3.48327492 62.2308481,4.86208293 62.9351046,6.14581081 C65.5217584,10.7496057 67.9855322,14.0839314 70.3264249,16.1487855 C70.3589411,16.1774885 70.391489,16.205953 70.4240354,16.2342118 C73.0653499,18.5275634 74.8635717,20.0460166 75.7171871,23.2470744 C76.2346625,25.1876072 75.9355213,27.1747099 75.7171871,27.9486441 C75.2294069,29.6776901 74.9680052,30.8489355 66.2457896,38.4450284 C60.726077,42.5267548 54.8737339,46.0453525 48.6887602,49.0008214 C46.9066815,50.0291872 45.0627756,51.0633791 43.1570425,52.1033971 C39.9584345,54.5742882 37.7108947,56.340381 36.4144231,57.4016755 C32.3021119,60.7680226 29.483105,63.682667 27.6667585,65.2848278 C19.3080039,72.6579085 7.37813484,85.972838 6.82672226,86.5304461 C4.93123326,84.6626909 1.97604727,81.9509491 0.749524298,80.2007187 C5.25679441,75.3951734 41.7073697,21.9981522 45.6445534,17.3503162 C47.8148621,14.788272 51.649131,10.8485497 57.1473602,5.53114928 C58.0624691,3.98616574 59.0717642,2.42509567 60.1752455,0.847939063 C60.3746475,1.25769231 60.5733655,1.66037907 60.7713995,2.05599934 Z"></path>
            </g>
            <g id="right_counter_2" transform="translate(105.000000, 0.000000)">
                <path d="M8.09115283,0.6447383 C9.01370509,-0.34131196 10.6763828,3.45994959 9.60696187,9.50429185 C9.20504447,11.7759196 7.77000735,18.9777629 6.6987031,24.3727447 C6.33676176,26.1954453 9.4959859,58.1013664 9.60696187,73.7526586 C8.56581889,78.5206362 8.09115283,81.4537456 7.13406988,82.8295936 C7.13406988,80.6908472 8.09115283,78.2185068 8.09115283,73.7526586 C7.46926973,67.1534738 5.25810925,54.588881 4.05952513,44.9012399 C3.43099243,38.6350017 1.87514694,29.6369523 1.23878355,22.2280919 C0.772320673,16.7972982 1.06771188,12.0345054 1.23878355,10.7615065 C1.65850253,8.66757075 2.59874972,7.35295599 4.05952513,6.81766224 C4.9382707,5.90141951 5.81799669,4.79837385 6.6987031,3.50852525 C7.49207562,2.25370137 7.16860057,1.63078856 8.09115283,0.6447383 Z M55.7804434,2.14910486 L56.4118245,6.81766224 C58.2958528,10.4910001 59.3605867,14.4851519 59.6060264,18.8001177 C59.7687869,21.6615379 57.4251893,39.0393466 58.6010571,50.7980253 C59.415308,55.6142545 63.0840294,65.2911363 67.3685044,76.4373401 C67.543732,76.8932004 67.3317077,77.3734944 66.7324315,77.8782221 C60.6323561,65.9852178 56.9816934,57.2244329 55.7804434,51.5958672 C54.1522766,43.9669439 56.2702385,34.1655788 55.7804434,25.7791519 C55.3191229,17.8802752 52.203763,11.1860987 52.203763,10.3363083 C52.203763,6.33157659 53.3959898,3.60250878 55.7804434,2.14910486 Z" id="right-counter-2"></path>
            </g>
        </g>
        <g id="Counter_3" transform="translate(118.000000, 218.000000)" fill="#4A4A4A" stroke="#4A4A4A">
            <g id="left_counter_3" transform="translate(0.000000, 10.000000)">
                <path d="M44.1570425,58.1033971 C40.9584345,60.5742882 38.7108947,62.340381 37.4144231,63.4016755 C33.3021119,66.7680226 30.7874141,69.7356624 28.9710676,71.3378232 C20.612313,78.7109039 8.32837461,91.9444614 7.77696202,92.5020695 C6.43974419,92.5020695 1.78516024,87.4802897 0.985572203,86.9058181 C3.89836383,83.8002682 20.4706865,60.1069908 32.8939276,42.4778984 C22.5531206,28.231693 15.270588,18.5299305 11.0463299,13.3726111 C10.102205,12.2199463 2.83040958,1.67870039 2.21451294,0.98333321 C8.75797623,0.98333321 27.8783174,0.98333321 59.5755365,0.98333321 C59.8566872,3.96546151 60.6712979,6.92411906 62.0193687,9.85930586 C62.0475273,9.83752012 62.07572,9.81571519 62.1039469,9.79389109 C64.8172962,14.7492761 67.5958118,18.5956607 70.4394938,21.3330448 C70.807615,21.6848884 71.140013,21.9876062 71.4240354,22.2342118 C74.0653499,24.5275634 75.8635717,26.0460166 76.7171871,29.2470744 C77.2346625,31.1876072 76.9355213,33.1747099 76.7171871,33.9486441 C76.2294069,35.6776901 75.9680052,36.8489355 67.2457896,44.4450284 C61.0747384,49.0084078 53.3784894,53.5611974 44.1570425,58.1033971 Z" id="left-counter-3"></path>
            </g>
            <g id="right_counter_3" transform="translate(106.000000, 0.000000)">
                <path d="M8.09115283,0.6447383 C9.01370509,-0.34131196 20.5406406,22.2376896 19.4693363,27.6326713 C19.107395,29.455372 9.4959859,58.1013664 9.60696187,73.7526586 C8.56581889,78.5206362 8.09115283,81.4537456 7.13406988,82.8295936 C7.13406988,80.6908472 8.09115283,78.2185068 8.09115283,73.7526586 C7.46926973,67.1534738 5.25810925,54.588881 4.05952513,44.9012399 C3.43099243,38.6350017 1.87514694,29.6369523 1.23878355,22.2280919 C0.772320673,16.7972982 1.06771188,12.0345054 1.23878355,10.7615065 C1.65850253,8.66757075 2.59874972,7.35295599 4.05952513,6.81766224 C4.9382707,5.90141951 5.81799669,4.79837385 6.6987031,3.50852525 C7.49207562,2.25370137 7.16860057,1.63078856 8.09115283,0.6447383 Z M55.7804434,2.14910486 L56.4118245,6.81766224 C58.2958528,10.4910001 59.3605867,14.4851519 59.6060264,18.8001177 C59.7687869,21.6615379 57.4251893,39.0393466 58.6010571,50.7980253 C59.415308,55.6142545 63.0840294,65.2911363 67.3685044,76.4373401 C67.543732,76.8932004 67.543732,77.0960332 67.3685044,77.0458385 C54.146225,51.3066768 47.0369235,34.8356211 46.0406,27.6326713 C46.0406,23.2007387 49.2872145,14.7062166 55.7804434,2.14910486 Z" id="right-counter-3"></path>
            </g>
        </g>
        <g id="left_bottom_0" transform="translate(148.000000, 263.000000)" fill="#4A4A4A" stroke="#4A4A4A">
            <path d="M15,23.692477 C8.57610865,28.5163174 3.69045578,32.8113442 0.343041367,36.5775573 C6.23449073,34.7965474 11.1201436,33.3738963 15,32.3096039 L44.7297564,16.3669849 L46.2943107,0.878449038 C41.6248802,6.29637271 36.8842712,10.7189899 32.0724835,14.1463007 C26.7561882,15.8950809 21.0653603,19.0771396 15,23.692477 Z" id="left-bottom-0"></path>
        </g>
        <g id="left_bottom_1" transform="translate(78.000000, 257.000000)" fill="#4A4A4A" stroke="#4A4A4A">
            <path d="M0.614954217,57.0408835 C1.67196209,57.0408835 11.9979737,63.8726048 19.287641,65.8236111 C26.5773083,67.7746175 37.8864306,69.323535 41.8126855,67.3725286 C50.4298191,63.0905645 62.0154777,46.9491583 76.386536,36.2750027 C81.5544714,29.8763138 96.526657,23.4302063 106.593529,16.8787022 C109.024277,15.2967753 111.827057,12.5293013 113.669729,7.73067781 C115.5124,2.93205429 115.751876,-1.28619291 116.639992,0.570221654 C117.733856,4.41278715 117.187536,27.6648057 116.639992,30.6190438 C116.312596,32.3854857 104.057861,34.5901244 93.4329608,40.7650412 C82.8080607,46.9399579 54.7387706,70.1100515 46.6030383,73.3736237 C29.5912594,80.1977382 3.35203179,66.7363926 2.14333249,64.9968166 C0.934633184,63.2572406 -0.442053658,57.0408835 0.614954217,57.0408835 Z" id="left-bottom-1"></path>
        </g>
        <g id="left_bottom_2" transform="translate(120.000000, 263.000000)" fill="#4A4A4A" stroke="#4A4A4A">
            <path d="M8.48395215,54.2733571 L0,62.8402831 C42.4700278,62.8402831 67.2500703,62.8402831 74.3401276,62.8402831 C74.3401276,57.0424224 69.8197429,57.0424224 69.8197429,38.5741807 C69.8197429,20.105939 74.3401276,9.35869629 74.3401276,0.878449038 C74.3401276,-0.60128358 69.3137862,10.8197549 52.1680703,18.2068661 C46.8147542,19.2720412 34.1869352,29.631495 29.5301773,33.9060425 C25.3108817,37.779033 18.2954733,44.5681379 8.48395215,54.2733571 Z" id="left-bottom-2"></path>
        </g>
        <g id="left_bottom_3" transform="translate(181.000000, 263.000000)" fill="#4A4A4A" stroke="#4A4A4A">
            <path d="M0,13.0477957 L0,39.26845 L13.2943107,39.26845 L13.2943107,0.878449038 C11.0792165,4.05981048 8.86349808,6.61242031 6.64715533,8.53627851 C4.43081258,10.4601367 2.21509413,11.9639758 0,13.0477957 Z" id="left-bottom-3"></path>
        </g>
        <g id="left_bottom_4" transform="translate(163.000000, 263.000000)" fill="#4A4A4A" stroke="#4A4A4A">
            <path d="M0,23.692477 L1.25028409,44 L29.1783062,44 L31.2943107,0.878449038 C26.6248802,6.29637271 21.8842712,10.7189899 17.0724835,14.1463007 C11.7561882,15.8950809 6.06536035,19.0771396 0,23.692477 Z" id="left-bottom-4"></path>
        </g>
        <g id="left_bottom_5" transform="translate(181.000000, 263.000000)" fill="#4A4A4A" stroke="#4A4A4A">
            <path d="M0,13.0477957 L0,62.8402831 L13.2943107,62.8402831 L13.2943107,0.878449038 C11.0792165,4.05981048 8.86349808,6.61242031 6.64715533,8.53627851 C4.43081258,10.4601367 2.21509413,11.9639758 0,13.0477957 Z" id="left-bottom-5"></path>
        </g>
        <g id="left_bottom_6" transform="translate(163.000000, 263.000000)" fill="#4A4A4A" stroke="#4A4A4A">
            <path d="M0,23.692477 L3.50255472,63.7103056 L26.1044162,63.7103056 L31.2943107,0.878449038 C26.6248802,6.29637271 21.8842712,10.7189899 17.0724835,14.1463007 C11.7561882,15.8950809 6.06536035,19.0771396 0,23.692477 Z" id="left-bottom-6"></path>
        </g>
        <g id="Shaft_0" transform="translate(78.000000, 99.000000)" stroke="#4A4A4A">
            <path d="M108.69254,8.38383281 C101.296998,54.5594856 97.9276017,87.762055 98.5843521,107.991541 C98.9767488,120.078298 99.6799878,130.522495 102.283472,137.126906 C106.216127,147.103101 110.551478,149.398657 113.873129,153.032821 C117.194779,156.666984 116.340128,161.787705 116.340128,163.945525 C116.340128,164.51 113.453639,169.721121 104.99616,175.659404 C98.5264684,180.201995 87.978668,184.175524 77.8610605,192.767149 C54.51725,212.590143 48.7722777,222.74372 42.6015977,225.557792 C38.487811,227.433839 32.0741765,227.433839 23.3606941,225.557792 C16.2262774,223.508333 11.4493085,221.929385 9.02978741,220.820948 C5.40050571,219.158293 2.67066368,218.229353 1.20470426,215.407639 C0.227397985,213.526496 1.77633876,211.888211 5.85152658,210.492783 L25.8322542,199.972212 L42.6015977,132.304349 C44.7302724,110.833543 45.386067,89.8335025 44.5689814,69.3042273 C43.7518959,48.7749521 42.0256399,28.4681539 39.3902136,8.38383281 L108.69254,8.38383281 Z M149.94118,0.381189916 L223.791625,0.381189916 C215.10365,40.1525447 209.127878,69.5569655 205.864309,88.5944525 C202.60074,107.631939 201.406566,120.052204 202.281787,125.855246 C204.670135,131.193779 205.864309,135.796331 205.864309,139.662904 C205.864309,145.462764 204.194749,152.677653 204.194749,165.179573 C204.648523,173.546882 207.636384,181.259439 209.207218,184.755129 C211.21116,189.214647 214.807002,197.811353 215.795638,203.087036 C216.784274,208.362719 208.629033,225.110934 204.194749,229.920013 C199.760466,234.729092 194.369155,234.729092 182.444153,235.16786 C174.972026,235.16786 167.901976,233.418577 161.234003,229.920013 C154.930962,222.872697 151.779442,217.627465 151.779442,214.184318 C151.779442,210.74117 152.620067,203.852938 154.301318,193.519621 C151.394559,173.017151 149.14586,156.755075 147.555219,144.733392 C145.964579,132.711709 146.759899,126.418994 149.94118,125.855246 C155.657443,120.24075 158.515575,107.820485 158.515575,88.5944525 C158.515575,69.3684197 155.657443,39.9639988 149.94118,0.381189916 Z" id="shaft-0"></path>
        </g>
        <g id="Shaft_1" transform="translate(120.000000, 210.000000)" fill="#4A4A4A" stroke="#4A4A4A">
            <g id="left_shaft_1" transform="translate(0.000000, 7.000000)">
                <path d="M0.140587214,18.1053149 C37.6657435,18.1053149 57.1060157,18.1053149 58.4614037,18.1053149 C58.063358,15.6094207 58.063358,9.62441457 58.4614037,0.150296618 L1.2162627,0.150296618 C1.40982831,6.34153033 1.40982831,10.1700334 1.2162627,11.6358058 C1.02269708,13.1015782 0.664138588,15.2580813 0.140587214,18.1053149 Z" id="left-shaft-1"></path>
            </g>
            <g id="right_shaft_1" transform="translate(107.000000, 0.000000)">
                <path d="M0.303295756,14.7227721 C5.46480834,13.8970391 18.4747243,12.9161432 27.2362584,12.9161432 C33.0772812,12.9161432 41.6668061,13.5183528 53.0048332,14.7227721 C53.0048332,11.8524915 53.0048332,9.69928099 53.0048332,8.26314048 C53.0048332,6.82699998 53.0048332,5.21008199 53.0048332,3.41238651 C43.3856113,1.54043444 34.7960864,0.604458407 27.2362584,0.604458407 C19.6764304,0.604458407 12.8074097,1.54043444 6.62919626,3.41238651 L5.24314755,8.26314048 C4.37948067,10.1476153 2.7328634,12.3008258 0.303295756,14.7227721 Z" id="right-shaft-1"></path>
            </g>
        </g>
        <g id="Shaft_2" transform="translate(115.000000, 126.000000)" fill="#4A4A4A" stroke="#4A4A4A">
            <g id="left_shaft_2">
                <path d="M5.32107603,102.105315 L63.5770104,102.105315 L71.8328827,0.820398904 L0.755666142,0.820398904 C5.13196426,62.5648978 7.22333051,94.1700334 7.02976489,95.6358058 C6.83619928,97.1015782 6.26663633,99.2580813 5.32107603,102.105315 Z" id="left-shaft-2"></path>
            </g>
            <g id="right_shaft_2" transform="translate(111.000000, 3.000000)">
                <path d="M0.680104304,95.7227721 C13.3304468,100.177921 22.6397763,102.405495 28.6080929,102.405495 C34.5764095,102.405495 43.2157994,100.177921 54.5262625,95.7227721 C54.178643,92.8524915 54.0048332,90.699281 54.0048332,89.2631405 C54.0048332,88.2234923 54.1821189,85.3499534 55.3571483,76.7605825 C55.6558969,74.5767539 60.3641047,49.0239377 69.4817718,0.102133926 L6.24314755,0.102133926 C8.9717235,34.03524 10.3543184,52.8307487 10.3909323,56.4886601 C10.5145705,68.8407425 9.47469296,74.756398 9.15342464,76.7605825 C8.68944707,79.6550374 5.86500696,85.9757673 0.680104304,95.7227721 Z" id="right-shaft-2"></path>
            </g>
        </g>
        <g id="Shaft_3" transform="translate(114.000000, 55.000000)" fill="#4A4A4A" stroke="#4A4A4A">
            <g id="left_shaft_3" transform="translate(0.000000, 1.000000)">
                <path d="M6.32107603,172.105315 L64.5770104,172.105315 L73.6958804,36.5610845 C70.4202822,22.5830893 67.3806588,14.0368329 64.5770104,10.9223151 C55.2807184,0.595247631 47.7558134,0.116103459 37.2730722,0.116103459 C26.7903311,0.116103459 20.0854416,0.116103459 3.1047736,0.116103459 C0.284868781,0.116103459 -0.466634405,12.2644305 0.850264044,36.5610845 C5.83016356,121.145126 8.22333051,164.170033 8.02976489,165.635806 C7.83619928,167.101578 7.26663633,169.258081 6.32107603,172.105315 Z" id="left-shaft-3"></path>
            </g>
            <g id="right_shaft_3" transform="translate(112.000000, 0.000000)">
                <path d="M0.393384328,169.722772 C13.6957649,174.46499 23.2422272,176.8361 29.0327714,176.8361 C34.8233156,176.8361 43.3352376,174.46499 54.5685376,169.722772 C54.1927346,166.852492 54.0048332,164.699281 54.0048332,163.26314 C54.0048332,162.223492 54.1821189,159.349953 55.3571483,150.760583 C55.6558969,148.576754 62.6031274,112.458718 76.1988399,42.406474 C76.1988399,29.8057639 76.1988399,19.6307864 76.1988399,11.8815413 C76.1988399,0.738829423 61.6310848,0.738829423 37.0646845,0.738829423 C12.4982842,0.738829423 2.46768368,0.842409006 1.32962619,11.8815413 C0.748217573,17.521192 0.748217573,27.6961695 1.32962619,42.406474 C7.33388305,97.47002 10.3543184,126.830749 10.3909323,130.48866 C10.5145705,142.840743 9.47469296,148.756398 9.15342464,150.760583 C8.68944707,153.655037 5.76943363,159.975767 0.393384328,169.722772 Z" id="right-shaft-3"></path>
            </g>
        </g>
        <g id="Shaft_4" transform="translate(114.000000, 7.000000)" fill="#4A4A4A" stroke="#4A4A4A">
            <g id="left_shaft_4">
                <path d="M6.32107603,221.105315 L64.5770104,221.105315 C68.6512427,163.161727 71.6255726,123.35129 73.5,101.674003 C76.3116411,69.1580727 76.3463366,72.770724 76.3463366,57.4805036 C71.0221716,45.2336966 54.8996141,43.7522144 46.6323738,42.6122534 C29.7111643,40.2790057 26.6054592,22.3483664 19.7725211,8.73726302 C17.3883527,3.98803792 8.5274289,0.732994044 6.32107603,0.138807023 C0.634623675,-1.39259634 -1.18898032,27.0814962 0.850264044,85.5610845 C5.83016356,170.145126 8.22333051,213.170033 8.02976489,214.635806 C7.83619928,216.101578 7.26663633,218.258081 6.32107603,221.105315 Z" id="left-shaft-4"></path>
            </g>
            <g id="right_shaft_4" transform="translate(112.000000, 3.000000)">
                <path d="M0.393384328,214.722772 C13.6957649,219.46499 23.2422272,221.8361 29.0327714,221.8361 C34.8233156,221.8361 43.3352376,219.46499 54.5685376,214.722772 C54.1927346,211.852492 54.0048332,209.699281 54.0048332,208.26314 C54.0048332,207.223492 54.1821189,204.349953 55.3571483,195.760583 C55.6558969,193.576754 62.6031274,157.458718 76.1988399,87.406474 C76.1988399,63.4736233 76.1988399,47.6325754 76.1988399,39.8833304 C76.1988399,28.7406184 62.8625124,0.882860697 38.2961121,0.882860697 C13.7297118,0.882860697 2.46768368,28.844198 1.32962619,39.8833304 C0.748217573,45.522981 0.748217573,61.3640289 1.32962619,87.406474 C7.33388305,142.47002 10.3543184,171.830749 10.3909323,175.48866 C10.5145705,187.840743 9.47469296,193.756398 9.15342464,195.760583 C8.68944707,198.655037 5.76943363,204.975767 0.393384328,214.722772 Z" id="right-shaft-4"></path>
            </g>
        </g>
    </g>
</svg>