<?xml version="1.0" encoding="UTF-8"?>
<svg width="267px" height="306px" viewBox="0 0 267 306" version="1.1" xmlns="http://www.w3.org/2000/svg" xmlns:xlink="http://www.w3.org/1999/xlink">
    <!-- Generator: Sketch 51.1 (57501) - http://www.bohemiancoding.com/sketch -->
    <title>shoes_parts_filters</title>
    <desc>Created with Sketch.</desc>
    <defs></defs>
    <g id="Shoes" stroke="none" stroke-width="1" fill="none" fill-rule="evenodd">
        <g id="YesPlz-Shoes-VF" transform="translate(-60.000000, -55.000000)" stroke="#4A4A4A">
            <g id="shoes_parts_filters" transform="translate(60.000000, 55.000000)">
                <g id="full_bare_foot" transform="translate(19.000000, 44.000000)">
                    <path d="M149.181281,0 C154.897544,39.5828089 157.755675,68.9872298 157.755675,88.2132626 C157.755675,107.439295 154.897544,119.85956 149.181281,125.474056 C146,126.037804 145.20468,132.330519 146.79532,144.352202 C148.385961,156.373885 150.63466,172.635961 153.541419,193.138431 C151.860168,203.471748 151.019543,210.35998 151.019543,213.803128 C151.019543,217.246275 154.171063,222.491507 160.474103,229.538823 C167.142077,233.037387 174.212127,234.78667 181.684254,234.78667 C193.609256,234.347902 199.000566,234.347902 203.43485,229.538823 C207.869133,224.729744 215.55221,207.994022 215.048419,203.153083 C214.544628,198.312145 210.451261,188.833458 208.447318,184.373939 C206.876485,180.878249 203.888624,173.165692 203.43485,164.798383 C203.43485,152.296463 205.10441,145.081574 205.10441,139.281714 C205.10441,135.415141 203.910236,130.812589 201.521887,125.474056 C200.646667,119.671014 201.840841,107.25075 205.10441,88.2132626 C208.367979,69.1757756 214.343751,39.7713548 223.031726,0" id="right_foot"></path>
                    <path d="M107.771397,8 C100.375854,54.1756528 97.0064586,87.3782222 97.6632091,107.607708 C98.0556058,119.694465 98.7588448,130.138662 101.362329,136.743073 C105.294984,146.719269 109.630335,149.014824 112.951986,152.648988 C116.273636,156.283152 115.418985,161.403872 115.418985,163.561692 C115.418985,164.126167 112.532496,169.337288 104.075017,175.275572 C97.6053253,179.818162 87.057525,183.791691 76.9399174,192.383316 C53.596107,212.20631 47.8511346,222.359888 41.6804546,225.173959 C37.566668,227.050006 31.1530334,227.050006 22.439551,225.173959 C15.3051344,223.1245 10.5281655,221.545552 8.10864436,220.437115 C4.47936266,218.77446 1.74952063,217.84552 0.283561211,215.023806 C-0.693745068,213.142663 0.855195703,211.504378 4.93038352,210.108951 L24.9111111,199.58838 L41.6804546,131.920516 C43.8091294,110.44971 44.464924,89.4496697 43.6478384,68.9203945 C42.8307528,48.3911193 41.1044969,28.0843211 38.4690705,8" id="left_foot"></path>
                </g>
                <g id="bottoms" transform="translate(18.000000, 202.000000)" fill="#4A4A4A">
                    <path d="M85,29.692477 C78.5761087,34.5163174 73.6904558,38.8113442 70.3430414,42.5775573 C76.2344907,40.7965474 81.1201436,39.3738963 85,38.3096039 L114.729756,22.3669849 L116.294311,6.87844904 C111.62488,12.2963727 106.884271,16.7189899 102.072484,20.1463007 C96.7561882,21.8950809 91.0653603,25.0771396 85,29.692477 Z" id="bottom_0"></path>
                    <path d="M0.614954217,57.0408835 C1.67196209,57.0408835 11.9979737,63.8726048 19.287641,65.8236111 C26.5773083,67.7746175 37.8864306,69.323535 41.8126855,67.3725286 C50.4298191,63.0905645 62.0154777,46.9491583 76.386536,36.2750027 C81.5544714,29.8763138 96.526657,23.4302063 106.593529,16.8787022 C109.024277,15.2967753 111.827057,12.5293013 113.669729,7.73067781 C115.5124,2.93205429 115.751876,-1.28619291 116.639992,0.570221654 C117.733856,4.41278715 117.187536,27.6648057 116.639992,30.6190438 C116.312596,32.3854857 104.057861,34.5901244 93.4329608,40.7650412 C82.8080607,46.9399579 54.7387706,70.1100515 46.6030383,73.3736237 C29.5912594,80.1977382 3.35203179,66.7363926 2.14333249,64.9968166 C0.934633184,63.2572406 -0.442053658,57.0408835 0.614954217,57.0408835 Z" id="bottom_1"></path>
                    <path d="M50.4839522,60.2733571 L42,68.8402831 C84.4700278,68.8402831 109.25007,68.8402831 116.340128,68.8402831 C116.340128,63.0424224 111.819743,63.0424224 111.819743,44.5741807 C111.819743,26.105939 116.340128,15.3586963 116.340128,6.87844904 C116.340128,5.39871642 111.313786,16.8197549 94.1680703,24.2068661 C88.8147542,25.2720412 76.1869352,35.631495 71.5301773,39.9060425 C67.3108817,43.779033 60.2954733,50.5681379 50.4839522,60.2733571 Z" id="bottoms_2"></path>
                    <path d="M85,29.692477 L86.2502841,50 L114.178306,50 L116.294311,6.87844904 C111.62488,12.2963727 106.884271,16.7189899 102.072484,20.1463007 C96.7561882,21.8950809 91.0653603,25.0771396 85,29.692477 Z" id="bottoms_3"></path>
                    <path d="M85,29.692477 L88.5025547,69.7103056 L111.104416,69.7103056 L116.294311,6.87844904 C111.62488,12.2963727 106.884271,16.7189899 102.072484,20.1463007 C96.7561882,21.8950809 91.0653603,25.0771396 85,29.692477 Z" id="bottoms_4"></path>
                    <path d="M103,19.0477957 L103,45.26845 L116.294311,45.26845 L116.294311,6.87844904 C114.079217,10.0598105 111.863498,12.6124203 109.647155,14.5362785 C107.430813,16.4601367 105.215094,17.9639758 103,19.0477957 Z" id="bottoms_5"></path>
                    <path d="M103,19.0477957 L103,68.8402831 L116.294311,68.8402831 L116.294311,6.87844904 C114.079217,10.0598105 111.863498,12.6124203 109.647155,14.5362785 C107.430813,16.4601367 105.215094,17.9639758 103,19.0477957 Z" id="bottoms_6"></path>
                </g>
                <g id="counters" transform="translate(19.000000, 52.000000)">
                    <path d="M107.771397,0 C100.375854,46.1756528 97.0064586,79.3782222 97.6632091,99.6077084 C98.0556058,111.694465 98.7588448,122.138662 101.362329,128.743073 C105.294984,138.719269 109.630335,141.014824 112.951986,144.648988 C116.273636,148.283152 115.418985,153.403872 115.418985,155.561692 C115.418985,156.126167 112.532496,161.337288 104.075017,167.275572 C97.6053253,171.818162 87.057525,175.791691 76.9399174,184.383316 C53.596107,204.20631 47.8511346,214.359888 41.6804546,217.173959 C37.566668,219.050006 31.1530334,219.050006 22.439551,217.173959 C15.3051344,215.1245 10.5281655,213.545552 8.10864436,212.437115 C4.47936266,210.77446 1.74952063,209.84552 0.283561211,207.023806 C-0.693745068,205.142663 0.855195703,203.504378 4.93038352,202.108951 L24.9111111,191.58838 L41.6804546,123.920516 C43.8091294,102.44971 44.464924,81.4496697 43.6478384,60.9203945 C42.8307528,40.3911193 41.1044969,20.0843211 38.4690705,0" id="counter_0"></path>
                    <path d="M101.103947,130.793891 C104.129612,136.319657 107.236308,140.466431 110.424035,143.234212 C113.611763,146.001993 114.925304,150.265901 114.36466,156.025935 C114.36466,156.970547 111.457254,159.974883 105.642444,165.038945 C99.4713928,169.602325 91.976259,174.290475 83.1570425,179.103397 C94.4053354,171.135132 100.029482,163.083547 100.029482,154.948644 C100.029482,146.774365 98.3963665,141.087445 97.1594517,138.058241 C96.6299031,136.761376 97.9447348,134.339926 101.103947,130.793891 Z" id="counter_1" fill="#4A4A4A"></path>
                    <path d="M101.103947,130.793891 C104.129612,136.319657 107.236308,140.466431 110.424035,143.234212 C113.611763,146.001993 114.925304,150.265901 114.36466,156.025935 C114.36466,156.970547 111.457254,159.974883 105.642444,165.038945 C99.4713928,169.602325 91.976259,174.290475 83.1570425,179.103397 C85.3759091,171.853326 86.4853424,164.160839 86.4853424,156.025935 C86.4853424,147.891032 91.3582106,139.480351 101.103947,130.793891 Z" id="counter_2" fill="#4A4A4A"></path>
                    <path d="M101.103947,130.793891 C104.129612,136.319657 107.236308,140.466431 110.424035,143.234212 C113.611763,146.001993 114.925304,150.265901 114.36466,156.025935 C114.36466,156.970547 111.457254,159.974883 105.642444,165.038945 C99.4713928,169.602325 91.976259,174.290475 83.1570425,179.103397 C79.9584345,181.574288 77.7108947,183.340381 76.4144231,184.401676 C72.3021119,187.768023 69.476099,190.32162 67.6597525,191.923781 C59.3009979,199.296861 46.4240458,212.377429 45.8726333,212.935037 C44.5354154,212.935037 40.7851602,208.48029 39.9855722,207.905818 C44.4928423,203.100273 81.7073697,148.998152 85.6445534,144.350316 C88.2693425,141.251759 93.4224737,136.732951 101.103947,130.793891 Z" id="counter_3" fill="#4A4A4A"></path>
                    <path d="M101.019369,130.859306 C101.047527,130.83752 101.07572,130.815715 101.103947,130.793891 C103.817296,135.749276 106.595812,139.595661 109.439494,142.333045 C109.807615,142.684888 110.140013,142.987606 110.424035,143.234212 C113.611763,146.001993 114.925304,150.265901 114.36466,156.025935 C114.382347,157.416936 111.483786,160.644468 105.668975,165.70853 C99.4979242,170.271909 91.9939466,174.736865 83.1570425,179.103397 C79.9584345,181.574288 77.7108947,183.340381 76.4144231,184.401676 C72.3021119,187.768023 69.476099,190.32162 67.6597525,191.923781 C59.3009979,199.296861 46.4240458,212.377429 45.8726333,212.935037 C44.5354154,212.935037 40.7851602,208.48029 39.9855722,207.905818 C42.8983638,204.800268 59.4706865,181.106991 71.8939276,163.477898 C61.5531206,149.231693 54.270588,139.529931 50.0463299,134.372611 C49.102205,133.219946 41.8304096,122.6787 41.2145129,121.983333 C47.7579762,121.983333 66.8783174,121.983333 98.5755365,121.983333 C98.8566872,124.965462 99.6712979,127.924119 101.019369,130.859306 Z" id="counter_4" fill="#4A4A4A"></path>
                </g>
                <g id="shafts" transform="translate(18.000000, 0.000000)">
                    <g id="shaft_0" transform="translate(0.000000, 44.000000)">
                        <path d="M108.69254,8.38383281 C101.296998,54.5594856 97.9276017,87.762055 98.5843521,107.991541 C98.9767488,120.078298 99.6799878,130.522495 102.283472,137.126906 C106.216127,147.103101 110.551478,149.398657 113.873129,153.032821 C117.194779,156.666984 116.340128,161.787705 116.340128,163.945525 C116.340128,164.51 113.453639,169.721121 104.99616,175.659404 C98.5264684,180.201995 87.978668,184.175524 77.8610605,192.767149 C54.51725,212.590143 48.7722777,222.74372 42.6015977,225.557792 C38.487811,227.433839 32.0741765,227.433839 23.3606941,225.557792 C16.2262774,223.508333 11.4493085,221.929385 9.02978741,220.820948 C5.40050571,219.158293 2.67066368,218.229353 1.20470426,215.407639 C0.227397985,213.526496 1.77633876,211.888211 5.85152658,210.492783 L25.8322542,199.972212 L42.6015977,132.304349 C44.7302724,110.833543 45.386067,89.8335025 44.5689814,69.3042273 C43.7518959,48.7749521 42.0256399,28.4681539 39.3902136,8.38383281" id="left-toe-0"></path>
                        <path d="M149.94118,0.381189916 C155.657443,39.9639988 158.515575,69.3684197 158.515575,88.5944525 C158.515575,107.820485 155.657443,120.24075 149.94118,125.855246 C146.759899,126.418994 145.964579,132.711709 147.555219,144.733392 C149.14586,156.755075 151.394559,173.017151 154.301318,193.519621 C152.620067,203.852938 151.779442,210.74117 151.779442,214.184318 C151.779442,217.627465 154.930962,222.872697 161.234003,229.920013 C167.901976,233.418577 174.972026,235.16786 182.444153,235.16786 C194.369155,234.729092 199.760466,234.729092 204.194749,229.920013 C208.629033,225.110934 216.784274,208.362719 215.795638,203.087036 C214.807002,197.811353 211.21116,189.214647 209.207218,184.755129 C207.636384,181.259439 204.648523,173.546882 204.194749,165.179573 C204.194749,152.677653 205.864309,145.462764 205.864309,139.662904 C205.864309,135.796331 204.670135,131.193779 202.281787,125.855246 C201.406566,120.052204 202.60074,107.631939 205.864309,88.5944525 C209.127878,69.5569655 215.10365,40.1525447 223.791625,0.381189916" id="right-toe-0"></path>
                    </g>
                    <g id="shaft_1" transform="translate(42.000000, 159.000000)" fill="#4A4A4A">
                        <path d="M0.140587214,21.1053149 C37.6657435,21.1053149 57.1060157,21.1053149 58.4614037,21.1053149 C58.063358,18.6094207 58.063358,12.6244146 58.4614037,3.15029662 L1.2162627,3.15029662 C1.40982831,9.34153033 1.40982831,13.1700334 1.2162627,14.6358058 C1.02269708,16.1015782 0.664138588,18.2580813 0.140587214,21.1053149 Z" id="left-shaft-1"></path>
                        <path d="M108.467684,10.7227721 C119.805711,15.0093663 128.395236,17.1526634 134.236258,17.1526634 C140.077281,17.1526634 148.666806,15.0093663 160.004833,10.7227721 C160.004833,7.85249154 160.004833,5.69928099 160.004833,4.26314048 C160.004833,2.82699998 160.004833,1.65951791 160.004833,0.760694276 L113.503406,0.760694276 L112.243148,4.26314048 L108.467684,10.7227721 Z" id="right-shaft-1"></path>
                    </g>
                    <g id="shaft_2" transform="translate(42.000000, 125.000000)" fill="#4A4A4A">
                        <path d="M0.321076034,48.1053149 L58.5770104,48.1053149 L58.5770104,0.541964605 L0.321076034,0.541964605 C0.514641648,25.9663879 0.514641648,39.4114857 0.321076034,40.8772582 C0.127510421,42.3430306 0.127510421,44.7523828 0.321076034,48.1053149 Z" id="left-shaft-2"></path>
                        <path d="M106.315431,44.7227721 C120.282463,48.8566138 130.14995,50.9235346 135.917891,50.9235346 C141.685832,50.9235346 149.908338,48.8566138 160.585407,44.7227721 C160.198358,41.8524915 160.004833,39.699281 160.004833,38.2631405 C160.004833,37.2234923 160.182119,34.3499534 161.357148,25.7605825 C161.655897,23.5767539 162.937347,15.8131402 165.201498,2.46974132 L115.153425,2.46974132 C115.617402,15.1025138 115.617402,22.8661276 115.153425,25.7605825 C114.689447,28.6550374 111.743449,34.9757673 106.315431,44.7227721 Z" id="right-shaft-2"></path>
                    </g>
                    <g id="shaft_3" transform="translate(37.000000, 71.000000)" fill="#4A4A4A">
                        <path d="M5.32107603,102.105315 L63.5770104,102.105315 L71.8328827,0.820398904 L0.755666142,0.820398904 C5.13196426,62.5648978 7.22333051,94.1700334 7.02976489,95.6358058 C6.83619928,97.1015782 6.26663633,99.2580813 5.32107603,102.105315 Z" id="left-shaft-3"></path>
                        <path d="M111.680104,98.7227721 C124.330447,103.177921 133.639776,105.405495 139.608093,105.405495 C145.576409,105.405495 154.215799,103.177921 165.526263,98.7227721 C165.178643,95.8524915 165.004833,93.699281 165.004833,92.2631405 C165.004833,91.2234923 165.182119,88.3499534 166.357148,79.7605825 C166.655897,77.5767539 171.364105,52.0239377 180.481772,3.10213393 L117.243148,3.10213393 C119.971724,37.03524 121.354318,55.8307487 121.390932,59.4886601 C121.514571,71.8407425 120.474693,77.756398 120.153425,79.7605825 C119.689447,82.6550374 116.865007,88.9757673 111.680104,98.7227721 Z" id="right-shaft-3"></path>
                    </g>
                    <g id="shaft_4" transform="translate(36.000000, 0.000000)" fill="#4A4A4A">
                        <path d="M6.32107603,173.105315 L64.5770104,173.105315 L73.6958804,37.5610845 C70.4202822,23.5830893 67.3806588,15.0368329 64.5770104,11.9223151 C55.2807184,1.59524763 47.7558134,1.11610346 37.2730722,1.11610346 C26.7903311,1.11610346 20.0854416,1.11610346 3.1047736,1.11610346 C0.284868781,1.11610346 -0.466634405,13.2644305 0.850264044,37.5610845 C5.83016356,122.145126 8.22333051,165.170033 8.02976489,166.635806 C7.83619928,168.101578 7.26663633,170.258081 6.32107603,173.105315 Z" id="left-shaft-4"></path>
                        <path d="M112.393384,169.722772 C125.695765,174.46499 135.242227,176.8361 141.032771,176.8361 C146.823316,176.8361 155.335238,174.46499 166.568538,169.722772 C166.192735,166.852492 166.004833,164.699281 166.004833,163.26314 C166.004833,162.223492 166.182119,159.349953 167.357148,150.760583 C167.655897,148.576754 174.603127,112.458718 188.19884,42.406474 C188.19884,29.8057639 188.19884,19.6307864 188.19884,11.8815413 C188.19884,0.738829423 173.631085,0.738829423 149.064684,0.738829423 C124.498284,0.738829423 114.467684,0.842409006 113.329626,11.8815413 C112.748218,17.521192 112.748218,27.6961695 113.329626,42.406474 C119.333883,97.47002 122.354318,126.830749 122.390932,130.48866 C122.514571,142.840743 121.474693,148.756398 121.153425,150.760583 C120.689447,153.655037 117.769434,159.975767 112.393384,169.722772 Z" id="right-shaft-4"></path>
                    </g>
                </g>
                <g id="covers" transform="translate(44.000000, 167.000000)" fill="#4A4A4A">
                    <g id="covers_0" transform="translate(0.000000, 50.000000)">
                        <path d="M0,26.6532893 L22.3898431,48 L41,28.9673545 L6.66201288,-1.42108547e-14 C4.00715039,11.0764315 2.36501676,17.7678162 1.73561198,20.0741541 C1.10620721,22.3804921 0.527669879,24.5735372 0,26.6532893 Z" id="left-cover-2"></path>
                        <path d="M126.071202,37.5426864 C143.069482,38.6017114 167.211194,38.6017114 189.315203,37.5426864 C190.797554,33.9605358 192.51609,31.0271061 189.784452,25.608216 C187.457465,20.9920534 184.749635,15.272105 183.577395,12.8794769 C166.222143,14.0139593 145.022009,14.0139593 127.65647,12.8794769 C127.65647,15.9386348 127.856255,20.7044566 127.65647,25.608216 C127.412299,31.6014582 126.071202,37.5426864 126.071202,37.5426864 Z" id="right-cover-2"></path>
                    </g>
                    <g id="covers_1" transform="translate(0.000000, 29.000000)">
                        <path d="M0,47.7481468 L22.7477035,69 C26.7214865,64.2080168 32.0419272,58.7394394 38.7090255,52.594268 C45.3761238,46.4490965 52.139782,40.7795662 59,35.5856769 L12.0170645,-1.42108547e-14 C5.82072119,25.1694086 2.4028172,38.9021577 1.76335255,41.198247 C1.12388789,43.4943364 0.536103711,45.6776364 0,47.7481468 Z" id="left-cover-3"></path>
                        <path d="M126.217126,58.5426864 C143.215407,59.6017114 167.92793,59.6017114 189.603678,58.5426864 C190.784452,55.5911361 192.201449,51.4721193 190.784452,46.608216 C190.087678,44.2165105 184.433838,33.0955991 182.064678,24.4736875 C179.60093,15.5075524 179.98686,9.18019605 179.389269,7.96046839 C170.813725,8.52103666 170.813725,1.68997845 152.300752,1.68997845 C133.78778,1.68997845 133.328295,8.53438249 124.543383,7.96046839 C124.087911,9.71327278 126.205268,20.4975942 127.071202,30.3261448 C127.719622,37.6858676 127.156746,44.5085107 127.071202,46.608216 C126.827031,52.6014582 126.217126,56.655558 126.217126,58.5426864 Z" id="right-cover-3"></path>
                    </g>
                    <g id="cover_2" transform="translate(0.000000, 6.000000)">
                        <path d="M0,70.5809433 L22.7477035,92 C26.7214865,87.1703148 32.0419272,81.6587123 38.7090255,75.4651924 C45.3761238,69.2716725 52.139782,63.5575359 59,58.3227826 L16.3443961,0 C13.0252524,14.327844 10.7296477,24.3026421 9.45758205,29.9243942 C4.70151418,50.9433054 2.21972431,62.3279501 1.76335255,63.9795108 C1.12388789,66.2936652 0.536103711,68.4941427 0,70.5809433 Z" id="left-cover-3"></path>
                        <path d="M126.163317,81.5426864 C143.161597,82.6017114 167.283503,82.6017114 188.959251,81.5426864 C190.140024,78.5911361 192.201449,74.4721193 190.784452,69.608216 C190.087678,67.2165105 182.707021,53.839509 181.608136,50.3933797 C180.509252,46.9472505 176.699461,37.5595911 178.831771,22.0453769 C171.957531,22.0453769 171.245269,13.2498348 152.732296,13.2498348 C134.219324,13.2498348 131.235562,22.619291 122.45065,22.0453769 C122.282002,22.6943878 126.525897,47.214794 127.071202,53.4041267 C127.719622,60.7638495 127.156746,67.5085107 127.071202,69.608216 C126.827031,75.6014582 126.163317,79.655558 126.163317,81.5426864 Z" id="right-cover-3"></path>
                    </g>
                    <g id="cover_3">
                        <path d="M0,76.5809433 L22.5936043,98 C26.5404678,93.1703148 31.8248663,87.6587123 38.4467999,81.4651924 C45.0687334,75.2716725 51.7865727,69.5575359 58.6003177,64.3227826 C69.2970755,35.2076902 75.4303029,18.8534791 77,15.2601493 C75.47765,10.6041937 74.5294835,9.22465126 74.5294835,6 C64.4532224,6 45.0212861,6 16.2336746,6 C12.9370157,20.327844 10.6569621,30.3026421 9.39351378,35.9243942 C4.66966483,56.9433054 2.20468728,68.3279501 1.75140711,69.9795108 C1.11627437,72.2936652 0.532471996,74.4941427 0,76.5809433 Z" id="left-cover-3"></path>
                        <path d="M127.071202,87.5426864 C144.069482,88.6017114 169.334678,88.6017114 189.417389,87.5426864 C190.784452,82.8324953 191.839981,81.2300529 190.90288,77.6770525 C189.965779,74.1240521 184.433838,62.0955991 182.064678,53.4736875 C181.330132,50.8005109 180.042964,46.1426378 179.593202,39.5192635 C179.1973,33.6890569 179.593202,25.9563936 179.593202,22.0045718 C179.593202,12.7036234 179.461719,5.54051672 176.891996,3.2218142 C168.316452,3.78238247 167.920246,0.00875364091 151.138801,0.00875364091 C134.357357,0.00875364091 127.978524,3.59980692 122.192584,3.2218142 C117.737893,5.73912522 126.205268,49.4975942 127.071202,59.3261448 C127.719622,66.6858676 127.156746,73.5085107 127.071202,75.608216 C126.827031,81.6014582 127.071202,87.5426864 127.071202,87.5426864 Z" id="right-cover-3"></path>
                    </g>
                </g>
                <g id="toes" transform="translate(12.000000, 44.000000)">
                    <g id="toe_2" transform="translate(2.000000, 194.000000)" fill="#4A4A4A">
                        <path d="M51.9268295,27.366881 C50.5856387,29.0167426 47.1459515,32.0116114 38.3684922,34.1815604 C29.5910329,36.3515093 19.1450857,36.4319374 9.81170056,34.1815604 C0.478315389,31.9311833 -0.712948738,29.2942279 0.376007822,24.3791351 C1.10197886,21.1024066 4.24720977,18.4691768 9.81170056,16.4794458 C18.3011258,12.064271 24.8051372,8.62495889 29.3237348,6.1615096 C38.9198173,15.5698646 43.8315561,20.2039285 51.9268295,27.366881 Z" id="left-toe-2"></path>
                        <path d="M158.400743,0.708603104 C160.240782,6.4583829 161.946392,14.4694036 163.541092,15.5651531 C169.474301,19.0026886 207.586711,18.7336125 212.765714,15.5651531 C217.222305,10.8600856 216.962974,4.00499813 218.074299,0.708603104 C217.704885,-0.305413938 224.569162,19.0850752 218.074299,30.4494945 C211.579436,41.8139138 210.511445,47.3649191 188.34623,47.3649191 C166.181014,47.3649191 156.561282,28.621355 155.91999,22.753013 C155.189557,16.0689532 158.400743,1.8987102 158.400743,0.708603104 Z" id="right-toe-2"></path>
                    </g>
                    <g id="toe_1" transform="translate(0.000000, 194.000000)" fill="#4A4A4A">
                        <path d="M53.9268295,27.366881 C52.5856387,29.0167426 48.8331743,33.0234659 40.1011941,33.0234659 C33.2190728,32.7466478 26.2810355,32.482075 17.1728685,30.8479506 C16.9337161,30.8050435 16.5651377,30.7529191 16.0671332,30.6915774 C6.00965044,28.3686077 0.66172585,26.07664 0.0233593968,23.8156744 C0.0233593968,22.4092416 3.95280645,19.9638321 11.8117006,16.4794458 C20.3011258,12.064271 26.8051372,8.62495889 31.3237348,6.1615096 C40.9198173,15.5698646 45.8315561,20.2039285 53.9268295,27.366881 Z" id="left-toe-1"></path>
                        <path d="M160.400743,0.708603104 C162.240782,6.4583829 163.023062,12.1229404 164.617762,13.2186899 C170.550971,16.6562254 209.179938,16.3871493 214.358941,13.2186899 C218.815533,8.51362238 218.322215,4.57230201 219.43354,1.27590698 C219.064126,0.261889941 226.569162,11.3885937 220.074299,22.753013 C213.579436,34.1174322 196.604767,57.4355103 190.483003,57.4355103 C184.36124,57.4355103 158.843742,28.621355 158.202451,22.753013 C157.472018,16.0689532 160.400743,1.8987102 160.400743,0.708603104 Z" id="right-toe-1"></path>
                    </g>
                    <g id="toe_0" transform="translate(6.000000, 0.000000)">
                        <path d="M108.69254,8.38383281 C101.296998,54.5594856 97.9276017,87.762055 98.5843521,107.991541 C98.9767488,120.078298 99.6799878,130.522495 102.283472,137.126906 C106.216127,147.103101 110.551478,149.398657 113.873129,153.032821 C117.194779,156.666984 116.340128,161.787705 116.340128,163.945525 C116.340128,164.51 113.453639,169.721121 104.99616,175.659404 C98.5264684,180.201995 87.978668,184.175524 77.8610605,192.767149 C54.51725,212.590143 48.7722777,222.74372 42.6015977,225.557792 C38.487811,227.433839 32.0741765,227.433839 23.3606941,225.557792 C16.2262774,223.508333 11.4493085,221.929385 9.02978741,220.820948 C5.40050571,219.158293 2.67066368,218.229353 1.20470426,215.407639 C0.227397985,213.526496 1.77633876,211.888211 5.85152658,210.492783 L25.8322542,199.972212 L42.6015977,132.304349 C44.7302724,110.833543 45.386067,89.8335025 44.5689814,69.3042273 C43.7518959,48.7749521 42.0256399,28.4681539 39.3902136,8.38383281" id="left-toe-0"></path>
                        <path d="M149.94118,0.381189916 C155.657443,39.9639988 158.515575,69.3684197 158.515575,88.5944525 C158.515575,107.820485 155.657443,120.24075 149.94118,125.855246 C146.759899,126.418994 145.964579,132.711709 147.555219,144.733392 C149.14586,156.755075 151.394559,173.017151 154.301318,193.519621 C152.620067,203.852938 151.779442,210.74117 151.779442,214.184318 C151.779442,217.627465 154.930962,222.872697 161.234003,229.920013 C167.901976,233.418577 174.972026,235.16786 182.444153,235.16786 C194.369155,234.729092 199.760466,234.729092 204.194749,229.920013 C208.629033,225.110934 216.784274,208.362719 215.795638,203.087036 C214.807002,197.811353 211.21116,189.214647 209.207218,184.755129 C207.636384,181.259439 204.648523,173.546882 204.194749,165.179573 C204.194749,152.677653 205.864309,145.462764 205.864309,139.662904 C205.864309,135.796331 204.670135,131.193779 202.281787,125.855246 C201.406566,120.052204 202.60074,107.631939 205.864309,88.5944525 C209.127878,69.5569655 215.10365,40.1525447 223.791625,0.381189916" id="right-toe-0"></path>
                    </g>
                </g>
                <g id="touches_shoes" transform="translate(0.000000, 8.000000)" fill="#D8D8D8">
                    <g id="touch_toes" transform="translate(0.000000, 223.000000)">
                        <path d="M36.4940696,0.469511086 C36.4940696,0.469511086 46.8806324,10.8659726 67.6537581,31.6588955 L42.2871677,55.1277898 C25.8786292,60.1578937 14.2949546,59.3532084 7.53614382,52.7137339 C0.777333069,46.0742595 -1.12750544,34.8347821 1.8216283,18.9953018 C7.37956881,10.7860512 11.5838192,6.01194123 14.4343795,4.67297176 C25.9585472,-0.740177621 36.4940696,0.469511086 36.4940696,0.469511086 Z" id="touch_toes_left"></path>
                        <path d="M155.397731,17.5133338 L245.610384,17.5133338 L245.610384,51.56152 C240.650541,66.3344328 226.173472,73.7208891 202.179179,73.7208891 C178.184885,73.7208891 162.591069,66.3344328 155.397731,51.56152 L155.397731,17.5133338 Z" id="touch_toes_right"></path>
                    </g>
                    <g id="touch_covers" transform="translate(14.000000, 162.000000)">
                        <path d="M27.7698454,0.689911622 L104.8191,0.689911622 L88.5037442,61.3030596 L56.1491369,91.5683085 L22.6179493,59.4612007 C6.74705144,56.0990554 -0.484322181,45.0934983 0.923828406,26.4445297 C2.33197899,7.79556097 11.2806513,-0.789311707 27.7698454,0.689911622 Z" id="touch_cover_left"></path>
                        <polygon id="touch_cover_right" points="138.811026 0.172138049 226.007264 0.172138049 231.52198 77.2019835 140.706273 77.2019835"></polygon>
                    </g>
                    <polygon id="touch_shafts" points="19.8472057 160.582709 262.694672 160.582709 266.044263 4.13816781 19.8472057 0.808290822"></polygon>
                    <path d="M120.036778,162.747109 L103.758283,224.227122 C119.448911,213.096006 130.080076,205.553522 135.651778,201.599671 C144.775463,201.599671 146.994738,198.837652 150.092317,198.837652 C152.157369,198.837652 152.157369,186.807471 150.092317,162.747109 L120.036778,162.747109 Z" id="touch_counters"></path>
                    <path d="M45.0491861,278.06805 C40.8428173,284.548773 42.0079577,287.789134 48.5446074,287.789134 C55.0812571,287.789134 89.380026,287.789134 151.440914,287.789134 L151.440914,200.684506 L135.721686,203.123674 C120.174303,213.268698 108.790246,221.136574 101.569513,226.727301 C94.3487812,232.318029 84.4921167,240.896005 71.9995201,252.461229 L45.0491861,278.06805 Z" id="touch_bottoms"></path>
                </g>
            </g>
        </g>
    </g>
</svg>