<?xml version="1.0" encoding="UTF-8" standalone="no"?>
<svg width="269px" height="240px" viewBox="0 0 269 240" version="1.1" xmlns="http://www.w3.org/2000/svg" xmlns:xlink="http://www.w3.org/1999/xlink">
    <!-- Generator: Sketch 50.2 (55047) - http://www.bohemiancoding.com/sketch -->
    <title>BodyParts-Touch-Area</title>
    <desc>Created with Sketch.</desc>
    <defs></defs>
    <g id="BodyParts-Touch-Area" stroke="none" stroke-width="1" fill="none" fill-rule="evenodd">
        <g transform="translate(1.000000, 0.000000)" fill-rule="nonzero" stroke="#686868">
            <path d="M179.35,160.89 L175.35,160.89 C163.05,163.7 147.99,166.99 133.13,167.09 C118.28,166.99 97.22,163.7 84.92,160.89 L63.25,237.55 C109.296667,238.296667 132.593333,238.67 133.14,238.67 L210.03,236.55 C192.428947,191.426184 182.20228,166.206184 179.35,160.89 Z" id="length_touch" fill="#417505" stroke-linecap="square"></path>
            <g id="sleeves_touch" transform="translate(0.000000, 66.000000)" fill="#4A90E2">
                <path d="M98.79,0.48 C97.1311693,1.724338 95.3868646,2.85045042 93.57,3.85 L93.23,4.03 L92,4.62 L91.35,4.94 L90.35,5.38 C90.09,5.5 89.83,5.63 89.56,5.74 C89.29,5.85 88.92,6.01 88.56,6.14 L87.8,6.45 C87.25,6.66 86.69,6.87 86.12,7.06 C81.576288,8.5998044 55.8172702,12.40985 51.02,12.46 C50.68,19.7 15.15,104.24 12.17,119.06 C11.2773246,122.447029 4.86,141.96 0,148 C0.189907665,148.27979 1.2109219,161.27654 9.22801522,167.644869 C16.22318,173.201435 30.2153597,172.279578 32,172 C33.0863596,171.828999 41.4196929,171.495666 57,171 C70.2252622,131.657184 78.5297543,106.487656 81.9134763,95.4914164 C84.7178254,93.1638055 86.9333333,85 88.56,71 C90.4668188,54.5888549 89.3711877,44.8699864 89.69,43.34 C89.8584925,33.4344946 91.2356165,23.7173736 93.79,14.28 C95.0508099,9.54291909 96.723862,4.92529536 98.79,0.48 Z" id="Left-Sleeve"></path>
                <path d="M167.48,0.48 C169.138831,1.724338 170.883135,2.85045042 172.7,3.85 L173.04,4.03 L174.19,4.64 L174.84,4.96 L175.78,5.4 C176.05,5.52 176.31,5.65 176.58,5.76 L177.53,6.16 L178.3,6.47 C178.85,6.68 179.41,6.89 179.98,7.08 C184.523505,8.62062459 209.282654,9.43069261 214.08,9.48 C214.42,16.72 266.09,157.4 266.86,164.3 C267.28,168.56 214.38,167.53 213.19,165.15 C209.36,157.32 194.67,115.59 186.92,105.11 C180.114873,95.8606144 178.433169,88.0984317 177.240539,79.8705242 C177.035539,78.456242 175.48612,69.2312256 175.275444,59.930915 C175.132232,53.6087769 176.145551,47.2518457 176.53,43.29 C176.363805,33.4041146 175.003685,23.7052817 172.48,14.28 C171.21436,9.54443506 169.541458,4.92722511 167.48,0.48 Z" id="Right-Sleeve"></path>
            </g>
            <g id="shoulder_touch" transform="translate(48.000000, 27.000000)" fill="#50E3C2">
                <path d="M39.93,45.45 L40.69,45.14 C41.02,45.01 41.34,44.88 41.69,44.74 C42.04,44.6 42.22,44.5 42.48,44.38 L43.48,43.94 L44.13,43.62 L45.19,43 L45.53,42.82 C48.2620174,41.3036393 50.8176093,39.4892361 53.15,37.41 C53.54,37.07 53.91,36.72 54.28,36.41 C54.65,36.1 54.85,35.86 55.12,35.58 L55.49,35.2 C61.777808,28.7257026 65.5322114,20.2090976 66.07,11.2 C65.2592239,11.8973277 54.637592,0.583297051 36.2051041,1.2579081 C23.9167788,1.7076488 11.9950775,6.02167943 0.44,14.2 C2.32666667,37.86 3.24,50.2866667 3.18,51.48 C7.94261556,51.4079016 33.6653044,47.5982978 38.18,46.08 C38.82,45.87 39.38,45.66 39.93,45.45 Z" id="Left-Shoulder"></path>
                <path d="M130.34,45.45 L129.57,45.14 L128.62,44.74 C128.35,44.63 128.09,44.5 127.82,44.38 L126.88,43.94 L126.23,43.62 L125.08,43 L124.74,42.82 C122.006365,41.3012985 119.447707,39.4870992 117.11,37.41 C116.72,37.07 116.35,36.72 115.98,36.41 C115.61,36.1 115.41,35.86 115.14,35.58 L114.77,35.2 C108.482192,28.7257026 104.727789,20.2090976 104.19,11.2 C104.97831,11.8809142 113.958386,0.195427301 131.130228,0.143539222 C142.578122,0.10894717 156.098046,3.98776743 171.69,11.78 C167.896667,35.08 166.03,47.3266667 166.09,48.52 C161.327384,48.4479016 136.604696,47.6382978 132.09,46.12 C131.45,45.87 130.89,45.66 130.34,45.45 Z" id="Right-Shoulder"></path>
            </g>
            <path d="M176.45,108.86 C176.333918,99.406479 174.9743,89.7112293 172.48,80.28 C171.067232,75.5821212 169.398063,70.9651981 167.48,66.45 C167.299977,66.2949799 163.665652,78.9451626 156,88 C148.336331,97.0524951 137.2,100.65 133.1,100.65 C129,100.65 118.178576,98.4690141 111,90 C103.821424,81.5309859 99.1623264,66.1249168 98.72,66.45 C96.7055153,70.9164373 95.0340178,75.5297703 93.72,80.25 C91.2158797,89.6792469 89.8560955,99.3756838 89.67,109.13 C91.96,114.19 90.15,148.94 83.85,160.86 C96.15,163.67 118.21,166.96 133.06,167.06 C147.92,166.96 168.98,163.67 181.28,160.86 C174.97,148.94 174.24,114.22 176.45,108.86 Z" id="top_core_touch" fill="#50E3C2" stroke-linecap="square"></path>
            <g id="neckline_touch">
                <path d="M165.11,64.45 C164.72,64.11 164.34,63.76 163.98,63.45 C163.62,63.14 163.41,62.9 163.14,62.62 L162.77,62.24 C156.462677,55.7700314 152.677986,47.2571361 152.1,38.24 C146.939442,43.3159697 140.214458,46.2291783 133.13,46.51 C126.0486,46.2286298 119.326942,43.3153169 114.28,38.34 C113.587664,47.2560658 109.803614,55.7675193 103.5,62.24 L103.13,62.62 C102.85,62.9 102.58,63.18 102.29,63.45 C102,63.72 101.55,64.16 101.16,64.45 C100.39,65.15 99.59,65.84 98.76,66.45 C100.03,67.45 109.49,100.45 133.13,100.45 C155.49,100.45 166.23,67.45 167.51,66.45 C166.69,65.81 165.89,65.12 165.11,64.45 Z" id="_neckline_touch" fill="#BD10E0" stroke-linejoin="bevel"></path>
                <path d="M167.25,0.81 L100,0.81 C100.173636,10.6531385 100.922752,17.3123472 102.24735,20.787626 C106.900506,32.9958753 114.20139,38.1 114.15,38.1 C119.323167,43.1415823 126.040283,46.0279825 133.11,46.3 C140.193254,46.0358892 146.925641,43.1490531 152,38.2 C157.370882,32.959502 161.272857,27.3565515 163.705924,21.3911486 C166.138992,15.4257458 167.32035,8.56536289 167.25,0.81 Z" id="_top_collar_touch" fill="#4A90E2"></path>
            </g>
        </g>
    </g>
</svg>