<?xml version="1.0" encoding="UTF-8"?>
<svg width="42px" height="249px" viewBox="0 0 42 249" version="1.1" xmlns="http://www.w3.org/2000/svg" xmlns:xlink="http://www.w3.org/1999/xlink">
    <!-- Generator: Sketch 50.2 (55047) - http://www.bohemiancoding.com/sketch -->
    <title>shoulder_thumbnails</title>
    <desc>Created with Sketch.</desc>
    <defs></defs>
    <g id="Page-1" stroke="none" stroke-width="1" fill="none" fill-rule="evenodd">
        <g id="shoulder_thumbnails">
            <text id="ALL" fill-opacity="0.775334013" fill="#686868" font-family="Muli-Bold, Muli" font-size="14" font-weight="bold">
                <tspan x="8" y="14">ALL</tspan>
            </text>
            <g id="shoulder_thumbnails_0" transform="translate(0.000000, 32.000000)" fill-rule="nonzero">
                <path d="M11.4016625,33.1567134 C11.4866316,34.5679865 11.6705923,35.9715516 11.9521875,37.3570536 L19.8168304,37.3570536 C19.8665018,36.7361607 19.9503223,36.1069893 19.9999938,35.494375 C20.0133444,35.4004818 20.0188825,35.3056428 20.0165509,35.2108339 C17.0153252,35.2853021 14.0463875,34.5773932 11.4016625,33.1567134 Z" id="Path_927" fill="#F4F4F4"></path>
                <path d="M13.8666071,10.3016473 C14.0758651,9.51176745 14.35463,8.74196073 14.6996384,8.00123929 C14.4209267,8.20563749 14.1314507,8.39493686 13.832458,8.56832143 C13.8159009,8.58487857 13.7993437,8.58487857 13.7827866,8.60143571 L13.5830661,8.70491786 L13.4795839,8.75458929 C13.4328833,8.7835216 13.3823822,8.80581173 13.3295348,8.82081786 C13.2819722,8.8360849 13.2369728,8.85841024 13.1960429,8.88704643 C13.1416908,8.91199044 13.0860806,8.9340964 13.0294366,8.953275 C12.9797652,8.96983214 12.9456161,8.98638929 12.8959446,9.00294643 C12.7924625,9.03606071 12.7127812,9.069175 12.6124036,9.10642857 L12.5958464,9.10642857 C11.8389259,9.36466802 11.0454962,9.49987596 10.245767,9.50690446 C10.2189863,10.707776 10.1076399,11.905269 9.91255446,13.0904911 C9.41273571,15.6413259 8.66249018,18.1414545 8.12852232,20.6757321 C7.59558929,23.1427464 5.11098304,25.3096625 4.61012946,27.7766768 C4.45846102,28.3424251 4.19179128,28.8708328 3.82676964,29.3289089 C3.10446429,30.3720089 0.816474107,31.3561241 0,32.3557616 C0.0558133127,32.4376844 0.117002246,32.5158127 0.183163393,32.5896312 C0.700574107,32.3557616 1.21798482,32.1394839 1.71676875,31.9397634 C1.56671964,33.0397786 1.41667054,34.1739429 1.28317857,35.3236295 C1.24894579,35.6239659 1.36754434,35.9214651 1.59901068,36.1158801 C1.83047702,36.3102953 2.14398744,36.3757365 2.4339,36.2901527 C3.00892899,36.2141124 3.53351569,35.9222232 3.90127679,35.4736786 C4.63121528,34.2253769 5.13891599,32.8598371 5.40176786,31.437875 C5.6356375,29.3040732 7.48589821,27.2033857 8.78563393,25.4535027 C10.2530107,23.46975 11.6831339,21.8864732 12.1198286,20.0362125 C12.5203045,18.4187866 12.8369598,16.7858384 13.1867295,15.1518554 L13.1867295,15.1352982 C13.208066,13.5018156 13.4365151,11.8776363 13.8666071,10.3016473 Z" id="Path_928" fill="#F4F4F4"></path>
                <path d="M29.4551571,33.1567134 C29.3701914,34.5679868 29.1862307,35.9715521 28.9046321,37.3570536 L21.0399893,37.3570536 C20.9903179,36.7361607 20.9064973,36.1069893 20.8568259,35.494375 C20.8434705,35.4004823 20.8379324,35.305643 20.8402687,35.2108339 C23.8410746,35.2813167 26.8090086,34.5736471 29.4551571,33.1567134 Z" id="Path_951" fill="#F4F4F4"></path>
                <path d="M29.3382223,27.8387661 C28.7995123,26.4272242 28.1704177,25.0518573 27.4548473,23.7212116 C25.1528279,24.3159134 22.7938301,24.6628249 20.4180616,24.756033 C18.0421778,24.6640688 15.6830477,24.3171379 13.3812759,23.7212116 C12.6693868,25.0536836 12.0403999,26.4288149 11.4979009,27.8387661 C10.9334062,29.389698 10.6292063,31.0232865 10.5976063,32.6734518 C10.848033,32.840058 11.115017,33.0066643 11.3809661,33.1567134 C14.0298406,34.5673394 16.9988996,35.2678919 19.9989589,35.1901375 L20.8319902,35.1901375 C23.8320495,35.2678919 26.8011086,34.5673394 29.449983,33.1567134 C29.716967,33.0066643 29.9829161,32.840058 30.2333429,32.6734518 C30.2021958,31.023699 29.8997821,29.3903153 29.3382223,27.8387661 Z" id="Path_952" fill="#F4F4F4"></path>
                <path d="M22.7712455,1.05034375 C22.1727183,0.381891696 21.3179017,-0.000118862823 20.4206487,-0.000118862823 C19.5233956,-0.000118862823 18.6685791,0.381891696 18.0700518,1.05034375 C18.147899,1.8747632 17.8476099,2.68999681 17.2535777,3.26693125 L17.2701348,3.28348839 C18.1200723,4.10299364 19.2414323,4.58173519 20.4211661,4.62875625 C21.6001697,4.57850607 22.7204326,4.10023288 23.5721973,3.28348839 L23.5887545,3.26693125 C22.9918665,2.69180221 22.690732,1.87530808 22.7712455,1.05034375 Z" id="Path_953" fill="#F4F4F4"></path>
                <path d="M26.9881429,10.3016473 C26.7788849,9.51176745 26.50012,8.74196073 26.1551116,8.00123929 C26.4338244,8.20563586 26.7233004,8.39493516 27.022292,8.56832143 C27.0388491,8.58487857 27.0554062,8.58487857 27.0719634,8.60143571 L27.2716839,8.70491786 L27.3751661,8.75458929 C27.421873,8.78350973 27.4723723,8.8057991 27.5252152,8.82081786 C27.5727778,8.8360849 27.6177772,8.85841024 27.6587071,8.88704643 C27.7130592,8.91199044 27.7686694,8.9340964 27.8253134,8.953275 C27.8749848,8.96983214 27.9091339,8.98638929 27.9588054,9.00294643 C28.0622875,9.03606071 28.1419687,9.069175 28.2423464,9.10642857 L28.2589036,9.10642857 C29.0158241,9.36466802 29.8092538,9.49987596 30.608983,9.50690446 C30.6274725,10.7082389 30.7388758,11.9063427 30.9421955,13.0904911 C31.4420143,15.6413259 32.1922598,18.1414545 32.7262277,20.6757321 C33.2591607,23.1427464 35.743767,25.3096625 36.2446205,27.7766768 C36.396289,28.3424251 36.6629587,28.8708328 37.0279804,29.3289089 C37.7616687,30.3792527 40.0455196,31.362333 40.8619937,32.3630054 C40.8061829,32.44493 40.7449939,32.5230584 40.6788304,32.596875 C40.1614196,32.3630054 39.6440089,32.1467277 39.145225,31.9470071 C39.2952741,33.0470223 39.4453232,34.1811866 39.5788152,35.3308732 C39.613048,35.6312097 39.4944494,35.9287088 39.2629831,36.1231239 C39.0315167,36.317539 38.7180063,36.3829803 38.4280937,36.2973964 C37.8530647,36.2213561 37.328478,35.9294669 36.960717,35.4809223 C36.2307785,34.2326207 35.7230777,32.8670809 35.4602259,31.4451187 C35.2263562,29.311317 33.3760955,27.2106295 32.0763598,25.4607464 C30.608983,23.4769937 29.1788598,21.893717 28.7421652,20.0434562 C28.3416893,18.4260304 28.0250339,16.7930821 27.6752643,15.1590991 L27.6752643,15.142542 C27.6356318,13.507649 27.4050265,11.8829928 26.9881429,10.3016473 Z" id="Path_954" fill="#F4F4F4"></path>
                <path d="M27.6380107,15.2356759 C27.6380107,15.252233 27.6545679,15.1021839 27.6545679,15.1187411 C27.6151625,13.4930196 27.3915935,11.8770046 26.9881429,10.3016473 C26.7631044,9.51679227 26.4847811,8.74820495 26.1551116,8.00123929 C26.1551116,8.00123929 25.8881277,7.78496161 25.7546357,7.66802679 C25.6855472,7.61557294 25.6239262,7.55395194 25.5714723,7.48486339 L25.4379804,7.35137143 L25.3717518,7.28514286 C24.3192349,6.19978287 23.6868991,4.77556028 23.5877196,3.26693125 L23.5711625,3.28348839 C22.7554139,4.15549453 21.6147343,4.65040089 20.4206487,4.65040089 C19.2265631,4.65040089 18.0858834,4.15549453 17.2701348,3.28348839 L17.2535777,3.26693125 C17.1582839,4.77621216 16.5253588,6.20139479 15.4695455,7.28410804 L15.403317,7.35033661 L15.269825,7.48382857 L15.0866616,7.66699196 C14.9531696,7.78392679 14.8196777,7.90086161 14.6861857,8.00020446 C14.3539799,8.7461501 14.0755915,9.51491697 13.8531545,10.3006125 C13.4334295,11.8727277 13.2095916,13.4906867 13.1867295,15.1177062 C13.1867295,15.1011491 13.2032866,15.084592 13.2032866,15.0680348 C13.5696134,15.9683295 13.7031054,16.8355098 14.0032036,17.7016554 C14.6855089,19.7073718 14.4587639,21.9109559 13.3823107,23.7356991 C15.6843302,24.3304009 18.0433279,24.6773124 20.4190964,24.7705205 C22.7949803,24.6785563 25.1541103,24.3316254 27.4558821,23.7356991 C26.379429,21.9109559 26.1526839,19.7073718 26.8349893,17.7016554 C27.1557839,16.8365446 27.2716839,16.1194134 27.6380107,15.2356759 Z" id="Path_968" fill="#F4F4F4"></path>
                <path d="M26.1551116,7.98468214 C26.0216196,7.8812 25.8881277,7.76840446 25.7546357,7.65146964 C25.6855472,7.5990158 25.6239262,7.5373948 25.5714723,7.46830625 L25.4379804,7.33481429 L25.3717518,7.26858571 C24.3184775,6.18353167 23.6853928,4.75927452 23.58565,3.25037411 L23.5690929,3.26693125 C22.7533443,4.13893739 21.6126646,4.63384374 20.418579,4.63384374 C19.2244934,4.63384374 18.0838138,4.13893739 17.2680652,3.26693125 L17.2535777,3.25037411 C17.1582839,4.75965501 16.5253588,6.18483764 15.4695455,7.26755089 L15.403317,7.33377946 L15.269825,7.46727143 L15.0866616,7.65043482 C14.9531696,7.76736964 14.8196777,7.88430446 14.6861857,7.98364732 C14.9024634,8.15025357 16.4702179,13.6513643 20.4201312,13.6513643 C24.153767,13.6513643 25.9377991,8.13369643 26.1540768,7.98364732 L26.1551116,7.98468214 Z" id="Path_971" fill="#F4F4F4"></path>
                <path d="M12.6020554,9.10125446 C11.8438099,9.35424143 11.0512157,9.489307 10.2519759,9.50173036 C10.268533,9.20163214 10.2850902,8.91809107 10.3016473,8.61799286 C10.2993924,6.84757476 11.5742307,5.33359512 13.3191866,5.03440625 C14.2941537,4.6956533 15.2512249,4.30743679 16.1866768,3.87126696 C16.5799853,3.7371444 16.9426647,3.52607975 17.2535777,3.25037411 L17.2370205,3.26693125 C17.1476939,4.7695235 16.5202595,6.18969986 15.4695455,7.26755089 L15.403317,7.33377946 L15.269825,7.46727143 L15.0866616,7.65043482 C14.7006546,7.99846013 14.2756116,8.30057404 13.8200402,8.55072946 C13.803483,8.56728661 13.7869259,8.56728661 13.7703687,8.58384375 L13.5706482,8.68732589 L13.4671661,8.73699732 C13.4204654,8.76592964 13.3699644,8.78821976 13.317117,8.80322589 C13.2695543,8.81849294 13.2245549,8.84081828 13.183625,8.86945446 C13.1292714,8.89439509 13.0736614,8.91650091 13.0170187,8.93568304 C12.9673473,8.95224018 12.9331982,8.96879732 12.8835268,8.98535446 C12.7940531,9.03380657 12.6997042,9.07265614 12.6020554,9.10125446 Z M28.2382071,9.10125446 C28.9964526,9.35424143 29.7890468,9.489307 30.5882866,9.50173036 C30.5717295,9.20163214 30.5551723,8.91809107 30.5386152,8.61799286 C30.5408701,6.84757476 29.2660318,5.33359512 27.5210759,5.03440625 C26.5464586,4.69562214 25.5897336,4.3074059 24.6546205,3.87126696 C24.261312,3.7371444 23.8986326,3.52607975 23.5877196,3.25037411 L23.6042768,3.26693125 C23.6936035,4.7695235 24.3210378,6.18969986 25.3717518,7.26755089 L25.4379804,7.33377946 L25.5714723,7.46727143 L25.7546357,7.65043482 C26.1406428,7.99846013 26.5656857,8.30057404 27.0212571,8.55072946 C27.0378143,8.56728661 27.0543714,8.56728661 27.0709286,8.58384375 L27.2706491,8.68732589 L27.3741312,8.73699732 C27.4208319,8.76592964 27.4713329,8.78821976 27.5241804,8.80322589 C27.571743,8.81849294 27.6167424,8.84081828 27.6576723,8.86945446 C27.7120251,8.89439678 27.7676353,8.91650267 27.8242786,8.93568304 C27.87395,8.95224018 27.9080991,8.96879732 27.9577705,8.98535446 C28.0482323,9.03091843 28.1419721,9.06965957 28.2382071,9.10125446 Z" id="Path_959" fill="#D6D4D4"></path>
            </g>
            <g id="shoulder_thumbnails_1" transform="translate(0.000000, 73.000000)" fill-rule="nonzero">
                <path d="M11.4482295,33.1567134 C11.533185,34.5679878 11.7171458,35.9715538 11.9987545,37.3570536 L19.8633973,37.3570536 C19.9130687,36.7361607 19.9968893,36.1069893 20.0465607,35.494375 C20.0599162,35.4004823 20.0654542,35.305643 20.0631179,35.2108339 C17.062312,35.2813167 14.094378,34.5736471 11.4482295,33.1567134 Z" id="Path_982" fill="#F4F4F4"></path>
                <path d="M13.9121393,10.3016473 C14.1213921,9.51176589 14.4001571,8.7419587 14.7451705,8.00123929 C14.46646,8.20563911 14.1769839,8.39493856 13.8779902,8.56832143 C13.861433,8.58487857 13.8448759,8.58487857 13.8283188,8.60143571 L13.6285982,8.70491786 L13.5251161,8.75458929 C13.4784154,8.7835216 13.4279144,8.80581173 13.375067,8.82081786 C13.3275043,8.8360849 13.2825049,8.85841024 13.241575,8.88704643 C13.1872229,8.91199044 13.1316127,8.9340964 13.0749688,8.953275 C13.0252973,8.96983214 12.9911482,8.98638929 12.9414768,9.00294643 C12.8379946,9.03606071 12.7583134,9.069175 12.6579357,9.10642857 L12.6413786,9.10642857 C11.8844581,9.36466802 11.0910283,9.49987596 10.2912991,9.50690446 C10.2728179,10.7082394 10.1614146,11.9063438 9.95808661,13.0904911 C9.45826786,15.6413259 8.70802232,18.1414545 8.17405446,20.6757321 C7.64112143,23.1427464 5.15651518,25.3096625 4.65566161,27.7766768 C4.50399316,28.3424251 4.23732342,28.8708328 3.87230179,29.3289089 C3.13861339,30.3792527 0.8547625,31.362333 0.0382883929,32.3630054 C0.0940992473,32.44493 0.155288305,32.5230584 0.221451786,32.596875 C0.7388625,32.3630054 1.25627321,32.1467277 1.75505714,31.9470071 C1.60500804,33.0470223 1.45495893,34.1811866 1.32146696,35.3308732 C1.28723418,35.6312097 1.40583273,35.9287088 1.63729907,36.1231239 C1.86876541,36.317539 2.18227583,36.3829803 2.47218839,36.2973964 C3.04721739,36.2213561 3.57180408,35.9294669 3.93956518,35.4809223 C4.66950368,34.2326207 5.17720438,32.8670809 5.44005625,31.4451187 C5.67392589,29.311317 7.52418661,27.2106295 8.82392232,25.4607464 C10.2912991,23.4769937 11.7214223,21.893717 12.158117,20.0434562 C12.5585929,18.4260304 12.8752482,16.7930821 13.2250179,15.1590991 L13.2250179,15.142542 C13.2646409,13.5076483 13.4952464,11.8829909 13.9121393,10.3016473 Z" id="Path_983" fill="#F4F4F4"></path>
                <path d="M12.9476857,8.98431964 C12.9973571,8.9677625 13.0315062,8.95120536 13.0811777,8.93464821 C13.1355298,8.9097042 13.19114,8.88759824 13.2477839,8.86841964 C13.2953466,8.8531526 13.340346,8.83082726 13.3812759,8.80219107 C13.4309473,8.78563393 13.484758,8.75251964 13.531325,8.7359625 L13.6348071,8.68629107 L13.8345277,8.58280893 C13.8510848,8.56625179 13.867642,8.56625179 13.8841991,8.54969464 C14.338735,8.29789104 14.7635973,7.99590558 15.1508205,7.6494 C15.2199006,7.59693645 15.2815204,7.53531667 15.3339839,7.46623661 L15.4674759,7.33274464 L15.5337045,7.26651607 C16.5844184,6.18866504 17.2118528,4.76848868 17.3011795,3.26589643 L17.3177366,3.24933929 C17.0050288,3.5225542 16.6428653,3.73331863 16.2508357,3.87023214 C15.3154661,4.30780843 14.3583936,4.69740707 13.3833455,5.03751071 C11.6294742,5.32105567 10.346618,6.84455735 10.3658062,8.62109732 C10.3492491,8.92119554 10.332692,9.20473661 10.3161348,9.50483482 C11.10997,9.49244194 11.8971136,9.35735343 12.6496571,9.10435893 L12.6662143,9.10435893 C12.7629199,9.07147217 12.85701,9.03134552 12.9476857,8.98431964 Z" id="Path_988" fill="#D6D4D4"></path>
                <path d="M29.5172464,33.1567134 C29.4322909,34.5679878 29.2483301,35.9715538 28.9667214,37.3570536 L21.1020786,37.3570536 C21.0524071,36.7361607 20.9685866,36.1069893 20.9189152,35.494375 C20.9055597,35.4004823 20.9000217,35.305643 20.902358,35.2108339 C23.9031639,35.2813167 26.8710979,34.5736471 29.5172464,33.1567134 Z" id="Path_1007" fill="#F4F4F4"></path>
                <path d="M29.4003116,27.8387661 C28.8615963,26.4272264 28.2325018,25.0518598 27.5169366,23.7212116 C22.9270738,25.1001201 18.033228,25.1001201 13.4433652,23.7212116 C12.7314738,25.0536824 12.1024867,26.4288139 11.5599902,27.8387661 C10.9955138,29.389703 10.6913145,31.0232884 10.6596955,32.6734518 C10.9101223,32.840058 11.1771063,33.0066643 11.4430554,33.1567134 C14.0919298,34.5673394 17.0609889,35.2678919 20.0610482,35.1901375 L20.8940795,35.1901375 C23.8941388,35.2678919 26.8631978,34.5673394 29.5120723,33.1567134 C29.7790562,33.0066643 30.0450054,32.840058 30.2954321,32.6734518 C30.2642851,31.023699 29.9618714,29.3903153 29.4003116,27.8387661 Z" id="Path_1008" fill="#F4F4F4"></path>
                <path d="M22.8333348,1.05034375 C22.2348075,0.381891696 21.379991,-0.000118862823 20.4827379,-0.000118862823 C19.5854849,-0.000118862823 18.7306683,0.381891696 18.1321411,1.05034375 C18.2099883,1.8747632 17.9096992,2.68999681 17.315667,3.26693125 L17.3322241,3.28348839 C18.1821616,4.10299364 19.3035216,4.58173519 20.4832554,4.62875625 C21.662259,4.57850607 22.7825219,4.10023288 23.6342866,3.28348839 L23.6508437,3.26693125 C23.0539558,2.69180221 22.7528212,1.87530808 22.8333348,1.05034375 Z" id="Path_1009" fill="#F4F4F4"></path>
                <path d="M27.033675,10.3016473 C26.8244067,9.5117707 26.5456421,8.74196487 26.2006438,8.00123929 C26.4793543,8.20563911 26.7688304,8.39493856 27.0678241,8.56832143 C27.0843813,8.58487857 27.1009384,8.58487857 27.1174955,8.60143571 L27.3172161,8.70491786 L27.4206982,8.75458929 C27.4673989,8.7835216 27.5178999,8.80581173 27.5707473,8.82081786 C27.61831,8.8360849 27.6633094,8.85841024 27.7042393,8.88704643 C27.7585914,8.91199044 27.8142016,8.9340964 27.8708455,8.953275 C27.920517,8.96983214 27.9546661,8.98638929 28.0043375,9.00294643 C28.1078196,9.03606071 28.1875009,9.069175 28.2878786,9.10642857 L28.3044357,9.10642857 C29.0613562,9.36466802 29.854786,9.49987596 30.6545152,9.50690446 C30.673013,10.7082385 30.7844161,11.9063416 30.9877277,13.0904911 C31.4875464,15.6413259 32.237792,18.1414545 32.7717598,20.6757321 C33.3057277,23.1427464 35.7892991,25.3096625 36.2901527,27.7766768 C36.4417933,28.3424358 36.7084658,28.8708489 37.0735125,29.3289089 C37.8072009,30.3792527 40.0910518,31.362333 40.9075259,32.3630054 C40.8517052,32.4449228 40.7905166,32.5230506 40.7243625,32.596875 C40.2069518,32.3630054 39.6895411,32.1467277 39.1907571,31.9470071 C39.3408062,33.0470223 39.4908554,34.1811866 39.6243473,35.3308732 C39.6585801,35.6312097 39.5399816,35.9287088 39.3085152,36.1231239 C39.0770489,36.317539 38.7635385,36.3829803 38.4736259,36.2973964 C37.8985969,36.2213561 37.3740102,35.9294669 37.0062491,35.4809223 C36.2763106,34.2326207 35.7686099,32.8670809 35.505758,31.4451187 C35.2718884,29.311317 33.4216277,27.2106295 32.121892,25.4607464 C30.6545152,23.4769937 29.224392,21.893717 28.7876973,20.0434562 C28.3872214,18.4260304 28.0705661,16.7930821 27.7207964,15.1590991 L27.7207964,15.142542 C27.6976993,13.506322 27.4668101,11.8796661 27.033675,10.3016473 Z" id="Path_1010" fill="#F4F4F4"></path>
                <path d="M28.0177902,8.98431964 C27.9681188,8.9677625 27.9339696,8.95120536 27.8842982,8.93464821 C27.8299461,8.9097042 27.7743359,8.88759824 27.717692,8.86841964 C27.6701293,8.8531526 27.6251299,8.83082726 27.5842,8.80219107 C27.5345286,8.78563393 27.4807179,8.75251964 27.4341509,8.7359625 L27.3306688,8.68629107 L27.1309482,8.58280893 C27.1143911,8.56625179 27.0978339,8.56625179 27.0812768,8.54969464 C26.6267363,8.29789843 26.2018731,7.99591236 25.8146554,7.6494 C25.7455753,7.59693645 25.6839555,7.53531667 25.631492,7.46623661 L25.498,7.33274464 L25.4317714,7.26651607 C24.3810575,6.18866504 23.7536231,4.76848868 23.6642964,3.26589643 L23.6498089,3.25037411 C23.9625167,3.52358902 24.3246802,3.73435345 24.7167098,3.87126696 C25.6520815,4.30883831 26.6091539,4.69843686 27.5842,5.03854554 C29.3380713,5.32209049 30.6209275,6.84559218 30.6017393,8.62213214 C30.6182964,8.92223036 30.6348536,9.20577143 30.6514107,9.50586964 C29.8575755,9.49347676 29.0704319,9.35838825 28.3178884,9.10539375 L28.3013313,9.10539375 C28.202761,9.07528811 28.1077038,9.03469801 28.0177902,8.98431964 Z" id="Path_1015" fill="#D6D4D4"></path>
                <path d="M27.7001,15.2356759 C27.7001,15.252233 27.7166571,15.1021839 27.7166571,15.1187411 C27.6772606,13.4930189 27.4536915,11.8770029 27.0502321,10.3016473 C26.8251968,9.51679132 26.5468734,8.74820379 26.2172009,8.00123929 C26.2172009,8.00123929 25.950217,7.78496161 25.816725,7.66802679 C25.7476365,7.61557294 25.6860154,7.55395194 25.6335616,7.48486339 L25.5000696,7.35137143 L25.4338411,7.28514286 C24.3815475,6.20004896 23.749229,4.77623201 23.6498089,3.26796607 L23.6332518,3.28452321 C22.8175032,4.15652935 21.6768235,4.65143571 20.4827379,4.65143571 C19.2886523,4.65143571 18.1479727,4.15652935 17.3322241,3.28452321 L17.315667,3.26796607 C17.2204637,4.77726917 16.5875253,6.20248186 15.5316348,7.28514286 L15.4654062,7.35137143 L15.3319143,7.48486339 L15.1487509,7.66802679 C15.0152589,7.78496161 14.881767,7.90189643 14.748275,8.00123929 C14.4160724,8.74718627 14.1376841,9.51595287 13.9152437,10.3016473 C13.4955396,11.8737668 13.271702,13.4917231 13.2488187,15.1187411 C13.2488187,15.1021839 13.2653759,15.0856268 13.2653759,15.0690696 C13.6317027,15.9693643 13.7651946,16.8365446 14.0652929,17.7026902 C14.7477391,19.7083906 14.5209878,21.9120351 13.4444,23.7367339 C15.7464194,24.3314358 18.1054172,24.6783472 20.4811857,24.7715554 C22.8570696,24.6795911 25.2161996,24.3326602 27.5179714,23.7367339 C26.4415183,21.9119908 26.2147732,19.7084066 26.8970786,17.7026902 C27.2002812,16.8365446 27.3337732,16.1194134 27.7001,15.2356759 Z" id="Path_1024" fill="#F4F4F4"></path>
                <path d="M26.2172009,7.98468214 C26.0837089,7.8812 25.950217,7.76840446 25.816725,7.65146964 C25.7476449,7.5990061 25.6860252,7.53738631 25.6335616,7.46830625 L25.5000696,7.33481429 L25.4338411,7.26858571 C24.3805668,6.18353167 23.7474821,4.75927452 23.6477393,3.25037411 L23.6311821,3.26693125 C22.8154336,4.13893739 21.6747539,4.63384374 20.4806683,4.63384374 C19.2865827,4.63384374 18.145903,4.13893739 17.3301545,3.26693125 L17.315667,3.25037411 C17.2203731,4.75965501 16.5874481,6.18483764 15.5316348,7.26755089 L15.4654063,7.33377946 L15.3319143,7.46727143 L15.1487509,7.65043482 C15.0152589,7.76736964 14.881767,7.88430446 14.748275,7.98364732 C14.9645527,8.15025357 16.5323071,13.6513643 20.4822205,13.6513643 C24.1992991,13.6513643 25.9998884,8.13369643 26.2161661,7.98364732 L26.2172009,7.98468214 Z" id="Path_1027" fill="#F4F4F4"></path>
                <path d="M14.6799768,8.06125893 C14.6965339,6.34449018 14.7296482,4.57701518 14.7296482,4.57701518 C14.7296482,4.57701518 14.846583,4.51078661 15.5295652,4.21068839 C15.4798937,5.19376875 15.6133857,7.26134196 15.6133857,7.26134196 C15.3132875,7.52832589 15.0131893,7.76116071 14.6799768,8.06125893 Z" id="Path_69_4_" fill="#676767"></path>
                <path d="M25.3489857,7.24478482 C25.3489857,7.24478482 25.4824777,5.17514196 25.4328062,4.19413125 C26.1157884,4.49422946 26.2327232,4.56045804 26.2327232,4.56045804 C26.2327232,4.56045804 26.2658375,6.32793304 26.2823946,8.04470179 C25.932625,7.76116071 25.6490839,7.52832589 25.3489857,7.24478482 Z" id="Path_69_3_" fill="#676767"></path>
            </g>
            <g id="shoulder_thumbnails_2" transform="translate(0.000000, 114.000000)" fill-rule="nonzero">
                <path d="M11.6241491,33.1567134 C11.7091216,34.5679862 11.8930822,35.971551 12.1746741,37.3570536 L20.039317,37.3570536 C20.0889884,36.7361607 20.1728089,36.1069893 20.2224804,35.494375 C20.2358074,35.4004794 20.2413453,35.3056424 20.2390375,35.2108339 C17.2378118,35.2853021 14.2688741,34.5773932 11.6241491,33.1567134 Z" id="Path_1038" fill="#F4F4F4"></path>
                <path d="M14.0890937,10.3016473 C14.2983775,9.51177559 14.5771417,8.74197105 14.922125,8.00123929 C14.6434247,8.20565384 14.3539477,8.39495383 14.0549446,8.56832143 C14.0383875,8.58487857 14.0218304,8.58487857 14.0052732,8.60143571 L13.8055527,8.70491786 L13.7020705,8.75458929 C13.6553636,8.78350973 13.6048643,8.8057991 13.5520214,8.82081786 C13.5044529,8.83607038 13.4594513,8.85839667 13.4185295,8.88704643 C13.364173,8.9119802 13.3085633,8.93408595 13.2519232,8.953275 C13.2022518,8.96983214 13.1681027,8.98638929 13.1184312,9.00294643 C13.0149491,9.03606071 12.9352679,9.069175 12.8348902,9.10642857 L12.818333,9.10642857 C12.0614125,9.36466802 11.2679828,9.49987596 10.4682536,9.50690446 C10.4497558,10.7082385 10.3383526,11.9063416 10.1350411,13.0904911 C9.63522232,15.6413259 8.88497679,18.1414545 8.35100893,20.6757321 C7.81704107,23.1427464 5.33346964,25.3096625 4.83261607,27.7766768 C4.68094763,28.3424251 4.41427788,28.8708328 4.04925625,29.3289089 C3.31556786,30.3792527 1.03171696,31.362333 0.215242857,32.3630054 C0.271073315,32.4449156 0.33226138,32.5230428 0.39840625,32.596875 C0.915816964,32.3630054 1.43322768,32.1467277 1.93201161,31.9470071 C1.7819625,33.0470223 1.63191339,34.1811866 1.49842143,35.3308732 C1.46418865,35.6312097 1.5827872,35.9287088 1.81425354,36.1231239 C2.04571988,36.317539 2.3592303,36.3829803 2.64914286,36.2973964 C3.22417185,36.2213561 3.74875855,35.9294669 4.11651964,35.4809223 C4.84642014,34.2326026 5.35411831,32.8670697 5.61701071,31.4451187 C5.85088036,29.311317 7.70114107,27.2106295 9.00087679,25.4607464 C10.4682536,23.4769937 11.8983768,21.893717 12.3350714,20.0434562 C12.7355473,18.4260304 13.0522027,16.7930821 13.4019723,15.1590991 L13.4019723,15.142542 C13.4250359,13.5063194 13.6559257,11.8796593 14.0890937,10.3016473 Z" id="Path_1039" fill="#F4F4F4"></path>
                <path d="M13.108083,8.98431964 C13.1577545,8.9677625 13.1919036,8.95120536 13.241575,8.93464821 C13.2959227,8.90969389 13.3515334,8.88758772 13.4081812,8.86841964 C13.455738,8.85313808 13.5007353,8.83081382 13.5416732,8.80219107 C13.5913446,8.78563393 13.6451554,8.75251964 13.6917223,8.7359625 L13.7952045,8.68629107 L13.994925,8.58280893 C14.0114821,8.56625179 14.0280393,8.56625179 14.0445964,8.54969464 C14.4991416,8.29790583 14.9240055,7.99591915 15.3112179,7.6494 C15.3803064,7.59694616 15.4419274,7.53532515 15.4943812,7.46623661 L15.6278732,7.33274464 L15.6941018,7.26651607 C16.7448158,6.18866504 17.3722501,4.76848868 17.4615768,3.26589643 L17.4781339,3.24933929 C17.1654262,3.5225542 16.8032626,3.73331863 16.411233,3.87023214 C15.4758634,4.30780843 14.5187909,4.69740707 13.5437429,5.03751071 C11.7898715,5.32105567 10.5070153,6.84455735 10.5262036,8.62109732 C10.5096464,8.92119554 10.4930893,9.20473661 10.4765321,9.50483482 C11.2703673,9.49244194 12.0575109,9.35735343 12.8100545,9.10435893 L12.8266116,9.10435893 C12.9244286,9.07444574 13.0187839,9.03420597 13.108083,8.98431964 Z" id="Path_1044" fill="#D6D4D4"></path>
                <path d="M29.6776437,33.1567134 C29.5926713,34.5679862 29.4087106,35.971551 29.1271187,37.3570536 L21.2624759,37.3570536 C21.2128045,36.7361607 21.1289839,36.1069893 21.0793125,35.494375 C21.0659571,35.4004823 21.060419,35.305643 21.0627554,35.2108339 C24.0635612,35.2813167 27.0314952,34.5736471 29.6776437,33.1567134 Z" id="Path_1063" fill="#F4F4F4"></path>
                <path d="M29.5607089,27.8387661 C29.0219937,26.4272264 28.3928991,25.0518598 27.6773339,23.7212116 C23.0874711,25.1001201 18.1936253,25.1001201 13.6037625,23.7212116 C12.8918828,25.0536883 12.2628962,26.428819 11.7203875,27.8387661 C11.1559111,29.389703 10.8517118,31.0232884 10.8200929,32.6734518 C11.0705196,32.840058 11.3375036,33.0066643 11.6034527,33.1567134 C14.2523272,34.5673394 17.2213862,35.2678919 20.2214455,35.1901375 L21.0544768,35.1901375 C24.0545361,35.2678919 27.0235952,34.5673394 29.6724696,33.1567134 C29.9394536,33.0066643 30.2054027,32.840058 30.4558295,32.6734518 C30.4246824,31.023699 30.1222687,29.3903153 29.5607089,27.8387661 Z" id="Path_1064" fill="#F4F4F4"></path>
                <path d="M22.9926973,1.05034375 C22.39417,0.381891696 21.5393535,-0.000118862823 20.6421004,-0.000118862823 C19.7448474,-0.000118862823 18.8900309,0.381891696 18.2915036,1.05034375 C18.369198,1.8747433 18.0689324,2.68991279 17.4750295,3.26693125 L17.4915866,3.28348839 C18.3415241,4.10299364 19.4628841,4.58173519 20.6426179,4.62875625 C21.8216215,4.57850607 22.9418844,4.10023288 23.7936491,3.28348839 L23.8102062,3.26693125 C23.2133183,2.69180221 22.9121837,1.87530808 22.9926973,1.05034375 Z" id="Path_1065" fill="#F4F4F4"></path>
                <path d="M27.2106295,10.3016473 C27.0014025,9.51175774 26.7226367,8.74194831 26.3775982,8.00123929 C26.6563178,8.20562609 26.9457932,8.39492505 27.2447786,8.56832143 C27.2613357,8.58487857 27.2778929,8.58487857 27.29445,8.60143571 L27.4941705,8.70491786 L27.5976527,8.75458929 C27.644347,8.78353355 27.6948498,8.80582441 27.7477018,8.82081786 C27.7952644,8.8360849 27.8402638,8.85841024 27.8811938,8.88704643 C27.9355407,8.91200245 27.9911516,8.93410868 28.0478,8.953275 C28.0974714,8.96983214 28.1316205,8.98638929 28.181292,9.00294643 C28.2847741,9.03606071 28.3644554,9.069175 28.464833,9.10642857 L28.4813902,9.10642857 C29.2383107,9.36466802 30.0317404,9.49987596 30.8314696,9.50690446 C30.8499343,10.7082403 30.9613378,11.9063459 31.1646821,13.0904911 C31.6645009,15.6413259 32.4147464,18.1414545 32.9487143,20.6757321 C33.4816473,23.1427464 35.9662536,25.3096625 36.4671071,27.7766768 C36.6187756,28.3424251 36.8854453,28.8708328 37.250467,29.3289089 C37.9841554,30.3792527 40.2680063,31.362333 41.0844804,32.3630054 C41.0286892,32.4449444 40.9674992,32.5230741 40.901317,32.596875 C40.3839063,32.3630054 39.8664955,32.1467277 39.3677116,31.9470071 C39.5177607,33.0470223 39.6678098,34.1811866 39.8013018,35.3308732 C39.8355346,35.6312097 39.716936,35.9287088 39.4854697,36.1231239 C39.2540033,36.317539 38.9404929,36.3829803 38.6505804,36.2973964 C38.0755513,36.2213561 37.5509647,35.9294669 37.1832036,35.4809223 C36.4532651,34.2326207 35.9455643,32.8670809 35.6827125,31.4451187 C35.4488429,29.311317 33.5985821,27.2106295 32.2988464,25.4607464 C30.8314696,23.4769937 29.4013464,21.893717 28.9646518,20.0434562 C28.5641759,18.4260304 28.2475205,16.7930821 27.8977509,15.1590991 L27.8977509,15.142542 C27.8581656,13.5076452 27.6275596,11.8829835 27.2106295,10.3016473 Z" id="Path_1066" fill="#F4F4F4"></path>
                <path d="M28.1781875,8.98431964 C28.1285161,8.9677625 28.094367,8.95120536 28.0446955,8.93464821 C27.9903384,8.90971614 27.9347288,8.88761046 27.8780893,8.86841964 C27.8305267,8.8531526 27.7855273,8.83082726 27.7445973,8.80219107 C27.6949259,8.78563393 27.6411152,8.75251964 27.5945482,8.7359625 L27.4910661,8.68629107 L27.2913455,8.58280893 C27.2747884,8.56625179 27.2582313,8.56625179 27.2416741,8.54969464 C26.787129,8.29790583 26.362265,7.99591915 25.9750527,7.6494 C25.9059641,7.59694616 25.8443431,7.53532515 25.7918893,7.46623661 L25.6583973,7.33274464 L25.5921688,7.26651607 C24.5414548,6.18866504 23.9140204,4.76848868 23.8246938,3.26589643 L23.8102063,3.25037411 C24.122914,3.52358902 24.4850776,3.73435345 24.8771071,3.87126696 C25.8118812,4.30737502 26.7682602,4.69559098 27.7425277,5.03440625 C29.496399,5.3179512 30.7792552,6.84145289 30.760067,8.61799286 C30.7766241,8.91809107 30.7931812,9.20163214 30.8097384,9.50173036 C30.0159032,9.48933747 29.2287596,9.35424896 28.4762161,9.10125446 L28.4596589,9.10125446 C28.3630459,9.06936181 28.2689586,9.03027406 28.1781875,8.98431964 Z" id="Path_1071" fill="#D6D4D4"></path>
                <path d="M27.8604973,15.2356759 C27.8604973,15.252233 27.8770545,15.1021839 27.8770545,15.1187411 C27.837658,13.4930189 27.6140888,11.8770029 27.2106295,10.3016473 C26.9856217,9.51678236 26.7072975,8.748193 26.3775982,8.00123929 C26.3775982,8.00123929 26.1106143,7.78496161 25.9771223,7.66802679 C25.9080168,7.61559242 25.8463933,7.5539689 25.7939589,7.48486339 L25.660467,7.35137143 L25.5942384,7.28514286 C24.5419448,6.20004896 23.9096263,4.77623201 23.8102062,3.26796607 L23.7936491,3.28452321 C22.9779005,4.15652935 21.8372209,4.65143571 20.6431353,4.65143571 C19.4490497,4.65143571 18.30837,4.15652935 17.4926214,3.28452321 L17.4760643,3.26796607 C17.3807705,4.77724698 16.7478454,6.20242961 15.6920321,7.28514286 L15.6258036,7.35137143 L15.4923116,7.48486339 L15.3091482,7.66802679 C15.1756563,7.78496161 15.0421643,7.90189643 14.9086723,8.00123929 C14.5764566,8.74718098 14.298068,9.51594853 14.0756411,10.3016473 C13.6559369,11.8737668 13.4320993,13.4917231 13.4092161,15.1187411 C13.4092161,15.1021839 13.4257732,15.0856268 13.4257732,15.0690696 C13.7921,15.9693643 13.925592,16.8365446 14.2256902,17.7026902 C14.9079955,19.7084066 14.6812505,21.9119908 13.6047973,23.7367339 C15.9068168,24.3314358 18.2658146,24.6783472 20.641583,24.7715554 C23.0174669,24.6795911 25.3765969,24.3326602 27.6783687,23.7367339 C26.6019156,21.9119908 26.3751706,19.7084066 27.0574759,17.7026902 C27.3782705,16.8365446 27.4941705,16.1194134 27.8604973,15.2356759 Z" id="Path_1080" fill="#F4F4F4"></path>
                <path d="M26.3775982,7.98468214 C26.2441062,7.8812 26.1106143,7.76840446 25.9771223,7.65146964 C25.9080168,7.59903528 25.8463933,7.53741176 25.7939589,7.46830625 L25.660467,7.33481429 L25.5942384,7.26858571 C24.5409641,6.18353167 23.9078794,4.75927452 23.8081366,3.25037411 L23.7915795,3.26693125 C22.9758309,4.13893739 21.8351512,4.63384374 20.6410656,4.63384374 C19.44698,4.63384374 18.3063004,4.13893739 17.4905518,3.26693125 L17.4760643,3.25037411 C17.3807705,4.75965501 16.7478454,6.18483764 15.6920321,7.26755089 L15.6258036,7.33377946 L15.4923116,7.46727143 L15.3091482,7.65043482 C15.1756562,7.76736964 15.0421643,7.88430446 14.9086723,7.98364732 C15.12495,8.15025357 16.6927045,13.6513643 20.6426179,13.6513643 C24.3762536,13.6513643 26.1602857,8.13369643 26.3765634,7.98364732 L26.3775982,7.98468214 Z" id="Path_1083" fill="#F4F4F4"></path>
                <path d="M13.2912464,5.13685357 C13.2074259,6.02059107 13.1577545,7.2872125 13.1411973,8.97086696 C14.1631472,8.60424724 15.0790438,7.99151699 15.8079321,7.18683482 C15.9180579,6.17787023 15.8561238,5.15753238 15.6247688,4.16929554 C15.1626742,4.41417153 14.6837189,4.62581098 14.1915411,4.80260625 C13.908,4.88746161 13.5747875,5.02095357 13.2912464,5.13685357 Z" id="Path_44_8_" fill="#676767"></path>
                <path d="M27.0936946,4.80364107 C26.6015168,4.6268458 26.1225615,4.41520635 25.660467,4.17033036 C25.4291119,5.15856721 25.3671778,6.17890505 25.4773036,7.18786964 C26.2031087,7.99611526 27.1199715,8.60949192 28.1440384,8.97190179 C28.1274812,7.30480446 28.094367,6.02162589 27.9939893,5.13788839 C27.7145875,5.02095357 27.3772357,4.88746161 27.0936946,4.80364107 Z" id="Path_44_7_" fill="#676767"></path>
            </g>
            <g id="shoulder_thumbnails_3" transform="translate(0, 155.000000)" fill-rule="nonzero">
                <path d="M11.5910937,33.5460876 C11.675345,34.9739366 11.8578104,36.3939863 12.1371429,37.7957543 L19.9378455,37.7957543 C19.9871132,37.16757 20.0702523,36.5310099 20.1195198,35.9112014 C20.1327667,35.8162061 20.1382597,35.7202531 20.1359424,35.6243306 C17.1595333,35.6956412 14.2157288,34.9796611 11.5910937,33.5460876 Z" id="Path_1150" fill="#F4F4F4"></path>
                <path d="M14.0513943,10.4226242 C14.2592774,9.62343273 14.5361198,8.84458451 14.8786793,8.09520143 C14.6022157,8.30197358 14.3150945,8.49349506 14.0185492,8.6689431 C14.0021267,8.68569469 13.9857041,8.68569469 13.9692816,8.70244622 L13.7711848,8.80714361 L13.668544,8.8573984 C13.6222168,8.88665847 13.572128,8.90920957 13.5197148,8.92440471 C13.4725389,8.93985108 13.4279053,8.96243856 13.3873081,8.99141103 C13.3333972,9.01664626 13.2782392,9.03901173 13.2220564,9.05841734 C13.1727888,9.07516894 13.1389173,9.09192053 13.0896498,9.10867206 C12.9870089,9.14217525 12.9079755,9.17567844 12.8084139,9.21336945 L12.7919914,9.21336945 C12.0412291,9.47465907 11.2542472,9.61145534 10.4610182,9.61854832 C10.4427036,10.833992 10.3322059,12.0461675 10.1305148,13.2442186 C9.63475962,15.825009 8.8906136,18.3544977 8.36098695,20.9185366 C7.83136031,23.4145221 5.36798052,25.6068853 4.87119893,28.1028708 C4.72079118,28.6752737 4.45628675,29.2098923 4.09420789,29.6733316 C3.36648444,30.7360099 1.10120144,31.730635 0.296497374,32.7430587 C0.351852042,32.8259472 0.412543746,32.9049933 0.478171631,32.9796748 C0.991375755,32.7430587 1.50457988,32.5242412 1.99930865,32.3221753 C1.85047945,33.4351084 1.70165026,34.5825917 1.5692436,35.7457796 C1.53528914,36.049643 1.65292346,36.3506359 1.88250796,36.547334 C2.11209247,36.7440322 2.42305402,36.810242 2.71060957,36.7236531 C3.28059463,36.6464664 3.80050877,36.3511725 4.16503005,35.8975908 C4.88903409,34.6346298 5.39260715,33.2530538 5.65332201,31.8143929 C5.88529027,29.655533 7.72050824,27.5301762 9.00967698,25.7597434 C10.4651239,23.7526947 11.8836201,22.1508247 12.3167643,20.2788356 C12.7139843,18.6424156 13.0280653,16.9902909 13.3749912,15.3371193 L13.3749912,15.3203677 C13.3962828,13.6651612 13.6235688,12.0194139 14.0513943,10.4226242 Z" id="Path_1151" fill="#F4F4F4"></path>
                <path d="M13.0783592,9.08982659 C13.1276269,9.073075 13.1614983,9.0563234 13.210766,9.0395718 C13.2646776,9.01433833 13.3198355,8.99197286 13.3760176,8.97256549 C13.4231936,8.95711912 13.4678272,8.93453164 13.5084243,8.90555917 C13.5576919,8.88880758 13.6110652,8.85530446 13.6572535,8.83855286 L13.7598944,8.78829807 L13.9579911,8.68360075 C13.9744137,8.66684916 13.9908362,8.66684916 14.0072587,8.65009756 C14.4581038,8.39534436 14.8795128,8.08981198 15.2635824,7.73923038 C15.3320841,7.68613108 15.3932005,7.62379025 15.4452567,7.55391599 L15.5776633,7.41885639 L15.6433535,7.35185008 C16.6855251,6.26134132 17.3078583,4.82448719 17.3964588,3.30424933 L17.4128813,3.28749774 C17.1027159,3.56392114 16.7434967,3.77716068 16.3546544,3.91568202 C15.4268894,4.35839696 14.477598,4.75257084 13.5104771,5.09666848 C11.7708649,5.38354322 10.4984385,6.92493608 10.5174707,8.72233873 C10.5010482,9.02596119 10.4846256,9.31283199 10.4682031,9.61645438 C11.2555843,9.60391593 12.0363284,9.46724104 12.7827537,9.21127551 L12.7991762,9.21127551 C12.895097,9.1780063 12.9884224,9.13740822 13.0783592,9.08982659 Z" id="Path_1156" fill="#F4F4F4"></path>
                <path d="M29.5132081,33.5460876 C29.4290208,34.9739428 29.2465548,36.3939971 28.9671589,37.7957543 L21.1664563,37.7957543 C21.1171886,37.16757 21.0340495,36.5310099 20.984782,35.9112014 C20.9715352,35.8162061 20.9660421,35.7202531 20.9683594,35.6243306 C23.9447685,35.6956412 26.888573,34.9796611 29.5132081,33.5460876 Z" id="Path_1175" fill="#F4F4F4"></path>
                <path d="M29.3982504,28.1656892 C28.8638965,26.7375811 28.2399172,25.3460642 27.5301874,23.9997805 C22.9776316,25.3948205 18.123591,25.3948205 13.5710352,23.9997805 C12.8649642,25.3479156 12.2410919,26.7391938 11.7029722,28.1656892 C11.1430851,29.7348396 10.841359,31.3876088 10.8099971,33.0571508 C11.0583878,33.2257136 11.3232012,33.3942764 11.586988,33.5460876 C14.214327,34.9732793 17.1592473,35.6820586 20.134916,35.6033912 L20.9611746,35.6033912 C23.9368481,35.6821065 26.8817801,34.9733243 29.5091025,33.5460876 C29.7739158,33.3942764 30.0387291,33.2257136 30.2860935,33.0571508 C30.2553115,31.3880127 29.9553531,29.735429 29.3982504,28.1656892 Z" id="Path_1176" fill="#F4F4F4"></path>
                <path d="M22.8836372,1.06267841 C22.289976,0.386376423 21.4421092,-0.000120258683 20.5521509,-0.000120258683 C19.6621926,-0.000120258683 18.8143258,0.386376423 18.2206646,1.06267841 C18.2977273,1.89675925 17.999903,2.72150165 17.4108285,3.3052963 L17.427251,3.32204788 C18.2702785,4.15117695 19.3825217,4.63554057 20.5526641,4.68311382 C21.7220823,4.63227352 22.8332375,4.14838377 23.6780772,3.32204788 L23.6944998,3.3052963 C23.1024646,2.72341326 22.8037782,1.89733067 22.8836372,1.06267841 Z" id="Path_1177" fill="#F4F4F4"></path>
                <path d="M27.0498283,10.4226242 C26.8423333,9.62344877 26.5658328,8.84459641 26.2235697,8.09520143 C26.5000143,8.30200166 26.7871369,8.49352412 27.0836998,8.6689431 C27.1001223,8.68569469 27.1165449,8.68569469 27.1329674,8.70244622 L27.3310642,8.80714361 L27.433705,8.8573984 C27.4800322,8.88665847 27.530121,8.90920957 27.5825342,8.92440471 C27.6297101,8.93985108 27.6743437,8.96243856 27.7149409,8.99141103 C27.768859,9.01662902 27.8240161,9.0389942 27.8801926,9.05841734 C27.9294602,9.07516894 27.9633317,9.09192053 28.0125992,9.10867206 C28.1152401,9.14217525 28.1942735,9.17567844 28.2938351,9.21336945 L28.3102576,9.21336945 C29.0610199,9.47465907 29.8480018,9.61145534 30.6412308,9.61854832 C30.6595454,10.833992 30.7700431,12.0461675 30.9717342,13.2442186 C31.4674894,15.825009 32.2116354,18.3544977 32.741262,20.9185366 C33.2698623,23.4145221 35.7342685,25.6068853 36.2310501,28.1028708 C36.3815131,28.6752523 36.646012,29.2098598 37.0080411,29.6733316 C37.7357645,30.7360099 40.0010476,31.730635 40.8108836,32.7430587 C40.7555241,32.8259436 40.6948326,32.9049893 40.6292094,32.9796748 C40.1160053,32.7430587 39.6028012,32.5242412 39.1080724,32.3221753 C39.2569015,33.4351084 39.4057308,34.5825917 39.5381375,35.7457796 C39.5720919,36.049643 39.4544576,36.3506359 39.2248731,36.547334 C38.9952886,36.7440322 38.684327,36.810242 38.3967715,36.7236531 C37.8264504,36.6466184 37.3061629,36.3513208 36.9413245,35.8975908 C36.2173771,34.6346024 35.7138078,33.2530368 35.4530326,31.8143929 C35.2210644,29.655533 33.3858464,27.5301762 32.0966776,25.7597434 C30.6412308,23.7526947 29.2227346,22.1508247 28.7895903,20.2788356 C28.3923703,18.6424156 28.0782894,16.9902909 27.7313634,15.3371193 L27.7313634,15.3203677 C27.7085205,13.6649275 27.4795073,12.0191606 27.0498283,10.4226242 Z" id="Path_1178" fill="#F4F4F4"></path>
                <path d="M28.0249162,9.08982659 C27.9756485,9.073075 27.9417771,9.0563234 27.8925095,9.0395718 C27.8385978,9.01433833 27.7834399,8.99197286 27.7272578,8.97256549 C27.6800818,8.95711912 27.6354482,8.93453164 27.5948511,8.90555917 C27.5455835,8.88880758 27.4922102,8.85530446 27.4460219,8.83855286 L27.343381,8.78829807 L27.1452843,8.68360075 C27.1288617,8.66684916 27.1124392,8.66684916 27.0960167,8.65009756 C26.6451485,8.39538173 26.2237356,8.08984646 25.839693,7.73923038 C25.7711324,7.68619997 25.7100075,7.62385028 25.6580187,7.55391599 L25.5256121,7.41885639 L25.459922,7.35185008 C24.4177503,6.26134132 23.7954171,4.82448719 23.7068166,3.30424933 L23.6934734,3.28854471 C24.0036387,3.56496811 24.3628579,3.77820765 24.7517002,3.916729 C25.6794637,4.35944727 26.6287554,4.75362121 27.5958775,5.09771545 C29.3354897,5.38459019 30.6079162,6.92598305 30.588884,8.7233857 C30.6053065,9.02700816 30.621729,9.31387896 30.6381515,9.61750135 C29.8507703,9.6049629 29.0700262,9.46828801 28.323601,9.21232248 L28.3071784,9.21232248 C28.2101776,9.17886228 28.115817,9.13791179 28.0249162,9.08982659 Z" id="Path_1183" fill="#F4F4F4"></path>
                <path d="M27.7108352,15.4145953 C27.7108352,15.4313469 27.7272578,15.2795357 27.7272578,15.2962873 C27.6881199,13.6514786 27.4663694,12.0164921 27.0662508,10.4226242 C26.843045,9.62855126 26.5669844,8.8509379 26.2399922,8.09520143 C26.2399922,8.09520143 25.9751789,7.87638392 25.8427722,7.75807585 C25.7742454,7.70500603 25.7131254,7.6426614 25.6610979,7.57276153 L25.5286913,7.43770193 L25.4630012,7.37069554 C24.4191876,6.27291081 23.7919969,4.83234366 23.6934734,3.30634327 L23.6770508,3.32309485 C22.8679344,4.20534135 21.7365285,4.70605961 20.5521509,4.70605961 C19.3677733,4.70605961 18.2363675,4.20534135 17.427251,3.32309485 L17.4108285,3.30634327 C17.3163094,4.83334834 16.6885301,6.27526754 15.6413006,7.37069554 L15.5756105,7.43770193 L15.4432039,7.57276153 L15.2615296,7.75807585 C15.129123,7.87638392 14.9967163,7.99469193 14.8643096,8.09520143 C14.5347394,8.84988024 14.2586126,9.62767993 14.038051,10.4226242 C13.6216972,12.013193 13.3996784,13.6501576 13.3770441,15.2962873 C13.3770441,15.2795357 13.3934666,15.2627841 13.3934666,15.2460325 C13.7568151,16.1568997 13.8892218,17.0342638 14.1868802,17.9105808 C14.8636383,19.9398513 14.6387367,22.1693132 13.5710352,24.0154851 C15.8543375,24.6171786 18.1941573,24.9681641 20.5506113,25.0624589 C22.9071797,24.9694227 25.2471307,24.6184175 27.5301874,24.0154851 C26.4623523,22.169358 26.2374446,19.9398352 26.9143424,17.9105808 C27.21508,17.0342638 27.3474867,16.3087109 27.7108352,15.4145953 Z" id="Path_1192" fill="#F4F4F4"></path>
                <path d="M12.7971234,9.2081346 C12.0450425,9.46409246 11.2588922,9.60074419 10.4661503,9.61331347 C10.4825728,9.30969107 10.4989954,9.02282021 10.5154179,8.71919781 C10.5131813,6.92798894 11.777655,5.39622993 13.5084243,5.09352755 C14.4755452,4.74942992 15.4248366,4.35525604 16.3526016,3.9125411 C16.742701,3.77681795 17.1024272,3.56327746 17.4108285,3.28435682 L17.3944059,3.3011084 C17.3058055,4.82134627 16.6834723,6.2582004 15.6413006,7.3487091 L15.5756105,7.41571548 L15.4432039,7.55077508 L15.2615296,7.7360894 C14.8786608,8.08820176 14.4570735,8.39386349 14.0052059,8.64695665 C13.9887834,8.66370824 13.9723609,8.66370824 13.9559383,8.68045977 L13.7578415,8.78515716 L13.6552007,8.83541195 C13.6088798,8.86468405 13.5587892,8.88723593 13.5063715,8.90241826 C13.4591955,8.91786463 13.414562,8.94045211 13.3739648,8.96942458 C13.3200532,8.99465806 13.2648953,9.01702352 13.2087131,9.03643089 C13.1594455,9.05318249 13.1255741,9.06993409 13.0763064,9.08668561 C12.986368,9.13426372 12.8930428,9.17486166 12.7971234,9.2081346 Z M28.306152,9.2081346 C29.0582329,9.46409246 29.8443832,9.60074419 30.6371251,9.61331347 C30.6207026,9.30969107 30.60428,9.02282021 30.5878575,8.71919781 C30.5900941,6.92798894 29.3256204,5.39622993 27.5948511,5.09352755 C26.6277372,4.74941123 25.6784466,4.35523774 24.7506738,3.9125411 C24.3605629,3.77684348 24.0008322,3.5633002 23.692447,3.28435682 L23.7088695,3.3011084 C23.7974699,4.82134627 24.4198031,6.2582004 25.4619748,7.3487091 L25.5276649,7.41571548 L25.6600715,7.55077508 L25.8417458,7.7360894 C26.2246146,8.08820176 26.6462019,8.39386349 27.0980695,8.64695665 C27.114492,8.66370824 27.1309145,8.66370824 27.1473371,8.68045977 L27.3454339,8.78515716 L27.4480747,8.83541195 C27.4943956,8.86468405 27.5444862,8.88723593 27.5969039,8.90241826 C27.6440799,8.91786463 27.6887134,8.94045211 27.7293106,8.96942458 C27.7832222,8.99465806 27.8383802,9.01702352 27.8945623,9.03643089 C27.9438299,9.05318249 27.9777013,9.06993409 28.026969,9.08668561 C28.1169074,9.13426372 28.2102326,9.17486166 28.306152,9.2081346 Z" id="Path_1196" fill="#676767"></path>
            </g>
        </g>
    </g>
</svg>